G04 (created by PCBNEW (2013-07-07 BZR 4022)-stable) date 27/02/2014 1:19:26 PM*
%MOIN*%
G04 Gerber Fmt 3.4, Leading zero omitted, Abs format*
%FSLAX34Y34*%
G01*
G70*
G90*
G04 APERTURE LIST*
%ADD10C,0.00590551*%
%ADD11C,0.00393701*%
%ADD12R,0.0236X0.0787*%
%ADD13O,0.0236X0.0787*%
%ADD14R,0.0709X0.063*%
%ADD15R,0.063X0.0709*%
%ADD16R,0.06X0.12*%
%ADD17O,0.06X0.12*%
%ADD18R,0.07X0.07*%
%ADD19C,0.07*%
%ADD20C,0.23*%
%ADD21C,0.2*%
%ADD22C,0.05*%
%ADD23C,0.02*%
%ADD24C,0.01*%
G04 APERTURE END LIST*
G54D10*
G54D11*
X42500Y-33500D02*
X74000Y-33500D01*
X42500Y-52500D02*
X74000Y-52500D01*
X42500Y-52500D02*
X42500Y-33500D01*
X74000Y-33500D02*
X74000Y-52500D01*
G54D12*
X57750Y-39726D03*
G54D13*
X60750Y-41774D03*
X60250Y-41774D03*
X59750Y-41774D03*
X59250Y-41774D03*
X58750Y-41774D03*
X58250Y-41774D03*
X57750Y-41774D03*
X58250Y-39726D03*
X58750Y-39726D03*
X59250Y-39726D03*
X59750Y-39726D03*
X60250Y-39726D03*
X60750Y-39726D03*
X61250Y-39726D03*
X61250Y-41774D03*
G54D14*
X56000Y-39449D03*
X56000Y-40551D03*
G54D15*
X56051Y-41750D03*
X54949Y-41750D03*
G54D16*
X49000Y-50500D03*
G54D17*
X58000Y-50500D03*
X59000Y-50500D03*
X60000Y-50500D03*
X61000Y-50500D03*
X62000Y-50500D03*
X63000Y-50500D03*
X64000Y-50500D03*
X65000Y-50500D03*
X66000Y-50500D03*
X67000Y-50500D03*
X50000Y-50500D03*
X68000Y-50500D03*
X68000Y-44500D03*
X67000Y-44500D03*
X66000Y-44500D03*
X65000Y-44500D03*
X64000Y-44500D03*
X63000Y-44500D03*
X62000Y-44500D03*
X61000Y-44500D03*
X60000Y-44500D03*
X51000Y-50500D03*
X59000Y-44500D03*
X58000Y-44500D03*
X57000Y-44500D03*
X56000Y-44500D03*
X55000Y-44500D03*
X54000Y-44500D03*
X53000Y-44500D03*
X52000Y-44500D03*
X51000Y-44500D03*
X50000Y-44500D03*
X52000Y-50500D03*
X49000Y-44500D03*
X53000Y-50500D03*
X54000Y-50500D03*
X55000Y-50500D03*
X56000Y-50500D03*
X57000Y-50500D03*
G54D18*
X54470Y-37499D03*
G54D19*
X56069Y-36500D03*
X57159Y-36500D03*
X58250Y-36500D03*
X59341Y-36500D03*
X60431Y-36500D03*
X61522Y-36500D03*
G54D20*
X51750Y-37000D03*
X64750Y-37000D03*
G54D19*
X55550Y-37499D03*
X56630Y-37499D03*
X57710Y-37499D03*
X58790Y-37499D03*
X59870Y-37499D03*
X60950Y-37499D03*
X62030Y-37499D03*
X54978Y-36500D03*
G54D21*
X46000Y-35500D03*
X70500Y-35500D03*
X70500Y-50500D03*
X46000Y-50500D03*
G54D19*
X48000Y-46500D03*
X48000Y-40500D03*
G54D22*
X56000Y-40551D02*
X48051Y-40551D01*
X56000Y-46000D02*
X55500Y-46500D01*
X55500Y-46500D02*
X48000Y-46500D01*
X56000Y-46000D02*
X56000Y-44500D01*
X48051Y-40551D02*
X48000Y-40500D01*
X56000Y-40551D02*
X55551Y-40551D01*
X55551Y-40551D02*
X54470Y-39470D01*
X54470Y-39470D02*
X54470Y-37499D01*
X55500Y-40500D02*
X55551Y-40551D01*
G54D23*
X56051Y-41750D02*
X56051Y-40602D01*
X56051Y-40602D02*
X56000Y-40551D01*
X57750Y-41774D02*
X56075Y-41774D01*
X56075Y-41774D02*
X56051Y-41750D01*
X58250Y-41774D02*
X57750Y-41774D01*
X60750Y-41774D02*
X60750Y-41000D01*
X56699Y-39449D02*
X56000Y-39449D01*
X57000Y-39750D02*
X56699Y-39449D01*
X57000Y-40500D02*
X57000Y-39750D01*
X57250Y-40750D02*
X57000Y-40500D01*
X60500Y-40750D02*
X57250Y-40750D01*
X60750Y-41000D02*
X60500Y-40750D01*
X62000Y-50500D02*
X62000Y-49500D01*
X60750Y-42500D02*
X60750Y-41774D01*
X61250Y-43000D02*
X60750Y-42500D01*
X68500Y-43000D02*
X61250Y-43000D01*
X69500Y-44000D02*
X68500Y-43000D01*
X69500Y-48250D02*
X69500Y-44000D01*
X68500Y-49250D02*
X69500Y-48250D01*
X62250Y-49250D02*
X68500Y-49250D01*
X62000Y-49500D02*
X62250Y-49250D01*
X57750Y-39726D02*
X57750Y-37539D01*
X57750Y-37539D02*
X57710Y-37499D01*
G54D24*
X58250Y-36500D02*
X58250Y-39726D01*
G54D23*
X58750Y-39726D02*
X58750Y-37539D01*
X58750Y-37539D02*
X58790Y-37499D01*
G54D24*
X59341Y-36500D02*
X59341Y-39635D01*
X59341Y-39635D02*
X59250Y-39726D01*
G54D23*
X59750Y-39726D02*
X59750Y-37619D01*
X59750Y-37619D02*
X59870Y-37499D01*
G54D24*
X60431Y-36500D02*
X60431Y-38819D01*
X60250Y-39000D02*
X60250Y-39726D01*
X60431Y-38819D02*
X60250Y-39000D01*
G54D23*
X60750Y-39726D02*
X60750Y-37699D01*
X60750Y-37699D02*
X60950Y-37499D01*
G54D24*
X61522Y-36500D02*
X61522Y-38728D01*
X61250Y-39000D02*
X61250Y-39726D01*
X61522Y-38728D02*
X61250Y-39000D01*
G54D23*
X58850Y-43500D02*
X52300Y-43500D01*
X52000Y-43800D02*
X52300Y-43500D01*
X59750Y-41774D02*
X59750Y-42600D01*
X58850Y-43500D02*
X59750Y-42600D01*
X52000Y-43800D02*
X52000Y-44500D01*
X68500Y-48750D02*
X62250Y-48750D01*
X68500Y-48750D02*
X69000Y-48250D01*
X69000Y-48250D02*
X69000Y-44000D01*
X69000Y-44000D02*
X68500Y-43500D01*
X68500Y-43500D02*
X61150Y-43500D01*
X61150Y-43500D02*
X60250Y-42600D01*
X60250Y-41774D02*
X60250Y-42600D01*
X51000Y-49750D02*
X51000Y-50500D01*
X51250Y-49500D02*
X51000Y-49750D01*
X61500Y-49500D02*
X51250Y-49500D01*
X62250Y-48750D02*
X61500Y-49500D01*
X51500Y-43000D02*
X58750Y-43000D01*
X58750Y-43000D02*
X59250Y-42500D01*
X59250Y-42500D02*
X59250Y-41750D01*
X59250Y-41774D02*
X59250Y-41750D01*
X51000Y-43500D02*
X51000Y-44500D01*
X51000Y-43500D02*
X51500Y-43000D01*
X54949Y-41750D02*
X54949Y-42449D01*
X58750Y-42250D02*
X58750Y-41774D01*
X58500Y-42500D02*
X58750Y-42250D01*
X55000Y-42500D02*
X58500Y-42500D01*
X54949Y-42449D02*
X55000Y-42500D01*
G54D10*
G36*
X73730Y-52230D02*
X71750Y-52230D01*
X71750Y-50252D01*
X71750Y-35252D01*
X71560Y-34792D01*
X71208Y-34440D01*
X70749Y-34250D01*
X70252Y-34249D01*
X69792Y-34439D01*
X69440Y-34791D01*
X69250Y-35250D01*
X69249Y-35747D01*
X69439Y-36207D01*
X69791Y-36559D01*
X70250Y-36749D01*
X70747Y-36750D01*
X71207Y-36560D01*
X71559Y-36208D01*
X71749Y-35749D01*
X71750Y-35252D01*
X71750Y-50252D01*
X71560Y-49792D01*
X71208Y-49440D01*
X70749Y-49250D01*
X70252Y-49249D01*
X69850Y-49416D01*
X69850Y-48250D01*
X69850Y-44000D01*
X69823Y-43866D01*
X69747Y-43752D01*
X68747Y-42752D01*
X68633Y-42676D01*
X68500Y-42650D01*
X66150Y-42650D01*
X66150Y-36722D01*
X65937Y-36207D01*
X65544Y-35813D01*
X65029Y-35600D01*
X64472Y-35599D01*
X63957Y-35812D01*
X63563Y-36205D01*
X63350Y-36720D01*
X63349Y-37277D01*
X63562Y-37792D01*
X63955Y-38186D01*
X64470Y-38399D01*
X65027Y-38400D01*
X65542Y-38187D01*
X65936Y-37794D01*
X66149Y-37279D01*
X66150Y-36722D01*
X66150Y-42650D01*
X62634Y-42650D01*
X62634Y-37592D01*
X62624Y-37354D01*
X62552Y-37181D01*
X62452Y-37147D01*
X62100Y-37499D01*
X62452Y-37850D01*
X62552Y-37816D01*
X62634Y-37592D01*
X62634Y-42650D01*
X61618Y-42650D01*
X61618Y-42099D01*
X61618Y-41824D01*
X61618Y-41724D01*
X61618Y-41448D01*
X61570Y-41311D01*
X61474Y-41202D01*
X61356Y-41146D01*
X61300Y-41197D01*
X61300Y-41724D01*
X61618Y-41724D01*
X61618Y-41824D01*
X61300Y-41824D01*
X61300Y-42350D01*
X61356Y-42401D01*
X61474Y-42345D01*
X61570Y-42236D01*
X61618Y-42099D01*
X61618Y-42650D01*
X61394Y-42650D01*
X61145Y-42400D01*
X61200Y-42350D01*
X61200Y-41824D01*
X61192Y-41824D01*
X61192Y-41724D01*
X61200Y-41724D01*
X61200Y-41197D01*
X61143Y-41146D01*
X61100Y-41167D01*
X61100Y-41000D01*
X61073Y-40866D01*
X60997Y-40752D01*
X60997Y-40752D01*
X60747Y-40502D01*
X60633Y-40426D01*
X60500Y-40400D01*
X57394Y-40400D01*
X57350Y-40355D01*
X57350Y-39750D01*
X57349Y-39749D01*
X57350Y-39749D01*
X57323Y-39616D01*
X57247Y-39502D01*
X57247Y-39502D01*
X56946Y-39201D01*
X56832Y-39125D01*
X56699Y-39099D01*
X56604Y-39099D01*
X56604Y-39084D01*
X56566Y-38992D01*
X56496Y-38922D01*
X56404Y-38884D01*
X56304Y-38883D01*
X55595Y-38883D01*
X55504Y-38921D01*
X55433Y-38992D01*
X55395Y-39084D01*
X55395Y-39183D01*
X55395Y-39688D01*
X54970Y-39262D01*
X54970Y-38052D01*
X55031Y-37990D01*
X55069Y-37898D01*
X55069Y-37867D01*
X55209Y-38007D01*
X55430Y-38098D01*
X55668Y-38099D01*
X55889Y-38007D01*
X56058Y-37839D01*
X56089Y-37763D01*
X56121Y-37838D01*
X56289Y-38007D01*
X56510Y-38098D01*
X56748Y-38099D01*
X56969Y-38007D01*
X57138Y-37839D01*
X57169Y-37763D01*
X57201Y-37838D01*
X57369Y-38007D01*
X57400Y-38019D01*
X57400Y-39239D01*
X57382Y-39282D01*
X57381Y-39382D01*
X57381Y-40169D01*
X57419Y-40260D01*
X57490Y-40331D01*
X57582Y-40369D01*
X57681Y-40369D01*
X57917Y-40369D01*
X58009Y-40331D01*
X58035Y-40305D01*
X58109Y-40354D01*
X58250Y-40382D01*
X58390Y-40354D01*
X58500Y-40281D01*
X58609Y-40354D01*
X58750Y-40382D01*
X58890Y-40354D01*
X59000Y-40281D01*
X59109Y-40354D01*
X59250Y-40382D01*
X59390Y-40354D01*
X59500Y-40281D01*
X59609Y-40354D01*
X59750Y-40382D01*
X59890Y-40354D01*
X60000Y-40281D01*
X60109Y-40354D01*
X60250Y-40382D01*
X60390Y-40354D01*
X60500Y-40281D01*
X60609Y-40354D01*
X60750Y-40382D01*
X60890Y-40354D01*
X61000Y-40281D01*
X61109Y-40354D01*
X61250Y-40382D01*
X61390Y-40354D01*
X61510Y-40274D01*
X61589Y-40154D01*
X61618Y-40014D01*
X61618Y-39437D01*
X61589Y-39297D01*
X61550Y-39237D01*
X61550Y-39124D01*
X61734Y-38940D01*
X61734Y-38940D01*
X61799Y-38842D01*
X61821Y-38728D01*
X61822Y-38728D01*
X61822Y-38061D01*
X61936Y-38103D01*
X62174Y-38093D01*
X62347Y-38021D01*
X62381Y-37921D01*
X62030Y-37569D01*
X62024Y-37575D01*
X61953Y-37504D01*
X61959Y-37499D01*
X61953Y-37493D01*
X62024Y-37422D01*
X62030Y-37428D01*
X62381Y-37076D01*
X62347Y-36976D01*
X62123Y-36894D01*
X61969Y-36901D01*
X62030Y-36840D01*
X62121Y-36619D01*
X62122Y-36381D01*
X62030Y-36160D01*
X61862Y-35991D01*
X61641Y-35900D01*
X61403Y-35899D01*
X61182Y-35991D01*
X61013Y-36159D01*
X60976Y-36249D01*
X60939Y-36160D01*
X60771Y-35991D01*
X60550Y-35900D01*
X60312Y-35899D01*
X60091Y-35991D01*
X59922Y-36159D01*
X59886Y-36247D01*
X59849Y-36160D01*
X59681Y-35991D01*
X59460Y-35900D01*
X59222Y-35899D01*
X59001Y-35991D01*
X58832Y-36159D01*
X58795Y-36249D01*
X58758Y-36160D01*
X58590Y-35991D01*
X58369Y-35900D01*
X58131Y-35899D01*
X57910Y-35991D01*
X57741Y-36159D01*
X57706Y-36243D01*
X57681Y-36182D01*
X57581Y-36148D01*
X57510Y-36219D01*
X57510Y-36077D01*
X57476Y-35977D01*
X57252Y-35895D01*
X57014Y-35905D01*
X56841Y-35977D01*
X56807Y-36077D01*
X57159Y-36429D01*
X57510Y-36077D01*
X57510Y-36219D01*
X57229Y-36500D01*
X57235Y-36505D01*
X57164Y-36576D01*
X57159Y-36570D01*
X57153Y-36576D01*
X57082Y-36505D01*
X57088Y-36500D01*
X56736Y-36148D01*
X56636Y-36182D01*
X56613Y-36245D01*
X56577Y-36160D01*
X56409Y-35991D01*
X56188Y-35900D01*
X55950Y-35899D01*
X55729Y-35991D01*
X55560Y-36159D01*
X55523Y-36249D01*
X55486Y-36160D01*
X55318Y-35991D01*
X55097Y-35900D01*
X54859Y-35899D01*
X54638Y-35991D01*
X54469Y-36159D01*
X54378Y-36380D01*
X54377Y-36618D01*
X54469Y-36839D01*
X54528Y-36898D01*
X54070Y-36898D01*
X53978Y-36936D01*
X53908Y-37007D01*
X53870Y-37099D01*
X53869Y-37198D01*
X53869Y-37898D01*
X53907Y-37990D01*
X53970Y-38052D01*
X53970Y-39469D01*
X53969Y-39470D01*
X54008Y-39661D01*
X54116Y-39823D01*
X54343Y-40051D01*
X53150Y-40051D01*
X53150Y-36722D01*
X52937Y-36207D01*
X52544Y-35813D01*
X52029Y-35600D01*
X51472Y-35599D01*
X50957Y-35812D01*
X50563Y-36205D01*
X50350Y-36720D01*
X50349Y-37277D01*
X50562Y-37792D01*
X50955Y-38186D01*
X51470Y-38399D01*
X52027Y-38400D01*
X52542Y-38187D01*
X52936Y-37794D01*
X53149Y-37279D01*
X53150Y-36722D01*
X53150Y-40051D01*
X48399Y-40051D01*
X48340Y-39991D01*
X48119Y-39900D01*
X47881Y-39899D01*
X47660Y-39991D01*
X47491Y-40159D01*
X47400Y-40380D01*
X47399Y-40618D01*
X47491Y-40839D01*
X47659Y-41008D01*
X47880Y-41099D01*
X48118Y-41100D01*
X48237Y-41051D01*
X55476Y-41051D01*
X55503Y-41077D01*
X55595Y-41115D01*
X55695Y-41116D01*
X55701Y-41116D01*
X55701Y-41145D01*
X55686Y-41145D01*
X55594Y-41183D01*
X55524Y-41253D01*
X55499Y-41311D01*
X55476Y-41254D01*
X55405Y-41183D01*
X55313Y-41145D01*
X55214Y-41145D01*
X55061Y-41145D01*
X54999Y-41208D01*
X54999Y-41700D01*
X55006Y-41700D01*
X55006Y-41800D01*
X54999Y-41800D01*
X54999Y-42292D01*
X55061Y-42354D01*
X55214Y-42354D01*
X55313Y-42354D01*
X55405Y-42316D01*
X55476Y-42245D01*
X55500Y-42187D01*
X55523Y-42245D01*
X55594Y-42316D01*
X55686Y-42354D01*
X55785Y-42354D01*
X56415Y-42354D01*
X56507Y-42316D01*
X56577Y-42246D01*
X56615Y-42154D01*
X56615Y-42124D01*
X57394Y-42124D01*
X57410Y-42202D01*
X57489Y-42322D01*
X57609Y-42402D01*
X57750Y-42430D01*
X57890Y-42402D01*
X58000Y-42329D01*
X58109Y-42402D01*
X58250Y-42430D01*
X58390Y-42402D01*
X58506Y-42324D01*
X58525Y-42345D01*
X58643Y-42401D01*
X58700Y-42350D01*
X58700Y-41824D01*
X58692Y-41824D01*
X58692Y-41724D01*
X58700Y-41724D01*
X58700Y-41197D01*
X58643Y-41146D01*
X58525Y-41202D01*
X58506Y-41223D01*
X58390Y-41145D01*
X58250Y-41117D01*
X58109Y-41145D01*
X58000Y-41218D01*
X57890Y-41145D01*
X57750Y-41117D01*
X57609Y-41145D01*
X57489Y-41225D01*
X57410Y-41345D01*
X57394Y-41424D01*
X56616Y-41424D01*
X56616Y-41345D01*
X56578Y-41254D01*
X56507Y-41183D01*
X56415Y-41145D01*
X56401Y-41145D01*
X56401Y-41116D01*
X56404Y-41116D01*
X56495Y-41078D01*
X56566Y-41007D01*
X56604Y-40915D01*
X56604Y-40816D01*
X56604Y-40186D01*
X56566Y-40094D01*
X56496Y-40024D01*
X56438Y-39999D01*
X56495Y-39976D01*
X56566Y-39905D01*
X56594Y-39839D01*
X56650Y-39894D01*
X56650Y-40500D01*
X56676Y-40633D01*
X56752Y-40747D01*
X57002Y-40997D01*
X57002Y-40997D01*
X57116Y-41073D01*
X57250Y-41100D01*
X60355Y-41100D01*
X60400Y-41144D01*
X60400Y-41152D01*
X60390Y-41145D01*
X60250Y-41117D01*
X60109Y-41145D01*
X60000Y-41218D01*
X59890Y-41145D01*
X59750Y-41117D01*
X59609Y-41145D01*
X59500Y-41218D01*
X59390Y-41145D01*
X59250Y-41117D01*
X59109Y-41145D01*
X58993Y-41223D01*
X58974Y-41202D01*
X58856Y-41146D01*
X58800Y-41197D01*
X58800Y-41724D01*
X58807Y-41724D01*
X58807Y-41824D01*
X58800Y-41824D01*
X58800Y-42350D01*
X58854Y-42400D01*
X58605Y-42650D01*
X54899Y-42650D01*
X54899Y-42292D01*
X54899Y-41800D01*
X54899Y-41700D01*
X54899Y-41208D01*
X54836Y-41145D01*
X54683Y-41145D01*
X54584Y-41145D01*
X54492Y-41183D01*
X54421Y-41254D01*
X54383Y-41345D01*
X54384Y-41637D01*
X54446Y-41700D01*
X54899Y-41700D01*
X54899Y-41800D01*
X54446Y-41800D01*
X54384Y-41862D01*
X54383Y-42154D01*
X54421Y-42245D01*
X54492Y-42316D01*
X54584Y-42354D01*
X54683Y-42354D01*
X54836Y-42354D01*
X54899Y-42292D01*
X54899Y-42650D01*
X51500Y-42650D01*
X51366Y-42676D01*
X51252Y-42752D01*
X50752Y-43252D01*
X50676Y-43366D01*
X50650Y-43500D01*
X50650Y-43768D01*
X50611Y-43794D01*
X50500Y-43960D01*
X50388Y-43794D01*
X50210Y-43675D01*
X50000Y-43633D01*
X49789Y-43675D01*
X49611Y-43794D01*
X49500Y-43960D01*
X49388Y-43794D01*
X49210Y-43675D01*
X49000Y-43633D01*
X48789Y-43675D01*
X48611Y-43794D01*
X48491Y-43972D01*
X48450Y-44183D01*
X48450Y-44816D01*
X48491Y-45027D01*
X48611Y-45205D01*
X48789Y-45324D01*
X49000Y-45366D01*
X49210Y-45324D01*
X49388Y-45205D01*
X49500Y-45039D01*
X49611Y-45205D01*
X49789Y-45324D01*
X50000Y-45366D01*
X50210Y-45324D01*
X50388Y-45205D01*
X50500Y-45039D01*
X50611Y-45205D01*
X50789Y-45324D01*
X51000Y-45366D01*
X51210Y-45324D01*
X51388Y-45205D01*
X51500Y-45039D01*
X51611Y-45205D01*
X51789Y-45324D01*
X52000Y-45366D01*
X52210Y-45324D01*
X52388Y-45205D01*
X52500Y-45039D01*
X52611Y-45205D01*
X52789Y-45324D01*
X53000Y-45366D01*
X53210Y-45324D01*
X53388Y-45205D01*
X53504Y-45033D01*
X53511Y-45056D01*
X53646Y-45224D01*
X53835Y-45327D01*
X53864Y-45333D01*
X53950Y-45284D01*
X53950Y-44550D01*
X53942Y-44550D01*
X53942Y-44450D01*
X53950Y-44450D01*
X53950Y-44442D01*
X54050Y-44442D01*
X54050Y-44450D01*
X54057Y-44450D01*
X54057Y-44550D01*
X54050Y-44550D01*
X54050Y-45284D01*
X54135Y-45333D01*
X54164Y-45327D01*
X54353Y-45224D01*
X54488Y-45056D01*
X54495Y-45033D01*
X54611Y-45205D01*
X54789Y-45324D01*
X55000Y-45366D01*
X55210Y-45324D01*
X55388Y-45205D01*
X55500Y-45039D01*
X55500Y-45792D01*
X55292Y-46000D01*
X48348Y-46000D01*
X48340Y-45991D01*
X48119Y-45900D01*
X47881Y-45899D01*
X47660Y-45991D01*
X47491Y-46159D01*
X47400Y-46380D01*
X47399Y-46618D01*
X47491Y-46839D01*
X47659Y-47008D01*
X47880Y-47099D01*
X48118Y-47100D01*
X48339Y-47008D01*
X48348Y-47000D01*
X55499Y-47000D01*
X55500Y-47000D01*
X55500Y-47000D01*
X55691Y-46961D01*
X55853Y-46853D01*
X56353Y-46353D01*
X56353Y-46353D01*
X56353Y-46353D01*
X56461Y-46191D01*
X56500Y-46000D01*
X56500Y-45039D01*
X56611Y-45205D01*
X56789Y-45324D01*
X57000Y-45366D01*
X57210Y-45324D01*
X57388Y-45205D01*
X57500Y-45039D01*
X57611Y-45205D01*
X57789Y-45324D01*
X58000Y-45366D01*
X58210Y-45324D01*
X58388Y-45205D01*
X58500Y-45039D01*
X58611Y-45205D01*
X58789Y-45324D01*
X59000Y-45366D01*
X59210Y-45324D01*
X59388Y-45205D01*
X59500Y-45039D01*
X59611Y-45205D01*
X59789Y-45324D01*
X60000Y-45366D01*
X60210Y-45324D01*
X60388Y-45205D01*
X60500Y-45039D01*
X60611Y-45205D01*
X60789Y-45324D01*
X61000Y-45366D01*
X61210Y-45324D01*
X61388Y-45205D01*
X61500Y-45039D01*
X61611Y-45205D01*
X61789Y-45324D01*
X62000Y-45366D01*
X62210Y-45324D01*
X62388Y-45205D01*
X62500Y-45039D01*
X62611Y-45205D01*
X62789Y-45324D01*
X63000Y-45366D01*
X63210Y-45324D01*
X63388Y-45205D01*
X63500Y-45039D01*
X63611Y-45205D01*
X63789Y-45324D01*
X64000Y-45366D01*
X64210Y-45324D01*
X64388Y-45205D01*
X64500Y-45039D01*
X64611Y-45205D01*
X64789Y-45324D01*
X65000Y-45366D01*
X65210Y-45324D01*
X65388Y-45205D01*
X65500Y-45039D01*
X65611Y-45205D01*
X65789Y-45324D01*
X66000Y-45366D01*
X66210Y-45324D01*
X66388Y-45205D01*
X66500Y-45039D01*
X66611Y-45205D01*
X66789Y-45324D01*
X67000Y-45366D01*
X67210Y-45324D01*
X67388Y-45205D01*
X67500Y-45039D01*
X67611Y-45205D01*
X67789Y-45324D01*
X68000Y-45366D01*
X68210Y-45324D01*
X68388Y-45205D01*
X68508Y-45027D01*
X68550Y-44816D01*
X68550Y-44183D01*
X68515Y-44010D01*
X68650Y-44144D01*
X68650Y-48105D01*
X68355Y-48400D01*
X62250Y-48400D01*
X62249Y-48400D01*
X62116Y-48426D01*
X62002Y-48502D01*
X62002Y-48502D01*
X62002Y-48502D01*
X61355Y-49150D01*
X51250Y-49150D01*
X51116Y-49176D01*
X51002Y-49252D01*
X51002Y-49252D01*
X50752Y-49502D01*
X50676Y-49616D01*
X50650Y-49750D01*
X50650Y-49768D01*
X50611Y-49794D01*
X50500Y-49960D01*
X50388Y-49794D01*
X50210Y-49675D01*
X50000Y-49633D01*
X49789Y-49675D01*
X49611Y-49794D01*
X49550Y-49885D01*
X49550Y-49850D01*
X49512Y-49758D01*
X49441Y-49688D01*
X49349Y-49650D01*
X49250Y-49649D01*
X48650Y-49649D01*
X48558Y-49687D01*
X48488Y-49758D01*
X48450Y-49850D01*
X48449Y-49949D01*
X48449Y-51149D01*
X48487Y-51241D01*
X48558Y-51311D01*
X48650Y-51349D01*
X48749Y-51350D01*
X49349Y-51350D01*
X49441Y-51312D01*
X49511Y-51241D01*
X49549Y-51149D01*
X49549Y-51114D01*
X49611Y-51205D01*
X49789Y-51324D01*
X50000Y-51366D01*
X50210Y-51324D01*
X50388Y-51205D01*
X50500Y-51039D01*
X50611Y-51205D01*
X50789Y-51324D01*
X51000Y-51366D01*
X51210Y-51324D01*
X51388Y-51205D01*
X51500Y-51039D01*
X51611Y-51205D01*
X51789Y-51324D01*
X52000Y-51366D01*
X52210Y-51324D01*
X52388Y-51205D01*
X52500Y-51039D01*
X52611Y-51205D01*
X52789Y-51324D01*
X53000Y-51366D01*
X53210Y-51324D01*
X53388Y-51205D01*
X53500Y-51039D01*
X53611Y-51205D01*
X53789Y-51324D01*
X54000Y-51366D01*
X54210Y-51324D01*
X54388Y-51205D01*
X54500Y-51039D01*
X54611Y-51205D01*
X54789Y-51324D01*
X55000Y-51366D01*
X55210Y-51324D01*
X55388Y-51205D01*
X55500Y-51039D01*
X55611Y-51205D01*
X55789Y-51324D01*
X56000Y-51366D01*
X56210Y-51324D01*
X56388Y-51205D01*
X56500Y-51039D01*
X56611Y-51205D01*
X56789Y-51324D01*
X57000Y-51366D01*
X57210Y-51324D01*
X57388Y-51205D01*
X57500Y-51039D01*
X57611Y-51205D01*
X57789Y-51324D01*
X58000Y-51366D01*
X58210Y-51324D01*
X58388Y-51205D01*
X58500Y-51039D01*
X58611Y-51205D01*
X58789Y-51324D01*
X59000Y-51366D01*
X59210Y-51324D01*
X59388Y-51205D01*
X59500Y-51039D01*
X59611Y-51205D01*
X59789Y-51324D01*
X60000Y-51366D01*
X60210Y-51324D01*
X60388Y-51205D01*
X60500Y-51039D01*
X60611Y-51205D01*
X60789Y-51324D01*
X61000Y-51366D01*
X61210Y-51324D01*
X61388Y-51205D01*
X61500Y-51039D01*
X61611Y-51205D01*
X61789Y-51324D01*
X62000Y-51366D01*
X62210Y-51324D01*
X62388Y-51205D01*
X62500Y-51039D01*
X62611Y-51205D01*
X62789Y-51324D01*
X63000Y-51366D01*
X63210Y-51324D01*
X63388Y-51205D01*
X63500Y-51039D01*
X63611Y-51205D01*
X63789Y-51324D01*
X64000Y-51366D01*
X64210Y-51324D01*
X64388Y-51205D01*
X64500Y-51039D01*
X64611Y-51205D01*
X64789Y-51324D01*
X65000Y-51366D01*
X65210Y-51324D01*
X65388Y-51205D01*
X65500Y-51039D01*
X65611Y-51205D01*
X65789Y-51324D01*
X66000Y-51366D01*
X66210Y-51324D01*
X66388Y-51205D01*
X66500Y-51039D01*
X66611Y-51205D01*
X66789Y-51324D01*
X67000Y-51366D01*
X67210Y-51324D01*
X67388Y-51205D01*
X67500Y-51039D01*
X67611Y-51205D01*
X67789Y-51324D01*
X68000Y-51366D01*
X68210Y-51324D01*
X68388Y-51205D01*
X68508Y-51027D01*
X68550Y-50816D01*
X68550Y-50183D01*
X68508Y-49972D01*
X68388Y-49794D01*
X68210Y-49675D01*
X68000Y-49633D01*
X67789Y-49675D01*
X67611Y-49794D01*
X67500Y-49960D01*
X67388Y-49794D01*
X67210Y-49675D01*
X67000Y-49633D01*
X66789Y-49675D01*
X66611Y-49794D01*
X66500Y-49960D01*
X66388Y-49794D01*
X66210Y-49675D01*
X66000Y-49633D01*
X65789Y-49675D01*
X65611Y-49794D01*
X65500Y-49960D01*
X65388Y-49794D01*
X65210Y-49675D01*
X65000Y-49633D01*
X64789Y-49675D01*
X64611Y-49794D01*
X64500Y-49960D01*
X64388Y-49794D01*
X64210Y-49675D01*
X64000Y-49633D01*
X63789Y-49675D01*
X63611Y-49794D01*
X63500Y-49960D01*
X63388Y-49794D01*
X63210Y-49675D01*
X63000Y-49633D01*
X62789Y-49675D01*
X62611Y-49794D01*
X62500Y-49960D01*
X62388Y-49794D01*
X62350Y-49768D01*
X62350Y-49644D01*
X62394Y-49600D01*
X68500Y-49600D01*
X68633Y-49573D01*
X68633Y-49573D01*
X68747Y-49497D01*
X69747Y-48497D01*
X69823Y-48383D01*
X69850Y-48250D01*
X69850Y-49416D01*
X69792Y-49439D01*
X69440Y-49791D01*
X69250Y-50250D01*
X69249Y-50747D01*
X69439Y-51207D01*
X69791Y-51559D01*
X70250Y-51749D01*
X70747Y-51750D01*
X71207Y-51560D01*
X71559Y-51208D01*
X71749Y-50749D01*
X71750Y-50252D01*
X71750Y-52230D01*
X47250Y-52230D01*
X47250Y-50252D01*
X47250Y-35252D01*
X47060Y-34792D01*
X46708Y-34440D01*
X46249Y-34250D01*
X45752Y-34249D01*
X45292Y-34439D01*
X44940Y-34791D01*
X44750Y-35250D01*
X44749Y-35747D01*
X44939Y-36207D01*
X45291Y-36559D01*
X45750Y-36749D01*
X46247Y-36750D01*
X46707Y-36560D01*
X47059Y-36208D01*
X47249Y-35749D01*
X47250Y-35252D01*
X47250Y-50252D01*
X47060Y-49792D01*
X46708Y-49440D01*
X46249Y-49250D01*
X45752Y-49249D01*
X45292Y-49439D01*
X44940Y-49791D01*
X44750Y-50250D01*
X44749Y-50747D01*
X44939Y-51207D01*
X45291Y-51559D01*
X45750Y-51749D01*
X46247Y-51750D01*
X46707Y-51560D01*
X47059Y-51208D01*
X47249Y-50749D01*
X47250Y-50252D01*
X47250Y-52230D01*
X42769Y-52230D01*
X42769Y-33769D01*
X73730Y-33769D01*
X73730Y-52230D01*
X73730Y-52230D01*
G37*
G54D24*
X73730Y-52230D02*
X71750Y-52230D01*
X71750Y-50252D01*
X71750Y-35252D01*
X71560Y-34792D01*
X71208Y-34440D01*
X70749Y-34250D01*
X70252Y-34249D01*
X69792Y-34439D01*
X69440Y-34791D01*
X69250Y-35250D01*
X69249Y-35747D01*
X69439Y-36207D01*
X69791Y-36559D01*
X70250Y-36749D01*
X70747Y-36750D01*
X71207Y-36560D01*
X71559Y-36208D01*
X71749Y-35749D01*
X71750Y-35252D01*
X71750Y-50252D01*
X71560Y-49792D01*
X71208Y-49440D01*
X70749Y-49250D01*
X70252Y-49249D01*
X69850Y-49416D01*
X69850Y-48250D01*
X69850Y-44000D01*
X69823Y-43866D01*
X69747Y-43752D01*
X68747Y-42752D01*
X68633Y-42676D01*
X68500Y-42650D01*
X66150Y-42650D01*
X66150Y-36722D01*
X65937Y-36207D01*
X65544Y-35813D01*
X65029Y-35600D01*
X64472Y-35599D01*
X63957Y-35812D01*
X63563Y-36205D01*
X63350Y-36720D01*
X63349Y-37277D01*
X63562Y-37792D01*
X63955Y-38186D01*
X64470Y-38399D01*
X65027Y-38400D01*
X65542Y-38187D01*
X65936Y-37794D01*
X66149Y-37279D01*
X66150Y-36722D01*
X66150Y-42650D01*
X62634Y-42650D01*
X62634Y-37592D01*
X62624Y-37354D01*
X62552Y-37181D01*
X62452Y-37147D01*
X62100Y-37499D01*
X62452Y-37850D01*
X62552Y-37816D01*
X62634Y-37592D01*
X62634Y-42650D01*
X61618Y-42650D01*
X61618Y-42099D01*
X61618Y-41824D01*
X61618Y-41724D01*
X61618Y-41448D01*
X61570Y-41311D01*
X61474Y-41202D01*
X61356Y-41146D01*
X61300Y-41197D01*
X61300Y-41724D01*
X61618Y-41724D01*
X61618Y-41824D01*
X61300Y-41824D01*
X61300Y-42350D01*
X61356Y-42401D01*
X61474Y-42345D01*
X61570Y-42236D01*
X61618Y-42099D01*
X61618Y-42650D01*
X61394Y-42650D01*
X61145Y-42400D01*
X61200Y-42350D01*
X61200Y-41824D01*
X61192Y-41824D01*
X61192Y-41724D01*
X61200Y-41724D01*
X61200Y-41197D01*
X61143Y-41146D01*
X61100Y-41167D01*
X61100Y-41000D01*
X61073Y-40866D01*
X60997Y-40752D01*
X60997Y-40752D01*
X60747Y-40502D01*
X60633Y-40426D01*
X60500Y-40400D01*
X57394Y-40400D01*
X57350Y-40355D01*
X57350Y-39750D01*
X57349Y-39749D01*
X57350Y-39749D01*
X57323Y-39616D01*
X57247Y-39502D01*
X57247Y-39502D01*
X56946Y-39201D01*
X56832Y-39125D01*
X56699Y-39099D01*
X56604Y-39099D01*
X56604Y-39084D01*
X56566Y-38992D01*
X56496Y-38922D01*
X56404Y-38884D01*
X56304Y-38883D01*
X55595Y-38883D01*
X55504Y-38921D01*
X55433Y-38992D01*
X55395Y-39084D01*
X55395Y-39183D01*
X55395Y-39688D01*
X54970Y-39262D01*
X54970Y-38052D01*
X55031Y-37990D01*
X55069Y-37898D01*
X55069Y-37867D01*
X55209Y-38007D01*
X55430Y-38098D01*
X55668Y-38099D01*
X55889Y-38007D01*
X56058Y-37839D01*
X56089Y-37763D01*
X56121Y-37838D01*
X56289Y-38007D01*
X56510Y-38098D01*
X56748Y-38099D01*
X56969Y-38007D01*
X57138Y-37839D01*
X57169Y-37763D01*
X57201Y-37838D01*
X57369Y-38007D01*
X57400Y-38019D01*
X57400Y-39239D01*
X57382Y-39282D01*
X57381Y-39382D01*
X57381Y-40169D01*
X57419Y-40260D01*
X57490Y-40331D01*
X57582Y-40369D01*
X57681Y-40369D01*
X57917Y-40369D01*
X58009Y-40331D01*
X58035Y-40305D01*
X58109Y-40354D01*
X58250Y-40382D01*
X58390Y-40354D01*
X58500Y-40281D01*
X58609Y-40354D01*
X58750Y-40382D01*
X58890Y-40354D01*
X59000Y-40281D01*
X59109Y-40354D01*
X59250Y-40382D01*
X59390Y-40354D01*
X59500Y-40281D01*
X59609Y-40354D01*
X59750Y-40382D01*
X59890Y-40354D01*
X60000Y-40281D01*
X60109Y-40354D01*
X60250Y-40382D01*
X60390Y-40354D01*
X60500Y-40281D01*
X60609Y-40354D01*
X60750Y-40382D01*
X60890Y-40354D01*
X61000Y-40281D01*
X61109Y-40354D01*
X61250Y-40382D01*
X61390Y-40354D01*
X61510Y-40274D01*
X61589Y-40154D01*
X61618Y-40014D01*
X61618Y-39437D01*
X61589Y-39297D01*
X61550Y-39237D01*
X61550Y-39124D01*
X61734Y-38940D01*
X61734Y-38940D01*
X61799Y-38842D01*
X61821Y-38728D01*
X61822Y-38728D01*
X61822Y-38061D01*
X61936Y-38103D01*
X62174Y-38093D01*
X62347Y-38021D01*
X62381Y-37921D01*
X62030Y-37569D01*
X62024Y-37575D01*
X61953Y-37504D01*
X61959Y-37499D01*
X61953Y-37493D01*
X62024Y-37422D01*
X62030Y-37428D01*
X62381Y-37076D01*
X62347Y-36976D01*
X62123Y-36894D01*
X61969Y-36901D01*
X62030Y-36840D01*
X62121Y-36619D01*
X62122Y-36381D01*
X62030Y-36160D01*
X61862Y-35991D01*
X61641Y-35900D01*
X61403Y-35899D01*
X61182Y-35991D01*
X61013Y-36159D01*
X60976Y-36249D01*
X60939Y-36160D01*
X60771Y-35991D01*
X60550Y-35900D01*
X60312Y-35899D01*
X60091Y-35991D01*
X59922Y-36159D01*
X59886Y-36247D01*
X59849Y-36160D01*
X59681Y-35991D01*
X59460Y-35900D01*
X59222Y-35899D01*
X59001Y-35991D01*
X58832Y-36159D01*
X58795Y-36249D01*
X58758Y-36160D01*
X58590Y-35991D01*
X58369Y-35900D01*
X58131Y-35899D01*
X57910Y-35991D01*
X57741Y-36159D01*
X57706Y-36243D01*
X57681Y-36182D01*
X57581Y-36148D01*
X57510Y-36219D01*
X57510Y-36077D01*
X57476Y-35977D01*
X57252Y-35895D01*
X57014Y-35905D01*
X56841Y-35977D01*
X56807Y-36077D01*
X57159Y-36429D01*
X57510Y-36077D01*
X57510Y-36219D01*
X57229Y-36500D01*
X57235Y-36505D01*
X57164Y-36576D01*
X57159Y-36570D01*
X57153Y-36576D01*
X57082Y-36505D01*
X57088Y-36500D01*
X56736Y-36148D01*
X56636Y-36182D01*
X56613Y-36245D01*
X56577Y-36160D01*
X56409Y-35991D01*
X56188Y-35900D01*
X55950Y-35899D01*
X55729Y-35991D01*
X55560Y-36159D01*
X55523Y-36249D01*
X55486Y-36160D01*
X55318Y-35991D01*
X55097Y-35900D01*
X54859Y-35899D01*
X54638Y-35991D01*
X54469Y-36159D01*
X54378Y-36380D01*
X54377Y-36618D01*
X54469Y-36839D01*
X54528Y-36898D01*
X54070Y-36898D01*
X53978Y-36936D01*
X53908Y-37007D01*
X53870Y-37099D01*
X53869Y-37198D01*
X53869Y-37898D01*
X53907Y-37990D01*
X53970Y-38052D01*
X53970Y-39469D01*
X53969Y-39470D01*
X54008Y-39661D01*
X54116Y-39823D01*
X54343Y-40051D01*
X53150Y-40051D01*
X53150Y-36722D01*
X52937Y-36207D01*
X52544Y-35813D01*
X52029Y-35600D01*
X51472Y-35599D01*
X50957Y-35812D01*
X50563Y-36205D01*
X50350Y-36720D01*
X50349Y-37277D01*
X50562Y-37792D01*
X50955Y-38186D01*
X51470Y-38399D01*
X52027Y-38400D01*
X52542Y-38187D01*
X52936Y-37794D01*
X53149Y-37279D01*
X53150Y-36722D01*
X53150Y-40051D01*
X48399Y-40051D01*
X48340Y-39991D01*
X48119Y-39900D01*
X47881Y-39899D01*
X47660Y-39991D01*
X47491Y-40159D01*
X47400Y-40380D01*
X47399Y-40618D01*
X47491Y-40839D01*
X47659Y-41008D01*
X47880Y-41099D01*
X48118Y-41100D01*
X48237Y-41051D01*
X55476Y-41051D01*
X55503Y-41077D01*
X55595Y-41115D01*
X55695Y-41116D01*
X55701Y-41116D01*
X55701Y-41145D01*
X55686Y-41145D01*
X55594Y-41183D01*
X55524Y-41253D01*
X55499Y-41311D01*
X55476Y-41254D01*
X55405Y-41183D01*
X55313Y-41145D01*
X55214Y-41145D01*
X55061Y-41145D01*
X54999Y-41208D01*
X54999Y-41700D01*
X55006Y-41700D01*
X55006Y-41800D01*
X54999Y-41800D01*
X54999Y-42292D01*
X55061Y-42354D01*
X55214Y-42354D01*
X55313Y-42354D01*
X55405Y-42316D01*
X55476Y-42245D01*
X55500Y-42187D01*
X55523Y-42245D01*
X55594Y-42316D01*
X55686Y-42354D01*
X55785Y-42354D01*
X56415Y-42354D01*
X56507Y-42316D01*
X56577Y-42246D01*
X56615Y-42154D01*
X56615Y-42124D01*
X57394Y-42124D01*
X57410Y-42202D01*
X57489Y-42322D01*
X57609Y-42402D01*
X57750Y-42430D01*
X57890Y-42402D01*
X58000Y-42329D01*
X58109Y-42402D01*
X58250Y-42430D01*
X58390Y-42402D01*
X58506Y-42324D01*
X58525Y-42345D01*
X58643Y-42401D01*
X58700Y-42350D01*
X58700Y-41824D01*
X58692Y-41824D01*
X58692Y-41724D01*
X58700Y-41724D01*
X58700Y-41197D01*
X58643Y-41146D01*
X58525Y-41202D01*
X58506Y-41223D01*
X58390Y-41145D01*
X58250Y-41117D01*
X58109Y-41145D01*
X58000Y-41218D01*
X57890Y-41145D01*
X57750Y-41117D01*
X57609Y-41145D01*
X57489Y-41225D01*
X57410Y-41345D01*
X57394Y-41424D01*
X56616Y-41424D01*
X56616Y-41345D01*
X56578Y-41254D01*
X56507Y-41183D01*
X56415Y-41145D01*
X56401Y-41145D01*
X56401Y-41116D01*
X56404Y-41116D01*
X56495Y-41078D01*
X56566Y-41007D01*
X56604Y-40915D01*
X56604Y-40816D01*
X56604Y-40186D01*
X56566Y-40094D01*
X56496Y-40024D01*
X56438Y-39999D01*
X56495Y-39976D01*
X56566Y-39905D01*
X56594Y-39839D01*
X56650Y-39894D01*
X56650Y-40500D01*
X56676Y-40633D01*
X56752Y-40747D01*
X57002Y-40997D01*
X57002Y-40997D01*
X57116Y-41073D01*
X57250Y-41100D01*
X60355Y-41100D01*
X60400Y-41144D01*
X60400Y-41152D01*
X60390Y-41145D01*
X60250Y-41117D01*
X60109Y-41145D01*
X60000Y-41218D01*
X59890Y-41145D01*
X59750Y-41117D01*
X59609Y-41145D01*
X59500Y-41218D01*
X59390Y-41145D01*
X59250Y-41117D01*
X59109Y-41145D01*
X58993Y-41223D01*
X58974Y-41202D01*
X58856Y-41146D01*
X58800Y-41197D01*
X58800Y-41724D01*
X58807Y-41724D01*
X58807Y-41824D01*
X58800Y-41824D01*
X58800Y-42350D01*
X58854Y-42400D01*
X58605Y-42650D01*
X54899Y-42650D01*
X54899Y-42292D01*
X54899Y-41800D01*
X54899Y-41700D01*
X54899Y-41208D01*
X54836Y-41145D01*
X54683Y-41145D01*
X54584Y-41145D01*
X54492Y-41183D01*
X54421Y-41254D01*
X54383Y-41345D01*
X54384Y-41637D01*
X54446Y-41700D01*
X54899Y-41700D01*
X54899Y-41800D01*
X54446Y-41800D01*
X54384Y-41862D01*
X54383Y-42154D01*
X54421Y-42245D01*
X54492Y-42316D01*
X54584Y-42354D01*
X54683Y-42354D01*
X54836Y-42354D01*
X54899Y-42292D01*
X54899Y-42650D01*
X51500Y-42650D01*
X51366Y-42676D01*
X51252Y-42752D01*
X50752Y-43252D01*
X50676Y-43366D01*
X50650Y-43500D01*
X50650Y-43768D01*
X50611Y-43794D01*
X50500Y-43960D01*
X50388Y-43794D01*
X50210Y-43675D01*
X50000Y-43633D01*
X49789Y-43675D01*
X49611Y-43794D01*
X49500Y-43960D01*
X49388Y-43794D01*
X49210Y-43675D01*
X49000Y-43633D01*
X48789Y-43675D01*
X48611Y-43794D01*
X48491Y-43972D01*
X48450Y-44183D01*
X48450Y-44816D01*
X48491Y-45027D01*
X48611Y-45205D01*
X48789Y-45324D01*
X49000Y-45366D01*
X49210Y-45324D01*
X49388Y-45205D01*
X49500Y-45039D01*
X49611Y-45205D01*
X49789Y-45324D01*
X50000Y-45366D01*
X50210Y-45324D01*
X50388Y-45205D01*
X50500Y-45039D01*
X50611Y-45205D01*
X50789Y-45324D01*
X51000Y-45366D01*
X51210Y-45324D01*
X51388Y-45205D01*
X51500Y-45039D01*
X51611Y-45205D01*
X51789Y-45324D01*
X52000Y-45366D01*
X52210Y-45324D01*
X52388Y-45205D01*
X52500Y-45039D01*
X52611Y-45205D01*
X52789Y-45324D01*
X53000Y-45366D01*
X53210Y-45324D01*
X53388Y-45205D01*
X53504Y-45033D01*
X53511Y-45056D01*
X53646Y-45224D01*
X53835Y-45327D01*
X53864Y-45333D01*
X53950Y-45284D01*
X53950Y-44550D01*
X53942Y-44550D01*
X53942Y-44450D01*
X53950Y-44450D01*
X53950Y-44442D01*
X54050Y-44442D01*
X54050Y-44450D01*
X54057Y-44450D01*
X54057Y-44550D01*
X54050Y-44550D01*
X54050Y-45284D01*
X54135Y-45333D01*
X54164Y-45327D01*
X54353Y-45224D01*
X54488Y-45056D01*
X54495Y-45033D01*
X54611Y-45205D01*
X54789Y-45324D01*
X55000Y-45366D01*
X55210Y-45324D01*
X55388Y-45205D01*
X55500Y-45039D01*
X55500Y-45792D01*
X55292Y-46000D01*
X48348Y-46000D01*
X48340Y-45991D01*
X48119Y-45900D01*
X47881Y-45899D01*
X47660Y-45991D01*
X47491Y-46159D01*
X47400Y-46380D01*
X47399Y-46618D01*
X47491Y-46839D01*
X47659Y-47008D01*
X47880Y-47099D01*
X48118Y-47100D01*
X48339Y-47008D01*
X48348Y-47000D01*
X55499Y-47000D01*
X55500Y-47000D01*
X55500Y-47000D01*
X55691Y-46961D01*
X55853Y-46853D01*
X56353Y-46353D01*
X56353Y-46353D01*
X56353Y-46353D01*
X56461Y-46191D01*
X56500Y-46000D01*
X56500Y-45039D01*
X56611Y-45205D01*
X56789Y-45324D01*
X57000Y-45366D01*
X57210Y-45324D01*
X57388Y-45205D01*
X57500Y-45039D01*
X57611Y-45205D01*
X57789Y-45324D01*
X58000Y-45366D01*
X58210Y-45324D01*
X58388Y-45205D01*
X58500Y-45039D01*
X58611Y-45205D01*
X58789Y-45324D01*
X59000Y-45366D01*
X59210Y-45324D01*
X59388Y-45205D01*
X59500Y-45039D01*
X59611Y-45205D01*
X59789Y-45324D01*
X60000Y-45366D01*
X60210Y-45324D01*
X60388Y-45205D01*
X60500Y-45039D01*
X60611Y-45205D01*
X60789Y-45324D01*
X61000Y-45366D01*
X61210Y-45324D01*
X61388Y-45205D01*
X61500Y-45039D01*
X61611Y-45205D01*
X61789Y-45324D01*
X62000Y-45366D01*
X62210Y-45324D01*
X62388Y-45205D01*
X62500Y-45039D01*
X62611Y-45205D01*
X62789Y-45324D01*
X63000Y-45366D01*
X63210Y-45324D01*
X63388Y-45205D01*
X63500Y-45039D01*
X63611Y-45205D01*
X63789Y-45324D01*
X64000Y-45366D01*
X64210Y-45324D01*
X64388Y-45205D01*
X64500Y-45039D01*
X64611Y-45205D01*
X64789Y-45324D01*
X65000Y-45366D01*
X65210Y-45324D01*
X65388Y-45205D01*
X65500Y-45039D01*
X65611Y-45205D01*
X65789Y-45324D01*
X66000Y-45366D01*
X66210Y-45324D01*
X66388Y-45205D01*
X66500Y-45039D01*
X66611Y-45205D01*
X66789Y-45324D01*
X67000Y-45366D01*
X67210Y-45324D01*
X67388Y-45205D01*
X67500Y-45039D01*
X67611Y-45205D01*
X67789Y-45324D01*
X68000Y-45366D01*
X68210Y-45324D01*
X68388Y-45205D01*
X68508Y-45027D01*
X68550Y-44816D01*
X68550Y-44183D01*
X68515Y-44010D01*
X68650Y-44144D01*
X68650Y-48105D01*
X68355Y-48400D01*
X62250Y-48400D01*
X62249Y-48400D01*
X62116Y-48426D01*
X62002Y-48502D01*
X62002Y-48502D01*
X62002Y-48502D01*
X61355Y-49150D01*
X51250Y-49150D01*
X51116Y-49176D01*
X51002Y-49252D01*
X51002Y-49252D01*
X50752Y-49502D01*
X50676Y-49616D01*
X50650Y-49750D01*
X50650Y-49768D01*
X50611Y-49794D01*
X50500Y-49960D01*
X50388Y-49794D01*
X50210Y-49675D01*
X50000Y-49633D01*
X49789Y-49675D01*
X49611Y-49794D01*
X49550Y-49885D01*
X49550Y-49850D01*
X49512Y-49758D01*
X49441Y-49688D01*
X49349Y-49650D01*
X49250Y-49649D01*
X48650Y-49649D01*
X48558Y-49687D01*
X48488Y-49758D01*
X48450Y-49850D01*
X48449Y-49949D01*
X48449Y-51149D01*
X48487Y-51241D01*
X48558Y-51311D01*
X48650Y-51349D01*
X48749Y-51350D01*
X49349Y-51350D01*
X49441Y-51312D01*
X49511Y-51241D01*
X49549Y-51149D01*
X49549Y-51114D01*
X49611Y-51205D01*
X49789Y-51324D01*
X50000Y-51366D01*
X50210Y-51324D01*
X50388Y-51205D01*
X50500Y-51039D01*
X50611Y-51205D01*
X50789Y-51324D01*
X51000Y-51366D01*
X51210Y-51324D01*
X51388Y-51205D01*
X51500Y-51039D01*
X51611Y-51205D01*
X51789Y-51324D01*
X52000Y-51366D01*
X52210Y-51324D01*
X52388Y-51205D01*
X52500Y-51039D01*
X52611Y-51205D01*
X52789Y-51324D01*
X53000Y-51366D01*
X53210Y-51324D01*
X53388Y-51205D01*
X53500Y-51039D01*
X53611Y-51205D01*
X53789Y-51324D01*
X54000Y-51366D01*
X54210Y-51324D01*
X54388Y-51205D01*
X54500Y-51039D01*
X54611Y-51205D01*
X54789Y-51324D01*
X55000Y-51366D01*
X55210Y-51324D01*
X55388Y-51205D01*
X55500Y-51039D01*
X55611Y-51205D01*
X55789Y-51324D01*
X56000Y-51366D01*
X56210Y-51324D01*
X56388Y-51205D01*
X56500Y-51039D01*
X56611Y-51205D01*
X56789Y-51324D01*
X57000Y-51366D01*
X57210Y-51324D01*
X57388Y-51205D01*
X57500Y-51039D01*
X57611Y-51205D01*
X57789Y-51324D01*
X58000Y-51366D01*
X58210Y-51324D01*
X58388Y-51205D01*
X58500Y-51039D01*
X58611Y-51205D01*
X58789Y-51324D01*
X59000Y-51366D01*
X59210Y-51324D01*
X59388Y-51205D01*
X59500Y-51039D01*
X59611Y-51205D01*
X59789Y-51324D01*
X60000Y-51366D01*
X60210Y-51324D01*
X60388Y-51205D01*
X60500Y-51039D01*
X60611Y-51205D01*
X60789Y-51324D01*
X61000Y-51366D01*
X61210Y-51324D01*
X61388Y-51205D01*
X61500Y-51039D01*
X61611Y-51205D01*
X61789Y-51324D01*
X62000Y-51366D01*
X62210Y-51324D01*
X62388Y-51205D01*
X62500Y-51039D01*
X62611Y-51205D01*
X62789Y-51324D01*
X63000Y-51366D01*
X63210Y-51324D01*
X63388Y-51205D01*
X63500Y-51039D01*
X63611Y-51205D01*
X63789Y-51324D01*
X64000Y-51366D01*
X64210Y-51324D01*
X64388Y-51205D01*
X64500Y-51039D01*
X64611Y-51205D01*
X64789Y-51324D01*
X65000Y-51366D01*
X65210Y-51324D01*
X65388Y-51205D01*
X65500Y-51039D01*
X65611Y-51205D01*
X65789Y-51324D01*
X66000Y-51366D01*
X66210Y-51324D01*
X66388Y-51205D01*
X66500Y-51039D01*
X66611Y-51205D01*
X66789Y-51324D01*
X67000Y-51366D01*
X67210Y-51324D01*
X67388Y-51205D01*
X67500Y-51039D01*
X67611Y-51205D01*
X67789Y-51324D01*
X68000Y-51366D01*
X68210Y-51324D01*
X68388Y-51205D01*
X68508Y-51027D01*
X68550Y-50816D01*
X68550Y-50183D01*
X68508Y-49972D01*
X68388Y-49794D01*
X68210Y-49675D01*
X68000Y-49633D01*
X67789Y-49675D01*
X67611Y-49794D01*
X67500Y-49960D01*
X67388Y-49794D01*
X67210Y-49675D01*
X67000Y-49633D01*
X66789Y-49675D01*
X66611Y-49794D01*
X66500Y-49960D01*
X66388Y-49794D01*
X66210Y-49675D01*
X66000Y-49633D01*
X65789Y-49675D01*
X65611Y-49794D01*
X65500Y-49960D01*
X65388Y-49794D01*
X65210Y-49675D01*
X65000Y-49633D01*
X64789Y-49675D01*
X64611Y-49794D01*
X64500Y-49960D01*
X64388Y-49794D01*
X64210Y-49675D01*
X64000Y-49633D01*
X63789Y-49675D01*
X63611Y-49794D01*
X63500Y-49960D01*
X63388Y-49794D01*
X63210Y-49675D01*
X63000Y-49633D01*
X62789Y-49675D01*
X62611Y-49794D01*
X62500Y-49960D01*
X62388Y-49794D01*
X62350Y-49768D01*
X62350Y-49644D01*
X62394Y-49600D01*
X68500Y-49600D01*
X68633Y-49573D01*
X68633Y-49573D01*
X68747Y-49497D01*
X69747Y-48497D01*
X69823Y-48383D01*
X69850Y-48250D01*
X69850Y-49416D01*
X69792Y-49439D01*
X69440Y-49791D01*
X69250Y-50250D01*
X69249Y-50747D01*
X69439Y-51207D01*
X69791Y-51559D01*
X70250Y-51749D01*
X70747Y-51750D01*
X71207Y-51560D01*
X71559Y-51208D01*
X71749Y-50749D01*
X71750Y-50252D01*
X71750Y-52230D01*
X47250Y-52230D01*
X47250Y-50252D01*
X47250Y-35252D01*
X47060Y-34792D01*
X46708Y-34440D01*
X46249Y-34250D01*
X45752Y-34249D01*
X45292Y-34439D01*
X44940Y-34791D01*
X44750Y-35250D01*
X44749Y-35747D01*
X44939Y-36207D01*
X45291Y-36559D01*
X45750Y-36749D01*
X46247Y-36750D01*
X46707Y-36560D01*
X47059Y-36208D01*
X47249Y-35749D01*
X47250Y-35252D01*
X47250Y-50252D01*
X47060Y-49792D01*
X46708Y-49440D01*
X46249Y-49250D01*
X45752Y-49249D01*
X45292Y-49439D01*
X44940Y-49791D01*
X44750Y-50250D01*
X44749Y-50747D01*
X44939Y-51207D01*
X45291Y-51559D01*
X45750Y-51749D01*
X46247Y-51750D01*
X46707Y-51560D01*
X47059Y-51208D01*
X47249Y-50749D01*
X47250Y-50252D01*
X47250Y-52230D01*
X42769Y-52230D01*
X42769Y-33769D01*
X73730Y-33769D01*
X73730Y-52230D01*
M02*
