G04 (created by PCBNEW (2013-07-07 BZR 4022)-stable) date 2/12/2014 11:08:09 AM*
%MOIN*%
G04 Gerber Fmt 3.4, Leading zero omitted, Abs format*
%FSLAX34Y34*%
G01*
G70*
G90*
G04 APERTURE LIST*
%ADD10C,0.00590551*%
%ADD11C,0.00393701*%
%ADD12O,0.07X0.12*%
%ADD13R,0.06X0.1*%
%ADD14O,0.06X0.1*%
%ADD15R,0.07X0.07*%
%ADD16C,0.07*%
%ADD17C,0.2*%
%ADD18C,0.1*%
%ADD19R,0.08X0.08*%
%ADD20C,0.08*%
%ADD21O,0.216535X0.11811*%
%ADD22O,0.11811X0.216535*%
%ADD23O,0.0866142X0.0669291*%
%ADD24C,0.15748*%
%ADD25C,0.035*%
%ADD26C,0.01*%
%ADD27C,0.02*%
%ADD28C,0.05*%
%ADD29C,0.008*%
G04 APERTURE END LIST*
G54D10*
G54D11*
X71000Y-30250D02*
X71000Y-58750D01*
X41000Y-58750D02*
X41000Y-30250D01*
X42000Y-59750D02*
X70000Y-59750D01*
X70000Y-29250D02*
X42000Y-29250D01*
X70000Y-59750D02*
G75*
G03X71000Y-58750I0J1000D01*
G74*
G01*
X41000Y-58750D02*
G75*
G03X42000Y-59750I1000J0D01*
G74*
G01*
X71000Y-30250D02*
G75*
G03X70000Y-29250I-1000J0D01*
G74*
G01*
X42000Y-29250D02*
G75*
G03X41000Y-30250I0J-1000D01*
G74*
G01*
G54D12*
X54000Y-58250D03*
X53000Y-58250D03*
X52000Y-58250D03*
X48500Y-58250D03*
X47500Y-58250D03*
X46500Y-58250D03*
X65500Y-58250D03*
X64500Y-58250D03*
X63500Y-58250D03*
X60000Y-58250D03*
X59000Y-58250D03*
X58000Y-58250D03*
G54D13*
X49800Y-45000D03*
G54D14*
X50800Y-45000D03*
X51800Y-45000D03*
G54D15*
X57800Y-31250D03*
G54D16*
X57800Y-30250D03*
X58800Y-31250D03*
X58800Y-30250D03*
X59800Y-31250D03*
X59800Y-30250D03*
G54D15*
X69600Y-52900D03*
G54D16*
X69600Y-51900D03*
X69600Y-50900D03*
G54D15*
X69600Y-39000D03*
G54D16*
X69600Y-38000D03*
X69600Y-37000D03*
G54D17*
X69000Y-31250D03*
X43000Y-31250D03*
X69000Y-55250D03*
X43000Y-55250D03*
G54D18*
X46200Y-48800D03*
X48200Y-48800D03*
X46200Y-53000D03*
X48200Y-53000D03*
G54D19*
X52000Y-52250D03*
G54D20*
X53000Y-52250D03*
G54D18*
X52800Y-40600D03*
X48800Y-40600D03*
G54D15*
X69600Y-42600D03*
G54D16*
X69600Y-41600D03*
X69600Y-40600D03*
G54D18*
X49500Y-56250D03*
X45500Y-56250D03*
X55000Y-56250D03*
X51000Y-56250D03*
X61000Y-56250D03*
X57000Y-56250D03*
X66500Y-56250D03*
X62500Y-56250D03*
G54D15*
X69600Y-35400D03*
G54D16*
X69600Y-34400D03*
X69600Y-33400D03*
G54D21*
X47000Y-33984D03*
X47000Y-31622D03*
G54D22*
X45110Y-33000D03*
G54D23*
X63907Y-33104D03*
X64892Y-33104D03*
X64892Y-32316D03*
X63907Y-32316D03*
G54D24*
X62029Y-31250D03*
X66770Y-31250D03*
G54D16*
X49850Y-38300D03*
X50850Y-38300D03*
G54D15*
X69600Y-46200D03*
G54D16*
X69600Y-45200D03*
X69600Y-44200D03*
G54D25*
X54700Y-50250D03*
X66750Y-53000D03*
X68500Y-42200D03*
X60500Y-44500D03*
X68600Y-44300D03*
X54100Y-45650D03*
X59000Y-35350D03*
X58300Y-34750D03*
X61600Y-37750D03*
X55000Y-38950D03*
X58300Y-35750D03*
X63800Y-35850D03*
X65100Y-36150D03*
X61200Y-36950D03*
X56900Y-37650D03*
X57200Y-37350D03*
X57500Y-38150D03*
X44300Y-39000D03*
X56600Y-34400D03*
X56600Y-34850D03*
X43200Y-39000D03*
X44000Y-42800D03*
X56050Y-30050D03*
X56600Y-35300D03*
X57500Y-45100D03*
X56500Y-45500D03*
X56600Y-36050D03*
X56300Y-38350D03*
X68400Y-41300D03*
X68600Y-43400D03*
X58800Y-42300D03*
X60700Y-40700D03*
X63000Y-44700D03*
X56100Y-42550D03*
X64300Y-41650D03*
X67900Y-46200D03*
X66900Y-44500D03*
X59700Y-46100D03*
X55600Y-44950D03*
X57700Y-43800D03*
X64500Y-42200D03*
X59600Y-35400D03*
X56700Y-30040D03*
X55000Y-29750D03*
X59800Y-39750D03*
X56000Y-41150D03*
X55100Y-40350D03*
X57200Y-33750D03*
X64000Y-36850D03*
X59100Y-36550D03*
X59800Y-33550D03*
X66800Y-36650D03*
X53850Y-53150D03*
X61500Y-54250D03*
X60250Y-55000D03*
X62400Y-41000D03*
X64400Y-40000D03*
X60600Y-42100D03*
X60700Y-42600D03*
X64450Y-40650D03*
X65000Y-38150D03*
X65900Y-38850D03*
X56350Y-52850D03*
X56000Y-51500D03*
X54600Y-53100D03*
X52250Y-48900D03*
X55900Y-57500D03*
X59000Y-48000D03*
X58200Y-47300D03*
X43500Y-40950D03*
X44500Y-40950D03*
X44000Y-40950D03*
X58500Y-54250D03*
X59000Y-49850D03*
G54D26*
X66250Y-53000D02*
X66750Y-53000D01*
X63500Y-50250D02*
X66250Y-53000D01*
X63500Y-50250D02*
X54700Y-50250D01*
X69600Y-41600D02*
X69100Y-41600D01*
X69100Y-41600D02*
X68500Y-42200D01*
G54D27*
X60500Y-45800D02*
X60500Y-44500D01*
X61300Y-46600D02*
X60500Y-45800D01*
X68200Y-46600D02*
X61300Y-46600D01*
X68600Y-46200D02*
X68200Y-46600D01*
X68600Y-44300D02*
X68600Y-46200D01*
X70100Y-38000D02*
X70400Y-37700D01*
X70100Y-34400D02*
X69600Y-34400D01*
X70400Y-34700D02*
X70100Y-34400D01*
X70400Y-37700D02*
X70400Y-34700D01*
X70100Y-41600D02*
X70400Y-41300D01*
X70100Y-38000D02*
X69600Y-38000D01*
X70400Y-38300D02*
X70100Y-38000D01*
X70400Y-41300D02*
X70400Y-38300D01*
X69600Y-45200D02*
X70100Y-45200D01*
X70100Y-41600D02*
X69600Y-41600D01*
X70400Y-41900D02*
X70100Y-41600D01*
X70400Y-44900D02*
X70400Y-41900D01*
X70100Y-45200D02*
X70400Y-44900D01*
X54400Y-39550D02*
X54400Y-43900D01*
X54400Y-39550D02*
X55000Y-38950D01*
X54400Y-45350D02*
X54400Y-43900D01*
X54100Y-45650D02*
X54400Y-45350D01*
X59000Y-35350D02*
X58700Y-35350D01*
X58700Y-35350D02*
X58300Y-35750D01*
X58300Y-34750D02*
X58300Y-35750D01*
G54D26*
X59100Y-35750D02*
X58300Y-35750D01*
X61600Y-37750D02*
X60400Y-37750D01*
X60400Y-37750D02*
X60200Y-37550D01*
X60200Y-37550D02*
X60200Y-36850D01*
X60200Y-36850D02*
X59100Y-35750D01*
G54D27*
X55000Y-38950D02*
X57500Y-38950D01*
X58300Y-38150D02*
X58300Y-35750D01*
X57500Y-38950D02*
X58300Y-38150D01*
G54D26*
X64800Y-35850D02*
X63800Y-35850D01*
X65100Y-36150D02*
X64800Y-35850D01*
X59800Y-31250D02*
X60100Y-31250D01*
X60100Y-31250D02*
X61200Y-32350D01*
X61200Y-36950D02*
X61200Y-32350D01*
X56900Y-37650D02*
X56900Y-37150D01*
X57200Y-31850D02*
X57200Y-30050D01*
X57500Y-29750D02*
X58600Y-29750D01*
X58600Y-29750D02*
X58800Y-29950D01*
X58800Y-30250D02*
X58800Y-29950D01*
X56900Y-37150D02*
X57600Y-36450D01*
X57600Y-36450D02*
X57600Y-32250D01*
X57600Y-32250D02*
X57200Y-31850D01*
X57200Y-30050D02*
X57500Y-29750D01*
X57800Y-31250D02*
X57800Y-36750D01*
X57800Y-36750D02*
X57200Y-37350D01*
X57500Y-38150D02*
X58000Y-37650D01*
X58800Y-31250D02*
X58800Y-31550D01*
X58800Y-31550D02*
X58000Y-32350D01*
X58000Y-37650D02*
X58000Y-32350D01*
X48700Y-34600D02*
X56000Y-34600D01*
X48700Y-34600D02*
X44300Y-39000D01*
X56000Y-34600D02*
X56200Y-34400D01*
X56200Y-34400D02*
X56600Y-34400D01*
X56600Y-34850D02*
X48750Y-34850D01*
X43600Y-39400D02*
X43200Y-39000D01*
X44500Y-39400D02*
X43600Y-39400D01*
X44800Y-39100D02*
X44500Y-39400D01*
X44800Y-38800D02*
X44800Y-39100D01*
X48750Y-34850D02*
X44800Y-38800D01*
X48800Y-35100D02*
X56000Y-35100D01*
X44000Y-42800D02*
X45100Y-41700D01*
X45100Y-41700D02*
X45100Y-38800D01*
X45100Y-38800D02*
X48800Y-35100D01*
X56600Y-35300D02*
X56200Y-35300D01*
X56200Y-35300D02*
X56000Y-35100D01*
X56600Y-35300D02*
X56900Y-35300D01*
X56050Y-33400D02*
X56050Y-30050D01*
X56050Y-33750D02*
X56050Y-33400D01*
X56300Y-34000D02*
X56050Y-33750D01*
X56700Y-34000D02*
X56300Y-34000D01*
X57000Y-34300D02*
X56700Y-34000D01*
X57000Y-35200D02*
X57000Y-34300D01*
X56900Y-35300D02*
X57000Y-35200D01*
X56500Y-45500D02*
X57100Y-45500D01*
X57100Y-45500D02*
X57500Y-45100D01*
X56600Y-36050D02*
X56300Y-36350D01*
X56300Y-38350D02*
X56300Y-36350D01*
G54D27*
X66900Y-44500D02*
X66900Y-44000D01*
X65100Y-42200D02*
X64500Y-42200D01*
X66900Y-44000D02*
X65100Y-42200D01*
X55600Y-44950D02*
X55600Y-45600D01*
X59400Y-46400D02*
X59700Y-46100D01*
X56400Y-46400D02*
X59400Y-46400D01*
X55600Y-45600D02*
X56400Y-46400D01*
X57700Y-43800D02*
X64100Y-43800D01*
X64500Y-42200D02*
X64500Y-43400D01*
X64100Y-43800D02*
X64500Y-43400D01*
X57700Y-43800D02*
X56750Y-43800D01*
X56750Y-43800D02*
X55600Y-44950D01*
G54D26*
X56700Y-30040D02*
X56700Y-29700D01*
X55250Y-29500D02*
X55000Y-29750D01*
X56500Y-29500D02*
X55250Y-29500D01*
X56700Y-29700D02*
X56500Y-29500D01*
G54D27*
X54000Y-53300D02*
X53850Y-53150D01*
X54000Y-53550D02*
X54000Y-58250D01*
X54000Y-53550D02*
X54000Y-53300D01*
X61000Y-54250D02*
X61500Y-54250D01*
X60250Y-55000D02*
X61000Y-54250D01*
G54D28*
X61000Y-56250D02*
X60000Y-56250D01*
X59300Y-55550D02*
X58000Y-55550D01*
X60000Y-56250D02*
X59300Y-55550D01*
X58000Y-58250D02*
X58000Y-55550D01*
X54700Y-52250D02*
X53000Y-52250D01*
X58000Y-55550D02*
X54700Y-52250D01*
X58000Y-58250D02*
X58000Y-57000D01*
X62500Y-56250D02*
X63250Y-56250D01*
X63500Y-56500D02*
X63500Y-58250D01*
X63250Y-56250D02*
X63500Y-56500D01*
X61000Y-56250D02*
X62500Y-56250D01*
G54D26*
X69600Y-35400D02*
X69100Y-35400D01*
X68700Y-39200D02*
X68200Y-39700D01*
X68700Y-35800D02*
X68700Y-39200D01*
X69100Y-35400D02*
X68700Y-35800D01*
X64100Y-39700D02*
X68200Y-39700D01*
X62400Y-41000D02*
X62800Y-41000D01*
X62800Y-41000D02*
X64100Y-39700D01*
X64100Y-40000D02*
X64400Y-40000D01*
X62000Y-42100D02*
X64100Y-40000D01*
X60600Y-42100D02*
X62000Y-42100D01*
X64450Y-40650D02*
X63750Y-40650D01*
X61000Y-42300D02*
X60700Y-42600D01*
X62100Y-42300D02*
X61000Y-42300D01*
X63200Y-41200D02*
X62100Y-42300D01*
X63750Y-40650D02*
X63200Y-41200D01*
G54D28*
X52000Y-52250D02*
X51000Y-53250D01*
X51000Y-53250D02*
X51000Y-56250D01*
X51000Y-56250D02*
X51500Y-56250D01*
X51500Y-56250D02*
X52000Y-56750D01*
X52000Y-56750D02*
X52000Y-58250D01*
X46500Y-58250D02*
X46500Y-57500D01*
X47750Y-56250D02*
X49500Y-56250D01*
X46500Y-57500D02*
X47750Y-56250D01*
X49500Y-56250D02*
X51000Y-56250D01*
G54D26*
X64892Y-33104D02*
X65154Y-33104D01*
X65600Y-37550D02*
X65000Y-38150D01*
X65600Y-33550D02*
X65600Y-37550D01*
X65154Y-33104D02*
X65600Y-33550D01*
X65166Y-32316D02*
X64892Y-32316D01*
X65800Y-32950D02*
X65166Y-32316D01*
X65800Y-38750D02*
X65800Y-32950D01*
X65900Y-38850D02*
X65800Y-38750D01*
G54D27*
X56000Y-52500D02*
X56350Y-52850D01*
X56000Y-51500D02*
X56000Y-52500D01*
G54D26*
X43500Y-40950D02*
X44000Y-40950D01*
G54D10*
G36*
X70820Y-32510D02*
X70160Y-32510D01*
X70160Y-31136D01*
X70115Y-30913D01*
X70029Y-30702D01*
X69903Y-30513D01*
X69742Y-30351D01*
X69554Y-30224D01*
X69344Y-30136D01*
X69121Y-30090D01*
X68894Y-30089D01*
X68670Y-30131D01*
X68459Y-30217D01*
X68269Y-30341D01*
X68107Y-30500D01*
X67978Y-30688D01*
X67888Y-30897D01*
X67841Y-31120D01*
X67838Y-31347D01*
X67879Y-31571D01*
X67963Y-31782D01*
X68086Y-31974D01*
X68244Y-32137D01*
X68431Y-32267D01*
X68639Y-32358D01*
X68861Y-32407D01*
X69089Y-32412D01*
X69313Y-32372D01*
X69525Y-32290D01*
X69717Y-32168D01*
X69882Y-32011D01*
X70013Y-31825D01*
X70106Y-31617D01*
X70156Y-31396D01*
X70160Y-31136D01*
X70160Y-32510D01*
X67860Y-32510D01*
X67860Y-39110D01*
X67717Y-39110D01*
X67717Y-31157D01*
X67681Y-30974D01*
X67610Y-30803D01*
X67507Y-30648D01*
X67376Y-30516D01*
X67222Y-30412D01*
X67051Y-30340D01*
X66869Y-30303D01*
X66683Y-30301D01*
X66501Y-30336D01*
X66329Y-30406D01*
X66173Y-30508D01*
X66040Y-30638D01*
X65935Y-30791D01*
X65862Y-30962D01*
X65824Y-31143D01*
X65821Y-31329D01*
X65854Y-31512D01*
X65923Y-31685D01*
X66024Y-31841D01*
X66153Y-31974D01*
X66305Y-32081D01*
X66475Y-32155D01*
X66657Y-32195D01*
X66843Y-32199D01*
X67026Y-32166D01*
X67199Y-32099D01*
X67356Y-32000D01*
X67490Y-31872D01*
X67597Y-31720D01*
X67673Y-31550D01*
X67714Y-31369D01*
X67717Y-31157D01*
X67717Y-39110D01*
X66112Y-39110D01*
X66154Y-39069D01*
X66192Y-39016D01*
X66219Y-38956D01*
X66233Y-38892D01*
X66235Y-38817D01*
X66222Y-38752D01*
X66197Y-38691D01*
X66160Y-38637D01*
X66114Y-38590D01*
X66060Y-38553D01*
X66010Y-38532D01*
X66010Y-32950D01*
X66008Y-32930D01*
X66006Y-32911D01*
X66006Y-32910D01*
X66006Y-32909D01*
X66000Y-32890D01*
X65994Y-32872D01*
X65994Y-32871D01*
X65994Y-32869D01*
X65985Y-32852D01*
X65976Y-32835D01*
X65975Y-32834D01*
X65974Y-32833D01*
X65962Y-32818D01*
X65950Y-32803D01*
X65949Y-32802D01*
X65949Y-32802D01*
X65948Y-32802D01*
X65948Y-32801D01*
X65486Y-32339D01*
X65488Y-32320D01*
X65479Y-32224D01*
X65452Y-32131D01*
X65407Y-32046D01*
X65346Y-31970D01*
X65272Y-31908D01*
X65188Y-31862D01*
X65096Y-31833D01*
X65000Y-31822D01*
X64993Y-31822D01*
X64790Y-31822D01*
X64694Y-31831D01*
X64602Y-31859D01*
X64517Y-31904D01*
X64442Y-31965D01*
X64399Y-32017D01*
X64379Y-31990D01*
X64309Y-31924D01*
X64227Y-31872D01*
X64136Y-31838D01*
X64041Y-31822D01*
X63942Y-31822D01*
X63942Y-32281D01*
X63950Y-32281D01*
X63950Y-32351D01*
X63942Y-32351D01*
X63942Y-32359D01*
X63872Y-32359D01*
X63872Y-32351D01*
X63872Y-32281D01*
X63872Y-31822D01*
X63774Y-31822D01*
X63679Y-31838D01*
X63588Y-31872D01*
X63506Y-31924D01*
X63436Y-31990D01*
X63379Y-32069D01*
X63339Y-32157D01*
X63327Y-32205D01*
X63356Y-32281D01*
X63872Y-32281D01*
X63872Y-32351D01*
X63356Y-32351D01*
X63327Y-32428D01*
X63339Y-32476D01*
X63379Y-32564D01*
X63436Y-32643D01*
X63506Y-32709D01*
X63509Y-32711D01*
X63458Y-32753D01*
X63396Y-32827D01*
X63350Y-32912D01*
X63322Y-33004D01*
X63311Y-33100D01*
X63320Y-33197D01*
X63347Y-33289D01*
X63392Y-33375D01*
X63453Y-33450D01*
X63527Y-33512D01*
X63611Y-33558D01*
X63703Y-33588D01*
X63799Y-33598D01*
X63806Y-33598D01*
X64009Y-33598D01*
X64105Y-33589D01*
X64197Y-33561D01*
X64282Y-33516D01*
X64357Y-33455D01*
X64400Y-33404D01*
X64437Y-33450D01*
X64511Y-33512D01*
X64595Y-33558D01*
X64687Y-33588D01*
X64783Y-33598D01*
X64790Y-33598D01*
X64993Y-33598D01*
X65089Y-33589D01*
X65181Y-33561D01*
X65267Y-33516D01*
X65268Y-33515D01*
X65390Y-33636D01*
X65390Y-35981D01*
X65360Y-35937D01*
X65314Y-35890D01*
X65260Y-35853D01*
X65199Y-35828D01*
X65135Y-35815D01*
X65069Y-35814D01*
X65062Y-35816D01*
X64948Y-35701D01*
X64933Y-35689D01*
X64918Y-35676D01*
X64917Y-35676D01*
X64916Y-35675D01*
X64899Y-35666D01*
X64882Y-35656D01*
X64881Y-35656D01*
X64880Y-35656D01*
X64862Y-35650D01*
X64843Y-35644D01*
X64842Y-35644D01*
X64841Y-35644D01*
X64822Y-35642D01*
X64802Y-35640D01*
X64800Y-35640D01*
X64800Y-35640D01*
X64800Y-35640D01*
X64800Y-35640D01*
X64062Y-35640D01*
X64060Y-35637D01*
X64014Y-35590D01*
X63960Y-35553D01*
X63899Y-35528D01*
X63835Y-35515D01*
X63769Y-35514D01*
X63704Y-35527D01*
X63644Y-35551D01*
X63589Y-35587D01*
X63542Y-35633D01*
X63505Y-35687D01*
X63479Y-35748D01*
X63465Y-35812D01*
X63464Y-35878D01*
X63476Y-35942D01*
X63500Y-36003D01*
X63536Y-36059D01*
X63581Y-36106D01*
X63635Y-36143D01*
X63695Y-36170D01*
X63760Y-36184D01*
X63825Y-36185D01*
X63890Y-36174D01*
X63951Y-36150D01*
X64007Y-36115D01*
X64054Y-36069D01*
X64061Y-36060D01*
X64713Y-36060D01*
X64765Y-36112D01*
X64765Y-36112D01*
X64764Y-36178D01*
X64776Y-36242D01*
X64800Y-36303D01*
X64836Y-36359D01*
X64881Y-36406D01*
X64935Y-36443D01*
X64995Y-36470D01*
X65060Y-36484D01*
X65125Y-36485D01*
X65190Y-36474D01*
X65251Y-36450D01*
X65307Y-36415D01*
X65354Y-36369D01*
X65390Y-36320D01*
X65390Y-37463D01*
X65037Y-37815D01*
X65035Y-37815D01*
X64969Y-37814D01*
X64904Y-37827D01*
X64844Y-37851D01*
X64789Y-37887D01*
X64742Y-37933D01*
X64705Y-37987D01*
X64679Y-38048D01*
X64665Y-38112D01*
X64664Y-38178D01*
X64676Y-38242D01*
X64700Y-38303D01*
X64736Y-38359D01*
X64781Y-38406D01*
X64835Y-38443D01*
X64895Y-38470D01*
X64960Y-38484D01*
X65025Y-38485D01*
X65090Y-38474D01*
X65151Y-38450D01*
X65207Y-38415D01*
X65254Y-38369D01*
X65292Y-38316D01*
X65319Y-38256D01*
X65333Y-38192D01*
X65335Y-38117D01*
X65334Y-38112D01*
X65590Y-37856D01*
X65590Y-38722D01*
X65579Y-38748D01*
X65565Y-38812D01*
X65564Y-38878D01*
X65576Y-38942D01*
X65600Y-39003D01*
X65636Y-39059D01*
X65681Y-39106D01*
X65687Y-39110D01*
X62977Y-39110D01*
X62977Y-31157D01*
X62941Y-30974D01*
X62870Y-30803D01*
X62767Y-30648D01*
X62636Y-30516D01*
X62482Y-30412D01*
X62311Y-30340D01*
X62129Y-30303D01*
X61943Y-30301D01*
X61761Y-30336D01*
X61588Y-30406D01*
X61433Y-30508D01*
X61300Y-30638D01*
X61195Y-30791D01*
X61122Y-30962D01*
X61083Y-31143D01*
X61081Y-31329D01*
X61114Y-31512D01*
X61183Y-31685D01*
X61283Y-31841D01*
X61412Y-31974D01*
X61565Y-32081D01*
X61735Y-32155D01*
X61917Y-32195D01*
X62102Y-32199D01*
X62285Y-32166D01*
X62459Y-32099D01*
X62616Y-32000D01*
X62750Y-31872D01*
X62857Y-31720D01*
X62933Y-31550D01*
X62974Y-31369D01*
X62977Y-31157D01*
X62977Y-39110D01*
X60260Y-39110D01*
X60260Y-40310D01*
X59060Y-40310D01*
X59060Y-41710D01*
X54740Y-41710D01*
X54740Y-39577D01*
X55033Y-39284D01*
X55090Y-39274D01*
X55151Y-39250D01*
X55207Y-39215D01*
X55212Y-39210D01*
X57500Y-39210D01*
X57523Y-39207D01*
X57547Y-39205D01*
X57549Y-39205D01*
X57550Y-39205D01*
X57573Y-39198D01*
X57596Y-39191D01*
X57597Y-39190D01*
X57599Y-39190D01*
X57620Y-39179D01*
X57641Y-39168D01*
X57642Y-39167D01*
X57643Y-39166D01*
X57662Y-39151D01*
X57681Y-39136D01*
X57683Y-39134D01*
X57683Y-39134D01*
X57683Y-39134D01*
X57683Y-39133D01*
X58483Y-38333D01*
X58499Y-38315D01*
X58514Y-38296D01*
X58515Y-38295D01*
X58516Y-38294D01*
X58527Y-38273D01*
X58538Y-38252D01*
X58539Y-38251D01*
X58540Y-38249D01*
X58547Y-38226D01*
X58554Y-38204D01*
X58554Y-38202D01*
X58554Y-38201D01*
X58557Y-38177D01*
X58559Y-38153D01*
X58559Y-38150D01*
X58559Y-38150D01*
X58559Y-38150D01*
X58560Y-38150D01*
X58560Y-35962D01*
X58561Y-35960D01*
X59013Y-35960D01*
X59990Y-36936D01*
X59990Y-37550D01*
X59991Y-37569D01*
X59993Y-37588D01*
X59993Y-37589D01*
X59993Y-37590D01*
X59999Y-37609D01*
X60005Y-37627D01*
X60005Y-37628D01*
X60005Y-37630D01*
X60014Y-37647D01*
X60023Y-37664D01*
X60024Y-37665D01*
X60025Y-37666D01*
X60037Y-37681D01*
X60049Y-37696D01*
X60050Y-37697D01*
X60050Y-37697D01*
X60051Y-37697D01*
X60051Y-37698D01*
X60251Y-37898D01*
X60266Y-37910D01*
X60281Y-37923D01*
X60282Y-37923D01*
X60283Y-37924D01*
X60300Y-37933D01*
X60317Y-37943D01*
X60318Y-37943D01*
X60319Y-37943D01*
X60337Y-37949D01*
X60356Y-37955D01*
X60357Y-37955D01*
X60358Y-37955D01*
X60377Y-37957D01*
X60397Y-37959D01*
X60399Y-37959D01*
X60399Y-37959D01*
X60399Y-37959D01*
X60400Y-37960D01*
X61337Y-37960D01*
X61381Y-38006D01*
X61435Y-38043D01*
X61495Y-38070D01*
X61560Y-38084D01*
X61625Y-38085D01*
X61690Y-38074D01*
X61751Y-38050D01*
X61807Y-38015D01*
X61854Y-37969D01*
X61892Y-37916D01*
X61919Y-37856D01*
X61933Y-37792D01*
X61935Y-37717D01*
X61922Y-37652D01*
X61897Y-37591D01*
X61860Y-37537D01*
X61814Y-37490D01*
X61760Y-37453D01*
X61699Y-37428D01*
X61635Y-37415D01*
X61569Y-37414D01*
X61504Y-37427D01*
X61444Y-37451D01*
X61389Y-37487D01*
X61342Y-37533D01*
X61337Y-37540D01*
X60486Y-37540D01*
X60410Y-37463D01*
X60410Y-36850D01*
X60408Y-36830D01*
X60406Y-36811D01*
X60406Y-36810D01*
X60406Y-36809D01*
X60400Y-36790D01*
X60394Y-36772D01*
X60394Y-36771D01*
X60394Y-36769D01*
X60385Y-36752D01*
X60376Y-36735D01*
X60375Y-36734D01*
X60374Y-36733D01*
X60362Y-36718D01*
X60350Y-36703D01*
X60349Y-36702D01*
X60349Y-36702D01*
X60348Y-36702D01*
X60348Y-36701D01*
X59248Y-35601D01*
X59234Y-35589D01*
X59254Y-35569D01*
X59292Y-35516D01*
X59319Y-35456D01*
X59333Y-35392D01*
X59335Y-35317D01*
X59322Y-35252D01*
X59297Y-35191D01*
X59260Y-35137D01*
X59214Y-35090D01*
X59160Y-35053D01*
X59099Y-35028D01*
X59035Y-35015D01*
X58969Y-35014D01*
X58904Y-35027D01*
X58844Y-35051D01*
X58789Y-35087D01*
X58786Y-35090D01*
X58700Y-35090D01*
X58676Y-35092D01*
X58652Y-35094D01*
X58650Y-35094D01*
X58649Y-35094D01*
X58626Y-35101D01*
X58603Y-35108D01*
X58602Y-35109D01*
X58600Y-35109D01*
X58579Y-35120D01*
X58560Y-35131D01*
X58560Y-34962D01*
X58592Y-34916D01*
X58619Y-34856D01*
X58633Y-34792D01*
X58635Y-34717D01*
X58622Y-34652D01*
X58597Y-34591D01*
X58560Y-34537D01*
X58514Y-34490D01*
X58460Y-34453D01*
X58399Y-34428D01*
X58335Y-34415D01*
X58269Y-34414D01*
X58210Y-34426D01*
X58210Y-32436D01*
X58896Y-31750D01*
X58937Y-31743D01*
X59031Y-31707D01*
X59115Y-31653D01*
X59187Y-31584D01*
X59245Y-31503D01*
X59286Y-31411D01*
X59300Y-31351D01*
X59307Y-31391D01*
X59344Y-31484D01*
X59398Y-31568D01*
X59467Y-31640D01*
X59549Y-31697D01*
X59641Y-31737D01*
X59739Y-31758D01*
X59839Y-31760D01*
X59937Y-31743D01*
X60031Y-31707D01*
X60115Y-31653D01*
X60162Y-31609D01*
X60990Y-32436D01*
X60990Y-36687D01*
X60989Y-36687D01*
X60942Y-36733D01*
X60905Y-36787D01*
X60879Y-36848D01*
X60865Y-36912D01*
X60864Y-36978D01*
X60876Y-37042D01*
X60900Y-37103D01*
X60936Y-37159D01*
X60981Y-37206D01*
X61035Y-37243D01*
X61095Y-37270D01*
X61160Y-37284D01*
X61225Y-37285D01*
X61290Y-37274D01*
X61351Y-37250D01*
X61407Y-37215D01*
X61454Y-37169D01*
X61492Y-37116D01*
X61519Y-37056D01*
X61533Y-36992D01*
X61535Y-36917D01*
X61522Y-36852D01*
X61497Y-36791D01*
X61460Y-36737D01*
X61414Y-36690D01*
X61410Y-36687D01*
X61410Y-32350D01*
X61408Y-32330D01*
X61406Y-32311D01*
X61406Y-32310D01*
X61406Y-32309D01*
X61400Y-32290D01*
X61394Y-32272D01*
X61394Y-32271D01*
X61394Y-32269D01*
X61385Y-32252D01*
X61376Y-32235D01*
X61375Y-32234D01*
X61374Y-32233D01*
X61362Y-32218D01*
X61350Y-32203D01*
X61349Y-32202D01*
X61349Y-32202D01*
X61348Y-32202D01*
X61348Y-32201D01*
X60312Y-31165D01*
X60312Y-30236D01*
X60299Y-30137D01*
X60268Y-30042D01*
X60234Y-29977D01*
X60157Y-29941D01*
X60108Y-29991D01*
X60108Y-29892D01*
X60072Y-29815D01*
X59982Y-29771D01*
X59886Y-29744D01*
X59786Y-29737D01*
X59687Y-29750D01*
X59592Y-29781D01*
X59527Y-29815D01*
X59491Y-29892D01*
X59800Y-30200D01*
X60108Y-29892D01*
X60108Y-29991D01*
X59849Y-30250D01*
X60157Y-30558D01*
X60234Y-30522D01*
X60278Y-30432D01*
X60305Y-30336D01*
X60312Y-30236D01*
X60312Y-31165D01*
X60300Y-31153D01*
X60290Y-31101D01*
X60252Y-31009D01*
X60197Y-30926D01*
X60126Y-30855D01*
X60043Y-30799D01*
X59951Y-30760D01*
X59904Y-30750D01*
X59912Y-30749D01*
X60007Y-30718D01*
X60072Y-30684D01*
X60108Y-30607D01*
X59800Y-30299D01*
X59491Y-30607D01*
X59527Y-30684D01*
X59617Y-30728D01*
X59696Y-30750D01*
X59655Y-30758D01*
X59562Y-30795D01*
X59478Y-30850D01*
X59407Y-30920D01*
X59350Y-31003D01*
X59311Y-31095D01*
X59299Y-31149D01*
X59290Y-31101D01*
X59252Y-31009D01*
X59197Y-30926D01*
X59126Y-30855D01*
X59043Y-30799D01*
X58951Y-30760D01*
X58901Y-30750D01*
X58937Y-30743D01*
X59031Y-30707D01*
X59115Y-30653D01*
X59187Y-30584D01*
X59245Y-30503D01*
X59286Y-30411D01*
X59299Y-30355D01*
X59300Y-30362D01*
X59331Y-30457D01*
X59365Y-30522D01*
X59442Y-30558D01*
X59750Y-30250D01*
X59442Y-29941D01*
X59365Y-29977D01*
X59321Y-30067D01*
X59299Y-30146D01*
X59290Y-30101D01*
X59252Y-30009D01*
X59197Y-29926D01*
X59126Y-29855D01*
X59043Y-29799D01*
X58951Y-29760D01*
X58896Y-29749D01*
X58748Y-29601D01*
X58733Y-29589D01*
X58718Y-29576D01*
X58717Y-29576D01*
X58716Y-29575D01*
X58699Y-29566D01*
X58682Y-29556D01*
X58681Y-29556D01*
X58680Y-29556D01*
X58662Y-29550D01*
X58643Y-29544D01*
X58642Y-29544D01*
X58641Y-29544D01*
X58622Y-29542D01*
X58602Y-29540D01*
X58600Y-29540D01*
X58600Y-29540D01*
X58600Y-29540D01*
X58600Y-29540D01*
X57500Y-29540D01*
X57480Y-29541D01*
X57461Y-29543D01*
X57460Y-29543D01*
X57459Y-29543D01*
X57440Y-29549D01*
X57422Y-29555D01*
X57421Y-29555D01*
X57419Y-29555D01*
X57402Y-29564D01*
X57385Y-29573D01*
X57384Y-29574D01*
X57383Y-29575D01*
X57368Y-29587D01*
X57353Y-29599D01*
X57352Y-29600D01*
X57352Y-29600D01*
X57352Y-29601D01*
X57351Y-29601D01*
X57051Y-29901D01*
X57039Y-29916D01*
X57026Y-29931D01*
X57026Y-29932D01*
X57025Y-29933D01*
X57016Y-29950D01*
X57006Y-29967D01*
X57006Y-29968D01*
X57006Y-29969D01*
X57000Y-29987D01*
X56994Y-30006D01*
X56994Y-30007D01*
X56994Y-30008D01*
X56992Y-30027D01*
X56990Y-30047D01*
X56990Y-30049D01*
X56990Y-30049D01*
X56990Y-30049D01*
X56990Y-30050D01*
X56990Y-31850D01*
X56991Y-31869D01*
X56993Y-31888D01*
X56993Y-31889D01*
X56993Y-31890D01*
X56999Y-31909D01*
X57005Y-31927D01*
X57005Y-31928D01*
X57005Y-31930D01*
X57014Y-31947D01*
X57023Y-31964D01*
X57024Y-31965D01*
X57025Y-31966D01*
X57037Y-31981D01*
X57049Y-31996D01*
X57050Y-31997D01*
X57050Y-31997D01*
X57051Y-31997D01*
X57051Y-31998D01*
X57390Y-32336D01*
X57390Y-36363D01*
X56935Y-36818D01*
X56935Y-36017D01*
X56922Y-35952D01*
X56897Y-35891D01*
X56860Y-35837D01*
X56814Y-35790D01*
X56760Y-35753D01*
X56699Y-35728D01*
X56635Y-35715D01*
X56569Y-35714D01*
X56504Y-35727D01*
X56444Y-35751D01*
X56389Y-35787D01*
X56342Y-35833D01*
X56305Y-35887D01*
X56279Y-35948D01*
X56265Y-36012D01*
X56264Y-36078D01*
X56266Y-36086D01*
X56151Y-36201D01*
X56139Y-36216D01*
X56126Y-36231D01*
X56126Y-36232D01*
X56125Y-36233D01*
X56116Y-36250D01*
X56106Y-36267D01*
X56106Y-36268D01*
X56106Y-36269D01*
X56100Y-36287D01*
X56094Y-36306D01*
X56094Y-36307D01*
X56094Y-36308D01*
X56092Y-36327D01*
X56090Y-36347D01*
X56090Y-36349D01*
X56090Y-36349D01*
X56090Y-36349D01*
X56090Y-36350D01*
X56090Y-38087D01*
X56089Y-38087D01*
X56042Y-38133D01*
X56005Y-38187D01*
X55979Y-38248D01*
X55965Y-38312D01*
X55964Y-38378D01*
X55976Y-38442D01*
X56000Y-38503D01*
X56036Y-38559D01*
X56081Y-38606D01*
X56135Y-38643D01*
X56195Y-38670D01*
X56260Y-38684D01*
X56325Y-38685D01*
X56390Y-38674D01*
X56451Y-38650D01*
X56507Y-38615D01*
X56554Y-38569D01*
X56592Y-38516D01*
X56619Y-38456D01*
X56633Y-38392D01*
X56635Y-38317D01*
X56622Y-38252D01*
X56597Y-38191D01*
X56560Y-38137D01*
X56514Y-38090D01*
X56510Y-38087D01*
X56510Y-36436D01*
X56562Y-36384D01*
X56625Y-36385D01*
X56690Y-36374D01*
X56751Y-36350D01*
X56807Y-36315D01*
X56854Y-36269D01*
X56892Y-36216D01*
X56919Y-36156D01*
X56933Y-36092D01*
X56935Y-36017D01*
X56935Y-36818D01*
X56751Y-37001D01*
X56739Y-37016D01*
X56726Y-37031D01*
X56726Y-37032D01*
X56725Y-37033D01*
X56716Y-37050D01*
X56706Y-37067D01*
X56706Y-37068D01*
X56706Y-37069D01*
X56700Y-37087D01*
X56694Y-37106D01*
X56694Y-37107D01*
X56694Y-37108D01*
X56692Y-37127D01*
X56690Y-37147D01*
X56690Y-37149D01*
X56690Y-37149D01*
X56690Y-37149D01*
X56690Y-37150D01*
X56690Y-37387D01*
X56689Y-37387D01*
X56642Y-37433D01*
X56605Y-37487D01*
X56579Y-37548D01*
X56565Y-37612D01*
X56564Y-37678D01*
X56576Y-37742D01*
X56600Y-37803D01*
X56636Y-37859D01*
X56681Y-37906D01*
X56735Y-37943D01*
X56795Y-37970D01*
X56860Y-37984D01*
X56925Y-37985D01*
X56990Y-37974D01*
X57051Y-37950D01*
X57107Y-37915D01*
X57154Y-37869D01*
X57192Y-37816D01*
X57219Y-37756D01*
X57233Y-37692D01*
X57234Y-37684D01*
X57290Y-37674D01*
X57351Y-37650D01*
X57407Y-37615D01*
X57454Y-37569D01*
X57492Y-37516D01*
X57519Y-37456D01*
X57533Y-37392D01*
X57535Y-37317D01*
X57534Y-37312D01*
X57790Y-37056D01*
X57790Y-37563D01*
X57537Y-37815D01*
X57535Y-37815D01*
X57469Y-37814D01*
X57404Y-37827D01*
X57344Y-37851D01*
X57289Y-37887D01*
X57242Y-37933D01*
X57205Y-37987D01*
X57179Y-38048D01*
X57165Y-38112D01*
X57164Y-38178D01*
X57176Y-38242D01*
X57200Y-38303D01*
X57236Y-38359D01*
X57281Y-38406D01*
X57335Y-38443D01*
X57395Y-38470D01*
X57460Y-38484D01*
X57525Y-38485D01*
X57590Y-38474D01*
X57619Y-38463D01*
X57392Y-38690D01*
X55213Y-38690D01*
X55160Y-38653D01*
X55099Y-38628D01*
X55035Y-38615D01*
X54969Y-38614D01*
X54904Y-38627D01*
X54844Y-38651D01*
X54789Y-38687D01*
X54742Y-38733D01*
X54740Y-38736D01*
X54740Y-35310D01*
X55913Y-35310D01*
X56051Y-35448D01*
X56066Y-35460D01*
X56081Y-35473D01*
X56082Y-35473D01*
X56083Y-35474D01*
X56100Y-35483D01*
X56117Y-35493D01*
X56118Y-35493D01*
X56119Y-35493D01*
X56137Y-35499D01*
X56156Y-35505D01*
X56157Y-35505D01*
X56158Y-35505D01*
X56177Y-35507D01*
X56197Y-35509D01*
X56199Y-35509D01*
X56199Y-35509D01*
X56199Y-35509D01*
X56200Y-35510D01*
X56337Y-35510D01*
X56381Y-35556D01*
X56435Y-35593D01*
X56495Y-35620D01*
X56560Y-35634D01*
X56625Y-35635D01*
X56690Y-35624D01*
X56751Y-35600D01*
X56807Y-35565D01*
X56854Y-35519D01*
X56861Y-35510D01*
X56900Y-35510D01*
X56919Y-35508D01*
X56938Y-35506D01*
X56939Y-35506D01*
X56940Y-35506D01*
X56959Y-35500D01*
X56977Y-35494D01*
X56978Y-35494D01*
X56980Y-35494D01*
X56997Y-35485D01*
X57014Y-35476D01*
X57015Y-35475D01*
X57016Y-35474D01*
X57031Y-35462D01*
X57046Y-35450D01*
X57047Y-35449D01*
X57047Y-35449D01*
X57047Y-35448D01*
X57048Y-35448D01*
X57148Y-35348D01*
X57160Y-35333D01*
X57173Y-35318D01*
X57173Y-35317D01*
X57174Y-35316D01*
X57183Y-35299D01*
X57193Y-35282D01*
X57193Y-35281D01*
X57193Y-35280D01*
X57199Y-35262D01*
X57205Y-35243D01*
X57205Y-35242D01*
X57205Y-35241D01*
X57207Y-35222D01*
X57209Y-35202D01*
X57209Y-35200D01*
X57209Y-35200D01*
X57209Y-35200D01*
X57210Y-35200D01*
X57210Y-34300D01*
X57208Y-34280D01*
X57206Y-34261D01*
X57206Y-34260D01*
X57206Y-34259D01*
X57200Y-34240D01*
X57194Y-34222D01*
X57194Y-34221D01*
X57194Y-34219D01*
X57185Y-34202D01*
X57176Y-34185D01*
X57175Y-34184D01*
X57174Y-34183D01*
X57162Y-34168D01*
X57150Y-34153D01*
X57149Y-34152D01*
X57149Y-34152D01*
X57148Y-34152D01*
X57148Y-34151D01*
X56848Y-33851D01*
X56833Y-33839D01*
X56818Y-33826D01*
X56817Y-33826D01*
X56816Y-33825D01*
X56799Y-33816D01*
X56782Y-33806D01*
X56781Y-33806D01*
X56780Y-33806D01*
X56762Y-33800D01*
X56743Y-33794D01*
X56742Y-33794D01*
X56741Y-33794D01*
X56722Y-33792D01*
X56702Y-33790D01*
X56700Y-33790D01*
X56700Y-33790D01*
X56700Y-33790D01*
X56700Y-33790D01*
X56386Y-33790D01*
X56260Y-33663D01*
X56260Y-33400D01*
X56260Y-30312D01*
X56304Y-30269D01*
X56342Y-30216D01*
X56369Y-30156D01*
X56383Y-30092D01*
X56385Y-30017D01*
X56372Y-29952D01*
X56347Y-29891D01*
X56310Y-29837D01*
X56264Y-29790D01*
X56210Y-29753D01*
X56149Y-29728D01*
X56085Y-29715D01*
X56019Y-29714D01*
X55954Y-29727D01*
X55894Y-29751D01*
X55839Y-29787D01*
X55792Y-29833D01*
X55755Y-29887D01*
X55729Y-29948D01*
X55715Y-30012D01*
X55714Y-30078D01*
X55726Y-30142D01*
X55750Y-30203D01*
X55786Y-30259D01*
X55831Y-30306D01*
X55840Y-30312D01*
X55840Y-33400D01*
X55840Y-33750D01*
X55841Y-33769D01*
X55843Y-33788D01*
X55843Y-33789D01*
X55843Y-33790D01*
X55849Y-33809D01*
X55855Y-33827D01*
X55855Y-33828D01*
X55855Y-33830D01*
X55864Y-33847D01*
X55873Y-33864D01*
X55874Y-33865D01*
X55875Y-33866D01*
X55887Y-33881D01*
X55899Y-33896D01*
X55900Y-33897D01*
X55900Y-33897D01*
X55901Y-33897D01*
X55901Y-33898D01*
X56151Y-34148D01*
X56166Y-34160D01*
X56181Y-34173D01*
X56182Y-34173D01*
X56183Y-34174D01*
X56200Y-34183D01*
X56211Y-34190D01*
X56200Y-34190D01*
X56180Y-34191D01*
X56161Y-34193D01*
X56160Y-34193D01*
X56159Y-34193D01*
X56140Y-34199D01*
X56122Y-34205D01*
X56121Y-34205D01*
X56119Y-34205D01*
X56102Y-34214D01*
X56085Y-34223D01*
X56084Y-34224D01*
X56083Y-34225D01*
X56068Y-34237D01*
X56053Y-34249D01*
X56052Y-34250D01*
X56052Y-34250D01*
X56052Y-34251D01*
X56051Y-34251D01*
X55913Y-34390D01*
X54740Y-34390D01*
X54740Y-29429D01*
X69991Y-29429D01*
X70159Y-29446D01*
X70312Y-29492D01*
X70453Y-29567D01*
X70577Y-29668D01*
X70679Y-29791D01*
X70755Y-29932D01*
X70802Y-30085D01*
X70820Y-30252D01*
X70820Y-32510D01*
X70820Y-32510D01*
G37*
G54D29*
X70820Y-32510D02*
X70160Y-32510D01*
X70160Y-31136D01*
X70115Y-30913D01*
X70029Y-30702D01*
X69903Y-30513D01*
X69742Y-30351D01*
X69554Y-30224D01*
X69344Y-30136D01*
X69121Y-30090D01*
X68894Y-30089D01*
X68670Y-30131D01*
X68459Y-30217D01*
X68269Y-30341D01*
X68107Y-30500D01*
X67978Y-30688D01*
X67888Y-30897D01*
X67841Y-31120D01*
X67838Y-31347D01*
X67879Y-31571D01*
X67963Y-31782D01*
X68086Y-31974D01*
X68244Y-32137D01*
X68431Y-32267D01*
X68639Y-32358D01*
X68861Y-32407D01*
X69089Y-32412D01*
X69313Y-32372D01*
X69525Y-32290D01*
X69717Y-32168D01*
X69882Y-32011D01*
X70013Y-31825D01*
X70106Y-31617D01*
X70156Y-31396D01*
X70160Y-31136D01*
X70160Y-32510D01*
X67860Y-32510D01*
X67860Y-39110D01*
X67717Y-39110D01*
X67717Y-31157D01*
X67681Y-30974D01*
X67610Y-30803D01*
X67507Y-30648D01*
X67376Y-30516D01*
X67222Y-30412D01*
X67051Y-30340D01*
X66869Y-30303D01*
X66683Y-30301D01*
X66501Y-30336D01*
X66329Y-30406D01*
X66173Y-30508D01*
X66040Y-30638D01*
X65935Y-30791D01*
X65862Y-30962D01*
X65824Y-31143D01*
X65821Y-31329D01*
X65854Y-31512D01*
X65923Y-31685D01*
X66024Y-31841D01*
X66153Y-31974D01*
X66305Y-32081D01*
X66475Y-32155D01*
X66657Y-32195D01*
X66843Y-32199D01*
X67026Y-32166D01*
X67199Y-32099D01*
X67356Y-32000D01*
X67490Y-31872D01*
X67597Y-31720D01*
X67673Y-31550D01*
X67714Y-31369D01*
X67717Y-31157D01*
X67717Y-39110D01*
X66112Y-39110D01*
X66154Y-39069D01*
X66192Y-39016D01*
X66219Y-38956D01*
X66233Y-38892D01*
X66235Y-38817D01*
X66222Y-38752D01*
X66197Y-38691D01*
X66160Y-38637D01*
X66114Y-38590D01*
X66060Y-38553D01*
X66010Y-38532D01*
X66010Y-32950D01*
X66008Y-32930D01*
X66006Y-32911D01*
X66006Y-32910D01*
X66006Y-32909D01*
X66000Y-32890D01*
X65994Y-32872D01*
X65994Y-32871D01*
X65994Y-32869D01*
X65985Y-32852D01*
X65976Y-32835D01*
X65975Y-32834D01*
X65974Y-32833D01*
X65962Y-32818D01*
X65950Y-32803D01*
X65949Y-32802D01*
X65949Y-32802D01*
X65948Y-32802D01*
X65948Y-32801D01*
X65486Y-32339D01*
X65488Y-32320D01*
X65479Y-32224D01*
X65452Y-32131D01*
X65407Y-32046D01*
X65346Y-31970D01*
X65272Y-31908D01*
X65188Y-31862D01*
X65096Y-31833D01*
X65000Y-31822D01*
X64993Y-31822D01*
X64790Y-31822D01*
X64694Y-31831D01*
X64602Y-31859D01*
X64517Y-31904D01*
X64442Y-31965D01*
X64399Y-32017D01*
X64379Y-31990D01*
X64309Y-31924D01*
X64227Y-31872D01*
X64136Y-31838D01*
X64041Y-31822D01*
X63942Y-31822D01*
X63942Y-32281D01*
X63950Y-32281D01*
X63950Y-32351D01*
X63942Y-32351D01*
X63942Y-32359D01*
X63872Y-32359D01*
X63872Y-32351D01*
X63872Y-32281D01*
X63872Y-31822D01*
X63774Y-31822D01*
X63679Y-31838D01*
X63588Y-31872D01*
X63506Y-31924D01*
X63436Y-31990D01*
X63379Y-32069D01*
X63339Y-32157D01*
X63327Y-32205D01*
X63356Y-32281D01*
X63872Y-32281D01*
X63872Y-32351D01*
X63356Y-32351D01*
X63327Y-32428D01*
X63339Y-32476D01*
X63379Y-32564D01*
X63436Y-32643D01*
X63506Y-32709D01*
X63509Y-32711D01*
X63458Y-32753D01*
X63396Y-32827D01*
X63350Y-32912D01*
X63322Y-33004D01*
X63311Y-33100D01*
X63320Y-33197D01*
X63347Y-33289D01*
X63392Y-33375D01*
X63453Y-33450D01*
X63527Y-33512D01*
X63611Y-33558D01*
X63703Y-33588D01*
X63799Y-33598D01*
X63806Y-33598D01*
X64009Y-33598D01*
X64105Y-33589D01*
X64197Y-33561D01*
X64282Y-33516D01*
X64357Y-33455D01*
X64400Y-33404D01*
X64437Y-33450D01*
X64511Y-33512D01*
X64595Y-33558D01*
X64687Y-33588D01*
X64783Y-33598D01*
X64790Y-33598D01*
X64993Y-33598D01*
X65089Y-33589D01*
X65181Y-33561D01*
X65267Y-33516D01*
X65268Y-33515D01*
X65390Y-33636D01*
X65390Y-35981D01*
X65360Y-35937D01*
X65314Y-35890D01*
X65260Y-35853D01*
X65199Y-35828D01*
X65135Y-35815D01*
X65069Y-35814D01*
X65062Y-35816D01*
X64948Y-35701D01*
X64933Y-35689D01*
X64918Y-35676D01*
X64917Y-35676D01*
X64916Y-35675D01*
X64899Y-35666D01*
X64882Y-35656D01*
X64881Y-35656D01*
X64880Y-35656D01*
X64862Y-35650D01*
X64843Y-35644D01*
X64842Y-35644D01*
X64841Y-35644D01*
X64822Y-35642D01*
X64802Y-35640D01*
X64800Y-35640D01*
X64800Y-35640D01*
X64800Y-35640D01*
X64800Y-35640D01*
X64062Y-35640D01*
X64060Y-35637D01*
X64014Y-35590D01*
X63960Y-35553D01*
X63899Y-35528D01*
X63835Y-35515D01*
X63769Y-35514D01*
X63704Y-35527D01*
X63644Y-35551D01*
X63589Y-35587D01*
X63542Y-35633D01*
X63505Y-35687D01*
X63479Y-35748D01*
X63465Y-35812D01*
X63464Y-35878D01*
X63476Y-35942D01*
X63500Y-36003D01*
X63536Y-36059D01*
X63581Y-36106D01*
X63635Y-36143D01*
X63695Y-36170D01*
X63760Y-36184D01*
X63825Y-36185D01*
X63890Y-36174D01*
X63951Y-36150D01*
X64007Y-36115D01*
X64054Y-36069D01*
X64061Y-36060D01*
X64713Y-36060D01*
X64765Y-36112D01*
X64765Y-36112D01*
X64764Y-36178D01*
X64776Y-36242D01*
X64800Y-36303D01*
X64836Y-36359D01*
X64881Y-36406D01*
X64935Y-36443D01*
X64995Y-36470D01*
X65060Y-36484D01*
X65125Y-36485D01*
X65190Y-36474D01*
X65251Y-36450D01*
X65307Y-36415D01*
X65354Y-36369D01*
X65390Y-36320D01*
X65390Y-37463D01*
X65037Y-37815D01*
X65035Y-37815D01*
X64969Y-37814D01*
X64904Y-37827D01*
X64844Y-37851D01*
X64789Y-37887D01*
X64742Y-37933D01*
X64705Y-37987D01*
X64679Y-38048D01*
X64665Y-38112D01*
X64664Y-38178D01*
X64676Y-38242D01*
X64700Y-38303D01*
X64736Y-38359D01*
X64781Y-38406D01*
X64835Y-38443D01*
X64895Y-38470D01*
X64960Y-38484D01*
X65025Y-38485D01*
X65090Y-38474D01*
X65151Y-38450D01*
X65207Y-38415D01*
X65254Y-38369D01*
X65292Y-38316D01*
X65319Y-38256D01*
X65333Y-38192D01*
X65335Y-38117D01*
X65334Y-38112D01*
X65590Y-37856D01*
X65590Y-38722D01*
X65579Y-38748D01*
X65565Y-38812D01*
X65564Y-38878D01*
X65576Y-38942D01*
X65600Y-39003D01*
X65636Y-39059D01*
X65681Y-39106D01*
X65687Y-39110D01*
X62977Y-39110D01*
X62977Y-31157D01*
X62941Y-30974D01*
X62870Y-30803D01*
X62767Y-30648D01*
X62636Y-30516D01*
X62482Y-30412D01*
X62311Y-30340D01*
X62129Y-30303D01*
X61943Y-30301D01*
X61761Y-30336D01*
X61588Y-30406D01*
X61433Y-30508D01*
X61300Y-30638D01*
X61195Y-30791D01*
X61122Y-30962D01*
X61083Y-31143D01*
X61081Y-31329D01*
X61114Y-31512D01*
X61183Y-31685D01*
X61283Y-31841D01*
X61412Y-31974D01*
X61565Y-32081D01*
X61735Y-32155D01*
X61917Y-32195D01*
X62102Y-32199D01*
X62285Y-32166D01*
X62459Y-32099D01*
X62616Y-32000D01*
X62750Y-31872D01*
X62857Y-31720D01*
X62933Y-31550D01*
X62974Y-31369D01*
X62977Y-31157D01*
X62977Y-39110D01*
X60260Y-39110D01*
X60260Y-40310D01*
X59060Y-40310D01*
X59060Y-41710D01*
X54740Y-41710D01*
X54740Y-39577D01*
X55033Y-39284D01*
X55090Y-39274D01*
X55151Y-39250D01*
X55207Y-39215D01*
X55212Y-39210D01*
X57500Y-39210D01*
X57523Y-39207D01*
X57547Y-39205D01*
X57549Y-39205D01*
X57550Y-39205D01*
X57573Y-39198D01*
X57596Y-39191D01*
X57597Y-39190D01*
X57599Y-39190D01*
X57620Y-39179D01*
X57641Y-39168D01*
X57642Y-39167D01*
X57643Y-39166D01*
X57662Y-39151D01*
X57681Y-39136D01*
X57683Y-39134D01*
X57683Y-39134D01*
X57683Y-39134D01*
X57683Y-39133D01*
X58483Y-38333D01*
X58499Y-38315D01*
X58514Y-38296D01*
X58515Y-38295D01*
X58516Y-38294D01*
X58527Y-38273D01*
X58538Y-38252D01*
X58539Y-38251D01*
X58540Y-38249D01*
X58547Y-38226D01*
X58554Y-38204D01*
X58554Y-38202D01*
X58554Y-38201D01*
X58557Y-38177D01*
X58559Y-38153D01*
X58559Y-38150D01*
X58559Y-38150D01*
X58559Y-38150D01*
X58560Y-38150D01*
X58560Y-35962D01*
X58561Y-35960D01*
X59013Y-35960D01*
X59990Y-36936D01*
X59990Y-37550D01*
X59991Y-37569D01*
X59993Y-37588D01*
X59993Y-37589D01*
X59993Y-37590D01*
X59999Y-37609D01*
X60005Y-37627D01*
X60005Y-37628D01*
X60005Y-37630D01*
X60014Y-37647D01*
X60023Y-37664D01*
X60024Y-37665D01*
X60025Y-37666D01*
X60037Y-37681D01*
X60049Y-37696D01*
X60050Y-37697D01*
X60050Y-37697D01*
X60051Y-37697D01*
X60051Y-37698D01*
X60251Y-37898D01*
X60266Y-37910D01*
X60281Y-37923D01*
X60282Y-37923D01*
X60283Y-37924D01*
X60300Y-37933D01*
X60317Y-37943D01*
X60318Y-37943D01*
X60319Y-37943D01*
X60337Y-37949D01*
X60356Y-37955D01*
X60357Y-37955D01*
X60358Y-37955D01*
X60377Y-37957D01*
X60397Y-37959D01*
X60399Y-37959D01*
X60399Y-37959D01*
X60399Y-37959D01*
X60400Y-37960D01*
X61337Y-37960D01*
X61381Y-38006D01*
X61435Y-38043D01*
X61495Y-38070D01*
X61560Y-38084D01*
X61625Y-38085D01*
X61690Y-38074D01*
X61751Y-38050D01*
X61807Y-38015D01*
X61854Y-37969D01*
X61892Y-37916D01*
X61919Y-37856D01*
X61933Y-37792D01*
X61935Y-37717D01*
X61922Y-37652D01*
X61897Y-37591D01*
X61860Y-37537D01*
X61814Y-37490D01*
X61760Y-37453D01*
X61699Y-37428D01*
X61635Y-37415D01*
X61569Y-37414D01*
X61504Y-37427D01*
X61444Y-37451D01*
X61389Y-37487D01*
X61342Y-37533D01*
X61337Y-37540D01*
X60486Y-37540D01*
X60410Y-37463D01*
X60410Y-36850D01*
X60408Y-36830D01*
X60406Y-36811D01*
X60406Y-36810D01*
X60406Y-36809D01*
X60400Y-36790D01*
X60394Y-36772D01*
X60394Y-36771D01*
X60394Y-36769D01*
X60385Y-36752D01*
X60376Y-36735D01*
X60375Y-36734D01*
X60374Y-36733D01*
X60362Y-36718D01*
X60350Y-36703D01*
X60349Y-36702D01*
X60349Y-36702D01*
X60348Y-36702D01*
X60348Y-36701D01*
X59248Y-35601D01*
X59234Y-35589D01*
X59254Y-35569D01*
X59292Y-35516D01*
X59319Y-35456D01*
X59333Y-35392D01*
X59335Y-35317D01*
X59322Y-35252D01*
X59297Y-35191D01*
X59260Y-35137D01*
X59214Y-35090D01*
X59160Y-35053D01*
X59099Y-35028D01*
X59035Y-35015D01*
X58969Y-35014D01*
X58904Y-35027D01*
X58844Y-35051D01*
X58789Y-35087D01*
X58786Y-35090D01*
X58700Y-35090D01*
X58676Y-35092D01*
X58652Y-35094D01*
X58650Y-35094D01*
X58649Y-35094D01*
X58626Y-35101D01*
X58603Y-35108D01*
X58602Y-35109D01*
X58600Y-35109D01*
X58579Y-35120D01*
X58560Y-35131D01*
X58560Y-34962D01*
X58592Y-34916D01*
X58619Y-34856D01*
X58633Y-34792D01*
X58635Y-34717D01*
X58622Y-34652D01*
X58597Y-34591D01*
X58560Y-34537D01*
X58514Y-34490D01*
X58460Y-34453D01*
X58399Y-34428D01*
X58335Y-34415D01*
X58269Y-34414D01*
X58210Y-34426D01*
X58210Y-32436D01*
X58896Y-31750D01*
X58937Y-31743D01*
X59031Y-31707D01*
X59115Y-31653D01*
X59187Y-31584D01*
X59245Y-31503D01*
X59286Y-31411D01*
X59300Y-31351D01*
X59307Y-31391D01*
X59344Y-31484D01*
X59398Y-31568D01*
X59467Y-31640D01*
X59549Y-31697D01*
X59641Y-31737D01*
X59739Y-31758D01*
X59839Y-31760D01*
X59937Y-31743D01*
X60031Y-31707D01*
X60115Y-31653D01*
X60162Y-31609D01*
X60990Y-32436D01*
X60990Y-36687D01*
X60989Y-36687D01*
X60942Y-36733D01*
X60905Y-36787D01*
X60879Y-36848D01*
X60865Y-36912D01*
X60864Y-36978D01*
X60876Y-37042D01*
X60900Y-37103D01*
X60936Y-37159D01*
X60981Y-37206D01*
X61035Y-37243D01*
X61095Y-37270D01*
X61160Y-37284D01*
X61225Y-37285D01*
X61290Y-37274D01*
X61351Y-37250D01*
X61407Y-37215D01*
X61454Y-37169D01*
X61492Y-37116D01*
X61519Y-37056D01*
X61533Y-36992D01*
X61535Y-36917D01*
X61522Y-36852D01*
X61497Y-36791D01*
X61460Y-36737D01*
X61414Y-36690D01*
X61410Y-36687D01*
X61410Y-32350D01*
X61408Y-32330D01*
X61406Y-32311D01*
X61406Y-32310D01*
X61406Y-32309D01*
X61400Y-32290D01*
X61394Y-32272D01*
X61394Y-32271D01*
X61394Y-32269D01*
X61385Y-32252D01*
X61376Y-32235D01*
X61375Y-32234D01*
X61374Y-32233D01*
X61362Y-32218D01*
X61350Y-32203D01*
X61349Y-32202D01*
X61349Y-32202D01*
X61348Y-32202D01*
X61348Y-32201D01*
X60312Y-31165D01*
X60312Y-30236D01*
X60299Y-30137D01*
X60268Y-30042D01*
X60234Y-29977D01*
X60157Y-29941D01*
X60108Y-29991D01*
X60108Y-29892D01*
X60072Y-29815D01*
X59982Y-29771D01*
X59886Y-29744D01*
X59786Y-29737D01*
X59687Y-29750D01*
X59592Y-29781D01*
X59527Y-29815D01*
X59491Y-29892D01*
X59800Y-30200D01*
X60108Y-29892D01*
X60108Y-29991D01*
X59849Y-30250D01*
X60157Y-30558D01*
X60234Y-30522D01*
X60278Y-30432D01*
X60305Y-30336D01*
X60312Y-30236D01*
X60312Y-31165D01*
X60300Y-31153D01*
X60290Y-31101D01*
X60252Y-31009D01*
X60197Y-30926D01*
X60126Y-30855D01*
X60043Y-30799D01*
X59951Y-30760D01*
X59904Y-30750D01*
X59912Y-30749D01*
X60007Y-30718D01*
X60072Y-30684D01*
X60108Y-30607D01*
X59800Y-30299D01*
X59491Y-30607D01*
X59527Y-30684D01*
X59617Y-30728D01*
X59696Y-30750D01*
X59655Y-30758D01*
X59562Y-30795D01*
X59478Y-30850D01*
X59407Y-30920D01*
X59350Y-31003D01*
X59311Y-31095D01*
X59299Y-31149D01*
X59290Y-31101D01*
X59252Y-31009D01*
X59197Y-30926D01*
X59126Y-30855D01*
X59043Y-30799D01*
X58951Y-30760D01*
X58901Y-30750D01*
X58937Y-30743D01*
X59031Y-30707D01*
X59115Y-30653D01*
X59187Y-30584D01*
X59245Y-30503D01*
X59286Y-30411D01*
X59299Y-30355D01*
X59300Y-30362D01*
X59331Y-30457D01*
X59365Y-30522D01*
X59442Y-30558D01*
X59750Y-30250D01*
X59442Y-29941D01*
X59365Y-29977D01*
X59321Y-30067D01*
X59299Y-30146D01*
X59290Y-30101D01*
X59252Y-30009D01*
X59197Y-29926D01*
X59126Y-29855D01*
X59043Y-29799D01*
X58951Y-29760D01*
X58896Y-29749D01*
X58748Y-29601D01*
X58733Y-29589D01*
X58718Y-29576D01*
X58717Y-29576D01*
X58716Y-29575D01*
X58699Y-29566D01*
X58682Y-29556D01*
X58681Y-29556D01*
X58680Y-29556D01*
X58662Y-29550D01*
X58643Y-29544D01*
X58642Y-29544D01*
X58641Y-29544D01*
X58622Y-29542D01*
X58602Y-29540D01*
X58600Y-29540D01*
X58600Y-29540D01*
X58600Y-29540D01*
X58600Y-29540D01*
X57500Y-29540D01*
X57480Y-29541D01*
X57461Y-29543D01*
X57460Y-29543D01*
X57459Y-29543D01*
X57440Y-29549D01*
X57422Y-29555D01*
X57421Y-29555D01*
X57419Y-29555D01*
X57402Y-29564D01*
X57385Y-29573D01*
X57384Y-29574D01*
X57383Y-29575D01*
X57368Y-29587D01*
X57353Y-29599D01*
X57352Y-29600D01*
X57352Y-29600D01*
X57352Y-29601D01*
X57351Y-29601D01*
X57051Y-29901D01*
X57039Y-29916D01*
X57026Y-29931D01*
X57026Y-29932D01*
X57025Y-29933D01*
X57016Y-29950D01*
X57006Y-29967D01*
X57006Y-29968D01*
X57006Y-29969D01*
X57000Y-29987D01*
X56994Y-30006D01*
X56994Y-30007D01*
X56994Y-30008D01*
X56992Y-30027D01*
X56990Y-30047D01*
X56990Y-30049D01*
X56990Y-30049D01*
X56990Y-30049D01*
X56990Y-30050D01*
X56990Y-31850D01*
X56991Y-31869D01*
X56993Y-31888D01*
X56993Y-31889D01*
X56993Y-31890D01*
X56999Y-31909D01*
X57005Y-31927D01*
X57005Y-31928D01*
X57005Y-31930D01*
X57014Y-31947D01*
X57023Y-31964D01*
X57024Y-31965D01*
X57025Y-31966D01*
X57037Y-31981D01*
X57049Y-31996D01*
X57050Y-31997D01*
X57050Y-31997D01*
X57051Y-31997D01*
X57051Y-31998D01*
X57390Y-32336D01*
X57390Y-36363D01*
X56935Y-36818D01*
X56935Y-36017D01*
X56922Y-35952D01*
X56897Y-35891D01*
X56860Y-35837D01*
X56814Y-35790D01*
X56760Y-35753D01*
X56699Y-35728D01*
X56635Y-35715D01*
X56569Y-35714D01*
X56504Y-35727D01*
X56444Y-35751D01*
X56389Y-35787D01*
X56342Y-35833D01*
X56305Y-35887D01*
X56279Y-35948D01*
X56265Y-36012D01*
X56264Y-36078D01*
X56266Y-36086D01*
X56151Y-36201D01*
X56139Y-36216D01*
X56126Y-36231D01*
X56126Y-36232D01*
X56125Y-36233D01*
X56116Y-36250D01*
X56106Y-36267D01*
X56106Y-36268D01*
X56106Y-36269D01*
X56100Y-36287D01*
X56094Y-36306D01*
X56094Y-36307D01*
X56094Y-36308D01*
X56092Y-36327D01*
X56090Y-36347D01*
X56090Y-36349D01*
X56090Y-36349D01*
X56090Y-36349D01*
X56090Y-36350D01*
X56090Y-38087D01*
X56089Y-38087D01*
X56042Y-38133D01*
X56005Y-38187D01*
X55979Y-38248D01*
X55965Y-38312D01*
X55964Y-38378D01*
X55976Y-38442D01*
X56000Y-38503D01*
X56036Y-38559D01*
X56081Y-38606D01*
X56135Y-38643D01*
X56195Y-38670D01*
X56260Y-38684D01*
X56325Y-38685D01*
X56390Y-38674D01*
X56451Y-38650D01*
X56507Y-38615D01*
X56554Y-38569D01*
X56592Y-38516D01*
X56619Y-38456D01*
X56633Y-38392D01*
X56635Y-38317D01*
X56622Y-38252D01*
X56597Y-38191D01*
X56560Y-38137D01*
X56514Y-38090D01*
X56510Y-38087D01*
X56510Y-36436D01*
X56562Y-36384D01*
X56625Y-36385D01*
X56690Y-36374D01*
X56751Y-36350D01*
X56807Y-36315D01*
X56854Y-36269D01*
X56892Y-36216D01*
X56919Y-36156D01*
X56933Y-36092D01*
X56935Y-36017D01*
X56935Y-36818D01*
X56751Y-37001D01*
X56739Y-37016D01*
X56726Y-37031D01*
X56726Y-37032D01*
X56725Y-37033D01*
X56716Y-37050D01*
X56706Y-37067D01*
X56706Y-37068D01*
X56706Y-37069D01*
X56700Y-37087D01*
X56694Y-37106D01*
X56694Y-37107D01*
X56694Y-37108D01*
X56692Y-37127D01*
X56690Y-37147D01*
X56690Y-37149D01*
X56690Y-37149D01*
X56690Y-37149D01*
X56690Y-37150D01*
X56690Y-37387D01*
X56689Y-37387D01*
X56642Y-37433D01*
X56605Y-37487D01*
X56579Y-37548D01*
X56565Y-37612D01*
X56564Y-37678D01*
X56576Y-37742D01*
X56600Y-37803D01*
X56636Y-37859D01*
X56681Y-37906D01*
X56735Y-37943D01*
X56795Y-37970D01*
X56860Y-37984D01*
X56925Y-37985D01*
X56990Y-37974D01*
X57051Y-37950D01*
X57107Y-37915D01*
X57154Y-37869D01*
X57192Y-37816D01*
X57219Y-37756D01*
X57233Y-37692D01*
X57234Y-37684D01*
X57290Y-37674D01*
X57351Y-37650D01*
X57407Y-37615D01*
X57454Y-37569D01*
X57492Y-37516D01*
X57519Y-37456D01*
X57533Y-37392D01*
X57535Y-37317D01*
X57534Y-37312D01*
X57790Y-37056D01*
X57790Y-37563D01*
X57537Y-37815D01*
X57535Y-37815D01*
X57469Y-37814D01*
X57404Y-37827D01*
X57344Y-37851D01*
X57289Y-37887D01*
X57242Y-37933D01*
X57205Y-37987D01*
X57179Y-38048D01*
X57165Y-38112D01*
X57164Y-38178D01*
X57176Y-38242D01*
X57200Y-38303D01*
X57236Y-38359D01*
X57281Y-38406D01*
X57335Y-38443D01*
X57395Y-38470D01*
X57460Y-38484D01*
X57525Y-38485D01*
X57590Y-38474D01*
X57619Y-38463D01*
X57392Y-38690D01*
X55213Y-38690D01*
X55160Y-38653D01*
X55099Y-38628D01*
X55035Y-38615D01*
X54969Y-38614D01*
X54904Y-38627D01*
X54844Y-38651D01*
X54789Y-38687D01*
X54742Y-38733D01*
X54740Y-38736D01*
X54740Y-35310D01*
X55913Y-35310D01*
X56051Y-35448D01*
X56066Y-35460D01*
X56081Y-35473D01*
X56082Y-35473D01*
X56083Y-35474D01*
X56100Y-35483D01*
X56117Y-35493D01*
X56118Y-35493D01*
X56119Y-35493D01*
X56137Y-35499D01*
X56156Y-35505D01*
X56157Y-35505D01*
X56158Y-35505D01*
X56177Y-35507D01*
X56197Y-35509D01*
X56199Y-35509D01*
X56199Y-35509D01*
X56199Y-35509D01*
X56200Y-35510D01*
X56337Y-35510D01*
X56381Y-35556D01*
X56435Y-35593D01*
X56495Y-35620D01*
X56560Y-35634D01*
X56625Y-35635D01*
X56690Y-35624D01*
X56751Y-35600D01*
X56807Y-35565D01*
X56854Y-35519D01*
X56861Y-35510D01*
X56900Y-35510D01*
X56919Y-35508D01*
X56938Y-35506D01*
X56939Y-35506D01*
X56940Y-35506D01*
X56959Y-35500D01*
X56977Y-35494D01*
X56978Y-35494D01*
X56980Y-35494D01*
X56997Y-35485D01*
X57014Y-35476D01*
X57015Y-35475D01*
X57016Y-35474D01*
X57031Y-35462D01*
X57046Y-35450D01*
X57047Y-35449D01*
X57047Y-35449D01*
X57047Y-35448D01*
X57048Y-35448D01*
X57148Y-35348D01*
X57160Y-35333D01*
X57173Y-35318D01*
X57173Y-35317D01*
X57174Y-35316D01*
X57183Y-35299D01*
X57193Y-35282D01*
X57193Y-35281D01*
X57193Y-35280D01*
X57199Y-35262D01*
X57205Y-35243D01*
X57205Y-35242D01*
X57205Y-35241D01*
X57207Y-35222D01*
X57209Y-35202D01*
X57209Y-35200D01*
X57209Y-35200D01*
X57209Y-35200D01*
X57210Y-35200D01*
X57210Y-34300D01*
X57208Y-34280D01*
X57206Y-34261D01*
X57206Y-34260D01*
X57206Y-34259D01*
X57200Y-34240D01*
X57194Y-34222D01*
X57194Y-34221D01*
X57194Y-34219D01*
X57185Y-34202D01*
X57176Y-34185D01*
X57175Y-34184D01*
X57174Y-34183D01*
X57162Y-34168D01*
X57150Y-34153D01*
X57149Y-34152D01*
X57149Y-34152D01*
X57148Y-34152D01*
X57148Y-34151D01*
X56848Y-33851D01*
X56833Y-33839D01*
X56818Y-33826D01*
X56817Y-33826D01*
X56816Y-33825D01*
X56799Y-33816D01*
X56782Y-33806D01*
X56781Y-33806D01*
X56780Y-33806D01*
X56762Y-33800D01*
X56743Y-33794D01*
X56742Y-33794D01*
X56741Y-33794D01*
X56722Y-33792D01*
X56702Y-33790D01*
X56700Y-33790D01*
X56700Y-33790D01*
X56700Y-33790D01*
X56700Y-33790D01*
X56386Y-33790D01*
X56260Y-33663D01*
X56260Y-33400D01*
X56260Y-30312D01*
X56304Y-30269D01*
X56342Y-30216D01*
X56369Y-30156D01*
X56383Y-30092D01*
X56385Y-30017D01*
X56372Y-29952D01*
X56347Y-29891D01*
X56310Y-29837D01*
X56264Y-29790D01*
X56210Y-29753D01*
X56149Y-29728D01*
X56085Y-29715D01*
X56019Y-29714D01*
X55954Y-29727D01*
X55894Y-29751D01*
X55839Y-29787D01*
X55792Y-29833D01*
X55755Y-29887D01*
X55729Y-29948D01*
X55715Y-30012D01*
X55714Y-30078D01*
X55726Y-30142D01*
X55750Y-30203D01*
X55786Y-30259D01*
X55831Y-30306D01*
X55840Y-30312D01*
X55840Y-33400D01*
X55840Y-33750D01*
X55841Y-33769D01*
X55843Y-33788D01*
X55843Y-33789D01*
X55843Y-33790D01*
X55849Y-33809D01*
X55855Y-33827D01*
X55855Y-33828D01*
X55855Y-33830D01*
X55864Y-33847D01*
X55873Y-33864D01*
X55874Y-33865D01*
X55875Y-33866D01*
X55887Y-33881D01*
X55899Y-33896D01*
X55900Y-33897D01*
X55900Y-33897D01*
X55901Y-33897D01*
X55901Y-33898D01*
X56151Y-34148D01*
X56166Y-34160D01*
X56181Y-34173D01*
X56182Y-34173D01*
X56183Y-34174D01*
X56200Y-34183D01*
X56211Y-34190D01*
X56200Y-34190D01*
X56180Y-34191D01*
X56161Y-34193D01*
X56160Y-34193D01*
X56159Y-34193D01*
X56140Y-34199D01*
X56122Y-34205D01*
X56121Y-34205D01*
X56119Y-34205D01*
X56102Y-34214D01*
X56085Y-34223D01*
X56084Y-34224D01*
X56083Y-34225D01*
X56068Y-34237D01*
X56053Y-34249D01*
X56052Y-34250D01*
X56052Y-34250D01*
X56052Y-34251D01*
X56051Y-34251D01*
X55913Y-34390D01*
X54740Y-34390D01*
X54740Y-29429D01*
X69991Y-29429D01*
X70159Y-29446D01*
X70312Y-29492D01*
X70453Y-29567D01*
X70577Y-29668D01*
X70679Y-29791D01*
X70755Y-29932D01*
X70802Y-30085D01*
X70820Y-30252D01*
X70820Y-32510D01*
G54D10*
G36*
X70820Y-46760D02*
X70660Y-46760D01*
X70660Y-44900D01*
X70660Y-41900D01*
X70657Y-41876D01*
X70655Y-41852D01*
X70655Y-41850D01*
X70655Y-41849D01*
X70648Y-41826D01*
X70641Y-41803D01*
X70640Y-41802D01*
X70640Y-41800D01*
X70629Y-41779D01*
X70618Y-41758D01*
X70617Y-41757D01*
X70616Y-41756D01*
X70601Y-41737D01*
X70586Y-41718D01*
X70584Y-41716D01*
X70584Y-41716D01*
X70584Y-41716D01*
X70583Y-41716D01*
X70467Y-41600D01*
X70583Y-41483D01*
X70599Y-41465D01*
X70614Y-41446D01*
X70615Y-41445D01*
X70616Y-41444D01*
X70627Y-41423D01*
X70638Y-41402D01*
X70639Y-41401D01*
X70640Y-41399D01*
X70647Y-41376D01*
X70654Y-41354D01*
X70654Y-41352D01*
X70654Y-41351D01*
X70657Y-41327D01*
X70659Y-41303D01*
X70659Y-41300D01*
X70659Y-41300D01*
X70659Y-41300D01*
X70660Y-41300D01*
X70660Y-38300D01*
X70657Y-38276D01*
X70655Y-38252D01*
X70655Y-38250D01*
X70655Y-38249D01*
X70648Y-38226D01*
X70641Y-38203D01*
X70640Y-38202D01*
X70640Y-38200D01*
X70629Y-38179D01*
X70618Y-38158D01*
X70617Y-38157D01*
X70616Y-38156D01*
X70601Y-38137D01*
X70586Y-38118D01*
X70584Y-38116D01*
X70584Y-38116D01*
X70584Y-38116D01*
X70583Y-38116D01*
X70467Y-38000D01*
X70583Y-37883D01*
X70599Y-37865D01*
X70614Y-37846D01*
X70615Y-37845D01*
X70616Y-37844D01*
X70627Y-37823D01*
X70638Y-37802D01*
X70639Y-37801D01*
X70640Y-37799D01*
X70647Y-37776D01*
X70654Y-37754D01*
X70654Y-37752D01*
X70654Y-37751D01*
X70657Y-37727D01*
X70659Y-37703D01*
X70659Y-37700D01*
X70659Y-37700D01*
X70659Y-37700D01*
X70660Y-37700D01*
X70660Y-34700D01*
X70657Y-34676D01*
X70655Y-34652D01*
X70655Y-34650D01*
X70655Y-34649D01*
X70648Y-34626D01*
X70641Y-34603D01*
X70640Y-34602D01*
X70640Y-34600D01*
X70629Y-34579D01*
X70618Y-34558D01*
X70617Y-34557D01*
X70616Y-34556D01*
X70601Y-34537D01*
X70586Y-34518D01*
X70584Y-34516D01*
X70584Y-34516D01*
X70584Y-34516D01*
X70583Y-34516D01*
X70283Y-34216D01*
X70265Y-34200D01*
X70246Y-34185D01*
X70245Y-34184D01*
X70244Y-34183D01*
X70223Y-34172D01*
X70202Y-34161D01*
X70201Y-34160D01*
X70199Y-34159D01*
X70176Y-34152D01*
X70154Y-34145D01*
X70152Y-34145D01*
X70151Y-34145D01*
X70127Y-34142D01*
X70112Y-34140D01*
X70112Y-33386D01*
X70099Y-33287D01*
X70068Y-33192D01*
X70034Y-33127D01*
X69957Y-33091D01*
X69908Y-33141D01*
X69908Y-33042D01*
X69872Y-32965D01*
X69782Y-32921D01*
X69686Y-32894D01*
X69586Y-32887D01*
X69487Y-32900D01*
X69392Y-32931D01*
X69327Y-32965D01*
X69291Y-33042D01*
X69600Y-33350D01*
X69908Y-33042D01*
X69908Y-33141D01*
X69649Y-33400D01*
X69957Y-33708D01*
X70034Y-33672D01*
X70078Y-33582D01*
X70105Y-33486D01*
X70112Y-33386D01*
X70112Y-34140D01*
X70103Y-34140D01*
X70100Y-34140D01*
X70100Y-34140D01*
X70100Y-34140D01*
X70100Y-34140D01*
X70039Y-34140D01*
X69997Y-34076D01*
X69926Y-34005D01*
X69843Y-33949D01*
X69751Y-33910D01*
X69704Y-33900D01*
X69712Y-33899D01*
X69807Y-33868D01*
X69872Y-33834D01*
X69908Y-33757D01*
X69600Y-33449D01*
X69550Y-33498D01*
X69550Y-33400D01*
X69242Y-33091D01*
X69165Y-33127D01*
X69121Y-33217D01*
X69094Y-33313D01*
X69087Y-33413D01*
X69100Y-33512D01*
X69131Y-33607D01*
X69165Y-33672D01*
X69242Y-33708D01*
X69550Y-33400D01*
X69550Y-33498D01*
X69291Y-33757D01*
X69327Y-33834D01*
X69417Y-33878D01*
X69496Y-33900D01*
X69455Y-33908D01*
X69362Y-33945D01*
X69278Y-34000D01*
X69207Y-34070D01*
X69150Y-34153D01*
X69111Y-34245D01*
X69090Y-34342D01*
X69089Y-34442D01*
X69107Y-34541D01*
X69144Y-34634D01*
X69198Y-34718D01*
X69267Y-34790D01*
X69349Y-34847D01*
X69441Y-34887D01*
X69453Y-34889D01*
X69234Y-34889D01*
X69203Y-34896D01*
X69174Y-34908D01*
X69148Y-34925D01*
X69126Y-34947D01*
X69108Y-34973D01*
X69096Y-35002D01*
X69090Y-35033D01*
X69089Y-35064D01*
X69089Y-35190D01*
X69080Y-35191D01*
X69061Y-35193D01*
X69060Y-35193D01*
X69059Y-35193D01*
X69040Y-35199D01*
X69022Y-35205D01*
X69021Y-35205D01*
X69019Y-35205D01*
X69002Y-35214D01*
X68985Y-35223D01*
X68984Y-35224D01*
X68983Y-35225D01*
X68968Y-35237D01*
X68953Y-35249D01*
X68952Y-35250D01*
X68952Y-35250D01*
X68952Y-35251D01*
X68951Y-35251D01*
X68551Y-35651D01*
X68539Y-35666D01*
X68526Y-35681D01*
X68526Y-35682D01*
X68525Y-35683D01*
X68516Y-35700D01*
X68506Y-35717D01*
X68506Y-35718D01*
X68506Y-35719D01*
X68500Y-35737D01*
X68494Y-35756D01*
X68494Y-35757D01*
X68494Y-35758D01*
X68492Y-35777D01*
X68490Y-35797D01*
X68490Y-35799D01*
X68490Y-35799D01*
X68490Y-35799D01*
X68490Y-35800D01*
X68490Y-39113D01*
X68113Y-39490D01*
X64100Y-39490D01*
X64080Y-39491D01*
X64061Y-39493D01*
X64060Y-39493D01*
X64059Y-39493D01*
X64040Y-39499D01*
X64022Y-39505D01*
X64021Y-39505D01*
X64019Y-39505D01*
X64002Y-39514D01*
X63985Y-39523D01*
X63984Y-39524D01*
X63983Y-39525D01*
X63968Y-39537D01*
X63953Y-39549D01*
X63952Y-39550D01*
X63952Y-39550D01*
X63952Y-39551D01*
X63951Y-39551D01*
X62713Y-40790D01*
X62662Y-40790D01*
X62660Y-40787D01*
X62614Y-40740D01*
X62560Y-40703D01*
X62499Y-40678D01*
X62435Y-40665D01*
X62369Y-40664D01*
X62304Y-40677D01*
X62244Y-40701D01*
X62189Y-40737D01*
X62142Y-40783D01*
X62105Y-40837D01*
X62079Y-40898D01*
X62065Y-40962D01*
X62064Y-41028D01*
X62076Y-41092D01*
X62100Y-41153D01*
X62136Y-41209D01*
X62181Y-41256D01*
X62235Y-41293D01*
X62295Y-41320D01*
X62360Y-41334D01*
X62425Y-41335D01*
X62476Y-41326D01*
X61913Y-41890D01*
X60862Y-41890D01*
X60860Y-41887D01*
X60814Y-41840D01*
X60760Y-41803D01*
X60699Y-41778D01*
X60635Y-41765D01*
X60569Y-41764D01*
X60504Y-41777D01*
X60444Y-41801D01*
X60389Y-41837D01*
X60342Y-41883D01*
X60305Y-41937D01*
X60279Y-41998D01*
X60265Y-42062D01*
X60264Y-42128D01*
X60276Y-42192D01*
X60300Y-42253D01*
X60336Y-42309D01*
X60381Y-42356D01*
X60435Y-42393D01*
X60405Y-42437D01*
X60379Y-42498D01*
X60365Y-42562D01*
X60364Y-42628D01*
X60376Y-42692D01*
X60400Y-42753D01*
X60436Y-42809D01*
X60481Y-42856D01*
X60535Y-42893D01*
X60595Y-42920D01*
X60660Y-42934D01*
X60725Y-42935D01*
X60790Y-42924D01*
X60851Y-42900D01*
X60907Y-42865D01*
X60954Y-42819D01*
X60992Y-42766D01*
X61019Y-42706D01*
X61033Y-42642D01*
X61035Y-42567D01*
X61034Y-42562D01*
X61086Y-42510D01*
X62100Y-42510D01*
X62119Y-42508D01*
X62138Y-42506D01*
X62139Y-42506D01*
X62140Y-42506D01*
X62159Y-42500D01*
X62177Y-42494D01*
X62178Y-42494D01*
X62180Y-42494D01*
X62197Y-42485D01*
X62214Y-42476D01*
X62215Y-42475D01*
X62216Y-42474D01*
X62231Y-42462D01*
X62246Y-42450D01*
X62247Y-42449D01*
X62247Y-42449D01*
X62247Y-42448D01*
X62248Y-42448D01*
X63348Y-41348D01*
X63348Y-41348D01*
X63348Y-41348D01*
X63836Y-40860D01*
X64187Y-40860D01*
X64231Y-40906D01*
X64285Y-40943D01*
X64345Y-40970D01*
X64410Y-40984D01*
X64475Y-40985D01*
X64540Y-40974D01*
X64601Y-40950D01*
X64657Y-40915D01*
X64704Y-40869D01*
X64742Y-40816D01*
X64769Y-40756D01*
X64783Y-40692D01*
X64785Y-40617D01*
X64772Y-40552D01*
X64747Y-40491D01*
X64710Y-40437D01*
X64664Y-40390D01*
X64610Y-40353D01*
X64549Y-40328D01*
X64503Y-40319D01*
X64551Y-40300D01*
X64607Y-40265D01*
X64654Y-40219D01*
X64692Y-40166D01*
X64719Y-40106D01*
X64733Y-40042D01*
X64735Y-39967D01*
X64723Y-39910D01*
X68200Y-39910D01*
X68219Y-39908D01*
X68238Y-39906D01*
X68239Y-39906D01*
X68240Y-39906D01*
X68259Y-39900D01*
X68277Y-39894D01*
X68278Y-39894D01*
X68280Y-39894D01*
X68297Y-39885D01*
X68314Y-39876D01*
X68315Y-39875D01*
X68316Y-39874D01*
X68331Y-39862D01*
X68346Y-39850D01*
X68347Y-39849D01*
X68347Y-39849D01*
X68347Y-39848D01*
X68348Y-39848D01*
X68848Y-39348D01*
X68860Y-39333D01*
X68873Y-39318D01*
X68873Y-39317D01*
X68874Y-39316D01*
X68883Y-39299D01*
X68893Y-39282D01*
X68893Y-39281D01*
X68893Y-39280D01*
X68899Y-39262D01*
X68905Y-39243D01*
X68905Y-39242D01*
X68905Y-39241D01*
X68907Y-39222D01*
X68909Y-39202D01*
X68909Y-39200D01*
X68909Y-39200D01*
X68909Y-39200D01*
X68910Y-39200D01*
X68910Y-35886D01*
X69089Y-35707D01*
X69089Y-35765D01*
X69096Y-35796D01*
X69108Y-35825D01*
X69125Y-35851D01*
X69147Y-35873D01*
X69173Y-35891D01*
X69202Y-35903D01*
X69233Y-35909D01*
X69264Y-35910D01*
X69965Y-35910D01*
X69996Y-35903D01*
X70025Y-35891D01*
X70051Y-35874D01*
X70073Y-35852D01*
X70091Y-35826D01*
X70103Y-35797D01*
X70109Y-35766D01*
X70110Y-35735D01*
X70110Y-35034D01*
X70103Y-35003D01*
X70091Y-34974D01*
X70074Y-34948D01*
X70052Y-34926D01*
X70026Y-34908D01*
X69997Y-34896D01*
X69966Y-34890D01*
X69935Y-34889D01*
X69747Y-34889D01*
X69831Y-34857D01*
X69915Y-34803D01*
X69987Y-34734D01*
X70020Y-34688D01*
X70140Y-34807D01*
X70140Y-37592D01*
X70112Y-37620D01*
X70112Y-36986D01*
X70099Y-36887D01*
X70068Y-36792D01*
X70034Y-36727D01*
X69957Y-36691D01*
X69908Y-36741D01*
X69908Y-36642D01*
X69872Y-36565D01*
X69782Y-36521D01*
X69686Y-36494D01*
X69586Y-36487D01*
X69487Y-36500D01*
X69392Y-36531D01*
X69327Y-36565D01*
X69291Y-36642D01*
X69600Y-36950D01*
X69908Y-36642D01*
X69908Y-36741D01*
X69649Y-37000D01*
X69957Y-37308D01*
X70034Y-37272D01*
X70078Y-37182D01*
X70105Y-37086D01*
X70112Y-36986D01*
X70112Y-37620D01*
X70020Y-37711D01*
X69997Y-37676D01*
X69926Y-37605D01*
X69843Y-37549D01*
X69751Y-37510D01*
X69704Y-37500D01*
X69712Y-37499D01*
X69807Y-37468D01*
X69872Y-37434D01*
X69908Y-37357D01*
X69600Y-37049D01*
X69550Y-37098D01*
X69550Y-37000D01*
X69242Y-36691D01*
X69165Y-36727D01*
X69121Y-36817D01*
X69094Y-36913D01*
X69087Y-37013D01*
X69100Y-37112D01*
X69131Y-37207D01*
X69165Y-37272D01*
X69242Y-37308D01*
X69550Y-37000D01*
X69550Y-37098D01*
X69291Y-37357D01*
X69327Y-37434D01*
X69417Y-37478D01*
X69496Y-37500D01*
X69455Y-37508D01*
X69362Y-37545D01*
X69278Y-37600D01*
X69207Y-37670D01*
X69150Y-37753D01*
X69111Y-37845D01*
X69090Y-37942D01*
X69089Y-38042D01*
X69107Y-38141D01*
X69144Y-38234D01*
X69198Y-38318D01*
X69267Y-38390D01*
X69349Y-38447D01*
X69441Y-38487D01*
X69453Y-38489D01*
X69234Y-38489D01*
X69203Y-38496D01*
X69174Y-38508D01*
X69148Y-38525D01*
X69126Y-38547D01*
X69108Y-38573D01*
X69096Y-38602D01*
X69090Y-38633D01*
X69089Y-38664D01*
X69089Y-39365D01*
X69096Y-39396D01*
X69108Y-39425D01*
X69125Y-39451D01*
X69147Y-39473D01*
X69173Y-39491D01*
X69202Y-39503D01*
X69233Y-39509D01*
X69264Y-39510D01*
X69965Y-39510D01*
X69996Y-39503D01*
X70025Y-39491D01*
X70051Y-39474D01*
X70073Y-39452D01*
X70091Y-39426D01*
X70103Y-39397D01*
X70109Y-39366D01*
X70110Y-39335D01*
X70110Y-38634D01*
X70103Y-38603D01*
X70091Y-38574D01*
X70074Y-38548D01*
X70052Y-38526D01*
X70026Y-38508D01*
X69997Y-38496D01*
X69966Y-38490D01*
X69935Y-38489D01*
X69747Y-38489D01*
X69831Y-38457D01*
X69915Y-38403D01*
X69987Y-38334D01*
X70020Y-38288D01*
X70140Y-38407D01*
X70140Y-41192D01*
X70112Y-41220D01*
X70112Y-40586D01*
X70099Y-40487D01*
X70068Y-40392D01*
X70034Y-40327D01*
X69957Y-40291D01*
X69908Y-40341D01*
X69908Y-40242D01*
X69872Y-40165D01*
X69782Y-40121D01*
X69686Y-40094D01*
X69586Y-40087D01*
X69487Y-40100D01*
X69392Y-40131D01*
X69327Y-40165D01*
X69291Y-40242D01*
X69600Y-40550D01*
X69908Y-40242D01*
X69908Y-40341D01*
X69649Y-40600D01*
X69957Y-40908D01*
X70034Y-40872D01*
X70078Y-40782D01*
X70105Y-40686D01*
X70112Y-40586D01*
X70112Y-41220D01*
X70020Y-41311D01*
X69997Y-41276D01*
X69926Y-41205D01*
X69843Y-41149D01*
X69751Y-41110D01*
X69704Y-41100D01*
X69712Y-41099D01*
X69807Y-41068D01*
X69872Y-41034D01*
X69908Y-40957D01*
X69600Y-40649D01*
X69550Y-40698D01*
X69550Y-40600D01*
X69242Y-40291D01*
X69165Y-40327D01*
X69121Y-40417D01*
X69094Y-40513D01*
X69087Y-40613D01*
X69100Y-40712D01*
X69131Y-40807D01*
X69165Y-40872D01*
X69242Y-40908D01*
X69550Y-40600D01*
X69550Y-40698D01*
X69291Y-40957D01*
X69327Y-41034D01*
X69417Y-41078D01*
X69496Y-41100D01*
X69455Y-41108D01*
X69362Y-41145D01*
X69278Y-41200D01*
X69207Y-41270D01*
X69150Y-41353D01*
X69135Y-41390D01*
X69100Y-41390D01*
X69080Y-41391D01*
X69061Y-41393D01*
X69060Y-41393D01*
X69059Y-41393D01*
X69040Y-41399D01*
X69022Y-41405D01*
X69021Y-41405D01*
X69019Y-41405D01*
X69002Y-41414D01*
X68985Y-41423D01*
X68984Y-41424D01*
X68983Y-41425D01*
X68968Y-41437D01*
X68953Y-41449D01*
X68952Y-41450D01*
X68952Y-41450D01*
X68952Y-41451D01*
X68951Y-41451D01*
X68537Y-41865D01*
X68535Y-41865D01*
X68469Y-41864D01*
X68404Y-41877D01*
X68344Y-41901D01*
X68289Y-41937D01*
X68242Y-41983D01*
X68205Y-42037D01*
X68179Y-42098D01*
X68165Y-42162D01*
X68164Y-42228D01*
X68176Y-42292D01*
X68200Y-42353D01*
X68236Y-42409D01*
X68281Y-42456D01*
X68335Y-42493D01*
X68395Y-42520D01*
X68460Y-42534D01*
X68525Y-42535D01*
X68590Y-42524D01*
X68651Y-42500D01*
X68707Y-42465D01*
X68754Y-42419D01*
X68792Y-42366D01*
X68819Y-42306D01*
X68833Y-42242D01*
X68835Y-42167D01*
X68834Y-42162D01*
X69151Y-41845D01*
X69198Y-41918D01*
X69267Y-41990D01*
X69349Y-42047D01*
X69441Y-42087D01*
X69453Y-42089D01*
X69234Y-42089D01*
X69203Y-42096D01*
X69174Y-42108D01*
X69148Y-42125D01*
X69126Y-42147D01*
X69108Y-42173D01*
X69096Y-42202D01*
X69090Y-42233D01*
X69089Y-42264D01*
X69089Y-42965D01*
X69096Y-42996D01*
X69108Y-43025D01*
X69125Y-43051D01*
X69147Y-43073D01*
X69173Y-43091D01*
X69202Y-43103D01*
X69233Y-43109D01*
X69264Y-43110D01*
X69965Y-43110D01*
X69996Y-43103D01*
X70025Y-43091D01*
X70051Y-43074D01*
X70073Y-43052D01*
X70091Y-43026D01*
X70103Y-42997D01*
X70109Y-42966D01*
X70110Y-42935D01*
X70110Y-42234D01*
X70103Y-42203D01*
X70091Y-42174D01*
X70074Y-42148D01*
X70052Y-42126D01*
X70026Y-42108D01*
X69997Y-42096D01*
X69966Y-42090D01*
X69935Y-42089D01*
X69747Y-42089D01*
X69831Y-42057D01*
X69915Y-42003D01*
X69987Y-41934D01*
X70020Y-41888D01*
X70140Y-42007D01*
X70140Y-44792D01*
X70112Y-44820D01*
X70112Y-44186D01*
X70099Y-44087D01*
X70068Y-43992D01*
X70034Y-43927D01*
X69957Y-43891D01*
X69908Y-43941D01*
X69908Y-43842D01*
X69872Y-43765D01*
X69782Y-43721D01*
X69686Y-43694D01*
X69586Y-43687D01*
X69487Y-43700D01*
X69392Y-43731D01*
X69327Y-43765D01*
X69291Y-43842D01*
X69600Y-44150D01*
X69908Y-43842D01*
X69908Y-43941D01*
X69649Y-44200D01*
X69957Y-44508D01*
X70034Y-44472D01*
X70078Y-44382D01*
X70105Y-44286D01*
X70112Y-44186D01*
X70112Y-44820D01*
X70020Y-44911D01*
X69997Y-44876D01*
X69926Y-44805D01*
X69843Y-44749D01*
X69751Y-44710D01*
X69704Y-44700D01*
X69712Y-44699D01*
X69807Y-44668D01*
X69872Y-44634D01*
X69908Y-44557D01*
X69600Y-44249D01*
X69550Y-44298D01*
X69550Y-44200D01*
X69242Y-43891D01*
X69165Y-43927D01*
X69121Y-44017D01*
X69094Y-44113D01*
X69087Y-44213D01*
X69100Y-44312D01*
X69131Y-44407D01*
X69165Y-44472D01*
X69242Y-44508D01*
X69550Y-44200D01*
X69550Y-44298D01*
X69291Y-44557D01*
X69327Y-44634D01*
X69417Y-44678D01*
X69496Y-44700D01*
X69455Y-44708D01*
X69362Y-44745D01*
X69278Y-44800D01*
X69207Y-44870D01*
X69150Y-44953D01*
X69111Y-45045D01*
X69090Y-45142D01*
X69089Y-45242D01*
X69107Y-45341D01*
X69144Y-45434D01*
X69198Y-45518D01*
X69267Y-45590D01*
X69349Y-45647D01*
X69441Y-45687D01*
X69453Y-45689D01*
X69234Y-45689D01*
X69203Y-45696D01*
X69174Y-45708D01*
X69148Y-45725D01*
X69126Y-45747D01*
X69108Y-45773D01*
X69096Y-45802D01*
X69090Y-45833D01*
X69089Y-45864D01*
X69089Y-46565D01*
X69096Y-46596D01*
X69108Y-46625D01*
X69125Y-46651D01*
X69147Y-46673D01*
X69173Y-46691D01*
X69202Y-46703D01*
X69233Y-46709D01*
X69264Y-46710D01*
X69965Y-46710D01*
X69996Y-46703D01*
X70025Y-46691D01*
X70051Y-46674D01*
X70073Y-46652D01*
X70091Y-46626D01*
X70103Y-46597D01*
X70109Y-46566D01*
X70110Y-46535D01*
X70110Y-45834D01*
X70103Y-45803D01*
X70091Y-45774D01*
X70074Y-45748D01*
X70052Y-45726D01*
X70026Y-45708D01*
X69997Y-45696D01*
X69966Y-45690D01*
X69935Y-45689D01*
X69747Y-45689D01*
X69831Y-45657D01*
X69915Y-45603D01*
X69987Y-45534D01*
X70040Y-45460D01*
X70100Y-45460D01*
X70123Y-45457D01*
X70147Y-45455D01*
X70149Y-45455D01*
X70150Y-45455D01*
X70173Y-45448D01*
X70196Y-45441D01*
X70197Y-45440D01*
X70199Y-45440D01*
X70220Y-45429D01*
X70241Y-45418D01*
X70242Y-45417D01*
X70243Y-45416D01*
X70262Y-45401D01*
X70281Y-45386D01*
X70283Y-45384D01*
X70283Y-45384D01*
X70283Y-45384D01*
X70283Y-45383D01*
X70583Y-45083D01*
X70599Y-45065D01*
X70614Y-45046D01*
X70615Y-45045D01*
X70616Y-45044D01*
X70627Y-45023D01*
X70638Y-45002D01*
X70639Y-45001D01*
X70640Y-44999D01*
X70647Y-44976D01*
X70654Y-44954D01*
X70654Y-44952D01*
X70654Y-44951D01*
X70657Y-44927D01*
X70659Y-44903D01*
X70659Y-44900D01*
X70659Y-44900D01*
X70659Y-44900D01*
X70660Y-44900D01*
X70660Y-46760D01*
X68407Y-46760D01*
X68783Y-46383D01*
X68799Y-46365D01*
X68814Y-46346D01*
X68815Y-46345D01*
X68816Y-46344D01*
X68827Y-46323D01*
X68838Y-46302D01*
X68839Y-46301D01*
X68840Y-46299D01*
X68847Y-46276D01*
X68854Y-46254D01*
X68854Y-46252D01*
X68854Y-46251D01*
X68857Y-46227D01*
X68859Y-46203D01*
X68859Y-46200D01*
X68859Y-46200D01*
X68859Y-46200D01*
X68860Y-46200D01*
X68860Y-44512D01*
X68892Y-44466D01*
X68919Y-44406D01*
X68933Y-44342D01*
X68935Y-44267D01*
X68922Y-44202D01*
X68897Y-44141D01*
X68860Y-44087D01*
X68814Y-44040D01*
X68760Y-44003D01*
X68699Y-43978D01*
X68635Y-43965D01*
X68569Y-43964D01*
X68504Y-43977D01*
X68444Y-44001D01*
X68389Y-44037D01*
X68342Y-44083D01*
X68305Y-44137D01*
X68279Y-44198D01*
X68265Y-44262D01*
X68264Y-44328D01*
X68276Y-44392D01*
X68300Y-44453D01*
X68336Y-44509D01*
X68340Y-44513D01*
X68340Y-46092D01*
X68092Y-46340D01*
X67235Y-46340D01*
X67235Y-44467D01*
X67222Y-44402D01*
X67197Y-44341D01*
X67160Y-44287D01*
X67160Y-44286D01*
X67160Y-44000D01*
X67157Y-43976D01*
X67155Y-43952D01*
X67155Y-43950D01*
X67155Y-43949D01*
X67148Y-43926D01*
X67141Y-43903D01*
X67140Y-43902D01*
X67140Y-43900D01*
X67129Y-43879D01*
X67118Y-43858D01*
X67117Y-43857D01*
X67116Y-43856D01*
X67101Y-43837D01*
X67086Y-43818D01*
X67084Y-43816D01*
X67084Y-43816D01*
X67084Y-43816D01*
X67083Y-43816D01*
X65283Y-42016D01*
X65265Y-42000D01*
X65246Y-41985D01*
X65245Y-41984D01*
X65244Y-41983D01*
X65223Y-41972D01*
X65202Y-41961D01*
X65201Y-41960D01*
X65199Y-41959D01*
X65176Y-41952D01*
X65154Y-41945D01*
X65152Y-41945D01*
X65151Y-41945D01*
X65127Y-41942D01*
X65103Y-41940D01*
X65100Y-41940D01*
X65100Y-41940D01*
X65100Y-41940D01*
X65100Y-41940D01*
X64713Y-41940D01*
X64660Y-41903D01*
X64599Y-41878D01*
X64535Y-41865D01*
X64469Y-41864D01*
X64404Y-41877D01*
X64344Y-41901D01*
X64289Y-41937D01*
X64242Y-41983D01*
X64205Y-42037D01*
X64179Y-42098D01*
X64165Y-42162D01*
X64164Y-42228D01*
X64176Y-42292D01*
X64200Y-42353D01*
X64236Y-42409D01*
X64240Y-42413D01*
X64240Y-43292D01*
X63992Y-43540D01*
X57913Y-43540D01*
X57860Y-43503D01*
X57799Y-43478D01*
X57735Y-43465D01*
X57669Y-43464D01*
X57604Y-43477D01*
X57544Y-43501D01*
X57489Y-43537D01*
X57486Y-43540D01*
X56750Y-43540D01*
X56726Y-43542D01*
X56702Y-43544D01*
X56700Y-43544D01*
X56699Y-43544D01*
X56676Y-43551D01*
X56653Y-43558D01*
X56652Y-43559D01*
X56650Y-43559D01*
X56629Y-43570D01*
X56608Y-43581D01*
X56607Y-43582D01*
X56606Y-43583D01*
X56587Y-43598D01*
X56568Y-43613D01*
X56566Y-43615D01*
X56566Y-43615D01*
X56566Y-43615D01*
X56566Y-43616D01*
X55567Y-44615D01*
X55504Y-44627D01*
X55444Y-44651D01*
X55389Y-44687D01*
X55342Y-44733D01*
X55305Y-44787D01*
X55279Y-44848D01*
X55265Y-44912D01*
X55264Y-44978D01*
X55276Y-45042D01*
X55300Y-45103D01*
X55336Y-45159D01*
X55340Y-45163D01*
X55340Y-45600D01*
X55342Y-45623D01*
X55344Y-45647D01*
X55344Y-45649D01*
X55344Y-45650D01*
X55351Y-45673D01*
X55358Y-45696D01*
X55359Y-45697D01*
X55359Y-45699D01*
X55370Y-45720D01*
X55381Y-45741D01*
X55382Y-45742D01*
X55383Y-45743D01*
X55398Y-45762D01*
X55413Y-45781D01*
X55415Y-45783D01*
X55415Y-45783D01*
X55415Y-45783D01*
X55416Y-45783D01*
X56216Y-46583D01*
X56234Y-46599D01*
X56253Y-46614D01*
X56254Y-46615D01*
X56255Y-46616D01*
X56276Y-46627D01*
X56297Y-46638D01*
X56298Y-46639D01*
X56300Y-46640D01*
X56323Y-46647D01*
X56345Y-46654D01*
X56347Y-46654D01*
X56348Y-46654D01*
X56372Y-46657D01*
X56396Y-46659D01*
X56399Y-46659D01*
X56399Y-46659D01*
X56399Y-46659D01*
X56400Y-46660D01*
X59400Y-46660D01*
X59423Y-46657D01*
X59447Y-46655D01*
X59449Y-46655D01*
X59450Y-46655D01*
X59473Y-46648D01*
X59496Y-46641D01*
X59497Y-46640D01*
X59499Y-46640D01*
X59520Y-46629D01*
X59541Y-46618D01*
X59542Y-46617D01*
X59543Y-46616D01*
X59562Y-46601D01*
X59581Y-46586D01*
X59583Y-46584D01*
X59583Y-46584D01*
X59583Y-46584D01*
X59583Y-46583D01*
X59733Y-46434D01*
X59790Y-46424D01*
X59851Y-46400D01*
X59907Y-46365D01*
X59954Y-46319D01*
X59992Y-46266D01*
X60019Y-46206D01*
X60033Y-46142D01*
X60035Y-46067D01*
X60022Y-46002D01*
X59997Y-45941D01*
X59960Y-45887D01*
X59914Y-45840D01*
X59860Y-45803D01*
X59799Y-45778D01*
X59735Y-45765D01*
X59669Y-45764D01*
X59604Y-45777D01*
X59544Y-45801D01*
X59489Y-45837D01*
X59442Y-45883D01*
X59405Y-45937D01*
X59379Y-45998D01*
X59365Y-46062D01*
X59365Y-46066D01*
X59292Y-46140D01*
X57835Y-46140D01*
X57835Y-45067D01*
X57822Y-45002D01*
X57797Y-44941D01*
X57760Y-44887D01*
X57714Y-44840D01*
X57660Y-44803D01*
X57599Y-44778D01*
X57535Y-44765D01*
X57469Y-44764D01*
X57404Y-44777D01*
X57344Y-44801D01*
X57289Y-44837D01*
X57242Y-44883D01*
X57205Y-44937D01*
X57179Y-44998D01*
X57165Y-45062D01*
X57164Y-45128D01*
X57166Y-45136D01*
X57013Y-45290D01*
X56762Y-45290D01*
X56760Y-45287D01*
X56714Y-45240D01*
X56660Y-45203D01*
X56599Y-45178D01*
X56535Y-45165D01*
X56469Y-45164D01*
X56404Y-45177D01*
X56344Y-45201D01*
X56289Y-45237D01*
X56242Y-45283D01*
X56205Y-45337D01*
X56179Y-45398D01*
X56165Y-45462D01*
X56164Y-45528D01*
X56176Y-45592D01*
X56200Y-45653D01*
X56236Y-45709D01*
X56281Y-45756D01*
X56335Y-45793D01*
X56395Y-45820D01*
X56460Y-45834D01*
X56525Y-45835D01*
X56590Y-45824D01*
X56651Y-45800D01*
X56707Y-45765D01*
X56754Y-45719D01*
X56761Y-45710D01*
X57100Y-45710D01*
X57119Y-45708D01*
X57138Y-45706D01*
X57139Y-45706D01*
X57140Y-45706D01*
X57159Y-45700D01*
X57177Y-45694D01*
X57178Y-45694D01*
X57180Y-45694D01*
X57197Y-45685D01*
X57214Y-45676D01*
X57215Y-45675D01*
X57216Y-45674D01*
X57231Y-45662D01*
X57246Y-45650D01*
X57247Y-45649D01*
X57247Y-45649D01*
X57247Y-45648D01*
X57248Y-45648D01*
X57462Y-45434D01*
X57525Y-45435D01*
X57590Y-45424D01*
X57651Y-45400D01*
X57707Y-45365D01*
X57754Y-45319D01*
X57792Y-45266D01*
X57819Y-45206D01*
X57833Y-45142D01*
X57835Y-45067D01*
X57835Y-46140D01*
X56507Y-46140D01*
X55860Y-45492D01*
X55860Y-45162D01*
X55892Y-45116D01*
X55919Y-45056D01*
X55933Y-44992D01*
X55934Y-44983D01*
X56857Y-44060D01*
X57487Y-44060D01*
X57535Y-44093D01*
X57595Y-44120D01*
X57660Y-44134D01*
X57725Y-44135D01*
X57790Y-44124D01*
X57851Y-44100D01*
X57907Y-44065D01*
X57912Y-44060D01*
X64100Y-44060D01*
X64123Y-44057D01*
X64147Y-44055D01*
X64149Y-44055D01*
X64150Y-44055D01*
X64173Y-44048D01*
X64196Y-44041D01*
X64197Y-44040D01*
X64199Y-44040D01*
X64220Y-44029D01*
X64241Y-44018D01*
X64242Y-44017D01*
X64243Y-44016D01*
X64262Y-44001D01*
X64281Y-43986D01*
X64283Y-43984D01*
X64283Y-43984D01*
X64283Y-43984D01*
X64283Y-43983D01*
X64683Y-43583D01*
X64699Y-43565D01*
X64714Y-43546D01*
X64715Y-43545D01*
X64716Y-43544D01*
X64727Y-43523D01*
X64738Y-43502D01*
X64739Y-43501D01*
X64740Y-43499D01*
X64747Y-43476D01*
X64754Y-43454D01*
X64754Y-43452D01*
X64754Y-43451D01*
X64757Y-43427D01*
X64759Y-43403D01*
X64759Y-43400D01*
X64759Y-43400D01*
X64759Y-43400D01*
X64760Y-43400D01*
X64760Y-42460D01*
X64992Y-42460D01*
X66640Y-44107D01*
X66640Y-44286D01*
X66605Y-44337D01*
X66579Y-44398D01*
X66565Y-44462D01*
X66564Y-44528D01*
X66576Y-44592D01*
X66600Y-44653D01*
X66636Y-44709D01*
X66681Y-44756D01*
X66735Y-44793D01*
X66795Y-44820D01*
X66860Y-44834D01*
X66925Y-44835D01*
X66990Y-44824D01*
X67051Y-44800D01*
X67107Y-44765D01*
X67154Y-44719D01*
X67192Y-44666D01*
X67219Y-44606D01*
X67233Y-44542D01*
X67235Y-44467D01*
X67235Y-46340D01*
X61407Y-46340D01*
X60760Y-45692D01*
X60760Y-44712D01*
X60792Y-44666D01*
X60819Y-44606D01*
X60833Y-44542D01*
X60835Y-44467D01*
X60822Y-44402D01*
X60797Y-44341D01*
X60760Y-44287D01*
X60714Y-44240D01*
X60660Y-44203D01*
X60599Y-44178D01*
X60535Y-44165D01*
X60469Y-44164D01*
X60404Y-44177D01*
X60344Y-44201D01*
X60289Y-44237D01*
X60242Y-44283D01*
X60205Y-44337D01*
X60179Y-44398D01*
X60165Y-44462D01*
X60164Y-44528D01*
X60176Y-44592D01*
X60200Y-44653D01*
X60236Y-44709D01*
X60240Y-44713D01*
X60240Y-45800D01*
X60242Y-45823D01*
X60244Y-45847D01*
X60244Y-45849D01*
X60244Y-45850D01*
X60251Y-45873D01*
X60258Y-45896D01*
X60259Y-45897D01*
X60259Y-45899D01*
X60270Y-45920D01*
X60281Y-45941D01*
X60282Y-45942D01*
X60283Y-45943D01*
X60298Y-45962D01*
X60313Y-45981D01*
X60315Y-45983D01*
X60315Y-45983D01*
X60315Y-45983D01*
X60316Y-45983D01*
X61092Y-46760D01*
X54740Y-46760D01*
X54740Y-41990D01*
X59340Y-41990D01*
X59340Y-40590D01*
X60540Y-40590D01*
X60540Y-39390D01*
X68140Y-39390D01*
X68140Y-32790D01*
X70820Y-32790D01*
X70820Y-46760D01*
X70820Y-46760D01*
G37*
G54D29*
X70820Y-46760D02*
X70660Y-46760D01*
X70660Y-44900D01*
X70660Y-41900D01*
X70657Y-41876D01*
X70655Y-41852D01*
X70655Y-41850D01*
X70655Y-41849D01*
X70648Y-41826D01*
X70641Y-41803D01*
X70640Y-41802D01*
X70640Y-41800D01*
X70629Y-41779D01*
X70618Y-41758D01*
X70617Y-41757D01*
X70616Y-41756D01*
X70601Y-41737D01*
X70586Y-41718D01*
X70584Y-41716D01*
X70584Y-41716D01*
X70584Y-41716D01*
X70583Y-41716D01*
X70467Y-41600D01*
X70583Y-41483D01*
X70599Y-41465D01*
X70614Y-41446D01*
X70615Y-41445D01*
X70616Y-41444D01*
X70627Y-41423D01*
X70638Y-41402D01*
X70639Y-41401D01*
X70640Y-41399D01*
X70647Y-41376D01*
X70654Y-41354D01*
X70654Y-41352D01*
X70654Y-41351D01*
X70657Y-41327D01*
X70659Y-41303D01*
X70659Y-41300D01*
X70659Y-41300D01*
X70659Y-41300D01*
X70660Y-41300D01*
X70660Y-38300D01*
X70657Y-38276D01*
X70655Y-38252D01*
X70655Y-38250D01*
X70655Y-38249D01*
X70648Y-38226D01*
X70641Y-38203D01*
X70640Y-38202D01*
X70640Y-38200D01*
X70629Y-38179D01*
X70618Y-38158D01*
X70617Y-38157D01*
X70616Y-38156D01*
X70601Y-38137D01*
X70586Y-38118D01*
X70584Y-38116D01*
X70584Y-38116D01*
X70584Y-38116D01*
X70583Y-38116D01*
X70467Y-38000D01*
X70583Y-37883D01*
X70599Y-37865D01*
X70614Y-37846D01*
X70615Y-37845D01*
X70616Y-37844D01*
X70627Y-37823D01*
X70638Y-37802D01*
X70639Y-37801D01*
X70640Y-37799D01*
X70647Y-37776D01*
X70654Y-37754D01*
X70654Y-37752D01*
X70654Y-37751D01*
X70657Y-37727D01*
X70659Y-37703D01*
X70659Y-37700D01*
X70659Y-37700D01*
X70659Y-37700D01*
X70660Y-37700D01*
X70660Y-34700D01*
X70657Y-34676D01*
X70655Y-34652D01*
X70655Y-34650D01*
X70655Y-34649D01*
X70648Y-34626D01*
X70641Y-34603D01*
X70640Y-34602D01*
X70640Y-34600D01*
X70629Y-34579D01*
X70618Y-34558D01*
X70617Y-34557D01*
X70616Y-34556D01*
X70601Y-34537D01*
X70586Y-34518D01*
X70584Y-34516D01*
X70584Y-34516D01*
X70584Y-34516D01*
X70583Y-34516D01*
X70283Y-34216D01*
X70265Y-34200D01*
X70246Y-34185D01*
X70245Y-34184D01*
X70244Y-34183D01*
X70223Y-34172D01*
X70202Y-34161D01*
X70201Y-34160D01*
X70199Y-34159D01*
X70176Y-34152D01*
X70154Y-34145D01*
X70152Y-34145D01*
X70151Y-34145D01*
X70127Y-34142D01*
X70112Y-34140D01*
X70112Y-33386D01*
X70099Y-33287D01*
X70068Y-33192D01*
X70034Y-33127D01*
X69957Y-33091D01*
X69908Y-33141D01*
X69908Y-33042D01*
X69872Y-32965D01*
X69782Y-32921D01*
X69686Y-32894D01*
X69586Y-32887D01*
X69487Y-32900D01*
X69392Y-32931D01*
X69327Y-32965D01*
X69291Y-33042D01*
X69600Y-33350D01*
X69908Y-33042D01*
X69908Y-33141D01*
X69649Y-33400D01*
X69957Y-33708D01*
X70034Y-33672D01*
X70078Y-33582D01*
X70105Y-33486D01*
X70112Y-33386D01*
X70112Y-34140D01*
X70103Y-34140D01*
X70100Y-34140D01*
X70100Y-34140D01*
X70100Y-34140D01*
X70100Y-34140D01*
X70039Y-34140D01*
X69997Y-34076D01*
X69926Y-34005D01*
X69843Y-33949D01*
X69751Y-33910D01*
X69704Y-33900D01*
X69712Y-33899D01*
X69807Y-33868D01*
X69872Y-33834D01*
X69908Y-33757D01*
X69600Y-33449D01*
X69550Y-33498D01*
X69550Y-33400D01*
X69242Y-33091D01*
X69165Y-33127D01*
X69121Y-33217D01*
X69094Y-33313D01*
X69087Y-33413D01*
X69100Y-33512D01*
X69131Y-33607D01*
X69165Y-33672D01*
X69242Y-33708D01*
X69550Y-33400D01*
X69550Y-33498D01*
X69291Y-33757D01*
X69327Y-33834D01*
X69417Y-33878D01*
X69496Y-33900D01*
X69455Y-33908D01*
X69362Y-33945D01*
X69278Y-34000D01*
X69207Y-34070D01*
X69150Y-34153D01*
X69111Y-34245D01*
X69090Y-34342D01*
X69089Y-34442D01*
X69107Y-34541D01*
X69144Y-34634D01*
X69198Y-34718D01*
X69267Y-34790D01*
X69349Y-34847D01*
X69441Y-34887D01*
X69453Y-34889D01*
X69234Y-34889D01*
X69203Y-34896D01*
X69174Y-34908D01*
X69148Y-34925D01*
X69126Y-34947D01*
X69108Y-34973D01*
X69096Y-35002D01*
X69090Y-35033D01*
X69089Y-35064D01*
X69089Y-35190D01*
X69080Y-35191D01*
X69061Y-35193D01*
X69060Y-35193D01*
X69059Y-35193D01*
X69040Y-35199D01*
X69022Y-35205D01*
X69021Y-35205D01*
X69019Y-35205D01*
X69002Y-35214D01*
X68985Y-35223D01*
X68984Y-35224D01*
X68983Y-35225D01*
X68968Y-35237D01*
X68953Y-35249D01*
X68952Y-35250D01*
X68952Y-35250D01*
X68952Y-35251D01*
X68951Y-35251D01*
X68551Y-35651D01*
X68539Y-35666D01*
X68526Y-35681D01*
X68526Y-35682D01*
X68525Y-35683D01*
X68516Y-35700D01*
X68506Y-35717D01*
X68506Y-35718D01*
X68506Y-35719D01*
X68500Y-35737D01*
X68494Y-35756D01*
X68494Y-35757D01*
X68494Y-35758D01*
X68492Y-35777D01*
X68490Y-35797D01*
X68490Y-35799D01*
X68490Y-35799D01*
X68490Y-35799D01*
X68490Y-35800D01*
X68490Y-39113D01*
X68113Y-39490D01*
X64100Y-39490D01*
X64080Y-39491D01*
X64061Y-39493D01*
X64060Y-39493D01*
X64059Y-39493D01*
X64040Y-39499D01*
X64022Y-39505D01*
X64021Y-39505D01*
X64019Y-39505D01*
X64002Y-39514D01*
X63985Y-39523D01*
X63984Y-39524D01*
X63983Y-39525D01*
X63968Y-39537D01*
X63953Y-39549D01*
X63952Y-39550D01*
X63952Y-39550D01*
X63952Y-39551D01*
X63951Y-39551D01*
X62713Y-40790D01*
X62662Y-40790D01*
X62660Y-40787D01*
X62614Y-40740D01*
X62560Y-40703D01*
X62499Y-40678D01*
X62435Y-40665D01*
X62369Y-40664D01*
X62304Y-40677D01*
X62244Y-40701D01*
X62189Y-40737D01*
X62142Y-40783D01*
X62105Y-40837D01*
X62079Y-40898D01*
X62065Y-40962D01*
X62064Y-41028D01*
X62076Y-41092D01*
X62100Y-41153D01*
X62136Y-41209D01*
X62181Y-41256D01*
X62235Y-41293D01*
X62295Y-41320D01*
X62360Y-41334D01*
X62425Y-41335D01*
X62476Y-41326D01*
X61913Y-41890D01*
X60862Y-41890D01*
X60860Y-41887D01*
X60814Y-41840D01*
X60760Y-41803D01*
X60699Y-41778D01*
X60635Y-41765D01*
X60569Y-41764D01*
X60504Y-41777D01*
X60444Y-41801D01*
X60389Y-41837D01*
X60342Y-41883D01*
X60305Y-41937D01*
X60279Y-41998D01*
X60265Y-42062D01*
X60264Y-42128D01*
X60276Y-42192D01*
X60300Y-42253D01*
X60336Y-42309D01*
X60381Y-42356D01*
X60435Y-42393D01*
X60405Y-42437D01*
X60379Y-42498D01*
X60365Y-42562D01*
X60364Y-42628D01*
X60376Y-42692D01*
X60400Y-42753D01*
X60436Y-42809D01*
X60481Y-42856D01*
X60535Y-42893D01*
X60595Y-42920D01*
X60660Y-42934D01*
X60725Y-42935D01*
X60790Y-42924D01*
X60851Y-42900D01*
X60907Y-42865D01*
X60954Y-42819D01*
X60992Y-42766D01*
X61019Y-42706D01*
X61033Y-42642D01*
X61035Y-42567D01*
X61034Y-42562D01*
X61086Y-42510D01*
X62100Y-42510D01*
X62119Y-42508D01*
X62138Y-42506D01*
X62139Y-42506D01*
X62140Y-42506D01*
X62159Y-42500D01*
X62177Y-42494D01*
X62178Y-42494D01*
X62180Y-42494D01*
X62197Y-42485D01*
X62214Y-42476D01*
X62215Y-42475D01*
X62216Y-42474D01*
X62231Y-42462D01*
X62246Y-42450D01*
X62247Y-42449D01*
X62247Y-42449D01*
X62247Y-42448D01*
X62248Y-42448D01*
X63348Y-41348D01*
X63348Y-41348D01*
X63348Y-41348D01*
X63836Y-40860D01*
X64187Y-40860D01*
X64231Y-40906D01*
X64285Y-40943D01*
X64345Y-40970D01*
X64410Y-40984D01*
X64475Y-40985D01*
X64540Y-40974D01*
X64601Y-40950D01*
X64657Y-40915D01*
X64704Y-40869D01*
X64742Y-40816D01*
X64769Y-40756D01*
X64783Y-40692D01*
X64785Y-40617D01*
X64772Y-40552D01*
X64747Y-40491D01*
X64710Y-40437D01*
X64664Y-40390D01*
X64610Y-40353D01*
X64549Y-40328D01*
X64503Y-40319D01*
X64551Y-40300D01*
X64607Y-40265D01*
X64654Y-40219D01*
X64692Y-40166D01*
X64719Y-40106D01*
X64733Y-40042D01*
X64735Y-39967D01*
X64723Y-39910D01*
X68200Y-39910D01*
X68219Y-39908D01*
X68238Y-39906D01*
X68239Y-39906D01*
X68240Y-39906D01*
X68259Y-39900D01*
X68277Y-39894D01*
X68278Y-39894D01*
X68280Y-39894D01*
X68297Y-39885D01*
X68314Y-39876D01*
X68315Y-39875D01*
X68316Y-39874D01*
X68331Y-39862D01*
X68346Y-39850D01*
X68347Y-39849D01*
X68347Y-39849D01*
X68347Y-39848D01*
X68348Y-39848D01*
X68848Y-39348D01*
X68860Y-39333D01*
X68873Y-39318D01*
X68873Y-39317D01*
X68874Y-39316D01*
X68883Y-39299D01*
X68893Y-39282D01*
X68893Y-39281D01*
X68893Y-39280D01*
X68899Y-39262D01*
X68905Y-39243D01*
X68905Y-39242D01*
X68905Y-39241D01*
X68907Y-39222D01*
X68909Y-39202D01*
X68909Y-39200D01*
X68909Y-39200D01*
X68909Y-39200D01*
X68910Y-39200D01*
X68910Y-35886D01*
X69089Y-35707D01*
X69089Y-35765D01*
X69096Y-35796D01*
X69108Y-35825D01*
X69125Y-35851D01*
X69147Y-35873D01*
X69173Y-35891D01*
X69202Y-35903D01*
X69233Y-35909D01*
X69264Y-35910D01*
X69965Y-35910D01*
X69996Y-35903D01*
X70025Y-35891D01*
X70051Y-35874D01*
X70073Y-35852D01*
X70091Y-35826D01*
X70103Y-35797D01*
X70109Y-35766D01*
X70110Y-35735D01*
X70110Y-35034D01*
X70103Y-35003D01*
X70091Y-34974D01*
X70074Y-34948D01*
X70052Y-34926D01*
X70026Y-34908D01*
X69997Y-34896D01*
X69966Y-34890D01*
X69935Y-34889D01*
X69747Y-34889D01*
X69831Y-34857D01*
X69915Y-34803D01*
X69987Y-34734D01*
X70020Y-34688D01*
X70140Y-34807D01*
X70140Y-37592D01*
X70112Y-37620D01*
X70112Y-36986D01*
X70099Y-36887D01*
X70068Y-36792D01*
X70034Y-36727D01*
X69957Y-36691D01*
X69908Y-36741D01*
X69908Y-36642D01*
X69872Y-36565D01*
X69782Y-36521D01*
X69686Y-36494D01*
X69586Y-36487D01*
X69487Y-36500D01*
X69392Y-36531D01*
X69327Y-36565D01*
X69291Y-36642D01*
X69600Y-36950D01*
X69908Y-36642D01*
X69908Y-36741D01*
X69649Y-37000D01*
X69957Y-37308D01*
X70034Y-37272D01*
X70078Y-37182D01*
X70105Y-37086D01*
X70112Y-36986D01*
X70112Y-37620D01*
X70020Y-37711D01*
X69997Y-37676D01*
X69926Y-37605D01*
X69843Y-37549D01*
X69751Y-37510D01*
X69704Y-37500D01*
X69712Y-37499D01*
X69807Y-37468D01*
X69872Y-37434D01*
X69908Y-37357D01*
X69600Y-37049D01*
X69550Y-37098D01*
X69550Y-37000D01*
X69242Y-36691D01*
X69165Y-36727D01*
X69121Y-36817D01*
X69094Y-36913D01*
X69087Y-37013D01*
X69100Y-37112D01*
X69131Y-37207D01*
X69165Y-37272D01*
X69242Y-37308D01*
X69550Y-37000D01*
X69550Y-37098D01*
X69291Y-37357D01*
X69327Y-37434D01*
X69417Y-37478D01*
X69496Y-37500D01*
X69455Y-37508D01*
X69362Y-37545D01*
X69278Y-37600D01*
X69207Y-37670D01*
X69150Y-37753D01*
X69111Y-37845D01*
X69090Y-37942D01*
X69089Y-38042D01*
X69107Y-38141D01*
X69144Y-38234D01*
X69198Y-38318D01*
X69267Y-38390D01*
X69349Y-38447D01*
X69441Y-38487D01*
X69453Y-38489D01*
X69234Y-38489D01*
X69203Y-38496D01*
X69174Y-38508D01*
X69148Y-38525D01*
X69126Y-38547D01*
X69108Y-38573D01*
X69096Y-38602D01*
X69090Y-38633D01*
X69089Y-38664D01*
X69089Y-39365D01*
X69096Y-39396D01*
X69108Y-39425D01*
X69125Y-39451D01*
X69147Y-39473D01*
X69173Y-39491D01*
X69202Y-39503D01*
X69233Y-39509D01*
X69264Y-39510D01*
X69965Y-39510D01*
X69996Y-39503D01*
X70025Y-39491D01*
X70051Y-39474D01*
X70073Y-39452D01*
X70091Y-39426D01*
X70103Y-39397D01*
X70109Y-39366D01*
X70110Y-39335D01*
X70110Y-38634D01*
X70103Y-38603D01*
X70091Y-38574D01*
X70074Y-38548D01*
X70052Y-38526D01*
X70026Y-38508D01*
X69997Y-38496D01*
X69966Y-38490D01*
X69935Y-38489D01*
X69747Y-38489D01*
X69831Y-38457D01*
X69915Y-38403D01*
X69987Y-38334D01*
X70020Y-38288D01*
X70140Y-38407D01*
X70140Y-41192D01*
X70112Y-41220D01*
X70112Y-40586D01*
X70099Y-40487D01*
X70068Y-40392D01*
X70034Y-40327D01*
X69957Y-40291D01*
X69908Y-40341D01*
X69908Y-40242D01*
X69872Y-40165D01*
X69782Y-40121D01*
X69686Y-40094D01*
X69586Y-40087D01*
X69487Y-40100D01*
X69392Y-40131D01*
X69327Y-40165D01*
X69291Y-40242D01*
X69600Y-40550D01*
X69908Y-40242D01*
X69908Y-40341D01*
X69649Y-40600D01*
X69957Y-40908D01*
X70034Y-40872D01*
X70078Y-40782D01*
X70105Y-40686D01*
X70112Y-40586D01*
X70112Y-41220D01*
X70020Y-41311D01*
X69997Y-41276D01*
X69926Y-41205D01*
X69843Y-41149D01*
X69751Y-41110D01*
X69704Y-41100D01*
X69712Y-41099D01*
X69807Y-41068D01*
X69872Y-41034D01*
X69908Y-40957D01*
X69600Y-40649D01*
X69550Y-40698D01*
X69550Y-40600D01*
X69242Y-40291D01*
X69165Y-40327D01*
X69121Y-40417D01*
X69094Y-40513D01*
X69087Y-40613D01*
X69100Y-40712D01*
X69131Y-40807D01*
X69165Y-40872D01*
X69242Y-40908D01*
X69550Y-40600D01*
X69550Y-40698D01*
X69291Y-40957D01*
X69327Y-41034D01*
X69417Y-41078D01*
X69496Y-41100D01*
X69455Y-41108D01*
X69362Y-41145D01*
X69278Y-41200D01*
X69207Y-41270D01*
X69150Y-41353D01*
X69135Y-41390D01*
X69100Y-41390D01*
X69080Y-41391D01*
X69061Y-41393D01*
X69060Y-41393D01*
X69059Y-41393D01*
X69040Y-41399D01*
X69022Y-41405D01*
X69021Y-41405D01*
X69019Y-41405D01*
X69002Y-41414D01*
X68985Y-41423D01*
X68984Y-41424D01*
X68983Y-41425D01*
X68968Y-41437D01*
X68953Y-41449D01*
X68952Y-41450D01*
X68952Y-41450D01*
X68952Y-41451D01*
X68951Y-41451D01*
X68537Y-41865D01*
X68535Y-41865D01*
X68469Y-41864D01*
X68404Y-41877D01*
X68344Y-41901D01*
X68289Y-41937D01*
X68242Y-41983D01*
X68205Y-42037D01*
X68179Y-42098D01*
X68165Y-42162D01*
X68164Y-42228D01*
X68176Y-42292D01*
X68200Y-42353D01*
X68236Y-42409D01*
X68281Y-42456D01*
X68335Y-42493D01*
X68395Y-42520D01*
X68460Y-42534D01*
X68525Y-42535D01*
X68590Y-42524D01*
X68651Y-42500D01*
X68707Y-42465D01*
X68754Y-42419D01*
X68792Y-42366D01*
X68819Y-42306D01*
X68833Y-42242D01*
X68835Y-42167D01*
X68834Y-42162D01*
X69151Y-41845D01*
X69198Y-41918D01*
X69267Y-41990D01*
X69349Y-42047D01*
X69441Y-42087D01*
X69453Y-42089D01*
X69234Y-42089D01*
X69203Y-42096D01*
X69174Y-42108D01*
X69148Y-42125D01*
X69126Y-42147D01*
X69108Y-42173D01*
X69096Y-42202D01*
X69090Y-42233D01*
X69089Y-42264D01*
X69089Y-42965D01*
X69096Y-42996D01*
X69108Y-43025D01*
X69125Y-43051D01*
X69147Y-43073D01*
X69173Y-43091D01*
X69202Y-43103D01*
X69233Y-43109D01*
X69264Y-43110D01*
X69965Y-43110D01*
X69996Y-43103D01*
X70025Y-43091D01*
X70051Y-43074D01*
X70073Y-43052D01*
X70091Y-43026D01*
X70103Y-42997D01*
X70109Y-42966D01*
X70110Y-42935D01*
X70110Y-42234D01*
X70103Y-42203D01*
X70091Y-42174D01*
X70074Y-42148D01*
X70052Y-42126D01*
X70026Y-42108D01*
X69997Y-42096D01*
X69966Y-42090D01*
X69935Y-42089D01*
X69747Y-42089D01*
X69831Y-42057D01*
X69915Y-42003D01*
X69987Y-41934D01*
X70020Y-41888D01*
X70140Y-42007D01*
X70140Y-44792D01*
X70112Y-44820D01*
X70112Y-44186D01*
X70099Y-44087D01*
X70068Y-43992D01*
X70034Y-43927D01*
X69957Y-43891D01*
X69908Y-43941D01*
X69908Y-43842D01*
X69872Y-43765D01*
X69782Y-43721D01*
X69686Y-43694D01*
X69586Y-43687D01*
X69487Y-43700D01*
X69392Y-43731D01*
X69327Y-43765D01*
X69291Y-43842D01*
X69600Y-44150D01*
X69908Y-43842D01*
X69908Y-43941D01*
X69649Y-44200D01*
X69957Y-44508D01*
X70034Y-44472D01*
X70078Y-44382D01*
X70105Y-44286D01*
X70112Y-44186D01*
X70112Y-44820D01*
X70020Y-44911D01*
X69997Y-44876D01*
X69926Y-44805D01*
X69843Y-44749D01*
X69751Y-44710D01*
X69704Y-44700D01*
X69712Y-44699D01*
X69807Y-44668D01*
X69872Y-44634D01*
X69908Y-44557D01*
X69600Y-44249D01*
X69550Y-44298D01*
X69550Y-44200D01*
X69242Y-43891D01*
X69165Y-43927D01*
X69121Y-44017D01*
X69094Y-44113D01*
X69087Y-44213D01*
X69100Y-44312D01*
X69131Y-44407D01*
X69165Y-44472D01*
X69242Y-44508D01*
X69550Y-44200D01*
X69550Y-44298D01*
X69291Y-44557D01*
X69327Y-44634D01*
X69417Y-44678D01*
X69496Y-44700D01*
X69455Y-44708D01*
X69362Y-44745D01*
X69278Y-44800D01*
X69207Y-44870D01*
X69150Y-44953D01*
X69111Y-45045D01*
X69090Y-45142D01*
X69089Y-45242D01*
X69107Y-45341D01*
X69144Y-45434D01*
X69198Y-45518D01*
X69267Y-45590D01*
X69349Y-45647D01*
X69441Y-45687D01*
X69453Y-45689D01*
X69234Y-45689D01*
X69203Y-45696D01*
X69174Y-45708D01*
X69148Y-45725D01*
X69126Y-45747D01*
X69108Y-45773D01*
X69096Y-45802D01*
X69090Y-45833D01*
X69089Y-45864D01*
X69089Y-46565D01*
X69096Y-46596D01*
X69108Y-46625D01*
X69125Y-46651D01*
X69147Y-46673D01*
X69173Y-46691D01*
X69202Y-46703D01*
X69233Y-46709D01*
X69264Y-46710D01*
X69965Y-46710D01*
X69996Y-46703D01*
X70025Y-46691D01*
X70051Y-46674D01*
X70073Y-46652D01*
X70091Y-46626D01*
X70103Y-46597D01*
X70109Y-46566D01*
X70110Y-46535D01*
X70110Y-45834D01*
X70103Y-45803D01*
X70091Y-45774D01*
X70074Y-45748D01*
X70052Y-45726D01*
X70026Y-45708D01*
X69997Y-45696D01*
X69966Y-45690D01*
X69935Y-45689D01*
X69747Y-45689D01*
X69831Y-45657D01*
X69915Y-45603D01*
X69987Y-45534D01*
X70040Y-45460D01*
X70100Y-45460D01*
X70123Y-45457D01*
X70147Y-45455D01*
X70149Y-45455D01*
X70150Y-45455D01*
X70173Y-45448D01*
X70196Y-45441D01*
X70197Y-45440D01*
X70199Y-45440D01*
X70220Y-45429D01*
X70241Y-45418D01*
X70242Y-45417D01*
X70243Y-45416D01*
X70262Y-45401D01*
X70281Y-45386D01*
X70283Y-45384D01*
X70283Y-45384D01*
X70283Y-45384D01*
X70283Y-45383D01*
X70583Y-45083D01*
X70599Y-45065D01*
X70614Y-45046D01*
X70615Y-45045D01*
X70616Y-45044D01*
X70627Y-45023D01*
X70638Y-45002D01*
X70639Y-45001D01*
X70640Y-44999D01*
X70647Y-44976D01*
X70654Y-44954D01*
X70654Y-44952D01*
X70654Y-44951D01*
X70657Y-44927D01*
X70659Y-44903D01*
X70659Y-44900D01*
X70659Y-44900D01*
X70659Y-44900D01*
X70660Y-44900D01*
X70660Y-46760D01*
X68407Y-46760D01*
X68783Y-46383D01*
X68799Y-46365D01*
X68814Y-46346D01*
X68815Y-46345D01*
X68816Y-46344D01*
X68827Y-46323D01*
X68838Y-46302D01*
X68839Y-46301D01*
X68840Y-46299D01*
X68847Y-46276D01*
X68854Y-46254D01*
X68854Y-46252D01*
X68854Y-46251D01*
X68857Y-46227D01*
X68859Y-46203D01*
X68859Y-46200D01*
X68859Y-46200D01*
X68859Y-46200D01*
X68860Y-46200D01*
X68860Y-44512D01*
X68892Y-44466D01*
X68919Y-44406D01*
X68933Y-44342D01*
X68935Y-44267D01*
X68922Y-44202D01*
X68897Y-44141D01*
X68860Y-44087D01*
X68814Y-44040D01*
X68760Y-44003D01*
X68699Y-43978D01*
X68635Y-43965D01*
X68569Y-43964D01*
X68504Y-43977D01*
X68444Y-44001D01*
X68389Y-44037D01*
X68342Y-44083D01*
X68305Y-44137D01*
X68279Y-44198D01*
X68265Y-44262D01*
X68264Y-44328D01*
X68276Y-44392D01*
X68300Y-44453D01*
X68336Y-44509D01*
X68340Y-44513D01*
X68340Y-46092D01*
X68092Y-46340D01*
X67235Y-46340D01*
X67235Y-44467D01*
X67222Y-44402D01*
X67197Y-44341D01*
X67160Y-44287D01*
X67160Y-44286D01*
X67160Y-44000D01*
X67157Y-43976D01*
X67155Y-43952D01*
X67155Y-43950D01*
X67155Y-43949D01*
X67148Y-43926D01*
X67141Y-43903D01*
X67140Y-43902D01*
X67140Y-43900D01*
X67129Y-43879D01*
X67118Y-43858D01*
X67117Y-43857D01*
X67116Y-43856D01*
X67101Y-43837D01*
X67086Y-43818D01*
X67084Y-43816D01*
X67084Y-43816D01*
X67084Y-43816D01*
X67083Y-43816D01*
X65283Y-42016D01*
X65265Y-42000D01*
X65246Y-41985D01*
X65245Y-41984D01*
X65244Y-41983D01*
X65223Y-41972D01*
X65202Y-41961D01*
X65201Y-41960D01*
X65199Y-41959D01*
X65176Y-41952D01*
X65154Y-41945D01*
X65152Y-41945D01*
X65151Y-41945D01*
X65127Y-41942D01*
X65103Y-41940D01*
X65100Y-41940D01*
X65100Y-41940D01*
X65100Y-41940D01*
X65100Y-41940D01*
X64713Y-41940D01*
X64660Y-41903D01*
X64599Y-41878D01*
X64535Y-41865D01*
X64469Y-41864D01*
X64404Y-41877D01*
X64344Y-41901D01*
X64289Y-41937D01*
X64242Y-41983D01*
X64205Y-42037D01*
X64179Y-42098D01*
X64165Y-42162D01*
X64164Y-42228D01*
X64176Y-42292D01*
X64200Y-42353D01*
X64236Y-42409D01*
X64240Y-42413D01*
X64240Y-43292D01*
X63992Y-43540D01*
X57913Y-43540D01*
X57860Y-43503D01*
X57799Y-43478D01*
X57735Y-43465D01*
X57669Y-43464D01*
X57604Y-43477D01*
X57544Y-43501D01*
X57489Y-43537D01*
X57486Y-43540D01*
X56750Y-43540D01*
X56726Y-43542D01*
X56702Y-43544D01*
X56700Y-43544D01*
X56699Y-43544D01*
X56676Y-43551D01*
X56653Y-43558D01*
X56652Y-43559D01*
X56650Y-43559D01*
X56629Y-43570D01*
X56608Y-43581D01*
X56607Y-43582D01*
X56606Y-43583D01*
X56587Y-43598D01*
X56568Y-43613D01*
X56566Y-43615D01*
X56566Y-43615D01*
X56566Y-43615D01*
X56566Y-43616D01*
X55567Y-44615D01*
X55504Y-44627D01*
X55444Y-44651D01*
X55389Y-44687D01*
X55342Y-44733D01*
X55305Y-44787D01*
X55279Y-44848D01*
X55265Y-44912D01*
X55264Y-44978D01*
X55276Y-45042D01*
X55300Y-45103D01*
X55336Y-45159D01*
X55340Y-45163D01*
X55340Y-45600D01*
X55342Y-45623D01*
X55344Y-45647D01*
X55344Y-45649D01*
X55344Y-45650D01*
X55351Y-45673D01*
X55358Y-45696D01*
X55359Y-45697D01*
X55359Y-45699D01*
X55370Y-45720D01*
X55381Y-45741D01*
X55382Y-45742D01*
X55383Y-45743D01*
X55398Y-45762D01*
X55413Y-45781D01*
X55415Y-45783D01*
X55415Y-45783D01*
X55415Y-45783D01*
X55416Y-45783D01*
X56216Y-46583D01*
X56234Y-46599D01*
X56253Y-46614D01*
X56254Y-46615D01*
X56255Y-46616D01*
X56276Y-46627D01*
X56297Y-46638D01*
X56298Y-46639D01*
X56300Y-46640D01*
X56323Y-46647D01*
X56345Y-46654D01*
X56347Y-46654D01*
X56348Y-46654D01*
X56372Y-46657D01*
X56396Y-46659D01*
X56399Y-46659D01*
X56399Y-46659D01*
X56399Y-46659D01*
X56400Y-46660D01*
X59400Y-46660D01*
X59423Y-46657D01*
X59447Y-46655D01*
X59449Y-46655D01*
X59450Y-46655D01*
X59473Y-46648D01*
X59496Y-46641D01*
X59497Y-46640D01*
X59499Y-46640D01*
X59520Y-46629D01*
X59541Y-46618D01*
X59542Y-46617D01*
X59543Y-46616D01*
X59562Y-46601D01*
X59581Y-46586D01*
X59583Y-46584D01*
X59583Y-46584D01*
X59583Y-46584D01*
X59583Y-46583D01*
X59733Y-46434D01*
X59790Y-46424D01*
X59851Y-46400D01*
X59907Y-46365D01*
X59954Y-46319D01*
X59992Y-46266D01*
X60019Y-46206D01*
X60033Y-46142D01*
X60035Y-46067D01*
X60022Y-46002D01*
X59997Y-45941D01*
X59960Y-45887D01*
X59914Y-45840D01*
X59860Y-45803D01*
X59799Y-45778D01*
X59735Y-45765D01*
X59669Y-45764D01*
X59604Y-45777D01*
X59544Y-45801D01*
X59489Y-45837D01*
X59442Y-45883D01*
X59405Y-45937D01*
X59379Y-45998D01*
X59365Y-46062D01*
X59365Y-46066D01*
X59292Y-46140D01*
X57835Y-46140D01*
X57835Y-45067D01*
X57822Y-45002D01*
X57797Y-44941D01*
X57760Y-44887D01*
X57714Y-44840D01*
X57660Y-44803D01*
X57599Y-44778D01*
X57535Y-44765D01*
X57469Y-44764D01*
X57404Y-44777D01*
X57344Y-44801D01*
X57289Y-44837D01*
X57242Y-44883D01*
X57205Y-44937D01*
X57179Y-44998D01*
X57165Y-45062D01*
X57164Y-45128D01*
X57166Y-45136D01*
X57013Y-45290D01*
X56762Y-45290D01*
X56760Y-45287D01*
X56714Y-45240D01*
X56660Y-45203D01*
X56599Y-45178D01*
X56535Y-45165D01*
X56469Y-45164D01*
X56404Y-45177D01*
X56344Y-45201D01*
X56289Y-45237D01*
X56242Y-45283D01*
X56205Y-45337D01*
X56179Y-45398D01*
X56165Y-45462D01*
X56164Y-45528D01*
X56176Y-45592D01*
X56200Y-45653D01*
X56236Y-45709D01*
X56281Y-45756D01*
X56335Y-45793D01*
X56395Y-45820D01*
X56460Y-45834D01*
X56525Y-45835D01*
X56590Y-45824D01*
X56651Y-45800D01*
X56707Y-45765D01*
X56754Y-45719D01*
X56761Y-45710D01*
X57100Y-45710D01*
X57119Y-45708D01*
X57138Y-45706D01*
X57139Y-45706D01*
X57140Y-45706D01*
X57159Y-45700D01*
X57177Y-45694D01*
X57178Y-45694D01*
X57180Y-45694D01*
X57197Y-45685D01*
X57214Y-45676D01*
X57215Y-45675D01*
X57216Y-45674D01*
X57231Y-45662D01*
X57246Y-45650D01*
X57247Y-45649D01*
X57247Y-45649D01*
X57247Y-45648D01*
X57248Y-45648D01*
X57462Y-45434D01*
X57525Y-45435D01*
X57590Y-45424D01*
X57651Y-45400D01*
X57707Y-45365D01*
X57754Y-45319D01*
X57792Y-45266D01*
X57819Y-45206D01*
X57833Y-45142D01*
X57835Y-45067D01*
X57835Y-46140D01*
X56507Y-46140D01*
X55860Y-45492D01*
X55860Y-45162D01*
X55892Y-45116D01*
X55919Y-45056D01*
X55933Y-44992D01*
X55934Y-44983D01*
X56857Y-44060D01*
X57487Y-44060D01*
X57535Y-44093D01*
X57595Y-44120D01*
X57660Y-44134D01*
X57725Y-44135D01*
X57790Y-44124D01*
X57851Y-44100D01*
X57907Y-44065D01*
X57912Y-44060D01*
X64100Y-44060D01*
X64123Y-44057D01*
X64147Y-44055D01*
X64149Y-44055D01*
X64150Y-44055D01*
X64173Y-44048D01*
X64196Y-44041D01*
X64197Y-44040D01*
X64199Y-44040D01*
X64220Y-44029D01*
X64241Y-44018D01*
X64242Y-44017D01*
X64243Y-44016D01*
X64262Y-44001D01*
X64281Y-43986D01*
X64283Y-43984D01*
X64283Y-43984D01*
X64283Y-43984D01*
X64283Y-43983D01*
X64683Y-43583D01*
X64699Y-43565D01*
X64714Y-43546D01*
X64715Y-43545D01*
X64716Y-43544D01*
X64727Y-43523D01*
X64738Y-43502D01*
X64739Y-43501D01*
X64740Y-43499D01*
X64747Y-43476D01*
X64754Y-43454D01*
X64754Y-43452D01*
X64754Y-43451D01*
X64757Y-43427D01*
X64759Y-43403D01*
X64759Y-43400D01*
X64759Y-43400D01*
X64759Y-43400D01*
X64760Y-43400D01*
X64760Y-42460D01*
X64992Y-42460D01*
X66640Y-44107D01*
X66640Y-44286D01*
X66605Y-44337D01*
X66579Y-44398D01*
X66565Y-44462D01*
X66564Y-44528D01*
X66576Y-44592D01*
X66600Y-44653D01*
X66636Y-44709D01*
X66681Y-44756D01*
X66735Y-44793D01*
X66795Y-44820D01*
X66860Y-44834D01*
X66925Y-44835D01*
X66990Y-44824D01*
X67051Y-44800D01*
X67107Y-44765D01*
X67154Y-44719D01*
X67192Y-44666D01*
X67219Y-44606D01*
X67233Y-44542D01*
X67235Y-44467D01*
X67235Y-46340D01*
X61407Y-46340D01*
X60760Y-45692D01*
X60760Y-44712D01*
X60792Y-44666D01*
X60819Y-44606D01*
X60833Y-44542D01*
X60835Y-44467D01*
X60822Y-44402D01*
X60797Y-44341D01*
X60760Y-44287D01*
X60714Y-44240D01*
X60660Y-44203D01*
X60599Y-44178D01*
X60535Y-44165D01*
X60469Y-44164D01*
X60404Y-44177D01*
X60344Y-44201D01*
X60289Y-44237D01*
X60242Y-44283D01*
X60205Y-44337D01*
X60179Y-44398D01*
X60165Y-44462D01*
X60164Y-44528D01*
X60176Y-44592D01*
X60200Y-44653D01*
X60236Y-44709D01*
X60240Y-44713D01*
X60240Y-45800D01*
X60242Y-45823D01*
X60244Y-45847D01*
X60244Y-45849D01*
X60244Y-45850D01*
X60251Y-45873D01*
X60258Y-45896D01*
X60259Y-45897D01*
X60259Y-45899D01*
X60270Y-45920D01*
X60281Y-45941D01*
X60282Y-45942D01*
X60283Y-45943D01*
X60298Y-45962D01*
X60313Y-45981D01*
X60315Y-45983D01*
X60315Y-45983D01*
X60315Y-45983D01*
X60316Y-45983D01*
X61092Y-46760D01*
X54740Y-46760D01*
X54740Y-41990D01*
X59340Y-41990D01*
X59340Y-40590D01*
X60540Y-40590D01*
X60540Y-39390D01*
X68140Y-39390D01*
X68140Y-32790D01*
X70820Y-32790D01*
X70820Y-46760D01*
G54D10*
G36*
X54460Y-34390D02*
X48700Y-34390D01*
X48680Y-34391D01*
X48661Y-34393D01*
X48660Y-34393D01*
X48659Y-34393D01*
X48640Y-34399D01*
X48622Y-34405D01*
X48621Y-34405D01*
X48619Y-34405D01*
X48602Y-34414D01*
X48585Y-34423D01*
X48584Y-34424D01*
X48583Y-34425D01*
X48568Y-34437D01*
X48553Y-34449D01*
X48552Y-34450D01*
X48552Y-34450D01*
X48552Y-34451D01*
X48551Y-34451D01*
X48248Y-34754D01*
X48248Y-33989D01*
X48235Y-33843D01*
X48227Y-33815D01*
X48227Y-31773D01*
X48227Y-31470D01*
X48197Y-31363D01*
X48133Y-31231D01*
X48045Y-31114D01*
X47936Y-31016D01*
X47810Y-30941D01*
X47672Y-30892D01*
X47527Y-30871D01*
X47035Y-30871D01*
X47035Y-31587D01*
X48201Y-31587D01*
X48227Y-31470D01*
X48227Y-31773D01*
X48201Y-31657D01*
X47035Y-31657D01*
X47035Y-32372D01*
X47527Y-32372D01*
X47672Y-32351D01*
X47810Y-32302D01*
X47936Y-32227D01*
X48045Y-32129D01*
X48133Y-32012D01*
X48197Y-31880D01*
X48227Y-31773D01*
X48227Y-33815D01*
X48194Y-33703D01*
X48126Y-33573D01*
X48034Y-33459D01*
X47922Y-33364D01*
X47793Y-33294D01*
X47654Y-33250D01*
X47508Y-33233D01*
X47498Y-33233D01*
X46965Y-33233D01*
X46965Y-32372D01*
X46965Y-31657D01*
X46965Y-31587D01*
X46965Y-30871D01*
X46472Y-30871D01*
X46327Y-30892D01*
X46189Y-30941D01*
X46063Y-31016D01*
X45954Y-31114D01*
X45866Y-31231D01*
X45802Y-31363D01*
X45772Y-31470D01*
X45798Y-31587D01*
X46965Y-31587D01*
X46965Y-31657D01*
X45798Y-31657D01*
X45772Y-31773D01*
X45802Y-31880D01*
X45866Y-32012D01*
X45954Y-32129D01*
X46063Y-32227D01*
X46189Y-32302D01*
X46327Y-32351D01*
X46472Y-32372D01*
X46965Y-32372D01*
X46965Y-33233D01*
X46501Y-33233D01*
X46356Y-33247D01*
X46215Y-33290D01*
X46086Y-33359D01*
X45972Y-33451D01*
X45879Y-33564D01*
X45847Y-33623D01*
X45860Y-33508D01*
X45860Y-33498D01*
X45860Y-32501D01*
X45846Y-32356D01*
X45804Y-32215D01*
X45735Y-32086D01*
X45642Y-31972D01*
X45529Y-31879D01*
X45401Y-31809D01*
X45261Y-31766D01*
X45115Y-31751D01*
X44969Y-31764D01*
X44829Y-31805D01*
X44699Y-31873D01*
X44585Y-31965D01*
X44490Y-32077D01*
X44420Y-32206D01*
X44376Y-32345D01*
X44359Y-32491D01*
X44359Y-32501D01*
X44359Y-33498D01*
X44373Y-33643D01*
X44416Y-33784D01*
X44485Y-33913D01*
X44577Y-34027D01*
X44690Y-34120D01*
X44819Y-34190D01*
X44959Y-34233D01*
X45104Y-34248D01*
X45250Y-34235D01*
X45391Y-34194D01*
X45521Y-34126D01*
X45635Y-34034D01*
X45729Y-33922D01*
X45763Y-33859D01*
X45751Y-33979D01*
X45764Y-34124D01*
X45805Y-34265D01*
X45873Y-34395D01*
X45965Y-34509D01*
X46077Y-34603D01*
X46206Y-34674D01*
X46345Y-34718D01*
X46491Y-34734D01*
X46501Y-34734D01*
X47498Y-34734D01*
X47643Y-34720D01*
X47784Y-34678D01*
X47913Y-34609D01*
X48027Y-34516D01*
X48120Y-34403D01*
X48190Y-34275D01*
X48233Y-34135D01*
X48248Y-33989D01*
X48248Y-34754D01*
X44337Y-38665D01*
X44335Y-38665D01*
X44269Y-38664D01*
X44204Y-38677D01*
X44160Y-38695D01*
X44160Y-31136D01*
X44115Y-30913D01*
X44029Y-30702D01*
X43903Y-30513D01*
X43742Y-30351D01*
X43554Y-30224D01*
X43344Y-30136D01*
X43121Y-30090D01*
X42894Y-30089D01*
X42670Y-30131D01*
X42459Y-30217D01*
X42269Y-30341D01*
X42107Y-30500D01*
X41978Y-30688D01*
X41888Y-30897D01*
X41841Y-31120D01*
X41838Y-31347D01*
X41879Y-31571D01*
X41963Y-31782D01*
X42086Y-31974D01*
X42244Y-32137D01*
X42431Y-32267D01*
X42639Y-32358D01*
X42861Y-32407D01*
X43089Y-32412D01*
X43313Y-32372D01*
X43525Y-32290D01*
X43717Y-32168D01*
X43882Y-32011D01*
X44013Y-31825D01*
X44106Y-31617D01*
X44156Y-31396D01*
X44160Y-31136D01*
X44160Y-38695D01*
X44144Y-38701D01*
X44089Y-38737D01*
X44042Y-38783D01*
X44005Y-38837D01*
X43979Y-38898D01*
X43965Y-38962D01*
X43964Y-39028D01*
X43976Y-39092D01*
X44000Y-39153D01*
X44023Y-39190D01*
X43686Y-39190D01*
X43534Y-39037D01*
X43535Y-38967D01*
X43522Y-38902D01*
X43497Y-38841D01*
X43460Y-38787D01*
X43414Y-38740D01*
X43360Y-38703D01*
X43299Y-38678D01*
X43235Y-38665D01*
X43169Y-38664D01*
X43104Y-38677D01*
X43044Y-38701D01*
X42989Y-38737D01*
X42942Y-38783D01*
X42905Y-38837D01*
X42879Y-38898D01*
X42865Y-38962D01*
X42864Y-39028D01*
X42876Y-39092D01*
X42900Y-39153D01*
X42936Y-39209D01*
X42981Y-39256D01*
X43035Y-39293D01*
X43095Y-39320D01*
X43160Y-39334D01*
X43225Y-39335D01*
X43236Y-39333D01*
X43451Y-39548D01*
X43466Y-39560D01*
X43481Y-39573D01*
X43482Y-39573D01*
X43483Y-39574D01*
X43500Y-39583D01*
X43517Y-39593D01*
X43518Y-39593D01*
X43519Y-39593D01*
X43537Y-39599D01*
X43556Y-39605D01*
X43557Y-39605D01*
X43558Y-39605D01*
X43577Y-39607D01*
X43597Y-39609D01*
X43599Y-39609D01*
X43599Y-39609D01*
X43599Y-39609D01*
X43600Y-39610D01*
X44500Y-39610D01*
X44519Y-39608D01*
X44538Y-39606D01*
X44539Y-39606D01*
X44540Y-39606D01*
X44559Y-39600D01*
X44577Y-39594D01*
X44578Y-39594D01*
X44580Y-39594D01*
X44597Y-39585D01*
X44614Y-39576D01*
X44615Y-39575D01*
X44616Y-39574D01*
X44631Y-39562D01*
X44646Y-39550D01*
X44647Y-39549D01*
X44647Y-39549D01*
X44647Y-39548D01*
X44648Y-39548D01*
X44890Y-39306D01*
X44890Y-41613D01*
X44037Y-42465D01*
X44035Y-42465D01*
X43969Y-42464D01*
X43904Y-42477D01*
X43844Y-42501D01*
X43789Y-42537D01*
X43742Y-42583D01*
X43705Y-42637D01*
X43679Y-42698D01*
X43665Y-42762D01*
X43664Y-42828D01*
X43676Y-42892D01*
X43700Y-42953D01*
X43736Y-43009D01*
X43781Y-43056D01*
X43835Y-43093D01*
X43895Y-43120D01*
X43960Y-43134D01*
X44025Y-43135D01*
X44090Y-43124D01*
X44151Y-43100D01*
X44207Y-43065D01*
X44254Y-43019D01*
X44292Y-42966D01*
X44319Y-42906D01*
X44333Y-42842D01*
X44335Y-42767D01*
X44334Y-42762D01*
X45248Y-41848D01*
X45260Y-41833D01*
X45273Y-41818D01*
X45273Y-41817D01*
X45274Y-41816D01*
X45283Y-41799D01*
X45293Y-41782D01*
X45293Y-41781D01*
X45293Y-41780D01*
X45299Y-41762D01*
X45305Y-41743D01*
X45305Y-41742D01*
X45305Y-41741D01*
X45307Y-41722D01*
X45309Y-41702D01*
X45309Y-41700D01*
X45309Y-41700D01*
X45309Y-41700D01*
X45310Y-41700D01*
X45310Y-38886D01*
X46860Y-37336D01*
X46860Y-43460D01*
X41179Y-43460D01*
X41179Y-30258D01*
X41196Y-30090D01*
X41242Y-29937D01*
X41317Y-29796D01*
X41418Y-29672D01*
X41541Y-29570D01*
X41682Y-29494D01*
X41835Y-29447D01*
X42002Y-29429D01*
X54460Y-29429D01*
X54460Y-34390D01*
X54460Y-34390D01*
G37*
G54D29*
X54460Y-34390D02*
X48700Y-34390D01*
X48680Y-34391D01*
X48661Y-34393D01*
X48660Y-34393D01*
X48659Y-34393D01*
X48640Y-34399D01*
X48622Y-34405D01*
X48621Y-34405D01*
X48619Y-34405D01*
X48602Y-34414D01*
X48585Y-34423D01*
X48584Y-34424D01*
X48583Y-34425D01*
X48568Y-34437D01*
X48553Y-34449D01*
X48552Y-34450D01*
X48552Y-34450D01*
X48552Y-34451D01*
X48551Y-34451D01*
X48248Y-34754D01*
X48248Y-33989D01*
X48235Y-33843D01*
X48227Y-33815D01*
X48227Y-31773D01*
X48227Y-31470D01*
X48197Y-31363D01*
X48133Y-31231D01*
X48045Y-31114D01*
X47936Y-31016D01*
X47810Y-30941D01*
X47672Y-30892D01*
X47527Y-30871D01*
X47035Y-30871D01*
X47035Y-31587D01*
X48201Y-31587D01*
X48227Y-31470D01*
X48227Y-31773D01*
X48201Y-31657D01*
X47035Y-31657D01*
X47035Y-32372D01*
X47527Y-32372D01*
X47672Y-32351D01*
X47810Y-32302D01*
X47936Y-32227D01*
X48045Y-32129D01*
X48133Y-32012D01*
X48197Y-31880D01*
X48227Y-31773D01*
X48227Y-33815D01*
X48194Y-33703D01*
X48126Y-33573D01*
X48034Y-33459D01*
X47922Y-33364D01*
X47793Y-33294D01*
X47654Y-33250D01*
X47508Y-33233D01*
X47498Y-33233D01*
X46965Y-33233D01*
X46965Y-32372D01*
X46965Y-31657D01*
X46965Y-31587D01*
X46965Y-30871D01*
X46472Y-30871D01*
X46327Y-30892D01*
X46189Y-30941D01*
X46063Y-31016D01*
X45954Y-31114D01*
X45866Y-31231D01*
X45802Y-31363D01*
X45772Y-31470D01*
X45798Y-31587D01*
X46965Y-31587D01*
X46965Y-31657D01*
X45798Y-31657D01*
X45772Y-31773D01*
X45802Y-31880D01*
X45866Y-32012D01*
X45954Y-32129D01*
X46063Y-32227D01*
X46189Y-32302D01*
X46327Y-32351D01*
X46472Y-32372D01*
X46965Y-32372D01*
X46965Y-33233D01*
X46501Y-33233D01*
X46356Y-33247D01*
X46215Y-33290D01*
X46086Y-33359D01*
X45972Y-33451D01*
X45879Y-33564D01*
X45847Y-33623D01*
X45860Y-33508D01*
X45860Y-33498D01*
X45860Y-32501D01*
X45846Y-32356D01*
X45804Y-32215D01*
X45735Y-32086D01*
X45642Y-31972D01*
X45529Y-31879D01*
X45401Y-31809D01*
X45261Y-31766D01*
X45115Y-31751D01*
X44969Y-31764D01*
X44829Y-31805D01*
X44699Y-31873D01*
X44585Y-31965D01*
X44490Y-32077D01*
X44420Y-32206D01*
X44376Y-32345D01*
X44359Y-32491D01*
X44359Y-32501D01*
X44359Y-33498D01*
X44373Y-33643D01*
X44416Y-33784D01*
X44485Y-33913D01*
X44577Y-34027D01*
X44690Y-34120D01*
X44819Y-34190D01*
X44959Y-34233D01*
X45104Y-34248D01*
X45250Y-34235D01*
X45391Y-34194D01*
X45521Y-34126D01*
X45635Y-34034D01*
X45729Y-33922D01*
X45763Y-33859D01*
X45751Y-33979D01*
X45764Y-34124D01*
X45805Y-34265D01*
X45873Y-34395D01*
X45965Y-34509D01*
X46077Y-34603D01*
X46206Y-34674D01*
X46345Y-34718D01*
X46491Y-34734D01*
X46501Y-34734D01*
X47498Y-34734D01*
X47643Y-34720D01*
X47784Y-34678D01*
X47913Y-34609D01*
X48027Y-34516D01*
X48120Y-34403D01*
X48190Y-34275D01*
X48233Y-34135D01*
X48248Y-33989D01*
X48248Y-34754D01*
X44337Y-38665D01*
X44335Y-38665D01*
X44269Y-38664D01*
X44204Y-38677D01*
X44160Y-38695D01*
X44160Y-31136D01*
X44115Y-30913D01*
X44029Y-30702D01*
X43903Y-30513D01*
X43742Y-30351D01*
X43554Y-30224D01*
X43344Y-30136D01*
X43121Y-30090D01*
X42894Y-30089D01*
X42670Y-30131D01*
X42459Y-30217D01*
X42269Y-30341D01*
X42107Y-30500D01*
X41978Y-30688D01*
X41888Y-30897D01*
X41841Y-31120D01*
X41838Y-31347D01*
X41879Y-31571D01*
X41963Y-31782D01*
X42086Y-31974D01*
X42244Y-32137D01*
X42431Y-32267D01*
X42639Y-32358D01*
X42861Y-32407D01*
X43089Y-32412D01*
X43313Y-32372D01*
X43525Y-32290D01*
X43717Y-32168D01*
X43882Y-32011D01*
X44013Y-31825D01*
X44106Y-31617D01*
X44156Y-31396D01*
X44160Y-31136D01*
X44160Y-38695D01*
X44144Y-38701D01*
X44089Y-38737D01*
X44042Y-38783D01*
X44005Y-38837D01*
X43979Y-38898D01*
X43965Y-38962D01*
X43964Y-39028D01*
X43976Y-39092D01*
X44000Y-39153D01*
X44023Y-39190D01*
X43686Y-39190D01*
X43534Y-39037D01*
X43535Y-38967D01*
X43522Y-38902D01*
X43497Y-38841D01*
X43460Y-38787D01*
X43414Y-38740D01*
X43360Y-38703D01*
X43299Y-38678D01*
X43235Y-38665D01*
X43169Y-38664D01*
X43104Y-38677D01*
X43044Y-38701D01*
X42989Y-38737D01*
X42942Y-38783D01*
X42905Y-38837D01*
X42879Y-38898D01*
X42865Y-38962D01*
X42864Y-39028D01*
X42876Y-39092D01*
X42900Y-39153D01*
X42936Y-39209D01*
X42981Y-39256D01*
X43035Y-39293D01*
X43095Y-39320D01*
X43160Y-39334D01*
X43225Y-39335D01*
X43236Y-39333D01*
X43451Y-39548D01*
X43466Y-39560D01*
X43481Y-39573D01*
X43482Y-39573D01*
X43483Y-39574D01*
X43500Y-39583D01*
X43517Y-39593D01*
X43518Y-39593D01*
X43519Y-39593D01*
X43537Y-39599D01*
X43556Y-39605D01*
X43557Y-39605D01*
X43558Y-39605D01*
X43577Y-39607D01*
X43597Y-39609D01*
X43599Y-39609D01*
X43599Y-39609D01*
X43599Y-39609D01*
X43600Y-39610D01*
X44500Y-39610D01*
X44519Y-39608D01*
X44538Y-39606D01*
X44539Y-39606D01*
X44540Y-39606D01*
X44559Y-39600D01*
X44577Y-39594D01*
X44578Y-39594D01*
X44580Y-39594D01*
X44597Y-39585D01*
X44614Y-39576D01*
X44615Y-39575D01*
X44616Y-39574D01*
X44631Y-39562D01*
X44646Y-39550D01*
X44647Y-39549D01*
X44647Y-39549D01*
X44647Y-39548D01*
X44648Y-39548D01*
X44890Y-39306D01*
X44890Y-41613D01*
X44037Y-42465D01*
X44035Y-42465D01*
X43969Y-42464D01*
X43904Y-42477D01*
X43844Y-42501D01*
X43789Y-42537D01*
X43742Y-42583D01*
X43705Y-42637D01*
X43679Y-42698D01*
X43665Y-42762D01*
X43664Y-42828D01*
X43676Y-42892D01*
X43700Y-42953D01*
X43736Y-43009D01*
X43781Y-43056D01*
X43835Y-43093D01*
X43895Y-43120D01*
X43960Y-43134D01*
X44025Y-43135D01*
X44090Y-43124D01*
X44151Y-43100D01*
X44207Y-43065D01*
X44254Y-43019D01*
X44292Y-42966D01*
X44319Y-42906D01*
X44333Y-42842D01*
X44335Y-42767D01*
X44334Y-42762D01*
X45248Y-41848D01*
X45260Y-41833D01*
X45273Y-41818D01*
X45273Y-41817D01*
X45274Y-41816D01*
X45283Y-41799D01*
X45293Y-41782D01*
X45293Y-41781D01*
X45293Y-41780D01*
X45299Y-41762D01*
X45305Y-41743D01*
X45305Y-41742D01*
X45305Y-41741D01*
X45307Y-41722D01*
X45309Y-41702D01*
X45309Y-41700D01*
X45309Y-41700D01*
X45309Y-41700D01*
X45310Y-41700D01*
X45310Y-38886D01*
X46860Y-37336D01*
X46860Y-43460D01*
X41179Y-43460D01*
X41179Y-30258D01*
X41196Y-30090D01*
X41242Y-29937D01*
X41317Y-29796D01*
X41418Y-29672D01*
X41541Y-29570D01*
X41682Y-29494D01*
X41835Y-29447D01*
X42002Y-29429D01*
X54460Y-29429D01*
X54460Y-34390D01*
G54D10*
G36*
X70820Y-58741D02*
X70803Y-58909D01*
X70757Y-59062D01*
X70682Y-59203D01*
X70581Y-59327D01*
X70458Y-59429D01*
X70317Y-59505D01*
X70164Y-59552D01*
X70160Y-59553D01*
X70160Y-55136D01*
X70115Y-54913D01*
X70112Y-54904D01*
X70112Y-50886D01*
X70099Y-50787D01*
X70068Y-50692D01*
X70034Y-50627D01*
X69957Y-50591D01*
X69908Y-50641D01*
X69908Y-50542D01*
X69872Y-50465D01*
X69782Y-50421D01*
X69686Y-50394D01*
X69586Y-50387D01*
X69487Y-50400D01*
X69392Y-50431D01*
X69327Y-50465D01*
X69291Y-50542D01*
X69600Y-50850D01*
X69908Y-50542D01*
X69908Y-50641D01*
X69649Y-50900D01*
X69957Y-51208D01*
X70034Y-51172D01*
X70078Y-51082D01*
X70105Y-50986D01*
X70112Y-50886D01*
X70112Y-54904D01*
X70110Y-54899D01*
X70110Y-53235D01*
X70110Y-52534D01*
X70103Y-52503D01*
X70091Y-52474D01*
X70074Y-52448D01*
X70052Y-52426D01*
X70026Y-52408D01*
X69997Y-52396D01*
X69966Y-52390D01*
X69935Y-52389D01*
X69747Y-52389D01*
X69831Y-52357D01*
X69915Y-52303D01*
X69987Y-52234D01*
X70045Y-52153D01*
X70086Y-52061D01*
X70108Y-51964D01*
X70110Y-51849D01*
X70090Y-51751D01*
X70052Y-51659D01*
X69997Y-51576D01*
X69926Y-51505D01*
X69843Y-51449D01*
X69751Y-51410D01*
X69704Y-51400D01*
X69712Y-51399D01*
X69807Y-51368D01*
X69872Y-51334D01*
X69908Y-51257D01*
X69600Y-50949D01*
X69550Y-50998D01*
X69550Y-50900D01*
X69242Y-50591D01*
X69165Y-50627D01*
X69121Y-50717D01*
X69094Y-50813D01*
X69087Y-50913D01*
X69100Y-51012D01*
X69131Y-51107D01*
X69165Y-51172D01*
X69242Y-51208D01*
X69550Y-50900D01*
X69550Y-50998D01*
X69291Y-51257D01*
X69327Y-51334D01*
X69417Y-51378D01*
X69496Y-51400D01*
X69455Y-51408D01*
X69362Y-51445D01*
X69278Y-51500D01*
X69207Y-51570D01*
X69150Y-51653D01*
X69111Y-51745D01*
X69090Y-51842D01*
X69089Y-51942D01*
X69107Y-52041D01*
X69144Y-52134D01*
X69198Y-52218D01*
X69267Y-52290D01*
X69349Y-52347D01*
X69441Y-52387D01*
X69453Y-52389D01*
X69234Y-52389D01*
X69203Y-52396D01*
X69174Y-52408D01*
X69148Y-52425D01*
X69126Y-52447D01*
X69108Y-52473D01*
X69096Y-52502D01*
X69090Y-52533D01*
X69089Y-52564D01*
X69089Y-53265D01*
X69096Y-53296D01*
X69108Y-53325D01*
X69125Y-53351D01*
X69147Y-53373D01*
X69173Y-53391D01*
X69202Y-53403D01*
X69233Y-53409D01*
X69264Y-53410D01*
X69965Y-53410D01*
X69996Y-53403D01*
X70025Y-53391D01*
X70051Y-53374D01*
X70073Y-53352D01*
X70091Y-53326D01*
X70103Y-53297D01*
X70109Y-53266D01*
X70110Y-53235D01*
X70110Y-54899D01*
X70029Y-54702D01*
X69903Y-54513D01*
X69742Y-54351D01*
X69554Y-54224D01*
X69344Y-54136D01*
X69121Y-54090D01*
X68894Y-54089D01*
X68670Y-54131D01*
X68459Y-54217D01*
X68269Y-54341D01*
X68107Y-54500D01*
X67978Y-54688D01*
X67888Y-54897D01*
X67841Y-55120D01*
X67838Y-55347D01*
X67879Y-55571D01*
X67963Y-55782D01*
X68086Y-55974D01*
X68244Y-56137D01*
X68431Y-56267D01*
X68639Y-56358D01*
X68861Y-56407D01*
X69089Y-56412D01*
X69313Y-56372D01*
X69525Y-56290D01*
X69717Y-56168D01*
X69882Y-56011D01*
X70013Y-55825D01*
X70106Y-55617D01*
X70156Y-55396D01*
X70160Y-55136D01*
X70160Y-59553D01*
X69997Y-59570D01*
X67163Y-59570D01*
X67163Y-56242D01*
X67149Y-56114D01*
X67110Y-55990D01*
X67085Y-55942D01*
X67085Y-52967D01*
X67072Y-52902D01*
X67047Y-52841D01*
X67010Y-52787D01*
X66964Y-52740D01*
X66910Y-52703D01*
X66849Y-52678D01*
X66785Y-52665D01*
X66719Y-52664D01*
X66654Y-52677D01*
X66594Y-52701D01*
X66539Y-52737D01*
X66492Y-52783D01*
X66487Y-52790D01*
X66336Y-52790D01*
X63648Y-50101D01*
X63633Y-50089D01*
X63618Y-50076D01*
X63617Y-50076D01*
X63616Y-50075D01*
X63599Y-50066D01*
X63582Y-50056D01*
X63581Y-50056D01*
X63580Y-50056D01*
X63562Y-50050D01*
X63543Y-50044D01*
X63542Y-50044D01*
X63541Y-50044D01*
X63522Y-50042D01*
X63502Y-50040D01*
X63500Y-50040D01*
X63500Y-50040D01*
X63500Y-50040D01*
X63500Y-50040D01*
X54962Y-50040D01*
X54960Y-50037D01*
X54914Y-49990D01*
X54860Y-49953D01*
X54799Y-49928D01*
X54735Y-49915D01*
X54669Y-49914D01*
X54604Y-49927D01*
X54544Y-49951D01*
X54489Y-49987D01*
X54442Y-50033D01*
X54405Y-50087D01*
X54379Y-50148D01*
X54365Y-50212D01*
X54364Y-50278D01*
X54376Y-50342D01*
X54400Y-50403D01*
X54436Y-50459D01*
X54481Y-50506D01*
X54535Y-50543D01*
X54595Y-50570D01*
X54660Y-50584D01*
X54725Y-50585D01*
X54790Y-50574D01*
X54851Y-50550D01*
X54907Y-50515D01*
X54954Y-50469D01*
X54961Y-50460D01*
X63413Y-50460D01*
X66101Y-53148D01*
X66116Y-53160D01*
X66131Y-53173D01*
X66132Y-53173D01*
X66133Y-53174D01*
X66150Y-53183D01*
X66167Y-53193D01*
X66168Y-53193D01*
X66169Y-53193D01*
X66187Y-53199D01*
X66206Y-53205D01*
X66207Y-53205D01*
X66208Y-53205D01*
X66227Y-53207D01*
X66247Y-53209D01*
X66249Y-53209D01*
X66249Y-53209D01*
X66249Y-53209D01*
X66250Y-53210D01*
X66487Y-53210D01*
X66531Y-53256D01*
X66585Y-53293D01*
X66645Y-53320D01*
X66710Y-53334D01*
X66775Y-53335D01*
X66840Y-53324D01*
X66901Y-53300D01*
X66957Y-53265D01*
X67004Y-53219D01*
X67042Y-53166D01*
X67069Y-53106D01*
X67083Y-53042D01*
X67085Y-52967D01*
X67085Y-55942D01*
X67056Y-55889D01*
X66964Y-55834D01*
X66915Y-55884D01*
X66915Y-55785D01*
X66860Y-55693D01*
X66746Y-55634D01*
X66621Y-55598D01*
X66492Y-55586D01*
X66364Y-55600D01*
X66240Y-55639D01*
X66139Y-55693D01*
X66084Y-55785D01*
X66500Y-56200D01*
X66915Y-55785D01*
X66915Y-55884D01*
X66549Y-56250D01*
X66964Y-56665D01*
X67056Y-56610D01*
X67115Y-56496D01*
X67151Y-56371D01*
X67163Y-56242D01*
X67163Y-59570D01*
X66915Y-59570D01*
X66915Y-56714D01*
X66500Y-56299D01*
X66450Y-56348D01*
X66450Y-56250D01*
X66035Y-55834D01*
X65943Y-55889D01*
X65884Y-56003D01*
X65848Y-56128D01*
X65836Y-56257D01*
X65850Y-56385D01*
X65889Y-56509D01*
X65943Y-56610D01*
X66035Y-56665D01*
X66450Y-56250D01*
X66450Y-56348D01*
X66084Y-56714D01*
X66139Y-56806D01*
X66253Y-56865D01*
X66378Y-56901D01*
X66507Y-56913D01*
X66635Y-56899D01*
X66759Y-56860D01*
X66860Y-56806D01*
X66915Y-56714D01*
X66915Y-59570D01*
X66010Y-59570D01*
X66010Y-58503D01*
X66010Y-57996D01*
X66000Y-57897D01*
X65971Y-57801D01*
X65924Y-57714D01*
X65861Y-57636D01*
X65785Y-57573D01*
X65697Y-57526D01*
X65602Y-57496D01*
X65503Y-57486D01*
X65404Y-57495D01*
X65308Y-57523D01*
X65220Y-57569D01*
X65143Y-57631D01*
X65079Y-57708D01*
X65031Y-57795D01*
X65001Y-57890D01*
X64999Y-57903D01*
X64993Y-57866D01*
X64958Y-57773D01*
X64905Y-57688D01*
X64837Y-57615D01*
X64756Y-57557D01*
X64665Y-57516D01*
X64614Y-57502D01*
X64535Y-57531D01*
X64535Y-58215D01*
X64542Y-58215D01*
X64542Y-58285D01*
X64535Y-58285D01*
X64535Y-58968D01*
X64614Y-58997D01*
X64665Y-58983D01*
X64756Y-58942D01*
X64837Y-58884D01*
X64905Y-58811D01*
X64958Y-58726D01*
X64993Y-58633D01*
X64999Y-58598D01*
X64999Y-58602D01*
X65028Y-58698D01*
X65075Y-58785D01*
X65138Y-58863D01*
X65214Y-58926D01*
X65302Y-58973D01*
X65397Y-59003D01*
X65496Y-59013D01*
X65595Y-59004D01*
X65691Y-58976D01*
X65779Y-58930D01*
X65856Y-58868D01*
X65920Y-58791D01*
X65968Y-58704D01*
X65998Y-58609D01*
X66009Y-58510D01*
X66010Y-58503D01*
X66010Y-59570D01*
X64465Y-59570D01*
X64465Y-58968D01*
X64465Y-58285D01*
X64457Y-58285D01*
X64457Y-58215D01*
X64465Y-58215D01*
X64465Y-57531D01*
X64385Y-57502D01*
X64334Y-57516D01*
X64243Y-57557D01*
X64162Y-57615D01*
X64094Y-57688D01*
X64041Y-57773D01*
X64006Y-57866D01*
X64000Y-57901D01*
X64000Y-57897D01*
X63971Y-57801D01*
X63924Y-57714D01*
X63910Y-57695D01*
X63910Y-56500D01*
X63906Y-56462D01*
X63903Y-56424D01*
X63902Y-56422D01*
X63902Y-56420D01*
X63891Y-56384D01*
X63880Y-56347D01*
X63879Y-56345D01*
X63879Y-56343D01*
X63861Y-56310D01*
X63843Y-56276D01*
X63842Y-56275D01*
X63841Y-56273D01*
X63817Y-56243D01*
X63793Y-56214D01*
X63790Y-56211D01*
X63790Y-56211D01*
X63790Y-56211D01*
X63789Y-56210D01*
X63539Y-55960D01*
X63510Y-55936D01*
X63481Y-55911D01*
X63479Y-55910D01*
X63478Y-55909D01*
X63444Y-55891D01*
X63411Y-55873D01*
X63409Y-55872D01*
X63407Y-55871D01*
X63371Y-55860D01*
X63335Y-55848D01*
X63333Y-55848D01*
X63331Y-55848D01*
X63293Y-55844D01*
X63255Y-55840D01*
X63251Y-55840D01*
X63251Y-55840D01*
X63251Y-55840D01*
X63250Y-55840D01*
X63020Y-55840D01*
X63013Y-55830D01*
X62922Y-55739D01*
X62815Y-55666D01*
X62696Y-55616D01*
X62569Y-55590D01*
X62439Y-55589D01*
X62312Y-55613D01*
X62192Y-55662D01*
X62084Y-55733D01*
X61991Y-55823D01*
X61980Y-55840D01*
X61835Y-55840D01*
X61835Y-54217D01*
X61822Y-54152D01*
X61797Y-54091D01*
X61760Y-54037D01*
X61714Y-53990D01*
X61660Y-53953D01*
X61599Y-53928D01*
X61535Y-53915D01*
X61469Y-53914D01*
X61404Y-53927D01*
X61344Y-53951D01*
X61289Y-53987D01*
X61286Y-53990D01*
X61000Y-53990D01*
X60976Y-53992D01*
X60952Y-53994D01*
X60950Y-53994D01*
X60949Y-53994D01*
X60926Y-54001D01*
X60903Y-54008D01*
X60902Y-54009D01*
X60900Y-54009D01*
X60879Y-54020D01*
X60858Y-54031D01*
X60857Y-54032D01*
X60856Y-54033D01*
X60837Y-54048D01*
X60818Y-54063D01*
X60816Y-54065D01*
X60816Y-54065D01*
X60816Y-54065D01*
X60816Y-54066D01*
X60217Y-54665D01*
X60154Y-54677D01*
X60094Y-54701D01*
X60039Y-54737D01*
X59992Y-54783D01*
X59955Y-54837D01*
X59929Y-54898D01*
X59915Y-54962D01*
X59914Y-55028D01*
X59926Y-55092D01*
X59950Y-55153D01*
X59986Y-55209D01*
X60031Y-55256D01*
X60085Y-55293D01*
X60145Y-55320D01*
X60210Y-55334D01*
X60275Y-55335D01*
X60340Y-55324D01*
X60401Y-55300D01*
X60457Y-55265D01*
X60504Y-55219D01*
X60542Y-55166D01*
X60569Y-55106D01*
X60583Y-55042D01*
X60584Y-55033D01*
X61107Y-54510D01*
X61287Y-54510D01*
X61335Y-54543D01*
X61395Y-54570D01*
X61460Y-54584D01*
X61525Y-54585D01*
X61590Y-54574D01*
X61651Y-54550D01*
X61707Y-54515D01*
X61754Y-54469D01*
X61792Y-54416D01*
X61819Y-54356D01*
X61833Y-54292D01*
X61835Y-54217D01*
X61835Y-55840D01*
X61520Y-55840D01*
X61513Y-55830D01*
X61422Y-55739D01*
X61315Y-55666D01*
X61196Y-55616D01*
X61069Y-55590D01*
X60939Y-55589D01*
X60812Y-55613D01*
X60692Y-55662D01*
X60584Y-55733D01*
X60491Y-55823D01*
X60480Y-55840D01*
X60169Y-55840D01*
X59589Y-55260D01*
X59560Y-55236D01*
X59531Y-55211D01*
X59529Y-55210D01*
X59528Y-55209D01*
X59494Y-55191D01*
X59461Y-55173D01*
X59459Y-55172D01*
X59457Y-55171D01*
X59421Y-55160D01*
X59385Y-55148D01*
X59383Y-55148D01*
X59381Y-55148D01*
X59343Y-55144D01*
X59305Y-55140D01*
X59301Y-55140D01*
X59301Y-55140D01*
X59301Y-55140D01*
X59300Y-55140D01*
X58169Y-55140D01*
X54989Y-51960D01*
X54960Y-51936D01*
X54931Y-51911D01*
X54929Y-51910D01*
X54928Y-51909D01*
X54894Y-51891D01*
X54861Y-51873D01*
X54859Y-51872D01*
X54857Y-51871D01*
X54821Y-51860D01*
X54785Y-51848D01*
X54783Y-51848D01*
X54781Y-51848D01*
X54743Y-51844D01*
X54705Y-51840D01*
X54701Y-51840D01*
X54701Y-51840D01*
X54701Y-51840D01*
X54700Y-51840D01*
X53463Y-51840D01*
X53463Y-40592D01*
X53449Y-40464D01*
X53410Y-40340D01*
X53356Y-40239D01*
X53264Y-40184D01*
X53215Y-40234D01*
X53215Y-40135D01*
X53160Y-40043D01*
X53046Y-39984D01*
X52921Y-39948D01*
X52792Y-39936D01*
X52664Y-39950D01*
X52540Y-39989D01*
X52439Y-40043D01*
X52384Y-40135D01*
X52800Y-40550D01*
X53215Y-40135D01*
X53215Y-40234D01*
X52849Y-40600D01*
X53264Y-41015D01*
X53356Y-40960D01*
X53415Y-40846D01*
X53451Y-40721D01*
X53463Y-40592D01*
X53463Y-51840D01*
X53382Y-51840D01*
X53358Y-51816D01*
X53267Y-51755D01*
X53215Y-51732D01*
X53215Y-41064D01*
X52800Y-40649D01*
X52750Y-40698D01*
X52750Y-40600D01*
X52335Y-40184D01*
X52243Y-40239D01*
X52184Y-40353D01*
X52148Y-40478D01*
X52136Y-40607D01*
X52150Y-40735D01*
X52189Y-40859D01*
X52243Y-40960D01*
X52335Y-41015D01*
X52750Y-40600D01*
X52750Y-40698D01*
X52384Y-41064D01*
X52439Y-41156D01*
X52553Y-41215D01*
X52678Y-41251D01*
X52807Y-41263D01*
X52935Y-41249D01*
X53059Y-41210D01*
X53160Y-41156D01*
X53215Y-41064D01*
X53215Y-51732D01*
X53166Y-51712D01*
X53058Y-51690D01*
X52949Y-51689D01*
X52841Y-51710D01*
X52739Y-51751D01*
X52647Y-51811D01*
X52568Y-51888D01*
X52560Y-51901D01*
X52560Y-51834D01*
X52553Y-51803D01*
X52541Y-51774D01*
X52524Y-51748D01*
X52502Y-51726D01*
X52476Y-51708D01*
X52447Y-51696D01*
X52416Y-51690D01*
X52385Y-51689D01*
X52260Y-51689D01*
X52260Y-45203D01*
X52260Y-44796D01*
X52251Y-44707D01*
X52225Y-44621D01*
X52183Y-44542D01*
X52126Y-44472D01*
X52057Y-44415D01*
X51978Y-44372D01*
X51892Y-44346D01*
X51803Y-44336D01*
X51713Y-44344D01*
X51627Y-44370D01*
X51548Y-44411D01*
X51478Y-44468D01*
X51420Y-44536D01*
X51377Y-44615D01*
X51362Y-44662D01*
X51362Y-38286D01*
X51349Y-38187D01*
X51318Y-38092D01*
X51284Y-38027D01*
X51207Y-37991D01*
X51158Y-38041D01*
X51158Y-37942D01*
X51122Y-37865D01*
X51032Y-37821D01*
X50936Y-37794D01*
X50836Y-37787D01*
X50737Y-37800D01*
X50642Y-37831D01*
X50577Y-37865D01*
X50541Y-37942D01*
X50850Y-38250D01*
X51158Y-37942D01*
X51158Y-38041D01*
X50899Y-38300D01*
X51207Y-38608D01*
X51284Y-38572D01*
X51328Y-38482D01*
X51355Y-38386D01*
X51362Y-38286D01*
X51362Y-44662D01*
X51350Y-44701D01*
X51340Y-44790D01*
X51340Y-44796D01*
X51340Y-45203D01*
X51348Y-45292D01*
X51374Y-45378D01*
X51416Y-45457D01*
X51473Y-45527D01*
X51542Y-45584D01*
X51621Y-45627D01*
X51707Y-45653D01*
X51796Y-45663D01*
X51886Y-45655D01*
X51972Y-45629D01*
X52051Y-45588D01*
X52121Y-45531D01*
X52179Y-45463D01*
X52222Y-45384D01*
X52249Y-45298D01*
X52259Y-45209D01*
X52260Y-45203D01*
X52260Y-51689D01*
X51584Y-51689D01*
X51553Y-51696D01*
X51524Y-51708D01*
X51498Y-51725D01*
X51476Y-51747D01*
X51458Y-51773D01*
X51446Y-51802D01*
X51440Y-51833D01*
X51439Y-51864D01*
X51439Y-52230D01*
X51260Y-52410D01*
X51260Y-45235D01*
X51260Y-45035D01*
X51260Y-44965D01*
X51260Y-44765D01*
X51244Y-44676D01*
X51211Y-44592D01*
X51163Y-44516D01*
X51158Y-44510D01*
X51158Y-38657D01*
X50850Y-38349D01*
X50800Y-38398D01*
X50800Y-38300D01*
X50492Y-37991D01*
X50415Y-38027D01*
X50371Y-38117D01*
X50349Y-38196D01*
X50340Y-38151D01*
X50302Y-38059D01*
X50247Y-37976D01*
X50176Y-37905D01*
X50093Y-37849D01*
X50001Y-37810D01*
X49903Y-37790D01*
X49803Y-37789D01*
X49705Y-37808D01*
X49612Y-37845D01*
X49528Y-37900D01*
X49457Y-37970D01*
X49400Y-38053D01*
X49361Y-38145D01*
X49340Y-38242D01*
X49339Y-38342D01*
X49357Y-38441D01*
X49394Y-38534D01*
X49448Y-38618D01*
X49517Y-38690D01*
X49599Y-38747D01*
X49691Y-38787D01*
X49789Y-38808D01*
X49889Y-38810D01*
X49987Y-38793D01*
X50081Y-38757D01*
X50165Y-38703D01*
X50237Y-38634D01*
X50295Y-38553D01*
X50336Y-38461D01*
X50349Y-38405D01*
X50350Y-38412D01*
X50381Y-38507D01*
X50415Y-38572D01*
X50492Y-38608D01*
X50800Y-38300D01*
X50800Y-38398D01*
X50541Y-38657D01*
X50577Y-38734D01*
X50667Y-38778D01*
X50763Y-38805D01*
X50863Y-38812D01*
X50962Y-38799D01*
X51057Y-38768D01*
X51122Y-38734D01*
X51158Y-38657D01*
X51158Y-44510D01*
X51101Y-44451D01*
X51028Y-44399D01*
X50945Y-44362D01*
X50906Y-44352D01*
X50835Y-44381D01*
X50835Y-44965D01*
X51260Y-44965D01*
X51260Y-45035D01*
X50835Y-45035D01*
X50835Y-45618D01*
X50906Y-45647D01*
X50945Y-45637D01*
X51028Y-45600D01*
X51101Y-45548D01*
X51163Y-45483D01*
X51211Y-45407D01*
X51244Y-45323D01*
X51260Y-45235D01*
X51260Y-52410D01*
X50765Y-52905D01*
X50765Y-45618D01*
X50765Y-45035D01*
X50765Y-44965D01*
X50765Y-44381D01*
X50693Y-44352D01*
X50654Y-44362D01*
X50571Y-44399D01*
X50498Y-44451D01*
X50436Y-44516D01*
X50388Y-44592D01*
X50355Y-44676D01*
X50340Y-44765D01*
X50340Y-44965D01*
X50765Y-44965D01*
X50765Y-45035D01*
X50340Y-45035D01*
X50340Y-45235D01*
X50355Y-45323D01*
X50388Y-45407D01*
X50436Y-45483D01*
X50498Y-45548D01*
X50571Y-45600D01*
X50654Y-45637D01*
X50693Y-45647D01*
X50765Y-45618D01*
X50765Y-52905D01*
X50710Y-52960D01*
X50686Y-52989D01*
X50661Y-53018D01*
X50660Y-53020D01*
X50659Y-53021D01*
X50641Y-53055D01*
X50623Y-53088D01*
X50622Y-53090D01*
X50621Y-53092D01*
X50610Y-53128D01*
X50598Y-53164D01*
X50598Y-53166D01*
X50598Y-53168D01*
X50594Y-53206D01*
X50590Y-53244D01*
X50590Y-53248D01*
X50590Y-53248D01*
X50590Y-53248D01*
X50590Y-53250D01*
X50590Y-55729D01*
X50584Y-55733D01*
X50491Y-55823D01*
X50480Y-55840D01*
X50260Y-55840D01*
X50260Y-45485D01*
X50260Y-44484D01*
X50253Y-44453D01*
X50241Y-44424D01*
X50224Y-44398D01*
X50202Y-44376D01*
X50176Y-44358D01*
X50147Y-44346D01*
X50116Y-44340D01*
X50085Y-44339D01*
X49484Y-44339D01*
X49460Y-44344D01*
X49460Y-40535D01*
X49434Y-40408D01*
X49385Y-40288D01*
X49313Y-40180D01*
X49222Y-40089D01*
X49115Y-40016D01*
X48996Y-39966D01*
X48869Y-39940D01*
X48739Y-39939D01*
X48612Y-39963D01*
X48492Y-40012D01*
X48384Y-40083D01*
X48291Y-40173D01*
X48218Y-40280D01*
X48167Y-40399D01*
X48140Y-40526D01*
X48139Y-40655D01*
X48162Y-40782D01*
X48210Y-40903D01*
X48280Y-41011D01*
X48370Y-41105D01*
X48476Y-41178D01*
X48595Y-41230D01*
X48721Y-41258D01*
X48850Y-41261D01*
X48978Y-41238D01*
X49099Y-41191D01*
X49208Y-41122D01*
X49302Y-41033D01*
X49376Y-40927D01*
X49429Y-40809D01*
X49457Y-40683D01*
X49460Y-40535D01*
X49460Y-44344D01*
X49453Y-44346D01*
X49424Y-44358D01*
X49398Y-44375D01*
X49376Y-44397D01*
X49358Y-44423D01*
X49346Y-44452D01*
X49340Y-44483D01*
X49339Y-44514D01*
X49339Y-45515D01*
X49346Y-45546D01*
X49358Y-45575D01*
X49375Y-45601D01*
X49397Y-45623D01*
X49423Y-45641D01*
X49452Y-45653D01*
X49483Y-45659D01*
X49514Y-45660D01*
X50115Y-45660D01*
X50146Y-45653D01*
X50175Y-45641D01*
X50201Y-45624D01*
X50223Y-45602D01*
X50241Y-45576D01*
X50253Y-45547D01*
X50259Y-45516D01*
X50260Y-45485D01*
X50260Y-55840D01*
X50020Y-55840D01*
X50013Y-55830D01*
X49922Y-55739D01*
X49815Y-55666D01*
X49696Y-55616D01*
X49569Y-55590D01*
X49439Y-55589D01*
X49312Y-55613D01*
X49192Y-55662D01*
X49084Y-55733D01*
X48991Y-55823D01*
X48980Y-55840D01*
X48863Y-55840D01*
X48863Y-52992D01*
X48863Y-48792D01*
X48849Y-48664D01*
X48810Y-48540D01*
X48756Y-48439D01*
X48664Y-48384D01*
X48615Y-48434D01*
X48615Y-48335D01*
X48560Y-48243D01*
X48446Y-48184D01*
X48321Y-48148D01*
X48192Y-48136D01*
X48064Y-48150D01*
X47940Y-48189D01*
X47839Y-48243D01*
X47784Y-48335D01*
X48200Y-48750D01*
X48615Y-48335D01*
X48615Y-48434D01*
X48249Y-48800D01*
X48664Y-49215D01*
X48756Y-49160D01*
X48815Y-49046D01*
X48851Y-48921D01*
X48863Y-48792D01*
X48863Y-52992D01*
X48849Y-52864D01*
X48810Y-52740D01*
X48756Y-52639D01*
X48664Y-52584D01*
X48615Y-52634D01*
X48615Y-52535D01*
X48615Y-49264D01*
X48200Y-48849D01*
X48150Y-48898D01*
X48150Y-48800D01*
X47735Y-48384D01*
X47643Y-48439D01*
X47584Y-48553D01*
X47548Y-48678D01*
X47536Y-48807D01*
X47550Y-48935D01*
X47589Y-49059D01*
X47643Y-49160D01*
X47735Y-49215D01*
X48150Y-48800D01*
X48150Y-48898D01*
X47784Y-49264D01*
X47839Y-49356D01*
X47953Y-49415D01*
X48078Y-49451D01*
X48207Y-49463D01*
X48335Y-49449D01*
X48459Y-49410D01*
X48560Y-49356D01*
X48615Y-49264D01*
X48615Y-52535D01*
X48560Y-52443D01*
X48446Y-52384D01*
X48321Y-52348D01*
X48192Y-52336D01*
X48064Y-52350D01*
X47940Y-52389D01*
X47839Y-52443D01*
X47784Y-52535D01*
X48200Y-52950D01*
X48615Y-52535D01*
X48615Y-52634D01*
X48249Y-53000D01*
X48664Y-53415D01*
X48756Y-53360D01*
X48815Y-53246D01*
X48851Y-53121D01*
X48863Y-52992D01*
X48863Y-55840D01*
X48615Y-55840D01*
X48615Y-53464D01*
X48200Y-53049D01*
X48150Y-53098D01*
X48150Y-53000D01*
X47735Y-52584D01*
X47643Y-52639D01*
X47584Y-52753D01*
X47548Y-52878D01*
X47536Y-53007D01*
X47550Y-53135D01*
X47589Y-53259D01*
X47643Y-53360D01*
X47735Y-53415D01*
X48150Y-53000D01*
X48150Y-53098D01*
X47784Y-53464D01*
X47839Y-53556D01*
X47953Y-53615D01*
X48078Y-53651D01*
X48207Y-53663D01*
X48335Y-53649D01*
X48459Y-53610D01*
X48560Y-53556D01*
X48615Y-53464D01*
X48615Y-55840D01*
X47750Y-55840D01*
X47712Y-55843D01*
X47674Y-55846D01*
X47672Y-55847D01*
X47670Y-55847D01*
X47634Y-55858D01*
X47597Y-55869D01*
X47595Y-55870D01*
X47593Y-55870D01*
X47560Y-55888D01*
X47526Y-55906D01*
X47525Y-55907D01*
X47523Y-55908D01*
X47493Y-55932D01*
X47464Y-55956D01*
X47461Y-55959D01*
X47461Y-55959D01*
X47461Y-55959D01*
X47460Y-55960D01*
X46860Y-56560D01*
X46860Y-52935D01*
X46860Y-48735D01*
X46834Y-48608D01*
X46785Y-48488D01*
X46713Y-48380D01*
X46622Y-48289D01*
X46515Y-48216D01*
X46396Y-48166D01*
X46269Y-48140D01*
X46139Y-48139D01*
X46012Y-48163D01*
X45892Y-48212D01*
X45784Y-48283D01*
X45691Y-48373D01*
X45618Y-48480D01*
X45567Y-48599D01*
X45540Y-48726D01*
X45539Y-48855D01*
X45562Y-48982D01*
X45610Y-49103D01*
X45680Y-49211D01*
X45770Y-49305D01*
X45876Y-49378D01*
X45995Y-49430D01*
X46121Y-49458D01*
X46250Y-49461D01*
X46378Y-49438D01*
X46499Y-49391D01*
X46608Y-49322D01*
X46702Y-49233D01*
X46776Y-49127D01*
X46829Y-49009D01*
X46857Y-48883D01*
X46860Y-48735D01*
X46860Y-52935D01*
X46834Y-52808D01*
X46785Y-52688D01*
X46713Y-52580D01*
X46622Y-52489D01*
X46515Y-52416D01*
X46396Y-52366D01*
X46269Y-52340D01*
X46139Y-52339D01*
X46012Y-52363D01*
X45892Y-52412D01*
X45784Y-52483D01*
X45691Y-52573D01*
X45618Y-52680D01*
X45567Y-52799D01*
X45540Y-52926D01*
X45539Y-53055D01*
X45562Y-53182D01*
X45610Y-53303D01*
X45680Y-53411D01*
X45770Y-53505D01*
X45876Y-53578D01*
X45995Y-53630D01*
X46121Y-53658D01*
X46250Y-53661D01*
X46378Y-53638D01*
X46499Y-53591D01*
X46608Y-53522D01*
X46702Y-53433D01*
X46776Y-53327D01*
X46829Y-53209D01*
X46857Y-53083D01*
X46860Y-52935D01*
X46860Y-56560D01*
X46210Y-57210D01*
X46186Y-57239D01*
X46161Y-57268D01*
X46160Y-57270D01*
X46160Y-57271D01*
X46160Y-56185D01*
X46134Y-56058D01*
X46085Y-55938D01*
X46013Y-55830D01*
X45922Y-55739D01*
X45815Y-55666D01*
X45696Y-55616D01*
X45569Y-55590D01*
X45439Y-55589D01*
X45312Y-55613D01*
X45192Y-55662D01*
X45084Y-55733D01*
X44991Y-55823D01*
X44918Y-55930D01*
X44867Y-56049D01*
X44840Y-56176D01*
X44839Y-56305D01*
X44862Y-56432D01*
X44910Y-56553D01*
X44980Y-56661D01*
X45070Y-56755D01*
X45176Y-56828D01*
X45295Y-56880D01*
X45421Y-56908D01*
X45550Y-56911D01*
X45678Y-56888D01*
X45799Y-56841D01*
X45908Y-56772D01*
X46002Y-56683D01*
X46076Y-56577D01*
X46129Y-56459D01*
X46157Y-56333D01*
X46160Y-56185D01*
X46160Y-57271D01*
X46159Y-57271D01*
X46141Y-57305D01*
X46123Y-57338D01*
X46122Y-57340D01*
X46121Y-57342D01*
X46110Y-57378D01*
X46098Y-57414D01*
X46098Y-57416D01*
X46098Y-57418D01*
X46094Y-57456D01*
X46090Y-57494D01*
X46090Y-57498D01*
X46090Y-57498D01*
X46090Y-57498D01*
X46090Y-57500D01*
X46090Y-57695D01*
X46079Y-57708D01*
X46031Y-57795D01*
X46001Y-57890D01*
X45990Y-57989D01*
X45990Y-57996D01*
X45990Y-58503D01*
X45999Y-58602D01*
X46028Y-58698D01*
X46075Y-58785D01*
X46138Y-58863D01*
X46214Y-58926D01*
X46302Y-58973D01*
X46397Y-59003D01*
X46496Y-59013D01*
X46595Y-59004D01*
X46691Y-58976D01*
X46779Y-58930D01*
X46856Y-58868D01*
X46920Y-58791D01*
X46968Y-58704D01*
X46998Y-58609D01*
X46999Y-58602D01*
X46999Y-58602D01*
X47028Y-58698D01*
X47075Y-58785D01*
X47138Y-58863D01*
X47214Y-58926D01*
X47302Y-58973D01*
X47397Y-59003D01*
X47496Y-59013D01*
X47595Y-59004D01*
X47691Y-58976D01*
X47779Y-58930D01*
X47856Y-58868D01*
X47920Y-58791D01*
X47968Y-58704D01*
X47998Y-58609D01*
X47999Y-58602D01*
X47999Y-58602D01*
X48028Y-58698D01*
X48075Y-58785D01*
X48138Y-58863D01*
X48214Y-58926D01*
X48302Y-58973D01*
X48397Y-59003D01*
X48496Y-59013D01*
X48595Y-59004D01*
X48691Y-58976D01*
X48779Y-58930D01*
X48856Y-58868D01*
X48920Y-58791D01*
X48968Y-58704D01*
X48998Y-58609D01*
X49009Y-58510D01*
X49010Y-58503D01*
X49010Y-57996D01*
X49000Y-57897D01*
X48971Y-57801D01*
X48924Y-57714D01*
X48861Y-57636D01*
X48785Y-57573D01*
X48697Y-57526D01*
X48602Y-57496D01*
X48503Y-57486D01*
X48404Y-57495D01*
X48308Y-57523D01*
X48220Y-57569D01*
X48143Y-57631D01*
X48079Y-57708D01*
X48031Y-57795D01*
X48001Y-57890D01*
X48000Y-57897D01*
X48000Y-57897D01*
X47971Y-57801D01*
X47924Y-57714D01*
X47861Y-57636D01*
X47785Y-57573D01*
X47697Y-57526D01*
X47602Y-57496D01*
X47503Y-57486D01*
X47404Y-57495D01*
X47308Y-57523D01*
X47220Y-57569D01*
X47143Y-57631D01*
X47079Y-57708D01*
X47031Y-57795D01*
X47001Y-57890D01*
X47000Y-57897D01*
X47000Y-57897D01*
X46971Y-57801D01*
X46924Y-57714D01*
X46910Y-57695D01*
X46910Y-57669D01*
X47919Y-56660D01*
X48979Y-56660D01*
X48980Y-56661D01*
X49070Y-56755D01*
X49176Y-56828D01*
X49295Y-56880D01*
X49421Y-56908D01*
X49550Y-56911D01*
X49678Y-56888D01*
X49799Y-56841D01*
X49908Y-56772D01*
X50002Y-56683D01*
X50018Y-56660D01*
X50479Y-56660D01*
X50480Y-56661D01*
X50570Y-56755D01*
X50676Y-56828D01*
X50795Y-56880D01*
X50921Y-56908D01*
X51050Y-56911D01*
X51178Y-56888D01*
X51299Y-56841D01*
X51408Y-56772D01*
X51425Y-56755D01*
X51590Y-56919D01*
X51590Y-57695D01*
X51579Y-57708D01*
X51531Y-57795D01*
X51501Y-57890D01*
X51490Y-57989D01*
X51490Y-57996D01*
X51490Y-58503D01*
X51499Y-58602D01*
X51528Y-58698D01*
X51575Y-58785D01*
X51638Y-58863D01*
X51714Y-58926D01*
X51802Y-58973D01*
X51897Y-59003D01*
X51996Y-59013D01*
X52095Y-59004D01*
X52191Y-58976D01*
X52279Y-58930D01*
X52356Y-58868D01*
X52420Y-58791D01*
X52468Y-58704D01*
X52498Y-58609D01*
X52500Y-58596D01*
X52506Y-58633D01*
X52541Y-58726D01*
X52594Y-58811D01*
X52662Y-58884D01*
X52743Y-58942D01*
X52834Y-58983D01*
X52885Y-58997D01*
X52965Y-58968D01*
X52965Y-58285D01*
X52957Y-58285D01*
X52957Y-58215D01*
X52965Y-58215D01*
X52965Y-57531D01*
X52885Y-57502D01*
X52834Y-57516D01*
X52743Y-57557D01*
X52662Y-57615D01*
X52594Y-57688D01*
X52541Y-57773D01*
X52506Y-57866D01*
X52500Y-57901D01*
X52500Y-57897D01*
X52471Y-57801D01*
X52424Y-57714D01*
X52410Y-57695D01*
X52410Y-56750D01*
X52406Y-56712D01*
X52403Y-56674D01*
X52402Y-56672D01*
X52402Y-56670D01*
X52391Y-56634D01*
X52380Y-56597D01*
X52379Y-56595D01*
X52379Y-56593D01*
X52361Y-56560D01*
X52343Y-56526D01*
X52342Y-56525D01*
X52341Y-56523D01*
X52317Y-56493D01*
X52293Y-56464D01*
X52290Y-56461D01*
X52290Y-56461D01*
X52290Y-56461D01*
X52289Y-56460D01*
X51789Y-55960D01*
X51760Y-55936D01*
X51731Y-55911D01*
X51729Y-55910D01*
X51728Y-55909D01*
X51694Y-55891D01*
X51661Y-55873D01*
X51659Y-55872D01*
X51657Y-55871D01*
X51621Y-55860D01*
X51585Y-55848D01*
X51583Y-55848D01*
X51581Y-55848D01*
X51543Y-55844D01*
X51521Y-55841D01*
X51513Y-55830D01*
X51422Y-55739D01*
X51410Y-55730D01*
X51410Y-53419D01*
X52019Y-52810D01*
X52415Y-52810D01*
X52446Y-52803D01*
X52475Y-52791D01*
X52501Y-52774D01*
X52523Y-52752D01*
X52541Y-52726D01*
X52553Y-52697D01*
X52559Y-52666D01*
X52560Y-52635D01*
X52560Y-52600D01*
X52635Y-52678D01*
X52725Y-52741D01*
X52826Y-52785D01*
X52933Y-52808D01*
X53043Y-52811D01*
X53151Y-52791D01*
X53253Y-52752D01*
X53346Y-52693D01*
X53381Y-52660D01*
X54530Y-52660D01*
X57590Y-55719D01*
X57590Y-55949D01*
X57585Y-55938D01*
X57513Y-55830D01*
X57422Y-55739D01*
X57315Y-55666D01*
X57196Y-55616D01*
X57069Y-55590D01*
X56939Y-55589D01*
X56812Y-55613D01*
X56692Y-55662D01*
X56584Y-55733D01*
X56491Y-55823D01*
X56418Y-55930D01*
X56367Y-56049D01*
X56340Y-56176D01*
X56339Y-56305D01*
X56362Y-56432D01*
X56410Y-56553D01*
X56480Y-56661D01*
X56570Y-56755D01*
X56676Y-56828D01*
X56795Y-56880D01*
X56921Y-56908D01*
X57050Y-56911D01*
X57178Y-56888D01*
X57299Y-56841D01*
X57408Y-56772D01*
X57502Y-56683D01*
X57576Y-56577D01*
X57590Y-56547D01*
X57590Y-57000D01*
X57590Y-57695D01*
X57579Y-57708D01*
X57531Y-57795D01*
X57501Y-57890D01*
X57490Y-57989D01*
X57490Y-57996D01*
X57490Y-58503D01*
X57499Y-58602D01*
X57528Y-58698D01*
X57575Y-58785D01*
X57638Y-58863D01*
X57714Y-58926D01*
X57802Y-58973D01*
X57897Y-59003D01*
X57996Y-59013D01*
X58095Y-59004D01*
X58191Y-58976D01*
X58279Y-58930D01*
X58356Y-58868D01*
X58420Y-58791D01*
X58468Y-58704D01*
X58498Y-58609D01*
X58499Y-58602D01*
X58499Y-58602D01*
X58528Y-58698D01*
X58575Y-58785D01*
X58638Y-58863D01*
X58714Y-58926D01*
X58802Y-58973D01*
X58897Y-59003D01*
X58996Y-59013D01*
X59095Y-59004D01*
X59191Y-58976D01*
X59279Y-58930D01*
X59356Y-58868D01*
X59420Y-58791D01*
X59468Y-58704D01*
X59498Y-58609D01*
X59499Y-58602D01*
X59499Y-58602D01*
X59528Y-58698D01*
X59575Y-58785D01*
X59638Y-58863D01*
X59714Y-58926D01*
X59802Y-58973D01*
X59897Y-59003D01*
X59996Y-59013D01*
X60095Y-59004D01*
X60191Y-58976D01*
X60279Y-58930D01*
X60356Y-58868D01*
X60420Y-58791D01*
X60468Y-58704D01*
X60498Y-58609D01*
X60509Y-58510D01*
X60510Y-58503D01*
X60510Y-57996D01*
X60500Y-57897D01*
X60471Y-57801D01*
X60424Y-57714D01*
X60361Y-57636D01*
X60285Y-57573D01*
X60197Y-57526D01*
X60102Y-57496D01*
X60003Y-57486D01*
X59904Y-57495D01*
X59808Y-57523D01*
X59720Y-57569D01*
X59643Y-57631D01*
X59579Y-57708D01*
X59531Y-57795D01*
X59501Y-57890D01*
X59500Y-57897D01*
X59500Y-57897D01*
X59471Y-57801D01*
X59424Y-57714D01*
X59361Y-57636D01*
X59285Y-57573D01*
X59197Y-57526D01*
X59102Y-57496D01*
X59003Y-57486D01*
X58904Y-57495D01*
X58808Y-57523D01*
X58720Y-57569D01*
X58643Y-57631D01*
X58579Y-57708D01*
X58531Y-57795D01*
X58501Y-57890D01*
X58500Y-57897D01*
X58500Y-57897D01*
X58471Y-57801D01*
X58424Y-57714D01*
X58410Y-57695D01*
X58410Y-57000D01*
X58410Y-55960D01*
X59130Y-55960D01*
X59710Y-56539D01*
X59739Y-56563D01*
X59768Y-56588D01*
X59770Y-56589D01*
X59771Y-56590D01*
X59805Y-56608D01*
X59838Y-56626D01*
X59840Y-56627D01*
X59842Y-56628D01*
X59878Y-56639D01*
X59914Y-56651D01*
X59916Y-56651D01*
X59918Y-56651D01*
X59956Y-56655D01*
X59994Y-56659D01*
X59998Y-56659D01*
X59998Y-56659D01*
X59998Y-56659D01*
X60000Y-56660D01*
X60479Y-56660D01*
X60480Y-56661D01*
X60570Y-56755D01*
X60676Y-56828D01*
X60795Y-56880D01*
X60921Y-56908D01*
X61050Y-56911D01*
X61178Y-56888D01*
X61299Y-56841D01*
X61408Y-56772D01*
X61502Y-56683D01*
X61518Y-56660D01*
X61979Y-56660D01*
X61980Y-56661D01*
X62070Y-56755D01*
X62176Y-56828D01*
X62295Y-56880D01*
X62421Y-56908D01*
X62550Y-56911D01*
X62678Y-56888D01*
X62799Y-56841D01*
X62908Y-56772D01*
X63002Y-56683D01*
X63018Y-56660D01*
X63080Y-56660D01*
X63090Y-56669D01*
X63090Y-57695D01*
X63079Y-57708D01*
X63031Y-57795D01*
X63001Y-57890D01*
X62990Y-57989D01*
X62990Y-57996D01*
X62990Y-58503D01*
X62999Y-58602D01*
X63028Y-58698D01*
X63075Y-58785D01*
X63138Y-58863D01*
X63214Y-58926D01*
X63302Y-58973D01*
X63397Y-59003D01*
X63496Y-59013D01*
X63595Y-59004D01*
X63691Y-58976D01*
X63779Y-58930D01*
X63856Y-58868D01*
X63920Y-58791D01*
X63968Y-58704D01*
X63998Y-58609D01*
X64000Y-58596D01*
X64006Y-58633D01*
X64041Y-58726D01*
X64094Y-58811D01*
X64162Y-58884D01*
X64243Y-58942D01*
X64334Y-58983D01*
X64385Y-58997D01*
X64465Y-58968D01*
X64465Y-59570D01*
X55663Y-59570D01*
X55663Y-56242D01*
X55649Y-56114D01*
X55610Y-55990D01*
X55556Y-55889D01*
X55464Y-55834D01*
X55415Y-55884D01*
X55415Y-55785D01*
X55360Y-55693D01*
X55246Y-55634D01*
X55121Y-55598D01*
X54992Y-55586D01*
X54864Y-55600D01*
X54740Y-55639D01*
X54639Y-55693D01*
X54584Y-55785D01*
X55000Y-56200D01*
X55415Y-55785D01*
X55415Y-55884D01*
X55049Y-56250D01*
X55464Y-56665D01*
X55556Y-56610D01*
X55615Y-56496D01*
X55651Y-56371D01*
X55663Y-56242D01*
X55663Y-59570D01*
X55415Y-59570D01*
X55415Y-56714D01*
X55000Y-56299D01*
X54950Y-56348D01*
X54950Y-56250D01*
X54535Y-55834D01*
X54443Y-55889D01*
X54384Y-56003D01*
X54348Y-56128D01*
X54336Y-56257D01*
X54350Y-56385D01*
X54389Y-56509D01*
X54443Y-56610D01*
X54535Y-56665D01*
X54950Y-56250D01*
X54950Y-56348D01*
X54584Y-56714D01*
X54639Y-56806D01*
X54753Y-56865D01*
X54878Y-56901D01*
X55007Y-56913D01*
X55135Y-56899D01*
X55259Y-56860D01*
X55360Y-56806D01*
X55415Y-56714D01*
X55415Y-59570D01*
X54510Y-59570D01*
X54510Y-58503D01*
X54510Y-57996D01*
X54500Y-57897D01*
X54471Y-57801D01*
X54424Y-57714D01*
X54361Y-57636D01*
X54285Y-57573D01*
X54260Y-57559D01*
X54260Y-53550D01*
X54260Y-53300D01*
X54257Y-53276D01*
X54255Y-53252D01*
X54255Y-53250D01*
X54255Y-53249D01*
X54248Y-53226D01*
X54241Y-53203D01*
X54240Y-53202D01*
X54240Y-53200D01*
X54229Y-53179D01*
X54218Y-53158D01*
X54217Y-53157D01*
X54216Y-53156D01*
X54201Y-53137D01*
X54186Y-53118D01*
X54185Y-53117D01*
X54185Y-53117D01*
X54172Y-53052D01*
X54147Y-52991D01*
X54110Y-52937D01*
X54064Y-52890D01*
X54010Y-52853D01*
X53949Y-52828D01*
X53885Y-52815D01*
X53819Y-52814D01*
X53754Y-52827D01*
X53694Y-52851D01*
X53639Y-52887D01*
X53592Y-52933D01*
X53555Y-52987D01*
X53529Y-53048D01*
X53515Y-53112D01*
X53514Y-53178D01*
X53526Y-53242D01*
X53550Y-53303D01*
X53586Y-53359D01*
X53631Y-53406D01*
X53685Y-53443D01*
X53740Y-53467D01*
X53740Y-53550D01*
X53740Y-57559D01*
X53720Y-57569D01*
X53643Y-57631D01*
X53579Y-57708D01*
X53531Y-57795D01*
X53501Y-57890D01*
X53499Y-57903D01*
X53493Y-57866D01*
X53458Y-57773D01*
X53405Y-57688D01*
X53337Y-57615D01*
X53256Y-57557D01*
X53165Y-57516D01*
X53114Y-57502D01*
X53035Y-57531D01*
X53035Y-58215D01*
X53042Y-58215D01*
X53042Y-58285D01*
X53035Y-58285D01*
X53035Y-58968D01*
X53114Y-58997D01*
X53165Y-58983D01*
X53256Y-58942D01*
X53337Y-58884D01*
X53405Y-58811D01*
X53458Y-58726D01*
X53493Y-58633D01*
X53499Y-58598D01*
X53499Y-58602D01*
X53528Y-58698D01*
X53575Y-58785D01*
X53638Y-58863D01*
X53714Y-58926D01*
X53802Y-58973D01*
X53897Y-59003D01*
X53996Y-59013D01*
X54095Y-59004D01*
X54191Y-58976D01*
X54279Y-58930D01*
X54356Y-58868D01*
X54420Y-58791D01*
X54468Y-58704D01*
X54498Y-58609D01*
X54509Y-58510D01*
X54510Y-58503D01*
X54510Y-59570D01*
X44160Y-59570D01*
X44160Y-55136D01*
X44115Y-54913D01*
X44029Y-54702D01*
X43903Y-54513D01*
X43742Y-54351D01*
X43554Y-54224D01*
X43344Y-54136D01*
X43121Y-54090D01*
X42894Y-54089D01*
X42670Y-54131D01*
X42459Y-54217D01*
X42269Y-54341D01*
X42107Y-54500D01*
X41978Y-54688D01*
X41888Y-54897D01*
X41841Y-55120D01*
X41838Y-55347D01*
X41879Y-55571D01*
X41963Y-55782D01*
X42086Y-55974D01*
X42244Y-56137D01*
X42431Y-56267D01*
X42639Y-56358D01*
X42861Y-56407D01*
X43089Y-56412D01*
X43313Y-56372D01*
X43525Y-56290D01*
X43717Y-56168D01*
X43882Y-56011D01*
X44013Y-55825D01*
X44106Y-55617D01*
X44156Y-55396D01*
X44160Y-55136D01*
X44160Y-59570D01*
X42008Y-59570D01*
X41840Y-59553D01*
X41687Y-59507D01*
X41546Y-59432D01*
X41422Y-59331D01*
X41320Y-59208D01*
X41244Y-59067D01*
X41197Y-58914D01*
X41179Y-58747D01*
X41179Y-43740D01*
X47140Y-43740D01*
X47140Y-37056D01*
X48886Y-35310D01*
X54460Y-35310D01*
X54460Y-39122D01*
X54216Y-39366D01*
X54200Y-39384D01*
X54185Y-39403D01*
X54184Y-39404D01*
X54183Y-39405D01*
X54172Y-39426D01*
X54161Y-39447D01*
X54160Y-39448D01*
X54159Y-39450D01*
X54152Y-39473D01*
X54145Y-39495D01*
X54145Y-39497D01*
X54145Y-39498D01*
X54142Y-39522D01*
X54140Y-39546D01*
X54140Y-39549D01*
X54140Y-39549D01*
X54140Y-39549D01*
X54140Y-39550D01*
X54140Y-43900D01*
X54140Y-45242D01*
X54067Y-45315D01*
X54004Y-45327D01*
X53944Y-45351D01*
X53889Y-45387D01*
X53842Y-45433D01*
X53805Y-45487D01*
X53779Y-45548D01*
X53765Y-45612D01*
X53764Y-45678D01*
X53776Y-45742D01*
X53800Y-45803D01*
X53836Y-45859D01*
X53881Y-45906D01*
X53935Y-45943D01*
X53995Y-45970D01*
X54060Y-45984D01*
X54125Y-45985D01*
X54190Y-45974D01*
X54251Y-45950D01*
X54307Y-45915D01*
X54354Y-45869D01*
X54392Y-45816D01*
X54419Y-45756D01*
X54433Y-45692D01*
X54434Y-45683D01*
X54460Y-45657D01*
X54460Y-47040D01*
X70820Y-47040D01*
X70820Y-58741D01*
X70820Y-58741D01*
G37*
G54D29*
X70820Y-58741D02*
X70803Y-58909D01*
X70757Y-59062D01*
X70682Y-59203D01*
X70581Y-59327D01*
X70458Y-59429D01*
X70317Y-59505D01*
X70164Y-59552D01*
X70160Y-59553D01*
X70160Y-55136D01*
X70115Y-54913D01*
X70112Y-54904D01*
X70112Y-50886D01*
X70099Y-50787D01*
X70068Y-50692D01*
X70034Y-50627D01*
X69957Y-50591D01*
X69908Y-50641D01*
X69908Y-50542D01*
X69872Y-50465D01*
X69782Y-50421D01*
X69686Y-50394D01*
X69586Y-50387D01*
X69487Y-50400D01*
X69392Y-50431D01*
X69327Y-50465D01*
X69291Y-50542D01*
X69600Y-50850D01*
X69908Y-50542D01*
X69908Y-50641D01*
X69649Y-50900D01*
X69957Y-51208D01*
X70034Y-51172D01*
X70078Y-51082D01*
X70105Y-50986D01*
X70112Y-50886D01*
X70112Y-54904D01*
X70110Y-54899D01*
X70110Y-53235D01*
X70110Y-52534D01*
X70103Y-52503D01*
X70091Y-52474D01*
X70074Y-52448D01*
X70052Y-52426D01*
X70026Y-52408D01*
X69997Y-52396D01*
X69966Y-52390D01*
X69935Y-52389D01*
X69747Y-52389D01*
X69831Y-52357D01*
X69915Y-52303D01*
X69987Y-52234D01*
X70045Y-52153D01*
X70086Y-52061D01*
X70108Y-51964D01*
X70110Y-51849D01*
X70090Y-51751D01*
X70052Y-51659D01*
X69997Y-51576D01*
X69926Y-51505D01*
X69843Y-51449D01*
X69751Y-51410D01*
X69704Y-51400D01*
X69712Y-51399D01*
X69807Y-51368D01*
X69872Y-51334D01*
X69908Y-51257D01*
X69600Y-50949D01*
X69550Y-50998D01*
X69550Y-50900D01*
X69242Y-50591D01*
X69165Y-50627D01*
X69121Y-50717D01*
X69094Y-50813D01*
X69087Y-50913D01*
X69100Y-51012D01*
X69131Y-51107D01*
X69165Y-51172D01*
X69242Y-51208D01*
X69550Y-50900D01*
X69550Y-50998D01*
X69291Y-51257D01*
X69327Y-51334D01*
X69417Y-51378D01*
X69496Y-51400D01*
X69455Y-51408D01*
X69362Y-51445D01*
X69278Y-51500D01*
X69207Y-51570D01*
X69150Y-51653D01*
X69111Y-51745D01*
X69090Y-51842D01*
X69089Y-51942D01*
X69107Y-52041D01*
X69144Y-52134D01*
X69198Y-52218D01*
X69267Y-52290D01*
X69349Y-52347D01*
X69441Y-52387D01*
X69453Y-52389D01*
X69234Y-52389D01*
X69203Y-52396D01*
X69174Y-52408D01*
X69148Y-52425D01*
X69126Y-52447D01*
X69108Y-52473D01*
X69096Y-52502D01*
X69090Y-52533D01*
X69089Y-52564D01*
X69089Y-53265D01*
X69096Y-53296D01*
X69108Y-53325D01*
X69125Y-53351D01*
X69147Y-53373D01*
X69173Y-53391D01*
X69202Y-53403D01*
X69233Y-53409D01*
X69264Y-53410D01*
X69965Y-53410D01*
X69996Y-53403D01*
X70025Y-53391D01*
X70051Y-53374D01*
X70073Y-53352D01*
X70091Y-53326D01*
X70103Y-53297D01*
X70109Y-53266D01*
X70110Y-53235D01*
X70110Y-54899D01*
X70029Y-54702D01*
X69903Y-54513D01*
X69742Y-54351D01*
X69554Y-54224D01*
X69344Y-54136D01*
X69121Y-54090D01*
X68894Y-54089D01*
X68670Y-54131D01*
X68459Y-54217D01*
X68269Y-54341D01*
X68107Y-54500D01*
X67978Y-54688D01*
X67888Y-54897D01*
X67841Y-55120D01*
X67838Y-55347D01*
X67879Y-55571D01*
X67963Y-55782D01*
X68086Y-55974D01*
X68244Y-56137D01*
X68431Y-56267D01*
X68639Y-56358D01*
X68861Y-56407D01*
X69089Y-56412D01*
X69313Y-56372D01*
X69525Y-56290D01*
X69717Y-56168D01*
X69882Y-56011D01*
X70013Y-55825D01*
X70106Y-55617D01*
X70156Y-55396D01*
X70160Y-55136D01*
X70160Y-59553D01*
X69997Y-59570D01*
X67163Y-59570D01*
X67163Y-56242D01*
X67149Y-56114D01*
X67110Y-55990D01*
X67085Y-55942D01*
X67085Y-52967D01*
X67072Y-52902D01*
X67047Y-52841D01*
X67010Y-52787D01*
X66964Y-52740D01*
X66910Y-52703D01*
X66849Y-52678D01*
X66785Y-52665D01*
X66719Y-52664D01*
X66654Y-52677D01*
X66594Y-52701D01*
X66539Y-52737D01*
X66492Y-52783D01*
X66487Y-52790D01*
X66336Y-52790D01*
X63648Y-50101D01*
X63633Y-50089D01*
X63618Y-50076D01*
X63617Y-50076D01*
X63616Y-50075D01*
X63599Y-50066D01*
X63582Y-50056D01*
X63581Y-50056D01*
X63580Y-50056D01*
X63562Y-50050D01*
X63543Y-50044D01*
X63542Y-50044D01*
X63541Y-50044D01*
X63522Y-50042D01*
X63502Y-50040D01*
X63500Y-50040D01*
X63500Y-50040D01*
X63500Y-50040D01*
X63500Y-50040D01*
X54962Y-50040D01*
X54960Y-50037D01*
X54914Y-49990D01*
X54860Y-49953D01*
X54799Y-49928D01*
X54735Y-49915D01*
X54669Y-49914D01*
X54604Y-49927D01*
X54544Y-49951D01*
X54489Y-49987D01*
X54442Y-50033D01*
X54405Y-50087D01*
X54379Y-50148D01*
X54365Y-50212D01*
X54364Y-50278D01*
X54376Y-50342D01*
X54400Y-50403D01*
X54436Y-50459D01*
X54481Y-50506D01*
X54535Y-50543D01*
X54595Y-50570D01*
X54660Y-50584D01*
X54725Y-50585D01*
X54790Y-50574D01*
X54851Y-50550D01*
X54907Y-50515D01*
X54954Y-50469D01*
X54961Y-50460D01*
X63413Y-50460D01*
X66101Y-53148D01*
X66116Y-53160D01*
X66131Y-53173D01*
X66132Y-53173D01*
X66133Y-53174D01*
X66150Y-53183D01*
X66167Y-53193D01*
X66168Y-53193D01*
X66169Y-53193D01*
X66187Y-53199D01*
X66206Y-53205D01*
X66207Y-53205D01*
X66208Y-53205D01*
X66227Y-53207D01*
X66247Y-53209D01*
X66249Y-53209D01*
X66249Y-53209D01*
X66249Y-53209D01*
X66250Y-53210D01*
X66487Y-53210D01*
X66531Y-53256D01*
X66585Y-53293D01*
X66645Y-53320D01*
X66710Y-53334D01*
X66775Y-53335D01*
X66840Y-53324D01*
X66901Y-53300D01*
X66957Y-53265D01*
X67004Y-53219D01*
X67042Y-53166D01*
X67069Y-53106D01*
X67083Y-53042D01*
X67085Y-52967D01*
X67085Y-55942D01*
X67056Y-55889D01*
X66964Y-55834D01*
X66915Y-55884D01*
X66915Y-55785D01*
X66860Y-55693D01*
X66746Y-55634D01*
X66621Y-55598D01*
X66492Y-55586D01*
X66364Y-55600D01*
X66240Y-55639D01*
X66139Y-55693D01*
X66084Y-55785D01*
X66500Y-56200D01*
X66915Y-55785D01*
X66915Y-55884D01*
X66549Y-56250D01*
X66964Y-56665D01*
X67056Y-56610D01*
X67115Y-56496D01*
X67151Y-56371D01*
X67163Y-56242D01*
X67163Y-59570D01*
X66915Y-59570D01*
X66915Y-56714D01*
X66500Y-56299D01*
X66450Y-56348D01*
X66450Y-56250D01*
X66035Y-55834D01*
X65943Y-55889D01*
X65884Y-56003D01*
X65848Y-56128D01*
X65836Y-56257D01*
X65850Y-56385D01*
X65889Y-56509D01*
X65943Y-56610D01*
X66035Y-56665D01*
X66450Y-56250D01*
X66450Y-56348D01*
X66084Y-56714D01*
X66139Y-56806D01*
X66253Y-56865D01*
X66378Y-56901D01*
X66507Y-56913D01*
X66635Y-56899D01*
X66759Y-56860D01*
X66860Y-56806D01*
X66915Y-56714D01*
X66915Y-59570D01*
X66010Y-59570D01*
X66010Y-58503D01*
X66010Y-57996D01*
X66000Y-57897D01*
X65971Y-57801D01*
X65924Y-57714D01*
X65861Y-57636D01*
X65785Y-57573D01*
X65697Y-57526D01*
X65602Y-57496D01*
X65503Y-57486D01*
X65404Y-57495D01*
X65308Y-57523D01*
X65220Y-57569D01*
X65143Y-57631D01*
X65079Y-57708D01*
X65031Y-57795D01*
X65001Y-57890D01*
X64999Y-57903D01*
X64993Y-57866D01*
X64958Y-57773D01*
X64905Y-57688D01*
X64837Y-57615D01*
X64756Y-57557D01*
X64665Y-57516D01*
X64614Y-57502D01*
X64535Y-57531D01*
X64535Y-58215D01*
X64542Y-58215D01*
X64542Y-58285D01*
X64535Y-58285D01*
X64535Y-58968D01*
X64614Y-58997D01*
X64665Y-58983D01*
X64756Y-58942D01*
X64837Y-58884D01*
X64905Y-58811D01*
X64958Y-58726D01*
X64993Y-58633D01*
X64999Y-58598D01*
X64999Y-58602D01*
X65028Y-58698D01*
X65075Y-58785D01*
X65138Y-58863D01*
X65214Y-58926D01*
X65302Y-58973D01*
X65397Y-59003D01*
X65496Y-59013D01*
X65595Y-59004D01*
X65691Y-58976D01*
X65779Y-58930D01*
X65856Y-58868D01*
X65920Y-58791D01*
X65968Y-58704D01*
X65998Y-58609D01*
X66009Y-58510D01*
X66010Y-58503D01*
X66010Y-59570D01*
X64465Y-59570D01*
X64465Y-58968D01*
X64465Y-58285D01*
X64457Y-58285D01*
X64457Y-58215D01*
X64465Y-58215D01*
X64465Y-57531D01*
X64385Y-57502D01*
X64334Y-57516D01*
X64243Y-57557D01*
X64162Y-57615D01*
X64094Y-57688D01*
X64041Y-57773D01*
X64006Y-57866D01*
X64000Y-57901D01*
X64000Y-57897D01*
X63971Y-57801D01*
X63924Y-57714D01*
X63910Y-57695D01*
X63910Y-56500D01*
X63906Y-56462D01*
X63903Y-56424D01*
X63902Y-56422D01*
X63902Y-56420D01*
X63891Y-56384D01*
X63880Y-56347D01*
X63879Y-56345D01*
X63879Y-56343D01*
X63861Y-56310D01*
X63843Y-56276D01*
X63842Y-56275D01*
X63841Y-56273D01*
X63817Y-56243D01*
X63793Y-56214D01*
X63790Y-56211D01*
X63790Y-56211D01*
X63790Y-56211D01*
X63789Y-56210D01*
X63539Y-55960D01*
X63510Y-55936D01*
X63481Y-55911D01*
X63479Y-55910D01*
X63478Y-55909D01*
X63444Y-55891D01*
X63411Y-55873D01*
X63409Y-55872D01*
X63407Y-55871D01*
X63371Y-55860D01*
X63335Y-55848D01*
X63333Y-55848D01*
X63331Y-55848D01*
X63293Y-55844D01*
X63255Y-55840D01*
X63251Y-55840D01*
X63251Y-55840D01*
X63251Y-55840D01*
X63250Y-55840D01*
X63020Y-55840D01*
X63013Y-55830D01*
X62922Y-55739D01*
X62815Y-55666D01*
X62696Y-55616D01*
X62569Y-55590D01*
X62439Y-55589D01*
X62312Y-55613D01*
X62192Y-55662D01*
X62084Y-55733D01*
X61991Y-55823D01*
X61980Y-55840D01*
X61835Y-55840D01*
X61835Y-54217D01*
X61822Y-54152D01*
X61797Y-54091D01*
X61760Y-54037D01*
X61714Y-53990D01*
X61660Y-53953D01*
X61599Y-53928D01*
X61535Y-53915D01*
X61469Y-53914D01*
X61404Y-53927D01*
X61344Y-53951D01*
X61289Y-53987D01*
X61286Y-53990D01*
X61000Y-53990D01*
X60976Y-53992D01*
X60952Y-53994D01*
X60950Y-53994D01*
X60949Y-53994D01*
X60926Y-54001D01*
X60903Y-54008D01*
X60902Y-54009D01*
X60900Y-54009D01*
X60879Y-54020D01*
X60858Y-54031D01*
X60857Y-54032D01*
X60856Y-54033D01*
X60837Y-54048D01*
X60818Y-54063D01*
X60816Y-54065D01*
X60816Y-54065D01*
X60816Y-54065D01*
X60816Y-54066D01*
X60217Y-54665D01*
X60154Y-54677D01*
X60094Y-54701D01*
X60039Y-54737D01*
X59992Y-54783D01*
X59955Y-54837D01*
X59929Y-54898D01*
X59915Y-54962D01*
X59914Y-55028D01*
X59926Y-55092D01*
X59950Y-55153D01*
X59986Y-55209D01*
X60031Y-55256D01*
X60085Y-55293D01*
X60145Y-55320D01*
X60210Y-55334D01*
X60275Y-55335D01*
X60340Y-55324D01*
X60401Y-55300D01*
X60457Y-55265D01*
X60504Y-55219D01*
X60542Y-55166D01*
X60569Y-55106D01*
X60583Y-55042D01*
X60584Y-55033D01*
X61107Y-54510D01*
X61287Y-54510D01*
X61335Y-54543D01*
X61395Y-54570D01*
X61460Y-54584D01*
X61525Y-54585D01*
X61590Y-54574D01*
X61651Y-54550D01*
X61707Y-54515D01*
X61754Y-54469D01*
X61792Y-54416D01*
X61819Y-54356D01*
X61833Y-54292D01*
X61835Y-54217D01*
X61835Y-55840D01*
X61520Y-55840D01*
X61513Y-55830D01*
X61422Y-55739D01*
X61315Y-55666D01*
X61196Y-55616D01*
X61069Y-55590D01*
X60939Y-55589D01*
X60812Y-55613D01*
X60692Y-55662D01*
X60584Y-55733D01*
X60491Y-55823D01*
X60480Y-55840D01*
X60169Y-55840D01*
X59589Y-55260D01*
X59560Y-55236D01*
X59531Y-55211D01*
X59529Y-55210D01*
X59528Y-55209D01*
X59494Y-55191D01*
X59461Y-55173D01*
X59459Y-55172D01*
X59457Y-55171D01*
X59421Y-55160D01*
X59385Y-55148D01*
X59383Y-55148D01*
X59381Y-55148D01*
X59343Y-55144D01*
X59305Y-55140D01*
X59301Y-55140D01*
X59301Y-55140D01*
X59301Y-55140D01*
X59300Y-55140D01*
X58169Y-55140D01*
X54989Y-51960D01*
X54960Y-51936D01*
X54931Y-51911D01*
X54929Y-51910D01*
X54928Y-51909D01*
X54894Y-51891D01*
X54861Y-51873D01*
X54859Y-51872D01*
X54857Y-51871D01*
X54821Y-51860D01*
X54785Y-51848D01*
X54783Y-51848D01*
X54781Y-51848D01*
X54743Y-51844D01*
X54705Y-51840D01*
X54701Y-51840D01*
X54701Y-51840D01*
X54701Y-51840D01*
X54700Y-51840D01*
X53463Y-51840D01*
X53463Y-40592D01*
X53449Y-40464D01*
X53410Y-40340D01*
X53356Y-40239D01*
X53264Y-40184D01*
X53215Y-40234D01*
X53215Y-40135D01*
X53160Y-40043D01*
X53046Y-39984D01*
X52921Y-39948D01*
X52792Y-39936D01*
X52664Y-39950D01*
X52540Y-39989D01*
X52439Y-40043D01*
X52384Y-40135D01*
X52800Y-40550D01*
X53215Y-40135D01*
X53215Y-40234D01*
X52849Y-40600D01*
X53264Y-41015D01*
X53356Y-40960D01*
X53415Y-40846D01*
X53451Y-40721D01*
X53463Y-40592D01*
X53463Y-51840D01*
X53382Y-51840D01*
X53358Y-51816D01*
X53267Y-51755D01*
X53215Y-51732D01*
X53215Y-41064D01*
X52800Y-40649D01*
X52750Y-40698D01*
X52750Y-40600D01*
X52335Y-40184D01*
X52243Y-40239D01*
X52184Y-40353D01*
X52148Y-40478D01*
X52136Y-40607D01*
X52150Y-40735D01*
X52189Y-40859D01*
X52243Y-40960D01*
X52335Y-41015D01*
X52750Y-40600D01*
X52750Y-40698D01*
X52384Y-41064D01*
X52439Y-41156D01*
X52553Y-41215D01*
X52678Y-41251D01*
X52807Y-41263D01*
X52935Y-41249D01*
X53059Y-41210D01*
X53160Y-41156D01*
X53215Y-41064D01*
X53215Y-51732D01*
X53166Y-51712D01*
X53058Y-51690D01*
X52949Y-51689D01*
X52841Y-51710D01*
X52739Y-51751D01*
X52647Y-51811D01*
X52568Y-51888D01*
X52560Y-51901D01*
X52560Y-51834D01*
X52553Y-51803D01*
X52541Y-51774D01*
X52524Y-51748D01*
X52502Y-51726D01*
X52476Y-51708D01*
X52447Y-51696D01*
X52416Y-51690D01*
X52385Y-51689D01*
X52260Y-51689D01*
X52260Y-45203D01*
X52260Y-44796D01*
X52251Y-44707D01*
X52225Y-44621D01*
X52183Y-44542D01*
X52126Y-44472D01*
X52057Y-44415D01*
X51978Y-44372D01*
X51892Y-44346D01*
X51803Y-44336D01*
X51713Y-44344D01*
X51627Y-44370D01*
X51548Y-44411D01*
X51478Y-44468D01*
X51420Y-44536D01*
X51377Y-44615D01*
X51362Y-44662D01*
X51362Y-38286D01*
X51349Y-38187D01*
X51318Y-38092D01*
X51284Y-38027D01*
X51207Y-37991D01*
X51158Y-38041D01*
X51158Y-37942D01*
X51122Y-37865D01*
X51032Y-37821D01*
X50936Y-37794D01*
X50836Y-37787D01*
X50737Y-37800D01*
X50642Y-37831D01*
X50577Y-37865D01*
X50541Y-37942D01*
X50850Y-38250D01*
X51158Y-37942D01*
X51158Y-38041D01*
X50899Y-38300D01*
X51207Y-38608D01*
X51284Y-38572D01*
X51328Y-38482D01*
X51355Y-38386D01*
X51362Y-38286D01*
X51362Y-44662D01*
X51350Y-44701D01*
X51340Y-44790D01*
X51340Y-44796D01*
X51340Y-45203D01*
X51348Y-45292D01*
X51374Y-45378D01*
X51416Y-45457D01*
X51473Y-45527D01*
X51542Y-45584D01*
X51621Y-45627D01*
X51707Y-45653D01*
X51796Y-45663D01*
X51886Y-45655D01*
X51972Y-45629D01*
X52051Y-45588D01*
X52121Y-45531D01*
X52179Y-45463D01*
X52222Y-45384D01*
X52249Y-45298D01*
X52259Y-45209D01*
X52260Y-45203D01*
X52260Y-51689D01*
X51584Y-51689D01*
X51553Y-51696D01*
X51524Y-51708D01*
X51498Y-51725D01*
X51476Y-51747D01*
X51458Y-51773D01*
X51446Y-51802D01*
X51440Y-51833D01*
X51439Y-51864D01*
X51439Y-52230D01*
X51260Y-52410D01*
X51260Y-45235D01*
X51260Y-45035D01*
X51260Y-44965D01*
X51260Y-44765D01*
X51244Y-44676D01*
X51211Y-44592D01*
X51163Y-44516D01*
X51158Y-44510D01*
X51158Y-38657D01*
X50850Y-38349D01*
X50800Y-38398D01*
X50800Y-38300D01*
X50492Y-37991D01*
X50415Y-38027D01*
X50371Y-38117D01*
X50349Y-38196D01*
X50340Y-38151D01*
X50302Y-38059D01*
X50247Y-37976D01*
X50176Y-37905D01*
X50093Y-37849D01*
X50001Y-37810D01*
X49903Y-37790D01*
X49803Y-37789D01*
X49705Y-37808D01*
X49612Y-37845D01*
X49528Y-37900D01*
X49457Y-37970D01*
X49400Y-38053D01*
X49361Y-38145D01*
X49340Y-38242D01*
X49339Y-38342D01*
X49357Y-38441D01*
X49394Y-38534D01*
X49448Y-38618D01*
X49517Y-38690D01*
X49599Y-38747D01*
X49691Y-38787D01*
X49789Y-38808D01*
X49889Y-38810D01*
X49987Y-38793D01*
X50081Y-38757D01*
X50165Y-38703D01*
X50237Y-38634D01*
X50295Y-38553D01*
X50336Y-38461D01*
X50349Y-38405D01*
X50350Y-38412D01*
X50381Y-38507D01*
X50415Y-38572D01*
X50492Y-38608D01*
X50800Y-38300D01*
X50800Y-38398D01*
X50541Y-38657D01*
X50577Y-38734D01*
X50667Y-38778D01*
X50763Y-38805D01*
X50863Y-38812D01*
X50962Y-38799D01*
X51057Y-38768D01*
X51122Y-38734D01*
X51158Y-38657D01*
X51158Y-44510D01*
X51101Y-44451D01*
X51028Y-44399D01*
X50945Y-44362D01*
X50906Y-44352D01*
X50835Y-44381D01*
X50835Y-44965D01*
X51260Y-44965D01*
X51260Y-45035D01*
X50835Y-45035D01*
X50835Y-45618D01*
X50906Y-45647D01*
X50945Y-45637D01*
X51028Y-45600D01*
X51101Y-45548D01*
X51163Y-45483D01*
X51211Y-45407D01*
X51244Y-45323D01*
X51260Y-45235D01*
X51260Y-52410D01*
X50765Y-52905D01*
X50765Y-45618D01*
X50765Y-45035D01*
X50765Y-44965D01*
X50765Y-44381D01*
X50693Y-44352D01*
X50654Y-44362D01*
X50571Y-44399D01*
X50498Y-44451D01*
X50436Y-44516D01*
X50388Y-44592D01*
X50355Y-44676D01*
X50340Y-44765D01*
X50340Y-44965D01*
X50765Y-44965D01*
X50765Y-45035D01*
X50340Y-45035D01*
X50340Y-45235D01*
X50355Y-45323D01*
X50388Y-45407D01*
X50436Y-45483D01*
X50498Y-45548D01*
X50571Y-45600D01*
X50654Y-45637D01*
X50693Y-45647D01*
X50765Y-45618D01*
X50765Y-52905D01*
X50710Y-52960D01*
X50686Y-52989D01*
X50661Y-53018D01*
X50660Y-53020D01*
X50659Y-53021D01*
X50641Y-53055D01*
X50623Y-53088D01*
X50622Y-53090D01*
X50621Y-53092D01*
X50610Y-53128D01*
X50598Y-53164D01*
X50598Y-53166D01*
X50598Y-53168D01*
X50594Y-53206D01*
X50590Y-53244D01*
X50590Y-53248D01*
X50590Y-53248D01*
X50590Y-53248D01*
X50590Y-53250D01*
X50590Y-55729D01*
X50584Y-55733D01*
X50491Y-55823D01*
X50480Y-55840D01*
X50260Y-55840D01*
X50260Y-45485D01*
X50260Y-44484D01*
X50253Y-44453D01*
X50241Y-44424D01*
X50224Y-44398D01*
X50202Y-44376D01*
X50176Y-44358D01*
X50147Y-44346D01*
X50116Y-44340D01*
X50085Y-44339D01*
X49484Y-44339D01*
X49460Y-44344D01*
X49460Y-40535D01*
X49434Y-40408D01*
X49385Y-40288D01*
X49313Y-40180D01*
X49222Y-40089D01*
X49115Y-40016D01*
X48996Y-39966D01*
X48869Y-39940D01*
X48739Y-39939D01*
X48612Y-39963D01*
X48492Y-40012D01*
X48384Y-40083D01*
X48291Y-40173D01*
X48218Y-40280D01*
X48167Y-40399D01*
X48140Y-40526D01*
X48139Y-40655D01*
X48162Y-40782D01*
X48210Y-40903D01*
X48280Y-41011D01*
X48370Y-41105D01*
X48476Y-41178D01*
X48595Y-41230D01*
X48721Y-41258D01*
X48850Y-41261D01*
X48978Y-41238D01*
X49099Y-41191D01*
X49208Y-41122D01*
X49302Y-41033D01*
X49376Y-40927D01*
X49429Y-40809D01*
X49457Y-40683D01*
X49460Y-40535D01*
X49460Y-44344D01*
X49453Y-44346D01*
X49424Y-44358D01*
X49398Y-44375D01*
X49376Y-44397D01*
X49358Y-44423D01*
X49346Y-44452D01*
X49340Y-44483D01*
X49339Y-44514D01*
X49339Y-45515D01*
X49346Y-45546D01*
X49358Y-45575D01*
X49375Y-45601D01*
X49397Y-45623D01*
X49423Y-45641D01*
X49452Y-45653D01*
X49483Y-45659D01*
X49514Y-45660D01*
X50115Y-45660D01*
X50146Y-45653D01*
X50175Y-45641D01*
X50201Y-45624D01*
X50223Y-45602D01*
X50241Y-45576D01*
X50253Y-45547D01*
X50259Y-45516D01*
X50260Y-45485D01*
X50260Y-55840D01*
X50020Y-55840D01*
X50013Y-55830D01*
X49922Y-55739D01*
X49815Y-55666D01*
X49696Y-55616D01*
X49569Y-55590D01*
X49439Y-55589D01*
X49312Y-55613D01*
X49192Y-55662D01*
X49084Y-55733D01*
X48991Y-55823D01*
X48980Y-55840D01*
X48863Y-55840D01*
X48863Y-52992D01*
X48863Y-48792D01*
X48849Y-48664D01*
X48810Y-48540D01*
X48756Y-48439D01*
X48664Y-48384D01*
X48615Y-48434D01*
X48615Y-48335D01*
X48560Y-48243D01*
X48446Y-48184D01*
X48321Y-48148D01*
X48192Y-48136D01*
X48064Y-48150D01*
X47940Y-48189D01*
X47839Y-48243D01*
X47784Y-48335D01*
X48200Y-48750D01*
X48615Y-48335D01*
X48615Y-48434D01*
X48249Y-48800D01*
X48664Y-49215D01*
X48756Y-49160D01*
X48815Y-49046D01*
X48851Y-48921D01*
X48863Y-48792D01*
X48863Y-52992D01*
X48849Y-52864D01*
X48810Y-52740D01*
X48756Y-52639D01*
X48664Y-52584D01*
X48615Y-52634D01*
X48615Y-52535D01*
X48615Y-49264D01*
X48200Y-48849D01*
X48150Y-48898D01*
X48150Y-48800D01*
X47735Y-48384D01*
X47643Y-48439D01*
X47584Y-48553D01*
X47548Y-48678D01*
X47536Y-48807D01*
X47550Y-48935D01*
X47589Y-49059D01*
X47643Y-49160D01*
X47735Y-49215D01*
X48150Y-48800D01*
X48150Y-48898D01*
X47784Y-49264D01*
X47839Y-49356D01*
X47953Y-49415D01*
X48078Y-49451D01*
X48207Y-49463D01*
X48335Y-49449D01*
X48459Y-49410D01*
X48560Y-49356D01*
X48615Y-49264D01*
X48615Y-52535D01*
X48560Y-52443D01*
X48446Y-52384D01*
X48321Y-52348D01*
X48192Y-52336D01*
X48064Y-52350D01*
X47940Y-52389D01*
X47839Y-52443D01*
X47784Y-52535D01*
X48200Y-52950D01*
X48615Y-52535D01*
X48615Y-52634D01*
X48249Y-53000D01*
X48664Y-53415D01*
X48756Y-53360D01*
X48815Y-53246D01*
X48851Y-53121D01*
X48863Y-52992D01*
X48863Y-55840D01*
X48615Y-55840D01*
X48615Y-53464D01*
X48200Y-53049D01*
X48150Y-53098D01*
X48150Y-53000D01*
X47735Y-52584D01*
X47643Y-52639D01*
X47584Y-52753D01*
X47548Y-52878D01*
X47536Y-53007D01*
X47550Y-53135D01*
X47589Y-53259D01*
X47643Y-53360D01*
X47735Y-53415D01*
X48150Y-53000D01*
X48150Y-53098D01*
X47784Y-53464D01*
X47839Y-53556D01*
X47953Y-53615D01*
X48078Y-53651D01*
X48207Y-53663D01*
X48335Y-53649D01*
X48459Y-53610D01*
X48560Y-53556D01*
X48615Y-53464D01*
X48615Y-55840D01*
X47750Y-55840D01*
X47712Y-55843D01*
X47674Y-55846D01*
X47672Y-55847D01*
X47670Y-55847D01*
X47634Y-55858D01*
X47597Y-55869D01*
X47595Y-55870D01*
X47593Y-55870D01*
X47560Y-55888D01*
X47526Y-55906D01*
X47525Y-55907D01*
X47523Y-55908D01*
X47493Y-55932D01*
X47464Y-55956D01*
X47461Y-55959D01*
X47461Y-55959D01*
X47461Y-55959D01*
X47460Y-55960D01*
X46860Y-56560D01*
X46860Y-52935D01*
X46860Y-48735D01*
X46834Y-48608D01*
X46785Y-48488D01*
X46713Y-48380D01*
X46622Y-48289D01*
X46515Y-48216D01*
X46396Y-48166D01*
X46269Y-48140D01*
X46139Y-48139D01*
X46012Y-48163D01*
X45892Y-48212D01*
X45784Y-48283D01*
X45691Y-48373D01*
X45618Y-48480D01*
X45567Y-48599D01*
X45540Y-48726D01*
X45539Y-48855D01*
X45562Y-48982D01*
X45610Y-49103D01*
X45680Y-49211D01*
X45770Y-49305D01*
X45876Y-49378D01*
X45995Y-49430D01*
X46121Y-49458D01*
X46250Y-49461D01*
X46378Y-49438D01*
X46499Y-49391D01*
X46608Y-49322D01*
X46702Y-49233D01*
X46776Y-49127D01*
X46829Y-49009D01*
X46857Y-48883D01*
X46860Y-48735D01*
X46860Y-52935D01*
X46834Y-52808D01*
X46785Y-52688D01*
X46713Y-52580D01*
X46622Y-52489D01*
X46515Y-52416D01*
X46396Y-52366D01*
X46269Y-52340D01*
X46139Y-52339D01*
X46012Y-52363D01*
X45892Y-52412D01*
X45784Y-52483D01*
X45691Y-52573D01*
X45618Y-52680D01*
X45567Y-52799D01*
X45540Y-52926D01*
X45539Y-53055D01*
X45562Y-53182D01*
X45610Y-53303D01*
X45680Y-53411D01*
X45770Y-53505D01*
X45876Y-53578D01*
X45995Y-53630D01*
X46121Y-53658D01*
X46250Y-53661D01*
X46378Y-53638D01*
X46499Y-53591D01*
X46608Y-53522D01*
X46702Y-53433D01*
X46776Y-53327D01*
X46829Y-53209D01*
X46857Y-53083D01*
X46860Y-52935D01*
X46860Y-56560D01*
X46210Y-57210D01*
X46186Y-57239D01*
X46161Y-57268D01*
X46160Y-57270D01*
X46160Y-57271D01*
X46160Y-56185D01*
X46134Y-56058D01*
X46085Y-55938D01*
X46013Y-55830D01*
X45922Y-55739D01*
X45815Y-55666D01*
X45696Y-55616D01*
X45569Y-55590D01*
X45439Y-55589D01*
X45312Y-55613D01*
X45192Y-55662D01*
X45084Y-55733D01*
X44991Y-55823D01*
X44918Y-55930D01*
X44867Y-56049D01*
X44840Y-56176D01*
X44839Y-56305D01*
X44862Y-56432D01*
X44910Y-56553D01*
X44980Y-56661D01*
X45070Y-56755D01*
X45176Y-56828D01*
X45295Y-56880D01*
X45421Y-56908D01*
X45550Y-56911D01*
X45678Y-56888D01*
X45799Y-56841D01*
X45908Y-56772D01*
X46002Y-56683D01*
X46076Y-56577D01*
X46129Y-56459D01*
X46157Y-56333D01*
X46160Y-56185D01*
X46160Y-57271D01*
X46159Y-57271D01*
X46141Y-57305D01*
X46123Y-57338D01*
X46122Y-57340D01*
X46121Y-57342D01*
X46110Y-57378D01*
X46098Y-57414D01*
X46098Y-57416D01*
X46098Y-57418D01*
X46094Y-57456D01*
X46090Y-57494D01*
X46090Y-57498D01*
X46090Y-57498D01*
X46090Y-57498D01*
X46090Y-57500D01*
X46090Y-57695D01*
X46079Y-57708D01*
X46031Y-57795D01*
X46001Y-57890D01*
X45990Y-57989D01*
X45990Y-57996D01*
X45990Y-58503D01*
X45999Y-58602D01*
X46028Y-58698D01*
X46075Y-58785D01*
X46138Y-58863D01*
X46214Y-58926D01*
X46302Y-58973D01*
X46397Y-59003D01*
X46496Y-59013D01*
X46595Y-59004D01*
X46691Y-58976D01*
X46779Y-58930D01*
X46856Y-58868D01*
X46920Y-58791D01*
X46968Y-58704D01*
X46998Y-58609D01*
X46999Y-58602D01*
X46999Y-58602D01*
X47028Y-58698D01*
X47075Y-58785D01*
X47138Y-58863D01*
X47214Y-58926D01*
X47302Y-58973D01*
X47397Y-59003D01*
X47496Y-59013D01*
X47595Y-59004D01*
X47691Y-58976D01*
X47779Y-58930D01*
X47856Y-58868D01*
X47920Y-58791D01*
X47968Y-58704D01*
X47998Y-58609D01*
X47999Y-58602D01*
X47999Y-58602D01*
X48028Y-58698D01*
X48075Y-58785D01*
X48138Y-58863D01*
X48214Y-58926D01*
X48302Y-58973D01*
X48397Y-59003D01*
X48496Y-59013D01*
X48595Y-59004D01*
X48691Y-58976D01*
X48779Y-58930D01*
X48856Y-58868D01*
X48920Y-58791D01*
X48968Y-58704D01*
X48998Y-58609D01*
X49009Y-58510D01*
X49010Y-58503D01*
X49010Y-57996D01*
X49000Y-57897D01*
X48971Y-57801D01*
X48924Y-57714D01*
X48861Y-57636D01*
X48785Y-57573D01*
X48697Y-57526D01*
X48602Y-57496D01*
X48503Y-57486D01*
X48404Y-57495D01*
X48308Y-57523D01*
X48220Y-57569D01*
X48143Y-57631D01*
X48079Y-57708D01*
X48031Y-57795D01*
X48001Y-57890D01*
X48000Y-57897D01*
X48000Y-57897D01*
X47971Y-57801D01*
X47924Y-57714D01*
X47861Y-57636D01*
X47785Y-57573D01*
X47697Y-57526D01*
X47602Y-57496D01*
X47503Y-57486D01*
X47404Y-57495D01*
X47308Y-57523D01*
X47220Y-57569D01*
X47143Y-57631D01*
X47079Y-57708D01*
X47031Y-57795D01*
X47001Y-57890D01*
X47000Y-57897D01*
X47000Y-57897D01*
X46971Y-57801D01*
X46924Y-57714D01*
X46910Y-57695D01*
X46910Y-57669D01*
X47919Y-56660D01*
X48979Y-56660D01*
X48980Y-56661D01*
X49070Y-56755D01*
X49176Y-56828D01*
X49295Y-56880D01*
X49421Y-56908D01*
X49550Y-56911D01*
X49678Y-56888D01*
X49799Y-56841D01*
X49908Y-56772D01*
X50002Y-56683D01*
X50018Y-56660D01*
X50479Y-56660D01*
X50480Y-56661D01*
X50570Y-56755D01*
X50676Y-56828D01*
X50795Y-56880D01*
X50921Y-56908D01*
X51050Y-56911D01*
X51178Y-56888D01*
X51299Y-56841D01*
X51408Y-56772D01*
X51425Y-56755D01*
X51590Y-56919D01*
X51590Y-57695D01*
X51579Y-57708D01*
X51531Y-57795D01*
X51501Y-57890D01*
X51490Y-57989D01*
X51490Y-57996D01*
X51490Y-58503D01*
X51499Y-58602D01*
X51528Y-58698D01*
X51575Y-58785D01*
X51638Y-58863D01*
X51714Y-58926D01*
X51802Y-58973D01*
X51897Y-59003D01*
X51996Y-59013D01*
X52095Y-59004D01*
X52191Y-58976D01*
X52279Y-58930D01*
X52356Y-58868D01*
X52420Y-58791D01*
X52468Y-58704D01*
X52498Y-58609D01*
X52500Y-58596D01*
X52506Y-58633D01*
X52541Y-58726D01*
X52594Y-58811D01*
X52662Y-58884D01*
X52743Y-58942D01*
X52834Y-58983D01*
X52885Y-58997D01*
X52965Y-58968D01*
X52965Y-58285D01*
X52957Y-58285D01*
X52957Y-58215D01*
X52965Y-58215D01*
X52965Y-57531D01*
X52885Y-57502D01*
X52834Y-57516D01*
X52743Y-57557D01*
X52662Y-57615D01*
X52594Y-57688D01*
X52541Y-57773D01*
X52506Y-57866D01*
X52500Y-57901D01*
X52500Y-57897D01*
X52471Y-57801D01*
X52424Y-57714D01*
X52410Y-57695D01*
X52410Y-56750D01*
X52406Y-56712D01*
X52403Y-56674D01*
X52402Y-56672D01*
X52402Y-56670D01*
X52391Y-56634D01*
X52380Y-56597D01*
X52379Y-56595D01*
X52379Y-56593D01*
X52361Y-56560D01*
X52343Y-56526D01*
X52342Y-56525D01*
X52341Y-56523D01*
X52317Y-56493D01*
X52293Y-56464D01*
X52290Y-56461D01*
X52290Y-56461D01*
X52290Y-56461D01*
X52289Y-56460D01*
X51789Y-55960D01*
X51760Y-55936D01*
X51731Y-55911D01*
X51729Y-55910D01*
X51728Y-55909D01*
X51694Y-55891D01*
X51661Y-55873D01*
X51659Y-55872D01*
X51657Y-55871D01*
X51621Y-55860D01*
X51585Y-55848D01*
X51583Y-55848D01*
X51581Y-55848D01*
X51543Y-55844D01*
X51521Y-55841D01*
X51513Y-55830D01*
X51422Y-55739D01*
X51410Y-55730D01*
X51410Y-53419D01*
X52019Y-52810D01*
X52415Y-52810D01*
X52446Y-52803D01*
X52475Y-52791D01*
X52501Y-52774D01*
X52523Y-52752D01*
X52541Y-52726D01*
X52553Y-52697D01*
X52559Y-52666D01*
X52560Y-52635D01*
X52560Y-52600D01*
X52635Y-52678D01*
X52725Y-52741D01*
X52826Y-52785D01*
X52933Y-52808D01*
X53043Y-52811D01*
X53151Y-52791D01*
X53253Y-52752D01*
X53346Y-52693D01*
X53381Y-52660D01*
X54530Y-52660D01*
X57590Y-55719D01*
X57590Y-55949D01*
X57585Y-55938D01*
X57513Y-55830D01*
X57422Y-55739D01*
X57315Y-55666D01*
X57196Y-55616D01*
X57069Y-55590D01*
X56939Y-55589D01*
X56812Y-55613D01*
X56692Y-55662D01*
X56584Y-55733D01*
X56491Y-55823D01*
X56418Y-55930D01*
X56367Y-56049D01*
X56340Y-56176D01*
X56339Y-56305D01*
X56362Y-56432D01*
X56410Y-56553D01*
X56480Y-56661D01*
X56570Y-56755D01*
X56676Y-56828D01*
X56795Y-56880D01*
X56921Y-56908D01*
X57050Y-56911D01*
X57178Y-56888D01*
X57299Y-56841D01*
X57408Y-56772D01*
X57502Y-56683D01*
X57576Y-56577D01*
X57590Y-56547D01*
X57590Y-57000D01*
X57590Y-57695D01*
X57579Y-57708D01*
X57531Y-57795D01*
X57501Y-57890D01*
X57490Y-57989D01*
X57490Y-57996D01*
X57490Y-58503D01*
X57499Y-58602D01*
X57528Y-58698D01*
X57575Y-58785D01*
X57638Y-58863D01*
X57714Y-58926D01*
X57802Y-58973D01*
X57897Y-59003D01*
X57996Y-59013D01*
X58095Y-59004D01*
X58191Y-58976D01*
X58279Y-58930D01*
X58356Y-58868D01*
X58420Y-58791D01*
X58468Y-58704D01*
X58498Y-58609D01*
X58499Y-58602D01*
X58499Y-58602D01*
X58528Y-58698D01*
X58575Y-58785D01*
X58638Y-58863D01*
X58714Y-58926D01*
X58802Y-58973D01*
X58897Y-59003D01*
X58996Y-59013D01*
X59095Y-59004D01*
X59191Y-58976D01*
X59279Y-58930D01*
X59356Y-58868D01*
X59420Y-58791D01*
X59468Y-58704D01*
X59498Y-58609D01*
X59499Y-58602D01*
X59499Y-58602D01*
X59528Y-58698D01*
X59575Y-58785D01*
X59638Y-58863D01*
X59714Y-58926D01*
X59802Y-58973D01*
X59897Y-59003D01*
X59996Y-59013D01*
X60095Y-59004D01*
X60191Y-58976D01*
X60279Y-58930D01*
X60356Y-58868D01*
X60420Y-58791D01*
X60468Y-58704D01*
X60498Y-58609D01*
X60509Y-58510D01*
X60510Y-58503D01*
X60510Y-57996D01*
X60500Y-57897D01*
X60471Y-57801D01*
X60424Y-57714D01*
X60361Y-57636D01*
X60285Y-57573D01*
X60197Y-57526D01*
X60102Y-57496D01*
X60003Y-57486D01*
X59904Y-57495D01*
X59808Y-57523D01*
X59720Y-57569D01*
X59643Y-57631D01*
X59579Y-57708D01*
X59531Y-57795D01*
X59501Y-57890D01*
X59500Y-57897D01*
X59500Y-57897D01*
X59471Y-57801D01*
X59424Y-57714D01*
X59361Y-57636D01*
X59285Y-57573D01*
X59197Y-57526D01*
X59102Y-57496D01*
X59003Y-57486D01*
X58904Y-57495D01*
X58808Y-57523D01*
X58720Y-57569D01*
X58643Y-57631D01*
X58579Y-57708D01*
X58531Y-57795D01*
X58501Y-57890D01*
X58500Y-57897D01*
X58500Y-57897D01*
X58471Y-57801D01*
X58424Y-57714D01*
X58410Y-57695D01*
X58410Y-57000D01*
X58410Y-55960D01*
X59130Y-55960D01*
X59710Y-56539D01*
X59739Y-56563D01*
X59768Y-56588D01*
X59770Y-56589D01*
X59771Y-56590D01*
X59805Y-56608D01*
X59838Y-56626D01*
X59840Y-56627D01*
X59842Y-56628D01*
X59878Y-56639D01*
X59914Y-56651D01*
X59916Y-56651D01*
X59918Y-56651D01*
X59956Y-56655D01*
X59994Y-56659D01*
X59998Y-56659D01*
X59998Y-56659D01*
X59998Y-56659D01*
X60000Y-56660D01*
X60479Y-56660D01*
X60480Y-56661D01*
X60570Y-56755D01*
X60676Y-56828D01*
X60795Y-56880D01*
X60921Y-56908D01*
X61050Y-56911D01*
X61178Y-56888D01*
X61299Y-56841D01*
X61408Y-56772D01*
X61502Y-56683D01*
X61518Y-56660D01*
X61979Y-56660D01*
X61980Y-56661D01*
X62070Y-56755D01*
X62176Y-56828D01*
X62295Y-56880D01*
X62421Y-56908D01*
X62550Y-56911D01*
X62678Y-56888D01*
X62799Y-56841D01*
X62908Y-56772D01*
X63002Y-56683D01*
X63018Y-56660D01*
X63080Y-56660D01*
X63090Y-56669D01*
X63090Y-57695D01*
X63079Y-57708D01*
X63031Y-57795D01*
X63001Y-57890D01*
X62990Y-57989D01*
X62990Y-57996D01*
X62990Y-58503D01*
X62999Y-58602D01*
X63028Y-58698D01*
X63075Y-58785D01*
X63138Y-58863D01*
X63214Y-58926D01*
X63302Y-58973D01*
X63397Y-59003D01*
X63496Y-59013D01*
X63595Y-59004D01*
X63691Y-58976D01*
X63779Y-58930D01*
X63856Y-58868D01*
X63920Y-58791D01*
X63968Y-58704D01*
X63998Y-58609D01*
X64000Y-58596D01*
X64006Y-58633D01*
X64041Y-58726D01*
X64094Y-58811D01*
X64162Y-58884D01*
X64243Y-58942D01*
X64334Y-58983D01*
X64385Y-58997D01*
X64465Y-58968D01*
X64465Y-59570D01*
X55663Y-59570D01*
X55663Y-56242D01*
X55649Y-56114D01*
X55610Y-55990D01*
X55556Y-55889D01*
X55464Y-55834D01*
X55415Y-55884D01*
X55415Y-55785D01*
X55360Y-55693D01*
X55246Y-55634D01*
X55121Y-55598D01*
X54992Y-55586D01*
X54864Y-55600D01*
X54740Y-55639D01*
X54639Y-55693D01*
X54584Y-55785D01*
X55000Y-56200D01*
X55415Y-55785D01*
X55415Y-55884D01*
X55049Y-56250D01*
X55464Y-56665D01*
X55556Y-56610D01*
X55615Y-56496D01*
X55651Y-56371D01*
X55663Y-56242D01*
X55663Y-59570D01*
X55415Y-59570D01*
X55415Y-56714D01*
X55000Y-56299D01*
X54950Y-56348D01*
X54950Y-56250D01*
X54535Y-55834D01*
X54443Y-55889D01*
X54384Y-56003D01*
X54348Y-56128D01*
X54336Y-56257D01*
X54350Y-56385D01*
X54389Y-56509D01*
X54443Y-56610D01*
X54535Y-56665D01*
X54950Y-56250D01*
X54950Y-56348D01*
X54584Y-56714D01*
X54639Y-56806D01*
X54753Y-56865D01*
X54878Y-56901D01*
X55007Y-56913D01*
X55135Y-56899D01*
X55259Y-56860D01*
X55360Y-56806D01*
X55415Y-56714D01*
X55415Y-59570D01*
X54510Y-59570D01*
X54510Y-58503D01*
X54510Y-57996D01*
X54500Y-57897D01*
X54471Y-57801D01*
X54424Y-57714D01*
X54361Y-57636D01*
X54285Y-57573D01*
X54260Y-57559D01*
X54260Y-53550D01*
X54260Y-53300D01*
X54257Y-53276D01*
X54255Y-53252D01*
X54255Y-53250D01*
X54255Y-53249D01*
X54248Y-53226D01*
X54241Y-53203D01*
X54240Y-53202D01*
X54240Y-53200D01*
X54229Y-53179D01*
X54218Y-53158D01*
X54217Y-53157D01*
X54216Y-53156D01*
X54201Y-53137D01*
X54186Y-53118D01*
X54185Y-53117D01*
X54185Y-53117D01*
X54172Y-53052D01*
X54147Y-52991D01*
X54110Y-52937D01*
X54064Y-52890D01*
X54010Y-52853D01*
X53949Y-52828D01*
X53885Y-52815D01*
X53819Y-52814D01*
X53754Y-52827D01*
X53694Y-52851D01*
X53639Y-52887D01*
X53592Y-52933D01*
X53555Y-52987D01*
X53529Y-53048D01*
X53515Y-53112D01*
X53514Y-53178D01*
X53526Y-53242D01*
X53550Y-53303D01*
X53586Y-53359D01*
X53631Y-53406D01*
X53685Y-53443D01*
X53740Y-53467D01*
X53740Y-53550D01*
X53740Y-57559D01*
X53720Y-57569D01*
X53643Y-57631D01*
X53579Y-57708D01*
X53531Y-57795D01*
X53501Y-57890D01*
X53499Y-57903D01*
X53493Y-57866D01*
X53458Y-57773D01*
X53405Y-57688D01*
X53337Y-57615D01*
X53256Y-57557D01*
X53165Y-57516D01*
X53114Y-57502D01*
X53035Y-57531D01*
X53035Y-58215D01*
X53042Y-58215D01*
X53042Y-58285D01*
X53035Y-58285D01*
X53035Y-58968D01*
X53114Y-58997D01*
X53165Y-58983D01*
X53256Y-58942D01*
X53337Y-58884D01*
X53405Y-58811D01*
X53458Y-58726D01*
X53493Y-58633D01*
X53499Y-58598D01*
X53499Y-58602D01*
X53528Y-58698D01*
X53575Y-58785D01*
X53638Y-58863D01*
X53714Y-58926D01*
X53802Y-58973D01*
X53897Y-59003D01*
X53996Y-59013D01*
X54095Y-59004D01*
X54191Y-58976D01*
X54279Y-58930D01*
X54356Y-58868D01*
X54420Y-58791D01*
X54468Y-58704D01*
X54498Y-58609D01*
X54509Y-58510D01*
X54510Y-58503D01*
X54510Y-59570D01*
X44160Y-59570D01*
X44160Y-55136D01*
X44115Y-54913D01*
X44029Y-54702D01*
X43903Y-54513D01*
X43742Y-54351D01*
X43554Y-54224D01*
X43344Y-54136D01*
X43121Y-54090D01*
X42894Y-54089D01*
X42670Y-54131D01*
X42459Y-54217D01*
X42269Y-54341D01*
X42107Y-54500D01*
X41978Y-54688D01*
X41888Y-54897D01*
X41841Y-55120D01*
X41838Y-55347D01*
X41879Y-55571D01*
X41963Y-55782D01*
X42086Y-55974D01*
X42244Y-56137D01*
X42431Y-56267D01*
X42639Y-56358D01*
X42861Y-56407D01*
X43089Y-56412D01*
X43313Y-56372D01*
X43525Y-56290D01*
X43717Y-56168D01*
X43882Y-56011D01*
X44013Y-55825D01*
X44106Y-55617D01*
X44156Y-55396D01*
X44160Y-55136D01*
X44160Y-59570D01*
X42008Y-59570D01*
X41840Y-59553D01*
X41687Y-59507D01*
X41546Y-59432D01*
X41422Y-59331D01*
X41320Y-59208D01*
X41244Y-59067D01*
X41197Y-58914D01*
X41179Y-58747D01*
X41179Y-43740D01*
X47140Y-43740D01*
X47140Y-37056D01*
X48886Y-35310D01*
X54460Y-35310D01*
X54460Y-39122D01*
X54216Y-39366D01*
X54200Y-39384D01*
X54185Y-39403D01*
X54184Y-39404D01*
X54183Y-39405D01*
X54172Y-39426D01*
X54161Y-39447D01*
X54160Y-39448D01*
X54159Y-39450D01*
X54152Y-39473D01*
X54145Y-39495D01*
X54145Y-39497D01*
X54145Y-39498D01*
X54142Y-39522D01*
X54140Y-39546D01*
X54140Y-39549D01*
X54140Y-39549D01*
X54140Y-39549D01*
X54140Y-39550D01*
X54140Y-43900D01*
X54140Y-45242D01*
X54067Y-45315D01*
X54004Y-45327D01*
X53944Y-45351D01*
X53889Y-45387D01*
X53842Y-45433D01*
X53805Y-45487D01*
X53779Y-45548D01*
X53765Y-45612D01*
X53764Y-45678D01*
X53776Y-45742D01*
X53800Y-45803D01*
X53836Y-45859D01*
X53881Y-45906D01*
X53935Y-45943D01*
X53995Y-45970D01*
X54060Y-45984D01*
X54125Y-45985D01*
X54190Y-45974D01*
X54251Y-45950D01*
X54307Y-45915D01*
X54354Y-45869D01*
X54392Y-45816D01*
X54419Y-45756D01*
X54433Y-45692D01*
X54434Y-45683D01*
X54460Y-45657D01*
X54460Y-47040D01*
X70820Y-47040D01*
X70820Y-58741D01*
M02*
