%FSLAX25Y25*%
%MOIN*%
G70*
G01*
G75*
G04 Layer_Physical_Order=1*
G04 Layer_Color=255*
%ADD10C,0.02362*%
%ADD11C,0.02063*%
%ADD12R,0.01969X0.07874*%
%ADD13C,0.00984*%
%ADD14C,0.01000*%
%ADD15C,0.00787*%
%ADD16C,0.01969*%
%ADD17C,0.01378*%
%ADD18C,0.01181*%
%ADD19C,0.06000*%
%ADD20R,0.06000X0.06000*%
%ADD21C,0.05906*%
%ADD22R,0.05906X0.05906*%
%ADD23O,0.07874X0.11811*%
%ADD24C,0.09843*%
%ADD25C,0.07874*%
%ADD26R,0.05906X0.05906*%
%ADD27R,0.04724X0.06693*%
%ADD28C,0.02756*%
%ADD29C,0.02598*%
G36*
X595894Y486000D02*
X596017Y485386D01*
X596365Y484865D01*
X596885Y484517D01*
X597500Y484394D01*
X626894D01*
Y374421D01*
X619516D01*
Y366453D01*
X626894D01*
Y326106D01*
X605500D01*
X604885Y325983D01*
X604365Y325635D01*
X604017Y325114D01*
X603894Y324500D01*
Y302106D01*
X597560D01*
X596699Y302812D01*
X595673Y303360D01*
X594560Y303698D01*
X593402Y303812D01*
X592245Y303698D01*
X591131Y303360D01*
X590106Y302812D01*
X589245Y302106D01*
X558190D01*
X557329Y302812D01*
X556303Y303360D01*
X555190Y303698D01*
X554032Y303812D01*
X552875Y303698D01*
X551761Y303360D01*
X550736Y302812D01*
X549875Y302106D01*
X225606D01*
Y324500D01*
X225483Y325114D01*
X225135Y325635D01*
X224615Y325983D01*
X224000Y326106D01*
X202106D01*
Y429795D01*
X202893Y429873D01*
X202910Y429788D01*
X203345Y429137D01*
X203996Y428702D01*
X204764Y428549D01*
X205316Y428659D01*
X206103Y428208D01*
Y413232D01*
X206256Y412464D01*
X206691Y411813D01*
X207342Y411378D01*
X208110Y411225D01*
X208878Y411378D01*
X209529Y411813D01*
X209964Y412464D01*
X210117Y413232D01*
Y432176D01*
X211327Y432678D01*
X212344Y432922D01*
X212962Y432434D01*
Y410871D01*
X213115Y410103D01*
X213550Y409452D01*
X214201Y409017D01*
X214969Y408864D01*
X215737Y409017D01*
X216388Y409452D01*
X216823Y410103D01*
X216976Y410871D01*
Y432434D01*
X217594Y432922D01*
X218611Y432678D01*
X219883Y432151D01*
Y413232D01*
X220036Y412464D01*
X220471Y411813D01*
X221122Y411378D01*
X221890Y411225D01*
X222658Y411378D01*
X223309Y411813D01*
X223744Y412464D01*
X223897Y413232D01*
Y428209D01*
X224684Y428659D01*
X225237Y428549D01*
X226005Y428702D01*
X226656Y429137D01*
X227091Y429788D01*
X227244Y430556D01*
Y431343D01*
X227091Y432111D01*
X226656Y432763D01*
X226315Y432990D01*
X224479Y434559D01*
X222314Y435885D01*
X219969Y436857D01*
X217500Y437449D01*
X216374Y437538D01*
Y456887D01*
X234582Y475095D01*
X250299D01*
X250601Y474368D01*
X249352Y473118D01*
X249200Y473130D01*
X249181Y473134D01*
X249152Y473140D01*
X249131Y473136D01*
X248969Y473148D01*
X246438Y472949D01*
X243969Y472357D01*
X241624Y471385D01*
X239459Y470059D01*
X237926Y468749D01*
X237345Y468263D01*
X237345Y468263D01*
X237050Y467821D01*
X236910Y467611D01*
X236757Y466843D01*
Y466056D01*
X236910Y465288D01*
X237345Y464637D01*
X237996Y464202D01*
X238764Y464049D01*
X239316Y464159D01*
X240103Y463708D01*
Y448732D01*
X240256Y447964D01*
X240691Y447313D01*
X241342Y446878D01*
X242110Y446725D01*
X242878Y446878D01*
X243529Y447313D01*
X243965Y447964D01*
X244117Y448732D01*
Y467676D01*
X245327Y468178D01*
X246343Y468422D01*
X246962Y467934D01*
Y446371D01*
X247115Y445603D01*
X247550Y444952D01*
X248201Y444517D01*
X248969Y444364D01*
X249737Y444517D01*
X250388Y444952D01*
X250823Y445603D01*
X250976Y446371D01*
Y467934D01*
X251594Y468422D01*
X252611Y468178D01*
X253883Y467651D01*
Y448732D01*
X254035Y447964D01*
X254471Y447313D01*
X255122Y446878D01*
X255890Y446725D01*
X256658Y446878D01*
X257309Y447313D01*
X257744Y447964D01*
X257897Y448732D01*
Y463709D01*
X258684Y464159D01*
X259237Y464049D01*
X260005Y464202D01*
X260656Y464637D01*
X261091Y465288D01*
X261244Y466056D01*
Y466843D01*
X261091Y467611D01*
X260656Y468263D01*
X260315Y468490D01*
X258479Y470059D01*
X256314Y471385D01*
X253969Y472357D01*
X253940Y472364D01*
X253681Y473187D01*
X254019Y473595D01*
X351000D01*
X351538Y473702D01*
X351993Y474007D01*
X352582Y474595D01*
X363098D01*
X363297Y474297D01*
X364078Y473775D01*
X365000Y473592D01*
X365446Y473680D01*
X365528Y473570D01*
X365131Y472783D01*
X345929D01*
X345392Y472676D01*
X344936Y472371D01*
X339969Y467405D01*
X268902D01*
X268703Y467703D01*
X267922Y468225D01*
X267000Y468408D01*
X266078Y468225D01*
X265297Y467703D01*
X264775Y466922D01*
X264592Y466000D01*
X264775Y465078D01*
X265297Y464297D01*
X266078Y463775D01*
X266235Y463744D01*
X266260Y463660D01*
X266206Y463502D01*
X265682Y462845D01*
X265078Y462725D01*
X264297Y462203D01*
X263775Y461422D01*
X263592Y460500D01*
X263775Y459578D01*
X264297Y458797D01*
X265078Y458275D01*
X266000Y458091D01*
X266356Y458162D01*
X267265Y457629D01*
X267275Y457578D01*
X267797Y456797D01*
X268578Y456275D01*
X269500Y456091D01*
X270422Y456275D01*
X271203Y456797D01*
X271725Y457578D01*
X271828Y458095D01*
X327418D01*
X329402Y456111D01*
X329275Y455922D01*
X329092Y455000D01*
X329275Y454078D01*
X329797Y453297D01*
X330578Y452775D01*
X330961Y452699D01*
X331501Y452568D01*
X331532Y451843D01*
X331485Y451606D01*
X331669Y450685D01*
X332191Y449903D01*
X332972Y449381D01*
X333894Y449198D01*
X334148Y449248D01*
X334536Y448523D01*
X318474Y432461D01*
X295121D01*
X295091Y432611D01*
X294656Y433263D01*
X294315Y433490D01*
X292479Y435059D01*
X290314Y436385D01*
X287969Y437357D01*
X285500Y437949D01*
X282969Y438148D01*
X280438Y437949D01*
X277969Y437357D01*
X275624Y436385D01*
X273459Y435059D01*
X271926Y433749D01*
X271345Y433263D01*
X271345Y433263D01*
X271050Y432821D01*
X270910Y432611D01*
X270757Y431843D01*
Y431056D01*
X270910Y430288D01*
X271345Y429637D01*
X271996Y429202D01*
X272764Y429049D01*
X273316Y429159D01*
X274103Y428708D01*
Y413732D01*
X274256Y412964D01*
X274691Y412313D01*
X275342Y411878D01*
X276110Y411725D01*
X276878Y411878D01*
X277529Y412313D01*
X277964Y412964D01*
X278117Y413732D01*
Y432676D01*
X279327Y433178D01*
X280344Y433422D01*
X280962Y432934D01*
Y411371D01*
X281115Y410603D01*
X281550Y409952D01*
X282201Y409517D01*
X282969Y409364D01*
X283737Y409517D01*
X284388Y409952D01*
X284823Y410603D01*
X284976Y411371D01*
Y432934D01*
X285594Y433422D01*
X286611Y433178D01*
X287883Y432651D01*
Y413732D01*
X288035Y412964D01*
X288471Y412313D01*
X289122Y411878D01*
X289890Y411725D01*
X290658Y411878D01*
X291309Y412313D01*
X291744Y412964D01*
X291897Y413732D01*
Y428709D01*
X292684Y429159D01*
X293237Y429049D01*
X294005Y429202D01*
X294656Y429637D01*
X294665Y429651D01*
X301635D01*
X301937Y428924D01*
X299507Y426494D01*
X299202Y426038D01*
X299095Y425500D01*
Y407082D01*
X292974Y400961D01*
X287188D01*
X286759Y401748D01*
X286909Y402500D01*
X286725Y403422D01*
X286203Y404203D01*
X285422Y404725D01*
X284500Y404909D01*
X283578Y404725D01*
X283252Y404507D01*
X275831D01*
X268979Y411359D01*
X269007Y411500D01*
Y424752D01*
X269225Y425078D01*
X269408Y426000D01*
X269225Y426922D01*
X268703Y427703D01*
X267922Y428225D01*
X267537Y428302D01*
X265919Y429919D01*
X265268Y430354D01*
X264500Y430507D01*
X253748D01*
X253422Y430725D01*
X252500Y430908D01*
X251578Y430725D01*
X250797Y430203D01*
X250275Y429422D01*
X250092Y428500D01*
X250275Y427578D01*
X250797Y426797D01*
X251578Y426275D01*
X252500Y426091D01*
X253422Y426275D01*
X253748Y426493D01*
X263669D01*
X264698Y425463D01*
X264775Y425078D01*
X264993Y424752D01*
Y413007D01*
X257834D01*
X257703Y413203D01*
X256922Y413725D01*
X256000Y413908D01*
X255078Y413725D01*
X254297Y413203D01*
X253775Y412422D01*
X253591Y411500D01*
X253775Y410578D01*
X254297Y409797D01*
X255078Y409275D01*
X256000Y409092D01*
X256002Y409092D01*
X256500Y408993D01*
X265252D01*
X265578Y408775D01*
X265963Y408698D01*
X272913Y401748D01*
X272587Y400961D01*
X261121D01*
X261091Y401111D01*
X260656Y401763D01*
X260315Y401990D01*
X258479Y403559D01*
X256314Y404885D01*
X253969Y405857D01*
X251500Y406449D01*
X248969Y406648D01*
X246438Y406449D01*
X243969Y405857D01*
X241624Y404885D01*
X239459Y403559D01*
X237926Y402249D01*
X237345Y401763D01*
X237345Y401763D01*
X237050Y401321D01*
X236910Y401111D01*
X236757Y400343D01*
Y399556D01*
X236910Y398788D01*
X237345Y398137D01*
X237996Y397702D01*
X238764Y397549D01*
X239316Y397659D01*
X240103Y397208D01*
Y382232D01*
X240256Y381464D01*
X240691Y380813D01*
X241342Y380378D01*
X242110Y380225D01*
X242878Y380378D01*
X243529Y380813D01*
X243965Y381464D01*
X244117Y382232D01*
Y401176D01*
X245327Y401678D01*
X246343Y401922D01*
X246962Y401434D01*
Y379871D01*
X247115Y379103D01*
X247550Y378452D01*
X248201Y378017D01*
X248969Y377864D01*
X249737Y378017D01*
X250388Y378452D01*
X250823Y379103D01*
X250976Y379871D01*
Y401434D01*
X251594Y401922D01*
X252611Y401678D01*
X253883Y401151D01*
Y382232D01*
X254035Y381464D01*
X254471Y380813D01*
X255122Y380378D01*
X255890Y380225D01*
X256658Y380378D01*
X257309Y380813D01*
X257744Y381464D01*
X257897Y382232D01*
Y397209D01*
X258684Y397659D01*
X259237Y397549D01*
X260005Y397702D01*
X260656Y398137D01*
X260665Y398151D01*
X293556D01*
X294094Y398258D01*
X294549Y398563D01*
X301493Y405507D01*
X301798Y405962D01*
X301905Y406500D01*
Y424918D01*
X304582Y427595D01*
X319500D01*
X320038Y427702D01*
X320493Y428007D01*
X341993Y449507D01*
X342298Y449962D01*
X342405Y450500D01*
Y452949D01*
X343000Y453591D01*
X343922Y453775D01*
X344703Y454297D01*
X345225Y455078D01*
X345409Y456000D01*
X345225Y456922D01*
X344703Y457703D01*
Y457963D01*
X345203Y458297D01*
X345725Y459078D01*
X345908Y460000D01*
X345725Y460922D01*
X345203Y461703D01*
X344422Y462225D01*
X343500Y462408D01*
X342578Y462225D01*
X341797Y461703D01*
X341275Y460922D01*
X341091Y460000D01*
X341161Y459648D01*
X338507Y456993D01*
X338202Y456538D01*
X338095Y456000D01*
Y452082D01*
X336977Y450964D01*
X336252Y451352D01*
X336302Y451606D01*
X336119Y452528D01*
X335597Y453309D01*
X335502Y453372D01*
Y455903D01*
X335395Y456440D01*
X335091Y456896D01*
X330025Y461962D01*
X329569Y462266D01*
X329362Y462308D01*
X329440Y463095D01*
X341000D01*
X341538Y463202D01*
X341993Y463507D01*
X347082Y468595D01*
X349557D01*
X349796Y467808D01*
X349640Y467703D01*
X349117Y466922D01*
X348934Y466000D01*
X349117Y465078D01*
X349640Y464297D01*
X349938Y464098D01*
Y448424D01*
X341352Y439839D01*
X341000Y439909D01*
X340078Y439725D01*
X339297Y439203D01*
X338775Y438422D01*
X338592Y437500D01*
X338775Y436578D01*
X339297Y435797D01*
X340078Y435275D01*
X341000Y435091D01*
X341922Y435275D01*
X342703Y435797D01*
X343225Y436578D01*
X343408Y437500D01*
X343338Y437852D01*
X352336Y446849D01*
X352641Y447305D01*
X352748Y447843D01*
Y464098D01*
X353046Y464297D01*
X353568Y465078D01*
X353751Y466000D01*
X354393Y466595D01*
X426918D01*
X457095Y436418D01*
Y429902D01*
X456797Y429703D01*
X456275Y428922D01*
X456091Y428000D01*
X456275Y427078D01*
X456797Y426297D01*
X457578Y425775D01*
X458500Y425592D01*
X459422Y425775D01*
X460203Y426297D01*
X460725Y427078D01*
X460909Y428000D01*
X460725Y428922D01*
X460203Y429703D01*
X459905Y429902D01*
Y437000D01*
X459798Y437538D01*
X459493Y437993D01*
X428493Y468994D01*
X428038Y469298D01*
X427500Y469405D01*
X373421D01*
X373119Y470132D01*
X374648Y471662D01*
X375000Y471592D01*
X375922Y471775D01*
X376703Y472297D01*
X377225Y473078D01*
X377409Y474000D01*
X377225Y474922D01*
X376703Y475703D01*
X375922Y476225D01*
X375000Y476408D01*
X374353Y476280D01*
X374225Y476922D01*
X373703Y477703D01*
X372922Y478225D01*
X372000Y478408D01*
X371078Y478225D01*
X370482Y477827D01*
X369728Y477888D01*
X369519Y477956D01*
X369493Y477993D01*
X368131Y479356D01*
X367675Y479660D01*
X367138Y479767D01*
X352362D01*
X351825Y479660D01*
X351369Y479356D01*
X349918Y477905D01*
X318293D01*
X318055Y478692D01*
X318206Y478794D01*
X345207Y505794D01*
X510801D01*
X511578Y505275D01*
X512500Y505091D01*
X513422Y505275D01*
X514203Y505797D01*
X514725Y506578D01*
X514909Y507500D01*
X514725Y508422D01*
X514203Y509203D01*
X513422Y509725D01*
X512500Y509908D01*
X511578Y509725D01*
X510801Y509206D01*
X344500D01*
X343847Y509076D01*
X343294Y508706D01*
X316293Y481706D01*
X279199D01*
X278422Y482225D01*
X277500Y482409D01*
X276578Y482225D01*
X275797Y481703D01*
X275275Y480922D01*
X275092Y480000D01*
X275275Y479078D01*
X275533Y478692D01*
X275112Y477905D01*
X234000D01*
X233462Y477798D01*
X233007Y477493D01*
X213976Y458462D01*
X213671Y458007D01*
X213564Y457469D01*
Y437538D01*
X212438Y437449D01*
X209969Y436857D01*
X207624Y435885D01*
X205459Y434559D01*
X203926Y433249D01*
X203345Y432763D01*
X203345Y432763D01*
X203050Y432321D01*
X202910Y432111D01*
X202893Y432027D01*
X202106Y432104D01*
Y487394D01*
X233000D01*
X233614Y487517D01*
X234135Y487865D01*
X234483Y488385D01*
X234606Y489000D01*
Y512894D01*
X595894D01*
Y486000D01*
D02*
G37*
%LPC*%
G36*
X322177Y367799D02*
X315484D01*
Y359138D01*
X322177D01*
Y367799D01*
D02*
G37*
G36*
X213437Y365437D02*
X205563D01*
Y357563D01*
X213437D01*
Y365437D01*
D02*
G37*
G36*
X513516Y367799D02*
X506823D01*
Y359138D01*
X513516D01*
Y367799D01*
D02*
G37*
G36*
X545500Y389758D02*
X544010Y389562D01*
X542621Y388986D01*
X541429Y388071D01*
X540514Y386879D01*
X539938Y385490D01*
X539742Y384000D01*
X539938Y382510D01*
X540514Y381121D01*
X541429Y379928D01*
X542621Y379013D01*
X544010Y378438D01*
X545500Y378242D01*
X546990Y378438D01*
X548379Y379013D01*
X549572Y379928D01*
X550487Y381121D01*
X551062Y382510D01*
X551258Y384000D01*
X551062Y385490D01*
X550487Y386879D01*
X549572Y388071D01*
X548379Y388986D01*
X546990Y389562D01*
X545500Y389758D01*
D02*
G37*
G36*
X283500D02*
X282010Y389562D01*
X280621Y388986D01*
X279429Y388071D01*
X278514Y386879D01*
X277938Y385490D01*
X277742Y384000D01*
X277938Y382510D01*
X278514Y381121D01*
X279429Y379928D01*
X280621Y379013D01*
X282010Y378438D01*
X283500Y378242D01*
X284990Y378438D01*
X286379Y379013D01*
X287572Y379928D01*
X288487Y381121D01*
X289062Y382510D01*
X289258Y384000D01*
X289062Y385490D01*
X288487Y386879D01*
X287572Y388071D01*
X286379Y388986D01*
X284990Y389562D01*
X283500Y389758D01*
D02*
G37*
G36*
X573717Y342212D02*
X572433Y342043D01*
X571236Y341547D01*
X570208Y340758D01*
X569419Y339730D01*
X568923Y338533D01*
X568754Y337248D01*
X568923Y335963D01*
X569419Y334766D01*
X570208Y333738D01*
X571236Y332949D01*
X572433Y332453D01*
X573717Y332284D01*
X575002Y332453D01*
X576199Y332949D01*
X577227Y333738D01*
X578016Y334766D01*
X578512Y335963D01*
X578681Y337248D01*
X578512Y338533D01*
X578016Y339730D01*
X577227Y340758D01*
X576199Y341547D01*
X575002Y342043D01*
X573717Y342212D01*
D02*
G37*
G36*
X298748Y317932D02*
X297463Y317763D01*
X296266Y317267D01*
X295238Y316478D01*
X294449Y315451D01*
X294079Y314556D01*
X293343Y314264D01*
X293161Y314267D01*
X292883Y314480D01*
X291914Y314882D01*
X290874Y315019D01*
X289834Y314882D01*
X288865Y314480D01*
X288032Y313842D01*
X287394Y313009D01*
X287363Y312935D01*
X286511D01*
X286480Y313009D01*
X285842Y313842D01*
X285009Y314480D01*
X284040Y314882D01*
X283000Y315019D01*
X281960Y314882D01*
X280991Y314480D01*
X280158Y313842D01*
X279520Y313009D01*
X279489Y312935D01*
X278637D01*
X278606Y313009D01*
X277968Y313842D01*
X277135Y314480D01*
X276166Y314882D01*
X275126Y315019D01*
X274086Y314882D01*
X273117Y314480D01*
X272839Y314267D01*
X272656Y314264D01*
X271921Y314556D01*
X271551Y315451D01*
X270762Y316478D01*
X269734Y317267D01*
X268537Y317763D01*
X267252Y317932D01*
X265967Y317763D01*
X264770Y317267D01*
X263742Y316478D01*
X262953Y315451D01*
X262457Y314253D01*
X262288Y312969D01*
Y309032D01*
X262457Y307747D01*
X262953Y306550D01*
X263742Y305522D01*
X264770Y304733D01*
X265967Y304237D01*
X267252Y304068D01*
X268537Y304237D01*
X269734Y304733D01*
X270762Y305522D01*
X271551Y306550D01*
X271921Y307445D01*
X272656Y307736D01*
X272839Y307733D01*
X273117Y307520D01*
X274086Y307118D01*
X275126Y306981D01*
X276166Y307118D01*
X277135Y307520D01*
X277968Y308158D01*
X278606Y308991D01*
X278637Y309065D01*
X279489D01*
X279520Y308991D01*
X280158Y308158D01*
X280991Y307520D01*
X281960Y307118D01*
X283000Y306981D01*
X284040Y307118D01*
X285009Y307520D01*
X285842Y308158D01*
X286480Y308991D01*
X286511Y309065D01*
X287363D01*
X287394Y308991D01*
X288032Y308158D01*
X288865Y307520D01*
X289834Y307118D01*
X290874Y306981D01*
X291914Y307118D01*
X292883Y307520D01*
X293161Y307733D01*
X293343Y307736D01*
X294079Y307445D01*
X294449Y306550D01*
X295238Y305522D01*
X296266Y304733D01*
X297463Y304237D01*
X298748Y304068D01*
X300033Y304237D01*
X301230Y304733D01*
X302258Y305522D01*
X303047Y306550D01*
X303543Y307747D01*
X303712Y309032D01*
Y312969D01*
X303543Y314253D01*
X303047Y315451D01*
X302258Y316478D01*
X301230Y317267D01*
X300033Y317763D01*
X298748Y317932D01*
D02*
G37*
G36*
X246937Y314937D02*
X239063D01*
Y307063D01*
X246937D01*
Y314937D01*
D02*
G37*
G36*
X303870Y321782D02*
X302948Y321599D01*
X302167Y321077D01*
X301645Y320296D01*
X301462Y319374D01*
X301645Y318452D01*
X302167Y317671D01*
X302948Y317149D01*
X303870Y316966D01*
X304792Y317149D01*
X305573Y317671D01*
X306095Y318452D01*
X306279Y319374D01*
X306095Y320296D01*
X305573Y321077D01*
X304792Y321599D01*
X303870Y321782D01*
D02*
G37*
G36*
X589465Y341818D02*
X588181Y341649D01*
X586983Y341153D01*
X585955Y340364D01*
X585167Y339336D01*
X584671Y338139D01*
X584502Y336854D01*
X584671Y335570D01*
X585167Y334372D01*
X585955Y333344D01*
X586983Y332556D01*
X588181Y332060D01*
X589465Y331891D01*
X590750Y332060D01*
X591947Y332556D01*
X592975Y333344D01*
X593764Y334372D01*
X594260Y335570D01*
X594429Y336854D01*
X594260Y338139D01*
X593764Y339336D01*
X592975Y340364D01*
X591947Y341153D01*
X590750Y341649D01*
X589465Y341818D01*
D02*
G37*
G36*
X525130Y321782D02*
X524208Y321599D01*
X523427Y321077D01*
X522905Y320296D01*
X522721Y319374D01*
X522905Y318452D01*
X523427Y317671D01*
X524208Y317149D01*
X525130Y316966D01*
X526052Y317149D01*
X526833Y317671D01*
X527355Y318452D01*
X527538Y319374D01*
X527355Y320296D01*
X526833Y321077D01*
X526052Y321599D01*
X525130Y321782D01*
D02*
G37*
G36*
X548444Y509744D02*
X547657D01*
X546889Y509591D01*
X546237Y509156D01*
X546010Y508815D01*
X544441Y506979D01*
X543115Y504814D01*
X542143Y502469D01*
X541551Y500000D01*
X541543Y499905D01*
X508902D01*
X508703Y500203D01*
X507922Y500725D01*
X507000Y500909D01*
X506078Y500725D01*
X505297Y500203D01*
X504775Y499422D01*
X504592Y498500D01*
X504775Y497578D01*
X505297Y496797D01*
X506078Y496275D01*
X507000Y496092D01*
X507922Y496275D01*
X508703Y496797D01*
X508902Y497095D01*
X541381D01*
X541551Y494938D01*
X542143Y492469D01*
X543115Y490124D01*
X544441Y487959D01*
X545751Y486426D01*
X546237Y485845D01*
X546237Y485845D01*
X546679Y485550D01*
X546889Y485410D01*
X547657Y485257D01*
X548444D01*
X549212Y485410D01*
X549863Y485845D01*
X550298Y486496D01*
X550451Y487264D01*
X550341Y487816D01*
X550792Y488603D01*
X565768D01*
X566536Y488756D01*
X567187Y489191D01*
X567622Y489842D01*
X567775Y490610D01*
X567622Y491378D01*
X567187Y492029D01*
X566536Y492464D01*
X565768Y492617D01*
X546824D01*
X546322Y493827D01*
X546078Y494843D01*
X546566Y495462D01*
X568129D01*
X568897Y495615D01*
X569548Y496050D01*
X569983Y496701D01*
X570136Y497469D01*
X569983Y498237D01*
X569548Y498888D01*
X568897Y499323D01*
X568129Y499476D01*
X546566D01*
X546078Y500094D01*
X546322Y501111D01*
X546849Y502383D01*
X565768D01*
X566536Y502535D01*
X567187Y502971D01*
X567622Y503622D01*
X567775Y504390D01*
X567622Y505158D01*
X567187Y505809D01*
X566536Y506244D01*
X565768Y506397D01*
X550791D01*
X550341Y507184D01*
X550451Y507737D01*
X550298Y508505D01*
X549863Y509156D01*
X549212Y509591D01*
X548444Y509744D01*
D02*
G37*
G36*
X538500Y488423D02*
X537729Y488322D01*
X537011Y488024D01*
X536394Y487551D01*
X535921Y486934D01*
X535623Y486216D01*
X535522Y485445D01*
X535623Y484674D01*
X535921Y483956D01*
X536394Y483339D01*
X537011Y482866D01*
X537729Y482568D01*
X538500Y482467D01*
X539271Y482568D01*
X539989Y482866D01*
X540606Y483339D01*
X541079Y483956D01*
X541377Y484674D01*
X541478Y485445D01*
X541377Y486216D01*
X541079Y486934D01*
X540606Y487551D01*
X539989Y488024D01*
X539271Y488322D01*
X538500Y488423D01*
D02*
G37*
G36*
X279843Y509743D02*
X279056D01*
X278288Y509590D01*
X277637Y509155D01*
X277202Y508504D01*
X277049Y507736D01*
X277159Y507184D01*
X276708Y506397D01*
X261732D01*
X260964Y506244D01*
X260313Y505809D01*
X259878Y505158D01*
X259725Y504390D01*
X259878Y503622D01*
X260313Y502971D01*
X260964Y502535D01*
X261732Y502383D01*
X280676D01*
X281177Y501173D01*
X281421Y500156D01*
X280934Y499538D01*
X259371D01*
X258603Y499385D01*
X257952Y498950D01*
X257517Y498299D01*
X257364Y497531D01*
X257517Y496763D01*
X257952Y496112D01*
X258603Y495677D01*
X259371Y495524D01*
X280934D01*
X281421Y494906D01*
X281177Y493889D01*
X280651Y492617D01*
X261732D01*
X260964Y492464D01*
X260313Y492029D01*
X259878Y491378D01*
X259725Y490610D01*
X259878Y489842D01*
X260313Y489191D01*
X260964Y488756D01*
X261732Y488603D01*
X276709D01*
X277159Y487816D01*
X277049Y487263D01*
X277202Y486495D01*
X277637Y485844D01*
X278288Y485409D01*
X279056Y485256D01*
X279843D01*
X280611Y485409D01*
X281263Y485844D01*
X281490Y486185D01*
X283059Y488021D01*
X284385Y490186D01*
X285357Y492531D01*
X285949Y495000D01*
X286149Y497531D01*
X286110Y498017D01*
X286645Y498595D01*
X290037D01*
X290115Y497808D01*
X289720Y497729D01*
X288939Y497207D01*
X288417Y496426D01*
X288233Y495504D01*
X288417Y494582D01*
X288939Y493801D01*
X289720Y493279D01*
X290642Y493095D01*
X291563Y493279D01*
X292345Y493801D01*
X292867Y494582D01*
X293050Y495504D01*
X292867Y496426D01*
X292345Y497207D01*
X291563Y497729D01*
X291168Y497808D01*
X291246Y498595D01*
X307360D01*
X307438Y497808D01*
X307043Y497729D01*
X306261Y497207D01*
X305739Y496426D01*
X305556Y495504D01*
X305739Y494582D01*
X306261Y493801D01*
X307043Y493279D01*
X307965Y493095D01*
X308886Y493279D01*
X309668Y493801D01*
X310190Y494582D01*
X310373Y495504D01*
X310190Y496426D01*
X309668Y497207D01*
X308886Y497729D01*
X308491Y497808D01*
X308569Y498595D01*
X327500D01*
X328038Y498702D01*
X328493Y499007D01*
X329648Y500162D01*
X330000Y500092D01*
X330922Y500275D01*
X331703Y500797D01*
X332225Y501578D01*
X332408Y502500D01*
X332225Y503422D01*
X331703Y504203D01*
X330922Y504725D01*
X330000Y504909D01*
X329078Y504725D01*
X328297Y504203D01*
X327775Y503422D01*
X327591Y502500D01*
X327661Y502148D01*
X326918Y501405D01*
X304890D01*
X304792Y502188D01*
X305573Y502710D01*
X306095Y503492D01*
X306279Y504413D01*
X306095Y505335D01*
X305573Y506116D01*
X304792Y506638D01*
X303870Y506822D01*
X302948Y506638D01*
X302167Y506116D01*
X301645Y505335D01*
X301462Y504413D01*
X301645Y503492D01*
X302167Y502710D01*
X302948Y502188D01*
X302850Y501405D01*
X285627D01*
X285357Y502531D01*
X284385Y504876D01*
X283059Y507041D01*
X281749Y508574D01*
X281263Y509155D01*
X281263Y509155D01*
X280821Y509450D01*
X280611Y509590D01*
X279843Y509743D01*
D02*
G37*
G36*
X538500Y510077D02*
X537729Y509975D01*
X537011Y509678D01*
X536394Y509204D01*
X535921Y508588D01*
X535623Y507869D01*
X535522Y507098D01*
X535623Y506328D01*
X535921Y505609D01*
X536394Y504992D01*
X537011Y504519D01*
X537729Y504222D01*
X538500Y504120D01*
X539271Y504222D01*
X539989Y504519D01*
X540606Y504992D01*
X541079Y505609D01*
X541377Y506328D01*
X541478Y507098D01*
X541377Y507869D01*
X541079Y508588D01*
X540606Y509204D01*
X539989Y509678D01*
X539271Y509975D01*
X538500Y510077D01*
D02*
G37*
G36*
X525130Y506822D02*
X524208Y506638D01*
X523427Y506116D01*
X522905Y505335D01*
X522721Y504413D01*
X522905Y503492D01*
X523427Y502710D01*
X524208Y502188D01*
X525130Y502005D01*
X526052Y502188D01*
X526833Y502710D01*
X527355Y503492D01*
X527538Y504413D01*
X527355Y505335D01*
X526833Y506116D01*
X526052Y506638D01*
X525130Y506822D01*
D02*
G37*
G36*
X278500Y453964D02*
X277215Y453795D01*
X276018Y453299D01*
X274990Y452510D01*
X274201Y451482D01*
X273705Y450285D01*
X273536Y449000D01*
X273705Y447715D01*
X274201Y446518D01*
X274990Y445490D01*
X276018Y444701D01*
X277215Y444205D01*
X278500Y444036D01*
X279785Y444205D01*
X280982Y444701D01*
X282010Y445490D01*
X282799Y446518D01*
X283295Y447715D01*
X283464Y449000D01*
X283295Y450285D01*
X282799Y451482D01*
X282010Y452510D01*
X280982Y453299D01*
X279785Y453795D01*
X278500Y453964D01*
D02*
G37*
G36*
X220500Y397964D02*
X219215Y397795D01*
X218018Y397299D01*
X216990Y396510D01*
X216201Y395482D01*
X215705Y394285D01*
X215536Y393000D01*
X215705Y391715D01*
X216201Y390518D01*
X216990Y389490D01*
X218018Y388701D01*
X219215Y388205D01*
X220500Y388036D01*
X221785Y388205D01*
X222982Y388701D01*
X224010Y389490D01*
X224799Y390518D01*
X225295Y391715D01*
X225464Y393000D01*
X225295Y394285D01*
X224799Y395482D01*
X224010Y396510D01*
X222982Y397299D01*
X221785Y397795D01*
X220500Y397964D01*
D02*
G37*
G36*
X500000Y425409D02*
X499078Y425225D01*
X498297Y424703D01*
X497775Y423922D01*
X497591Y423000D01*
X497775Y422078D01*
X497993Y421752D01*
Y384748D01*
X497775Y384422D01*
X497591Y383500D01*
X497775Y382578D01*
X498297Y381797D01*
X499078Y381275D01*
X500000Y381091D01*
X500922Y381275D01*
X501703Y381797D01*
X502225Y382578D01*
X502409Y383500D01*
X502225Y384422D01*
X502007Y384748D01*
Y421752D01*
X502225Y422078D01*
X502409Y423000D01*
X502225Y423922D01*
X501703Y424703D01*
X500922Y425225D01*
X500000Y425409D01*
D02*
G37*
G36*
X425500Y464206D02*
X366000D01*
X365347Y464076D01*
X364794Y463706D01*
X360995Y459907D01*
X360078Y459725D01*
X359297Y459203D01*
X358775Y458422D01*
X358592Y457500D01*
X358775Y456578D01*
X359297Y455797D01*
X360078Y455275D01*
X361000Y455091D01*
X361224Y455136D01*
X361287Y455125D01*
X361993Y454486D01*
Y442748D01*
X361775Y442422D01*
X361592Y441500D01*
X361775Y440578D01*
X361993Y440252D01*
Y424748D01*
X361775Y424422D01*
X361592Y423500D01*
X361775Y422578D01*
X362297Y421797D01*
X363078Y421275D01*
X364000Y421092D01*
X364922Y421275D01*
X365703Y421797D01*
X366225Y422578D01*
X366408Y423500D01*
X366225Y424422D01*
X366007Y424748D01*
Y440252D01*
X366225Y440578D01*
X366408Y441500D01*
X366225Y442422D01*
X366007Y442748D01*
Y444531D01*
X366657Y444935D01*
X366794Y444935D01*
X367669Y444761D01*
X368591Y444944D01*
X369372Y445466D01*
X369894Y446248D01*
X370078Y447169D01*
X369894Y448091D01*
X369676Y448417D01*
Y450338D01*
X371536Y452198D01*
X376457D01*
X376783Y451980D01*
X377705Y451796D01*
X378626Y451980D01*
X378953Y452198D01*
X408047D01*
X408374Y451980D01*
X409295Y451796D01*
X410217Y451980D01*
X410543Y452198D01*
X420464D01*
X422198Y450463D01*
X422275Y450078D01*
X422493Y449752D01*
Y427438D01*
X421705Y427199D01*
X421703Y427203D01*
X420922Y427725D01*
X420000Y427909D01*
X419078Y427725D01*
X418297Y427203D01*
X417775Y426422D01*
X417591Y425500D01*
X417662Y425148D01*
X408418Y415905D01*
X352082D01*
X349493Y418494D01*
X349038Y418798D01*
X348500Y418905D01*
X311082D01*
X309839Y420148D01*
X309909Y420500D01*
X309725Y421422D01*
X309203Y422203D01*
X308422Y422725D01*
X307500Y422908D01*
X306578Y422725D01*
X305797Y422203D01*
X305275Y421422D01*
X305092Y420500D01*
X305275Y419578D01*
X305797Y418797D01*
X306578Y418275D01*
X307500Y418091D01*
X307852Y418161D01*
X309507Y416506D01*
X309962Y416202D01*
X310500Y416095D01*
X339016D01*
X339653Y415308D01*
X339592Y415000D01*
X339662Y414648D01*
X333918Y408905D01*
X311902D01*
X311703Y409203D01*
X310922Y409725D01*
X310000Y409908D01*
X309078Y409725D01*
X308297Y409203D01*
X307648Y409074D01*
X307422Y409225D01*
X306500Y409409D01*
X305578Y409225D01*
X304797Y408703D01*
X304275Y407922D01*
X304092Y407000D01*
X304275Y406078D01*
X304797Y405297D01*
X305578Y404775D01*
X306500Y404592D01*
X306852Y404662D01*
X307507Y404007D01*
X307962Y403702D01*
X308500Y403595D01*
X332016D01*
X332653Y402808D01*
X332592Y402500D01*
X332775Y401578D01*
X333297Y400797D01*
X334078Y400275D01*
X335000Y400092D01*
X335922Y400275D01*
X336703Y400797D01*
X336902Y401095D01*
X345500D01*
X346038Y401202D01*
X346190Y401304D01*
X346596Y401293D01*
X346854Y400952D01*
X347000Y400509D01*
X346775Y400172D01*
X346591Y399250D01*
X346620Y399107D01*
X333918Y386405D01*
X327902D01*
X327703Y386703D01*
X326922Y387225D01*
X326000Y387408D01*
X325078Y387225D01*
X324297Y386703D01*
X323775Y385922D01*
X323591Y385000D01*
X323775Y384078D01*
X324297Y383297D01*
X325078Y382775D01*
X326000Y382592D01*
X326922Y382775D01*
X327703Y383297D01*
X327902Y383595D01*
X334500D01*
X335038Y383702D01*
X335493Y384007D01*
X348440Y396953D01*
X349000Y396842D01*
X349922Y397025D01*
X350703Y397547D01*
X351225Y398328D01*
X351409Y399250D01*
X351225Y400172D01*
X350703Y400953D01*
X349922Y401475D01*
X349127Y401633D01*
X348911Y401971D01*
X348784Y402418D01*
X349225Y403078D01*
X349409Y404000D01*
X349225Y404922D01*
X348796Y405564D01*
X349002Y405702D01*
X349524Y406484D01*
X349708Y407406D01*
X349524Y408327D01*
X349002Y409109D01*
X348221Y409631D01*
X347299Y409814D01*
X346377Y409631D01*
X345596Y409109D01*
X345074Y408327D01*
X344891Y407406D01*
X344922Y407249D01*
X344077Y406405D01*
X336505D01*
X336179Y407192D01*
X341648Y412662D01*
X342000Y412592D01*
X342922Y412775D01*
X343703Y413297D01*
X344225Y414078D01*
X344408Y415000D01*
X344347Y415308D01*
X344984Y416095D01*
X347918D01*
X350507Y413507D01*
X350962Y413202D01*
X351500Y413095D01*
X409000D01*
X409538Y413202D01*
X409994Y413507D01*
X419648Y423162D01*
X420000Y423092D01*
X420922Y423275D01*
X421703Y423797D01*
X421705Y423801D01*
X422493Y423562D01*
Y402042D01*
X422413Y401922D01*
X422246Y401085D01*
X420932Y399771D01*
X382984D01*
X382658Y399989D01*
X381736Y400172D01*
X380815Y399989D01*
X380488Y399771D01*
X369568D01*
X368802Y400537D01*
X368725Y400922D01*
X368203Y401703D01*
X367422Y402225D01*
X366500Y402409D01*
X365578Y402225D01*
X364797Y401703D01*
X364275Y400922D01*
X364091Y400000D01*
X364275Y399078D01*
X364797Y398297D01*
X365578Y397775D01*
X365963Y397698D01*
X367317Y396345D01*
X367968Y395910D01*
X368096Y395884D01*
X368736Y395757D01*
X369792D01*
X369836Y395708D01*
X370141Y394969D01*
X369775Y394422D01*
X369591Y393500D01*
X369775Y392578D01*
X370297Y391797D01*
X371078Y391275D01*
X372000Y391091D01*
X372922Y391275D01*
X373248Y391493D01*
X388197D01*
X388688Y391165D01*
X389610Y390981D01*
X390532Y391165D01*
X391023Y391493D01*
X403898D01*
X404437Y391133D01*
X405358Y390950D01*
X406280Y391133D01*
X406818Y391493D01*
X412752D01*
X413078Y391275D01*
X414000Y391091D01*
X414922Y391275D01*
X415248Y391493D01*
X421993D01*
Y389500D01*
X422146Y388732D01*
X422581Y388081D01*
X433081Y377581D01*
X433732Y377146D01*
X433859Y377120D01*
X434500Y376993D01*
X452913D01*
X459737Y370169D01*
Y369177D01*
X456626D01*
X455839Y369177D01*
X455839Y369177D01*
X455838D01*
Y369177D01*
X455838Y369177D01*
X448752D01*
X447965Y369177D01*
X447964Y369177D01*
X447964D01*
Y369177D01*
X447964Y369177D01*
X440878D01*
X440091Y369177D01*
X440091Y369177D01*
X440091D01*
Y369177D01*
X440091Y369177D01*
X432217D01*
Y369177D01*
Y369177D01*
X432217D01*
Y369177D01*
X432217Y369177D01*
X429067D01*
X428279Y369177D01*
X428279Y369177D01*
X428279D01*
Y369177D01*
X428279Y369177D01*
X421193D01*
X420405Y369177D01*
X420405D01*
D01*
X419618Y369177D01*
X412532D01*
Y369177D01*
Y369177D01*
X412532D01*
Y369177D01*
X412532Y369177D01*
X404658D01*
Y369177D01*
Y369177D01*
X404658D01*
Y369177D01*
X404657Y369177D01*
X396783D01*
Y369177D01*
Y369177D01*
X396783D01*
Y369177D01*
X396783Y369177D01*
X392846D01*
Y369177D01*
Y369177D01*
X392846D01*
Y369177D01*
X392846Y369177D01*
X385760D01*
X384972Y369177D01*
X384972D01*
D01*
X384185Y369177D01*
X377886D01*
X377098Y369177D01*
X377098D01*
D01*
X376311Y369177D01*
X373949D01*
X373161Y369177D01*
X373161D01*
X372374Y369177D01*
X369224D01*
Y369177D01*
Y369177D01*
X369224D01*
Y369177D01*
X369224Y369177D01*
X365287D01*
Y369177D01*
Y369177D01*
X365287D01*
Y369177D01*
X365287Y369177D01*
X362138D01*
X361350Y369177D01*
X361350Y369177D01*
X361350D01*
Y369177D01*
X361350Y369177D01*
X353476D01*
X353476Y369177D01*
D01*
X353476D01*
X353476D01*
X352689Y369177D01*
X352689Y369177D01*
Y369177D01*
X349539D01*
Y369177D01*
Y369177D01*
X349539D01*
Y369177D01*
X349539Y369177D01*
X345602D01*
Y364450D01*
X345564Y364256D01*
Y358571D01*
Y325819D01*
X345346Y325493D01*
X345162Y324571D01*
X345346Y323649D01*
X344921Y322867D01*
X316261D01*
X272064Y367064D01*
X271853Y367206D01*
X272092Y367993D01*
X302993D01*
Y358500D01*
X303146Y357732D01*
X303581Y357081D01*
X324698Y335963D01*
X324775Y335578D01*
X325297Y334797D01*
X326078Y334275D01*
X327000Y334091D01*
X327922Y334275D01*
X328703Y334797D01*
X329225Y335578D01*
X329409Y336500D01*
X329225Y337422D01*
X328703Y338203D01*
X327922Y338725D01*
X327537Y338802D01*
X307007Y359331D01*
Y370000D01*
Y383752D01*
X307225Y384078D01*
X307408Y385000D01*
X307225Y385922D01*
X307007Y386248D01*
Y390044D01*
X307794Y390464D01*
X308078Y390275D01*
X309000Y390091D01*
X309922Y390275D01*
X310703Y390797D01*
X310902Y391095D01*
X326000D01*
X326538Y391202D01*
X326993Y391507D01*
X328148Y392661D01*
X328500Y392592D01*
X329422Y392775D01*
X330203Y393297D01*
X330725Y394078D01*
X330908Y395000D01*
X330725Y395922D01*
X330203Y396703D01*
X329422Y397225D01*
X328500Y397409D01*
X327578Y397225D01*
X326797Y396703D01*
X326275Y395922D01*
X326092Y395000D01*
X326162Y394648D01*
X325418Y393905D01*
X310902D01*
X310703Y394203D01*
X309922Y394725D01*
X309000Y394908D01*
X308078Y394725D01*
X307794Y394535D01*
X307007Y394956D01*
Y398752D01*
X307225Y399078D01*
X307408Y400000D01*
X307225Y400922D01*
X306703Y401703D01*
X305922Y402225D01*
X305000Y402409D01*
X304078Y402225D01*
X303297Y401703D01*
X302775Y400922D01*
X302591Y400000D01*
X302775Y399078D01*
X302993Y398752D01*
Y386248D01*
X302775Y385922D01*
X302591Y385000D01*
X302775Y384078D01*
X302993Y383752D01*
Y372007D01*
X252248D01*
X251922Y372225D01*
X251000Y372409D01*
X250078Y372225D01*
X249752Y372007D01*
X240113D01*
X239939Y372735D01*
X239951Y372795D01*
X240703Y373297D01*
X241225Y374078D01*
X241408Y375000D01*
X241225Y375922D01*
X240703Y376703D01*
X239922Y377225D01*
X239000Y377409D01*
X238078Y377225D01*
X237297Y376703D01*
X237098Y376405D01*
X235902D01*
X235703Y376703D01*
X234922Y377225D01*
X234000Y377409D01*
X233078Y377225D01*
X232297Y376703D01*
X231775Y375922D01*
X231592Y375000D01*
X231775Y374078D01*
X232297Y373297D01*
X233049Y372795D01*
X233061Y372735D01*
X232887Y372007D01*
X230831D01*
X227165Y375674D01*
Y381909D01*
X227383Y382236D01*
X227566Y383157D01*
X227383Y384079D01*
X226860Y384860D01*
X226079Y385383D01*
X225157Y385566D01*
X224236Y385383D01*
X223454Y384860D01*
X222932Y384079D01*
X222749Y383157D01*
X222932Y382236D01*
X223150Y381909D01*
Y374843D01*
X223303Y374074D01*
X223738Y373423D01*
X228581Y368581D01*
X229232Y368146D01*
X230000Y367993D01*
X249752D01*
X250078Y367775D01*
X251000Y367592D01*
X251922Y367775D01*
X252248Y367993D01*
X253044D01*
X253465Y367206D01*
X253275Y366922D01*
X253092Y366000D01*
X253275Y365078D01*
X253797Y364297D01*
X254578Y363775D01*
X255500Y363592D01*
X256422Y363775D01*
X257203Y364297D01*
X257335Y364495D01*
X270376D01*
X314573Y320298D01*
X315062Y319971D01*
X315638Y319857D01*
X520362D01*
X520938Y319971D01*
X521427Y320298D01*
X550124Y348995D01*
X589000D01*
X589576Y349109D01*
X590064Y349436D01*
X616267Y375638D01*
X616500Y375591D01*
X617422Y375775D01*
X618203Y376297D01*
X618725Y377078D01*
X618909Y378000D01*
X618725Y378922D01*
X618203Y379703D01*
X617422Y380225D01*
X616500Y380409D01*
X615578Y380225D01*
X614797Y379703D01*
X614275Y378922D01*
X614091Y378000D01*
X614138Y377767D01*
X588377Y352005D01*
X549500D01*
X548924Y351891D01*
X548436Y351564D01*
X519739Y322867D01*
X350221D01*
X349796Y323649D01*
X349979Y324571D01*
X349796Y325493D01*
X349578Y325819D01*
Y344234D01*
X350365Y344718D01*
X351000Y344591D01*
X351922Y344775D01*
X352703Y345297D01*
X353194Y346032D01*
X353578Y345775D01*
X354500Y345591D01*
X355422Y345775D01*
X356203Y346297D01*
X356694Y347032D01*
X357078Y346775D01*
X358000Y346591D01*
X358922Y346775D01*
X359703Y347297D01*
X360194Y348032D01*
X360578Y347775D01*
X361500Y347591D01*
X362422Y347775D01*
X363203Y348297D01*
X363725Y349078D01*
X363909Y350000D01*
X363886Y350115D01*
X369503Y355732D01*
X370350Y355466D01*
X370797Y354797D01*
X371578Y354275D01*
X372500Y354092D01*
X372591Y354000D01*
X372775Y353078D01*
X373297Y352297D01*
X374078Y351775D01*
X375000Y351591D01*
X375092Y351500D01*
X375275Y350578D01*
X375797Y349797D01*
X376578Y349275D01*
X377500Y349092D01*
X377591Y349000D01*
X377775Y348078D01*
X378297Y347297D01*
X379078Y346775D01*
X380000Y346591D01*
X380092Y346500D01*
X380275Y345578D01*
X380797Y344797D01*
X381578Y344275D01*
X382500Y344092D01*
X382592Y344000D01*
X382775Y343078D01*
X383297Y342297D01*
X384078Y341775D01*
X385000Y341592D01*
X385091Y341500D01*
X385275Y340578D01*
X385797Y339797D01*
X386578Y339275D01*
X387500Y339091D01*
X388422Y339275D01*
X389203Y339797D01*
X389330Y339987D01*
X400500D01*
X400500Y339987D01*
X400983Y340083D01*
X401079Y340102D01*
X401570Y340430D01*
X419507Y358367D01*
X419507Y358367D01*
X419835Y358858D01*
X420014Y358964D01*
X420639Y358893D01*
X420861Y358689D01*
Y343330D01*
X420671Y343203D01*
X420149Y342422D01*
X419966Y341500D01*
X420149Y340578D01*
X420671Y339797D01*
X421452Y339275D01*
X422374Y339091D01*
X423296Y339275D01*
X424077Y339797D01*
X424496Y340424D01*
X425305Y340831D01*
X425389Y340775D01*
X426311Y340592D01*
X427233Y340775D01*
X427402Y340888D01*
X428014Y341297D01*
X428014Y341297D01*
X428025Y341308D01*
X428364Y341365D01*
X429115Y341416D01*
X429118Y341414D01*
X429119Y341414D01*
X429222Y341344D01*
X429326Y341275D01*
X429813Y341178D01*
X430248Y341091D01*
X431170Y341275D01*
X431951Y341797D01*
X432370Y342425D01*
X433068Y342775D01*
X433313Y342765D01*
X434185Y342592D01*
X435107Y342775D01*
X435888Y343297D01*
X436410Y344078D01*
X436459Y344323D01*
X437200Y344775D01*
X438122Y344591D01*
X439044Y344775D01*
X439825Y345297D01*
X440013Y345579D01*
X441041Y345839D01*
X441137Y345775D01*
X442059Y345591D01*
X442981Y345775D01*
X443762Y346297D01*
X444183Y346926D01*
X444987Y347336D01*
X445078Y347275D01*
X446000Y347092D01*
X446922Y347275D01*
X447703Y347797D01*
X448225Y348578D01*
X448933Y348872D01*
X449078Y348775D01*
X450000Y348591D01*
X450922Y348775D01*
X451703Y349297D01*
X452225Y350078D01*
X452933Y350372D01*
X453078Y350275D01*
X454000Y350092D01*
X454922Y350275D01*
X455703Y350797D01*
X456225Y351578D01*
X456501Y351693D01*
X456982Y351371D01*
X457903Y351188D01*
X458825Y351371D01*
X459433Y350868D01*
X459542Y350322D01*
X459275Y349922D01*
X459092Y349000D01*
X459275Y348078D01*
X459797Y347297D01*
X460578Y346775D01*
X461500Y346591D01*
X462422Y346775D01*
X463203Y347297D01*
X463725Y348078D01*
X463908Y349000D01*
X463751Y349791D01*
Y352502D01*
X464538Y352922D01*
X464759Y352775D01*
X465681Y352591D01*
X466603Y352775D01*
X467384Y353297D01*
X467767Y353870D01*
X468578Y354275D01*
X469500Y354092D01*
X470422Y354275D01*
X471203Y354797D01*
X471444Y355158D01*
X471725Y355578D01*
X472453Y355359D01*
X472578Y355275D01*
X473500Y355092D01*
X474422Y355275D01*
X475203Y355797D01*
X475725Y356578D01*
X475909Y357500D01*
X475725Y358422D01*
X475641Y358547D01*
X476062Y359335D01*
X483398D01*
Y364062D01*
X483436Y364256D01*
Y369071D01*
X483283Y369839D01*
X482848Y370490D01*
X480919Y372419D01*
X480268Y372854D01*
X479500Y373007D01*
X462575D01*
X455163Y380419D01*
X455226Y381290D01*
X455372Y381493D01*
X479669D01*
X487993Y373169D01*
Y339831D01*
X478463Y330302D01*
X478078Y330225D01*
X477297Y329703D01*
X476775Y328922D01*
X476591Y328000D01*
X476775Y327078D01*
X477297Y326297D01*
X478078Y325775D01*
X479000Y325591D01*
X479922Y325775D01*
X480703Y326297D01*
X481225Y327078D01*
X481302Y327463D01*
X491419Y337581D01*
X491854Y338232D01*
X492007Y339000D01*
Y347054D01*
X492791Y347293D01*
X492795Y347293D01*
X505593Y334495D01*
X505775Y333578D01*
X506297Y332797D01*
X507078Y332275D01*
X508000Y332091D01*
X508922Y332275D01*
X509703Y332797D01*
X510225Y333578D01*
X510408Y334500D01*
X510225Y335422D01*
X509703Y336203D01*
X508922Y336725D01*
X508005Y336908D01*
X495706Y349207D01*
Y376000D01*
X495576Y376653D01*
X495206Y377206D01*
X484206Y388206D01*
X483653Y388576D01*
X483000Y388706D01*
X440207D01*
X433907Y395005D01*
X433725Y395922D01*
X433206Y396699D01*
Y419794D01*
X459301D01*
X460078Y419275D01*
X461000Y419092D01*
X461922Y419275D01*
X462703Y419797D01*
X463225Y420578D01*
X463409Y421500D01*
X463225Y422422D01*
X462703Y423203D01*
X461922Y423725D01*
X461000Y423909D01*
X460078Y423725D01*
X459301Y423206D01*
X433206D01*
Y456500D01*
X433076Y457153D01*
X432706Y457706D01*
X426706Y463706D01*
X426153Y464076D01*
X425500Y464206D01*
D02*
G37*
G36*
X578469Y471148D02*
X575938Y470949D01*
X573469Y470357D01*
X571124Y469385D01*
X568959Y468059D01*
X567426Y466749D01*
X566845Y466263D01*
X566845Y466263D01*
X566550Y465821D01*
X566410Y465611D01*
X566380Y465461D01*
X562056D01*
X561518Y465354D01*
X561062Y465049D01*
X548869Y452856D01*
X548564Y452400D01*
X548457Y451862D01*
Y449242D01*
X547670Y448775D01*
X547000Y448909D01*
X546078Y448725D01*
X545297Y448203D01*
X544775Y447422D01*
X544592Y446500D01*
X544775Y445578D01*
X545297Y444797D01*
X545595Y444598D01*
Y438007D01*
X544969Y437857D01*
X542624Y436885D01*
X540459Y435559D01*
X538926Y434249D01*
X538345Y433763D01*
X538345Y433763D01*
X538050Y433321D01*
X537910Y433111D01*
X537890Y433013D01*
X536000D01*
X535421Y432898D01*
X534930Y432570D01*
X534930Y432570D01*
X532430Y430070D01*
X532102Y429579D01*
X532083Y429483D01*
X531987Y429000D01*
X531987Y429000D01*
Y409500D01*
X531987Y409500D01*
X532083Y409017D01*
X532102Y408921D01*
X532430Y408430D01*
X541586Y399273D01*
X541587Y399273D01*
X542077Y398945D01*
X542174Y398926D01*
X542657Y398830D01*
X542657Y398830D01*
X566401D01*
X566410Y398788D01*
X566845Y398137D01*
X567496Y397702D01*
X568264Y397549D01*
X568816Y397659D01*
X569603Y397208D01*
Y382232D01*
X569756Y381464D01*
X570191Y380813D01*
X570842Y380378D01*
X571610Y380225D01*
X572378Y380378D01*
X573029Y380813D01*
X573464Y381464D01*
X573617Y382232D01*
Y401176D01*
X574827Y401678D01*
X575674Y401881D01*
X576462Y401260D01*
Y379871D01*
X576615Y379103D01*
X577050Y378452D01*
X577701Y378017D01*
X578469Y377864D01*
X579237Y378017D01*
X579888Y378452D01*
X580323Y379103D01*
X580476Y379871D01*
Y401434D01*
X581094Y401922D01*
X582111Y401678D01*
X583383Y401151D01*
Y382232D01*
X583535Y381464D01*
X583971Y380813D01*
X584622Y380378D01*
X585390Y380225D01*
X586158Y380378D01*
X586809Y380813D01*
X587244Y381464D01*
X587397Y382232D01*
Y397209D01*
X588184Y397659D01*
X588737Y397549D01*
X589505Y397702D01*
X590156Y398137D01*
X590591Y398788D01*
X590744Y399556D01*
Y400343D01*
X590591Y401111D01*
X590156Y401763D01*
X589815Y401990D01*
X587979Y403559D01*
X585814Y404885D01*
X583469Y405857D01*
X581000Y406449D01*
X578469Y406648D01*
X575938Y406449D01*
X575850Y406428D01*
X573469Y405857D01*
X573158Y405728D01*
X572761Y406416D01*
X573510Y406990D01*
X574299Y408018D01*
X574795Y409215D01*
X574964Y410500D01*
X574795Y411785D01*
X574299Y412982D01*
X573510Y414010D01*
X572482Y414799D01*
X571285Y415295D01*
X570000Y415464D01*
X568715Y415295D01*
X567518Y414799D01*
X566490Y414010D01*
X565701Y412982D01*
X565205Y411785D01*
X565036Y410500D01*
X565205Y409215D01*
X565701Y408018D01*
X566490Y406990D01*
X567518Y406201D01*
X568715Y405705D01*
X570000Y405536D01*
X570936Y405659D01*
X571141Y404892D01*
X571124Y404885D01*
X568959Y403559D01*
X567029Y401910D01*
X567029D01*
X566263Y401857D01*
X543284D01*
X535013Y410127D01*
Y428373D01*
X536627Y429987D01*
X537495D01*
X537916Y429199D01*
X537878Y429143D01*
X537726Y428375D01*
Y412627D01*
X537878Y411859D01*
X538313Y411208D01*
X538654Y410980D01*
X540490Y409412D01*
X542655Y408085D01*
X545001Y407114D01*
X547469Y406521D01*
X549276Y406379D01*
X549969Y406241D01*
X550620Y406370D01*
X552531Y406521D01*
X555000Y407114D01*
X557346Y408085D01*
X559510Y409412D01*
X561043Y410721D01*
X561624Y411208D01*
X561624Y411208D01*
X561920Y411650D01*
X562059Y411859D01*
X562212Y412627D01*
Y426970D01*
X564375D01*
X564913Y427077D01*
X565368Y427381D01*
X568423Y430436D01*
X568727Y430892D01*
X568834Y431429D01*
Y440418D01*
X569820Y441403D01*
X571155Y440585D01*
X573501Y439614D01*
X575969Y439021D01*
X577776Y438879D01*
X578469Y438741D01*
X579120Y438870D01*
X581031Y439021D01*
X583500Y439614D01*
X585846Y440585D01*
X588010Y441912D01*
X589543Y443221D01*
X590124Y443708D01*
X590124Y443708D01*
X590420Y444149D01*
X590559Y444359D01*
X590712Y445127D01*
Y460875D01*
X590559Y461643D01*
X590485Y461755D01*
X590905Y462543D01*
X592317D01*
X607956Y446904D01*
Y438529D01*
X606938Y438449D01*
X604469Y437857D01*
X602124Y436885D01*
X599959Y435559D01*
X598426Y434249D01*
X597845Y433763D01*
X597845Y433763D01*
X597550Y433321D01*
X597410Y433111D01*
X597257Y432343D01*
Y431556D01*
X597410Y430788D01*
X597845Y430137D01*
X598496Y429702D01*
X599264Y429549D01*
X599816Y429659D01*
X600603Y429208D01*
Y414232D01*
X600756Y413464D01*
X601191Y412813D01*
X601842Y412378D01*
X602610Y412225D01*
X603378Y412378D01*
X604029Y412813D01*
X604464Y413464D01*
X604617Y414232D01*
Y433176D01*
X605827Y433677D01*
X606844Y433921D01*
X607462Y433434D01*
Y411871D01*
X607615Y411103D01*
X608050Y410452D01*
X608701Y410017D01*
X609469Y409864D01*
X610237Y410017D01*
X610888Y410452D01*
X611323Y411103D01*
X611476Y411871D01*
Y433434D01*
X612094Y433921D01*
X613111Y433677D01*
X614383Y433151D01*
Y414232D01*
X614536Y413464D01*
X614971Y412813D01*
X615622Y412378D01*
X616390Y412225D01*
X617158Y412378D01*
X617809Y412813D01*
X618244Y413464D01*
X618397Y414232D01*
Y429209D01*
X619184Y429659D01*
X619737Y429549D01*
X620505Y429702D01*
X621156Y430137D01*
X621591Y430788D01*
X621744Y431556D01*
Y432343D01*
X621591Y433111D01*
X621156Y433763D01*
X620815Y433990D01*
X618979Y435559D01*
X616814Y436885D01*
X614469Y437857D01*
X612000Y438449D01*
X610982Y438529D01*
Y447531D01*
X610982Y447531D01*
X610886Y448014D01*
X610867Y448110D01*
X610539Y448601D01*
X594014Y465126D01*
X593523Y465454D01*
X593427Y465473D01*
X592944Y465569D01*
X592944Y465569D01*
X590599D01*
X590591Y465611D01*
X590156Y466263D01*
X589815Y466490D01*
X587979Y468059D01*
X585814Y469385D01*
X583469Y470357D01*
X581000Y470949D01*
X578469Y471148D01*
D02*
G37*
G36*
X589500Y437464D02*
X588215Y437295D01*
X587018Y436799D01*
X585990Y436010D01*
X585201Y434982D01*
X584705Y433785D01*
X584536Y432500D01*
X584705Y431215D01*
X585201Y430018D01*
X585990Y428990D01*
X587018Y428201D01*
X588215Y427705D01*
X589500Y427536D01*
X590785Y427705D01*
X591982Y428201D01*
X593010Y428990D01*
X593799Y430018D01*
X594295Y431215D01*
X594464Y432500D01*
X594295Y433785D01*
X593799Y434982D01*
X593010Y436010D01*
X591982Y436799D01*
X590785Y437295D01*
X589500Y437464D01*
D02*
G37*
%LPD*%
D10*
X549786Y436432D02*
G03*
X540095Y432343I183J-13963D01*
G01*
X559843D02*
G03*
X549786Y436432I-9874J-9874D01*
G01*
X540126Y412627D02*
G03*
X559874Y412627I9874J9874D01*
G01*
X260127Y507374D02*
G03*
X260127Y487626I9874J-9874D01*
G01*
X279843Y487657D02*
G03*
X279843Y507405I-9874J9874D01*
G01*
X239126Y380627D02*
G03*
X258874Y380627I9874J9874D01*
G01*
X258843Y400343D02*
G03*
X239095Y400343I-9874J-9874D01*
G01*
X567373Y487626D02*
G03*
X567373Y507374I-9874J9874D01*
G01*
X547657Y507343D02*
G03*
X547657Y487595I9874J-9874D01*
G01*
X239126Y447127D02*
G03*
X258874Y447127I9874J9874D01*
G01*
X609469Y436433D02*
G03*
X599595Y432343I0J-13964D01*
G01*
X619343D02*
G03*
X609469Y436433I-9874J-9874D01*
G01*
X599626Y412627D02*
G03*
X619374Y412627I9874J9874D01*
G01*
X273126Y412127D02*
G03*
X292874Y412127I9874J9874D01*
G01*
X292843Y431843D02*
G03*
X273095Y431843I-9874J-9874D01*
G01*
X576207Y404249D02*
G03*
X568595Y400343I2262J-13780D01*
G01*
X588343D02*
G03*
X576207Y404249I-9874J-9874D01*
G01*
X568626Y380627D02*
G03*
X588374Y380627I9874J9874D01*
G01*
X219850Y408406D02*
G03*
X224874Y411627I-4849J13095D01*
G01*
X205126D02*
G03*
X219850Y408406I9874J9874D01*
G01*
X214969Y435433D02*
G03*
X205095Y431343I0J-13964D01*
G01*
X224843D02*
G03*
X214969Y435433I-9874J-9874D01*
G01*
X258843Y466843D02*
G03*
X249152Y470932I-9874J-9874D01*
G01*
D02*
G03*
X239095Y466843I-183J-13963D01*
G01*
X568626Y445127D02*
G03*
X588374Y445127I9874J9874D01*
G01*
X588343Y464843D02*
G03*
X568595Y464843I-9874J-9874D01*
G01*
X550439Y358500D02*
X565500D01*
X578469Y371469D01*
X625591Y399091D02*
Y452909D01*
X602796Y376296D02*
X625591Y399091D01*
X596500Y376296D02*
X602796D01*
X250000Y497500D02*
X250031Y497531D01*
X578469Y371469D02*
Y376296D01*
X248969Y434531D02*
X249000Y434500D01*
X248969Y434531D02*
Y442796D01*
X578469Y376296D02*
X596500D01*
X609469Y408296D02*
X625387D01*
X609469Y436249D02*
Y436433D01*
X576207Y404249D02*
X578469D01*
X572000Y497469D02*
X581031D01*
X625591Y452909D01*
D11*
X549969Y436249D02*
D03*
Y408296D02*
D03*
X283749Y497531D02*
D03*
X255796D02*
D03*
X248969Y404249D02*
D03*
Y376296D02*
D03*
X543751Y497469D02*
D03*
X571704D02*
D03*
X248969Y470749D02*
D03*
Y442796D02*
D03*
X609469Y436249D02*
D03*
Y408296D02*
D03*
X282969Y435749D02*
D03*
Y407796D02*
D03*
X578469Y404249D02*
D03*
Y376296D02*
D03*
X214969Y435249D02*
D03*
Y407296D02*
D03*
X578469Y468749D02*
D03*
Y440796D02*
D03*
D12*
X363319Y364256D02*
D03*
X359382D02*
D03*
X355445D02*
D03*
X351508D02*
D03*
X347571D02*
D03*
X343634D02*
D03*
X367256D02*
D03*
X371193D02*
D03*
X375130D02*
D03*
X379067D02*
D03*
X383004D02*
D03*
X390878D02*
D03*
X386941D02*
D03*
X442059D02*
D03*
X445996D02*
D03*
X449933D02*
D03*
X461744D02*
D03*
X457807D02*
D03*
X453870D02*
D03*
X473555D02*
D03*
X469618D02*
D03*
X465681D02*
D03*
X485366D02*
D03*
X481429D02*
D03*
X477492D02*
D03*
X430248D02*
D03*
X434185D02*
D03*
X438122D02*
D03*
X418437D02*
D03*
X422374D02*
D03*
X426311D02*
D03*
X406626D02*
D03*
X410563D02*
D03*
X414500D02*
D03*
X402689D02*
D03*
X398752D02*
D03*
X394815D02*
D03*
D13*
X589000Y350500D02*
X616500Y378000D01*
X549500Y350500D02*
X589000D01*
X271000Y366000D02*
X315638Y321362D01*
X255500Y366000D02*
X271000D01*
X315638Y321362D02*
X520362D01*
X549500Y350500D01*
D14*
X533000Y375939D02*
X550439Y358500D01*
X459000Y466500D02*
X463000D01*
X445000Y480500D02*
X459000Y466500D01*
X419500Y480500D02*
X445000D01*
X512500Y423000D02*
X533000Y402500D01*
X507000Y423000D02*
X512500D01*
X463000Y450500D02*
X467500Y446000D01*
Y426000D02*
Y446000D01*
Y423000D02*
Y426000D01*
Y421000D02*
Y423000D01*
X457000Y390000D02*
X460000Y393000D01*
X445000Y390000D02*
X457000D01*
X335500Y330000D02*
Y364000D01*
X335756Y364256D02*
Y369756D01*
X337500Y371500D01*
X386000D01*
X408500D01*
X409000Y372000D01*
X427500Y391000D02*
Y391500D01*
X409000Y372000D02*
X421000D01*
X421500Y372500D01*
X266500Y411000D02*
X267000Y411500D01*
X542657Y400343D02*
X568595D01*
X533500Y409500D02*
X542657Y400343D01*
X536000Y431500D02*
X539000D01*
X533500Y429000D02*
X536000Y431500D01*
X533500Y409500D02*
Y429000D01*
X609469Y436433D02*
Y447531D01*
X592944Y464056D02*
X609469Y447531D01*
X588737Y464056D02*
X592944D01*
X462000Y415500D02*
X467500Y421000D01*
X460000Y404000D02*
Y413500D01*
Y393000D02*
Y404000D01*
Y413500D02*
X462000Y415500D01*
X418437Y359437D02*
Y364256D01*
X400500Y341500D02*
X418437Y359437D01*
X387500Y341500D02*
X400500D01*
X414500Y359500D02*
Y364256D01*
X399000Y344000D02*
X414500Y359500D01*
X385000Y344000D02*
X399000D01*
X410563Y359563D02*
Y364256D01*
X397500Y346500D02*
X410563Y359563D01*
X382500Y346500D02*
X397500D01*
X406626Y359626D02*
Y364256D01*
X396000Y349000D02*
X406626Y359626D01*
X380000Y349000D02*
X396000D01*
X402689Y359689D02*
Y364256D01*
X394500Y351500D02*
X402689Y359689D01*
X377500Y351500D02*
X394500D01*
X398752Y359752D02*
Y364256D01*
X393000Y354000D02*
X398752Y359752D01*
X375000Y354000D02*
X393000D01*
X394815Y359815D02*
Y364256D01*
X391500Y356500D02*
X394815Y359815D01*
X372500Y356500D02*
X391500D01*
X430248Y343500D02*
Y364256D01*
X457807Y353693D02*
X457903Y353596D01*
X457807Y353693D02*
Y364256D01*
X434185Y345000D02*
Y364256D01*
X426311Y343000D02*
Y364256D01*
X422374Y341500D02*
Y364256D01*
X473500Y357000D02*
X473555Y357055D01*
Y364256D01*
X469618Y357118D02*
Y364256D01*
X465681Y355000D02*
Y364256D01*
X466000Y363937D01*
X453870Y352500D02*
Y364256D01*
X438122Y347000D02*
Y364256D01*
X442059Y348000D02*
Y364256D01*
X445996Y349500D02*
Y364256D01*
X449933Y351000D02*
Y364256D01*
X333894Y451606D02*
X334097D01*
X331500Y455000D02*
X332500D01*
X533000Y375939D02*
Y402500D01*
X576796Y440796D02*
X578469D01*
X503991Y423000D02*
X507000D01*
X467500D02*
X497009D01*
X501522Y425468D02*
X503991Y423000D01*
X497009D02*
X497532Y423523D01*
Y424022D01*
X498978Y425468D01*
X501522D01*
D15*
X341000Y464500D02*
X346500Y470000D01*
X270500Y464500D02*
X341000D01*
X269500Y463500D02*
X270500Y464500D01*
X345929Y471378D02*
X368878D01*
X340551Y466000D02*
X345929Y471378D01*
X267000Y466000D02*
X340551D01*
X346500Y470000D02*
X371000D01*
X368878Y471378D02*
X372000Y474500D01*
Y476000D01*
X371000Y470000D02*
X375000Y474000D01*
X458500Y428000D02*
Y437000D01*
X427500Y468000D02*
X458500Y437000D01*
X353343Y468000D02*
X427500D01*
X351343Y466000D02*
X353343Y468000D01*
X572000Y485250D02*
Y497469D01*
X571750Y485000D02*
X572000Y485250D01*
X485366Y343366D02*
Y364256D01*
X485000Y343000D02*
X485366Y343366D01*
X310000Y424000D02*
X335000D01*
X218020Y382514D02*
X231881Y396375D01*
X218020Y355020D02*
Y382514D01*
X214500Y351500D02*
X218020Y355020D01*
X209500Y351500D02*
X214500D01*
X297500Y375000D02*
Y399000D01*
X301000Y402500D01*
X303500Y405000D01*
Y422000D01*
X305500Y424000D01*
X309000D01*
X310000Y423000D01*
Y424000D01*
X310500Y417500D02*
X348500D01*
X307500Y420500D02*
X310500Y417500D01*
X356087Y419413D02*
X389413D01*
X351500Y424000D02*
X356087Y419413D01*
X335000Y424000D02*
X351500D01*
X335756Y364256D02*
X343634D01*
X351343Y447843D02*
Y466000D01*
X341000Y437500D02*
X351343Y447843D01*
X225205Y427375D02*
X233875D01*
X234500Y428000D01*
X352000Y476000D02*
X365000D01*
X234000Y476500D02*
X350500D01*
X214969Y435433D02*
Y457469D01*
Y435249D02*
Y435433D01*
Y457469D02*
X234000Y476500D01*
X368500Y474500D02*
Y477000D01*
X259237Y399556D02*
X293556D01*
X300500Y406500D01*
Y425500D01*
X304000Y429000D01*
X319500D01*
X341000Y450500D01*
Y454000D01*
X343000Y456000D01*
X293237Y431056D02*
X319056D01*
X339500Y451500D01*
Y456000D01*
X343500Y460000D01*
X234000Y375000D02*
X239000D01*
X348500Y417500D02*
X351500Y414500D01*
X409000D01*
X420000Y425500D01*
X284000Y500000D02*
X327500D01*
X330000Y502500D01*
X562056Y464056D02*
X568264D01*
X334500Y407500D02*
X342000Y415000D01*
X310000Y407500D02*
X334500D01*
X344659Y405000D02*
X347065Y407406D01*
X347299D01*
X308500Y405000D02*
X344659D01*
X306500Y407000D02*
X308500Y405000D01*
X326000Y392500D02*
X328500Y395000D01*
X309000Y392500D02*
X326000D01*
X345500Y402500D02*
X347000Y404000D01*
X335000Y402500D02*
X345500D01*
X349000Y399250D02*
Y399500D01*
X334500Y385000D02*
X349000Y399500D01*
X326000Y385000D02*
X334500D01*
X351429Y358571D02*
X351508Y358650D01*
X266469Y460968D02*
X329031D01*
X334097Y455903D01*
Y451606D02*
Y455903D01*
X266000Y460500D02*
X266469Y460968D01*
X269500Y458500D02*
X270500Y459500D01*
X328000D01*
X332500Y455000D01*
X567429Y441000D02*
X569929Y443500D01*
X551500Y441000D02*
X567429D01*
X549862Y444095D02*
Y451862D01*
X562056Y464056D01*
X547000Y436771D02*
X547500Y436271D01*
X547000Y436771D02*
Y446500D01*
X507000Y498500D02*
X543500D01*
X351000Y475000D02*
X352000Y476000D01*
X253220Y475000D02*
X351000D01*
X248969Y470749D02*
X249152Y470932D01*
X253220Y475000D01*
X352362Y478362D02*
X367138D01*
X350500Y476500D02*
X352362Y478362D01*
X367138D02*
X368500Y477000D01*
X560205Y428375D02*
X564375D01*
X567429Y431429D01*
Y441000D01*
D16*
X305000Y358500D02*
X327000Y336500D01*
X305000Y358500D02*
Y370000D01*
X461500Y349000D02*
X461744Y349244D01*
X219850Y408406D02*
X231881Y396375D01*
X305000Y370000D02*
Y385000D01*
X251000Y370000D02*
X305000D01*
X230000D02*
X251000D01*
X225157Y374843D02*
X230000Y370000D01*
X225157Y374843D02*
Y383157D01*
X249000Y434500D02*
X265000D01*
X241000D02*
X249000D01*
X305000Y385000D02*
Y400000D01*
X275000Y402500D02*
X284500D01*
X266500Y411000D02*
X275000Y402500D01*
X234500Y428000D02*
X241000Y434500D01*
X265000D02*
X271625Y427875D01*
X272733D01*
X231881Y396375D02*
X238733D01*
X479000Y328000D02*
X490000Y339000D01*
Y374000D01*
X480500Y383500D02*
X490000Y374000D01*
X453500Y383500D02*
X480500D01*
X424000Y389500D02*
Y393500D01*
X424500Y400500D02*
Y451000D01*
X421764Y397764D02*
X424500Y400500D01*
X381736Y397764D02*
X421764D01*
X428000Y397500D02*
Y455000D01*
X424000Y393500D02*
X428000Y397500D01*
X414000Y393500D02*
X424000D01*
X427500Y391000D02*
X435000Y383500D01*
X453500D01*
X421295Y454205D02*
X424500Y451000D01*
X409295Y454205D02*
X421295D01*
X370705D02*
X377705D01*
X367669Y451169D02*
X370705Y454205D01*
X367669Y447169D02*
Y451169D01*
X424000Y459000D02*
X428000Y455000D01*
X479500Y371000D02*
X481429Y369071D01*
X461744Y371000D02*
X479500D01*
X481429Y364256D02*
Y369071D01*
X461744Y349244D02*
Y364256D01*
X347571Y324571D02*
Y358571D01*
X256500Y411000D02*
X266500D01*
X267000Y411500D02*
Y426000D01*
X264500Y428500D02*
X267000Y426000D01*
X252500Y428500D02*
X264500D01*
X364000Y423500D02*
Y441500D01*
X372000Y393500D02*
X414000D01*
X399500Y459000D02*
X412500D01*
X368000D02*
X399500D01*
X412500D02*
X424000D01*
X364000Y455000D02*
X368000Y459000D01*
X364000Y441500D02*
Y455000D01*
X377705Y454205D02*
X409295D01*
X368736Y397764D02*
X381736D01*
X366500Y400000D02*
X368736Y397764D01*
X351508Y358650D02*
Y364256D01*
X347571Y358571D02*
X351429D01*
X347571D02*
Y364256D01*
X477492D02*
Y370248D01*
X461744Y364256D02*
Y370256D01*
X424000Y389500D02*
X434500Y379000D01*
X453744D01*
X461744Y371000D01*
X560237Y431556D02*
Y432343D01*
X539764Y431556D02*
Y432343D01*
X539733Y412627D02*
Y428375D01*
X560205Y412627D02*
Y428375D01*
X549969Y411871D02*
Y436249D01*
X546426Y409477D02*
Y432343D01*
X553512Y409871D02*
Y432343D01*
X543110Y414232D02*
Y434280D01*
X556890Y414232D02*
Y433887D01*
X279056Y487263D02*
X279843D01*
X279056Y507736D02*
X279843D01*
X260127Y507767D02*
X275875D01*
X260127Y487295D02*
X275875D01*
X259371Y497531D02*
X283749D01*
X256977Y501074D02*
X279843D01*
X257371Y493988D02*
X279843D01*
X261732Y504390D02*
X281780D01*
X261732Y490610D02*
X281387D01*
X259237Y399556D02*
Y400343D01*
X238764Y399556D02*
Y400343D01*
X238733Y380627D02*
Y396375D01*
X259205Y380627D02*
Y396375D01*
X248969Y379871D02*
Y404249D01*
X245426Y377477D02*
Y400343D01*
X252512Y377871D02*
Y400343D01*
X242110Y382232D02*
Y402280D01*
X255890Y382232D02*
Y401887D01*
X547657Y507737D02*
X548444D01*
X547657Y487264D02*
X548444D01*
X551625Y487233D02*
X567373D01*
X551625Y507705D02*
X567373D01*
X543751Y497469D02*
X568129D01*
X547657Y493926D02*
X570523D01*
X547657Y501012D02*
X570129D01*
X545720Y490610D02*
X565768D01*
X546113Y504390D02*
X565768D01*
X259237Y466056D02*
Y466843D01*
X238764Y466056D02*
Y466843D01*
X238733Y447127D02*
Y462875D01*
X259205Y447127D02*
Y462875D01*
X248969Y446371D02*
Y470749D01*
X245426Y443977D02*
Y466843D01*
X252512Y444371D02*
Y466843D01*
X242110Y448732D02*
Y468780D01*
X255890Y448732D02*
Y468387D01*
X619737Y431556D02*
Y432343D01*
X599264Y431556D02*
Y432343D01*
X599233Y412627D02*
Y428375D01*
X619705Y412627D02*
Y428375D01*
X609469Y411871D02*
Y436249D01*
X605926Y409477D02*
Y432343D01*
X613012Y409871D02*
Y432343D01*
X602610Y414232D02*
Y434280D01*
X616390Y414232D02*
Y433887D01*
X293237Y431056D02*
Y431843D01*
X272764Y431056D02*
Y431843D01*
X272733Y412127D02*
Y427875D01*
X293205Y412127D02*
Y427875D01*
X282969Y411371D02*
Y435749D01*
X279426Y408977D02*
Y431843D01*
X286512Y409371D02*
Y431843D01*
X276110Y413732D02*
Y433780D01*
X289890Y413732D02*
Y433387D01*
X588737Y399556D02*
Y400343D01*
X568264Y399556D02*
Y400343D01*
X568233Y380627D02*
Y396375D01*
X588705Y380627D02*
Y396375D01*
X578469Y379871D02*
Y404249D01*
X574926Y377477D02*
Y400343D01*
X582012Y377871D02*
Y400343D01*
X571610Y382232D02*
Y402280D01*
X585390Y382232D02*
Y401887D01*
X225237Y430556D02*
Y431343D01*
X204764Y430556D02*
Y431343D01*
X204733Y411627D02*
Y427375D01*
X225205Y411627D02*
Y427375D01*
X214969Y410871D02*
Y435249D01*
X211426Y408477D02*
Y431343D01*
X218512Y408871D02*
Y431343D01*
X208110Y413232D02*
Y433280D01*
X221890Y413232D02*
Y432887D01*
X500000Y383500D02*
Y423000D01*
X588737Y464056D02*
Y464843D01*
X568264Y464056D02*
Y464843D01*
X568233Y445127D02*
Y460875D01*
X588705Y445127D02*
Y460875D01*
X578469Y444371D02*
Y468749D01*
X574926Y441977D02*
Y464843D01*
X582012Y442371D02*
Y464843D01*
X571610Y446732D02*
Y466780D01*
X585390Y446732D02*
Y466387D01*
D17*
X431500Y395000D02*
X439500Y387000D01*
X425500Y462500D02*
X431500Y456500D01*
X366000Y462500D02*
X425500D01*
X361000Y457500D02*
X366000Y462500D01*
X431500Y421500D02*
Y456500D01*
Y395000D02*
Y421500D01*
X277500Y480000D02*
X317000D01*
X431500Y421500D02*
X461000D01*
X317000Y480000D02*
X344500Y507500D01*
X512500D01*
X439500Y387000D02*
X483000D01*
X494000Y348500D02*
X508000Y334500D01*
X494000Y348500D02*
Y376000D01*
X483000Y387000D02*
X494000Y376000D01*
D18*
X351000Y347000D02*
Y351500D01*
X354500Y348000D02*
Y351500D01*
X363319Y360319D01*
X358000Y349000D02*
Y351000D01*
X367256Y360256D01*
X363319Y360319D02*
Y364256D01*
X361500Y350000D02*
X371193Y359693D01*
Y364256D01*
X367256Y360256D02*
Y364256D01*
X351000Y351500D02*
X359382Y359882D01*
Y364256D01*
D19*
X623500Y362563D02*
D03*
X275126Y311000D02*
D03*
X290874D02*
D03*
X283000D02*
D03*
D20*
X623500Y370437D02*
D03*
D21*
X209500Y351500D02*
D03*
X233000Y311000D02*
D03*
D22*
X209500Y361500D02*
D03*
D23*
X298748Y311000D02*
D03*
X267252D02*
D03*
D24*
X554032Y297878D02*
D03*
X593402D02*
D03*
D25*
X557969Y336854D02*
D03*
X589465D02*
D03*
X573717Y337248D02*
D03*
D26*
X243000Y311000D02*
D03*
D27*
X318831Y363469D02*
D03*
X510169Y363469D02*
D03*
D28*
X450500Y317500D02*
D03*
X255500Y366000D02*
D03*
X616500Y378000D02*
D03*
X419500Y480500D02*
D03*
X347000Y466500D02*
D03*
X372000Y476000D02*
D03*
X375000Y474000D02*
D03*
X267000Y466000D02*
D03*
X269500Y463500D02*
D03*
X364500Y410500D02*
D03*
X419000Y404000D02*
D03*
X419500Y417500D02*
D03*
X261500Y419500D02*
D03*
X501000Y431000D02*
D03*
X481500Y398500D02*
D03*
Y450500D02*
D03*
X622500Y344000D02*
D03*
X571750Y485000D02*
D03*
X327000Y336500D02*
D03*
X461500Y349000D02*
D03*
X485000Y343000D02*
D03*
X250000Y497500D02*
D03*
X507000Y423000D02*
D03*
X445000Y390000D02*
D03*
X335500Y330000D02*
D03*
X251000Y370000D02*
D03*
X225157Y383157D02*
D03*
X305000Y385000D02*
D03*
X284500Y402500D02*
D03*
X297500Y375000D02*
D03*
X301000Y402500D02*
D03*
X307500Y420500D02*
D03*
X310000Y423000D02*
D03*
X335000Y424000D02*
D03*
X305000Y400000D02*
D03*
X373500Y370500D02*
D03*
X386000Y371500D02*
D03*
X335500Y364000D02*
D03*
X351343Y466000D02*
D03*
X508000Y334500D02*
D03*
X479000Y328000D02*
D03*
X424638Y401000D02*
D03*
X427500Y391500D02*
D03*
X453500Y383500D02*
D03*
X428000Y445000D02*
D03*
Y421500D02*
D03*
X431500Y395000D02*
D03*
X347571Y324571D02*
D03*
X351000Y347000D02*
D03*
X354500Y348000D02*
D03*
X358000Y349000D02*
D03*
X596500Y376296D02*
D03*
X361500Y350000D02*
D03*
X234500Y428000D02*
D03*
X368500Y474500D02*
D03*
X343000Y456000D02*
D03*
X343500Y460000D02*
D03*
X365000Y476000D02*
D03*
X341000Y437500D02*
D03*
X458500Y428000D02*
D03*
X512500Y507500D02*
D03*
X277500Y480000D02*
D03*
X266500Y411000D02*
D03*
X256000Y411500D02*
D03*
X267000Y426000D02*
D03*
X252500Y428500D02*
D03*
X239000Y375000D02*
D03*
X234000D02*
D03*
X420000Y425500D02*
D03*
X330000Y502500D02*
D03*
X421500Y372500D02*
D03*
X409000Y372000D02*
D03*
X361000Y457500D02*
D03*
X461000Y421500D02*
D03*
X463000Y466500D02*
D03*
Y450500D02*
D03*
X467500Y426000D02*
D03*
X462000Y415500D02*
D03*
X460000Y393000D02*
D03*
Y404000D02*
D03*
X377705Y454205D02*
D03*
X366500Y400000D02*
D03*
X364000Y423500D02*
D03*
Y441500D02*
D03*
X367669Y447169D02*
D03*
X368000Y459000D02*
D03*
X381500Y459028D02*
D03*
X399500Y459000D02*
D03*
X409295Y454205D02*
D03*
X412500Y459000D02*
D03*
X424500Y451000D02*
D03*
X414000Y393500D02*
D03*
X405358Y393358D02*
D03*
X389610Y393390D02*
D03*
X381736Y397764D02*
D03*
X372000Y393500D02*
D03*
X310000Y407500D02*
D03*
X306500Y407000D02*
D03*
X328500Y395000D02*
D03*
X309000Y392500D02*
D03*
X342000Y415000D02*
D03*
X335000Y402500D02*
D03*
X347299Y407406D02*
D03*
X349000Y399250D02*
D03*
X347000Y404000D02*
D03*
X326000Y385000D02*
D03*
X387500Y341500D02*
D03*
X385000Y344000D02*
D03*
X382500Y346500D02*
D03*
X380000Y349000D02*
D03*
X377500Y351500D02*
D03*
X375000Y354000D02*
D03*
X372500Y356500D02*
D03*
X422374Y341500D02*
D03*
X430248Y343500D02*
D03*
X426311Y343000D02*
D03*
X434185Y345000D02*
D03*
X442059Y348000D02*
D03*
X438122Y347000D02*
D03*
X446000Y349500D02*
D03*
X450000Y351000D02*
D03*
X454000Y352500D02*
D03*
X457903Y353596D02*
D03*
X465681Y355000D02*
D03*
X469500Y356500D02*
D03*
X473500Y357500D02*
D03*
X333894Y451606D02*
D03*
X331500Y455000D02*
D03*
X269500Y458500D02*
D03*
X266000Y460500D02*
D03*
X551500Y441000D02*
D03*
X549862Y444095D02*
D03*
X547000Y446500D02*
D03*
X507000Y498500D02*
D03*
X340500Y472500D02*
D03*
X328000Y481500D02*
D03*
X337000Y509500D02*
D03*
X239500Y508500D02*
D03*
X206500Y482500D02*
D03*
X218000Y473000D02*
D03*
X227000Y455500D02*
D03*
X214000Y373500D02*
D03*
X230500Y346000D02*
D03*
X261500Y345500D02*
D03*
X323500Y307500D02*
D03*
X356000D02*
D03*
X376000Y325500D02*
D03*
X362500Y343000D02*
D03*
X446000D02*
D03*
X408209Y330000D02*
D03*
X599000Y308500D02*
D03*
X537500Y309000D02*
D03*
X539000Y329000D02*
D03*
X535500Y359500D02*
D03*
X534500Y393500D02*
D03*
X528500Y448000D02*
D03*
X515500Y474500D02*
D03*
X499500Y492500D02*
D03*
Y511000D02*
D03*
X448500D02*
D03*
X412500D02*
D03*
X390000Y479500D02*
D03*
X379500Y511000D02*
D03*
X366500Y497500D02*
D03*
X398000D02*
D03*
X448500Y499000D02*
D03*
X490000D02*
D03*
X591500Y509500D02*
D03*
X622500Y480500D02*
D03*
X544000Y465000D02*
D03*
X575000Y421000D02*
D03*
X622500Y442500D02*
D03*
Y389500D02*
D03*
X561500Y358500D02*
D03*
X500000Y383500D02*
D03*
X357000Y378000D02*
D03*
X322000Y470500D02*
D03*
X308500D02*
D03*
X284500D02*
D03*
X285500Y455000D02*
D03*
X323000Y448500D02*
D03*
X312500D02*
D03*
X410500Y340000D02*
D03*
X500000Y423000D02*
D03*
D29*
X389413Y419413D02*
D03*
X394138D02*
D03*
X398862D02*
D03*
X403587D02*
D03*
X389413Y424138D02*
D03*
X394138Y424138D02*
D03*
X398862D02*
D03*
X403587D02*
D03*
X389413Y428862D02*
D03*
X394138D02*
D03*
X398862D02*
D03*
X403587D02*
D03*
X389413Y433587D02*
D03*
X394138D02*
D03*
X398862D02*
D03*
X403587D02*
D03*
M02*
