M48
;Layer_Color=9474304
;FILE_FORMAT=2:5
INCH,LZ
;TYPE=PLATED
T1F00S00C0.01181
T2F00S00C0.01299
T3F00S00C0.02756
T4F00S00C0.03000
T5F00S00C0.03543
T6F00S00C0.03937
T7F00S00C0.05118
T8F00S00C0.05512
;TYPE=NON_PLATED
T9F00S00C0.01968
T10F00S00C0.02756
T11F00S00C0.03937
T12F00S00C0.07874
T13F00S00C0.09449
T14F00S00C0.23622
%
T01
X05375Y0309
X0599Y03085
X0356Y03075
X03235
X02975Y0375
X0305Y0385
X0309Y03925
X0305Y04
X0301Y04025
X03065Y0407
X031Y04075
X03075Y04205
X031Y0423
X02845Y04025
X02665Y0411
X0256Y04115
X02615Y04195
X0267Y0426
X02525Y04285
X02345Y0428
X0227Y04555
X0266Y04605
X02695Y04585
Y04635
X0267Y0466
X02855Y0455
X02555Y0366
X0251Y037
X0239Y0375
X0234
X0225157Y0383157
X0214Y03735
X02305Y0346
X02615Y03455
X0327Y03365
X03355Y033
X0347571Y0324571
X0351Y0347
X03545Y0348
X0358Y0349
X03615Y035
X03625Y0343
X0385Y0344
X03875Y03415
X03825Y03465
X038Y0349
X03775Y03515
X0375Y0354
X03725Y03565
X03735Y03705
X0386Y03715
X0409Y0372
X04215Y03725
X04275Y03915
X04315Y0395
X0424638Y0401
X0419Y0404
X04195Y04175
X042Y04255
X0428Y04215
Y0445
X04245Y0451
X0409295Y0454205
X04125Y0459
X03995
X03815Y0459028
X0377705Y0454205
X0368Y0459
X0361Y04575
X0367669Y0447169
X0364Y04415
Y04235
X03645Y04105
X03665Y04
X0372Y03935
X0381736Y0397764
X038961Y039339
X0405358Y0393358
X0414Y03935
X0445Y039
X04535Y03835
X046Y0393
Y0404
X0462Y04155
X0461Y04215
X04585Y0428
X04675Y0426
X0463Y04505
Y04665
X0351343Y0466
X0347Y04665
X03435Y046
X0343Y0456
X03315Y0455
X0333894Y0451606
X0323Y04485
X03125
X0341Y04375
X0335Y0424
X0342Y0415
X0347299Y0407406
X0347Y0404
X0349Y039925
X0335Y04025
X03285Y0395
X0326Y0385
X03355Y0364
X0357Y0378
X0376Y03255
X0408209Y033
X04105Y034
X0422374Y03415
X0426311Y0343
X0430248Y03435
X0434185Y0345
X0438122Y0347
X0442059Y0348
X0446Y03495
X045Y0351
X0454Y03525
X0457903Y0353596
X04615Y0349
X0465681Y0355
X0446Y0343
X04505Y03175
X0479Y0328
X0485Y0343
X04735Y03575
X04695Y03565
X04815Y03985
X05Y03835
Y0423
X0507
X0501Y0431
X04815Y04505
X05285Y0448
X0547Y04465
X0549862Y0444095
X05515Y0441
X0544Y0465
X0575Y0421
X05965Y0376296
X06165Y0378
X06225Y03895
Y0344
X05615Y03585
X05355Y03595
X0539Y0329
X0508Y03345
X05345Y03935
X06225Y04425
Y04805
X057175Y0485
X05915Y05095
X05125Y05075
X0507Y04985
X04995Y04925
X049Y0499
X04995Y0511
X05155Y04745
X04485Y0499
Y0511
X04125
X0398Y04975
X039Y04795
X0375Y0474
X0372Y0476
X03685Y04745
X0365Y0476
X03665Y04975
X03795Y0511
X0337Y05095
X033Y05025
X0328Y04815
X0322Y04705
X03405Y04725
X04195Y04805
X03085Y04705
X02845
X02775Y048
X025Y04975
X02395Y05085
X0218Y0473
X02065Y04825
T02
X0389413Y0419413
X0394138
X0398862
X0403587
Y0424138
X0398862
X0394138
X0389413Y0424138
X0389413Y0428862
X0394138
X0398862
X0403587
Y0433587
X0398862
X0394138
X0389413
T03
X06235Y0362563
Y0370437
T04
X0275126Y0311
X0283
X0290874
T05
X0233Y0311
X0243
X02095Y03515
Y03615
T06
X0557969Y0336854
X0573717Y0337248
X0589465Y0336854
T07
X0554032Y0297878
X0593402
T08
X0267252Y0311
X0298748
T09
X0318831Y0363469
X0510169Y0363469
T10
X030387Y0319374
X052513
Y0504413
X030387
X0307965Y0495504
X0290642
T11
X05385Y0485445
Y0507098
T12
X02205Y0393
X02785Y0449
X05895Y04325
X057Y04105
T13
X02835Y0384
X05455
T14
X0619Y0311
X02105
X0611Y04995
M30
