%FSLAX25Y25*%
%MOIN*%
G70*
G01*
G75*
G04 Layer_Color=65535*
%ADD10C,0.02362*%
%ADD11C,0.02063*%
%ADD12R,0.01969X0.07874*%
%ADD13C,0.00984*%
%ADD14C,0.01000*%
%ADD15C,0.00787*%
%ADD16C,0.01969*%
%ADD17C,0.01378*%
%ADD18C,0.01181*%
%ADD19C,0.06000*%
%ADD20R,0.06000X0.06000*%
%ADD21C,0.05906*%
%ADD22R,0.05906X0.05906*%
%ADD23O,0.07874X0.11811*%
%ADD24C,0.09843*%
%ADD25C,0.07874*%
%ADD26R,0.05906X0.05906*%
%ADD27R,0.04724X0.06693*%
%ADD28C,0.02756*%
%ADD29C,0.02598*%
%ADD30R,0.03543X0.02362*%
%ADD31R,0.02756X0.03543*%
%ADD32R,0.02362X0.03543*%
%ADD33R,0.03543X0.02756*%
%ADD34R,0.05512X0.03937*%
G04:AMPARAMS|DCode=35|XSize=27.56mil|YSize=35.43mil|CornerRadius=0mil|HoleSize=0mil|Usage=FLASHONLY|Rotation=315.000|XOffset=0mil|YOffset=0mil|HoleType=Round|Shape=Rectangle|*
%AMROTATEDRECTD35*
4,1,4,-0.02227,-0.00278,0.00278,0.02227,0.02227,0.00278,-0.00278,-0.02227,-0.02227,-0.00278,0.0*
%
%ADD35ROTATEDRECTD35*%

%ADD36R,0.10236X0.04724*%
%ADD37R,0.02559X0.03543*%
%ADD38R,0.03937X0.05512*%
G04:AMPARAMS|DCode=39|XSize=27.56mil|YSize=35.43mil|CornerRadius=0mil|HoleSize=0mil|Usage=FLASHONLY|Rotation=45.000|XOffset=0mil|YOffset=0mil|HoleType=Round|Shape=Rectangle|*
%AMROTATEDRECTD39*
4,1,4,0.00278,-0.02227,-0.02227,0.00278,-0.00278,0.02227,0.02227,-0.00278,0.00278,-0.02227,0.0*
%
%ADD39ROTATEDRECTD39*%

%ADD40R,0.01575X0.02362*%
%ADD41R,0.02362X0.01575*%
%ADD42R,0.03937X0.00787*%
%ADD43R,0.03937X0.01969*%
%ADD44R,0.06299X0.05118*%
%ADD45R,0.03543X0.03937*%
%ADD46O,0.08661X0.02362*%
%ADD47O,0.01181X0.07087*%
%ADD48O,0.07087X0.01181*%
%ADD49O,0.05906X0.01969*%
%ADD50R,0.16929X0.16929*%
%ADD51R,0.02559X0.04331*%
%ADD52O,0.02362X0.08661*%
%ADD53R,0.01969X0.01969*%
%ADD54R,0.01969X0.01575*%
%ADD55R,0.05709X0.03150*%
%ADD56R,0.07087X0.09843*%
%ADD57R,0.01969X0.07874*%
%ADD58R,0.07874X0.07874*%
%ADD59R,0.06299X0.03937*%
%ADD60C,0.03937*%
D14*
X632478Y366500D02*
G03*
X632478Y366500I-8978J0D01*
G01*
X302295Y505988D02*
X526705D01*
Y317799D02*
Y505988D01*
X302295Y317799D02*
X526705D01*
X302295D02*
Y505988D01*
D15*
X619000Y355436D02*
Y351500D01*
X620968D01*
X621624Y352156D01*
Y354780D01*
X620968Y355436D01*
X619000D01*
X622936Y351500D02*
X624248D01*
X623592D01*
Y355436D01*
X622936Y354780D01*
X483000Y482436D02*
Y478500D01*
X485624D01*
X489560Y481780D02*
X488904Y482436D01*
X487592D01*
X486936Y481780D01*
Y479156D01*
X487592Y478500D01*
X488904D01*
X489560Y479156D01*
X490871Y482436D02*
Y478500D01*
X492839D01*
X493495Y479156D01*
Y481780D01*
X492839Y482436D01*
X490871D01*
X494807Y478500D02*
X496119D01*
X495463D01*
Y482436D01*
X494807Y481780D01*
M02*
