%FSLAX25Y25*%
%MOIN*%
G70*
G01*
G75*
G04 Layer_Physical_Order=2*
G04 Layer_Color=16711680*
%ADD10C,0.02362*%
%ADD11C,0.02063*%
%ADD12R,0.01969X0.07874*%
%ADD13C,0.00984*%
%ADD14C,0.01000*%
%ADD15C,0.00787*%
%ADD16C,0.01969*%
%ADD17C,0.01378*%
%ADD18C,0.01181*%
%ADD19C,0.06000*%
%ADD20R,0.06000X0.06000*%
%ADD21C,0.05906*%
%ADD22R,0.05906X0.05906*%
%ADD23O,0.07874X0.11811*%
%ADD24C,0.09843*%
%ADD25C,0.07874*%
%ADD26R,0.05906X0.05906*%
%ADD27R,0.04724X0.06693*%
%ADD28C,0.02756*%
%ADD29C,0.02598*%
%ADD30R,0.03543X0.02362*%
%ADD31R,0.02756X0.03543*%
%ADD32R,0.02362X0.03543*%
%ADD33R,0.03543X0.02756*%
%ADD34R,0.05512X0.03937*%
G04:AMPARAMS|DCode=35|XSize=27.56mil|YSize=35.43mil|CornerRadius=0mil|HoleSize=0mil|Usage=FLASHONLY|Rotation=315.000|XOffset=0mil|YOffset=0mil|HoleType=Round|Shape=Rectangle|*
%AMROTATEDRECTD35*
4,1,4,-0.02227,-0.00278,0.00278,0.02227,0.02227,0.00278,-0.00278,-0.02227,-0.02227,-0.00278,0.0*
%
%ADD35ROTATEDRECTD35*%

%ADD36R,0.10236X0.04724*%
%ADD37R,0.02559X0.03543*%
%ADD38R,0.03937X0.05512*%
G04:AMPARAMS|DCode=39|XSize=27.56mil|YSize=35.43mil|CornerRadius=0mil|HoleSize=0mil|Usage=FLASHONLY|Rotation=45.000|XOffset=0mil|YOffset=0mil|HoleType=Round|Shape=Rectangle|*
%AMROTATEDRECTD39*
4,1,4,0.00278,-0.02227,-0.02227,0.00278,-0.00278,0.02227,0.02227,-0.00278,0.00278,-0.02227,0.0*
%
%ADD39ROTATEDRECTD39*%

%ADD40R,0.01575X0.02362*%
%ADD41R,0.02362X0.01575*%
%ADD42R,0.03937X0.00787*%
%ADD43R,0.03937X0.01969*%
%ADD44R,0.06299X0.05118*%
%ADD45R,0.03543X0.03937*%
%ADD46O,0.08661X0.02362*%
%ADD47O,0.01181X0.07087*%
%ADD48O,0.07087X0.01181*%
%ADD49O,0.05906X0.01969*%
%ADD50R,0.16929X0.16929*%
%ADD51R,0.02559X0.04331*%
%ADD52O,0.02362X0.08661*%
%ADD53R,0.01969X0.01969*%
%ADD54R,0.01969X0.01575*%
%ADD55R,0.05709X0.03150*%
%ADD56R,0.07087X0.09843*%
%ADD57R,0.01969X0.07874*%
%ADD58R,0.07874X0.07874*%
%ADD59R,0.06299X0.03937*%
%ADD60C,0.03937*%
G36*
X595894Y486000D02*
X596017Y485386D01*
X596365Y484865D01*
X596885Y484517D01*
X597500Y484394D01*
X626894D01*
Y386775D01*
X626256Y386415D01*
X626107Y386415D01*
X620744D01*
Y385754D01*
X620174Y385641D01*
X619686Y385314D01*
X615436Y381064D01*
X615109Y380576D01*
X614995Y380000D01*
Y379835D01*
X614797Y379703D01*
X614275Y378922D01*
X614091Y378000D01*
X614275Y377078D01*
X614797Y376297D01*
X615578Y375775D01*
X616500Y375591D01*
X617422Y375775D01*
X618203Y376297D01*
X618725Y377078D01*
X618909Y378000D01*
X618725Y378922D01*
X618255Y379626D01*
X620208Y381579D01*
X620744Y382085D01*
Y382085D01*
X620744Y382085D01*
X626107D01*
X626256Y382085D01*
X626894Y381725D01*
Y380275D01*
X626256Y379915D01*
Y379915D01*
X620744D01*
Y375585D01*
X621894D01*
Y374421D01*
X619516D01*
Y366453D01*
X626894D01*
Y326106D01*
X605500D01*
X604885Y325983D01*
X604365Y325635D01*
X604017Y325114D01*
X603894Y324500D01*
Y302106D01*
X597560D01*
X596699Y302812D01*
X595673Y303360D01*
X594560Y303698D01*
X593402Y303812D01*
X592245Y303698D01*
X591131Y303360D01*
X590106Y302812D01*
X589245Y302106D01*
X558190D01*
X557329Y302812D01*
X556303Y303360D01*
X555190Y303698D01*
X554032Y303812D01*
X552875Y303698D01*
X551761Y303360D01*
X550736Y302812D01*
X549875Y302106D01*
X225606D01*
Y324500D01*
X225483Y325114D01*
X225135Y325635D01*
X224615Y325983D01*
X224000Y326106D01*
X202106D01*
Y487394D01*
X233000D01*
X233614Y487517D01*
X234135Y487865D01*
X234483Y488385D01*
X234606Y489000D01*
Y512894D01*
X595894D01*
Y486000D01*
D02*
G37*
%LPC*%
G36*
X318831Y365476D02*
X318063Y365323D01*
X317411Y364888D01*
X316976Y364237D01*
X316824Y363469D01*
X316976Y362701D01*
X317411Y362049D01*
X318063Y361614D01*
X318831Y361461D01*
X319599Y361614D01*
X320250Y362049D01*
X320685Y362701D01*
X320838Y363469D01*
X320685Y364237D01*
X320250Y364888D01*
X319599Y365323D01*
X318831Y365476D01*
D02*
G37*
G36*
X510169Y365476D02*
X509401Y365323D01*
X508750Y364888D01*
X508315Y364237D01*
X508162Y363469D01*
X508315Y362701D01*
X508750Y362049D01*
X509401Y361614D01*
X510169Y361461D01*
X510937Y361614D01*
X511588Y362049D01*
X512024Y362701D01*
X512176Y363469D01*
X512024Y364237D01*
X511588Y364888D01*
X510937Y365323D01*
X510169Y365476D01*
D02*
G37*
G36*
X337319Y358587D02*
X333382D01*
Y354650D01*
Y354106D01*
X328965D01*
Y355059D01*
X321287D01*
Y349941D01*
X328965D01*
Y350894D01*
X333382D01*
Y348153D01*
Y344413D01*
X337319D01*
Y348153D01*
Y351303D01*
Y354650D01*
Y358587D01*
D02*
G37*
G36*
X616915Y371256D02*
X612585D01*
Y365744D01*
X613044D01*
Y364756D01*
X612585D01*
Y362204D01*
X612544Y362000D01*
Y358415D01*
X609956D01*
Y359244D01*
X610415D01*
Y364756D01*
X606085D01*
Y364415D01*
X600744D01*
Y360085D01*
X606085D01*
Y359244D01*
X606544D01*
Y358415D01*
X605744D01*
X605744Y358415D01*
Y358415D01*
X605744Y358415D01*
X605012Y358548D01*
Y358756D01*
X600287D01*
Y353244D01*
X605012D01*
Y353952D01*
X605744Y354085D01*
X605744Y354085D01*
X605744Y354085D01*
X616256D01*
X616488Y353394D01*
Y353244D01*
X621213D01*
Y358756D01*
X617500D01*
X616915Y359244D01*
X616915Y359366D01*
Y364756D01*
X616456D01*
Y365744D01*
X616915D01*
Y371256D01*
D02*
G37*
G36*
X581284Y373015D02*
X580439Y372847D01*
X579722Y372368D01*
X579244Y371652D01*
X579076Y370807D01*
Y369363D01*
X573240D01*
Y370516D01*
X565760D01*
Y364610D01*
X573240D01*
Y365951D01*
X579076D01*
Y364508D01*
X579244Y363663D01*
X579722Y362947D01*
X580439Y362468D01*
X581284Y362300D01*
X582128Y362468D01*
X582845Y362947D01*
X583323Y363663D01*
X583491Y364508D01*
Y370807D01*
X583323Y371652D01*
X582845Y372368D01*
X582128Y372847D01*
X581284Y373015D01*
D02*
G37*
G36*
X545500Y389758D02*
X544010Y389562D01*
X542621Y388986D01*
X541429Y388071D01*
X540514Y386879D01*
X539938Y385490D01*
X539742Y384000D01*
X539938Y382510D01*
X540514Y381121D01*
X541429Y379928D01*
X542621Y379013D01*
X544010Y378438D01*
X545500Y378242D01*
X546990Y378438D01*
X548379Y379013D01*
X549572Y379928D01*
X550487Y381121D01*
X551062Y382510D01*
X551258Y384000D01*
X551062Y385490D01*
X550487Y386879D01*
X549572Y388071D01*
X548379Y388986D01*
X546990Y389562D01*
X545500Y389758D01*
D02*
G37*
G36*
X284500Y404909D02*
X283578Y404725D01*
X282797Y404203D01*
X282275Y403422D01*
X282091Y402500D01*
X282275Y401578D01*
X282797Y400797D01*
X283578Y400275D01*
X283963Y400198D01*
X300581Y383581D01*
X301232Y383146D01*
X302000Y382993D01*
X303752D01*
X304078Y382775D01*
X305000Y382592D01*
X305922Y382775D01*
X306703Y383297D01*
X307225Y384078D01*
X307408Y385000D01*
X307225Y385922D01*
X306703Y386703D01*
X305922Y387225D01*
X305000Y387408D01*
X304078Y387225D01*
X303752Y387007D01*
X302831D01*
X286802Y403037D01*
X286725Y403422D01*
X286203Y404203D01*
X285422Y404725D01*
X284500Y404909D01*
D02*
G37*
G36*
X596500Y373015D02*
X595655Y372847D01*
X594939Y372368D01*
X594460Y371652D01*
X594401Y371356D01*
X593599D01*
X593540Y371652D01*
X593061Y372368D01*
X592345Y372847D01*
X591500Y373015D01*
X590655Y372847D01*
X589939Y372368D01*
X589460Y371652D01*
X589401Y371356D01*
X588599D01*
X588540Y371652D01*
X588061Y372368D01*
X587345Y372847D01*
X586500Y373015D01*
X585655Y372847D01*
X584939Y372368D01*
X584460Y371652D01*
X584292Y370807D01*
Y364508D01*
X584460Y363663D01*
X584794Y363163D01*
Y358756D01*
X583585D01*
Y357356D01*
X576756D01*
Y358012D01*
X571244D01*
Y353287D01*
X576756D01*
Y353944D01*
X583585D01*
Y353244D01*
X587915D01*
Y355856D01*
X588076Y356097D01*
X588206Y356750D01*
Y363163D01*
X588540Y363663D01*
X588599Y363959D01*
X589401D01*
X589460Y363663D01*
X589939Y362947D01*
X590655Y362468D01*
X591500Y362300D01*
X592345Y362468D01*
X593061Y362947D01*
X593540Y363663D01*
X593599Y363959D01*
X594401D01*
X594460Y363663D01*
X594939Y362947D01*
X595655Y362468D01*
X596500Y362300D01*
X597345Y362468D01*
X598061Y362947D01*
X598540Y363663D01*
X598708Y364508D01*
Y370807D01*
X598540Y371652D01*
X598061Y372368D01*
X597345Y372847D01*
X596500Y373015D01*
D02*
G37*
G36*
X283500Y389758D02*
X282010Y389562D01*
X280621Y388986D01*
X279429Y388071D01*
X278514Y386879D01*
X277938Y385490D01*
X277742Y384000D01*
X277938Y382510D01*
X278514Y381121D01*
X279429Y379928D01*
X280621Y379013D01*
X282010Y378438D01*
X283500Y378242D01*
X284990Y378438D01*
X286379Y379013D01*
X287572Y379928D01*
X288487Y381121D01*
X289062Y382510D01*
X289258Y384000D01*
X289062Y385490D01*
X288487Y386879D01*
X287572Y388071D01*
X286379Y388986D01*
X284990Y389562D01*
X283500Y389758D01*
D02*
G37*
G36*
X508000Y336909D02*
X507078Y336725D01*
X506297Y336203D01*
X505775Y335422D01*
X505591Y334500D01*
X505775Y333578D01*
X505798Y333543D01*
X505787Y332756D01*
X505787Y332756D01*
X505787Y332756D01*
Y327244D01*
X505919D01*
X505976Y326480D01*
X505976Y326480D01*
X505976Y326480D01*
Y320969D01*
X510504D01*
Y322109D01*
X512760D01*
Y320484D01*
X520240D01*
Y326390D01*
X512760D01*
Y325521D01*
X510504D01*
Y326480D01*
X510504Y326480D01*
D01*
X510512Y327244D01*
X510512D01*
X510512Y327264D01*
Y332756D01*
X510512D01*
X510202Y333543D01*
X510225Y333578D01*
X510408Y334500D01*
X510225Y335422D01*
X509703Y336203D01*
X508922Y336725D01*
X508000Y336909D01*
D02*
G37*
G36*
X473415Y338756D02*
X469085D01*
Y333244D01*
X468787Y332756D01*
X468787D01*
Y327244D01*
X469243D01*
Y326374D01*
X461496D01*
Y324755D01*
X460256D01*
Y325512D01*
X454744D01*
Y320787D01*
X460256D01*
Y321544D01*
X461496D01*
Y320075D01*
X473504D01*
Y321217D01*
X475260D01*
Y319484D01*
X482740D01*
Y325390D01*
X481007D01*
Y326752D01*
X481225Y327078D01*
X481409Y328000D01*
X481225Y328922D01*
X480703Y329703D01*
X479922Y330225D01*
X479000Y330409D01*
X478078Y330225D01*
X477297Y329703D01*
X476775Y328922D01*
X476591Y328000D01*
X476775Y327078D01*
X476993Y326752D01*
Y325390D01*
X475260D01*
Y325232D01*
X473504D01*
Y326374D01*
X473257D01*
Y327244D01*
X473512D01*
Y332497D01*
X473512Y332756D01*
X473512D01*
X473512Y332756D01*
X473512D01*
X473415Y333244D01*
Y333244D01*
X473415D01*
X473415Y333244D01*
Y338756D01*
D02*
G37*
G36*
X525130Y321782D02*
X524208Y321599D01*
X523427Y321077D01*
X522905Y320296D01*
X522721Y319374D01*
X522905Y318452D01*
X523427Y317671D01*
X524208Y317149D01*
X525130Y316966D01*
X526052Y317149D01*
X526833Y317671D01*
X527355Y318452D01*
X527538Y319374D01*
X527355Y320296D01*
X526833Y321077D01*
X526052Y321599D01*
X525130Y321782D01*
D02*
G37*
G36*
X418256Y325512D02*
X418222Y325512D01*
X412744D01*
Y320787D01*
X418256D01*
X418256Y320787D01*
Y320787D01*
X418996Y320673D01*
Y319969D01*
X423524D01*
Y325480D01*
X418996D01*
X418996Y325480D01*
D01*
X418996D01*
X418256Y325512D01*
D02*
G37*
G36*
X503024Y326480D02*
X498496D01*
Y325330D01*
X496756D01*
Y326012D01*
X491244D01*
Y321287D01*
X496756D01*
Y322119D01*
X498496D01*
Y320969D01*
X503024D01*
Y326480D01*
D02*
G37*
G36*
X319713Y351319D02*
X312035D01*
Y346201D01*
X312982D01*
X313585Y345756D01*
Y340244D01*
X317915D01*
Y340244D01*
X318585D01*
Y340244D01*
X322915D01*
Y345756D01*
X320316D01*
X319713Y346201D01*
Y351319D01*
D02*
G37*
G36*
X616488Y352256D02*
X616256Y351915D01*
X605744D01*
X605744Y351915D01*
Y351915D01*
X605744Y351915D01*
X605012Y352048D01*
Y352256D01*
X600287D01*
Y346744D01*
X600944D01*
Y345390D01*
X600760D01*
Y339484D01*
X608240D01*
Y345390D01*
X604356D01*
Y346744D01*
X605012D01*
Y347452D01*
X605744Y347585D01*
X605744Y347585D01*
X605744Y347585D01*
X611794D01*
Y345390D01*
X609760D01*
Y339484D01*
X617240D01*
Y345390D01*
X615206D01*
Y347028D01*
X615510Y347332D01*
X616388Y347192D01*
X616488Y346894D01*
Y346744D01*
X621213D01*
Y352256D01*
X616488D01*
Y352256D01*
D02*
G37*
G36*
X589465Y341818D02*
X588181Y341649D01*
X586983Y341153D01*
X585955Y340364D01*
X585167Y339336D01*
X584671Y338139D01*
X584502Y336854D01*
X584671Y335570D01*
X585167Y334372D01*
X585955Y333344D01*
X586983Y332556D01*
X588181Y332060D01*
X589465Y331891D01*
X590750Y332060D01*
X591947Y332556D01*
X592340Y332857D01*
X600760D01*
Y331610D01*
X608240D01*
Y332857D01*
X609760D01*
Y331610D01*
X617240D01*
Y332857D01*
X619744D01*
Y332085D01*
X625256D01*
Y336415D01*
X619744D01*
Y336269D01*
X617240D01*
Y337516D01*
X609760D01*
Y336269D01*
X608240D01*
Y337516D01*
X600760D01*
Y336269D01*
X594942D01*
X594429Y336854D01*
X594260Y338139D01*
X593764Y339336D01*
X592975Y340364D01*
X591947Y341153D01*
X590750Y341649D01*
X589465Y341818D01*
D02*
G37*
G36*
X576756Y351713D02*
X571244D01*
Y346988D01*
X572294D01*
Y341985D01*
X571236Y341547D01*
X570208Y340758D01*
X569419Y339730D01*
X568923Y338533D01*
X568754Y337248D01*
X568923Y335963D01*
X569419Y334766D01*
X570208Y333738D01*
X571236Y332949D01*
X572433Y332453D01*
X573717Y332284D01*
X575002Y332453D01*
X576199Y332949D01*
X577227Y333738D01*
X578016Y334766D01*
X578512Y335963D01*
X578681Y337248D01*
X578512Y338533D01*
X578016Y339730D01*
X577227Y340758D01*
X576199Y341547D01*
X575706Y341751D01*
Y346988D01*
X576756D01*
Y351713D01*
D02*
G37*
G36*
X307500Y490500D02*
X291346D01*
X291232Y490386D01*
Y480543D01*
X291276Y480500D01*
X294945D01*
Y477682D01*
X293678Y476415D01*
X290744D01*
Y472085D01*
X295957D01*
X296256Y472085D01*
X296256Y472085D01*
X296744D01*
Y472085D01*
X296744Y472085D01*
X302256D01*
Y472845D01*
X303085D01*
Y471744D01*
X307415D01*
Y477256D01*
X303085D01*
Y475655D01*
X302256D01*
Y476415D01*
X300905D01*
Y480500D01*
X307500D01*
Y490500D01*
D02*
G37*
G36*
X277500Y482409D02*
X276578Y482225D01*
X275801Y481706D01*
X217000D01*
X216347Y481576D01*
X215794Y481206D01*
X208294Y473706D01*
X207924Y473153D01*
X207794Y472500D01*
Y365437D01*
X205563D01*
Y357563D01*
X213437D01*
Y365437D01*
X211206D01*
Y471793D01*
X217707Y478294D01*
X275801D01*
X276578Y477775D01*
X277500Y477592D01*
X278422Y477775D01*
X279203Y478297D01*
X279725Y479078D01*
X279908Y480000D01*
X279725Y480922D01*
X279203Y481703D01*
X278422Y482225D01*
X277500Y482409D01*
D02*
G37*
G36*
X538500Y488423D02*
X537729Y488322D01*
X537011Y488024D01*
X536394Y487551D01*
X535921Y486934D01*
X535623Y486216D01*
X535522Y485445D01*
X535623Y484674D01*
X535921Y483956D01*
X536394Y483339D01*
X537011Y482866D01*
X537729Y482568D01*
X538500Y482467D01*
X539271Y482568D01*
X539989Y482866D01*
X540606Y483339D01*
X541079Y483956D01*
X541377Y484674D01*
X541478Y485445D01*
X541377Y486216D01*
X541079Y486934D01*
X540606Y487551D01*
X539989Y488024D01*
X539271Y488322D01*
X538500Y488423D01*
D02*
G37*
G36*
X278500Y453964D02*
X277215Y453795D01*
X276018Y453299D01*
X274990Y452510D01*
X274201Y451482D01*
X273705Y450285D01*
X273536Y449000D01*
X273705Y447715D01*
X274201Y446518D01*
X274990Y445490D01*
X276018Y444701D01*
X277215Y444205D01*
X278500Y444036D01*
X279785Y444205D01*
X280982Y444701D01*
X282010Y445490D01*
X282799Y446518D01*
X283295Y447715D01*
X283464Y449000D01*
X283295Y450285D01*
X282799Y451482D01*
X282010Y452510D01*
X280982Y453299D01*
X279785Y453795D01*
X278500Y453964D01*
D02*
G37*
G36*
X567415Y464256D02*
X563085D01*
Y463013D01*
X561512D01*
Y464256D01*
X556787D01*
Y458744D01*
X561512D01*
Y459987D01*
X563085D01*
Y458744D01*
X567415D01*
Y464256D01*
D02*
G37*
G36*
X355555Y484622D02*
X347287D01*
Y477535D01*
X350016D01*
Y467955D01*
X349640Y467703D01*
X349117Y466922D01*
X348934Y466000D01*
X349117Y465078D01*
X349640Y464297D01*
X350421Y463775D01*
X351343Y463591D01*
X352264Y463775D01*
X353046Y464297D01*
X353568Y465078D01*
X353751Y466000D01*
X353568Y466922D01*
X353046Y467703D01*
X352826Y467850D01*
Y477535D01*
X355555D01*
Y484622D01*
D02*
G37*
G36*
X512500Y509908D02*
X511578Y509725D01*
X510797Y509203D01*
X510275Y508422D01*
X510091Y507500D01*
X510275Y506578D01*
X510794Y505801D01*
Y484673D01*
X510924Y484020D01*
X511294Y483467D01*
X519406Y475355D01*
Y468692D01*
X519406Y467925D01*
X518626Y467905D01*
X503582D01*
X480119Y491368D01*
X480421Y492095D01*
X491000D01*
X491538Y492202D01*
X491994Y492507D01*
X496582Y497095D01*
X505098D01*
X505297Y496797D01*
X506078Y496275D01*
X507000Y496092D01*
X507922Y496275D01*
X508703Y496797D01*
X509225Y497578D01*
X509409Y498500D01*
X509225Y499422D01*
X508703Y500203D01*
X507922Y500725D01*
X507000Y500909D01*
X506078Y500725D01*
X505297Y500203D01*
X505098Y499905D01*
X496000D01*
X495462Y499798D01*
X495007Y499494D01*
X490418Y494905D01*
X414500D01*
X413962Y494798D01*
X413507Y494493D01*
X392507Y473493D01*
X392202Y473038D01*
X392095Y472500D01*
X392086Y472493D01*
X391579Y472594D01*
X390964Y472472D01*
X390595Y472225D01*
X390225Y472472D01*
X389610Y472594D01*
X388996Y472472D01*
X388626Y472225D01*
X388256Y472472D01*
X387642Y472594D01*
X387078Y473056D01*
Y486327D01*
X386971Y486864D01*
X386667Y487320D01*
X370493Y503493D01*
X370038Y503798D01*
X369500Y503905D01*
X331902D01*
X331703Y504203D01*
X330922Y504725D01*
X330000Y504909D01*
X329078Y504725D01*
X328297Y504203D01*
X327775Y503422D01*
X327591Y502500D01*
X327775Y501578D01*
X328297Y500797D01*
X329078Y500275D01*
X330000Y500092D01*
X330922Y500275D01*
X331703Y500797D01*
X331902Y501095D01*
X368918D01*
X384268Y485745D01*
Y471720D01*
X384190Y471603D01*
X384106Y471182D01*
X383303D01*
X383220Y471603D01*
X382872Y472123D01*
X382351Y472472D01*
X381736Y472594D01*
X381122Y472472D01*
X380752Y472225D01*
X380382Y472472D01*
X379768Y472594D01*
X379313Y472967D01*
Y477988D01*
X380256D01*
Y482713D01*
X375415D01*
Y483256D01*
X371085D01*
Y478226D01*
X371078Y478225D01*
X370297Y477703D01*
X369775Y476922D01*
X369764Y476867D01*
X369422Y476725D01*
X368500Y476908D01*
X368018Y476813D01*
X367911Y476957D01*
X368307Y477744D01*
X368915D01*
Y483256D01*
X364585D01*
Y482713D01*
X359244D01*
Y477988D01*
X360538D01*
Y471452D01*
X360445Y470988D01*
Y465083D01*
X360568Y464468D01*
X360916Y463947D01*
X361437Y463599D01*
X362051Y463477D01*
X362666Y463599D01*
X363035Y463846D01*
X363405Y463599D01*
X364020Y463477D01*
X364634Y463599D01*
X365004Y463846D01*
X365374Y463599D01*
X365988Y463477D01*
X366443Y463103D01*
Y460801D01*
X366297Y460703D01*
X365775Y459922D01*
X365592Y459000D01*
X365775Y458078D01*
X366297Y457297D01*
X367078Y456775D01*
X368000Y456592D01*
X368922Y456775D01*
X369703Y457297D01*
X370225Y458078D01*
X370409Y459000D01*
X370225Y459922D01*
X369703Y460703D01*
X369470Y460859D01*
Y464618D01*
X369524Y464889D01*
X370327D01*
X370410Y464468D01*
X370758Y463947D01*
X371279Y463599D01*
X371894Y463477D01*
X372508Y463599D01*
X372878Y463846D01*
X373248Y463599D01*
X373862Y463477D01*
X374477Y463599D01*
X374847Y463846D01*
X375216Y463599D01*
X375831Y463477D01*
X376286Y463103D01*
Y456098D01*
X376002Y455908D01*
X375480Y455126D01*
X375296Y454205D01*
X375480Y453283D01*
X376002Y452502D01*
X376783Y451980D01*
X377705Y451796D01*
X378626Y451980D01*
X379408Y452502D01*
X379930Y453283D01*
X380113Y454205D01*
X379930Y455126D01*
X379408Y455908D01*
X379313Y455971D01*
Y456740D01*
X380100Y457122D01*
X380578Y456802D01*
X381500Y456619D01*
X382422Y456802D01*
X383203Y457325D01*
X383725Y458106D01*
X383909Y459028D01*
X383725Y459949D01*
X383249Y460661D01*
Y464618D01*
X383303Y464889D01*
X384106D01*
X384190Y464468D01*
X384538Y463947D01*
X385059Y463599D01*
X385673Y463477D01*
X386288Y463599D01*
X386658Y463846D01*
X387027Y463599D01*
X387642Y463477D01*
X388256Y463599D01*
X388626Y463846D01*
X388996Y463599D01*
X389610Y463477D01*
X390225Y463599D01*
X390595Y463846D01*
X390964Y463599D01*
X391579Y463477D01*
X392193Y463599D01*
X392563Y463846D01*
X392933Y463599D01*
X393547Y463477D01*
X394162Y463599D01*
X394531Y463846D01*
X394901Y463599D01*
X395516Y463477D01*
X396130Y463599D01*
X396500Y463846D01*
X396870Y463599D01*
X397484Y463477D01*
X397939Y463103D01*
Y460798D01*
X397797Y460703D01*
X397275Y459922D01*
X397092Y459000D01*
X397275Y458078D01*
X397797Y457297D01*
X398578Y456775D01*
X399500Y456592D01*
X400422Y456775D01*
X401203Y457297D01*
X401725Y458078D01*
X401908Y459000D01*
X401725Y459922D01*
X401203Y460703D01*
X400966Y460861D01*
Y464618D01*
X401020Y464889D01*
X401823D01*
X401906Y464468D01*
X402254Y463947D01*
X402775Y463599D01*
X403390Y463477D01*
X404004Y463599D01*
X404374Y463846D01*
X404744Y463599D01*
X405358Y463477D01*
X405973Y463599D01*
X406343Y463846D01*
X406712Y463599D01*
X407327Y463477D01*
X407782Y463103D01*
Y456035D01*
X407592Y455908D01*
X407070Y455126D01*
X406887Y454205D01*
X407070Y453283D01*
X407592Y452502D01*
X408374Y451980D01*
X409295Y451796D01*
X410217Y451980D01*
X410998Y452502D01*
X411520Y453283D01*
X411704Y454205D01*
X411520Y455126D01*
X411102Y455752D01*
X411138Y456135D01*
X411231Y456263D01*
X411839Y456723D01*
X412500Y456592D01*
X413422Y456775D01*
X414203Y457297D01*
X414725Y458078D01*
X414909Y459000D01*
X414725Y459922D01*
X414203Y460703D01*
X413422Y461225D01*
X412777Y461353D01*
Y464618D01*
X412831Y464889D01*
X413634D01*
X413717Y464468D01*
X414065Y463947D01*
X414586Y463599D01*
X415201Y463477D01*
X415815Y463599D01*
X416185Y463846D01*
X416555Y463599D01*
X417169Y463477D01*
X417784Y463599D01*
X418153Y463846D01*
X418523Y463599D01*
X419138Y463477D01*
X419752Y463599D01*
X420122Y463846D01*
X420492Y463599D01*
X421106Y463477D01*
X421721Y463599D01*
X422091Y463846D01*
X422460Y463599D01*
X423075Y463477D01*
X423689Y463599D01*
X424059Y463846D01*
X424429Y463599D01*
X425043Y463477D01*
X425658Y463599D01*
X426028Y463846D01*
X426397Y463599D01*
X427012Y463477D01*
X427626Y463599D01*
X427996Y463846D01*
X428366Y463599D01*
X428980Y463477D01*
X429595Y463599D01*
X429965Y463846D01*
X430334Y463599D01*
X430949Y463477D01*
X431563Y463599D01*
X432084Y463947D01*
X432432Y464468D01*
X432554Y465083D01*
Y467654D01*
X435995Y471095D01*
X469918D01*
X477644Y463369D01*
X477343Y462641D01*
X470470D01*
X469932Y462534D01*
X469662Y462354D01*
X441720D01*
X441603Y462432D01*
X440988Y462555D01*
X435083D01*
X434468Y462432D01*
X433947Y462084D01*
X433599Y461563D01*
X433477Y460949D01*
X433599Y460334D01*
X433846Y459965D01*
X433599Y459595D01*
X433477Y458980D01*
X433599Y458366D01*
X433846Y457996D01*
X433599Y457626D01*
X433477Y457012D01*
X433599Y456397D01*
X433846Y456028D01*
X433599Y455658D01*
X433477Y455043D01*
X433599Y454429D01*
X433846Y454059D01*
X433599Y453689D01*
X433477Y453075D01*
X433104Y452620D01*
X426259D01*
X426203Y452703D01*
X425422Y453225D01*
X424500Y453408D01*
X423578Y453225D01*
X422797Y452703D01*
X422275Y451922D01*
X422091Y451000D01*
X422275Y450078D01*
X422797Y449297D01*
X423578Y448775D01*
X424500Y448592D01*
X425422Y448775D01*
X426203Y449297D01*
X426401Y449593D01*
X433104D01*
X433477Y449138D01*
X433599Y448523D01*
X433846Y448153D01*
X433599Y447784D01*
X433477Y447169D01*
X433104Y446714D01*
X429686D01*
X428922Y447225D01*
X428000Y447408D01*
X427078Y447225D01*
X426297Y446703D01*
X425775Y445922D01*
X425592Y445000D01*
X425775Y444078D01*
X426297Y443297D01*
X427078Y442775D01*
X428000Y442591D01*
X428922Y442775D01*
X429703Y443297D01*
X429964Y443687D01*
X434619D01*
X434889Y443634D01*
Y442831D01*
X434468Y442747D01*
X433947Y442399D01*
X433599Y441878D01*
X433477Y441264D01*
X433599Y440649D01*
X433846Y440279D01*
X433599Y439910D01*
X433477Y439295D01*
X433599Y438681D01*
X433846Y438311D01*
X433599Y437941D01*
X433477Y437327D01*
X433599Y436712D01*
X433846Y436342D01*
X433599Y435973D01*
X433477Y435358D01*
X433599Y434744D01*
X433846Y434374D01*
X433599Y434004D01*
X433477Y433390D01*
X433599Y432775D01*
X433846Y432406D01*
X433599Y432036D01*
X433477Y431421D01*
X433599Y430807D01*
X433846Y430437D01*
X433599Y430067D01*
X433477Y429453D01*
X433599Y428838D01*
X433846Y428469D01*
X433599Y428099D01*
X433477Y427484D01*
X433599Y426870D01*
X433846Y426500D01*
X433599Y426130D01*
X433477Y425516D01*
X433014Y424952D01*
X432035D01*
X430493Y426494D01*
X430038Y426798D01*
X429500Y426905D01*
X421902D01*
X421703Y427203D01*
X420922Y427725D01*
X420000Y427909D01*
X419078Y427725D01*
X418297Y427203D01*
X417775Y426422D01*
X417591Y425500D01*
X417775Y424578D01*
X418297Y423797D01*
X419078Y423275D01*
X420000Y423092D01*
X420922Y423275D01*
X421703Y423797D01*
X421902Y424095D01*
X426215D01*
X426453Y423308D01*
X426297Y423203D01*
X425775Y422422D01*
X425592Y421500D01*
X425775Y420578D01*
X426297Y419797D01*
X427078Y419275D01*
X428000Y419092D01*
X428922Y419275D01*
X429703Y419797D01*
X429882Y420065D01*
X434619D01*
X435083Y419973D01*
X440988D01*
X441452Y420065D01*
X445486D01*
X445791Y419278D01*
X443591Y417078D01*
X441720D01*
X441603Y417157D01*
X440988Y417279D01*
X435083D01*
X434468Y417157D01*
X433947Y416809D01*
X433599Y416288D01*
X433477Y415673D01*
X433599Y415059D01*
X433947Y414538D01*
X434468Y414190D01*
X434889Y414106D01*
Y413303D01*
X434468Y413220D01*
X433947Y412872D01*
X433599Y412351D01*
X433477Y411736D01*
X433599Y411122D01*
X433846Y410752D01*
X433599Y410382D01*
X433477Y409768D01*
X433599Y409153D01*
X433846Y408783D01*
X433599Y408414D01*
X433477Y407799D01*
X433599Y407185D01*
X433846Y406815D01*
X433599Y406445D01*
X433477Y405831D01*
X433104Y405375D01*
X427500D01*
X426921Y405260D01*
X426430Y404932D01*
X426430Y404932D01*
X424862Y403364D01*
X424638Y403408D01*
X423716Y403225D01*
X422935Y402703D01*
X422413Y401922D01*
X422229Y401000D01*
X422413Y400078D01*
X422631Y399752D01*
Y395967D01*
X422000Y395513D01*
X421421Y395398D01*
X421258Y395289D01*
X420930Y395070D01*
X420930Y395070D01*
X417442Y391582D01*
X416714Y391883D01*
Y392299D01*
X416599Y392878D01*
X416357Y393241D01*
X416408Y393500D01*
X416225Y394422D01*
X415703Y395203D01*
X414922Y395725D01*
X414000Y395908D01*
X413078Y395725D01*
X412297Y395203D01*
X411775Y394422D01*
X411591Y393500D01*
X411775Y392578D01*
X412297Y391797D01*
X413078Y391275D01*
X413688Y391154D01*
Y388381D01*
X413634Y388111D01*
X412831D01*
X412747Y388532D01*
X412399Y389053D01*
X411878Y389401D01*
X411264Y389523D01*
X410649Y389401D01*
X410280Y389154D01*
X409910Y389401D01*
X409295Y389523D01*
X408681Y389401D01*
X408311Y389154D01*
X407941Y389401D01*
X407327Y389523D01*
X406872Y389896D01*
Y391529D01*
X407061Y391655D01*
X407583Y392437D01*
X407767Y393358D01*
X407583Y394280D01*
X407061Y395061D01*
X406280Y395583D01*
X405358Y395767D01*
X404437Y395583D01*
X403655Y395061D01*
X403133Y394280D01*
X402950Y393358D01*
X403133Y392437D01*
X403655Y391655D01*
X403845Y391529D01*
Y388381D01*
X403791Y388111D01*
X402988D01*
X402905Y388532D01*
X402557Y389053D01*
X402036Y389401D01*
X401421Y389523D01*
X400807Y389401D01*
X400437Y389154D01*
X400067Y389401D01*
X399453Y389523D01*
X398838Y389401D01*
X398468Y389154D01*
X398099Y389401D01*
X397484Y389523D01*
X396870Y389401D01*
X396500Y389154D01*
X396130Y389401D01*
X395516Y389523D01*
X394901Y389401D01*
X394531Y389154D01*
X394162Y389401D01*
X393547Y389523D01*
X392933Y389401D01*
X392563Y389154D01*
X392193Y389401D01*
X391579Y389523D01*
X391124Y389896D01*
Y391560D01*
X391313Y391687D01*
X391835Y392468D01*
X392019Y393390D01*
X391835Y394311D01*
X391313Y395093D01*
X390532Y395615D01*
X389610Y395798D01*
X388688Y395615D01*
X387907Y395093D01*
X387385Y394311D01*
X387202Y393390D01*
X387385Y392468D01*
X387907Y391687D01*
X388097Y391560D01*
Y388381D01*
X388043Y388111D01*
X387240D01*
X387157Y388532D01*
X386809Y389053D01*
X386288Y389401D01*
X385673Y389523D01*
X385059Y389401D01*
X384689Y389154D01*
X384319Y389401D01*
X383705Y389523D01*
X383141Y389985D01*
Y395862D01*
X383439Y396061D01*
X383961Y396842D01*
X384145Y397764D01*
X383961Y398686D01*
X383439Y399467D01*
X382658Y399989D01*
X381736Y400172D01*
X380815Y399989D01*
X380033Y399467D01*
X379511Y398686D01*
X379328Y397764D01*
X379511Y396842D01*
X380033Y396061D01*
X380331Y395862D01*
Y389985D01*
X379768Y389523D01*
X379153Y389401D01*
X378783Y389154D01*
X378414Y389401D01*
X377799Y389523D01*
X377185Y389401D01*
X376815Y389154D01*
X376445Y389401D01*
X375831Y389523D01*
X375216Y389401D01*
X374847Y389154D01*
X374477Y389401D01*
X373862Y389523D01*
X373407Y389896D01*
Y391599D01*
X373703Y391797D01*
X374225Y392578D01*
X374409Y393500D01*
X374225Y394422D01*
X373703Y395203D01*
X372922Y395725D01*
X372000Y395908D01*
X371078Y395725D01*
X370297Y395203D01*
X369775Y394422D01*
X369591Y393500D01*
X369775Y392578D01*
X370297Y391797D01*
X370380Y391741D01*
Y388381D01*
X370327Y388111D01*
X369524D01*
X369440Y388532D01*
X369092Y389053D01*
X368571Y389401D01*
X367957Y389523D01*
X367342Y389401D01*
X366972Y389154D01*
X366603Y389401D01*
X365988Y389523D01*
X365374Y389401D01*
X365004Y389154D01*
X364634Y389401D01*
X364020Y389523D01*
X363405Y389401D01*
X363035Y389154D01*
X362666Y389401D01*
X362051Y389523D01*
X361437Y389401D01*
X360916Y389053D01*
X360568Y388532D01*
X360445Y387917D01*
Y382012D01*
X360568Y381397D01*
X360646Y381280D01*
Y370603D01*
X360683Y370417D01*
X359957Y370029D01*
X353405Y376582D01*
Y388505D01*
X355346Y390445D01*
X357917D01*
X358532Y390568D01*
X359053Y390916D01*
X359401Y391437D01*
X359523Y392051D01*
X359401Y392666D01*
X359154Y393035D01*
X359401Y393405D01*
X359523Y394020D01*
X359401Y394634D01*
X359154Y395004D01*
X359401Y395374D01*
X359523Y395988D01*
X359401Y396603D01*
X359154Y396972D01*
X359401Y397342D01*
X359523Y397957D01*
X359896Y398412D01*
X364720D01*
X364797Y398297D01*
X365578Y397775D01*
X366500Y397591D01*
X367422Y397775D01*
X368203Y398297D01*
X368725Y399078D01*
X368909Y400000D01*
X368725Y400922D01*
X368203Y401703D01*
X367422Y402225D01*
X366500Y402409D01*
X365578Y402225D01*
X364797Y401703D01*
X364620Y401439D01*
X359896D01*
X359523Y401894D01*
X359401Y402508D01*
X359154Y402878D01*
X359401Y403248D01*
X359523Y403862D01*
X359401Y404477D01*
X359154Y404846D01*
X359401Y405216D01*
X359523Y405831D01*
X359401Y406445D01*
X359154Y406815D01*
X359401Y407185D01*
X359523Y407799D01*
X359401Y408414D01*
X359154Y408783D01*
X359401Y409153D01*
X359523Y409768D01*
X359401Y410382D01*
X359154Y410752D01*
X359401Y411122D01*
X359523Y411736D01*
X359401Y412351D01*
X359154Y412720D01*
X359401Y413090D01*
X359523Y413705D01*
X359401Y414319D01*
X359154Y414689D01*
X359401Y415059D01*
X359523Y415673D01*
X359401Y416288D01*
X359154Y416657D01*
X359401Y417027D01*
X359523Y417642D01*
X359401Y418256D01*
X359154Y418626D01*
X359401Y418996D01*
X359523Y419610D01*
X359401Y420225D01*
X359154Y420595D01*
X359401Y420964D01*
X359523Y421579D01*
X359896Y422034D01*
X362139D01*
X362297Y421797D01*
X363078Y421275D01*
X364000Y421092D01*
X364922Y421275D01*
X365703Y421797D01*
X366225Y422578D01*
X366408Y423500D01*
X366225Y424422D01*
X365703Y425203D01*
X364922Y425725D01*
X364000Y425909D01*
X363078Y425725D01*
X362297Y425203D01*
X362202Y425061D01*
X359896D01*
X359523Y425516D01*
X359401Y426130D01*
X359053Y426651D01*
X358532Y426999D01*
X358111Y427083D01*
Y427886D01*
X358532Y427969D01*
X359053Y428317D01*
X359401Y428838D01*
X359523Y429453D01*
X359401Y430067D01*
X359053Y430588D01*
X358532Y430936D01*
X358111Y431020D01*
Y431823D01*
X358532Y431906D01*
X359053Y432254D01*
X359401Y432775D01*
X359523Y433390D01*
X359401Y434004D01*
X359154Y434374D01*
X359401Y434744D01*
X359523Y435358D01*
X359401Y435973D01*
X359154Y436342D01*
X359401Y436712D01*
X359523Y437327D01*
X359401Y437941D01*
X359154Y438311D01*
X359401Y438681D01*
X359523Y439295D01*
X359896Y439750D01*
X362367D01*
X363078Y439275D01*
X364000Y439091D01*
X364922Y439275D01*
X365703Y439797D01*
X366225Y440578D01*
X366408Y441500D01*
X366225Y442422D01*
X365703Y443203D01*
X364922Y443725D01*
X364000Y443909D01*
X363078Y443725D01*
X362297Y443203D01*
X362012Y442777D01*
X358382D01*
X358111Y442831D01*
Y443634D01*
X358532Y443717D01*
X359053Y444065D01*
X359401Y444586D01*
X359523Y445201D01*
X359896Y445656D01*
X365840D01*
X365966Y445466D01*
X366748Y444944D01*
X367669Y444761D01*
X368591Y444944D01*
X369372Y445466D01*
X369894Y446248D01*
X370078Y447169D01*
X369894Y448091D01*
X369372Y448872D01*
X368591Y449394D01*
X367669Y449578D01*
X366748Y449394D01*
X365966Y448872D01*
X365840Y448683D01*
X359896D01*
X359523Y449138D01*
X359401Y449752D01*
X359154Y450122D01*
X359401Y450492D01*
X359523Y451106D01*
X359401Y451721D01*
X359154Y452091D01*
X359401Y452460D01*
X359523Y453075D01*
X359401Y453689D01*
X359154Y454059D01*
X359401Y454429D01*
X359462Y454739D01*
X359928Y455144D01*
X360288Y455233D01*
X361000Y455091D01*
X361922Y455275D01*
X362703Y455797D01*
X363225Y456578D01*
X363408Y457500D01*
X363225Y458422D01*
X362703Y459203D01*
X361922Y459725D01*
X361000Y459908D01*
X360776Y459864D01*
X360590Y460050D01*
X360099Y460378D01*
X360003Y460398D01*
X359520Y460494D01*
X359520Y460494D01*
X358382D01*
X357917Y460586D01*
X352012D01*
X351548Y460494D01*
X349497D01*
X345512Y464479D01*
Y467256D01*
X340787D01*
Y461744D01*
X340877D01*
X341298Y460957D01*
X341275Y460922D01*
X341091Y460000D01*
X341275Y459078D01*
X341797Y458297D01*
Y458037D01*
X341297Y457703D01*
X340775Y456922D01*
X340592Y456000D01*
X340737Y455267D01*
X340300Y454480D01*
X336507D01*
X334993Y455994D01*
X334538Y456298D01*
X334000Y456405D01*
X333402D01*
X333203Y456703D01*
X332422Y457225D01*
X331500Y457409D01*
X330578Y457225D01*
X329797Y456703D01*
X329275Y455922D01*
X329092Y455000D01*
X329275Y454078D01*
X329797Y453297D01*
X330578Y452775D01*
X330961Y452699D01*
X331501Y452568D01*
X331532Y451843D01*
X331485Y451606D01*
X331669Y450685D01*
X332191Y449903D01*
X332972Y449381D01*
X333894Y449198D01*
X334815Y449381D01*
X335295Y449701D01*
X342287D01*
Y444744D01*
X347012D01*
Y445656D01*
X350033D01*
X350406Y445201D01*
X350528Y444586D01*
X350876Y444065D01*
X351397Y443717D01*
X351818Y443634D01*
Y442831D01*
X351397Y442747D01*
X350876Y442399D01*
X350528Y441878D01*
X350406Y441264D01*
X350528Y440649D01*
X350776Y440279D01*
X350528Y439910D01*
X350406Y439295D01*
X350528Y438681D01*
X350776Y438311D01*
X350528Y437941D01*
X350406Y437327D01*
X350528Y436712D01*
X350776Y436342D01*
X350528Y435973D01*
X350498Y435818D01*
X349679Y435286D01*
X349415Y435374D01*
Y436256D01*
X345085D01*
Y430858D01*
X342915D01*
Y436115D01*
X343225Y436578D01*
X343408Y437500D01*
X343225Y438422D01*
X342703Y439203D01*
X341922Y439725D01*
X341000Y439909D01*
X340078Y439725D01*
X339297Y439203D01*
X338775Y438422D01*
X338592Y437500D01*
X338682Y437043D01*
X338585Y436256D01*
X338585D01*
X338585Y436256D01*
Y430858D01*
X337129D01*
X332493Y435494D01*
X332295Y435626D01*
X331939Y436485D01*
X331308Y437308D01*
X331053Y437504D01*
Y438496D01*
X331308Y438692D01*
X331939Y439514D01*
X332336Y440472D01*
X332471Y441500D01*
X332336Y442528D01*
X331939Y443485D01*
X331308Y444308D01*
X330486Y444939D01*
X329528Y445336D01*
X328500Y445471D01*
X327472Y445336D01*
X326515Y444939D01*
X325692Y444308D01*
X325061Y443485D01*
X324945Y443206D01*
X319706D01*
Y472794D01*
X335000D01*
X335653Y472924D01*
X336206Y473294D01*
X340448Y477535D01*
X345713D01*
Y484622D01*
X337445D01*
Y479357D01*
X334293Y476206D01*
X313915D01*
Y477256D01*
X309585D01*
Y471744D01*
X313915D01*
Y472794D01*
X316294D01*
Y441500D01*
Y437256D01*
X312585D01*
Y431744D01*
X316294D01*
Y430256D01*
X312585D01*
Y424744D01*
X316294D01*
Y416256D01*
X312907D01*
X312256Y416907D01*
Y419415D01*
X310491D01*
X309849Y420203D01*
X309909Y420500D01*
X309725Y421422D01*
X309203Y422203D01*
X308422Y422725D01*
X307500Y422908D01*
X307148Y422838D01*
X307041Y422946D01*
X306585Y423251D01*
X306047Y423358D01*
X302256D01*
Y425915D01*
X296744D01*
Y423358D01*
X281966D01*
X281503Y423921D01*
X281381Y424536D01*
X281134Y424905D01*
X281381Y425275D01*
X281503Y425890D01*
X281381Y426504D01*
X281134Y426874D01*
X281381Y427244D01*
X281503Y427858D01*
X281381Y428473D01*
X281134Y428842D01*
X281381Y429212D01*
X281503Y429827D01*
X281381Y430441D01*
X281033Y430962D01*
X280512Y431310D01*
X279898Y431432D01*
X278350D01*
Y434363D01*
X284082Y440095D01*
X287321D01*
X287561Y439514D01*
X288192Y438692D01*
X289015Y438061D01*
X289972Y437664D01*
X291000Y437529D01*
X292028Y437664D01*
X292986Y438061D01*
X293808Y438692D01*
X294439Y439514D01*
X294836Y440472D01*
X294971Y441500D01*
X294836Y442528D01*
X294439Y443485D01*
X293808Y444308D01*
X293553Y444504D01*
Y445496D01*
X293808Y445692D01*
X294439Y446515D01*
X294836Y447472D01*
X294971Y448500D01*
X294836Y449528D01*
X294439Y450486D01*
X293808Y451308D01*
X292986Y451939D01*
X292028Y452336D01*
X291000Y452471D01*
X289972Y452336D01*
X289015Y451939D01*
X288192Y451308D01*
X287561Y450486D01*
X287164Y449528D01*
X287029Y448500D01*
X287164Y447472D01*
X287405Y446892D01*
X284918Y444405D01*
X282500D01*
X281962Y444298D01*
X281507Y443994D01*
X279418Y441905D01*
X269500D01*
X268962Y441798D01*
X268507Y441494D01*
X268054Y441041D01*
X267326Y441342D01*
Y447339D01*
X280582Y460595D01*
X293750D01*
X294288Y460702D01*
X294743Y461006D01*
X299322Y465585D01*
X302256D01*
Y469915D01*
X297043D01*
X296744Y469915D01*
X296744Y469915D01*
X296256D01*
Y469915D01*
X296256Y469915D01*
X290744D01*
Y466981D01*
X289137Y465374D01*
X279185D01*
X278647Y465267D01*
X278191Y464962D01*
X272497Y459268D01*
X271650Y459534D01*
X271203Y460203D01*
X270665Y460563D01*
X270643Y460627D01*
Y461373D01*
X270665Y461438D01*
X271203Y461797D01*
X271725Y462578D01*
X271908Y463500D01*
X271725Y464422D01*
X271203Y465203D01*
X270422Y465725D01*
X269500Y465908D01*
X269408Y466000D01*
X269225Y466922D01*
X268703Y467703D01*
X267922Y468225D01*
X267000Y468408D01*
X266078Y468225D01*
X265297Y467703D01*
X265036Y467313D01*
X264962Y467298D01*
X264507Y466994D01*
X255085Y457572D01*
X254781Y457116D01*
X254674Y456579D01*
Y439966D01*
X254110Y439503D01*
X253496Y439381D01*
X253126Y439134D01*
X252756Y439381D01*
X252142Y439503D01*
X251527Y439381D01*
X251157Y439134D01*
X250788Y439381D01*
X250173Y439503D01*
X249559Y439381D01*
X249038Y439033D01*
X248690Y438512D01*
X248568Y437898D01*
Y432124D01*
X248265Y431735D01*
X247876Y431432D01*
X245590D01*
X242663Y434359D01*
Y438744D01*
X243512D01*
Y444256D01*
X238787D01*
Y438744D01*
X239636D01*
Y433732D01*
X239636Y433732D01*
X239732Y433249D01*
X239752Y433153D01*
X240079Y432662D01*
X241040Y431702D01*
X240967Y430962D01*
X240619Y430441D01*
X240497Y429827D01*
X240619Y429212D01*
X240967Y428691D01*
X241488Y428343D01*
X241909Y428260D01*
Y427457D01*
X241488Y427373D01*
X240967Y427025D01*
X240619Y426504D01*
X240497Y425890D01*
X240619Y425275D01*
X240866Y424905D01*
X240619Y424536D01*
X240497Y423921D01*
X240619Y423307D01*
X240866Y422937D01*
X240619Y422567D01*
X240497Y421953D01*
X240619Y421338D01*
X240866Y420968D01*
X240619Y420599D01*
X240497Y419984D01*
X240619Y419370D01*
X240866Y419000D01*
X240619Y418630D01*
X240497Y418016D01*
X240034Y417452D01*
X238547D01*
X238010Y417345D01*
X237554Y417041D01*
X232507Y411994D01*
X232202Y411538D01*
X232095Y411000D01*
Y397082D01*
X225736Y390723D01*
X225068Y391169D01*
X225295Y391715D01*
X225464Y393000D01*
X225295Y394285D01*
X224799Y395482D01*
X224010Y396510D01*
X222982Y397299D01*
X221785Y397795D01*
X220500Y397964D01*
X219215Y397795D01*
X218018Y397299D01*
X216990Y396510D01*
X216201Y395482D01*
X215705Y394285D01*
X215536Y393000D01*
X215705Y391715D01*
X216201Y390518D01*
X216990Y389490D01*
X218018Y388701D01*
X219215Y388205D01*
X220500Y388036D01*
X221785Y388205D01*
X222331Y388432D01*
X222777Y387764D01*
X218007Y382993D01*
X217702Y382538D01*
X217595Y382000D01*
Y366500D01*
X217702Y365962D01*
X218007Y365507D01*
X219507Y364007D01*
X219962Y363702D01*
X220318Y363631D01*
X220447Y363439D01*
X221163Y362960D01*
X222008Y362792D01*
X228307D01*
X229152Y362960D01*
X229868Y363439D01*
X230347Y364155D01*
X230515Y365000D01*
X230347Y365845D01*
X229868Y366561D01*
X229152Y367040D01*
X228856Y367099D01*
Y367901D01*
X229152Y367960D01*
X229868Y368439D01*
X229973Y368595D01*
X232500D01*
X233038Y368702D01*
X233493Y369007D01*
X237493Y373007D01*
X237677Y373043D01*
X238078Y372775D01*
X239000Y372591D01*
X239922Y372775D01*
X240178Y372946D01*
X240483Y372802D01*
X240543Y372533D01*
X240487Y371930D01*
X239935Y371561D01*
X239456Y370845D01*
X239288Y370000D01*
X239456Y369155D01*
X239935Y368439D01*
X240651Y367960D01*
X241496Y367792D01*
X247795D01*
X248640Y367960D01*
X249250Y368368D01*
X249297Y368297D01*
X250078Y367775D01*
X251000Y367592D01*
X251922Y367775D01*
X252703Y368297D01*
X253207Y369052D01*
X253280Y369067D01*
X253995Y368921D01*
Y367835D01*
X253797Y367703D01*
X253275Y366922D01*
X253092Y366000D01*
X253275Y365078D01*
X253797Y364297D01*
X254578Y363775D01*
X255500Y363592D01*
X256308Y363752D01*
X256967Y363484D01*
X257095Y363415D01*
Y362500D01*
X257202Y361962D01*
X257507Y361507D01*
X271810Y347203D01*
X271484Y346415D01*
X270744D01*
Y342085D01*
X281756D01*
Y346415D01*
X274905D01*
Y347500D01*
X274798Y348038D01*
X274493Y348493D01*
X259905Y363082D01*
Y375500D01*
X259798Y376038D01*
X259493Y376493D01*
X250905Y385082D01*
Y388244D01*
X254915D01*
Y393756D01*
X254263D01*
Y395123D01*
X257149Y398009D01*
X257477Y398500D01*
X257496Y398596D01*
X257592Y399079D01*
X257592Y399079D01*
Y399212D01*
X258380Y399483D01*
X258611Y399188D01*
Y396598D01*
X258257Y396243D01*
X257952Y395788D01*
X257845Y395250D01*
Y393756D01*
X257085D01*
Y388756D01*
X256787D01*
Y383244D01*
X261126D01*
Y379165D01*
X260760D01*
Y374835D01*
X261126D01*
Y368776D01*
X261233Y368238D01*
X261538Y367782D01*
X263595Y365726D01*
Y362004D01*
X269106D01*
Y367909D01*
X265385D01*
X263936Y369357D01*
Y374835D01*
X264303D01*
Y379165D01*
X263936D01*
Y384548D01*
X264664Y384849D01*
X270760Y378753D01*
Y375193D01*
X269697D01*
Y369287D01*
X275209D01*
Y375193D01*
X274303D01*
Y379165D01*
X273897D01*
X273830Y379506D01*
X273525Y379962D01*
X265358Y388129D01*
Y398034D01*
X265921Y398497D01*
X266536Y398619D01*
X266905Y398866D01*
X267275Y398619D01*
X267890Y398497D01*
X268453Y398034D01*
Y396142D01*
X268560Y395604D01*
X268865Y395148D01*
X271507Y392507D01*
X271962Y392202D01*
X272500Y392095D01*
X285418D01*
X307845Y369668D01*
Y345756D01*
X307085D01*
Y340244D01*
X311415D01*
Y345756D01*
X310655D01*
Y370250D01*
X310548Y370788D01*
X310243Y371243D01*
X286993Y394493D01*
X286538Y394798D01*
X286000Y394905D01*
X279756D01*
Y398512D01*
X274628D01*
X273367Y399773D01*
X273432Y400102D01*
Y405876D01*
X273735Y406265D01*
X274124Y406568D01*
X279898D01*
X280512Y406690D01*
X281033Y407038D01*
X281381Y407559D01*
X281503Y408173D01*
X281381Y408788D01*
X281033Y409309D01*
X280641Y409571D01*
X280505Y410135D01*
X280501Y410462D01*
X280812Y410705D01*
X282808D01*
X304507Y389007D01*
X304962Y388702D01*
X305500Y388595D01*
X310736D01*
X310840Y388439D01*
X311557Y387960D01*
X311853Y387901D01*
Y387099D01*
X311557Y387040D01*
X310840Y386561D01*
X310362Y385845D01*
X310194Y385000D01*
X310362Y384155D01*
X310840Y383439D01*
X311557Y382960D01*
X312402Y382792D01*
X318701D01*
X319546Y382960D01*
X320262Y383439D01*
X320366Y383595D01*
X324098D01*
X324297Y383297D01*
X325078Y382775D01*
X326000Y382592D01*
X326922Y382775D01*
X327703Y383297D01*
X328225Y384078D01*
X328409Y385000D01*
X328347Y385308D01*
X328984Y386095D01*
X339500D01*
X340038Y386202D01*
X340493Y386507D01*
X340868Y386881D01*
X341595Y386579D01*
Y372916D01*
X341702Y372378D01*
X342007Y371922D01*
X354943Y358986D01*
X354592Y358224D01*
X343618D01*
Y358587D01*
X339681D01*
Y354650D01*
Y351303D01*
Y348153D01*
Y344413D01*
X343618D01*
Y344776D01*
X350076D01*
X350078Y344775D01*
X351000Y344591D01*
X351922Y344775D01*
X352703Y345297D01*
X353194Y346032D01*
X353578Y345775D01*
X354500Y345591D01*
X355422Y345775D01*
X356203Y346297D01*
X356694Y347032D01*
X357078Y346775D01*
X358000Y346591D01*
X358922Y346775D01*
X359703Y347297D01*
X360194Y348032D01*
X360578Y347775D01*
X361500Y347591D01*
X362422Y347775D01*
X363203Y348297D01*
X363725Y349078D01*
X363727Y349088D01*
X364581Y349347D01*
X373285Y340644D01*
X373740Y340340D01*
X374278Y340233D01*
X385506D01*
X385797Y339797D01*
X386549Y339295D01*
X386561Y339235D01*
X386386Y338507D01*
X328763D01*
Y340244D01*
X329415D01*
Y345756D01*
X325085D01*
Y340244D01*
X325737D01*
Y338497D01*
X325297Y338203D01*
X324775Y337422D01*
X324591Y336500D01*
X324775Y335578D01*
X325297Y334797D01*
X326078Y334275D01*
X327000Y334091D01*
X327922Y334275D01*
X328248Y334493D01*
X425484D01*
Y327760D01*
X426733D01*
Y325480D01*
X426476D01*
Y319969D01*
X431004D01*
Y325480D01*
X430747D01*
Y327760D01*
X431390D01*
Y329993D01*
X433988D01*
Y329244D01*
X434343D01*
Y328965D01*
X434350Y328929D01*
X434398Y328161D01*
X434398Y328161D01*
X434398Y328161D01*
Y321468D01*
X446602D01*
Y328161D01*
X439992D01*
X438713Y329441D01*
Y334493D01*
X449000D01*
X449768Y334646D01*
X450419Y335081D01*
X462037Y346698D01*
X462422Y346775D01*
X462748Y346993D01*
X471000D01*
X471768Y347146D01*
X472419Y347581D01*
X501419Y376581D01*
X501854Y377232D01*
X501880Y377359D01*
X502007Y378000D01*
Y382252D01*
X502225Y382578D01*
X502409Y383500D01*
X502225Y384422D01*
X501703Y385203D01*
X500922Y385725D01*
X500000Y385909D01*
X499623Y386636D01*
X503011Y390024D01*
X515847D01*
X515856Y390010D01*
X516507Y389575D01*
X517276Y389422D01*
X521213D01*
X521981Y389575D01*
X522632Y390010D01*
X523067Y390661D01*
X523220Y391429D01*
X523067Y392197D01*
X522926Y392409D01*
X522693Y393004D01*
X522926Y393599D01*
X523067Y393811D01*
X523220Y394579D01*
X523067Y395347D01*
X522926Y395558D01*
X522693Y396153D01*
X522926Y396749D01*
X523067Y396960D01*
X523220Y397728D01*
X523067Y398496D01*
X522926Y398708D01*
X522693Y399303D01*
X522926Y399898D01*
X523067Y400110D01*
X523220Y400878D01*
X523067Y401646D01*
X522926Y401858D01*
X522693Y402453D01*
X522926Y403048D01*
X523067Y403260D01*
X523220Y404028D01*
X523067Y404796D01*
X522926Y405007D01*
X522693Y405602D01*
X522926Y406198D01*
X523067Y406409D01*
X523220Y407177D01*
X523067Y407945D01*
X522926Y408157D01*
X522693Y408752D01*
X522926Y409347D01*
X523067Y409559D01*
X523220Y410327D01*
X523067Y411095D01*
X522926Y411306D01*
X522693Y411902D01*
X522926Y412497D01*
X523067Y412708D01*
X523220Y413476D01*
X523067Y414244D01*
X522926Y414456D01*
X522693Y415051D01*
X522926Y415646D01*
X523067Y415858D01*
X523220Y416626D01*
X523067Y417394D01*
X522926Y417606D01*
X522693Y418201D01*
X522926Y418796D01*
X523067Y419007D01*
X523220Y419776D01*
X523067Y420544D01*
X522632Y421195D01*
X521981Y421630D01*
X521213Y421783D01*
X517276D01*
X516507Y421630D01*
X515856Y421195D01*
X515847Y421180D01*
X509776D01*
X509238Y421074D01*
X508782Y420769D01*
X479481Y391468D01*
X478665Y391765D01*
X478579Y392197D01*
X478437Y392409D01*
X478204Y393004D01*
X478437Y393599D01*
X478579Y393811D01*
X478731Y394579D01*
X478579Y395347D01*
X478437Y395558D01*
X478204Y396153D01*
X478437Y396749D01*
X478579Y396960D01*
X478731Y397728D01*
X478579Y398496D01*
X478437Y398708D01*
X478204Y399303D01*
X478437Y399898D01*
X478579Y400110D01*
X478731Y400878D01*
X478579Y401646D01*
X478437Y401858D01*
X478204Y402453D01*
X478437Y403048D01*
X478579Y403260D01*
X478731Y404028D01*
X478579Y404796D01*
X478437Y405007D01*
X478204Y405602D01*
X478437Y406198D01*
X478579Y406409D01*
X478731Y407177D01*
X478579Y407945D01*
X478437Y408157D01*
X478204Y408752D01*
X478437Y409347D01*
X478579Y409559D01*
X478731Y410327D01*
X478579Y411095D01*
X478437Y411306D01*
X478204Y411902D01*
X478437Y412497D01*
X478579Y412708D01*
X478731Y413476D01*
X478579Y414244D01*
X478437Y414456D01*
X478204Y415051D01*
X478437Y415646D01*
X478579Y415858D01*
X478731Y416626D01*
X478579Y417394D01*
X478437Y417606D01*
X478204Y418201D01*
X478437Y418796D01*
X478579Y419007D01*
X478731Y419776D01*
X478601Y420432D01*
X478722Y420739D01*
X479074Y421219D01*
X498413D01*
X499078Y420775D01*
X500000Y420591D01*
X500922Y420775D01*
X501703Y421297D01*
X502225Y422078D01*
X502283Y422371D01*
X504282Y424369D01*
X516286D01*
X516507Y424221D01*
X517276Y424068D01*
X521213D01*
X521981Y424221D01*
X522491Y424562D01*
X527425D01*
X527425Y424562D01*
X527908Y424658D01*
X528004Y424677D01*
X528170Y424787D01*
X531256D01*
Y429512D01*
X525744D01*
Y427588D01*
X523434D01*
X523013Y428375D01*
X523067Y428456D01*
X523220Y429224D01*
X523067Y429992D01*
X522926Y430204D01*
X522693Y430799D01*
X522926Y431394D01*
X523067Y431606D01*
X523220Y432374D01*
X523067Y433142D01*
X522926Y433354D01*
X522693Y433949D01*
X522926Y434544D01*
X523067Y434756D01*
X523220Y435524D01*
X523067Y436292D01*
X522926Y436503D01*
X522693Y437098D01*
X522926Y437694D01*
X523067Y437905D01*
X523220Y438673D01*
X523067Y439441D01*
X522926Y439653D01*
X522693Y440248D01*
X522926Y440843D01*
X523067Y441055D01*
X523220Y441823D01*
X523067Y442591D01*
X522926Y442802D01*
X522693Y443398D01*
X522926Y443993D01*
X523067Y444204D01*
X523220Y444972D01*
X523067Y445741D01*
X522926Y445952D01*
X522693Y446547D01*
X522926Y447142D01*
X523067Y447354D01*
X523220Y448122D01*
X523067Y448890D01*
X522926Y449102D01*
X522693Y449697D01*
X522926Y450292D01*
X523067Y450504D01*
X523220Y451272D01*
X523067Y452040D01*
X522926Y452251D01*
X522693Y452846D01*
X522926Y453442D01*
X523067Y453653D01*
X523220Y454421D01*
X523067Y455189D01*
X522926Y455401D01*
X522693Y455996D01*
X522926Y456591D01*
X523067Y456803D01*
X523220Y457571D01*
X523067Y458339D01*
X522925Y458552D01*
X523346Y459339D01*
X526725D01*
X546058Y440006D01*
X546514Y439702D01*
X547051Y439595D01*
X549598D01*
X549797Y439297D01*
X550578Y438775D01*
X551500Y438591D01*
X552422Y438775D01*
X553203Y439297D01*
X553725Y440078D01*
X553908Y441000D01*
X553725Y441922D01*
X553203Y442703D01*
X552422Y443225D01*
X552110Y443287D01*
X552271Y444095D01*
X552129Y444808D01*
X552576Y445595D01*
X564418D01*
X566632Y443381D01*
X566331Y442654D01*
X560366D01*
Y436748D01*
X564839D01*
X579794Y421793D01*
Y391640D01*
X579460Y391140D01*
X579292Y390295D01*
Y383996D01*
X579460Y383151D01*
X579939Y382435D01*
X580149Y382295D01*
X579910Y381507D01*
X577831D01*
X575419Y383919D01*
X574768Y384354D01*
X574000Y384507D01*
X563000D01*
X562232Y384354D01*
X561581Y383919D01*
X547081Y369419D01*
X546646Y368768D01*
X546493Y368000D01*
Y333831D01*
X522669Y310007D01*
X510422D01*
X510346Y310106D01*
X510247Y310182D01*
Y311520D01*
X510504D01*
Y317032D01*
X505976D01*
Y311520D01*
X505413Y310978D01*
X503587D01*
X503024Y311520D01*
Y317032D01*
X498496D01*
Y311520D01*
X497933Y310978D01*
X473504D01*
Y316925D01*
X468976D01*
Y310978D01*
X466024D01*
Y316925D01*
X461496D01*
Y310978D01*
X431004D01*
Y316032D01*
X426476D01*
Y310978D01*
X423524D01*
Y316032D01*
X418996D01*
Y310978D01*
X411740D01*
Y316516D01*
X404260D01*
Y316291D01*
X403756Y315713D01*
X398244D01*
Y310988D01*
X397461Y310978D01*
X395102D01*
Y317032D01*
X382898D01*
Y310978D01*
X378734D01*
X363106Y326606D01*
X362489Y327079D01*
X361771Y327377D01*
X361000Y327478D01*
X291407D01*
X291135Y327885D01*
X281756Y337265D01*
Y339915D01*
X276244D01*
Y335585D01*
X278895D01*
X287490Y326989D01*
Y326202D01*
X280894Y319606D01*
X280421Y318989D01*
X280334Y318779D01*
X280123Y318271D01*
X280022Y317500D01*
Y313664D01*
X279520Y313009D01*
X279489Y312935D01*
X278637D01*
X278606Y313009D01*
X278104Y313664D01*
Y316374D01*
X278104Y316374D01*
X278003Y317145D01*
X277705Y317863D01*
X277232Y318480D01*
X277232Y318480D01*
X271606Y324106D01*
X270989Y324579D01*
X270271Y324877D01*
X269500Y324978D01*
X248500D01*
X247729Y324877D01*
X247011Y324579D01*
X246394Y324106D01*
X246394Y324106D01*
X240894Y318606D01*
X240421Y317989D01*
X240123Y317271D01*
X240022Y316500D01*
Y314937D01*
X239063D01*
Y307063D01*
X246937D01*
Y314937D01*
X246762D01*
X246436Y315724D01*
X249734Y319022D01*
X268266D01*
X268797Y318491D01*
X268666Y318124D01*
X268392Y317782D01*
X267252Y317932D01*
X265967Y317763D01*
X264770Y317267D01*
X263742Y316478D01*
X262953Y315451D01*
X262457Y314253D01*
X262288Y312969D01*
Y309032D01*
X262457Y307747D01*
X262953Y306550D01*
X263742Y305522D01*
X264770Y304733D01*
X265967Y304237D01*
X267252Y304068D01*
X268537Y304237D01*
X269734Y304733D01*
X270762Y305522D01*
X271551Y306550D01*
X271921Y307445D01*
X272656Y307736D01*
X272839Y307733D01*
X273117Y307520D01*
X274086Y307118D01*
X275126Y306981D01*
X276166Y307118D01*
X277135Y307520D01*
X277968Y308158D01*
X278606Y308991D01*
X278637Y309065D01*
X279489D01*
X279520Y308991D01*
X280158Y308158D01*
X280991Y307520D01*
X281960Y307118D01*
X283000Y306981D01*
X284040Y307118D01*
X285009Y307520D01*
X285842Y308158D01*
X286480Y308991D01*
X286511Y309065D01*
X287363D01*
X287394Y308991D01*
X288032Y308158D01*
X288865Y307520D01*
X289834Y307118D01*
X290874Y306981D01*
X291914Y307118D01*
X292883Y307520D01*
X293161Y307733D01*
X293343Y307736D01*
X294079Y307445D01*
X294449Y306550D01*
X295238Y305522D01*
X296266Y304733D01*
X297463Y304237D01*
X298748Y304068D01*
X300033Y304237D01*
X301230Y304733D01*
X302258Y305522D01*
X303047Y306550D01*
X303543Y307747D01*
X303712Y309032D01*
Y312969D01*
X303543Y314253D01*
X303047Y315451D01*
X302258Y316478D01*
X301230Y317267D01*
X300033Y317763D01*
X298748Y317932D01*
X297463Y317763D01*
X296266Y317267D01*
X295238Y316478D01*
X294449Y315451D01*
X294079Y314556D01*
X293343Y314264D01*
X293161Y314267D01*
X292883Y314480D01*
X291914Y314882D01*
X290874Y315019D01*
X289834Y314882D01*
X288865Y314480D01*
X288032Y313842D01*
X287394Y313009D01*
X287363Y312935D01*
X286511D01*
X286480Y313009D01*
X285978Y313664D01*
Y316266D01*
X291234Y321522D01*
X301523D01*
X301938Y320734D01*
X301645Y320296D01*
X301462Y319374D01*
X301645Y318452D01*
X302167Y317671D01*
X302948Y317149D01*
X303870Y316966D01*
X304792Y317149D01*
X305573Y317671D01*
X306095Y318452D01*
X306279Y319374D01*
X306095Y320296D01*
X305802Y320734D01*
X306217Y321522D01*
X359766D01*
X375394Y305894D01*
X375394Y305894D01*
X376011Y305421D01*
X376729Y305123D01*
X377500Y305022D01*
X508240D01*
X509011Y305123D01*
X509729Y305421D01*
X510346Y305894D01*
X510422Y305993D01*
X523500D01*
X524268Y306146D01*
X524919Y306581D01*
X549919Y331581D01*
X550354Y332232D01*
X550507Y333000D01*
Y367169D01*
X563831Y380493D01*
X573169D01*
X575581Y378081D01*
X576232Y377646D01*
X577000Y377493D01*
X585500D01*
X586268Y377646D01*
X586919Y378081D01*
X587919Y379081D01*
X588354Y379732D01*
X588380Y379859D01*
X588507Y380500D01*
Y383102D01*
X588540Y383151D01*
X588599Y383447D01*
X589401D01*
X589460Y383151D01*
X589939Y382435D01*
X590655Y381956D01*
X591500Y381788D01*
X592345Y381956D01*
X593061Y382435D01*
X593540Y383151D01*
X593708Y383996D01*
Y390295D01*
X593540Y391140D01*
X593061Y391856D01*
X592345Y392335D01*
X591500Y392503D01*
X590655Y392335D01*
X589939Y391856D01*
X589460Y391140D01*
X589401Y390844D01*
X588599D01*
X588540Y391140D01*
X588206Y391640D01*
Y393744D01*
X588713D01*
Y399256D01*
X583993D01*
X583988Y399256D01*
X583206Y399269D01*
Y422500D01*
X583076Y423153D01*
X582706Y423706D01*
X568634Y437779D01*
Y440350D01*
X569361Y440652D01*
X602595Y407418D01*
Y370915D01*
X600744D01*
Y366585D01*
X606085D01*
Y365744D01*
X610415D01*
Y371256D01*
X609554D01*
X609548Y371288D01*
X609243Y371743D01*
X606905Y374082D01*
Y408500D01*
X606798Y409038D01*
X606494Y409493D01*
X589153Y426833D01*
X589382Y427296D01*
X589557Y427544D01*
X590785Y427705D01*
X591982Y428201D01*
X593010Y428990D01*
X593799Y430018D01*
X594295Y431215D01*
X594464Y432500D01*
X594295Y433785D01*
X593799Y434982D01*
X593010Y436010D01*
X591982Y436799D01*
X590785Y437295D01*
X589500Y437464D01*
X588215Y437295D01*
X587018Y436799D01*
X585990Y436010D01*
X585201Y434982D01*
X584705Y433785D01*
X584544Y432557D01*
X584296Y432382D01*
X583834Y432153D01*
X567368Y448619D01*
X567669Y449346D01*
X568634D01*
Y455252D01*
X560366D01*
Y454206D01*
X557707D01*
X554379Y457533D01*
Y458744D01*
X555213D01*
Y464256D01*
X554379D01*
Y467925D01*
X557594D01*
Y477768D01*
X547752D01*
Y474552D01*
X541360D01*
X526206Y489707D01*
Y498240D01*
X529248D01*
Y508083D01*
X519406D01*
Y498240D01*
X522794D01*
Y489000D01*
X522924Y488347D01*
X523294Y487794D01*
X539447Y471640D01*
X540001Y471270D01*
X540654Y471140D01*
X547752D01*
Y467925D01*
X550967D01*
Y464256D01*
X550488D01*
Y458744D01*
X550967D01*
Y456827D01*
X551097Y456174D01*
X551467Y455620D01*
X555794Y451294D01*
X556347Y450924D01*
X557000Y450794D01*
X560366D01*
Y449905D01*
X551531D01*
X533942Y467493D01*
X533486Y467798D01*
X532949Y467905D01*
X530027D01*
X529248Y467925D01*
X529248Y468692D01*
Y477768D01*
X521818D01*
X514206Y485380D01*
Y505801D01*
X514725Y506578D01*
X514909Y507500D01*
X514725Y508422D01*
X514203Y509203D01*
X513422Y509725D01*
X512500Y509908D01*
D02*
G37*
G36*
X303870Y506822D02*
X302948Y506638D01*
X302167Y506116D01*
X301645Y505335D01*
X301462Y504413D01*
X301645Y503492D01*
X302167Y502710D01*
X302948Y502188D01*
X303870Y502005D01*
X304792Y502188D01*
X305573Y502710D01*
X306095Y503492D01*
X306279Y504413D01*
X306095Y505335D01*
X305573Y506116D01*
X304792Y506638D01*
X303870Y506822D01*
D02*
G37*
G36*
X538500Y510077D02*
X537729Y509975D01*
X537011Y509678D01*
X536394Y509204D01*
X535921Y508588D01*
X535623Y507869D01*
X535522Y507098D01*
X535623Y506328D01*
X535921Y505609D01*
X536394Y504992D01*
X537011Y504519D01*
X537729Y504222D01*
X538500Y504120D01*
X539271Y504222D01*
X539989Y504519D01*
X540606Y504992D01*
X541079Y505609D01*
X541377Y506328D01*
X541478Y507098D01*
X541377Y507869D01*
X541079Y508588D01*
X540606Y509204D01*
X539989Y509678D01*
X539271Y509975D01*
X538500Y510077D01*
D02*
G37*
G36*
X345713Y494465D02*
X337445D01*
Y487378D01*
X345713D01*
Y494465D01*
D02*
G37*
G36*
X290642Y497912D02*
X289720Y497729D01*
X288939Y497207D01*
X288417Y496426D01*
X288233Y495504D01*
X288417Y494582D01*
X288939Y493801D01*
X289720Y493279D01*
X290642Y493095D01*
X291563Y493279D01*
X292345Y493801D01*
X292867Y494582D01*
X293050Y495504D01*
X292867Y496426D01*
X292345Y497207D01*
X291563Y497729D01*
X290642Y497912D01*
D02*
G37*
G36*
X307965D02*
X307043Y497729D01*
X306261Y497207D01*
X305739Y496426D01*
X305556Y495504D01*
X305739Y494582D01*
X306261Y493801D01*
X307043Y493279D01*
X307965Y493095D01*
X308886Y493279D01*
X309668Y493801D01*
X310190Y494582D01*
X310373Y495504D01*
X310190Y496426D01*
X309668Y497207D01*
X308886Y497729D01*
X307965Y497912D01*
D02*
G37*
G36*
X570000Y415464D02*
X568715Y415295D01*
X567518Y414799D01*
X566490Y414010D01*
X565701Y412982D01*
X565205Y411785D01*
X565036Y410500D01*
X565205Y409215D01*
X565701Y408018D01*
X566490Y406990D01*
X567518Y406201D01*
X568715Y405705D01*
X570000Y405536D01*
X571285Y405705D01*
X572482Y406201D01*
X573510Y406990D01*
X574299Y408018D01*
X574795Y409215D01*
X574964Y410500D01*
X574795Y411785D01*
X574299Y412982D01*
X573510Y414010D01*
X572482Y414799D01*
X571285Y415295D01*
X570000Y415464D01*
D02*
G37*
%LPD*%
G36*
X342287Y422149D02*
X332078D01*
X331939Y422485D01*
X331308Y423308D01*
X331053Y423504D01*
Y424496D01*
X331308Y424692D01*
X331939Y425515D01*
X332179Y426095D01*
X342287D01*
Y422149D01*
D02*
G37*
G36*
X420149Y340578D02*
X420671Y339797D01*
X421423Y339295D01*
X421435Y339235D01*
X421260Y338507D01*
X388614D01*
X388439Y339235D01*
X388451Y339295D01*
X389203Y339797D01*
X389725Y340578D01*
X389825Y341079D01*
X390032Y341217D01*
X420022D01*
X420149Y340578D01*
D02*
G37*
G36*
X507445Y428568D02*
X507119Y427781D01*
X503575D01*
X502922Y427651D01*
X502368Y427281D01*
X500414Y425326D01*
X500000Y425409D01*
X499078Y425225D01*
X498297Y424703D01*
X498249Y424631D01*
X477714D01*
X477493Y424780D01*
X476724Y424932D01*
X472787D01*
X472019Y424780D01*
X471368Y424344D01*
X470933Y423693D01*
X470780Y422925D01*
X470933Y422157D01*
X471074Y421946D01*
X471078Y421936D01*
X470769Y421084D01*
X470736Y421054D01*
X470310Y420769D01*
X462682Y413141D01*
X441741D01*
X441714Y413169D01*
X441596Y413683D01*
X441592Y414025D01*
X441902Y414268D01*
X444173D01*
X444711Y414375D01*
X445167Y414680D01*
X447582Y417095D01*
X454047D01*
Y416532D01*
X459953D01*
Y418497D01*
X460708Y419141D01*
X460740Y419143D01*
X461000Y419092D01*
X461922Y419275D01*
X462703Y419797D01*
X463225Y420578D01*
X463409Y421500D01*
X463225Y422422D01*
X462703Y423203D01*
X461922Y423725D01*
X461000Y423909D01*
X460078Y423725D01*
X459881Y423594D01*
X459165Y423421D01*
X459165D01*
X458401Y423478D01*
X457771Y423739D01*
X457000Y423840D01*
X456229Y423739D01*
X455511Y423441D01*
X455485Y423421D01*
X454835D01*
X454256Y423925D01*
Y424012D01*
X448744D01*
Y423092D01*
X443576D01*
X443313Y423547D01*
X443576Y424002D01*
X446266D01*
X446266Y424002D01*
X446749Y424098D01*
X446845Y424118D01*
X447336Y424446D01*
X448134Y425244D01*
X450915D01*
Y430756D01*
X446585D01*
Y427975D01*
X445639Y427029D01*
X442967D01*
X442594Y427484D01*
X442472Y428099D01*
X442225Y428469D01*
X442472Y428838D01*
X442594Y429453D01*
X442472Y430067D01*
X442225Y430437D01*
X442472Y430807D01*
X442594Y431421D01*
X443056Y431985D01*
X466556D01*
X470310Y428231D01*
X470765Y427926D01*
X471303Y427819D01*
X471359D01*
X471368Y427805D01*
X472019Y427370D01*
X472787Y427217D01*
X476724D01*
X477493Y427370D01*
X478144Y427805D01*
X478579Y428456D01*
X478731Y429224D01*
X478579Y429992D01*
X478437Y430204D01*
X478204Y430799D01*
X478437Y431394D01*
X478579Y431606D01*
X478731Y432374D01*
X478579Y433142D01*
X478437Y433354D01*
X478204Y433949D01*
X478437Y434544D01*
X478579Y434756D01*
X478731Y435524D01*
X478579Y436292D01*
X478437Y436503D01*
X478204Y437098D01*
X478437Y437694D01*
X478579Y437905D01*
X478731Y438673D01*
X478579Y439441D01*
X478437Y439653D01*
X478204Y440248D01*
X478437Y440843D01*
X478579Y441055D01*
X478731Y441823D01*
X478579Y442591D01*
X478437Y442802D01*
X478204Y443398D01*
X478437Y443993D01*
X478579Y444204D01*
X478731Y444972D01*
X478579Y445741D01*
X478437Y445952D01*
X478204Y446547D01*
X478437Y447142D01*
X478579Y447354D01*
X478731Y448122D01*
X478579Y448890D01*
X478437Y449102D01*
X478204Y449697D01*
X478437Y450292D01*
X478579Y450504D01*
X478731Y451272D01*
X478579Y452040D01*
X478437Y452251D01*
X478204Y452846D01*
X478437Y453442D01*
X478579Y453653D01*
X478731Y454421D01*
X478579Y455189D01*
X478437Y455401D01*
X478280Y455803D01*
X478612Y456476D01*
X479391Y456622D01*
X507445Y428568D01*
D02*
G37*
G36*
X466869Y404730D02*
X464682Y402543D01*
X451713D01*
Y405457D01*
X466568D01*
X466869Y404730D01*
D02*
G37*
G36*
X316294Y404207D02*
X314345Y402257D01*
X314312Y402208D01*
X312402D01*
X311557Y402040D01*
X311057Y401706D01*
X306699D01*
X305922Y402225D01*
X305000Y402409D01*
X304078Y402225D01*
X303297Y401703D01*
X302775Y400922D01*
X302591Y400000D01*
X302775Y399078D01*
X303297Y398297D01*
X304078Y397775D01*
X305000Y397591D01*
X305922Y397775D01*
X306699Y398294D01*
X311057D01*
X311557Y397960D01*
X311853Y397901D01*
Y397099D01*
X311557Y397040D01*
X310840Y396561D01*
X310362Y395845D01*
X310273Y395397D01*
X310048Y394967D01*
X309426Y394824D01*
X309000Y394908D01*
X308078Y394725D01*
X307297Y394203D01*
X307098Y393905D01*
X305582D01*
X296970Y402517D01*
X297272Y403244D01*
X298415D01*
Y408756D01*
X298894Y409345D01*
X301744D01*
Y408585D01*
X303595D01*
Y408500D01*
X303702Y407962D01*
X304007Y407507D01*
X304162Y407352D01*
X304092Y407000D01*
X304275Y406078D01*
X304797Y405297D01*
X305578Y404775D01*
X306500Y404592D01*
X307422Y404775D01*
X308203Y405297D01*
X308852Y405426D01*
X309078Y405275D01*
X310000Y405091D01*
X310922Y405275D01*
X311703Y405797D01*
X312225Y406578D01*
X312408Y407500D01*
X312342Y407833D01*
X312256Y408585D01*
X312256Y408585D01*
X312256Y408585D01*
Y410093D01*
X312585Y410744D01*
X316294D01*
Y404207D01*
D02*
G37*
G36*
X468533Y393796D02*
X458643Y383905D01*
X457915Y384207D01*
Y386256D01*
X453585D01*
Y385978D01*
X453500Y385909D01*
X452578Y385725D01*
X452500Y385673D01*
X451713Y386094D01*
Y390244D01*
Y394583D01*
X468207D01*
X468533Y393796D01*
D02*
G37*
G36*
X430578Y392775D02*
X431500Y392592D01*
X431844Y392660D01*
X431901Y392621D01*
X432480Y392506D01*
X434619D01*
X435083Y392414D01*
X440988D01*
X441452Y392506D01*
X444353D01*
X444930Y391930D01*
X444930Y391930D01*
X445258Y391711D01*
X445421Y391602D01*
X446000Y391487D01*
X446000Y391487D01*
X446988D01*
Y390244D01*
Y386478D01*
X432554D01*
Y387917D01*
X432432Y388532D01*
X432084Y389053D01*
X431563Y389401D01*
X430949Y389523D01*
X430334Y389401D01*
X429919Y389637D01*
X429707Y390552D01*
X429725Y390578D01*
X429909Y391500D01*
X429731Y392394D01*
X429794Y392482D01*
X430322Y392946D01*
X430578Y392775D01*
D02*
G37*
G36*
X417953Y365560D02*
X417652Y364833D01*
X414052D01*
X406885Y371999D01*
X409200Y374313D01*
X417953Y365560D01*
D02*
G37*
G36*
X472453Y355359D02*
X472578Y355275D01*
X473199Y355151D01*
X473509Y354365D01*
X473510Y354348D01*
X470169Y351007D01*
X462748D01*
X462422Y351225D01*
X461500Y351409D01*
X460578Y351225D01*
X459797Y350703D01*
X459275Y349922D01*
X459198Y349537D01*
X448169Y338507D01*
X423488D01*
X423313Y339235D01*
X423325Y339295D01*
X424077Y339797D01*
X424599Y340578D01*
X425269Y340856D01*
X425389Y340775D01*
X426311Y340592D01*
X427233Y340775D01*
X428014Y341297D01*
X429064Y341450D01*
X429326Y341275D01*
X430248Y341091D01*
X431170Y341275D01*
X431951Y341797D01*
X432370Y342425D01*
X433068Y342775D01*
X433313Y342765D01*
X434185Y342592D01*
X435107Y342775D01*
X435888Y343297D01*
X436410Y344078D01*
X436459Y344323D01*
X437200Y344775D01*
X438122Y344591D01*
X439044Y344775D01*
X439825Y345297D01*
X440013Y345579D01*
X441041Y345839D01*
X441137Y345775D01*
X442059Y345591D01*
X442981Y345775D01*
X443762Y346297D01*
X444183Y346926D01*
X444987Y347336D01*
X445078Y347275D01*
X446000Y347092D01*
X446922Y347275D01*
X447703Y347797D01*
X448225Y348578D01*
X448933Y348872D01*
X449078Y348775D01*
X450000Y348591D01*
X450922Y348775D01*
X451703Y349297D01*
X452225Y350078D01*
X452933Y350372D01*
X453078Y350275D01*
X454000Y350092D01*
X454922Y350275D01*
X455703Y350797D01*
X456225Y351578D01*
X456501Y351693D01*
X456982Y351371D01*
X457903Y351188D01*
X458825Y351371D01*
X459607Y351893D01*
X460129Y352675D01*
X460312Y353596D01*
X460166Y354331D01*
X460602Y355119D01*
X463175D01*
X463273Y355000D01*
X463456Y354078D01*
X463978Y353297D01*
X464759Y352775D01*
X465681Y352591D01*
X466603Y352775D01*
X467384Y353297D01*
X467767Y353870D01*
X468578Y354275D01*
X469500Y354092D01*
X470422Y354275D01*
X471203Y354797D01*
X471444Y355158D01*
X471725Y355578D01*
X472453Y355359D01*
D02*
G37*
G36*
X447034Y443979D02*
X447490Y443674D01*
X448028Y443568D01*
X469182D01*
X469598Y442780D01*
X469524Y442671D01*
X469517Y442669D01*
X441720D01*
X441603Y442747D01*
X441182Y442831D01*
Y443634D01*
X441603Y443717D01*
X442124Y444065D01*
X442472Y444586D01*
X442594Y445201D01*
X443056Y445764D01*
X445249D01*
X447034Y443979D01*
D02*
G37*
G36*
X470235Y450278D02*
X470593Y450039D01*
X470699Y449566D01*
X470707Y449168D01*
X470629Y449116D01*
X469918Y448405D01*
X453713D01*
Y451957D01*
X468556D01*
X470235Y450278D01*
D02*
G37*
G36*
X405207Y354522D02*
X404906Y353795D01*
X401538D01*
X383860Y371473D01*
X386058Y373671D01*
X405207Y354522D01*
D02*
G37*
G36*
X396503Y349010D02*
X396201Y348283D01*
X392204D01*
X370937Y369550D01*
X373450Y372063D01*
X396503Y349010D01*
D02*
G37*
G36*
X270145Y431224D02*
X270313Y431033D01*
Y430454D01*
X268020Y428160D01*
X267922Y428225D01*
X267000Y428408D01*
X266078Y428225D01*
X265297Y427703D01*
X264775Y426922D01*
X264592Y426000D01*
X264775Y425078D01*
X265297Y424297D01*
X266078Y423775D01*
X267000Y423592D01*
X267922Y423775D01*
X268703Y424297D01*
X269225Y425078D01*
X269227Y425087D01*
X271441Y427301D01*
X272273Y427109D01*
X272522Y426524D01*
X272509Y426504D01*
X272387Y425890D01*
X272509Y425275D01*
X272756Y424905D01*
X272509Y424536D01*
X272387Y423921D01*
X272509Y423307D01*
X272756Y422937D01*
X272509Y422567D01*
X272387Y421953D01*
X272509Y421338D01*
X272756Y420968D01*
X272509Y420599D01*
X272387Y419984D01*
X272509Y419370D01*
X272756Y419000D01*
X272509Y418630D01*
X272387Y418016D01*
X272509Y417401D01*
X272756Y417031D01*
X272509Y416662D01*
X272387Y416047D01*
X272509Y415433D01*
X272756Y415063D01*
X272509Y414693D01*
X272387Y414079D01*
X272509Y413464D01*
X272756Y413095D01*
X272509Y412725D01*
X272387Y412110D01*
X272509Y411496D01*
X272857Y410975D01*
X273111Y410805D01*
X273257Y410024D01*
X273224Y409855D01*
X273033Y409687D01*
X271454D01*
X269070Y412070D01*
X268579Y412398D01*
X268483Y412417D01*
X268380Y412438D01*
X268203Y412703D01*
X267422Y413225D01*
X266500Y413409D01*
X265578Y413225D01*
X264797Y412703D01*
X264275Y411922D01*
X264091Y411000D01*
X264275Y410078D01*
X264797Y409297D01*
X265578Y408775D01*
X266500Y408592D01*
X267422Y408775D01*
X267819Y409040D01*
X268581Y408279D01*
X268193Y407553D01*
X267890Y407614D01*
X267275Y407491D01*
X266905Y407244D01*
X266536Y407491D01*
X265921Y407614D01*
X265307Y407491D01*
X264937Y407244D01*
X264567Y407491D01*
X263953Y407614D01*
X263338Y407491D01*
X262968Y407244D01*
X262599Y407491D01*
X261984Y407614D01*
X261370Y407491D01*
X261000Y407244D01*
X260630Y407491D01*
X260016Y407614D01*
X259401Y407491D01*
X258880Y407143D01*
X258711Y406889D01*
X257930Y406742D01*
X257760Y406776D01*
X257592Y406967D01*
Y409723D01*
X257703Y409797D01*
X258225Y410578D01*
X258408Y411500D01*
X258225Y412422D01*
X257703Y413203D01*
X256922Y413725D01*
X256000Y413908D01*
X255078Y413725D01*
X254297Y413203D01*
X253775Y412422D01*
X253591Y411500D01*
X253775Y410578D01*
X254297Y409797D01*
X254565Y409618D01*
Y407987D01*
X254110Y407614D01*
X253496Y407491D01*
X253126Y407244D01*
X252756Y407491D01*
X252142Y407614D01*
X251527Y407491D01*
X251157Y407244D01*
X250788Y407491D01*
X250173Y407614D01*
X249613Y408173D01*
X249491Y408788D01*
X249244Y409158D01*
X249491Y409527D01*
X249613Y410142D01*
X249491Y410756D01*
X249244Y411126D01*
X249491Y411496D01*
X249613Y412110D01*
X249491Y412725D01*
X249244Y413095D01*
X249491Y413464D01*
X249613Y414079D01*
X249491Y414693D01*
X249244Y415063D01*
X249491Y415433D01*
X249613Y416047D01*
X249491Y416662D01*
X249244Y417031D01*
X249491Y417401D01*
X249613Y418016D01*
X249491Y418630D01*
X249244Y419000D01*
X249491Y419370D01*
X249613Y419984D01*
X249491Y420599D01*
X249244Y420968D01*
X249491Y421338D01*
X249613Y421953D01*
X249491Y422567D01*
X249244Y422937D01*
X249491Y423307D01*
X249613Y423921D01*
X249491Y424536D01*
X249244Y424905D01*
X249491Y425275D01*
X249613Y425890D01*
X249491Y426504D01*
X249143Y427025D01*
X248889Y427195D01*
X248743Y427976D01*
X248776Y428145D01*
X248967Y428313D01*
X250129D01*
X250275Y427578D01*
X250797Y426797D01*
X251578Y426275D01*
X252500Y426091D01*
X253422Y426275D01*
X254203Y426797D01*
X254725Y427578D01*
X254908Y428500D01*
X254725Y429422D01*
X254662Y429517D01*
X254939Y430293D01*
X255464Y430509D01*
X256079Y430386D01*
X256693Y430509D01*
X257063Y430756D01*
X257433Y430509D01*
X258047Y430386D01*
X258662Y430509D01*
X259032Y430756D01*
X259401Y430509D01*
X260016Y430386D01*
X260630Y430509D01*
X261000Y430756D01*
X261370Y430509D01*
X261984Y430386D01*
X262599Y430509D01*
X262968Y430756D01*
X263338Y430509D01*
X263953Y430386D01*
X264567Y430509D01*
X264937Y430756D01*
X265307Y430509D01*
X265921Y430386D01*
X266536Y430509D01*
X266905Y430756D01*
X267275Y430509D01*
X267890Y430386D01*
X268504Y430509D01*
X269025Y430857D01*
X269195Y431111D01*
X269976Y431257D01*
X270145Y431224D01*
D02*
G37*
G36*
X424161Y372507D02*
X424617Y372202D01*
X425155Y372095D01*
X468077D01*
X468378Y371368D01*
X465977Y368967D01*
X422520D01*
X419187Y372300D01*
X421777Y374891D01*
X424161Y372507D01*
D02*
G37*
%LPC*%
G36*
X457415Y430756D02*
X457415Y430756D01*
X453085D01*
Y425244D01*
X457415D01*
X457415Y425244D01*
Y425244D01*
X458203Y425651D01*
X458500Y425592D01*
X459422Y425775D01*
X460203Y426297D01*
X460725Y427078D01*
X460909Y428000D01*
X460725Y428922D01*
X460203Y429703D01*
X459422Y430225D01*
X458500Y430408D01*
X458203Y430349D01*
X457415Y430756D01*
Y430756D01*
D02*
G37*
%LPD*%
D10*
X282177Y497500D02*
Y511055D01*
Y489402D02*
Y497500D01*
X250000D02*
X282177D01*
Y511055D02*
X316429D01*
Y489402D02*
Y511055D01*
D13*
X255500Y366000D02*
Y376051D01*
X245000Y386551D02*
X255500Y376051D01*
X245000Y386551D02*
Y408118D01*
X616500Y378000D02*
Y380000D01*
X620750Y384250D01*
X623500D01*
D14*
X419500Y480500D02*
X420000D01*
X421727Y482227D01*
X421227D02*
X421727D01*
X377799Y468035D02*
Y480051D01*
X585750Y356000D02*
X586500Y356750D01*
X312492Y485465D02*
X316429Y489402D01*
X507000Y423000D02*
X507075Y422925D01*
X519244D01*
X442949Y392051D02*
X445000Y390000D01*
X438035Y392051D02*
X442949D01*
X383709Y330000D02*
X389000Y324709D01*
X335500Y330000D02*
X383709D01*
X244646Y370000D02*
X251000D01*
X225157Y380217D02*
Y383157D01*
X327250Y336750D02*
Y343000D01*
X395941Y324709D02*
X401000Y319650D01*
X389000Y324709D02*
X395941D01*
X373500Y370000D02*
Y370500D01*
Y370000D02*
X375227Y368273D01*
X370773Y372727D02*
X371894Y373848D01*
X351343Y466000D02*
X351421Y466079D01*
X425000Y394000D02*
X427500Y391500D01*
X422000Y394000D02*
X425000D01*
X417169Y389169D02*
X422000Y394000D01*
X424638Y401000D02*
X427500Y403862D01*
X438035D01*
X411500Y413705D02*
X432000D01*
X409205D02*
X411500D01*
Y392000D02*
Y413705D01*
X453500Y383500D02*
X455750D01*
X449350Y383600D02*
Y388000D01*
X430949Y384965D02*
X448965D01*
X428201Y445201D02*
X438035D01*
X428000Y445000D02*
X428201Y445201D01*
X428079Y421579D02*
X438035D01*
X428000Y421500D02*
X428079Y421579D01*
X431500Y395000D02*
X432480Y394020D01*
X515122Y323815D02*
X516500Y322437D01*
X478213Y323224D02*
X479000Y322437D01*
X343000Y464850D02*
X348870Y458980D01*
X354965D01*
X357728Y490921D02*
X362000Y486650D01*
X351421Y490921D02*
X357728D01*
X340750Y437250D02*
X341000Y437500D01*
X446266Y425516D02*
X448750Y428000D01*
X438035Y425516D02*
X446266D01*
X347360Y433390D02*
X354965D01*
X377500Y486650D02*
X379850D01*
X383705Y482795D01*
Y468035D02*
Y482795D01*
X362000Y486650D02*
X377500D01*
X373400Y480350D02*
X377500D01*
X362000D02*
X366600D01*
X362051Y468035D02*
Y480299D01*
X585400Y355650D02*
X585750Y356000D01*
X559150Y461500D02*
X565250D01*
X252750Y391000D02*
Y395750D01*
X256079Y399079D01*
Y403055D01*
X266500Y411000D02*
X268000D01*
X270827Y408173D01*
X256000Y411500D02*
X256079Y411421D01*
Y403055D02*
Y411421D01*
X270827Y408173D02*
X271827D01*
X276945D01*
X271827Y403055D02*
Y408173D01*
X267000Y426000D02*
X268000D01*
X271827Y429827D01*
Y434945D01*
X251173Y429827D02*
X252500Y428500D01*
X245055Y429827D02*
X251173D01*
X225157Y375000D02*
Y380217D01*
X411264Y472264D02*
X416773Y477773D01*
X411264Y468035D02*
Y472264D01*
X354965Y458980D02*
X359520D01*
X361000Y457500D01*
X458364Y421650D02*
X460850D01*
X457000D02*
X458364D01*
X432480Y394020D02*
X438035D01*
X460850Y421650D02*
X461000Y421500D01*
X526425Y422925D02*
X528500Y420850D01*
X519244Y422925D02*
X526425D01*
X527425Y426075D02*
X528500Y427150D01*
X519244Y426075D02*
X527425D01*
X409205Y413705D02*
X409250Y413750D01*
X396500Y426500D02*
X409250Y413750D01*
X415500Y460500D02*
X431000D01*
X437000Y466500D01*
X463000D01*
X457650Y450500D02*
X463000D01*
X438035Y451106D02*
X450744D01*
X458364Y415350D02*
X461850D01*
X467500Y426000D02*
X467575Y426075D01*
X474756D01*
X451500Y415350D02*
X455636D01*
X461850D02*
X462000Y415500D01*
X455650Y393000D02*
X460000D01*
X455650Y404000D02*
X460000D01*
X360500Y431421D02*
X391579D01*
X354965D02*
X360500D01*
Y428500D02*
Y431421D01*
X359484Y427484D02*
X360500Y428500D01*
X354965Y427484D02*
X359484D01*
X391579Y431421D02*
X396500Y426500D01*
X385000Y438000D02*
X391579Y431421D01*
X385000Y444500D02*
Y449500D01*
Y438000D02*
Y444500D01*
X362000D02*
X385000D01*
X360732Y443232D02*
X362000Y444500D01*
X354965Y443232D02*
X360732D01*
X372000Y454000D02*
Y460000D01*
Y452000D02*
Y454000D01*
X368500D02*
X372000D01*
X361551Y460949D02*
X368500Y454000D01*
X354965Y460949D02*
X361551D01*
X385000Y449500D02*
Y460000D01*
X374500Y449500D02*
X385000D01*
X372000Y452000D02*
X374500Y449500D01*
X369925Y462075D02*
X372000Y460000D01*
X369925Y462075D02*
Y468035D01*
X383705Y461295D02*
X385000Y460000D01*
X383705Y461295D02*
Y468035D01*
X402500Y434673D02*
Y460000D01*
X401421Y461079D02*
X402500Y460000D01*
X401421Y461079D02*
Y468035D01*
X415500Y441500D02*
X430500D01*
X411500D02*
X415500D01*
Y460500D01*
X413232Y462768D02*
X415500Y460500D01*
X413232Y462768D02*
Y468035D01*
X403587Y433587D02*
X411500Y441500D01*
X398862Y428862D02*
X403587Y433587D01*
X396500Y426500D02*
X398862Y428862D01*
X430500Y441500D02*
X432232Y443232D01*
X438035D01*
X432000Y413705D02*
Y419000D01*
X432142Y417642D02*
X438035D01*
X432000Y413705D02*
X438035D01*
X432000Y419000D02*
X432610Y419610D01*
X438035D01*
X402500Y391500D02*
Y419413D01*
X411500Y392000D02*
X413232Y390268D01*
Y384965D02*
Y390268D01*
X402500Y391500D02*
X403390Y390610D01*
Y384965D02*
Y390610D01*
X380413Y419413D02*
X389413D01*
X369000Y408000D02*
X380413Y419413D01*
X369000Y391500D02*
Y408000D01*
Y391500D02*
X369925Y390575D01*
Y384965D02*
Y390575D01*
X394138Y424138D02*
X396500Y426500D01*
X389413Y419413D02*
X394138Y424138D01*
X386500Y416500D02*
X389413Y419413D01*
X386500Y392500D02*
Y416500D01*
Y392500D02*
X387642Y391358D01*
Y384965D02*
Y391358D01*
X377705Y454205D02*
X377799Y454299D01*
Y468035D01*
X366425Y399925D02*
X366500Y400000D01*
X354965Y399925D02*
X366425D01*
X363953Y423547D02*
X364000Y423500D01*
X354965Y423547D02*
X363953D01*
X363764Y441264D02*
X364000Y441500D01*
X354965Y441264D02*
X363764D01*
X354965Y447169D02*
X367669D01*
X367957Y459043D02*
X368000Y459000D01*
X367957Y459043D02*
Y468035D01*
X381500Y459028D02*
X381736Y459264D01*
Y468035D01*
X399500Y459000D02*
Y459500D01*
X399453Y459547D02*
X399500Y459500D01*
X399453Y459547D02*
Y468035D01*
X409295Y454205D02*
Y468035D01*
X411264Y460236D02*
X412500Y459000D01*
X411264Y460236D02*
Y468035D01*
X424500Y451000D02*
X424606Y451106D01*
X438035D01*
X417169Y384965D02*
Y389169D01*
X414000Y393500D02*
X415201Y392299D01*
Y384965D02*
Y392299D01*
X405358Y384965D02*
Y393358D01*
X389610Y384965D02*
Y393390D01*
X371894Y384965D02*
Y393394D01*
X372000Y393500D01*
X344697Y423547D02*
X354965D01*
X371894Y373848D02*
Y384965D01*
X438035Y413705D02*
X449854D01*
X451500Y415350D01*
X438035Y421579D02*
X451429D01*
X438035Y403862D02*
X449213D01*
X438035Y394020D02*
X444980D01*
X446000Y393000D01*
X449350D01*
X455650Y388000D02*
Y393000D01*
X417169Y376831D02*
Y384965D01*
Y376831D02*
X418773Y375227D01*
X405358Y375312D02*
Y384965D01*
X333894Y451106D02*
Y451606D01*
X344980Y447169D02*
X354965D01*
X342618Y443232D02*
X354965D01*
X338350Y447500D02*
X342618Y443232D01*
X564299Y452500D02*
X564500Y452299D01*
X523609Y502444D02*
X524500Y501552D01*
X436350Y332000D02*
X436500Y332150D01*
X271827Y399173D02*
Y403055D01*
Y399173D02*
X274850Y396150D01*
X277000D01*
X241150Y433732D02*
Y441500D01*
Y433732D02*
X245055Y429827D01*
D15*
X458364Y421650D02*
G03*
X455425Y420862I-1364J-787D01*
G01*
X458575D02*
G03*
X458364Y421650I-1575J0D01*
G01*
Y415350D02*
G03*
X458575Y416138I-1364J787D01*
G01*
X455636Y415350D02*
G03*
X458364Y415350I1364J787D01*
G01*
X455425Y416138D02*
G03*
X455636Y415350I1575J0D01*
G01*
X258500Y362500D02*
Y375500D01*
X249500Y384500D02*
X258500Y375500D01*
X249500Y384500D02*
Y395500D01*
X623500Y357650D02*
X625150Y356000D01*
X623500Y357650D02*
Y362563D01*
X272453Y364957D02*
X288000Y349409D01*
Y345000D02*
Y349409D01*
X284000Y341000D02*
X288000Y345000D01*
X275500Y341000D02*
X284000D01*
X273500Y339000D02*
X275500Y341000D01*
X273500Y337750D02*
Y339000D01*
X233146Y351646D02*
X244646D01*
X258541Y337750D01*
X273500D01*
Y344250D02*
X279000D01*
X273500D02*
Y347500D01*
X258500Y362500D02*
X273500Y347500D01*
X249500Y395500D02*
X250173Y396173D01*
Y403055D01*
X547051Y441000D02*
X551500D01*
X545862Y444138D02*
X549724D01*
X527878Y462122D02*
X545862Y444138D01*
X549724D02*
X549862Y444000D01*
X527307Y460744D02*
X547051Y441000D01*
X500961Y460744D02*
X527307D01*
X502103Y463500D02*
X528449D01*
X545449Y446500D02*
X547000D01*
X528449Y463500D02*
X545449Y446500D01*
X501532Y462122D02*
X527878D01*
X502551Y465000D02*
X532500D01*
X477051Y490500D02*
X502551Y465000D01*
X476603Y489000D02*
X502103Y463500D01*
X476154Y487500D02*
X501532Y462122D01*
X475705Y486000D02*
X500961Y460744D01*
X420327Y486000D02*
X475705D01*
X419500Y487500D02*
X476154D01*
X419051Y489000D02*
X476603D01*
X416500Y490500D02*
X477051D01*
X503000Y466500D02*
X532949D01*
X477500Y492000D02*
X503000Y466500D01*
X415500Y492000D02*
X477500D01*
X491000Y493500D02*
X496000Y498500D01*
X414500Y493500D02*
X491000D01*
X393500Y472500D02*
X414500Y493500D01*
X395516Y472016D02*
X415500Y492000D01*
X397484Y471484D02*
X416500Y490500D01*
X403390Y473339D02*
X419051Y489000D01*
X405358Y473358D02*
X419500Y487500D01*
X407327Y473000D02*
X420327Y486000D01*
X508776Y429224D02*
X519244D01*
X478354Y459646D02*
X508776Y429224D01*
X471129Y459646D02*
X478354D01*
X508126Y432374D02*
X519244D01*
X479264Y461236D02*
X508126Y432374D01*
X470470Y461236D02*
X479264D01*
X507476Y435524D02*
X519244D01*
X470500Y472500D02*
X507476Y435524D01*
X435413Y472500D02*
X470500D01*
X506635Y438673D02*
X519244D01*
X471308Y474000D02*
X506635Y438673D01*
X505434Y441823D02*
X519244D01*
X471757Y475500D02*
X505434Y441823D01*
X504233Y444972D02*
X519244D01*
X472205Y477000D02*
X504233Y444972D01*
X503032Y448122D02*
X519244D01*
X472654Y478500D02*
X503032Y448122D01*
X501831Y451272D02*
X519244D01*
X473103Y480000D02*
X501831Y451272D01*
X500630Y454421D02*
X519244D01*
X473551Y481500D02*
X500630Y454421D01*
X499429Y457571D02*
X519244D01*
X474000Y483000D02*
X499429Y457571D01*
X430902Y474000D02*
X471308D01*
X430152Y475500D02*
X471757D01*
X429403Y477000D02*
X472205D01*
X428653Y478500D02*
X472654D01*
X427904Y480000D02*
X473103D01*
X427155Y481500D02*
X473551D01*
X426405Y483000D02*
X474000D01*
X430949Y468035D02*
X435413Y472500D01*
X428980Y472079D02*
X430902Y474000D01*
X427012Y472360D02*
X430152Y475500D01*
X417169Y473764D02*
X426405Y483000D01*
X419138Y473483D02*
X427155Y481500D01*
X421106Y473202D02*
X427904Y480000D01*
X423075Y472921D02*
X428653Y478500D01*
X425043Y472641D02*
X429403Y477000D01*
X371894Y476106D02*
X372000Y476000D01*
X373862Y472862D02*
X375000Y474000D01*
X373862Y468035D02*
Y472862D01*
X371894Y468035D02*
Y476106D01*
X265500Y466000D02*
X267000D01*
X256079Y456579D02*
X265500Y466000D01*
X256079Y434945D02*
Y456579D01*
X265500Y463500D02*
X269500D01*
X258047Y456047D02*
X265500Y463500D01*
X258047Y434945D02*
Y456047D01*
X238547Y416047D02*
X245055D01*
X233500Y411000D02*
X238547Y416047D01*
X233500Y396500D02*
Y411000D01*
X393500Y468035D02*
Y472500D01*
X395516Y468035D02*
Y472016D01*
X397484Y468035D02*
Y471484D01*
X385673Y468035D02*
Y486327D01*
X369500Y502500D02*
X385673Y486327D01*
X330000Y502500D02*
X369500D01*
X571750Y461500D02*
Y485000D01*
X469500Y343000D02*
X485000D01*
X464750Y338250D02*
X469500Y343000D01*
X234500Y428000D02*
Y444500D01*
X261823Y471823D01*
X282177D01*
Y489402D01*
X310000Y423000D02*
Y448500D01*
X303000Y455500D02*
X310000Y448500D01*
X291000Y455500D02*
X303000D01*
X562500Y375000D02*
X595204D01*
X309250Y343000D02*
Y370250D01*
X286000Y393500D02*
X309250Y370250D01*
X272500Y393500D02*
X286000D01*
X269858Y396142D02*
X272500Y393500D01*
X269858Y396142D02*
Y403055D01*
X333500Y464500D02*
X336850D01*
X328500Y459500D02*
X333500Y464500D01*
X328500Y448500D02*
Y459500D01*
X244646Y351646D02*
Y365000D01*
X276468Y375000D02*
Y377000D01*
Y368972D02*
Y375000D01*
X297500D01*
X302750Y404250D02*
Y406000D01*
X301000Y402500D02*
X302750Y404250D01*
X310000Y423000D02*
X312500Y420500D01*
X314750D01*
X335000Y424000D02*
X335500Y423500D01*
X338350D01*
X367562Y370938D02*
X391622Y346878D01*
X367957Y375457D02*
Y384965D01*
X367562Y375061D02*
X367957Y375457D01*
X367562Y370938D02*
Y375061D01*
X400956Y352390D02*
X448610D01*
X400386Y351012D02*
X444488D01*
X399815Y349634D02*
X440366D01*
X379768Y373578D02*
X400956Y352390D01*
X379768Y373578D02*
Y384965D01*
X377799Y373598D02*
X400386Y351012D01*
X377799Y373598D02*
Y384965D01*
X375831Y373618D02*
X399815Y349634D01*
X375831Y373618D02*
Y384965D01*
X399244Y348256D02*
X436744D01*
X373862Y373638D02*
X399244Y348256D01*
X373862Y373638D02*
Y384965D01*
X390032Y342622D02*
X421252D01*
X362051Y370603D02*
Y384965D01*
X390603Y344000D02*
X425311D01*
X364020Y370583D02*
Y384965D01*
X391051Y345500D02*
X428248D01*
X365988Y370563D02*
Y384965D01*
Y370563D02*
X391051Y345500D01*
X364020Y370583D02*
X390603Y344000D01*
X362051Y370603D02*
X390032Y342622D01*
X391622Y346878D02*
X432307D01*
X334449Y385000D02*
X335500Y383949D01*
Y364000D02*
Y383949D01*
X329000Y364000D02*
X335500D01*
X321240Y356240D02*
X329000Y364000D01*
X315874Y356240D02*
X321240D01*
X596350Y349500D02*
Y356000D01*
Y342650D02*
Y349500D01*
Y342650D02*
X600500Y338500D01*
X620250D01*
X622500Y340750D01*
Y341750D02*
X625150Y344400D01*
Y349500D01*
Y356000D01*
X602650Y344287D02*
X604500Y342437D01*
X613500Y349250D02*
X613750Y349500D01*
X613500Y349250D02*
Y349750D01*
X607750Y362000D02*
X608250Y361500D01*
X607500Y362250D02*
X607750Y362000D01*
X596350Y356000D02*
X599000Y358650D01*
X591750Y356000D02*
X596350D01*
X608250Y368500D02*
Y370750D01*
X605500Y373500D02*
X608250Y370750D01*
X605500Y373500D02*
Y408500D01*
X565500Y448500D02*
X605500Y408500D01*
X565000Y447000D02*
X604000Y408000D01*
Y369250D02*
Y408000D01*
X550949Y448500D02*
X565500D01*
X550500Y447000D02*
X565000D01*
X532949Y466500D02*
X550949Y448500D01*
X464750Y336000D02*
Y338250D01*
X596500Y376296D02*
Y387146D01*
X595204Y375000D02*
X596500Y376296D01*
X557969Y370469D02*
X562500Y375000D01*
X425000Y318500D02*
X440500D01*
X419500D02*
X425000D01*
Y313276D02*
Y318500D01*
X408209Y321646D02*
X413004Y316850D01*
X402787Y321437D02*
X408000D01*
X401000Y319650D02*
X402787Y321437D01*
X450500Y329000D02*
X451600Y330100D01*
X464750D01*
Y336000D01*
X447500Y332000D02*
X450500Y329000D01*
X442650Y332000D02*
X447500D01*
X440500Y313791D02*
Y318500D01*
X467500D02*
X479000D01*
X467500Y313776D02*
Y318500D01*
X479000D02*
X504500D01*
X479000Y314563D02*
Y318500D01*
X504500D02*
X512563D01*
X504500D02*
Y327350D01*
Y314276D02*
Y318500D01*
X501850Y330000D02*
X504500Y327350D01*
X415500Y316850D02*
X417850D01*
X413004D02*
X415500D01*
X512563Y318500D02*
X516500Y314563D01*
X417850Y316850D02*
X419500Y318500D01*
X233000Y311000D02*
Y351500D01*
X209500D02*
X233000D01*
X315750Y343000D02*
X320750D01*
X315750D02*
Y348636D01*
X335350Y352500D02*
Y353075D01*
X234500Y428000D02*
X234642Y427858D01*
X245055D01*
X295000Y406000D02*
X296250D01*
X284953Y416047D02*
X295000Y406000D01*
X276945Y416047D02*
X284953D01*
X299500Y474250D02*
X305000D01*
X293500D02*
X296350Y477100D01*
Y485465D01*
X299500Y474250D02*
Y485465D01*
X368000Y474500D02*
X368500D01*
X365988Y472488D02*
X368000Y474500D01*
X365988Y468035D02*
Y472488D01*
X343000Y456000D02*
X343957Y455043D01*
X354965D01*
X343500Y460000D02*
X346488Y457012D01*
X354965D01*
X364020Y475020D02*
X365000Y476000D01*
X364020Y468035D02*
Y475020D01*
X351421Y466079D02*
Y481079D01*
X340750Y433500D02*
Y437250D01*
X455250Y428000D02*
X458500D01*
X336547Y429453D02*
X354965D01*
X331500Y434500D02*
X336547Y429453D01*
X328500Y434500D02*
X331500D01*
X557969Y336854D02*
Y370469D01*
X592650Y396500D02*
X596500Y392650D01*
Y387146D02*
Y392650D01*
X272453Y364957D02*
X276468Y368972D01*
X272532Y372319D02*
Y377000D01*
Y378969D01*
X266350Y372240D02*
X272453Y366138D01*
Y364957D02*
Y366138D01*
X266469Y372358D02*
Y377000D01*
X262531Y368776D02*
X266350Y364957D01*
X262531Y368776D02*
Y377000D01*
Y387469D01*
X261984Y388016D02*
X262531Y387469D01*
X261984Y388016D02*
Y403055D01*
X252850Y386000D02*
X256000Y389150D01*
Y395500D01*
X258047Y397547D01*
Y403055D01*
X259250Y385500D02*
Y395250D01*
X260016Y396016D01*
Y403055D01*
X259000Y416500D02*
Y424500D01*
Y409500D02*
Y416500D01*
X272358Y410142D02*
X276945D01*
X266000Y416500D02*
X272358Y410142D01*
X259000Y416500D02*
X266000D01*
X258047Y408547D02*
X259000Y409500D01*
X258047Y403055D02*
Y408547D01*
X245055Y427858D02*
X249642D01*
X253000Y424500D01*
X259000D01*
X263500Y429000D01*
X268000D01*
X269858Y430858D01*
Y434945D01*
X219000Y366500D02*
Y382000D01*
X233500Y396500D01*
X220500Y365000D02*
X225157D01*
X219000Y366500D02*
X220500Y365000D01*
X239000Y375000D02*
X244646D01*
X234000D02*
X235000Y376000D01*
Y410000D01*
X239079Y414079D01*
X245055D01*
X225157Y370000D02*
X232500D01*
X236500Y374000D01*
Y409000D01*
X239610Y412110D01*
X245055D01*
X238500Y386146D02*
X244646Y380000D01*
X238500Y386146D02*
Y408500D01*
X240142Y410142D01*
X245055D01*
X420000Y425500D02*
X429500D01*
X431453Y423547D01*
X438035D01*
X267890Y434945D02*
Y438890D01*
X265921Y434945D02*
Y447921D01*
X263953Y434945D02*
Y448737D01*
X293750Y462000D02*
X299500Y467750D01*
X289719Y463969D02*
X293500Y467750D01*
X279185Y463969D02*
X289719D01*
X280000Y462000D02*
X293750D01*
X403390Y468035D02*
Y473339D01*
X405358Y468035D02*
Y473358D01*
X407327Y468035D02*
Y473000D01*
X471228Y451272D02*
X474756D01*
X469138Y453362D02*
X471228Y451272D01*
X449521Y453362D02*
X469138D01*
X449233Y453075D02*
X449521Y453362D01*
X438035Y453075D02*
X449233D01*
X471622Y448122D02*
X474756D01*
X470500Y447000D02*
X471622Y448122D01*
X448500Y447000D02*
X470500D01*
X446362Y449138D02*
X448500Y447000D01*
X438035Y449138D02*
X446362D01*
X448028Y444972D02*
X474756D01*
X445831Y447169D02*
X448028Y444972D01*
X438035Y447169D02*
X445831D01*
X381736Y384965D02*
Y397764D01*
X309500Y408000D02*
X310000Y407500D01*
X309500Y408000D02*
Y410750D01*
X304250D02*
X305000Y410000D01*
Y408500D02*
Y410000D01*
Y408500D02*
X306500Y407000D01*
X306750Y413500D02*
X309500Y410750D01*
X294000Y413500D02*
X306750D01*
X287516Y419984D02*
X294000Y413500D01*
X276945Y419984D02*
X287516D01*
X294250Y410750D02*
X304250D01*
X286984Y418016D02*
X294250Y410750D01*
X276945Y418016D02*
X286984D01*
X328500Y395000D02*
X334449D01*
X305000Y392500D02*
X309000D01*
X283421Y414079D02*
X305000Y392500D01*
X276945Y414079D02*
X283421D01*
X276945Y412110D02*
X283390D01*
X305500Y390000D01*
X315551D01*
X344622Y417622D02*
X354965D01*
X342000Y415000D02*
X344622Y417622D01*
X354965D02*
Y417642D01*
X334449Y395000D02*
X339000D01*
X340000Y396000D01*
Y409500D01*
X346173Y415673D01*
X354965D01*
X341500Y409000D02*
X346205Y413705D01*
X341500Y389500D02*
Y409000D01*
X339500Y387500D02*
X341500Y389500D01*
X346205Y413705D02*
X354965D01*
X335000Y400551D02*
Y402500D01*
X334449Y400000D02*
X335000Y400551D01*
X328000Y387500D02*
X339500D01*
X325500Y390000D02*
X328000Y387500D01*
X315551Y390000D02*
X325500D01*
X346340Y411736D02*
X354965D01*
X343000Y372916D02*
Y408396D01*
X346321Y409768D02*
X354965D01*
X344500Y407947D02*
X346321Y409768D01*
X344500Y373364D02*
Y407947D01*
X354965Y409768D02*
X354965Y409768D01*
X343000Y408396D02*
X346340Y411736D01*
X347299Y407406D02*
X347693Y407799D01*
X354965D01*
X351644Y401894D02*
X354965D01*
X349000Y399250D02*
X351644Y401894D01*
X351457Y397957D02*
X354965D01*
X347500Y394000D02*
X351457Y397957D01*
X346122Y399713D02*
X350272Y403862D01*
X351488Y395988D02*
X354965D01*
X348878Y393378D02*
X351488Y395988D01*
X349244Y405831D02*
X354965D01*
X347413Y404000D02*
X349244Y405831D01*
X350272Y403862D02*
X354965D01*
X344500Y373364D02*
X373727Y344138D01*
X343000Y372916D02*
X374278Y341638D01*
X346122Y373691D02*
Y399713D01*
X315551Y385000D02*
X326000D01*
X328500Y427500D02*
X346000D01*
X347984Y425516D01*
X354965D01*
X328500Y413500D02*
X329000D01*
X334500Y419000D01*
X348500D01*
X349110Y419610D01*
X354965D01*
X328744Y420744D02*
X348244D01*
X349079Y421579D01*
X354965D01*
X381736Y375764D02*
X382773Y374727D01*
X381736Y375764D02*
Y384965D01*
X374278Y341638D02*
X387362D01*
X350256Y375403D02*
X371521Y354138D01*
X350256Y375403D02*
Y392756D01*
X372073Y351638D02*
X377362D01*
X348878Y374833D02*
X372073Y351638D01*
X348878Y374833D02*
Y393378D01*
X372624Y349138D02*
X379862D01*
X347500Y374262D02*
X372624Y349138D01*
X347500Y374262D02*
Y394000D01*
X373175Y346638D02*
X382362D01*
X346122Y373691D02*
X373175Y346638D01*
X373727Y344138D02*
X384862D01*
X371521Y354138D02*
X374862D01*
X350256Y392756D02*
X351520Y394020D01*
X387362Y341638D02*
X387500Y341500D01*
X384862Y344138D02*
X385000Y344000D01*
X382362Y346638D02*
X382500Y346500D01*
X371500Y356500D02*
X372500D01*
X352000Y376000D02*
X371500Y356500D01*
X352000Y376000D02*
Y389087D01*
X351520Y394020D02*
X354965D01*
X379862Y349138D02*
X380000Y349000D01*
X377362Y351638D02*
X377500Y351500D01*
X374862Y354138D02*
X375000Y354000D01*
X352000Y389087D02*
X354965Y392051D01*
X421252Y342622D02*
X422374Y341500D01*
X428248Y345500D02*
X430248Y343500D01*
X407948Y353768D02*
X452732D01*
X383705Y378011D02*
X407948Y353768D01*
X409354Y355146D02*
X456354D01*
X385673Y378827D02*
X409354Y355146D01*
X410476Y356524D02*
X464157D01*
X391579Y375421D02*
X410476Y356524D01*
X411047Y357902D02*
X468098D01*
X393547Y375401D02*
X411047Y357902D01*
X411618Y359279D02*
X471721D01*
X395516Y375382D02*
X411618Y359279D01*
X397484Y375516D02*
X412328Y360672D01*
X399453Y375496D02*
X412899Y362050D01*
X401421Y375476D02*
X413470Y363428D01*
X407327Y378173D02*
X420694Y364806D01*
X409295Y378205D02*
X421316Y366184D01*
X411264Y378236D02*
X421939Y367562D01*
X425311Y344000D02*
X426311Y343000D01*
X471721Y359279D02*
X473500Y357500D01*
X468098Y357902D02*
X469500Y356500D01*
X464157Y356524D02*
X465681Y355000D01*
X456354Y355146D02*
X457903Y353596D01*
X452732Y353768D02*
X454000Y352500D01*
X448610Y352390D02*
X450000Y351000D01*
X444488Y351012D02*
X446000Y349500D01*
X440366Y349634D02*
X442000Y348000D01*
X436744Y348256D02*
X438000Y347000D01*
X432307Y346878D02*
X434185Y345000D01*
X442000Y348000D02*
X442059D01*
X438000Y347000D02*
X438122D01*
X471303Y419776D02*
X474756D01*
X471303Y416626D02*
X474756D01*
X471303Y413476D02*
X474756D01*
X471303Y407177D02*
X474756D01*
X465264Y401138D02*
X471303Y407177D01*
Y404028D02*
X474756D01*
X466823Y399547D02*
X471303Y404028D01*
X438035Y397957D02*
X468382D01*
X471303Y400878D01*
X474756D01*
X470403Y397728D02*
X474756D01*
X438035Y395988D02*
X468663D01*
X470403Y397728D01*
X438035Y401894D02*
X443606D01*
X444362Y401138D01*
X465264D01*
X438035Y399925D02*
X443325D01*
X443703Y399547D01*
X466823D01*
X445927Y409768D02*
X446203Y410043D01*
X438035Y409768D02*
X445927D01*
X446208Y407799D02*
X446862Y408453D01*
X438035Y407799D02*
X446208D01*
X438035Y405831D02*
X446489D01*
X447521Y406862D01*
X438035Y411736D02*
X463264D01*
X471303Y419776D01*
X446203Y410043D02*
X464720D01*
X471303Y416626D01*
X446862Y408453D02*
X466280D01*
X471303Y413476D01*
Y410327D02*
X474756D01*
X447521Y406862D02*
X467839D01*
X471303Y410327D01*
X438035Y437327D02*
X469500D01*
X471303Y435524D01*
X474756D01*
X438035Y435358D02*
X468319D01*
X471303Y432374D01*
X474756D01*
X438035Y433390D02*
X467138D01*
X471303Y429224D01*
X474756D01*
X470403Y438673D02*
X474756D01*
X438035Y439295D02*
X469781D01*
X470403Y438673D01*
X438035Y441264D02*
X470744D01*
X471303Y441823D01*
X474756D01*
X438035Y455043D02*
X470681D01*
X471303Y454421D01*
X474756D01*
X438035Y457012D02*
X470744D01*
X471303Y457571D01*
X474756D01*
X438035Y458980D02*
X470463D01*
X471129Y459646D01*
X438035Y460949D02*
X470182D01*
X470470Y461236D01*
X425043Y468035D02*
Y472641D01*
X427012Y468035D02*
Y472360D01*
X428980Y468035D02*
Y472079D01*
X423075Y468035D02*
Y472921D01*
X421106Y468035D02*
Y473202D01*
X419138Y468035D02*
Y473483D01*
X417169Y468035D02*
Y473764D01*
X428980Y380921D02*
Y384965D01*
X427012Y380640D02*
Y384965D01*
X471303Y394579D02*
X474756D01*
X471303Y391429D02*
X474756D01*
X425043Y380360D02*
Y384965D01*
X423075Y380079D02*
Y384965D01*
X421106Y379798D02*
Y384965D01*
X419138Y379517D02*
Y384965D01*
X411264Y378236D02*
Y384965D01*
X438035Y415673D02*
X444173D01*
X447000Y418500D01*
X457000D01*
X419138Y379517D02*
X425155Y373500D01*
X421106Y379798D02*
X426026Y374878D01*
X423075Y380079D02*
X426898Y376256D01*
X425043Y380360D02*
X427769Y377634D01*
X427012Y380640D02*
X428640Y379012D01*
X458886D01*
X471303Y391429D01*
X428980Y380921D02*
X429512Y380390D01*
X457114D01*
X471303Y394579D01*
X409295Y378205D02*
Y384965D01*
X407327Y378173D02*
Y384965D01*
X401421Y375476D02*
Y384965D01*
X399453Y375496D02*
Y384965D01*
X397484Y375516D02*
Y384965D01*
X391579Y375421D02*
Y384965D01*
X393547Y375401D02*
Y384965D01*
X395516Y375382D02*
Y384965D01*
X385673Y378827D02*
Y384965D01*
X383705Y378011D02*
Y384965D01*
X261984Y434945D02*
Y450984D01*
X333894Y451106D02*
X354965D01*
X331500Y455000D02*
X334000D01*
X335925Y453075D01*
X354965D01*
X265921Y447921D02*
X280000Y462000D01*
X263953Y448737D02*
X279185Y463969D01*
X261984Y450984D02*
X269500Y458500D01*
X260016Y434945D02*
Y454516D01*
X266000Y460500D01*
X329500Y447500D02*
X338350D01*
X532500Y465000D02*
X550500Y447000D01*
X496000Y498500D02*
X507000D01*
X276468Y377000D02*
Y389319D01*
X408209Y321646D02*
Y330000D01*
Y331500D01*
X420563D01*
X450500Y318500D02*
Y319000D01*
Y329000D01*
X440500Y318500D02*
X450500D01*
X467500D01*
X622500Y340750D02*
Y341750D01*
X504374Y400878D02*
X519244D01*
X426898Y376256D02*
X468505D01*
X426026Y374878D02*
X469377D01*
X425155Y373500D02*
X470248D01*
X421939Y367562D02*
X466559D01*
X506175Y407177D02*
X519244D01*
X466559Y367562D02*
X506175Y407177D01*
X507075Y410327D02*
X519244D01*
X470248Y373500D02*
X507075Y410327D01*
X507975Y413476D02*
X519244D01*
X469377Y374878D02*
X507975Y413476D01*
X508875Y416626D02*
X519244D01*
X468505Y376256D02*
X508875Y416626D01*
X509776Y419776D02*
X519244D01*
X427769Y377634D02*
X467634D01*
X509776Y419776D01*
X505274Y404028D02*
X519244D01*
X421316Y366184D02*
X467430D01*
X505274Y404028D01*
X420694Y364806D02*
X468373D01*
X504410Y400842D01*
X503728Y397728D02*
X519244D01*
X413470Y363428D02*
X469428D01*
X503728Y397728D01*
X412328Y360672D02*
X471672D01*
X502429Y391429D01*
X519244D01*
X412899Y362050D02*
X470550D01*
X503079Y394579D01*
X519244D01*
X267890Y438890D02*
X269500Y440500D01*
X280000D01*
X276945Y429827D02*
Y434945D01*
X283500Y441500D01*
X291000D01*
X280000Y440500D02*
X282500Y443000D01*
X285500D01*
X291000Y448500D01*
X299500Y423750D02*
X300312Y422937D01*
X306047Y421953D02*
X307500Y420500D01*
X299500Y421953D02*
Y423750D01*
X276945Y421953D02*
X299500D01*
X306047D01*
X263953Y387547D02*
X272532Y378969D01*
X263953Y387547D02*
Y403055D01*
D16*
X563000Y382500D02*
X574000D01*
X548500Y368000D02*
X563000Y382500D01*
X548500Y333000D02*
Y368000D01*
X327000Y336500D02*
X327250Y336750D01*
X471000Y349000D02*
X500000Y378000D01*
X461500Y349000D02*
X471000D01*
X449000Y336500D02*
X461500Y349000D01*
X508240Y308000D02*
X523500D01*
X305799Y485465D02*
X312492D01*
X302000Y385000D02*
X305000D01*
X284500Y402500D02*
X302000Y385000D01*
X479000Y322437D02*
Y328000D01*
X424638Y394362D02*
Y401000D01*
Y394362D02*
X427500Y391500D01*
X389000Y308500D02*
Y313685D01*
X508240Y308000D02*
Y314276D01*
X408000Y308000D02*
Y313563D01*
X471250Y323234D02*
Y336000D01*
X471240Y323224D02*
X478213D01*
X523500Y308000D02*
X548500Y333000D01*
X574000Y382500D02*
X577000Y379500D01*
X585500D01*
X586500Y380500D01*
Y387146D01*
X436350Y328965D02*
X440500Y324815D01*
X436350Y328965D02*
Y332000D01*
X429543D02*
X436350D01*
X500760Y308240D02*
Y314276D01*
X471240Y308260D02*
Y313776D01*
X463760Y308260D02*
Y313776D01*
X401000Y308000D02*
Y313350D01*
X421260Y308240D02*
Y313276D01*
X428740Y308260D02*
Y313276D01*
X500000Y378000D02*
Y383500D01*
X327500Y336500D02*
X449000D01*
X428437Y331500D02*
Y336437D01*
X428740Y322724D02*
Y331500D01*
D17*
X318000Y441500D02*
X328500D01*
X586500Y356750D02*
Y367657D01*
X305000Y400000D02*
X315551D01*
X591757Y334563D02*
X604500D01*
X613500D02*
X621813D01*
X604500D02*
X613500D01*
X602650Y344287D02*
Y349500D01*
X613500Y342437D02*
Y349250D01*
X613750Y349500D02*
X618850D01*
X602650D02*
X608250D01*
X613750Y356000D02*
X618850D01*
X614250Y357000D02*
Y362000D01*
X614750D02*
Y368500D01*
X608250Y356000D02*
Y361500D01*
X602650Y356000D02*
X608250D01*
X603000Y362250D02*
X607500D01*
X508150Y330000D02*
Y334350D01*
X508000Y334500D02*
X508150Y334350D01*
Y323815D02*
X515122D01*
X508150D02*
Y330000D01*
X335000Y474500D02*
X341579Y481079D01*
X574000Y337531D02*
Y349350D01*
Y355650D02*
X585400D01*
X569500Y367657D02*
X581284D01*
X586500Y387146D02*
Y396350D01*
X552673Y456827D02*
Y472847D01*
X209500Y472500D02*
X217000Y480000D01*
X277500D01*
X209500Y361500D02*
Y472500D01*
X299500Y417250D02*
X304500D01*
X315551Y395000D02*
Y400000D01*
X564400Y439600D02*
X581500Y422500D01*
Y387146D02*
Y422500D01*
X552673Y456827D02*
X557000Y452500D01*
X564299D01*
X540654Y472847D02*
X552673D01*
X524500Y489000D02*
X540654Y472847D01*
X524500Y489000D02*
Y501552D01*
X512500Y484673D02*
X524327Y472847D01*
X512500Y484673D02*
Y507500D01*
X304500Y417250D02*
X309500D01*
X315551Y400000D02*
Y401051D01*
X318000Y403500D01*
X311750Y474500D02*
X335000D01*
X314750Y434500D02*
X318000D01*
Y441500D01*
Y474500D01*
X314750Y427500D02*
X318000D01*
Y434500D01*
X314750Y413500D02*
X318000D01*
Y403500D02*
Y413500D01*
Y427500D01*
X313250Y413500D02*
X314750D01*
X309500Y417250D02*
X313250Y413500D01*
X315551Y395000D02*
X324000D01*
X329000Y390000D01*
X334449D01*
X474756Y422925D02*
X500425D01*
X503575Y426075D01*
X519244D01*
D18*
X623500Y370437D02*
Y377750D01*
X290000Y324500D02*
Y326750D01*
X279000Y337750D02*
X290000Y326750D01*
X350382Y346382D02*
X351000Y347000D01*
X353925Y353075D02*
X358000Y349000D01*
X341650Y353075D02*
X353925D01*
X352575Y349925D02*
X354500Y348000D01*
X341650Y349925D02*
X352575D01*
X494075Y323724D02*
X500760D01*
X467500Y323224D02*
X471240D01*
X457500Y323150D02*
X463685D01*
X415925Y322724D02*
X421260D01*
X335350Y349925D02*
Y352500D01*
X325126D02*
X335350D01*
Y353075D02*
Y356618D01*
Y346382D02*
Y349925D01*
X341650Y346382D02*
X350382D01*
X341650Y356618D02*
X354882D01*
X361500Y350000D01*
X321250Y413500D02*
X328500D01*
X321250Y420500D02*
X328500D01*
X321250Y427500D02*
X328500D01*
X321250Y434500D02*
X328500D01*
D19*
X623500Y362563D02*
D03*
X275126Y311000D02*
D03*
X290874D02*
D03*
X283000D02*
D03*
D20*
X623500Y370437D02*
D03*
D21*
X328500Y420500D02*
D03*
Y434500D02*
D03*
Y441500D02*
D03*
Y448500D02*
D03*
Y427500D02*
D03*
X291000Y448500D02*
D03*
Y441500D02*
D03*
Y455500D02*
D03*
X328500Y413500D02*
D03*
X209500Y351500D02*
D03*
X233000Y311000D02*
D03*
D22*
X209500Y361500D02*
D03*
D23*
X298748Y311000D02*
D03*
X267252D02*
D03*
D24*
X554032Y297878D02*
D03*
X593402D02*
D03*
D25*
X557969Y336854D02*
D03*
X589465D02*
D03*
X573717Y337248D02*
D03*
D26*
X243000Y311000D02*
D03*
D28*
X450500Y317500D02*
D03*
X255500Y366000D02*
D03*
X616500Y378000D02*
D03*
X419500Y480500D02*
D03*
X347000Y466500D02*
D03*
X372000Y476000D02*
D03*
X375000Y474000D02*
D03*
X267000Y466000D02*
D03*
X269500Y463500D02*
D03*
X364500Y410500D02*
D03*
X419000Y404000D02*
D03*
X419500Y417500D02*
D03*
X261500Y419500D02*
D03*
X501000Y431000D02*
D03*
X481500Y398500D02*
D03*
Y450500D02*
D03*
X622500Y344000D02*
D03*
X571750Y485000D02*
D03*
X327000Y336500D02*
D03*
X461500Y349000D02*
D03*
X485000Y343000D02*
D03*
X250000Y497500D02*
D03*
X507000Y423000D02*
D03*
X445000Y390000D02*
D03*
X335500Y330000D02*
D03*
X251000Y370000D02*
D03*
X225157Y383157D02*
D03*
X305000Y385000D02*
D03*
X284500Y402500D02*
D03*
X297500Y375000D02*
D03*
X301000Y402500D02*
D03*
X307500Y420500D02*
D03*
X310000Y423000D02*
D03*
X335000Y424000D02*
D03*
X305000Y400000D02*
D03*
X373500Y370500D02*
D03*
X386000Y371500D02*
D03*
X335500Y364000D02*
D03*
X351343Y466000D02*
D03*
X508000Y334500D02*
D03*
X479000Y328000D02*
D03*
X424638Y401000D02*
D03*
X427500Y391500D02*
D03*
X453500Y383500D02*
D03*
X428000Y445000D02*
D03*
Y421500D02*
D03*
X431500Y395000D02*
D03*
X347571Y324571D02*
D03*
X351000Y347000D02*
D03*
X354500Y348000D02*
D03*
X358000Y349000D02*
D03*
X596500Y376296D02*
D03*
X361500Y350000D02*
D03*
X234500Y428000D02*
D03*
X368500Y474500D02*
D03*
X343000Y456000D02*
D03*
X343500Y460000D02*
D03*
X365000Y476000D02*
D03*
X341000Y437500D02*
D03*
X458500Y428000D02*
D03*
X512500Y507500D02*
D03*
X277500Y480000D02*
D03*
X266500Y411000D02*
D03*
X256000Y411500D02*
D03*
X267000Y426000D02*
D03*
X252500Y428500D02*
D03*
X239000Y375000D02*
D03*
X234000D02*
D03*
X420000Y425500D02*
D03*
X330000Y502500D02*
D03*
X421500Y372500D02*
D03*
X409000Y372000D02*
D03*
X361000Y457500D02*
D03*
X461000Y421500D02*
D03*
X463000Y466500D02*
D03*
Y450500D02*
D03*
X467500Y426000D02*
D03*
X462000Y415500D02*
D03*
X460000Y393000D02*
D03*
Y404000D02*
D03*
X377705Y454205D02*
D03*
X366500Y400000D02*
D03*
X364000Y423500D02*
D03*
Y441500D02*
D03*
X367669Y447169D02*
D03*
X368000Y459000D02*
D03*
X381500Y459028D02*
D03*
X399500Y459000D02*
D03*
X409295Y454205D02*
D03*
X412500Y459000D02*
D03*
X424500Y451000D02*
D03*
X414000Y393500D02*
D03*
X405358Y393358D02*
D03*
X389610Y393390D02*
D03*
X381736Y397764D02*
D03*
X372000Y393500D02*
D03*
X310000Y407500D02*
D03*
X306500Y407000D02*
D03*
X328500Y395000D02*
D03*
X309000Y392500D02*
D03*
X342000Y415000D02*
D03*
X335000Y402500D02*
D03*
X347299Y407406D02*
D03*
X349000Y399250D02*
D03*
X347000Y404000D02*
D03*
X326000Y385000D02*
D03*
X387500Y341500D02*
D03*
X385000Y344000D02*
D03*
X382500Y346500D02*
D03*
X380000Y349000D02*
D03*
X377500Y351500D02*
D03*
X375000Y354000D02*
D03*
X372500Y356500D02*
D03*
X422374Y341500D02*
D03*
X430248Y343500D02*
D03*
X426311Y343000D02*
D03*
X434185Y345000D02*
D03*
X442059Y348000D02*
D03*
X438122Y347000D02*
D03*
X446000Y349500D02*
D03*
X450000Y351000D02*
D03*
X454000Y352500D02*
D03*
X457903Y353596D02*
D03*
X465681Y355000D02*
D03*
X469500Y356500D02*
D03*
X473500Y357500D02*
D03*
X333894Y451606D02*
D03*
X331500Y455000D02*
D03*
X269500Y458500D02*
D03*
X266000Y460500D02*
D03*
X551500Y441000D02*
D03*
X549862Y444095D02*
D03*
X547000Y446500D02*
D03*
X507000Y498500D02*
D03*
X340500Y472500D02*
D03*
X328000Y481500D02*
D03*
X337000Y509500D02*
D03*
X239500Y508500D02*
D03*
X206500Y482500D02*
D03*
X218000Y473000D02*
D03*
X227000Y455500D02*
D03*
X214000Y373500D02*
D03*
X230500Y346000D02*
D03*
X261500Y345500D02*
D03*
X323500Y307500D02*
D03*
X356000D02*
D03*
X376000Y325500D02*
D03*
X362500Y343000D02*
D03*
X446000D02*
D03*
X408209Y330000D02*
D03*
X599000Y308500D02*
D03*
X537500Y309000D02*
D03*
X539000Y329000D02*
D03*
X535500Y359500D02*
D03*
X534500Y393500D02*
D03*
X528500Y448000D02*
D03*
X515500Y474500D02*
D03*
X499500Y492500D02*
D03*
Y511000D02*
D03*
X448500D02*
D03*
X412500D02*
D03*
X390000Y479500D02*
D03*
X379500Y511000D02*
D03*
X366500Y497500D02*
D03*
X398000D02*
D03*
X448500Y499000D02*
D03*
X490000D02*
D03*
X591500Y509500D02*
D03*
X622500Y480500D02*
D03*
X544000Y465000D02*
D03*
X575000Y421000D02*
D03*
X622500Y442500D02*
D03*
Y389500D02*
D03*
X561500Y358500D02*
D03*
X500000Y383500D02*
D03*
X357000Y378000D02*
D03*
X322000Y470500D02*
D03*
X308500D02*
D03*
X284500D02*
D03*
X285500Y455000D02*
D03*
X323000Y448500D02*
D03*
X312500D02*
D03*
X410500Y340000D02*
D03*
X500000Y423000D02*
D03*
D29*
X389413Y419413D02*
D03*
X394138D02*
D03*
X398862D02*
D03*
X403587D02*
D03*
X389413Y424138D02*
D03*
X394138Y424138D02*
D03*
X398862D02*
D03*
X403587D02*
D03*
X389413Y428862D02*
D03*
X394138D02*
D03*
X398862D02*
D03*
X403587D02*
D03*
X389413Y433587D02*
D03*
X394138D02*
D03*
X398862D02*
D03*
X403587D02*
D03*
D30*
X623500Y384250D02*
D03*
Y377750D02*
D03*
X279000Y344250D02*
D03*
Y337750D02*
D03*
X273500D02*
D03*
Y344250D02*
D03*
X622500Y340750D02*
D03*
Y334250D02*
D03*
X613500Y356250D02*
D03*
Y349750D02*
D03*
X608500Y356250D02*
D03*
Y349750D02*
D03*
X603500Y368750D02*
D03*
Y362250D02*
D03*
X293500Y474250D02*
D03*
Y467750D02*
D03*
X299500Y417250D02*
D03*
Y423750D02*
D03*
X309500Y417250D02*
D03*
Y410750D02*
D03*
X304500D02*
D03*
Y417250D02*
D03*
X299500Y474250D02*
D03*
Y467750D02*
D03*
D31*
X451350Y450500D02*
D03*
X457650D02*
D03*
X618850Y349500D02*
D03*
X625150D02*
D03*
X618850Y356000D02*
D03*
X625150D02*
D03*
X596350Y349500D02*
D03*
X602650D02*
D03*
X596350Y356000D02*
D03*
X602650D02*
D03*
X552850Y461500D02*
D03*
X559150D02*
D03*
X471150Y330000D02*
D03*
X464850D02*
D03*
X508150D02*
D03*
X501850D02*
D03*
X449350Y388000D02*
D03*
X455650D02*
D03*
X592650Y396500D02*
D03*
X586350D02*
D03*
X449350Y404000D02*
D03*
X455650D02*
D03*
X449350Y393000D02*
D03*
X455650D02*
D03*
X436350Y332000D02*
D03*
X442650D02*
D03*
X344650Y447500D02*
D03*
X338350D02*
D03*
X344650Y423500D02*
D03*
X338350D02*
D03*
X343150Y464500D02*
D03*
X336850D02*
D03*
X259150Y386000D02*
D03*
X252850D02*
D03*
X234850Y441500D02*
D03*
X241150D02*
D03*
D32*
X608250Y368500D02*
D03*
X614750D02*
D03*
Y362000D02*
D03*
X608250D02*
D03*
X455250Y428000D02*
D03*
X448750D02*
D03*
X340750Y433500D02*
D03*
X347250D02*
D03*
X464750Y336000D02*
D03*
X471250D02*
D03*
X305250Y474500D02*
D03*
X311750D02*
D03*
X314750Y413500D02*
D03*
X321250D02*
D03*
X314750Y434500D02*
D03*
X321250D02*
D03*
X314750Y427500D02*
D03*
X321250D02*
D03*
X571750Y461500D02*
D03*
X565250D02*
D03*
X592250Y356000D02*
D03*
X585750D02*
D03*
X455750Y383500D02*
D03*
X449250D02*
D03*
X309250Y343000D02*
D03*
X315750D02*
D03*
X320750D02*
D03*
X327250D02*
D03*
X366750Y480500D02*
D03*
X373250D02*
D03*
X252750Y391000D02*
D03*
X259250D02*
D03*
X314750Y420500D02*
D03*
X321250D02*
D03*
X302750Y406000D02*
D03*
X296250D02*
D03*
D33*
X574000Y349350D02*
D03*
Y355650D02*
D03*
X277000Y389850D02*
D03*
Y396150D02*
D03*
X528500Y427150D02*
D03*
Y420850D02*
D03*
X451500Y421650D02*
D03*
Y415350D02*
D03*
X401000Y313350D02*
D03*
Y319650D02*
D03*
X415500Y323150D02*
D03*
Y316850D02*
D03*
X457500Y323150D02*
D03*
Y316850D02*
D03*
X494000Y323650D02*
D03*
Y317350D02*
D03*
X377500Y480350D02*
D03*
Y486650D02*
D03*
X362000Y480350D02*
D03*
Y486650D02*
D03*
D34*
X604500Y334563D02*
D03*
Y342437D02*
D03*
X613500Y334563D02*
D03*
Y342437D02*
D03*
X408000Y321437D02*
D03*
Y313563D02*
D03*
X479000Y322437D02*
D03*
Y314563D02*
D03*
X516500Y323437D02*
D03*
Y315563D02*
D03*
X569500Y367563D02*
D03*
Y375437D02*
D03*
D35*
X418773Y375227D02*
D03*
X423227Y370773D02*
D03*
X406273Y374727D02*
D03*
X410727Y370273D02*
D03*
X383273Y374227D02*
D03*
X387727Y369773D02*
D03*
X370773Y372727D02*
D03*
X375227Y368273D02*
D03*
D36*
X389000Y324709D02*
D03*
Y313685D02*
D03*
X440500Y313791D02*
D03*
Y324815D02*
D03*
D37*
X428740Y313276D02*
D03*
X425000D02*
D03*
X421260D02*
D03*
Y322724D02*
D03*
X428740D02*
D03*
X508240Y314276D02*
D03*
X504500D02*
D03*
X500760D02*
D03*
Y323724D02*
D03*
X508240D02*
D03*
D38*
X428437Y331500D02*
D03*
X420563D02*
D03*
D39*
X416773Y477773D02*
D03*
X421227Y482227D02*
D03*
D40*
X276468Y377000D02*
D03*
X272532D02*
D03*
X266469D02*
D03*
X262531D02*
D03*
D41*
X457000Y415350D02*
D03*
Y421650D02*
D03*
D42*
Y416532D02*
D03*
Y420469D02*
D03*
D43*
Y418500D02*
D03*
D44*
X341579Y490921D02*
D03*
X351421D02*
D03*
Y481079D02*
D03*
X341579D02*
D03*
D45*
X272453Y372240D02*
D03*
Y364957D02*
D03*
X266350D02*
D03*
Y372240D02*
D03*
D46*
X244646Y380000D02*
D03*
Y375000D02*
D03*
Y370000D02*
D03*
Y365000D02*
D03*
X225157D02*
D03*
Y370000D02*
D03*
Y375000D02*
D03*
Y380217D02*
D03*
X315551Y385000D02*
D03*
Y390000D02*
D03*
Y395000D02*
D03*
Y400000D02*
D03*
X334449Y385000D02*
D03*
Y390000D02*
D03*
Y395000D02*
D03*
Y400000D02*
D03*
D47*
X271827Y403055D02*
D03*
X269858D02*
D03*
X267890D02*
D03*
X265921D02*
D03*
X263953D02*
D03*
X261984D02*
D03*
X260016D02*
D03*
X258047D02*
D03*
X256079D02*
D03*
X254110D02*
D03*
X252142D02*
D03*
X250173D02*
D03*
Y434945D02*
D03*
X252142D02*
D03*
X254110D02*
D03*
X256079D02*
D03*
X258047D02*
D03*
X260016D02*
D03*
X261984D02*
D03*
X263953D02*
D03*
X265921D02*
D03*
X267890D02*
D03*
X269858D02*
D03*
X271827D02*
D03*
X362051Y468035D02*
D03*
X364020D02*
D03*
X365988D02*
D03*
X367957D02*
D03*
X369925D02*
D03*
X371894D02*
D03*
X373862D02*
D03*
X375831D02*
D03*
X377799D02*
D03*
X379768D02*
D03*
X381736D02*
D03*
X383705D02*
D03*
X385673D02*
D03*
X387642D02*
D03*
X389610D02*
D03*
X391579D02*
D03*
X393547D02*
D03*
X395516D02*
D03*
X397484D02*
D03*
X399453D02*
D03*
X401421D02*
D03*
X403390D02*
D03*
X405358D02*
D03*
X407327D02*
D03*
X409295D02*
D03*
X411264D02*
D03*
X413232D02*
D03*
X415201D02*
D03*
X417169D02*
D03*
X419138D02*
D03*
X421106D02*
D03*
X423075D02*
D03*
X425043D02*
D03*
X427012D02*
D03*
X428980D02*
D03*
X430949D02*
D03*
Y384965D02*
D03*
X428980D02*
D03*
X427012D02*
D03*
X425043D02*
D03*
X423075D02*
D03*
X421106D02*
D03*
X419138D02*
D03*
X417169D02*
D03*
X415201D02*
D03*
X413232D02*
D03*
X411264D02*
D03*
X409295D02*
D03*
X407327D02*
D03*
X405358D02*
D03*
X403390D02*
D03*
X401421D02*
D03*
X399453D02*
D03*
X397484D02*
D03*
X395516D02*
D03*
X393547D02*
D03*
X391579D02*
D03*
X389610D02*
D03*
X387642D02*
D03*
X385673D02*
D03*
X383705D02*
D03*
X381736D02*
D03*
X379768D02*
D03*
X377799D02*
D03*
X375831D02*
D03*
X373862D02*
D03*
X371894D02*
D03*
X369925D02*
D03*
X367957D02*
D03*
X365988D02*
D03*
X364020D02*
D03*
X362051D02*
D03*
D48*
X245055Y408173D02*
D03*
Y410142D02*
D03*
Y412110D02*
D03*
Y414079D02*
D03*
Y416047D02*
D03*
Y418016D02*
D03*
Y419984D02*
D03*
Y421953D02*
D03*
Y423921D02*
D03*
Y425890D02*
D03*
Y427858D02*
D03*
Y429827D02*
D03*
X276945D02*
D03*
Y427858D02*
D03*
Y425890D02*
D03*
Y423921D02*
D03*
Y421953D02*
D03*
Y419984D02*
D03*
Y418016D02*
D03*
Y416047D02*
D03*
Y414079D02*
D03*
Y412110D02*
D03*
Y410142D02*
D03*
Y408173D02*
D03*
X354965Y392051D02*
D03*
Y394020D02*
D03*
Y395988D02*
D03*
Y397957D02*
D03*
Y399925D02*
D03*
Y401894D02*
D03*
Y403862D02*
D03*
Y405831D02*
D03*
Y407799D02*
D03*
Y409768D02*
D03*
Y411736D02*
D03*
Y413705D02*
D03*
Y415673D02*
D03*
Y417642D02*
D03*
Y419610D02*
D03*
Y421579D02*
D03*
Y423547D02*
D03*
Y425516D02*
D03*
Y427484D02*
D03*
Y429453D02*
D03*
Y431421D02*
D03*
Y433390D02*
D03*
Y435358D02*
D03*
Y437327D02*
D03*
Y439295D02*
D03*
Y441264D02*
D03*
Y443232D02*
D03*
Y445201D02*
D03*
Y447169D02*
D03*
Y449138D02*
D03*
Y451106D02*
D03*
Y453075D02*
D03*
Y455043D02*
D03*
Y457012D02*
D03*
Y458980D02*
D03*
Y460949D02*
D03*
X438035D02*
D03*
Y458980D02*
D03*
Y457012D02*
D03*
Y455043D02*
D03*
Y453075D02*
D03*
Y451106D02*
D03*
Y449138D02*
D03*
Y447169D02*
D03*
Y445201D02*
D03*
Y443232D02*
D03*
Y441264D02*
D03*
Y439295D02*
D03*
Y437327D02*
D03*
Y435358D02*
D03*
Y433390D02*
D03*
Y431421D02*
D03*
Y429453D02*
D03*
Y427484D02*
D03*
Y425516D02*
D03*
Y423547D02*
D03*
Y421579D02*
D03*
Y419610D02*
D03*
Y417642D02*
D03*
Y415673D02*
D03*
Y413705D02*
D03*
Y411736D02*
D03*
Y409768D02*
D03*
Y407799D02*
D03*
Y405831D02*
D03*
Y403862D02*
D03*
Y401894D02*
D03*
Y399925D02*
D03*
Y397957D02*
D03*
Y395988D02*
D03*
Y394020D02*
D03*
Y392051D02*
D03*
D49*
X474756Y391429D02*
D03*
Y394579D02*
D03*
Y397728D02*
D03*
Y400878D02*
D03*
Y404028D02*
D03*
Y407177D02*
D03*
Y410327D02*
D03*
Y413476D02*
D03*
Y416626D02*
D03*
Y419776D02*
D03*
Y422925D02*
D03*
Y426075D02*
D03*
Y429224D02*
D03*
Y432374D02*
D03*
Y435524D02*
D03*
Y438673D02*
D03*
Y441823D02*
D03*
Y444972D02*
D03*
Y448122D02*
D03*
Y451272D02*
D03*
Y454421D02*
D03*
Y457571D02*
D03*
X519244Y391429D02*
D03*
Y394579D02*
D03*
Y397728D02*
D03*
Y400878D02*
D03*
Y404028D02*
D03*
Y407177D02*
D03*
Y410327D02*
D03*
Y413476D02*
D03*
Y416626D02*
D03*
Y419776D02*
D03*
Y422925D02*
D03*
Y426075D02*
D03*
Y429224D02*
D03*
Y432374D02*
D03*
Y435524D02*
D03*
Y438673D02*
D03*
Y441823D02*
D03*
Y444972D02*
D03*
Y448122D02*
D03*
Y451272D02*
D03*
Y454421D02*
D03*
Y457571D02*
D03*
D50*
X396500Y426500D02*
D03*
D51*
X467500Y323224D02*
D03*
X471240D02*
D03*
X463760D02*
D03*
Y313776D02*
D03*
X467500D02*
D03*
X471240D02*
D03*
D52*
X581284Y367657D02*
D03*
X586500D02*
D03*
X591500D02*
D03*
X596500D02*
D03*
Y387146D02*
D03*
X591500D02*
D03*
X586500D02*
D03*
X581500D02*
D03*
D53*
X341650Y346382D02*
D03*
X335350D02*
D03*
Y356618D02*
D03*
X341650D02*
D03*
D54*
X335350Y349925D02*
D03*
X341650D02*
D03*
X335350Y353075D02*
D03*
X341650Y353075D02*
D03*
D55*
X315874Y348760D02*
D03*
Y356240D02*
D03*
X325126Y352500D02*
D03*
D56*
X316429Y511055D02*
D03*
Y489402D02*
D03*
X282177D02*
D03*
Y511055D02*
D03*
D57*
X296350Y485465D02*
D03*
X299500D02*
D03*
X302650D02*
D03*
X305799D02*
D03*
X293201D02*
D03*
D58*
X552673Y472847D02*
D03*
X524327D02*
D03*
Y503161D02*
D03*
X552673Y513791D02*
D03*
D59*
X564500Y439701D02*
D03*
Y452299D02*
D03*
D60*
X290000Y324500D02*
X361000D01*
X401000Y308000D02*
X408000D01*
X377500D02*
X401000D01*
X361000Y324500D02*
X377500Y308000D01*
X408000D02*
X508240D01*
X283000Y317500D02*
X290000Y324500D01*
X269500Y322000D02*
X275126Y316374D01*
X248500Y322000D02*
X269500D01*
X243000Y316500D02*
X248500Y322000D01*
X275126Y311000D02*
Y316374D01*
X243000Y311000D02*
Y316500D01*
X283000Y311000D02*
Y317500D01*
M02*
