%FSLAX25Y25*%
%MOIN*%
G70*
G01*
G75*
G04 Layer_Color=32896*
%ADD10C,0.02362*%
%ADD11C,0.02063*%
%ADD12R,0.01969X0.07874*%
%ADD13C,0.00984*%
%ADD14C,0.01000*%
%ADD15C,0.00787*%
%ADD16C,0.01969*%
%ADD17C,0.01378*%
%ADD18C,0.01181*%
%ADD19C,0.06000*%
%ADD20R,0.06000X0.06000*%
%ADD21C,0.05906*%
%ADD22R,0.05906X0.05906*%
%ADD23O,0.07874X0.11811*%
%ADD24C,0.09843*%
%ADD25C,0.07874*%
%ADD26R,0.05906X0.05906*%
%ADD27R,0.04724X0.06693*%
%ADD28C,0.02756*%
%ADD29C,0.02598*%
%ADD30R,0.03543X0.02362*%
%ADD31R,0.02756X0.03543*%
%ADD32R,0.02362X0.03543*%
%ADD33R,0.03543X0.02756*%
%ADD34R,0.05512X0.03937*%
G04:AMPARAMS|DCode=35|XSize=27.56mil|YSize=35.43mil|CornerRadius=0mil|HoleSize=0mil|Usage=FLASHONLY|Rotation=315.000|XOffset=0mil|YOffset=0mil|HoleType=Round|Shape=Rectangle|*
%AMROTATEDRECTD35*
4,1,4,-0.02227,-0.00278,0.00278,0.02227,0.02227,0.00278,-0.00278,-0.02227,-0.02227,-0.00278,0.0*
%
%ADD35ROTATEDRECTD35*%

%ADD36R,0.10236X0.04724*%
%ADD37R,0.02559X0.03543*%
%ADD38R,0.03937X0.05512*%
G04:AMPARAMS|DCode=39|XSize=27.56mil|YSize=35.43mil|CornerRadius=0mil|HoleSize=0mil|Usage=FLASHONLY|Rotation=45.000|XOffset=0mil|YOffset=0mil|HoleType=Round|Shape=Rectangle|*
%AMROTATEDRECTD39*
4,1,4,0.00278,-0.02227,-0.02227,0.00278,-0.00278,0.02227,0.02227,-0.00278,0.00278,-0.02227,0.0*
%
%ADD39ROTATEDRECTD39*%

%ADD40R,0.01575X0.02362*%
%ADD41R,0.02362X0.01575*%
%ADD42R,0.03937X0.00787*%
%ADD43R,0.03937X0.01969*%
%ADD44R,0.06299X0.05118*%
%ADD45R,0.03543X0.03937*%
%ADD46O,0.08661X0.02362*%
%ADD47O,0.01181X0.07087*%
%ADD48O,0.07087X0.01181*%
%ADD49O,0.05906X0.01969*%
%ADD50R,0.16929X0.16929*%
%ADD51R,0.02559X0.04331*%
%ADD52O,0.02362X0.08661*%
%ADD53R,0.01969X0.01969*%
%ADD54R,0.01969X0.01575*%
%ADD55R,0.05709X0.03150*%
%ADD56R,0.07087X0.09843*%
%ADD57R,0.01969X0.07874*%
%ADD58R,0.07874X0.07874*%
%ADD59R,0.06299X0.03937*%
%ADD60C,0.03937*%
%ADD61O,0.04724X0.02362*%
%ADD62C,0.02863*%
%ADD63R,0.02769X0.08674*%
%ADD64C,0.04331*%
%ADD65C,0.06800*%
%ADD66R,0.06800X0.06800*%
%ADD67C,0.00800*%
%ADD68C,0.06706*%
%ADD69R,0.06706X0.06706*%
%ADD70O,0.08674X0.12611*%
%ADD71C,0.10642*%
%ADD72C,0.08674*%
%ADD73R,0.06706X0.06706*%
%ADD74R,0.05524X0.07493*%
%ADD75R,0.04343X0.03162*%
%ADD76R,0.03556X0.04343*%
%ADD77R,0.03162X0.04343*%
%ADD78R,0.04343X0.03556*%
%ADD79R,0.06312X0.04737*%
G04:AMPARAMS|DCode=80|XSize=35.56mil|YSize=43.43mil|CornerRadius=0mil|HoleSize=0mil|Usage=FLASHONLY|Rotation=315.000|XOffset=0mil|YOffset=0mil|HoleType=Round|Shape=Rectangle|*
%AMROTATEDRECTD80*
4,1,4,-0.02793,-0.00278,0.00278,0.02793,0.02793,0.00278,-0.00278,-0.02793,-0.02793,-0.00278,0.0*
%
%ADD80ROTATEDRECTD80*%

%ADD81R,0.11036X0.05524*%
%ADD82R,0.03359X0.04343*%
%ADD83R,0.04737X0.06312*%
G04:AMPARAMS|DCode=84|XSize=35.56mil|YSize=43.43mil|CornerRadius=0mil|HoleSize=0mil|Usage=FLASHONLY|Rotation=45.000|XOffset=0mil|YOffset=0mil|HoleType=Round|Shape=Rectangle|*
%AMROTATEDRECTD84*
4,1,4,0.00278,-0.02793,-0.02793,0.00278,-0.00278,0.02793,0.02793,-0.00278,0.00278,-0.02793,0.0*
%
%ADD84ROTATEDRECTD84*%

%ADD85R,0.02375X0.03162*%
%ADD86R,0.03162X0.02375*%
%ADD87R,0.04737X0.01587*%
%ADD88R,0.04737X0.02769*%
%ADD89R,0.07099X0.05918*%
%ADD90R,0.04343X0.04737*%
%ADD91O,0.09461X0.03162*%
%ADD92O,0.01981X0.07887*%
%ADD93O,0.07887X0.01981*%
%ADD94O,0.06706X0.02769*%
%ADD95R,0.17729X0.17729*%
%ADD96R,0.03359X0.05131*%
%ADD97O,0.03162X0.09461*%
%ADD98R,0.02769X0.02769*%
%ADD99R,0.02769X0.02375*%
%ADD100R,0.06509X0.03950*%
%ADD101R,0.07887X0.10642*%
%ADD102R,0.02769X0.08674*%
%ADD103R,0.08674X0.08674*%
%ADD104R,0.07099X0.04737*%
%ADD105R,0.00800X0.00800*%
%ADD106C,0.01575*%
D10*
X269071Y412110D02*
G03*
X269071Y412110I-1181J0D01*
G01*
X511961Y456980D02*
G03*
X511961Y456980I-1181J0D01*
G01*
X365201Y394020D02*
G03*
X365201Y394020I-1181J0D01*
G01*
D13*
X432677Y313276D02*
G03*
X432677Y313276I-492J0D01*
G01*
X245138Y383543D02*
G03*
X245138Y383543I-492J0D01*
G01*
X275075Y403055D02*
G03*
X275075Y403055I-492J0D01*
G01*
X519736Y460720D02*
G03*
X519736Y460720I-492J0D01*
G01*
X355457Y389295D02*
G03*
X355457Y389295I-492J0D01*
G01*
X512177Y314276D02*
G03*
X512177Y314276I-492J0D01*
G01*
X475177Y313776D02*
G03*
X475177Y313776I-492J0D01*
G01*
X578449Y387146D02*
G03*
X578449Y387146I-492J0D01*
G01*
X316366Y345413D02*
G03*
X316366Y345413I-492J0D01*
G01*
X334941Y403346D02*
G03*
X334941Y403346I-492J0D01*
G01*
D14*
X551938Y323956D02*
G03*
X595497Y323956I21780J-16236D01*
G01*
X577000Y361500D02*
X596000D01*
X596500D01*
X599000Y359000D01*
X612000Y372500D02*
Y385000D01*
X383488Y316638D02*
X394512D01*
X337051Y484622D02*
Y487378D01*
X355949D01*
Y484622D02*
Y487378D01*
X337051Y484622D02*
X355949D01*
X267252Y320449D02*
X298748D01*
X267252Y301551D02*
Y320449D01*
Y301551D02*
X298748D01*
Y320449D01*
X595371Y323956D02*
Y344728D01*
X552064Y323956D02*
Y344728D01*
X595371D01*
X284146Y520110D02*
X314461D01*
Y484283D02*
Y520110D01*
X284146Y484283D02*
X314461D01*
X284146D02*
Y520110D01*
X530626Y518122D02*
Y524028D01*
X546374D01*
Y518122D02*
Y524028D01*
X548343Y470878D02*
Y518122D01*
X528657D02*
X548343D01*
X528657Y470878D02*
Y518122D01*
Y470878D02*
X548343D01*
X434988Y321862D02*
X446012D01*
X281000Y349500D02*
Y355498D01*
X278001D01*
X277001Y354498D01*
Y352499D01*
X278001Y351499D01*
X281000D01*
X279001D02*
X277001Y349500D01*
X271003D02*
X275002D01*
X271003Y353499D01*
Y354498D01*
X272003Y355498D01*
X274002D01*
X275002Y354498D01*
X269004Y350500D02*
X268004Y349500D01*
X266005D01*
X265005Y350500D01*
Y354498D01*
X266005Y355498D01*
X268004D01*
X269004Y354498D01*
Y353499D01*
X268004Y352499D01*
X265005D01*
X271500Y332500D02*
Y326502D01*
X274499D01*
X275499Y327502D01*
Y329501D01*
X274499Y330501D01*
X271500D01*
X273499D02*
X275499Y332500D01*
X277498Y327502D02*
X278498Y326502D01*
X280497D01*
X281497Y327502D01*
Y328501D01*
X280497Y329501D01*
X279497D01*
X280497D01*
X281497Y330501D01*
Y331500D01*
X280497Y332500D01*
X278498D01*
X277498Y331500D01*
X283496Y327502D02*
X284496Y326502D01*
X286495D01*
X287495Y327502D01*
Y331500D01*
X286495Y332500D01*
X284496D01*
X283496Y331500D01*
Y327502D01*
D15*
X620941Y375882D02*
Y386118D01*
X626059D01*
Y375882D02*
Y386118D01*
X620941Y375882D02*
X626059D01*
X276441Y335882D02*
Y346118D01*
X281559D01*
Y335882D02*
Y346118D01*
X276441Y335882D02*
X281559D01*
X276059D02*
Y346118D01*
X270941Y335882D02*
X276059D01*
X270941D02*
Y346118D01*
X276059D01*
X449382Y448138D02*
Y452862D01*
Y448138D02*
X459618D01*
Y452862D01*
X449382D02*
X459618D01*
X619941Y332382D02*
Y342618D01*
X625059D01*
Y332382D02*
Y342618D01*
X619941Y332382D02*
X625059D01*
X610941Y347882D02*
Y358118D01*
X616059D01*
Y347882D02*
Y358118D01*
X610941Y347882D02*
X616059D01*
X606382Y365941D02*
X616618D01*
X606382D02*
Y371059D01*
X616618D01*
Y365941D02*
Y371059D01*
X606382Y364559D02*
X616618D01*
Y359441D02*
Y364559D01*
X606382Y359441D02*
X616618D01*
X606382D02*
Y364559D01*
X616882Y347138D02*
Y351862D01*
Y347138D02*
X627118D01*
Y351862D01*
X616882D02*
X627118D01*
X616882Y353638D02*
Y358362D01*
Y353638D02*
X627118D01*
Y358362D01*
X616882D02*
X627118D01*
X446882Y430559D02*
X457118D01*
Y425441D02*
Y430559D01*
X446882Y425441D02*
X457118D01*
X446882D02*
Y430559D01*
X338882Y430941D02*
X349118D01*
X338882D02*
Y436059D01*
X349118D01*
Y430941D02*
Y436059D01*
X462882Y333441D02*
X473118D01*
X462882D02*
Y338559D01*
X473118D01*
Y333441D02*
Y338559D01*
X605941Y347882D02*
Y358118D01*
X611059D01*
Y347882D02*
Y358118D01*
X605941Y347882D02*
X611059D01*
X600941Y360382D02*
Y370618D01*
X606059D01*
Y360382D02*
Y370618D01*
X600941Y360382D02*
X606059D01*
X594382Y347138D02*
Y351862D01*
Y347138D02*
X604618D01*
Y351862D01*
X594382D02*
X604618D01*
X594382Y353638D02*
Y358362D01*
Y353638D02*
X604618D01*
Y358362D01*
X594382D02*
X604618D01*
X576362Y347382D02*
Y357618D01*
X571638Y347382D02*
X576362D01*
X571638D02*
Y357618D01*
X576362D01*
X550882Y459138D02*
X561118D01*
X550882D02*
Y463862D01*
X561118D01*
Y459138D02*
Y463862D01*
X462882Y332362D02*
X473118D01*
Y327638D02*
Y332362D01*
X462882Y327638D02*
X473118D01*
X462882D02*
Y332362D01*
X499882D02*
X510118D01*
Y327638D02*
Y332362D01*
X499882Y327638D02*
X510118D01*
X499882D02*
Y332362D01*
X447382Y385638D02*
Y390362D01*
Y385638D02*
X457618D01*
Y390362D01*
X447382D02*
X457618D01*
X290941Y476118D02*
X296059D01*
X290941Y465882D02*
Y476118D01*
Y465882D02*
X296059D01*
Y476118D01*
X303382Y471941D02*
Y477059D01*
Y471941D02*
X313618D01*
Y477059D01*
X303382D02*
X313618D01*
X296941Y415382D02*
X302059D01*
Y425618D01*
X296941D02*
X302059D01*
X296941Y415382D02*
Y425618D01*
X306941Y419118D02*
X312059D01*
X306941Y408882D02*
Y419118D01*
Y408882D02*
X312059D01*
Y419118D01*
X312882Y410941D02*
Y416059D01*
Y410941D02*
X323118D01*
Y416059D01*
X312882D02*
X323118D01*
X312882Y431941D02*
Y437059D01*
Y431941D02*
X323118D01*
Y437059D01*
X312882D02*
X323118D01*
X312882Y424941D02*
Y430059D01*
Y424941D02*
X323118D01*
Y430059D01*
X312882D02*
X323118D01*
X279362Y387882D02*
Y398118D01*
X274638Y387882D02*
X279362D01*
X274638D02*
Y398118D01*
X279362D01*
X573618Y458941D02*
Y464059D01*
X563382D02*
X573618D01*
X563382Y458941D02*
Y464059D01*
Y458941D02*
X573618D01*
X584382Y398862D02*
X594618D01*
Y394138D02*
Y398862D01*
X584382Y394138D02*
X594618D01*
X584382D02*
Y398862D01*
X608043Y331807D02*
Y345193D01*
X600957Y331807D02*
X608043D01*
X600957D02*
Y345193D01*
X608043D01*
X617043Y331807D02*
Y345193D01*
X609957Y331807D02*
X617043D01*
X609957D02*
Y345193D01*
X617043D01*
X594118Y353441D02*
Y358559D01*
X583882D02*
X594118D01*
X583882Y353441D02*
Y358559D01*
Y353441D02*
X594118D01*
X526138Y429118D02*
X530862D01*
X526138Y418882D02*
Y429118D01*
Y418882D02*
X530862D01*
Y429118D01*
X449138Y413382D02*
Y423618D01*
X453862D01*
Y413382D02*
Y423618D01*
X449138Y413382D02*
X453862D01*
X447382Y401638D02*
Y406362D01*
Y401638D02*
X457618D01*
Y406362D01*
X447382D02*
X457618D01*
X447382Y390638D02*
Y395362D01*
Y390638D02*
X457618D01*
Y395362D01*
X447382D02*
X457618D01*
X447382Y386059D02*
X457618D01*
Y380941D02*
Y386059D01*
X447382Y380941D02*
X457618D01*
X447382D02*
Y386059D01*
X415711Y374949D02*
X419051Y378289D01*
X415711Y374949D02*
X422949Y367711D01*
X426289Y371051D01*
X419051Y378289D02*
X426289Y371051D01*
X403211Y374449D02*
X406551Y377789D01*
X403211Y374449D02*
X410449Y367211D01*
X413789Y370551D01*
X406551Y377789D02*
X413789Y370551D01*
X380211Y373949D02*
X383551Y377289D01*
X380211Y373949D02*
X387449Y366711D01*
X390789Y370051D01*
X383551Y377289D02*
X390789Y370051D01*
X367711Y372449D02*
X371051Y375789D01*
X367711Y372449D02*
X374949Y365211D01*
X378289Y368551D01*
X371051Y375789D02*
X378289Y368551D01*
X383095Y310732D02*
Y327661D01*
Y310732D02*
X394905D01*
X383095Y327661D02*
X394905D01*
Y310732D02*
Y327661D01*
X403362Y311382D02*
Y321618D01*
X398638Y311382D02*
X403362D01*
X398638D02*
Y321618D01*
X403362D01*
X404457Y324193D02*
X411543D01*
X404457Y310807D02*
Y324193D01*
Y310807D02*
X411543D01*
Y324193D01*
X413138Y325118D02*
X417862D01*
X413138Y314882D02*
Y325118D01*
Y314882D02*
X417862D01*
Y325118D01*
X431102Y316622D02*
Y319378D01*
X418898Y316622D02*
Y319378D01*
Y316622D02*
X431102D01*
X418898Y319378D02*
X431102D01*
X431193Y327957D02*
Y335043D01*
X417807D02*
X431193D01*
X417807Y327957D02*
Y335043D01*
Y327957D02*
X431193D01*
X434382Y329638D02*
Y334362D01*
Y329638D02*
X444618D01*
Y334362D01*
X434382D02*
X444618D01*
X455138Y325118D02*
X459862D01*
X455138Y314882D02*
Y325118D01*
Y314882D02*
X459862D01*
Y325118D01*
X475457Y325193D02*
X482543D01*
X475457Y311807D02*
Y325193D01*
Y311807D02*
X482543D01*
Y325193D01*
X491638Y325618D02*
X496362D01*
X491638Y315382D02*
Y325618D01*
Y315382D02*
X496362D01*
Y325618D01*
X307382Y340441D02*
Y345559D01*
Y340441D02*
X317618D01*
Y345559D01*
X307382D02*
X317618D01*
X318882Y340441D02*
Y345559D01*
Y340441D02*
X329118D01*
Y345559D01*
X318882D02*
X329118D01*
X307059Y408882D02*
Y419118D01*
X301941Y408882D02*
X307059D01*
X301941D02*
Y419118D01*
X307059D01*
X346618Y445138D02*
Y449862D01*
X336382D02*
X346618D01*
X336382Y445138D02*
Y449862D01*
Y445138D02*
X346618D01*
Y421138D02*
Y425862D01*
X336382D02*
X346618D01*
X336382Y421138D02*
Y425862D01*
Y421138D02*
X346618D01*
X296941Y476118D02*
X302059D01*
X296941Y465882D02*
Y476118D01*
Y465882D02*
X302059D01*
Y476118D01*
X345118Y462138D02*
Y466862D01*
X334882D02*
X345118D01*
X334882Y462138D02*
Y466862D01*
Y462138D02*
X345118D01*
X364882Y477941D02*
Y483059D01*
Y477941D02*
X375118D01*
Y483059D01*
X364882D02*
X375118D01*
X375138Y478382D02*
X379862D01*
Y488618D01*
X375138D02*
X379862D01*
X375138Y478382D02*
Y488618D01*
X413711Y478051D02*
X417051Y474711D01*
X424289Y481949D01*
X420949Y485289D02*
X424289Y481949D01*
X413711Y478051D02*
X420949Y485289D01*
X204500Y346500D02*
Y366500D01*
X214500D01*
Y346500D02*
Y366500D01*
X204500Y346500D02*
X214500D01*
X271153Y378772D02*
X277847D01*
Y375228D02*
Y378772D01*
X271153Y375228D02*
X277847D01*
X271153D02*
Y378772D01*
X250882Y388441D02*
X261118D01*
X250882D02*
Y393559D01*
X261118D01*
Y388441D02*
Y393559D01*
Y383638D02*
Y388362D01*
X250882D02*
X261118D01*
X250882Y383638D02*
Y388362D01*
Y383638D02*
X261118D01*
X232882Y439138D02*
X243118D01*
X232882D02*
Y443862D01*
X243118D01*
Y439138D02*
Y443862D01*
X265563Y369287D02*
X273437D01*
Y367909D02*
Y369287D01*
X265563Y367909D02*
X273437D01*
X265563D02*
Y369287D01*
X238150Y363000D02*
Y382185D01*
X231850Y363000D02*
Y382185D01*
X238150D01*
X231850Y363000D02*
X238150D01*
X250173Y408173D02*
X271827D01*
X250173Y429827D02*
X271827D01*
Y408173D02*
Y429827D01*
X250173Y408173D02*
Y429827D01*
X479284Y388083D02*
X514716D01*
X479284Y460917D02*
X514716D01*
X479284Y388083D02*
Y460917D01*
X514716Y388083D02*
Y460917D01*
X360083Y390083D02*
Y462917D01*
X432917Y390083D02*
Y462917D01*
X360083Y390083D02*
X432917D01*
X360083Y462917D02*
X432917D01*
X510602Y317622D02*
Y320378D01*
X498398Y317622D02*
Y320378D01*
Y317622D02*
X510602D01*
X498398Y320378D02*
X510602D01*
X461398Y319484D02*
X473602D01*
X461398Y317516D02*
X473602D01*
X461398D02*
Y319484D01*
X473602Y317516D02*
Y319484D01*
X598500Y374350D02*
Y380650D01*
X579315Y374350D02*
Y380650D01*
Y374350D02*
X598500D01*
X579315Y380650D02*
X598500D01*
X333382Y358390D02*
X343618D01*
Y344610D02*
Y358390D01*
X333382Y344610D02*
X343618D01*
X333382D02*
Y358390D01*
X312882Y417941D02*
Y423059D01*
Y417941D02*
X323118D01*
Y423059D01*
X312882D02*
X323118D01*
X294382Y408559D02*
X304618D01*
Y403441D02*
Y408559D01*
X294382Y403441D02*
X304618D01*
X294382D02*
Y408559D01*
X320106Y346595D02*
X323256D01*
Y349744D01*
X320106Y358405D02*
X323256D01*
Y355256D02*
Y358405D01*
X228000Y316000D02*
X248000D01*
Y306000D02*
Y316000D01*
X228000Y306000D02*
X248000D01*
X228000D02*
Y316000D01*
X359638Y478382D02*
X364362D01*
Y488618D01*
X359638D02*
X364362D01*
X359638Y478382D02*
Y488618D01*
X261154Y378772D02*
X267846D01*
Y375228D02*
Y378772D01*
X261154Y375228D02*
X267846D01*
X261154D02*
Y378772D01*
X512957Y326193D02*
X520043D01*
X512957Y312807D02*
Y326193D01*
Y312807D02*
X520043D01*
Y326193D01*
X560760Y436945D02*
X568240D01*
Y455055D01*
X560760D02*
X568240D01*
X560760Y436945D02*
Y455055D01*
X573043Y364807D02*
Y378193D01*
X565957Y364807D02*
X573043D01*
X565957D02*
Y378193D01*
X573043D01*
X321457Y382658D02*
X328543D01*
X321457Y402343D02*
X328543D01*
X321457Y382658D02*
Y402343D01*
X328543Y382658D02*
Y402343D01*
X446406Y310839D02*
Y327768D01*
X434594D02*
X446406D01*
X434594Y310839D02*
X446406D01*
X434594D02*
Y327768D01*
X620000Y384000D02*
X616064D01*
Y382032D01*
X616720Y381376D01*
X618032D01*
X618688Y382032D01*
Y384000D01*
Y382688D02*
X620000Y381376D01*
X616720Y380064D02*
X616064Y379408D01*
Y378096D01*
X616720Y377440D01*
X617376D01*
X618032Y378096D01*
Y378752D01*
Y378096D01*
X618688Y377440D01*
X619344D01*
X620000Y378096D01*
Y379408D01*
X619344Y380064D01*
X620000Y376129D02*
Y374817D01*
Y375473D01*
X616064D01*
X616720Y376129D01*
X626500Y327000D02*
Y330936D01*
X624532D01*
X623876Y330280D01*
Y328968D01*
X624532Y328312D01*
X626500D01*
X625188D02*
X623876Y327000D01*
X622564D02*
X621252D01*
X621908D01*
Y330936D01*
X622564Y330280D01*
X619284D02*
X618629Y330936D01*
X617317D01*
X616661Y330280D01*
Y327656D01*
X617317Y327000D01*
X618629D01*
X619284Y327656D01*
Y330280D01*
X611000Y386500D02*
X614936D01*
Y388468D01*
X614280Y389124D01*
X612968D01*
X612312Y388468D01*
Y386500D01*
Y387812D02*
X611000Y389124D01*
X614280Y390436D02*
X614936Y391092D01*
Y392404D01*
X614280Y393060D01*
X613624D01*
X612968Y392404D01*
X612312Y393060D01*
X611656D01*
X611000Y392404D01*
Y391092D01*
X611656Y390436D01*
X612312D01*
X612968Y391092D01*
X613624Y390436D01*
X614280D01*
X612968Y391092D02*
Y392404D01*
X607500Y403500D02*
Y399564D01*
X609468D01*
X610124Y400220D01*
Y401532D01*
X609468Y402188D01*
X607500D01*
X608812D02*
X610124Y403500D01*
X611436Y399564D02*
X614060D01*
Y400220D01*
X611436Y402844D01*
Y403500D01*
X607500Y398500D02*
Y394564D01*
X609468D01*
X610124Y395220D01*
Y396532D01*
X609468Y397188D01*
X607500D01*
X608812D02*
X610124Y398500D01*
X614060Y394564D02*
X611436D01*
Y396532D01*
X612748Y395876D01*
X613404D01*
X614060Y396532D01*
Y397844D01*
X613404Y398500D01*
X612092D01*
X611436Y397844D01*
X611376Y330280D02*
X612032Y330936D01*
X613344D01*
X614000Y330280D01*
Y327656D01*
X613344Y327000D01*
X612032D01*
X611376Y327656D01*
X608096Y327000D02*
Y330936D01*
X610064Y328968D01*
X607440D01*
X606129Y330280D02*
X605473Y330936D01*
X604161D01*
X603505Y330280D01*
Y327656D01*
X604161Y327000D01*
X605473D01*
X606129Y327656D01*
Y330280D01*
X623876Y388280D02*
X624532Y388936D01*
X625844D01*
X626500Y388280D01*
Y385656D01*
X625844Y385000D01*
X624532D01*
X623876Y385656D01*
X622564Y388280D02*
X621908Y388936D01*
X620596D01*
X619940Y388280D01*
Y387624D01*
X620596Y386968D01*
X621252D01*
X620596D01*
X619940Y386312D01*
Y385656D01*
X620596Y385000D01*
X621908D01*
X622564Y385656D01*
X618629D02*
X617973Y385000D01*
X616661D01*
X616005Y385656D01*
Y388280D01*
X616661Y388936D01*
X617973D01*
X618629Y388280D01*
Y387624D01*
X617973Y386968D01*
X616005D01*
X623876Y393280D02*
X624532Y393936D01*
X625844D01*
X626500Y393280D01*
Y390656D01*
X625844Y390000D01*
X624532D01*
X623876Y390656D01*
X622564Y393280D02*
X621908Y393936D01*
X620596D01*
X619940Y393280D01*
Y392624D01*
X620596Y391968D01*
X621252D01*
X620596D01*
X619940Y391312D01*
Y390656D01*
X620596Y390000D01*
X621908D01*
X622564Y390656D01*
X618629Y393280D02*
X617973Y393936D01*
X616661D01*
X616005Y393280D01*
Y392624D01*
X616661Y391968D01*
X616005Y391312D01*
Y390656D01*
X616661Y390000D01*
X617973D01*
X618629Y390656D01*
Y391312D01*
X617973Y391968D01*
X618629Y392624D01*
Y393280D01*
X617973Y391968D02*
X616661D01*
X457000Y432000D02*
Y435936D01*
X455032D01*
X454376Y435280D01*
Y433968D01*
X455032Y433312D01*
X457000D01*
X455688D02*
X454376Y432000D01*
X453064D02*
X451752D01*
X452408D01*
Y435936D01*
X453064Y435280D01*
X447161Y432000D02*
X449785D01*
X447161Y434624D01*
Y435280D01*
X447817Y435936D01*
X449128D01*
X449785Y435280D01*
X349500Y437000D02*
Y440936D01*
X347532D01*
X346876Y440280D01*
Y438968D01*
X347532Y438312D01*
X349500D01*
X348188D02*
X346876Y437000D01*
X345564D02*
X344252D01*
X344908D01*
Y440936D01*
X345564Y440280D01*
X342284Y437000D02*
X340973D01*
X341629D01*
Y440936D01*
X342284Y440280D01*
X455500Y376000D02*
Y379936D01*
X453532D01*
X452876Y379280D01*
Y377968D01*
X453532Y377312D01*
X455500D01*
X454188D02*
X452876Y376000D01*
X448940D02*
X451564D01*
X448940Y378624D01*
Y379280D01*
X449596Y379936D01*
X450908D01*
X451564Y379280D01*
X447628Y376000D02*
X446317D01*
X446973D01*
Y379936D01*
X447628Y379280D01*
X301000Y410000D02*
Y413936D01*
X299032D01*
X298376Y413280D01*
Y411968D01*
X299032Y411312D01*
X301000D01*
X299688D02*
X298376Y410000D01*
X294440D02*
X297064D01*
X294440Y412624D01*
Y413280D01*
X295096Y413936D01*
X296408D01*
X297064Y413280D01*
X290505Y410000D02*
X293128D01*
X290505Y412624D01*
Y413280D01*
X291161Y413936D01*
X292473D01*
X293128Y413280D01*
X454376Y399780D02*
X455032Y400436D01*
X456344D01*
X457000Y399780D01*
Y397156D01*
X456344Y396500D01*
X455032D01*
X454376Y397156D01*
X453064Y399780D02*
X452408Y400436D01*
X451096D01*
X450440Y399780D01*
Y399124D01*
X451096Y398468D01*
X451752D01*
X451096D01*
X450440Y397812D01*
Y397156D01*
X451096Y396500D01*
X452408D01*
X453064Y397156D01*
X449128Y396500D02*
X447817D01*
X448473D01*
Y400436D01*
X449128Y399780D01*
X250000Y389000D02*
Y392936D01*
X248032D01*
X247376Y392280D01*
Y390968D01*
X248032Y390312D01*
X250000D01*
X248688D02*
X247376Y389000D01*
X246064D02*
X244752D01*
X245408D01*
Y392936D01*
X246064Y392280D01*
X240161Y392936D02*
X241473Y392280D01*
X242785Y390968D01*
Y389656D01*
X242128Y389000D01*
X240817D01*
X240161Y389656D01*
Y390312D01*
X240817Y390968D01*
X242785D01*
X270376Y387280D02*
X271032Y387936D01*
X272344D01*
X273000Y387280D01*
Y384656D01*
X272344Y384000D01*
X271032D01*
X270376Y384656D01*
X267096Y384000D02*
Y387936D01*
X269064Y385968D01*
X266440D01*
X265128Y387280D02*
X264473Y387936D01*
X263161D01*
X262505Y387280D01*
Y386624D01*
X263161Y385968D01*
X263817D01*
X263161D01*
X262505Y385312D01*
Y384656D01*
X263161Y384000D01*
X264473D01*
X265128Y384656D01*
X464000Y343500D02*
Y339564D01*
X465968D01*
X466624Y340220D01*
Y341532D01*
X465968Y342188D01*
X464000D01*
X465312D02*
X466624Y343500D01*
X467936D02*
X469248D01*
X468592D01*
Y339564D01*
X467936Y340220D01*
X606000Y386500D02*
X609936D01*
Y388468D01*
X609280Y389124D01*
X607968D01*
X607312Y388468D01*
Y386500D01*
Y387812D02*
X606000Y389124D01*
X609280Y390436D02*
X609936Y391092D01*
Y392404D01*
X609280Y393060D01*
X608624D01*
X607968Y392404D01*
Y391748D01*
Y392404D01*
X607312Y393060D01*
X606656D01*
X606000Y392404D01*
Y391092D01*
X606656Y390436D01*
X602000Y396000D02*
X605936D01*
Y397968D01*
X605280Y398624D01*
X603968D01*
X603312Y397968D01*
Y396000D01*
Y397312D02*
X602000Y398624D01*
Y402560D02*
Y399936D01*
X604624Y402560D01*
X605280D01*
X605936Y401904D01*
Y400592D01*
X605280Y399936D01*
X590376Y350780D02*
X591032Y351436D01*
X592344D01*
X593000Y350780D01*
Y348156D01*
X592344Y347500D01*
X591032D01*
X590376Y348156D01*
X589064Y350780D02*
X588408Y351436D01*
X587096D01*
X586440Y350780D01*
Y350124D01*
X587096Y349468D01*
X587752D01*
X587096D01*
X586440Y348812D01*
Y348156D01*
X587096Y347500D01*
X588408D01*
X589064Y348156D01*
X583161Y347500D02*
Y351436D01*
X585128Y349468D01*
X582505D01*
X572876Y362780D02*
X573532Y363436D01*
X574844D01*
X575500Y362780D01*
Y360156D01*
X574844Y359500D01*
X573532D01*
X572876Y360156D01*
X571564Y362780D02*
X570908Y363436D01*
X569596D01*
X568940Y362780D01*
Y362124D01*
X569596Y361468D01*
X570252D01*
X569596D01*
X568940Y360812D01*
Y360156D01*
X569596Y359500D01*
X570908D01*
X571564Y360156D01*
X567628Y362780D02*
X566973Y363436D01*
X565661D01*
X565005Y362780D01*
Y362124D01*
X565661Y361468D01*
X566317D01*
X565661D01*
X565005Y360812D01*
Y360156D01*
X565661Y359500D01*
X566973D01*
X567628Y360156D01*
X596720Y340876D02*
X596064Y341532D01*
Y342844D01*
X596720Y343500D01*
X599344D01*
X600000Y342844D01*
Y341532D01*
X599344Y340876D01*
X600000Y336940D02*
Y339564D01*
X597376Y336940D01*
X596720D01*
X596064Y337596D01*
Y338908D01*
X596720Y339564D01*
X596064Y333005D02*
X596720Y334317D01*
X598032Y335629D01*
X599344D01*
X600000Y334973D01*
Y333661D01*
X599344Y333005D01*
X598688D01*
X598032Y333661D01*
Y335629D01*
X378220Y321876D02*
X377564Y322532D01*
Y323844D01*
X378220Y324500D01*
X380844D01*
X381500Y323844D01*
Y322532D01*
X380844Y321876D01*
X381500Y317940D02*
Y320564D01*
X378876Y317940D01*
X378220D01*
X377564Y318596D01*
Y319908D01*
X378220Y320564D01*
Y316629D02*
X377564Y315973D01*
Y314661D01*
X378220Y314005D01*
X378876D01*
X379532Y314661D01*
Y315317D01*
Y314661D01*
X380188Y314005D01*
X380844D01*
X381500Y314661D01*
Y315973D01*
X380844Y316629D01*
X442376Y308280D02*
X443032Y308936D01*
X444344D01*
X445000Y308280D01*
Y305656D01*
X444344Y305000D01*
X443032D01*
X442376Y305656D01*
X438440Y305000D02*
X441064D01*
X438440Y307624D01*
Y308280D01*
X439096Y308936D01*
X440408D01*
X441064Y308280D01*
X328000Y379936D02*
Y376656D01*
X327344Y376000D01*
X326032D01*
X325376Y376656D01*
Y379936D01*
X324064Y376656D02*
X323408Y376000D01*
X322096D01*
X321440Y376656D01*
Y379280D01*
X322096Y379936D01*
X323408D01*
X324064Y379280D01*
Y378624D01*
X323408Y377968D01*
X321440D01*
X589876Y403780D02*
X590532Y404436D01*
X591844D01*
X592500Y403780D01*
Y401156D01*
X591844Y400500D01*
X590532D01*
X589876Y401156D01*
X588564Y400500D02*
X587252D01*
X587908D01*
Y404436D01*
X588564Y403780D01*
X424876Y339280D02*
X425532Y339936D01*
X426844D01*
X427500Y339280D01*
Y336656D01*
X426844Y336000D01*
X425532D01*
X424876Y336656D01*
X423564Y339280D02*
X422908Y339936D01*
X421596D01*
X420940Y339280D01*
Y338624D01*
X421596Y337968D01*
X422252D01*
X421596D01*
X420940Y337312D01*
Y336656D01*
X421596Y336000D01*
X422908D01*
X423564Y336656D01*
X444720Y419376D02*
X444064Y420032D01*
Y421344D01*
X444720Y422000D01*
X447344D01*
X448000Y421344D01*
Y420032D01*
X447344Y419376D01*
X448000Y416096D02*
X444064D01*
X446032Y418064D01*
Y415440D01*
X413876Y487780D02*
X414532Y488436D01*
X415844D01*
X416500Y487780D01*
Y485156D01*
X415844Y484500D01*
X414532D01*
X413876Y485156D01*
X409940Y488436D02*
X412564D01*
Y486468D01*
X411252Y487124D01*
X410596D01*
X409940Y486468D01*
Y485156D01*
X410596Y484500D01*
X411908D01*
X412564Y485156D01*
X533220Y424376D02*
X532564Y425032D01*
Y426344D01*
X533220Y427000D01*
X535844D01*
X536500Y426344D01*
Y425032D01*
X535844Y424376D01*
X532564Y420440D02*
X533220Y421752D01*
X534532Y423064D01*
X535844D01*
X536500Y422408D01*
Y421096D01*
X535844Y420440D01*
X535188D01*
X534532Y421096D01*
Y423064D01*
X440376Y338780D02*
X441032Y339436D01*
X442344D01*
X443000Y338780D01*
Y336156D01*
X442344Y335500D01*
X441032D01*
X440376Y336156D01*
X439064Y339436D02*
X436440D01*
Y338780D01*
X439064Y336156D01*
Y335500D01*
X381376Y365280D02*
X382032Y365936D01*
X383344D01*
X384000Y365280D01*
Y362656D01*
X383344Y362000D01*
X382032D01*
X381376Y362656D01*
X380064Y365280D02*
X379408Y365936D01*
X378096D01*
X377440Y365280D01*
Y364624D01*
X378096Y363968D01*
X377440Y363312D01*
Y362656D01*
X378096Y362000D01*
X379408D01*
X380064Y362656D01*
Y363312D01*
X379408Y363968D01*
X380064Y364624D01*
Y365280D01*
X379408Y363968D02*
X378096D01*
X416876Y366780D02*
X417532Y367436D01*
X418844D01*
X419500Y366780D01*
Y364156D01*
X418844Y363500D01*
X417532D01*
X416876Y364156D01*
X415564D02*
X414908Y363500D01*
X413596D01*
X412940Y364156D01*
Y366780D01*
X413596Y367436D01*
X414908D01*
X415564Y366780D01*
Y366124D01*
X414908Y365468D01*
X412940D01*
X345720Y417376D02*
X345064Y418032D01*
Y419344D01*
X345720Y420000D01*
X348344D01*
X349000Y419344D01*
Y418032D01*
X348344Y417376D01*
X349000Y416064D02*
Y414752D01*
Y415408D01*
X345064D01*
X345720Y416064D01*
Y412784D02*
X345064Y412128D01*
Y410817D01*
X345720Y410161D01*
X348344D01*
X349000Y410817D01*
Y412128D01*
X348344Y412784D01*
X345720D01*
X409280Y328124D02*
X409936Y327468D01*
Y326156D01*
X409280Y325500D01*
X406656D01*
X406000Y326156D01*
Y327468D01*
X406656Y328124D01*
X406000Y332060D02*
Y329436D01*
X408624Y332060D01*
X409280D01*
X409936Y331404D01*
Y330092D01*
X409280Y329436D01*
X406000Y335339D02*
X409936D01*
X407968Y333371D01*
Y335995D01*
X402280Y325624D02*
X402936Y324968D01*
Y323656D01*
X402280Y323000D01*
X399656D01*
X399000Y323656D01*
Y324968D01*
X399656Y325624D01*
X399000Y329560D02*
Y326936D01*
X401624Y329560D01*
X402280D01*
X402936Y328904D01*
Y327592D01*
X402280Y326936D01*
X402936Y333495D02*
Y330872D01*
X400968D01*
X401624Y332183D01*
Y332839D01*
X400968Y333495D01*
X399656D01*
X399000Y332839D01*
Y331527D01*
X399656Y330872D01*
X415780Y328624D02*
X416436Y327968D01*
Y326656D01*
X415780Y326000D01*
X413156D01*
X412500Y326656D01*
Y327968D01*
X413156Y328624D01*
X412500Y329936D02*
Y331248D01*
Y330592D01*
X416436D01*
X415780Y329936D01*
Y333215D02*
X416436Y333872D01*
Y335183D01*
X415780Y335839D01*
X415124D01*
X414468Y335183D01*
Y334527D01*
Y335183D01*
X413812Y335839D01*
X413156D01*
X412500Y335183D01*
Y333872D01*
X413156Y333215D01*
X563280Y369124D02*
X563936Y368468D01*
Y367156D01*
X563280Y366500D01*
X560656D01*
X560000Y367156D01*
Y368468D01*
X560656Y369124D01*
X560000Y373060D02*
Y370436D01*
X562624Y373060D01*
X563280D01*
X563936Y372404D01*
Y371092D01*
X563280Y370436D01*
X563936Y374372D02*
Y376995D01*
X563280D01*
X560656Y374372D01*
X560000D01*
X565876Y434780D02*
X566532Y435436D01*
X567844D01*
X568500Y434780D01*
Y432156D01*
X567844Y431500D01*
X566532D01*
X565876Y432156D01*
X564564Y434780D02*
X563908Y435436D01*
X562596D01*
X561940Y434780D01*
Y434124D01*
X562596Y433468D01*
X563252D01*
X562596D01*
X561940Y432812D01*
Y432156D01*
X562596Y431500D01*
X563908D01*
X564564Y432156D01*
X558005Y431500D02*
X560629D01*
X558005Y434124D01*
Y434780D01*
X558661Y435436D01*
X559973D01*
X560629Y434780D01*
X569280Y350624D02*
X569936Y349968D01*
Y348656D01*
X569280Y348000D01*
X566656D01*
X566000Y348656D01*
Y349968D01*
X566656Y350624D01*
X569280Y351936D02*
X569936Y352592D01*
Y353904D01*
X569280Y354560D01*
X568624D01*
X567968Y353904D01*
Y353248D01*
Y353904D01*
X567312Y354560D01*
X566656D01*
X566000Y353904D01*
Y352592D01*
X566656Y351936D01*
X569936Y358495D02*
Y355872D01*
X567968D01*
X568624Y357183D01*
Y357839D01*
X567968Y358495D01*
X566656D01*
X566000Y357839D01*
Y356527D01*
X566656Y355872D01*
X542624Y460220D02*
X541968Y459564D01*
X540656D01*
X540000Y460220D01*
Y462844D01*
X540656Y463500D01*
X541968D01*
X542624Y462844D01*
X543936Y460220D02*
X544592Y459564D01*
X545904D01*
X546560Y460220D01*
Y460876D01*
X545904Y461532D01*
X545248D01*
X545904D01*
X546560Y462188D01*
Y462844D01*
X545904Y463500D01*
X544592D01*
X543936Y462844D01*
X547871Y459564D02*
X550495D01*
Y460220D01*
X547871Y462844D01*
Y463500D01*
X478124Y307220D02*
X477468Y306564D01*
X476156D01*
X475500Y307220D01*
Y309844D01*
X476156Y310500D01*
X477468D01*
X478124Y309844D01*
X479436Y310500D02*
X480748D01*
X480092D01*
Y306564D01*
X479436Y307220D01*
X484683Y310500D02*
Y306564D01*
X482716Y308532D01*
X485339D01*
X458876Y331780D02*
X459532Y332436D01*
X460844D01*
X461500Y331780D01*
Y329156D01*
X460844Y328500D01*
X459532D01*
X458876Y329156D01*
X457564Y328500D02*
X456252D01*
X456908D01*
Y332436D01*
X457564Y331780D01*
X451661Y332436D02*
X454284D01*
Y330468D01*
X452973Y331124D01*
X452317D01*
X451661Y330468D01*
Y329156D01*
X452317Y328500D01*
X453628D01*
X454284Y329156D01*
X378780Y492624D02*
X379436Y491968D01*
Y490656D01*
X378780Y490000D01*
X376156D01*
X375500Y490656D01*
Y491968D01*
X376156Y492624D01*
X375500Y493936D02*
Y495248D01*
Y494592D01*
X379436D01*
X378780Y493936D01*
X379436Y499839D02*
X378780Y498527D01*
X377468Y497216D01*
X376156D01*
X375500Y497871D01*
Y499183D01*
X376156Y499839D01*
X376812D01*
X377468Y499183D01*
Y497216D01*
X430876Y366780D02*
X431532Y367436D01*
X432844D01*
X433500Y366780D01*
Y364156D01*
X432844Y363500D01*
X431532D01*
X430876Y364156D01*
X429564Y363500D02*
X428252D01*
X428908D01*
Y367436D01*
X429564Y366780D01*
X426285Y367436D02*
X423661D01*
Y366780D01*
X426285Y364156D01*
Y363500D01*
X456376Y457780D02*
X457032Y458436D01*
X458344D01*
X459000Y457780D01*
Y455156D01*
X458344Y454500D01*
X457032D01*
X456376Y455156D01*
X455064Y454500D02*
X453752D01*
X454408D01*
Y458436D01*
X455064Y457780D01*
X451785D02*
X451128Y458436D01*
X449817D01*
X449161Y457780D01*
Y457124D01*
X449817Y456468D01*
X449161Y455812D01*
Y455156D01*
X449817Y454500D01*
X451128D01*
X451785Y455156D01*
Y455812D01*
X451128Y456468D01*
X451785Y457124D01*
Y457780D01*
X451128Y456468D02*
X449817D01*
X344376Y454280D02*
X345032Y454936D01*
X346344D01*
X347000Y454280D01*
Y451656D01*
X346344Y451000D01*
X345032D01*
X344376Y451656D01*
X343064Y451000D02*
X341752D01*
X342408D01*
Y454936D01*
X343064Y454280D01*
X339785Y451656D02*
X339128Y451000D01*
X337817D01*
X337161Y451656D01*
Y454280D01*
X337817Y454936D01*
X339128D01*
X339785Y454280D01*
Y453624D01*
X339128Y452968D01*
X337161D01*
X398376Y366280D02*
X399032Y366936D01*
X400344D01*
X401000Y366280D01*
Y363656D01*
X400344Y363000D01*
X399032D01*
X398376Y363656D01*
X394440Y363000D02*
X397064D01*
X394440Y365624D01*
Y366280D01*
X395096Y366936D01*
X396408D01*
X397064Y366280D01*
X393128D02*
X392473Y366936D01*
X391161D01*
X390505Y366280D01*
Y363656D01*
X391161Y363000D01*
X392473D01*
X393128Y363656D01*
Y366280D01*
X455376Y410780D02*
X456032Y411436D01*
X457344D01*
X458000Y410780D01*
Y408156D01*
X457344Y407500D01*
X456032D01*
X455376Y408156D01*
X451440Y407500D02*
X454064D01*
X451440Y410124D01*
Y410780D01*
X452096Y411436D01*
X453408D01*
X454064Y410780D01*
X450129Y407500D02*
X448817D01*
X449473D01*
Y411436D01*
X450129Y410780D01*
X450720Y323376D02*
X450064Y324032D01*
Y325344D01*
X450720Y326000D01*
X453344D01*
X454000Y325344D01*
Y324032D01*
X453344Y323376D01*
X454000Y319440D02*
Y322064D01*
X451376Y319440D01*
X450720D01*
X450064Y320096D01*
Y321408D01*
X450720Y322064D01*
X454000Y315505D02*
Y318128D01*
X451376Y315505D01*
X450720D01*
X450064Y316161D01*
Y317473D01*
X450720Y318128D01*
X520376Y330780D02*
X521032Y331436D01*
X522344D01*
X523000Y330780D01*
Y328156D01*
X522344Y327500D01*
X521032D01*
X520376Y328156D01*
X516440Y327500D02*
X519064D01*
X516440Y330124D01*
Y330780D01*
X517096Y331436D01*
X518408D01*
X519064Y330780D01*
X515129D02*
X514473Y331436D01*
X513161D01*
X512505Y330780D01*
Y330124D01*
X513161Y329468D01*
X512505Y328812D01*
Y328156D01*
X513161Y327500D01*
X514473D01*
X515129Y328156D01*
Y328812D01*
X514473Y329468D01*
X515129Y330124D01*
Y330780D01*
X514473Y329468D02*
X513161D01*
X503876Y336780D02*
X504532Y337436D01*
X505844D01*
X506500Y336780D01*
Y334156D01*
X505844Y333500D01*
X504532D01*
X503876Y334156D01*
X499940Y333500D02*
X502564D01*
X499940Y336124D01*
Y336780D01*
X500596Y337436D01*
X501908D01*
X502564Y336780D01*
X498629Y334156D02*
X497973Y333500D01*
X496661D01*
X496005Y334156D01*
Y336780D01*
X496661Y337436D01*
X497973D01*
X498629Y336780D01*
Y336124D01*
X497973Y335468D01*
X496005D01*
X342376Y471280D02*
X343032Y471936D01*
X344344D01*
X345000Y471280D01*
Y468656D01*
X344344Y468000D01*
X343032D01*
X342376Y468656D01*
X341064Y471280D02*
X340408Y471936D01*
X339096D01*
X338440Y471280D01*
Y470624D01*
X339096Y469968D01*
X339752D01*
X339096D01*
X338440Y469312D01*
Y468656D01*
X339096Y468000D01*
X340408D01*
X341064Y468656D01*
X337128Y471280D02*
X336473Y471936D01*
X335161D01*
X334505Y471280D01*
Y468656D01*
X335161Y468000D01*
X336473D01*
X337128Y468656D01*
Y471280D01*
X487220Y322876D02*
X486564Y323532D01*
Y324844D01*
X487220Y325500D01*
X489844D01*
X490500Y324844D01*
Y323532D01*
X489844Y322876D01*
X487220Y321564D02*
X486564Y320908D01*
Y319596D01*
X487220Y318940D01*
X487876D01*
X488532Y319596D01*
Y320252D01*
Y319596D01*
X489188Y318940D01*
X489844D01*
X490500Y319596D01*
Y320908D01*
X489844Y321564D01*
X486564Y315005D02*
X487220Y316317D01*
X488532Y317629D01*
X489844D01*
X490500Y316973D01*
Y315661D01*
X489844Y315005D01*
X489188D01*
X488532Y315661D01*
Y317629D01*
X280220Y375876D02*
X279564Y376532D01*
Y377844D01*
X280220Y378500D01*
X282844D01*
X283500Y377844D01*
Y376532D01*
X282844Y375876D01*
X283500Y372596D02*
X279564D01*
X281532Y374564D01*
Y371940D01*
X283500Y370628D02*
Y369317D01*
Y369973D01*
X279564D01*
X280220Y370628D01*
X256220Y377376D02*
X255564Y378032D01*
Y379344D01*
X256220Y380000D01*
X258844D01*
X259500Y379344D01*
Y378032D01*
X258844Y377376D01*
X259500Y374096D02*
X255564D01*
X257532Y376064D01*
Y373440D01*
X259500Y369505D02*
Y372129D01*
X256876Y369505D01*
X256220D01*
X255564Y370161D01*
Y371473D01*
X256220Y372129D01*
X438124Y386720D02*
X437468Y386064D01*
X436156D01*
X435500Y386720D01*
Y389344D01*
X436156Y390000D01*
X437468D01*
X438124Y389344D01*
X441404Y390000D02*
Y386064D01*
X439436Y388032D01*
X442060D01*
X445995Y386064D02*
X443371D01*
Y388032D01*
X444683Y387376D01*
X445339D01*
X445995Y388032D01*
Y389344D01*
X445339Y390000D01*
X444027D01*
X443371Y389344D01*
X363780Y492624D02*
X364436Y491968D01*
Y490656D01*
X363780Y490000D01*
X361156D01*
X360500Y490656D01*
Y491968D01*
X361156Y492624D01*
X360500Y495904D02*
X364436D01*
X362468Y493936D01*
Y496560D01*
X360500Y499839D02*
X364436D01*
X362468Y497871D01*
Y500495D01*
X212500Y368500D02*
Y372436D01*
X210532D01*
X209876Y371780D01*
Y370468D01*
X210532Y369812D01*
X212500D01*
X205940Y368500D02*
X208564D01*
X205940Y371124D01*
Y371780D01*
X206596Y372436D01*
X207908D01*
X208564Y371780D01*
X556500Y483000D02*
Y486936D01*
X554532D01*
X553876Y486280D01*
Y484968D01*
X554532Y484312D01*
X556500D01*
X552564Y486280D02*
X551908Y486936D01*
X550596D01*
X549940Y486280D01*
Y485624D01*
X550596Y484968D01*
X551252D01*
X550596D01*
X549940Y484312D01*
Y483656D01*
X550596Y483000D01*
X551908D01*
X552564Y483656D01*
X255000Y309000D02*
Y312936D01*
X253032D01*
X252376Y312280D01*
Y310968D01*
X253032Y310312D01*
X255000D01*
X251064Y309000D02*
X249752D01*
X250408D01*
Y312936D01*
X251064Y312280D01*
X276000Y498000D02*
Y501936D01*
X274032D01*
X273376Y501280D01*
Y499968D01*
X274032Y499312D01*
X276000D01*
X270096Y498000D02*
Y501936D01*
X272064Y499968D01*
X269440D01*
X307876Y351656D02*
Y354280D01*
X308532Y354936D01*
X309844D01*
X310500Y354280D01*
Y351656D01*
X309844Y351000D01*
X308532D01*
X309188Y352312D02*
X307876Y351000D01*
X308532D02*
X307876Y351656D01*
X306564Y351000D02*
X305252D01*
X305908D01*
Y354936D01*
X306564Y354280D01*
X550000Y326000D02*
Y329936D01*
X548032D01*
X547376Y329280D01*
Y327968D01*
X548032Y327312D01*
X550000D01*
X548688D02*
X547376Y326000D01*
X544096D02*
Y329936D01*
X546064Y327968D01*
X543440D01*
X582500Y358500D02*
X578564D01*
Y356532D01*
X579220Y355876D01*
X580532D01*
X581188Y356532D01*
Y358500D01*
Y357188D02*
X582500Y355876D01*
X578564Y351940D02*
X579220Y353252D01*
X580532Y354564D01*
X581844D01*
X582500Y353908D01*
Y352596D01*
X581844Y351940D01*
X581188D01*
X580532Y352596D01*
Y354564D01*
X582500Y459500D02*
Y463436D01*
X580532D01*
X579876Y462780D01*
Y461468D01*
X580532Y460812D01*
X582500D01*
X581188D02*
X579876Y459500D01*
X578564Y460156D02*
X577908Y459500D01*
X576596D01*
X575940Y460156D01*
Y462780D01*
X576596Y463436D01*
X577908D01*
X578564Y462780D01*
Y462124D01*
X577908Y461468D01*
X575940D01*
X300000Y398500D02*
Y402436D01*
X298032D01*
X297376Y401780D01*
Y400468D01*
X298032Y399812D01*
X300000D01*
X298688D02*
X297376Y398500D01*
X296064D02*
X294752D01*
X295408D01*
Y402436D01*
X296064Y401780D01*
X292785D02*
X292128Y402436D01*
X290817D01*
X290161Y401780D01*
Y401124D01*
X290817Y400468D01*
X291473D01*
X290817D01*
X290161Y399812D01*
Y399156D01*
X290817Y398500D01*
X292128D01*
X292785Y399156D01*
X325500Y335500D02*
Y339436D01*
X323532D01*
X322876Y338780D01*
Y337468D01*
X323532Y336812D01*
X325500D01*
X324188D02*
X322876Y335500D01*
X321564D02*
X320252D01*
X320908D01*
Y339436D01*
X321564Y338780D01*
X316317Y335500D02*
Y339436D01*
X318285Y337468D01*
X315661D01*
X315000Y335500D02*
Y339436D01*
X313032D01*
X312376Y338780D01*
Y337468D01*
X313032Y336812D01*
X315000D01*
X313688D02*
X312376Y335500D01*
X311064D02*
X309752D01*
X310408D01*
Y339436D01*
X311064Y338780D01*
X305161Y339436D02*
X307785D01*
Y337468D01*
X306473Y338124D01*
X305817D01*
X305161Y337468D01*
Y336156D01*
X305817Y335500D01*
X307129D01*
X307785Y336156D01*
X373000Y484500D02*
Y488436D01*
X371032D01*
X370376Y487780D01*
Y486468D01*
X371032Y485812D01*
X373000D01*
X371688D02*
X370376Y484500D01*
X366440D02*
X369064D01*
X366440Y487124D01*
Y487780D01*
X367096Y488436D01*
X368408D01*
X369064Y487780D01*
X365128D02*
X364473Y488436D01*
X363161D01*
X362505Y487780D01*
Y485156D01*
X363161Y484500D01*
X364473D01*
X365128Y485156D01*
Y487780D01*
X286000Y466500D02*
X289936D01*
Y468468D01*
X289280Y469124D01*
X287968D01*
X287312Y468468D01*
Y466500D01*
Y467812D02*
X286000Y469124D01*
Y470436D02*
Y471748D01*
Y471092D01*
X289936D01*
X289280Y470436D01*
X289936Y473715D02*
Y476339D01*
X289280D01*
X286656Y473715D01*
X286000D01*
X305500Y460500D02*
Y464436D01*
X303532D01*
X302876Y463780D01*
Y462468D01*
X303532Y461812D01*
X305500D01*
X304188D02*
X302876Y460500D01*
X301564D02*
X300252D01*
X300908D01*
Y464436D01*
X301564Y463780D01*
X298285D02*
X297628Y464436D01*
X296317D01*
X295661Y463780D01*
Y463124D01*
X296317Y462468D01*
X295661Y461812D01*
Y461156D01*
X296317Y460500D01*
X297628D01*
X298285Y461156D01*
Y461812D01*
X297628Y462468D01*
X298285Y463124D01*
Y463780D01*
X297628Y462468D02*
X296317D01*
X313500Y467000D02*
Y470936D01*
X311532D01*
X310876Y470280D01*
Y468968D01*
X311532Y468312D01*
X313500D01*
X312188D02*
X310876Y467000D01*
X309564D02*
X308252D01*
X308908D01*
Y470936D01*
X309564Y470280D01*
X306284Y467656D02*
X305628Y467000D01*
X304317D01*
X303661Y467656D01*
Y470280D01*
X304317Y470936D01*
X305628D01*
X306284Y470280D01*
Y469624D01*
X305628Y468968D01*
X303661D01*
X295500Y425000D02*
X291564D01*
Y423032D01*
X292220Y422376D01*
X293532D01*
X294188Y423032D01*
Y425000D01*
Y423688D02*
X295500Y422376D01*
Y418440D02*
Y421064D01*
X292876Y418440D01*
X292220D01*
X291564Y419096D01*
Y420408D01*
X292220Y421064D01*
Y417129D02*
X291564Y416473D01*
Y415161D01*
X292220Y414505D01*
X292876D01*
X293532Y415161D01*
Y415817D01*
Y415161D01*
X294188Y414505D01*
X294844D01*
X295500Y415161D01*
Y416473D01*
X294844Y417129D01*
X308000Y397000D02*
X311936D01*
Y398968D01*
X311280Y399624D01*
X309968D01*
X309312Y398968D01*
Y397000D01*
Y398312D02*
X308000Y399624D01*
Y403560D02*
Y400936D01*
X310624Y403560D01*
X311280D01*
X311936Y402904D01*
Y401592D01*
X311280Y400936D01*
X308000Y406839D02*
X311936D01*
X309968Y404872D01*
Y407495D01*
X313500Y410000D02*
Y406064D01*
X315468D01*
X316124Y406720D01*
Y408032D01*
X315468Y408688D01*
X313500D01*
X314812D02*
X316124Y410000D01*
X320060D02*
X317436D01*
X320060Y407376D01*
Y406720D01*
X319404Y406064D01*
X318092D01*
X317436Y406720D01*
X323995Y406064D02*
X321372D01*
Y408032D01*
X322683Y407376D01*
X323339D01*
X323995Y408032D01*
Y409344D01*
X323339Y410000D01*
X322027D01*
X321372Y409344D01*
X311500Y435000D02*
Y438936D01*
X309532D01*
X308876Y438280D01*
Y436968D01*
X309532Y436312D01*
X311500D01*
X310188D02*
X308876Y435000D01*
X304940D02*
X307564D01*
X304940Y437624D01*
Y438280D01*
X305596Y438936D01*
X306908D01*
X307564Y438280D01*
X301005Y438936D02*
X302317Y438280D01*
X303628Y436968D01*
Y435656D01*
X302973Y435000D01*
X301661D01*
X301005Y435656D01*
Y436312D01*
X301661Y436968D01*
X303628D01*
X311500Y430000D02*
Y433936D01*
X309532D01*
X308876Y433280D01*
Y431968D01*
X309532Y431312D01*
X311500D01*
X310188D02*
X308876Y430000D01*
X304940D02*
X307564D01*
X304940Y432624D01*
Y433280D01*
X305596Y433936D01*
X306908D01*
X307564Y433280D01*
X303628Y433936D02*
X301005D01*
Y433280D01*
X303628Y430656D01*
Y430000D01*
X311500Y425000D02*
Y428936D01*
X309532D01*
X308876Y428280D01*
Y426968D01*
X309532Y426312D01*
X311500D01*
X310188D02*
X308876Y425000D01*
X304940D02*
X307564D01*
X304940Y427624D01*
Y428280D01*
X305596Y428936D01*
X306908D01*
X307564Y428280D01*
X303628D02*
X302973Y428936D01*
X301661D01*
X301005Y428280D01*
Y427624D01*
X301661Y426968D01*
X301005Y426312D01*
Y425656D01*
X301661Y425000D01*
X302973D01*
X303628Y425656D01*
Y426312D01*
X302973Y426968D01*
X303628Y427624D01*
Y428280D01*
X302973Y426968D02*
X301661D01*
X343000Y339000D02*
Y342936D01*
X341032D01*
X340376Y342280D01*
Y340968D01*
X341032Y340312D01*
X343000D01*
X341688D02*
X340376Y339000D01*
X339064D02*
Y342936D01*
X336440Y339000D01*
Y342936D01*
X335128Y339000D02*
X333817D01*
X334473D01*
Y342936D01*
X335128Y342280D01*
X312376Y315780D02*
X313032Y316436D01*
X314344D01*
X315000Y315780D01*
Y315124D01*
X314344Y314468D01*
X313032D01*
X312376Y313812D01*
Y313156D01*
X313032Y312500D01*
X314344D01*
X315000Y313156D01*
X311064Y312500D02*
X309752D01*
X310408D01*
Y316436D01*
X311064Y315780D01*
X427500Y308436D02*
Y305156D01*
X426844Y304500D01*
X425532D01*
X424876Y305156D01*
Y308436D01*
X423564Y304500D02*
X422252D01*
X422908D01*
Y308436D01*
X423564Y307780D01*
X574500Y385936D02*
Y382656D01*
X573844Y382000D01*
X572532D01*
X571876Y382656D01*
Y385936D01*
X570564Y385280D02*
X569908Y385936D01*
X568596D01*
X567940Y385280D01*
Y384624D01*
X568596Y383968D01*
X569252D01*
X568596D01*
X567940Y383312D01*
Y382656D01*
X568596Y382000D01*
X569908D01*
X570564Y382656D01*
X470500Y307936D02*
Y304656D01*
X469844Y304000D01*
X468532D01*
X467876Y304656D01*
Y307936D01*
X463940Y304000D02*
X466564D01*
X463940Y306624D01*
Y307280D01*
X464596Y307936D01*
X465908D01*
X466564Y307280D01*
X508000Y308436D02*
Y305156D01*
X507344Y304500D01*
X506032D01*
X505376Y305156D01*
Y308436D01*
X502096Y304500D02*
Y308436D01*
X504064Y306468D01*
X501440D01*
X445500Y470936D02*
Y467656D01*
X444844Y467000D01*
X443532D01*
X442876Y467656D01*
Y470936D01*
X438940D02*
X441564D01*
Y468968D01*
X440252Y469624D01*
X439596D01*
X438940Y468968D01*
Y467656D01*
X439596Y467000D01*
X440908D01*
X441564Y467656D01*
X500000Y467436D02*
Y464156D01*
X499344Y463500D01*
X498032D01*
X497376Y464156D01*
Y467436D01*
X493440D02*
X494752Y466780D01*
X496064Y465468D01*
Y464156D01*
X495408Y463500D01*
X494096D01*
X493440Y464156D01*
Y464812D01*
X494096Y465468D01*
X496064D01*
X256500Y449436D02*
Y446156D01*
X255844Y445500D01*
X254532D01*
X253876Y446156D01*
Y449436D01*
X252564D02*
X249940D01*
Y448780D01*
X252564Y446156D01*
Y445500D01*
X237500Y389936D02*
Y386656D01*
X236844Y386000D01*
X235532D01*
X234876Y386656D01*
Y389936D01*
X233564Y389280D02*
X232908Y389936D01*
X231596D01*
X230940Y389280D01*
Y388624D01*
X231596Y387968D01*
X230940Y387312D01*
Y386656D01*
X231596Y386000D01*
X232908D01*
X233564Y386656D01*
Y387312D01*
X232908Y387968D01*
X233564Y388624D01*
Y389280D01*
X232908Y387968D02*
X231596D01*
X272000Y358936D02*
X269376Y355000D01*
Y358936D02*
X272000Y355000D01*
X268064D02*
X266752D01*
X267408D01*
Y358936D01*
X268064Y358280D01*
X333500Y488936D02*
X330876Y485000D01*
Y488936D02*
X333500Y485000D01*
X326940D02*
X329564D01*
X326940Y487624D01*
Y488280D01*
X327596Y488936D01*
X328908D01*
X329564Y488280D01*
X462564Y419376D02*
Y420688D01*
Y420032D01*
X465844D01*
X466500Y420688D01*
Y421344D01*
X465844Y422000D01*
X466500Y418064D02*
Y416752D01*
Y417408D01*
X462564D01*
X463220Y418064D01*
X283780Y392124D02*
X284436Y391468D01*
Y390156D01*
X283780Y389500D01*
X281156D01*
X280500Y390156D01*
Y391468D01*
X281156Y392124D01*
X280500Y393436D02*
Y394748D01*
Y394092D01*
X284436D01*
X283780Y393436D01*
X280500Y396715D02*
Y398027D01*
Y397372D01*
X284436D01*
X283780Y396715D01*
X235624Y445720D02*
X234968Y445064D01*
X233656D01*
X233000Y445720D01*
Y448344D01*
X233656Y449000D01*
X234968D01*
X235624Y448344D01*
X236936Y449000D02*
X238248D01*
X237592D01*
Y445064D01*
X236936Y445720D01*
X242839Y449000D02*
X240215D01*
X242839Y446376D01*
Y445720D01*
X242183Y445064D01*
X240872D01*
X240215Y445720D01*
X217220Y358876D02*
X216564Y359532D01*
Y360844D01*
X217220Y361500D01*
X217876D01*
X218532Y360844D01*
Y359532D01*
X219188Y358876D01*
X219844D01*
X220500Y359532D01*
Y360844D01*
X219844Y361500D01*
X220500Y357564D02*
X216564D01*
Y355596D01*
X217220Y354940D01*
X218532D01*
X219188Y355596D01*
Y357564D01*
X216564Y353628D02*
X220500D01*
X219188D01*
X216564Y351005D01*
X218532Y352973D01*
X220500Y351005D01*
X247500Y319968D02*
X244876D01*
X246188Y321280D02*
Y318656D01*
X243564Y321936D02*
Y318000D01*
X241596D01*
X240940Y318656D01*
Y319312D01*
X241596Y319968D01*
X243564D01*
X241596D01*
X240940Y320624D01*
Y321280D01*
X241596Y321936D01*
X243564D01*
X239629Y318000D02*
Y320624D01*
X238317Y321936D01*
X237005Y320624D01*
Y318000D01*
Y319968D01*
X239629D01*
X235693Y321936D02*
X233069D01*
X234381D01*
Y318000D01*
X231757Y319968D02*
X229133D01*
X322376Y453280D02*
X323032Y453936D01*
X324344D01*
X325000Y453280D01*
Y450656D01*
X324344Y450000D01*
X323032D01*
X322376Y450656D01*
Y451968D01*
X323688D01*
X321064Y450000D02*
Y453936D01*
X318440Y450000D01*
Y453936D01*
X317128D02*
Y450000D01*
X315161D01*
X314505Y450656D01*
Y453280D01*
X315161Y453936D01*
X317128D01*
X324000Y443436D02*
Y440812D01*
X322688Y439500D01*
X321376Y440812D01*
Y443436D01*
X317440Y442780D02*
X318096Y443436D01*
X319408D01*
X320064Y442780D01*
Y440156D01*
X319408Y439500D01*
X318096D01*
X317440Y440156D01*
X313505Y442780D02*
X314161Y443436D01*
X315473D01*
X316128Y442780D01*
Y440156D01*
X315473Y439500D01*
X314161D01*
X313505Y440156D01*
X342000Y413436D02*
X339376D01*
X340688D01*
Y409500D01*
X338064Y413436D02*
Y409500D01*
X336096D01*
X335440Y410156D01*
Y412780D01*
X336096Y413436D01*
X338064D01*
X334128D02*
X332817D01*
X333473D01*
Y409500D01*
X334128D01*
X332817D01*
X343000Y419936D02*
X340376D01*
X341688D01*
Y416000D01*
X336440Y419280D02*
X337096Y419936D01*
X338408D01*
X339064Y419280D01*
Y416656D01*
X338408Y416000D01*
X337096D01*
X336440Y416656D01*
X335128Y419936D02*
Y416000D01*
Y417312D01*
X332505Y419936D01*
X334473Y417968D01*
X332505Y416000D01*
X343000Y430436D02*
X340376D01*
X341688D01*
Y426500D01*
X339064D02*
Y430436D01*
X337752Y429124D01*
X336440Y430436D01*
Y426500D01*
X332505Y429780D02*
X333161Y430436D01*
X334473D01*
X335128Y429780D01*
Y429124D01*
X334473Y428468D01*
X333161D01*
X332505Y427812D01*
Y427156D01*
X333161Y426500D01*
X334473D01*
X335128Y427156D01*
X332564Y442500D02*
Y439876D01*
Y441188D01*
X336500D01*
X332564Y438564D02*
X336500D01*
Y436596D01*
X335844Y435940D01*
X333220D01*
X332564Y436596D01*
Y438564D01*
Y432661D02*
Y433973D01*
X333220Y434628D01*
X335844D01*
X336500Y433973D01*
Y432661D01*
X335844Y432005D01*
X333220D01*
X332564Y432661D01*
X302376Y456780D02*
X303032Y457436D01*
X304344D01*
X305000Y456780D01*
Y454156D01*
X304344Y453500D01*
X303032D01*
X302376Y454156D01*
Y455468D01*
X303688D01*
X301064Y453500D02*
Y457436D01*
X298440Y453500D01*
Y457436D01*
X297129D02*
Y453500D01*
X295161D01*
X294505Y454156D01*
Y456780D01*
X295161Y457436D01*
X297129D01*
X309876Y450280D02*
X310532Y450936D01*
X311844D01*
X312500Y450280D01*
Y449624D01*
X311844Y448968D01*
X310532D01*
X309876Y448312D01*
Y447656D01*
X310532Y447000D01*
X311844D01*
X312500Y447656D01*
X308564Y450936D02*
Y447000D01*
X307252Y448312D01*
X305940Y447000D01*
Y450936D01*
X304628D02*
Y447000D01*
X302661D01*
X302005Y447656D01*
Y450280D01*
X302661Y450936D01*
X304628D01*
X300693D02*
X299381D01*
X300037D01*
Y447000D01*
X300693D01*
X299381D01*
X295445Y450936D02*
X296757D01*
X297413Y450280D01*
Y447656D01*
X296757Y447000D01*
X295445D01*
X294789Y447656D01*
Y450280D01*
X295445Y450936D01*
X310876Y444280D02*
X311532Y444936D01*
X312844D01*
X313500Y444280D01*
Y443624D01*
X312844Y442968D01*
X311532D01*
X310876Y442312D01*
Y441656D01*
X311532Y441000D01*
X312844D01*
X313500Y441656D01*
X309564Y444936D02*
Y441000D01*
X308252Y442312D01*
X306940Y441000D01*
Y444936D01*
X303005Y444280D02*
X303661Y444936D01*
X304973D01*
X305628Y444280D01*
Y441656D01*
X304973Y441000D01*
X303661D01*
X303005Y441656D01*
X301693Y444936D02*
Y441000D01*
X299069D01*
X297757Y444936D02*
Y441000D01*
Y442312D01*
X295133Y444936D01*
X297101Y442968D01*
X295133Y441000D01*
D106*
X326181Y399193D02*
G03*
X326181Y399193I-787J0D01*
G01*
M02*
