%FSLAX25Y25*%
%MOIN*%
G70*
G01*
G75*
G04 Layer_Color=8388736*
%ADD10C,0.02362*%
%ADD11C,0.02063*%
%ADD12R,0.01969X0.07874*%
%ADD13C,0.00984*%
%ADD14C,0.01000*%
%ADD15C,0.00787*%
%ADD16C,0.01969*%
%ADD17C,0.01378*%
%ADD18C,0.01181*%
%ADD19C,0.06000*%
%ADD20R,0.06000X0.06000*%
%ADD21C,0.05906*%
%ADD22R,0.05906X0.05906*%
%ADD23O,0.07874X0.11811*%
%ADD24C,0.09843*%
%ADD25C,0.07874*%
%ADD26R,0.05906X0.05906*%
%ADD27R,0.04724X0.06693*%
%ADD28C,0.02756*%
%ADD29C,0.02598*%
%ADD30R,0.03543X0.02362*%
%ADD31R,0.02756X0.03543*%
%ADD32R,0.02362X0.03543*%
%ADD33R,0.03543X0.02756*%
%ADD34R,0.05512X0.03937*%
G04:AMPARAMS|DCode=35|XSize=27.56mil|YSize=35.43mil|CornerRadius=0mil|HoleSize=0mil|Usage=FLASHONLY|Rotation=315.000|XOffset=0mil|YOffset=0mil|HoleType=Round|Shape=Rectangle|*
%AMROTATEDRECTD35*
4,1,4,-0.02227,-0.00278,0.00278,0.02227,0.02227,0.00278,-0.00278,-0.02227,-0.02227,-0.00278,0.0*
%
%ADD35ROTATEDRECTD35*%

%ADD36R,0.10236X0.04724*%
%ADD37R,0.02559X0.03543*%
%ADD38R,0.03937X0.05512*%
G04:AMPARAMS|DCode=39|XSize=27.56mil|YSize=35.43mil|CornerRadius=0mil|HoleSize=0mil|Usage=FLASHONLY|Rotation=45.000|XOffset=0mil|YOffset=0mil|HoleType=Round|Shape=Rectangle|*
%AMROTATEDRECTD39*
4,1,4,0.00278,-0.02227,-0.02227,0.00278,-0.00278,0.02227,0.02227,-0.00278,0.00278,-0.02227,0.0*
%
%ADD39ROTATEDRECTD39*%

%ADD40R,0.01575X0.02362*%
%ADD41R,0.02362X0.01575*%
%ADD42R,0.03937X0.00787*%
%ADD43R,0.03937X0.01969*%
%ADD44R,0.06299X0.05118*%
%ADD45R,0.03543X0.03937*%
%ADD46O,0.08661X0.02362*%
%ADD47O,0.01181X0.07087*%
%ADD48O,0.07087X0.01181*%
%ADD49O,0.05906X0.01969*%
%ADD50R,0.16929X0.16929*%
%ADD51R,0.02559X0.04331*%
%ADD52O,0.02362X0.08661*%
%ADD53R,0.01969X0.01969*%
%ADD54R,0.01969X0.01575*%
%ADD55R,0.05709X0.03150*%
%ADD56R,0.07087X0.09843*%
%ADD57R,0.01969X0.07874*%
%ADD58R,0.07874X0.07874*%
%ADD59R,0.06299X0.03937*%
%ADD60C,0.03937*%
%ADD61O,0.04724X0.02362*%
%ADD62C,0.02863*%
%ADD63R,0.02769X0.08674*%
%ADD64C,0.04331*%
%ADD65C,0.06800*%
%ADD66R,0.06800X0.06800*%
%ADD67C,0.00800*%
%ADD68C,0.06706*%
%ADD69R,0.06706X0.06706*%
%ADD70O,0.08674X0.12611*%
%ADD71C,0.10642*%
%ADD72C,0.08674*%
%ADD73R,0.06706X0.06706*%
%ADD74R,0.05524X0.07493*%
D61*
X549786Y436432D02*
G03*
X540095Y432343I183J-13963D01*
G01*
X559843D02*
G03*
X549786Y436432I-9874J-9874D01*
G01*
X540126Y412627D02*
G03*
X559874Y412627I9874J9874D01*
G01*
X260127Y507374D02*
G03*
X260127Y487626I9874J-9874D01*
G01*
X279843Y487657D02*
G03*
X279843Y507405I-9874J9874D01*
G01*
X239126Y380627D02*
G03*
X258874Y380627I9874J9874D01*
G01*
X258843Y400343D02*
G03*
X239095Y400343I-9874J-9874D01*
G01*
X567373Y487626D02*
G03*
X567373Y507374I-9874J9874D01*
G01*
X547657Y507343D02*
G03*
X547657Y487595I9874J-9874D01*
G01*
X239126Y447127D02*
G03*
X258874Y447127I9874J9874D01*
G01*
X609469Y436433D02*
G03*
X599595Y432343I0J-13964D01*
G01*
X619343D02*
G03*
X609469Y436433I-9874J-9874D01*
G01*
X599626Y412627D02*
G03*
X619374Y412627I9874J9874D01*
G01*
X273126Y412127D02*
G03*
X292874Y412127I9874J9874D01*
G01*
X292843Y431843D02*
G03*
X273095Y431843I-9874J-9874D01*
G01*
X576207Y404249D02*
G03*
X568595Y400343I2262J-13780D01*
G01*
X588343D02*
G03*
X576207Y404249I-9874J-9874D01*
G01*
X568626Y380627D02*
G03*
X588374Y380627I9874J9874D01*
G01*
X219850Y408406D02*
G03*
X224874Y411627I-4849J13095D01*
G01*
X205126D02*
G03*
X219850Y408406I9874J9874D01*
G01*
X214969Y435433D02*
G03*
X205095Y431343I0J-13964D01*
G01*
X224843D02*
G03*
X214969Y435433I-9874J-9874D01*
G01*
X258843Y466843D02*
G03*
X249152Y470932I-9874J-9874D01*
G01*
D02*
G03*
X239095Y466843I-183J-13963D01*
G01*
X568626Y445127D02*
G03*
X588374Y445127I9874J9874D01*
G01*
X588343Y464843D02*
G03*
X568595Y464843I-9874J-9874D01*
G01*
D62*
X549969Y436249D02*
D03*
Y408296D02*
D03*
X283749Y497531D02*
D03*
X255796D02*
D03*
X248969Y404249D02*
D03*
Y376296D02*
D03*
X543751Y497469D02*
D03*
X571704D02*
D03*
X248969Y470749D02*
D03*
Y442796D02*
D03*
X609469Y436249D02*
D03*
Y408296D02*
D03*
X282969Y435749D02*
D03*
Y407796D02*
D03*
X578469Y404249D02*
D03*
Y376296D02*
D03*
X214969Y435249D02*
D03*
Y407296D02*
D03*
X578469Y468749D02*
D03*
Y440796D02*
D03*
D63*
X363319Y364256D02*
D03*
X359382D02*
D03*
X355445D02*
D03*
X351508D02*
D03*
X347571D02*
D03*
X343634D02*
D03*
X367256D02*
D03*
X371193D02*
D03*
X375130D02*
D03*
X379067D02*
D03*
X383004D02*
D03*
X390878D02*
D03*
X386941D02*
D03*
X442059D02*
D03*
X445996D02*
D03*
X449933D02*
D03*
X461744D02*
D03*
X457807D02*
D03*
X453870D02*
D03*
X473555D02*
D03*
X469618D02*
D03*
X465681D02*
D03*
X485366D02*
D03*
X481429D02*
D03*
X477492D02*
D03*
X430248D02*
D03*
X434185D02*
D03*
X438122D02*
D03*
X418437D02*
D03*
X422374D02*
D03*
X426311D02*
D03*
X406626D02*
D03*
X410563D02*
D03*
X414500D02*
D03*
X402689D02*
D03*
X398752D02*
D03*
X394815D02*
D03*
D64*
X560237Y431556D02*
Y432343D01*
X539764Y431556D02*
Y432343D01*
X539733Y412627D02*
Y428375D01*
X560205Y412627D02*
Y428375D01*
X549969Y411871D02*
Y436249D01*
X546426Y409477D02*
Y432343D01*
X553512Y409871D02*
Y432343D01*
X543110Y414232D02*
Y434280D01*
X556890Y414232D02*
Y433887D01*
X279056Y487263D02*
X279843D01*
X279056Y507736D02*
X279843D01*
X260127Y507767D02*
X275875D01*
X260127Y487295D02*
X275875D01*
X259371Y497531D02*
X283749D01*
X256977Y501074D02*
X279843D01*
X257371Y493988D02*
X279843D01*
X261732Y504390D02*
X281780D01*
X261732Y490610D02*
X281387D01*
X259237Y399556D02*
Y400343D01*
X238764Y399556D02*
Y400343D01*
X238733Y380627D02*
Y396375D01*
X259205Y380627D02*
Y396375D01*
X248969Y379871D02*
Y404249D01*
X245426Y377477D02*
Y400343D01*
X252512Y377871D02*
Y400343D01*
X242110Y382232D02*
Y402280D01*
X255890Y382232D02*
Y401887D01*
X547657Y507737D02*
X548444D01*
X547657Y487264D02*
X548444D01*
X551625Y487233D02*
X567373D01*
X551625Y507705D02*
X567373D01*
X543751Y497469D02*
X568129D01*
X547657Y493926D02*
X570523D01*
X547657Y501012D02*
X570129D01*
X545720Y490610D02*
X565768D01*
X546113Y504390D02*
X565768D01*
X259237Y466056D02*
Y466843D01*
X238764Y466056D02*
Y466843D01*
X238733Y447127D02*
Y462875D01*
X259205Y447127D02*
Y462875D01*
X248969Y446371D02*
Y470749D01*
X245426Y443977D02*
Y466843D01*
X252512Y444371D02*
Y466843D01*
X242110Y448732D02*
Y468780D01*
X255890Y448732D02*
Y468387D01*
X619737Y431556D02*
Y432343D01*
X599264Y431556D02*
Y432343D01*
X599233Y412627D02*
Y428375D01*
X619705Y412627D02*
Y428375D01*
X609469Y411871D02*
Y436249D01*
X605926Y409477D02*
Y432343D01*
X613012Y409871D02*
Y432343D01*
X602610Y414232D02*
Y434280D01*
X616390Y414232D02*
Y433887D01*
X293237Y431056D02*
Y431843D01*
X272764Y431056D02*
Y431843D01*
X272733Y412127D02*
Y427875D01*
X293205Y412127D02*
Y427875D01*
X282969Y411371D02*
Y435749D01*
X279426Y408977D02*
Y431843D01*
X286512Y409371D02*
Y431843D01*
X276110Y413732D02*
Y433780D01*
X289890Y413732D02*
Y433387D01*
X588737Y399556D02*
Y400343D01*
X568264Y399556D02*
Y400343D01*
X568233Y380627D02*
Y396375D01*
X588705Y380627D02*
Y396375D01*
X578469Y379871D02*
Y404249D01*
X574926Y377477D02*
Y400343D01*
X582012Y377871D02*
Y400343D01*
X571610Y382232D02*
Y402280D01*
X585390Y382232D02*
Y401887D01*
X225237Y430556D02*
Y431343D01*
X204764Y430556D02*
Y431343D01*
X204733Y411627D02*
Y427375D01*
X225205Y411627D02*
Y427375D01*
X214969Y410871D02*
Y435249D01*
X211426Y408477D02*
Y431343D01*
X218512Y408871D02*
Y431343D01*
X208110Y413232D02*
Y433280D01*
X221890Y413232D02*
Y432887D01*
X588737Y464056D02*
Y464843D01*
X568264Y464056D02*
Y464843D01*
X568233Y445127D02*
Y460875D01*
X588705Y445127D02*
Y460875D01*
X578469Y444371D02*
Y468749D01*
X574926Y441977D02*
Y464843D01*
X582012Y442371D02*
Y464843D01*
X571610Y446732D02*
Y466780D01*
X585390Y446732D02*
Y466387D01*
D65*
X623500Y362563D02*
D03*
X275126Y311000D02*
D03*
X290874D02*
D03*
X283000D02*
D03*
D66*
X623500Y370437D02*
D03*
D67*
X611000Y499500D02*
D03*
X619000Y311000D02*
D03*
X210500D02*
D03*
X283500Y384000D02*
D03*
X545500D02*
D03*
X220500Y393000D02*
D03*
X278500Y449000D02*
D03*
X589500Y432500D02*
D03*
X570000Y410500D02*
D03*
X290642Y495504D02*
D03*
X307965D02*
D03*
X538500Y507098D02*
D03*
Y485445D02*
D03*
X303870Y319374D02*
D03*
Y504413D02*
D03*
X525130Y319374D02*
D03*
Y504413D02*
D03*
D68*
X209500Y351500D02*
D03*
X233000Y311000D02*
D03*
D69*
X209500Y361500D02*
D03*
D70*
X298748Y311000D02*
D03*
X267252D02*
D03*
D71*
X554032Y297878D02*
D03*
X593402D02*
D03*
D72*
X557969Y336854D02*
D03*
X589465D02*
D03*
X573717Y337248D02*
D03*
D73*
X243000Y311000D02*
D03*
D74*
X318831Y363469D02*
D03*
X510169Y363469D02*
D03*
M02*
