G04 (created by PCBNEW (22-Jun-2014 BZR 4027)-stable) date 2014年08月05日 19時04分14秒*
%MOIN*%
G04 Gerber Fmt 3.4, Leading zero omitted, Abs format*
%FSLAX34Y34*%
G01*
G70*
G90*
G04 APERTURE LIST*
%ADD10C,0.00393701*%
%ADD11R,0.055X0.055*%
%ADD12C,0.055*%
%ADD13R,0.055X0.035*%
%ADD14R,0.035X0.055*%
%ADD15R,0.016X0.05*%
%ADD16C,0.06*%
%ADD17C,0.1063*%
%ADD18C,0.16*%
%ADD19C,0.066*%
%ADD20C,0.035*%
%ADD21C,0.02*%
%ADD22C,0.015*%
%ADD23C,0.01*%
G04 APERTURE END LIST*
G54D10*
G54D11*
X73250Y-52000D03*
G54D12*
X73250Y-53000D03*
X73250Y-54000D03*
X73250Y-55000D03*
X73250Y-56000D03*
X73250Y-57000D03*
X73250Y-58000D03*
X73250Y-59000D03*
X73250Y-60000D03*
X73250Y-61000D03*
G54D11*
X85250Y-53750D03*
G54D12*
X85250Y-54750D03*
X85250Y-55750D03*
X85250Y-56750D03*
X85250Y-57750D03*
X85250Y-58750D03*
X85250Y-59750D03*
G54D13*
X77500Y-63125D03*
X77500Y-63875D03*
X76250Y-55875D03*
X76250Y-55125D03*
G54D14*
X78375Y-52500D03*
X79125Y-52500D03*
G54D13*
X78000Y-57875D03*
X78000Y-58625D03*
G54D15*
X80900Y-53850D03*
X80650Y-53850D03*
X80390Y-53850D03*
X80130Y-53850D03*
X79880Y-53850D03*
X79620Y-53850D03*
X79360Y-53850D03*
X79110Y-53850D03*
X78850Y-53850D03*
X78600Y-53850D03*
X78340Y-53850D03*
X78080Y-53850D03*
X77830Y-53850D03*
X77570Y-53850D03*
X77570Y-56650D03*
X77830Y-56650D03*
X78070Y-56650D03*
X78340Y-56650D03*
X78600Y-56650D03*
X78850Y-56650D03*
X79110Y-56650D03*
X79360Y-56650D03*
X79620Y-56650D03*
X79880Y-56650D03*
X80130Y-56650D03*
X80390Y-56650D03*
X80650Y-56650D03*
X80900Y-56650D03*
G54D16*
X79000Y-63150D03*
X80000Y-63150D03*
X80000Y-63937D03*
X79000Y-63937D03*
G54D17*
X77138Y-65000D03*
X81862Y-65000D03*
G54D13*
X75750Y-57625D03*
X75750Y-58375D03*
G54D12*
X74919Y-52000D03*
X74919Y-55150D03*
X74919Y-56724D03*
X74919Y-55937D03*
X74919Y-53575D03*
X74919Y-54362D03*
X74919Y-52787D03*
X74919Y-58299D03*
X74919Y-59087D03*
X74919Y-57512D03*
X83581Y-57512D03*
X83581Y-59087D03*
X83581Y-58299D03*
X83581Y-52787D03*
X83581Y-54362D03*
X83581Y-53575D03*
X83581Y-55937D03*
X83581Y-56724D03*
X83581Y-55150D03*
X83581Y-52000D03*
G54D18*
X85250Y-52250D03*
X85250Y-65500D03*
X73000Y-65500D03*
G54D12*
X83250Y-64000D03*
X85250Y-64000D03*
X83250Y-61000D03*
X85250Y-61000D03*
G54D19*
X75250Y-63000D03*
X76250Y-63000D03*
G54D14*
X76125Y-61750D03*
X75375Y-61750D03*
G54D19*
X72750Y-63000D03*
X73750Y-63000D03*
G54D20*
X77750Y-53250D03*
X80750Y-53250D03*
G54D21*
X79750Y-55000D02*
X79250Y-55000D01*
X76750Y-55000D02*
X76750Y-52750D01*
X76750Y-52750D02*
X77500Y-52000D01*
X77500Y-52000D02*
X78500Y-52000D01*
X79250Y-55000D02*
X76750Y-55000D01*
X78375Y-52500D02*
X78375Y-52000D01*
X78375Y-52000D02*
X78500Y-52000D01*
X79750Y-55000D02*
X81750Y-55000D01*
X81695Y-57805D02*
X78070Y-57805D01*
X81750Y-57750D02*
X81695Y-57805D01*
X81750Y-55000D02*
X81750Y-57750D01*
X78070Y-57805D02*
X78000Y-57875D01*
G54D22*
X78070Y-56650D02*
X78070Y-57805D01*
X78070Y-57805D02*
X78000Y-57875D01*
G54D21*
X78500Y-52000D02*
X83581Y-52000D01*
G54D22*
X80130Y-54120D02*
X80130Y-53850D01*
X79750Y-55000D02*
X80130Y-54120D01*
X76125Y-61750D02*
X77000Y-61750D01*
G54D21*
X76250Y-56250D02*
X76250Y-55875D01*
X77500Y-63125D02*
X78375Y-63125D01*
X78375Y-63125D02*
X78400Y-63150D01*
G54D22*
X78850Y-56650D02*
X78850Y-55850D01*
G54D21*
X78400Y-63150D02*
X77000Y-61750D01*
X77000Y-61750D02*
X76250Y-61000D01*
X76250Y-61000D02*
X76250Y-56250D01*
X76250Y-56250D02*
X76750Y-55750D01*
X76750Y-55750D02*
X78750Y-55750D01*
X78400Y-63150D02*
X79000Y-63150D01*
G54D22*
X78850Y-55850D02*
X78750Y-55750D01*
X78340Y-53850D02*
X78340Y-53340D01*
X78250Y-53250D02*
X77750Y-53250D01*
X78340Y-53340D02*
X78250Y-53250D01*
G54D21*
X74919Y-58299D02*
X74919Y-58331D01*
X74919Y-58331D02*
X73250Y-60000D01*
G54D22*
X77570Y-56650D02*
X77350Y-56650D01*
X79500Y-63750D02*
X80000Y-63937D01*
X79500Y-60750D02*
X79500Y-63750D01*
X79000Y-60250D02*
X79500Y-60750D01*
X77250Y-60250D02*
X79000Y-60250D01*
X76750Y-59750D02*
X77250Y-60250D01*
X76750Y-57250D02*
X76750Y-59750D01*
X77350Y-56650D02*
X76750Y-57250D01*
X77250Y-59500D02*
X80000Y-59500D01*
X77830Y-56920D02*
X77250Y-57500D01*
X77250Y-57500D02*
X77250Y-59500D01*
X77830Y-56650D02*
X77830Y-56920D01*
X80000Y-59500D02*
X80000Y-63150D01*
X80650Y-53850D02*
X80650Y-54400D01*
X82750Y-57468D02*
X83581Y-58299D01*
X82750Y-55250D02*
X82750Y-57468D01*
X82000Y-54500D02*
X82750Y-55250D01*
X80750Y-54500D02*
X82000Y-54500D01*
X80650Y-54400D02*
X80750Y-54500D01*
G54D21*
X83581Y-58299D02*
X84799Y-58299D01*
X84799Y-58299D02*
X85250Y-58750D01*
G54D22*
X85250Y-64000D02*
X85250Y-61000D01*
X85250Y-54750D02*
X85750Y-55250D01*
X85750Y-61000D02*
X85250Y-61000D01*
X85750Y-55250D02*
X85750Y-61000D01*
G54D21*
X83581Y-55150D02*
X84850Y-55150D01*
X84850Y-55150D02*
X85250Y-54750D01*
G54D22*
X80390Y-53850D02*
X80390Y-53360D01*
X80500Y-53250D02*
X80750Y-53250D01*
X80390Y-53360D02*
X80500Y-53250D01*
G54D21*
X74919Y-55150D02*
X74100Y-55150D01*
X74100Y-55150D02*
X73250Y-56000D01*
G54D22*
X79880Y-53850D02*
X79880Y-53370D01*
X80463Y-52787D02*
X83581Y-52787D01*
X79880Y-53370D02*
X80463Y-52787D01*
X80900Y-53850D02*
X81250Y-53500D01*
X83506Y-53500D02*
X83581Y-53575D01*
X81250Y-53500D02*
X83506Y-53500D01*
G54D21*
X74919Y-59087D02*
X74919Y-59331D01*
X74919Y-59331D02*
X73250Y-61000D01*
X83581Y-56724D02*
X85224Y-56724D01*
X85224Y-56724D02*
X85250Y-56750D01*
X74919Y-56724D02*
X74526Y-56724D01*
X74526Y-56724D02*
X73250Y-58000D01*
X74919Y-55937D02*
X74313Y-55937D01*
X74313Y-55937D02*
X73250Y-57000D01*
X74919Y-54362D02*
X73888Y-54362D01*
X73888Y-54362D02*
X73250Y-55000D01*
X74919Y-53575D02*
X73675Y-53575D01*
X73675Y-53575D02*
X73250Y-54000D01*
X74919Y-52787D02*
X73463Y-52787D01*
X73463Y-52787D02*
X73250Y-53000D01*
G54D22*
X75250Y-63000D02*
X75250Y-61875D01*
X75250Y-61875D02*
X75375Y-61750D01*
G54D21*
X83581Y-54362D02*
X84638Y-54362D01*
X84638Y-54362D02*
X85250Y-53750D01*
G54D22*
X75750Y-58375D02*
X75750Y-60000D01*
X73500Y-62250D02*
X72750Y-63000D01*
X75750Y-60000D02*
X73500Y-62250D01*
G54D21*
X74919Y-57512D02*
X75637Y-57512D01*
X75637Y-57512D02*
X75750Y-57625D01*
X74919Y-57512D02*
X74738Y-57512D01*
X74738Y-57512D02*
X73250Y-59000D01*
X83581Y-55937D02*
X85063Y-55937D01*
X85063Y-55937D02*
X85250Y-55750D01*
X83581Y-57512D02*
X85012Y-57512D01*
X85012Y-57512D02*
X85250Y-57750D01*
X74919Y-52000D02*
X73250Y-52000D01*
G54D10*
G36*
X83420Y-52393D02*
X83340Y-52426D01*
X83220Y-52545D01*
X83214Y-52562D01*
X80463Y-52562D01*
X80462Y-52562D01*
X80376Y-52579D01*
X80303Y-52627D01*
X80303Y-52627D01*
X79720Y-53210D01*
X79672Y-53283D01*
X79669Y-53298D01*
X79654Y-53370D01*
X79655Y-53370D01*
X79655Y-53449D01*
X79510Y-53449D01*
X79490Y-53458D01*
X79469Y-53449D01*
X79450Y-53449D01*
X79450Y-52745D01*
X79450Y-52587D01*
X79412Y-52550D01*
X79175Y-52550D01*
X79175Y-52887D01*
X79212Y-52925D01*
X79329Y-52925D01*
X79384Y-52902D01*
X79427Y-52860D01*
X79449Y-52804D01*
X79450Y-52745D01*
X79450Y-53449D01*
X79437Y-53450D01*
X79400Y-53487D01*
X79400Y-53546D01*
X79390Y-53570D01*
X79389Y-53629D01*
X79389Y-54129D01*
X79400Y-54153D01*
X79400Y-54212D01*
X79437Y-54250D01*
X79469Y-54250D01*
X79489Y-54241D01*
X79510Y-54249D01*
X79569Y-54250D01*
X79729Y-54250D01*
X79749Y-54241D01*
X79770Y-54249D01*
X79829Y-54250D01*
X79613Y-54750D01*
X79340Y-54750D01*
X79340Y-54070D01*
X79340Y-53570D01*
X79320Y-53521D01*
X79320Y-53487D01*
X79282Y-53450D01*
X79250Y-53449D01*
X79235Y-53456D01*
X79219Y-53450D01*
X79160Y-53449D01*
X79075Y-53449D01*
X79075Y-52887D01*
X79075Y-52550D01*
X78837Y-52550D01*
X78800Y-52587D01*
X78799Y-52745D01*
X78800Y-52804D01*
X78822Y-52860D01*
X78865Y-52902D01*
X78920Y-52925D01*
X79037Y-52925D01*
X79075Y-52887D01*
X79075Y-53449D01*
X79000Y-53449D01*
X78980Y-53458D01*
X78959Y-53450D01*
X78900Y-53449D01*
X78740Y-53449D01*
X78725Y-53456D01*
X78709Y-53450D01*
X78650Y-53449D01*
X78565Y-53449D01*
X78565Y-53340D01*
X78565Y-53340D01*
X78565Y-53340D01*
X78550Y-53268D01*
X78547Y-53253D01*
X78547Y-53253D01*
X78499Y-53180D01*
X78499Y-53180D01*
X78409Y-53090D01*
X78336Y-53042D01*
X78321Y-53039D01*
X78250Y-53024D01*
X78249Y-53025D01*
X77984Y-53025D01*
X77934Y-52974D01*
X77814Y-52925D01*
X77685Y-52924D01*
X77566Y-52974D01*
X77474Y-53065D01*
X77425Y-53185D01*
X77424Y-53314D01*
X77474Y-53433D01*
X77490Y-53449D01*
X77460Y-53449D01*
X77405Y-53472D01*
X77362Y-53514D01*
X77340Y-53570D01*
X77339Y-53629D01*
X77339Y-54129D01*
X77362Y-54184D01*
X77404Y-54227D01*
X77460Y-54249D01*
X77519Y-54250D01*
X77679Y-54250D01*
X77699Y-54241D01*
X77720Y-54249D01*
X77779Y-54250D01*
X77939Y-54250D01*
X77954Y-54243D01*
X77970Y-54249D01*
X78029Y-54250D01*
X78189Y-54250D01*
X78209Y-54241D01*
X78230Y-54249D01*
X78289Y-54250D01*
X78449Y-54250D01*
X78469Y-54241D01*
X78490Y-54249D01*
X78549Y-54250D01*
X78709Y-54250D01*
X78724Y-54243D01*
X78740Y-54249D01*
X78799Y-54250D01*
X78959Y-54250D01*
X78979Y-54241D01*
X79000Y-54249D01*
X79059Y-54250D01*
X79219Y-54250D01*
X79235Y-54243D01*
X79250Y-54250D01*
X79282Y-54250D01*
X79320Y-54212D01*
X79320Y-54178D01*
X79339Y-54129D01*
X79340Y-54070D01*
X79340Y-54750D01*
X79250Y-54750D01*
X77000Y-54750D01*
X77000Y-52853D01*
X77603Y-52250D01*
X78049Y-52250D01*
X78049Y-52254D01*
X78049Y-52804D01*
X78072Y-52859D01*
X78114Y-52902D01*
X78170Y-52924D01*
X78229Y-52925D01*
X78579Y-52925D01*
X78634Y-52902D01*
X78677Y-52860D01*
X78699Y-52804D01*
X78700Y-52745D01*
X78700Y-52250D01*
X78799Y-52250D01*
X78799Y-52254D01*
X78800Y-52412D01*
X78837Y-52450D01*
X79075Y-52450D01*
X79075Y-52442D01*
X79175Y-52442D01*
X79175Y-52450D01*
X79412Y-52450D01*
X79450Y-52412D01*
X79450Y-52254D01*
X79450Y-52250D01*
X83230Y-52250D01*
X83339Y-52360D01*
X83420Y-52393D01*
X83420Y-52393D01*
G37*
G54D23*
X83420Y-52393D02*
X83340Y-52426D01*
X83220Y-52545D01*
X83214Y-52562D01*
X80463Y-52562D01*
X80462Y-52562D01*
X80376Y-52579D01*
X80303Y-52627D01*
X80303Y-52627D01*
X79720Y-53210D01*
X79672Y-53283D01*
X79669Y-53298D01*
X79654Y-53370D01*
X79655Y-53370D01*
X79655Y-53449D01*
X79510Y-53449D01*
X79490Y-53458D01*
X79469Y-53449D01*
X79450Y-53449D01*
X79450Y-52745D01*
X79450Y-52587D01*
X79412Y-52550D01*
X79175Y-52550D01*
X79175Y-52887D01*
X79212Y-52925D01*
X79329Y-52925D01*
X79384Y-52902D01*
X79427Y-52860D01*
X79449Y-52804D01*
X79450Y-52745D01*
X79450Y-53449D01*
X79437Y-53450D01*
X79400Y-53487D01*
X79400Y-53546D01*
X79390Y-53570D01*
X79389Y-53629D01*
X79389Y-54129D01*
X79400Y-54153D01*
X79400Y-54212D01*
X79437Y-54250D01*
X79469Y-54250D01*
X79489Y-54241D01*
X79510Y-54249D01*
X79569Y-54250D01*
X79729Y-54250D01*
X79749Y-54241D01*
X79770Y-54249D01*
X79829Y-54250D01*
X79613Y-54750D01*
X79340Y-54750D01*
X79340Y-54070D01*
X79340Y-53570D01*
X79320Y-53521D01*
X79320Y-53487D01*
X79282Y-53450D01*
X79250Y-53449D01*
X79235Y-53456D01*
X79219Y-53450D01*
X79160Y-53449D01*
X79075Y-53449D01*
X79075Y-52887D01*
X79075Y-52550D01*
X78837Y-52550D01*
X78800Y-52587D01*
X78799Y-52745D01*
X78800Y-52804D01*
X78822Y-52860D01*
X78865Y-52902D01*
X78920Y-52925D01*
X79037Y-52925D01*
X79075Y-52887D01*
X79075Y-53449D01*
X79000Y-53449D01*
X78980Y-53458D01*
X78959Y-53450D01*
X78900Y-53449D01*
X78740Y-53449D01*
X78725Y-53456D01*
X78709Y-53450D01*
X78650Y-53449D01*
X78565Y-53449D01*
X78565Y-53340D01*
X78565Y-53340D01*
X78565Y-53340D01*
X78550Y-53268D01*
X78547Y-53253D01*
X78547Y-53253D01*
X78499Y-53180D01*
X78499Y-53180D01*
X78409Y-53090D01*
X78336Y-53042D01*
X78321Y-53039D01*
X78250Y-53024D01*
X78249Y-53025D01*
X77984Y-53025D01*
X77934Y-52974D01*
X77814Y-52925D01*
X77685Y-52924D01*
X77566Y-52974D01*
X77474Y-53065D01*
X77425Y-53185D01*
X77424Y-53314D01*
X77474Y-53433D01*
X77490Y-53449D01*
X77460Y-53449D01*
X77405Y-53472D01*
X77362Y-53514D01*
X77340Y-53570D01*
X77339Y-53629D01*
X77339Y-54129D01*
X77362Y-54184D01*
X77404Y-54227D01*
X77460Y-54249D01*
X77519Y-54250D01*
X77679Y-54250D01*
X77699Y-54241D01*
X77720Y-54249D01*
X77779Y-54250D01*
X77939Y-54250D01*
X77954Y-54243D01*
X77970Y-54249D01*
X78029Y-54250D01*
X78189Y-54250D01*
X78209Y-54241D01*
X78230Y-54249D01*
X78289Y-54250D01*
X78449Y-54250D01*
X78469Y-54241D01*
X78490Y-54249D01*
X78549Y-54250D01*
X78709Y-54250D01*
X78724Y-54243D01*
X78740Y-54249D01*
X78799Y-54250D01*
X78959Y-54250D01*
X78979Y-54241D01*
X79000Y-54249D01*
X79059Y-54250D01*
X79219Y-54250D01*
X79235Y-54243D01*
X79250Y-54250D01*
X79282Y-54250D01*
X79320Y-54212D01*
X79320Y-54178D01*
X79339Y-54129D01*
X79340Y-54070D01*
X79340Y-54750D01*
X79250Y-54750D01*
X77000Y-54750D01*
X77000Y-52853D01*
X77603Y-52250D01*
X78049Y-52250D01*
X78049Y-52254D01*
X78049Y-52804D01*
X78072Y-52859D01*
X78114Y-52902D01*
X78170Y-52924D01*
X78229Y-52925D01*
X78579Y-52925D01*
X78634Y-52902D01*
X78677Y-52860D01*
X78699Y-52804D01*
X78700Y-52745D01*
X78700Y-52250D01*
X78799Y-52250D01*
X78799Y-52254D01*
X78800Y-52412D01*
X78837Y-52450D01*
X79075Y-52450D01*
X79075Y-52442D01*
X79175Y-52442D01*
X79175Y-52450D01*
X79412Y-52450D01*
X79450Y-52412D01*
X79450Y-52254D01*
X79450Y-52250D01*
X83230Y-52250D01*
X83339Y-52360D01*
X83420Y-52393D01*
G54D10*
G36*
X86200Y-65311D02*
X86055Y-64962D01*
X85975Y-64881D01*
X85975Y-55250D01*
X85960Y-55178D01*
X85957Y-55163D01*
X85957Y-55163D01*
X85909Y-55090D01*
X85909Y-55090D01*
X85668Y-54850D01*
X85674Y-54834D01*
X85675Y-54665D01*
X85610Y-54509D01*
X85491Y-54389D01*
X85334Y-54325D01*
X85165Y-54324D01*
X85009Y-54389D01*
X84889Y-54508D01*
X84825Y-54665D01*
X84824Y-54821D01*
X84746Y-54900D01*
X83931Y-54900D01*
X83822Y-54789D01*
X83740Y-54755D01*
X83821Y-54722D01*
X83932Y-54612D01*
X84638Y-54612D01*
X84733Y-54592D01*
X84814Y-54538D01*
X85178Y-54175D01*
X85554Y-54175D01*
X85609Y-54152D01*
X85652Y-54110D01*
X85674Y-54054D01*
X85675Y-53995D01*
X85675Y-53445D01*
X85652Y-53390D01*
X85610Y-53347D01*
X85554Y-53325D01*
X85495Y-53324D01*
X84945Y-53324D01*
X84890Y-53347D01*
X84847Y-53389D01*
X84825Y-53445D01*
X84824Y-53504D01*
X84824Y-53821D01*
X84534Y-54112D01*
X83931Y-54112D01*
X83822Y-54001D01*
X83741Y-53968D01*
X83821Y-53935D01*
X83941Y-53816D01*
X84005Y-53659D01*
X84006Y-53490D01*
X83941Y-53334D01*
X83822Y-53214D01*
X83740Y-53180D01*
X83821Y-53147D01*
X83941Y-53028D01*
X84005Y-52871D01*
X84006Y-52702D01*
X83941Y-52546D01*
X83822Y-52426D01*
X83741Y-52393D01*
X83821Y-52360D01*
X83941Y-52241D01*
X84005Y-52084D01*
X84006Y-51915D01*
X83941Y-51759D01*
X83822Y-51639D01*
X83665Y-51575D01*
X83496Y-51574D01*
X83340Y-51639D01*
X83229Y-51750D01*
X78500Y-51750D01*
X78375Y-51750D01*
X77500Y-51750D01*
X77499Y-51750D01*
X77480Y-51753D01*
X77404Y-51769D01*
X77323Y-51823D01*
X77323Y-51823D01*
X76573Y-52573D01*
X76519Y-52654D01*
X76500Y-52750D01*
X76500Y-54799D01*
X76495Y-54799D01*
X76337Y-54800D01*
X76300Y-54837D01*
X76300Y-55075D01*
X76307Y-55075D01*
X76307Y-55175D01*
X76300Y-55175D01*
X76300Y-55412D01*
X76337Y-55450D01*
X76495Y-55450D01*
X76554Y-55449D01*
X76610Y-55427D01*
X76652Y-55384D01*
X76675Y-55329D01*
X76675Y-55235D01*
X76750Y-55250D01*
X79250Y-55250D01*
X79750Y-55250D01*
X81500Y-55250D01*
X81500Y-57555D01*
X81130Y-57555D01*
X81130Y-56870D01*
X81130Y-56370D01*
X81107Y-56315D01*
X81065Y-56272D01*
X81009Y-56250D01*
X80950Y-56249D01*
X80790Y-56249D01*
X80775Y-56256D01*
X80759Y-56250D01*
X80700Y-56249D01*
X80540Y-56249D01*
X80520Y-56258D01*
X80499Y-56249D01*
X80467Y-56250D01*
X80430Y-56287D01*
X80430Y-56346D01*
X80420Y-56370D01*
X80419Y-56429D01*
X80419Y-56929D01*
X80430Y-56953D01*
X80430Y-57012D01*
X80467Y-57050D01*
X80499Y-57050D01*
X80519Y-57041D01*
X80540Y-57049D01*
X80599Y-57050D01*
X80759Y-57050D01*
X80774Y-57043D01*
X80790Y-57049D01*
X80849Y-57050D01*
X81009Y-57050D01*
X81064Y-57027D01*
X81107Y-56985D01*
X81129Y-56929D01*
X81130Y-56870D01*
X81130Y-57555D01*
X80360Y-57555D01*
X80360Y-56870D01*
X80360Y-56429D01*
X80359Y-56370D01*
X80350Y-56346D01*
X80350Y-56287D01*
X80312Y-56250D01*
X80280Y-56249D01*
X80260Y-56258D01*
X80239Y-56249D01*
X80207Y-56250D01*
X80170Y-56287D01*
X80170Y-56346D01*
X80160Y-56370D01*
X80159Y-56429D01*
X80160Y-56562D01*
X80170Y-56572D01*
X80170Y-56600D01*
X80197Y-56600D01*
X80322Y-56600D01*
X80350Y-56600D01*
X80350Y-56572D01*
X80360Y-56562D01*
X80360Y-56429D01*
X80360Y-56870D01*
X80360Y-56737D01*
X80350Y-56727D01*
X80350Y-56700D01*
X80322Y-56700D01*
X80197Y-56700D01*
X80170Y-56700D01*
X80170Y-56727D01*
X80160Y-56737D01*
X80159Y-56870D01*
X80160Y-56929D01*
X80170Y-56953D01*
X80170Y-57012D01*
X80207Y-57050D01*
X80239Y-57050D01*
X80260Y-57041D01*
X80280Y-57050D01*
X80312Y-57050D01*
X80350Y-57012D01*
X80350Y-56953D01*
X80359Y-56929D01*
X80360Y-56870D01*
X80360Y-57555D01*
X80110Y-57555D01*
X80110Y-56870D01*
X80110Y-56370D01*
X80090Y-56321D01*
X80090Y-56287D01*
X80052Y-56250D01*
X80020Y-56249D01*
X80005Y-56256D01*
X79989Y-56250D01*
X79930Y-56249D01*
X79770Y-56249D01*
X79750Y-56258D01*
X79729Y-56250D01*
X79670Y-56249D01*
X79510Y-56249D01*
X79490Y-56258D01*
X79469Y-56250D01*
X79410Y-56249D01*
X79250Y-56249D01*
X79235Y-56256D01*
X79219Y-56249D01*
X79187Y-56250D01*
X79150Y-56287D01*
X79150Y-56321D01*
X79130Y-56370D01*
X79129Y-56429D01*
X79129Y-56929D01*
X79150Y-56978D01*
X79150Y-57012D01*
X79187Y-57050D01*
X79219Y-57050D01*
X79234Y-57043D01*
X79250Y-57049D01*
X79309Y-57050D01*
X79469Y-57050D01*
X79489Y-57041D01*
X79510Y-57049D01*
X79569Y-57050D01*
X79729Y-57050D01*
X79749Y-57041D01*
X79770Y-57049D01*
X79829Y-57050D01*
X79989Y-57050D01*
X80005Y-57043D01*
X80020Y-57050D01*
X80052Y-57050D01*
X80090Y-57012D01*
X80090Y-56978D01*
X80109Y-56929D01*
X80110Y-56870D01*
X80110Y-57555D01*
X78316Y-57555D01*
X78304Y-57550D01*
X78295Y-57550D01*
X78295Y-57017D01*
X78300Y-57012D01*
X78300Y-56900D01*
X78300Y-56870D01*
X78300Y-56370D01*
X78300Y-56370D01*
X78300Y-56287D01*
X78262Y-56250D01*
X78230Y-56249D01*
X78205Y-56260D01*
X78179Y-56250D01*
X78120Y-56249D01*
X77960Y-56249D01*
X77950Y-56254D01*
X77939Y-56250D01*
X77880Y-56249D01*
X77720Y-56249D01*
X77700Y-56258D01*
X77679Y-56250D01*
X77620Y-56249D01*
X77460Y-56249D01*
X77405Y-56272D01*
X77362Y-56314D01*
X77340Y-56370D01*
X77339Y-56426D01*
X77263Y-56442D01*
X77190Y-56490D01*
X77190Y-56490D01*
X76590Y-57090D01*
X76542Y-57163D01*
X76539Y-57178D01*
X76524Y-57250D01*
X76525Y-57250D01*
X76525Y-59749D01*
X76524Y-59750D01*
X76539Y-59821D01*
X76542Y-59836D01*
X76590Y-59909D01*
X77090Y-60409D01*
X77090Y-60409D01*
X77163Y-60457D01*
X77163Y-60457D01*
X77178Y-60460D01*
X77250Y-60475D01*
X77250Y-60475D01*
X77250Y-60475D01*
X78906Y-60475D01*
X79275Y-60843D01*
X79275Y-62788D01*
X79255Y-62768D01*
X79089Y-62700D01*
X78910Y-62699D01*
X78745Y-62768D01*
X78618Y-62894D01*
X78616Y-62900D01*
X78503Y-62900D01*
X77176Y-61573D01*
X77176Y-61573D01*
X76500Y-60896D01*
X76500Y-56353D01*
X76853Y-56000D01*
X78625Y-56000D01*
X78625Y-56249D01*
X78490Y-56249D01*
X78470Y-56258D01*
X78449Y-56249D01*
X78417Y-56250D01*
X78380Y-56287D01*
X78380Y-56346D01*
X78370Y-56370D01*
X78369Y-56429D01*
X78369Y-56929D01*
X78380Y-56953D01*
X78380Y-57012D01*
X78417Y-57050D01*
X78449Y-57050D01*
X78469Y-57041D01*
X78490Y-57049D01*
X78549Y-57050D01*
X78709Y-57050D01*
X78724Y-57043D01*
X78740Y-57049D01*
X78799Y-57050D01*
X78959Y-57050D01*
X78980Y-57041D01*
X79000Y-57050D01*
X79032Y-57050D01*
X79070Y-57012D01*
X79070Y-56953D01*
X79079Y-56929D01*
X79080Y-56870D01*
X79080Y-56370D01*
X79075Y-56358D01*
X79075Y-55850D01*
X79057Y-55763D01*
X79057Y-55763D01*
X79009Y-55690D01*
X79009Y-55690D01*
X78983Y-55664D01*
X78980Y-55654D01*
X78926Y-55573D01*
X78845Y-55519D01*
X78750Y-55500D01*
X76750Y-55500D01*
X76654Y-55519D01*
X76587Y-55563D01*
X76554Y-55550D01*
X76495Y-55549D01*
X76200Y-55549D01*
X76200Y-55412D01*
X76200Y-55175D01*
X76200Y-55075D01*
X76200Y-54837D01*
X76162Y-54800D01*
X76004Y-54799D01*
X75945Y-54800D01*
X75889Y-54822D01*
X75847Y-54865D01*
X75824Y-54920D01*
X75825Y-55037D01*
X75862Y-55075D01*
X76200Y-55075D01*
X76200Y-55175D01*
X75862Y-55175D01*
X75825Y-55212D01*
X75824Y-55329D01*
X75847Y-55384D01*
X75889Y-55427D01*
X75945Y-55449D01*
X76004Y-55450D01*
X76162Y-55450D01*
X76200Y-55412D01*
X76200Y-55549D01*
X75945Y-55549D01*
X75890Y-55572D01*
X75847Y-55614D01*
X75825Y-55670D01*
X75824Y-55729D01*
X75824Y-56079D01*
X75847Y-56134D01*
X75889Y-56177D01*
X75945Y-56199D01*
X76000Y-56200D01*
X76000Y-56250D01*
X76000Y-57299D01*
X75995Y-57299D01*
X75761Y-57299D01*
X75732Y-57281D01*
X75637Y-57262D01*
X75269Y-57262D01*
X75160Y-57151D01*
X75078Y-57117D01*
X75159Y-57084D01*
X75279Y-56965D01*
X75343Y-56808D01*
X75344Y-56639D01*
X75279Y-56483D01*
X75160Y-56363D01*
X75079Y-56330D01*
X75159Y-56297D01*
X75279Y-56178D01*
X75343Y-56021D01*
X75344Y-55852D01*
X75279Y-55696D01*
X75160Y-55576D01*
X75079Y-55543D01*
X75159Y-55510D01*
X75279Y-55391D01*
X75343Y-55234D01*
X75344Y-55065D01*
X75279Y-54909D01*
X75160Y-54789D01*
X75078Y-54755D01*
X75159Y-54722D01*
X75279Y-54603D01*
X75343Y-54446D01*
X75344Y-54277D01*
X75279Y-54121D01*
X75160Y-54001D01*
X75079Y-53968D01*
X75159Y-53935D01*
X75279Y-53816D01*
X75343Y-53659D01*
X75344Y-53490D01*
X75279Y-53334D01*
X75160Y-53214D01*
X75078Y-53180D01*
X75159Y-53147D01*
X75279Y-53028D01*
X75343Y-52871D01*
X75344Y-52702D01*
X75279Y-52546D01*
X75160Y-52426D01*
X75079Y-52393D01*
X75159Y-52360D01*
X75279Y-52241D01*
X75343Y-52084D01*
X75344Y-51915D01*
X75279Y-51759D01*
X75160Y-51639D01*
X75003Y-51575D01*
X74834Y-51574D01*
X74678Y-51639D01*
X74567Y-51750D01*
X73675Y-51750D01*
X73675Y-51695D01*
X73652Y-51640D01*
X73610Y-51597D01*
X73554Y-51575D01*
X73495Y-51574D01*
X72945Y-51574D01*
X72890Y-51597D01*
X72847Y-51639D01*
X72825Y-51695D01*
X72824Y-51754D01*
X72824Y-52304D01*
X72847Y-52359D01*
X72889Y-52402D01*
X72945Y-52424D01*
X73004Y-52425D01*
X73554Y-52425D01*
X73609Y-52402D01*
X73652Y-52360D01*
X73674Y-52304D01*
X73675Y-52250D01*
X74568Y-52250D01*
X74677Y-52360D01*
X74758Y-52393D01*
X74678Y-52426D01*
X74567Y-52537D01*
X73463Y-52537D01*
X73462Y-52537D01*
X73443Y-52540D01*
X73367Y-52556D01*
X73337Y-52576D01*
X73334Y-52575D01*
X73165Y-52574D01*
X73009Y-52639D01*
X72889Y-52758D01*
X72825Y-52915D01*
X72824Y-53084D01*
X72889Y-53240D01*
X73008Y-53360D01*
X73165Y-53424D01*
X73334Y-53425D01*
X73490Y-53360D01*
X73610Y-53241D01*
X73674Y-53084D01*
X73674Y-53037D01*
X74568Y-53037D01*
X74677Y-53147D01*
X74759Y-53181D01*
X74678Y-53214D01*
X74567Y-53325D01*
X73675Y-53325D01*
X73579Y-53344D01*
X73498Y-53398D01*
X73498Y-53398D01*
X73321Y-53575D01*
X73165Y-53574D01*
X73009Y-53639D01*
X72889Y-53758D01*
X72825Y-53915D01*
X72824Y-54084D01*
X72889Y-54240D01*
X73008Y-54360D01*
X73165Y-54424D01*
X73334Y-54425D01*
X73490Y-54360D01*
X73610Y-54241D01*
X73674Y-54084D01*
X73675Y-53928D01*
X73778Y-53825D01*
X74568Y-53825D01*
X74677Y-53935D01*
X74758Y-53968D01*
X74678Y-54001D01*
X74567Y-54112D01*
X73888Y-54112D01*
X73792Y-54131D01*
X73711Y-54185D01*
X73321Y-54575D01*
X73165Y-54574D01*
X73009Y-54639D01*
X72889Y-54758D01*
X72825Y-54915D01*
X72824Y-55084D01*
X72889Y-55240D01*
X73008Y-55360D01*
X73165Y-55424D01*
X73334Y-55425D01*
X73490Y-55360D01*
X73610Y-55241D01*
X73674Y-55084D01*
X73675Y-54928D01*
X73991Y-54612D01*
X74568Y-54612D01*
X74677Y-54722D01*
X74759Y-54756D01*
X74678Y-54789D01*
X74567Y-54900D01*
X74100Y-54900D01*
X74004Y-54919D01*
X73923Y-54973D01*
X73321Y-55575D01*
X73165Y-55574D01*
X73009Y-55639D01*
X72889Y-55758D01*
X72825Y-55915D01*
X72824Y-56084D01*
X72889Y-56240D01*
X73008Y-56360D01*
X73165Y-56424D01*
X73334Y-56425D01*
X73490Y-56360D01*
X73610Y-56241D01*
X73674Y-56084D01*
X73675Y-55928D01*
X74203Y-55400D01*
X74568Y-55400D01*
X74677Y-55510D01*
X74758Y-55543D01*
X74678Y-55576D01*
X74567Y-55687D01*
X74313Y-55687D01*
X74312Y-55687D01*
X74293Y-55690D01*
X74217Y-55706D01*
X74136Y-55760D01*
X74136Y-55760D01*
X73321Y-56575D01*
X73165Y-56574D01*
X73009Y-56639D01*
X72889Y-56758D01*
X72825Y-56915D01*
X72824Y-57084D01*
X72889Y-57240D01*
X73008Y-57360D01*
X73165Y-57424D01*
X73334Y-57425D01*
X73490Y-57360D01*
X73610Y-57241D01*
X73674Y-57084D01*
X73675Y-56928D01*
X74416Y-56187D01*
X74568Y-56187D01*
X74677Y-56297D01*
X74758Y-56330D01*
X74678Y-56363D01*
X74567Y-56474D01*
X74526Y-56474D01*
X74525Y-56474D01*
X74506Y-56477D01*
X74430Y-56493D01*
X74349Y-56547D01*
X74349Y-56547D01*
X73321Y-57575D01*
X73165Y-57574D01*
X73009Y-57639D01*
X72889Y-57758D01*
X72825Y-57915D01*
X72824Y-58084D01*
X72889Y-58240D01*
X73008Y-58360D01*
X73165Y-58424D01*
X73334Y-58425D01*
X73490Y-58360D01*
X73610Y-58241D01*
X73674Y-58084D01*
X73675Y-57928D01*
X74598Y-57004D01*
X74677Y-57084D01*
X74759Y-57118D01*
X74678Y-57151D01*
X74558Y-57270D01*
X74511Y-57384D01*
X73321Y-58575D01*
X73165Y-58574D01*
X73009Y-58639D01*
X72889Y-58758D01*
X72825Y-58915D01*
X72824Y-59084D01*
X72889Y-59240D01*
X73008Y-59360D01*
X73165Y-59424D01*
X73334Y-59425D01*
X73490Y-59360D01*
X73610Y-59241D01*
X73674Y-59084D01*
X73675Y-58928D01*
X74715Y-57887D01*
X74758Y-57905D01*
X74678Y-57938D01*
X74558Y-58057D01*
X74494Y-58214D01*
X74493Y-58383D01*
X74499Y-58396D01*
X73321Y-59575D01*
X73165Y-59574D01*
X73009Y-59639D01*
X72889Y-59758D01*
X72825Y-59915D01*
X72824Y-60084D01*
X72889Y-60240D01*
X73008Y-60360D01*
X73165Y-60424D01*
X73334Y-60425D01*
X73490Y-60360D01*
X73610Y-60241D01*
X73674Y-60084D01*
X73675Y-59928D01*
X74493Y-59109D01*
X74493Y-59171D01*
X74558Y-59327D01*
X74563Y-59332D01*
X73321Y-60575D01*
X73165Y-60574D01*
X73009Y-60639D01*
X72889Y-60758D01*
X72825Y-60915D01*
X72824Y-61084D01*
X72889Y-61240D01*
X73008Y-61360D01*
X73165Y-61424D01*
X73334Y-61425D01*
X73490Y-61360D01*
X73610Y-61241D01*
X73674Y-61084D01*
X73675Y-60928D01*
X75095Y-59507D01*
X75095Y-59507D01*
X75095Y-59507D01*
X75127Y-59460D01*
X75159Y-59447D01*
X75279Y-59328D01*
X75343Y-59171D01*
X75344Y-59002D01*
X75279Y-58846D01*
X75160Y-58726D01*
X75078Y-58692D01*
X75159Y-58659D01*
X75279Y-58540D01*
X75324Y-58429D01*
X75324Y-58579D01*
X75347Y-58634D01*
X75389Y-58677D01*
X75445Y-58699D01*
X75504Y-58700D01*
X75525Y-58700D01*
X75525Y-59906D01*
X73340Y-62090D01*
X73340Y-62090D01*
X72892Y-62539D01*
X72845Y-62520D01*
X72654Y-62519D01*
X72478Y-62592D01*
X72343Y-62727D01*
X72270Y-62904D01*
X72269Y-63095D01*
X72342Y-63271D01*
X72477Y-63406D01*
X72654Y-63479D01*
X72845Y-63480D01*
X73021Y-63407D01*
X73156Y-63272D01*
X73229Y-63095D01*
X73230Y-62904D01*
X73210Y-62857D01*
X73373Y-62694D01*
X73397Y-62717D01*
X73326Y-62754D01*
X73264Y-62934D01*
X73276Y-63125D01*
X73326Y-63245D01*
X73397Y-63282D01*
X73679Y-63000D01*
X73673Y-62994D01*
X73744Y-62923D01*
X73750Y-62929D01*
X74032Y-62647D01*
X73995Y-62576D01*
X73815Y-62514D01*
X73624Y-62526D01*
X73504Y-62576D01*
X73467Y-62647D01*
X73444Y-62623D01*
X73659Y-62409D01*
X73659Y-62409D01*
X73659Y-62409D01*
X75909Y-60159D01*
X75909Y-60159D01*
X75909Y-60159D01*
X75957Y-60086D01*
X75975Y-60000D01*
X75975Y-58700D01*
X76000Y-58700D01*
X76000Y-61000D01*
X76019Y-61095D01*
X76073Y-61176D01*
X76221Y-61324D01*
X75920Y-61324D01*
X75865Y-61347D01*
X75822Y-61389D01*
X75800Y-61445D01*
X75799Y-61504D01*
X75799Y-62054D01*
X75822Y-62109D01*
X75864Y-62152D01*
X75920Y-62174D01*
X75979Y-62175D01*
X76329Y-62175D01*
X76384Y-62152D01*
X76427Y-62110D01*
X76449Y-62054D01*
X76450Y-61995D01*
X76450Y-61975D01*
X76871Y-61975D01*
X77696Y-62799D01*
X77195Y-62799D01*
X77140Y-62822D01*
X77097Y-62864D01*
X77075Y-62920D01*
X77074Y-62979D01*
X77074Y-63329D01*
X77097Y-63384D01*
X77139Y-63427D01*
X77195Y-63449D01*
X77254Y-63450D01*
X77804Y-63450D01*
X77859Y-63427D01*
X77902Y-63385D01*
X77906Y-63375D01*
X78295Y-63375D01*
X78295Y-63375D01*
X78295Y-63375D01*
X78304Y-63380D01*
X78304Y-63380D01*
X78400Y-63400D01*
X78616Y-63400D01*
X78618Y-63404D01*
X78744Y-63531D01*
X78770Y-63542D01*
X78739Y-63605D01*
X79000Y-63866D01*
X79005Y-63860D01*
X79076Y-63931D01*
X79070Y-63937D01*
X79331Y-64197D01*
X79398Y-64164D01*
X79455Y-63994D01*
X79453Y-63972D01*
X79549Y-64008D01*
X79549Y-64026D01*
X79618Y-64191D01*
X79744Y-64318D01*
X79910Y-64386D01*
X80089Y-64387D01*
X80254Y-64318D01*
X80381Y-64192D01*
X80449Y-64026D01*
X80450Y-63847D01*
X80381Y-63682D01*
X80255Y-63555D01*
X80225Y-63543D01*
X80254Y-63531D01*
X80381Y-63405D01*
X80449Y-63239D01*
X80450Y-63060D01*
X80381Y-62895D01*
X80255Y-62768D01*
X80225Y-62756D01*
X80225Y-59500D01*
X80207Y-59413D01*
X80159Y-59340D01*
X80086Y-59292D01*
X80000Y-59275D01*
X78425Y-59275D01*
X78425Y-58829D01*
X78425Y-58420D01*
X78402Y-58365D01*
X78360Y-58322D01*
X78304Y-58300D01*
X78245Y-58299D01*
X78087Y-58300D01*
X78050Y-58337D01*
X78050Y-58575D01*
X78387Y-58575D01*
X78425Y-58537D01*
X78425Y-58420D01*
X78425Y-58829D01*
X78425Y-58712D01*
X78387Y-58675D01*
X78050Y-58675D01*
X78050Y-58912D01*
X78087Y-58950D01*
X78245Y-58950D01*
X78304Y-58949D01*
X78360Y-58927D01*
X78402Y-58884D01*
X78425Y-58829D01*
X78425Y-59275D01*
X77950Y-59275D01*
X77950Y-58912D01*
X77950Y-58675D01*
X77950Y-58575D01*
X77950Y-58337D01*
X77912Y-58300D01*
X77754Y-58299D01*
X77695Y-58300D01*
X77639Y-58322D01*
X77597Y-58365D01*
X77574Y-58420D01*
X77575Y-58537D01*
X77612Y-58575D01*
X77950Y-58575D01*
X77950Y-58675D01*
X77612Y-58675D01*
X77575Y-58712D01*
X77574Y-58829D01*
X77597Y-58884D01*
X77639Y-58927D01*
X77695Y-58949D01*
X77754Y-58950D01*
X77912Y-58950D01*
X77950Y-58912D01*
X77950Y-59275D01*
X77475Y-59275D01*
X77475Y-57593D01*
X77845Y-57223D01*
X77845Y-57549D01*
X77695Y-57549D01*
X77640Y-57572D01*
X77597Y-57614D01*
X77575Y-57670D01*
X77574Y-57729D01*
X77574Y-58079D01*
X77597Y-58134D01*
X77639Y-58177D01*
X77695Y-58199D01*
X77754Y-58200D01*
X78304Y-58200D01*
X78359Y-58177D01*
X78402Y-58135D01*
X78424Y-58079D01*
X78424Y-58055D01*
X81695Y-58055D01*
X81790Y-58035D01*
X81871Y-57981D01*
X81926Y-57926D01*
X81926Y-57926D01*
X81926Y-57926D01*
X81980Y-57845D01*
X81980Y-57845D01*
X82000Y-57750D01*
X82000Y-55000D01*
X81980Y-54904D01*
X81926Y-54823D01*
X81845Y-54769D01*
X81750Y-54750D01*
X80103Y-54750D01*
X80319Y-54250D01*
X80339Y-54250D01*
X80425Y-54250D01*
X80425Y-54399D01*
X80424Y-54400D01*
X80439Y-54471D01*
X80442Y-54486D01*
X80490Y-54559D01*
X80590Y-54659D01*
X80590Y-54659D01*
X80663Y-54707D01*
X80663Y-54707D01*
X80750Y-54725D01*
X81906Y-54725D01*
X82525Y-55343D01*
X82525Y-57467D01*
X82524Y-57468D01*
X82539Y-57539D01*
X82542Y-57554D01*
X82590Y-57627D01*
X83162Y-58198D01*
X83156Y-58214D01*
X83155Y-58383D01*
X83220Y-58539D01*
X83339Y-58659D01*
X83414Y-58690D01*
X83368Y-58709D01*
X83338Y-58773D01*
X83581Y-59016D01*
X83823Y-58773D01*
X83793Y-58709D01*
X83741Y-58692D01*
X83821Y-58659D01*
X83932Y-58549D01*
X84695Y-58549D01*
X84825Y-58678D01*
X84824Y-58834D01*
X84889Y-58990D01*
X85008Y-59110D01*
X85165Y-59174D01*
X85334Y-59175D01*
X85490Y-59110D01*
X85525Y-59075D01*
X85525Y-59413D01*
X85520Y-59408D01*
X85492Y-59436D01*
X85462Y-59372D01*
X85301Y-59319D01*
X85133Y-59332D01*
X85037Y-59372D01*
X85007Y-59436D01*
X85250Y-59679D01*
X85255Y-59673D01*
X85326Y-59744D01*
X85320Y-59750D01*
X85326Y-59755D01*
X85255Y-59826D01*
X85250Y-59820D01*
X85179Y-59891D01*
X85179Y-59750D01*
X84936Y-59507D01*
X84872Y-59537D01*
X84819Y-59698D01*
X84832Y-59866D01*
X84872Y-59962D01*
X84936Y-59992D01*
X85179Y-59750D01*
X85179Y-59891D01*
X85007Y-60063D01*
X85037Y-60127D01*
X85198Y-60180D01*
X85366Y-60167D01*
X85462Y-60127D01*
X85492Y-60063D01*
X85492Y-60063D01*
X85520Y-60091D01*
X85525Y-60086D01*
X85525Y-60673D01*
X85492Y-60641D01*
X85491Y-60639D01*
X85334Y-60575D01*
X85165Y-60574D01*
X85009Y-60639D01*
X84889Y-60758D01*
X84825Y-60915D01*
X84824Y-61084D01*
X84889Y-61240D01*
X85008Y-61360D01*
X85025Y-61366D01*
X85025Y-63633D01*
X85009Y-63639D01*
X84889Y-63758D01*
X84825Y-63915D01*
X84824Y-64084D01*
X84889Y-64240D01*
X85008Y-64360D01*
X85165Y-64424D01*
X85334Y-64425D01*
X85490Y-64360D01*
X85610Y-64241D01*
X85674Y-64084D01*
X85675Y-63915D01*
X85610Y-63759D01*
X85491Y-63639D01*
X85475Y-63633D01*
X85475Y-61366D01*
X85490Y-61360D01*
X85610Y-61241D01*
X85616Y-61225D01*
X85750Y-61225D01*
X85836Y-61207D01*
X85909Y-61159D01*
X85957Y-61086D01*
X85975Y-61000D01*
X85975Y-55250D01*
X85975Y-55250D01*
X85975Y-55250D01*
X85975Y-64881D01*
X85788Y-64695D01*
X85439Y-64550D01*
X85061Y-64549D01*
X84712Y-64694D01*
X84445Y-64961D01*
X84300Y-65310D01*
X84299Y-65688D01*
X84444Y-66037D01*
X84711Y-66304D01*
X85060Y-66449D01*
X85249Y-66450D01*
X84011Y-66450D01*
X84011Y-59138D01*
X83998Y-58970D01*
X83958Y-58874D01*
X83894Y-58844D01*
X83651Y-59087D01*
X83894Y-59329D01*
X83958Y-59299D01*
X84011Y-59138D01*
X84011Y-66450D01*
X83823Y-66450D01*
X83823Y-59400D01*
X83581Y-59157D01*
X83510Y-59228D01*
X83510Y-59087D01*
X83267Y-58844D01*
X83203Y-58874D01*
X83150Y-59035D01*
X83163Y-59203D01*
X83203Y-59299D01*
X83267Y-59329D01*
X83510Y-59087D01*
X83510Y-59228D01*
X83338Y-59400D01*
X83368Y-59464D01*
X83529Y-59517D01*
X83697Y-59504D01*
X83793Y-59464D01*
X83823Y-59400D01*
X83823Y-66450D01*
X83680Y-66450D01*
X83680Y-64051D01*
X83680Y-61051D01*
X83667Y-60883D01*
X83627Y-60787D01*
X83563Y-60757D01*
X83492Y-60828D01*
X83492Y-60686D01*
X83462Y-60622D01*
X83301Y-60569D01*
X83133Y-60582D01*
X83037Y-60622D01*
X83007Y-60686D01*
X83250Y-60929D01*
X83492Y-60686D01*
X83492Y-60828D01*
X83320Y-61000D01*
X83563Y-61242D01*
X83627Y-61212D01*
X83680Y-61051D01*
X83680Y-64051D01*
X83667Y-63883D01*
X83627Y-63787D01*
X83563Y-63757D01*
X83492Y-63828D01*
X83492Y-63686D01*
X83492Y-61313D01*
X83250Y-61070D01*
X83179Y-61141D01*
X83179Y-61000D01*
X82936Y-60757D01*
X82872Y-60787D01*
X82819Y-60948D01*
X82832Y-61116D01*
X82872Y-61212D01*
X82936Y-61242D01*
X83179Y-61000D01*
X83179Y-61141D01*
X83007Y-61313D01*
X83037Y-61377D01*
X83198Y-61430D01*
X83366Y-61417D01*
X83462Y-61377D01*
X83492Y-61313D01*
X83492Y-63686D01*
X83462Y-63622D01*
X83301Y-63569D01*
X83133Y-63582D01*
X83037Y-63622D01*
X83007Y-63686D01*
X83250Y-63929D01*
X83492Y-63686D01*
X83492Y-63828D01*
X83320Y-64000D01*
X83563Y-64242D01*
X83627Y-64212D01*
X83680Y-64051D01*
X83680Y-66450D01*
X83492Y-66450D01*
X83492Y-64313D01*
X83250Y-64070D01*
X83179Y-64141D01*
X83179Y-64000D01*
X82936Y-63757D01*
X82872Y-63787D01*
X82819Y-63948D01*
X82832Y-64116D01*
X82872Y-64212D01*
X82936Y-64242D01*
X83179Y-64000D01*
X83179Y-64141D01*
X83007Y-64313D01*
X83037Y-64377D01*
X83198Y-64430D01*
X83366Y-64417D01*
X83462Y-64377D01*
X83492Y-64313D01*
X83492Y-66450D01*
X82547Y-66450D01*
X82547Y-65113D01*
X82538Y-64842D01*
X82452Y-64633D01*
X82360Y-64571D01*
X82290Y-64642D01*
X82290Y-64501D01*
X82228Y-64409D01*
X81975Y-64314D01*
X81704Y-64323D01*
X81495Y-64409D01*
X81433Y-64501D01*
X81862Y-64929D01*
X82290Y-64501D01*
X82290Y-64642D01*
X81932Y-65000D01*
X82360Y-65428D01*
X82452Y-65366D01*
X82547Y-65113D01*
X82547Y-66450D01*
X82290Y-66450D01*
X82290Y-65498D01*
X81862Y-65070D01*
X81791Y-65141D01*
X81791Y-65000D01*
X81363Y-64571D01*
X81271Y-64633D01*
X81176Y-64886D01*
X81185Y-65157D01*
X81271Y-65366D01*
X81363Y-65428D01*
X81791Y-65000D01*
X81791Y-65141D01*
X81433Y-65498D01*
X81495Y-65590D01*
X81748Y-65685D01*
X82019Y-65676D01*
X82228Y-65590D01*
X82290Y-65498D01*
X82290Y-66450D01*
X79260Y-66450D01*
X79260Y-64268D01*
X79000Y-64007D01*
X78929Y-64078D01*
X78929Y-63937D01*
X78668Y-63676D01*
X78601Y-63709D01*
X78544Y-63879D01*
X78557Y-64057D01*
X78601Y-64164D01*
X78668Y-64197D01*
X78929Y-63937D01*
X78929Y-64078D01*
X78739Y-64268D01*
X78772Y-64335D01*
X78942Y-64392D01*
X79120Y-64379D01*
X79227Y-64335D01*
X79260Y-64268D01*
X79260Y-66450D01*
X77925Y-66450D01*
X77925Y-64079D01*
X77925Y-63670D01*
X77902Y-63615D01*
X77860Y-63572D01*
X77804Y-63550D01*
X77745Y-63549D01*
X77587Y-63550D01*
X77550Y-63587D01*
X77550Y-63825D01*
X77887Y-63825D01*
X77925Y-63787D01*
X77925Y-63670D01*
X77925Y-64079D01*
X77925Y-63962D01*
X77887Y-63925D01*
X77550Y-63925D01*
X77550Y-64162D01*
X77587Y-64200D01*
X77745Y-64200D01*
X77804Y-64199D01*
X77860Y-64177D01*
X77902Y-64134D01*
X77925Y-64079D01*
X77925Y-66450D01*
X77823Y-66450D01*
X77823Y-65113D01*
X77814Y-64842D01*
X77728Y-64633D01*
X77636Y-64571D01*
X77566Y-64642D01*
X77566Y-64501D01*
X77504Y-64409D01*
X77450Y-64389D01*
X77450Y-64162D01*
X77450Y-63925D01*
X77450Y-63825D01*
X77450Y-63587D01*
X77412Y-63550D01*
X77254Y-63549D01*
X77195Y-63550D01*
X77139Y-63572D01*
X77097Y-63615D01*
X77074Y-63670D01*
X77075Y-63787D01*
X77112Y-63825D01*
X77450Y-63825D01*
X77450Y-63925D01*
X77112Y-63925D01*
X77075Y-63962D01*
X77074Y-64079D01*
X77097Y-64134D01*
X77139Y-64177D01*
X77195Y-64199D01*
X77254Y-64200D01*
X77412Y-64200D01*
X77450Y-64162D01*
X77450Y-64389D01*
X77251Y-64314D01*
X76980Y-64323D01*
X76771Y-64409D01*
X76735Y-64463D01*
X76735Y-63065D01*
X76723Y-62874D01*
X76673Y-62754D01*
X76602Y-62717D01*
X76532Y-62788D01*
X76532Y-62647D01*
X76495Y-62576D01*
X76315Y-62514D01*
X76124Y-62526D01*
X76004Y-62576D01*
X75967Y-62647D01*
X76250Y-62929D01*
X76532Y-62647D01*
X76532Y-62788D01*
X76320Y-63000D01*
X76602Y-63282D01*
X76673Y-63245D01*
X76735Y-63065D01*
X76735Y-64463D01*
X76709Y-64501D01*
X77138Y-64929D01*
X77566Y-64501D01*
X77566Y-64642D01*
X77208Y-65000D01*
X77636Y-65428D01*
X77728Y-65366D01*
X77823Y-65113D01*
X77823Y-66450D01*
X77566Y-66450D01*
X77566Y-65498D01*
X77138Y-65070D01*
X77067Y-65141D01*
X77067Y-65000D01*
X76639Y-64571D01*
X76547Y-64633D01*
X76532Y-64674D01*
X76532Y-63352D01*
X76250Y-63070D01*
X76179Y-63141D01*
X76179Y-63000D01*
X75897Y-62717D01*
X75826Y-62754D01*
X75764Y-62934D01*
X75776Y-63125D01*
X75826Y-63245D01*
X75897Y-63282D01*
X76179Y-63000D01*
X76179Y-63141D01*
X75967Y-63352D01*
X76004Y-63423D01*
X76184Y-63485D01*
X76375Y-63473D01*
X76495Y-63423D01*
X76532Y-63352D01*
X76532Y-64674D01*
X76452Y-64886D01*
X76461Y-65157D01*
X76547Y-65366D01*
X76639Y-65428D01*
X77067Y-65000D01*
X77067Y-65141D01*
X76709Y-65498D01*
X76771Y-65590D01*
X77024Y-65685D01*
X77295Y-65676D01*
X77504Y-65590D01*
X77566Y-65498D01*
X77566Y-66450D01*
X75730Y-66450D01*
X75730Y-62904D01*
X75657Y-62728D01*
X75522Y-62593D01*
X75475Y-62573D01*
X75475Y-62175D01*
X75579Y-62175D01*
X75634Y-62152D01*
X75677Y-62110D01*
X75699Y-62054D01*
X75700Y-61995D01*
X75700Y-61445D01*
X75677Y-61390D01*
X75635Y-61347D01*
X75579Y-61325D01*
X75520Y-61324D01*
X75170Y-61324D01*
X75115Y-61347D01*
X75072Y-61389D01*
X75050Y-61445D01*
X75049Y-61504D01*
X75049Y-61777D01*
X75042Y-61788D01*
X75039Y-61803D01*
X75024Y-61875D01*
X75025Y-61875D01*
X75025Y-62573D01*
X74978Y-62592D01*
X74843Y-62727D01*
X74770Y-62904D01*
X74769Y-63095D01*
X74842Y-63271D01*
X74977Y-63406D01*
X75154Y-63479D01*
X75345Y-63480D01*
X75521Y-63407D01*
X75656Y-63272D01*
X75729Y-63095D01*
X75730Y-62904D01*
X75730Y-66450D01*
X74235Y-66450D01*
X74235Y-63065D01*
X74223Y-62874D01*
X74173Y-62754D01*
X74102Y-62717D01*
X74032Y-62788D01*
X73820Y-63000D01*
X74102Y-63282D01*
X74173Y-63245D01*
X74235Y-63065D01*
X74235Y-66450D01*
X74032Y-66450D01*
X74032Y-63352D01*
X73750Y-63070D01*
X73679Y-63141D01*
X73467Y-63352D01*
X73504Y-63423D01*
X73684Y-63485D01*
X73875Y-63473D01*
X73995Y-63423D01*
X74032Y-63352D01*
X74032Y-66450D01*
X73188Y-66450D01*
X73537Y-66305D01*
X73804Y-66038D01*
X73949Y-65689D01*
X73950Y-65311D01*
X73805Y-64962D01*
X73538Y-64695D01*
X73189Y-64550D01*
X72811Y-64549D01*
X72462Y-64694D01*
X72195Y-64961D01*
X72050Y-65310D01*
X72050Y-65499D01*
X72050Y-51300D01*
X85061Y-51300D01*
X84712Y-51444D01*
X84445Y-51711D01*
X84300Y-52060D01*
X84299Y-52438D01*
X84444Y-52787D01*
X84711Y-53054D01*
X85060Y-53199D01*
X85438Y-53200D01*
X85787Y-53055D01*
X86054Y-52788D01*
X86199Y-52439D01*
X86200Y-52250D01*
X86200Y-65311D01*
X86200Y-65311D01*
G37*
G54D23*
X86200Y-65311D02*
X86055Y-64962D01*
X85975Y-64881D01*
X85975Y-55250D01*
X85960Y-55178D01*
X85957Y-55163D01*
X85957Y-55163D01*
X85909Y-55090D01*
X85909Y-55090D01*
X85668Y-54850D01*
X85674Y-54834D01*
X85675Y-54665D01*
X85610Y-54509D01*
X85491Y-54389D01*
X85334Y-54325D01*
X85165Y-54324D01*
X85009Y-54389D01*
X84889Y-54508D01*
X84825Y-54665D01*
X84824Y-54821D01*
X84746Y-54900D01*
X83931Y-54900D01*
X83822Y-54789D01*
X83740Y-54755D01*
X83821Y-54722D01*
X83932Y-54612D01*
X84638Y-54612D01*
X84733Y-54592D01*
X84814Y-54538D01*
X85178Y-54175D01*
X85554Y-54175D01*
X85609Y-54152D01*
X85652Y-54110D01*
X85674Y-54054D01*
X85675Y-53995D01*
X85675Y-53445D01*
X85652Y-53390D01*
X85610Y-53347D01*
X85554Y-53325D01*
X85495Y-53324D01*
X84945Y-53324D01*
X84890Y-53347D01*
X84847Y-53389D01*
X84825Y-53445D01*
X84824Y-53504D01*
X84824Y-53821D01*
X84534Y-54112D01*
X83931Y-54112D01*
X83822Y-54001D01*
X83741Y-53968D01*
X83821Y-53935D01*
X83941Y-53816D01*
X84005Y-53659D01*
X84006Y-53490D01*
X83941Y-53334D01*
X83822Y-53214D01*
X83740Y-53180D01*
X83821Y-53147D01*
X83941Y-53028D01*
X84005Y-52871D01*
X84006Y-52702D01*
X83941Y-52546D01*
X83822Y-52426D01*
X83741Y-52393D01*
X83821Y-52360D01*
X83941Y-52241D01*
X84005Y-52084D01*
X84006Y-51915D01*
X83941Y-51759D01*
X83822Y-51639D01*
X83665Y-51575D01*
X83496Y-51574D01*
X83340Y-51639D01*
X83229Y-51750D01*
X78500Y-51750D01*
X78375Y-51750D01*
X77500Y-51750D01*
X77499Y-51750D01*
X77480Y-51753D01*
X77404Y-51769D01*
X77323Y-51823D01*
X77323Y-51823D01*
X76573Y-52573D01*
X76519Y-52654D01*
X76500Y-52750D01*
X76500Y-54799D01*
X76495Y-54799D01*
X76337Y-54800D01*
X76300Y-54837D01*
X76300Y-55075D01*
X76307Y-55075D01*
X76307Y-55175D01*
X76300Y-55175D01*
X76300Y-55412D01*
X76337Y-55450D01*
X76495Y-55450D01*
X76554Y-55449D01*
X76610Y-55427D01*
X76652Y-55384D01*
X76675Y-55329D01*
X76675Y-55235D01*
X76750Y-55250D01*
X79250Y-55250D01*
X79750Y-55250D01*
X81500Y-55250D01*
X81500Y-57555D01*
X81130Y-57555D01*
X81130Y-56870D01*
X81130Y-56370D01*
X81107Y-56315D01*
X81065Y-56272D01*
X81009Y-56250D01*
X80950Y-56249D01*
X80790Y-56249D01*
X80775Y-56256D01*
X80759Y-56250D01*
X80700Y-56249D01*
X80540Y-56249D01*
X80520Y-56258D01*
X80499Y-56249D01*
X80467Y-56250D01*
X80430Y-56287D01*
X80430Y-56346D01*
X80420Y-56370D01*
X80419Y-56429D01*
X80419Y-56929D01*
X80430Y-56953D01*
X80430Y-57012D01*
X80467Y-57050D01*
X80499Y-57050D01*
X80519Y-57041D01*
X80540Y-57049D01*
X80599Y-57050D01*
X80759Y-57050D01*
X80774Y-57043D01*
X80790Y-57049D01*
X80849Y-57050D01*
X81009Y-57050D01*
X81064Y-57027D01*
X81107Y-56985D01*
X81129Y-56929D01*
X81130Y-56870D01*
X81130Y-57555D01*
X80360Y-57555D01*
X80360Y-56870D01*
X80360Y-56429D01*
X80359Y-56370D01*
X80350Y-56346D01*
X80350Y-56287D01*
X80312Y-56250D01*
X80280Y-56249D01*
X80260Y-56258D01*
X80239Y-56249D01*
X80207Y-56250D01*
X80170Y-56287D01*
X80170Y-56346D01*
X80160Y-56370D01*
X80159Y-56429D01*
X80160Y-56562D01*
X80170Y-56572D01*
X80170Y-56600D01*
X80197Y-56600D01*
X80322Y-56600D01*
X80350Y-56600D01*
X80350Y-56572D01*
X80360Y-56562D01*
X80360Y-56429D01*
X80360Y-56870D01*
X80360Y-56737D01*
X80350Y-56727D01*
X80350Y-56700D01*
X80322Y-56700D01*
X80197Y-56700D01*
X80170Y-56700D01*
X80170Y-56727D01*
X80160Y-56737D01*
X80159Y-56870D01*
X80160Y-56929D01*
X80170Y-56953D01*
X80170Y-57012D01*
X80207Y-57050D01*
X80239Y-57050D01*
X80260Y-57041D01*
X80280Y-57050D01*
X80312Y-57050D01*
X80350Y-57012D01*
X80350Y-56953D01*
X80359Y-56929D01*
X80360Y-56870D01*
X80360Y-57555D01*
X80110Y-57555D01*
X80110Y-56870D01*
X80110Y-56370D01*
X80090Y-56321D01*
X80090Y-56287D01*
X80052Y-56250D01*
X80020Y-56249D01*
X80005Y-56256D01*
X79989Y-56250D01*
X79930Y-56249D01*
X79770Y-56249D01*
X79750Y-56258D01*
X79729Y-56250D01*
X79670Y-56249D01*
X79510Y-56249D01*
X79490Y-56258D01*
X79469Y-56250D01*
X79410Y-56249D01*
X79250Y-56249D01*
X79235Y-56256D01*
X79219Y-56249D01*
X79187Y-56250D01*
X79150Y-56287D01*
X79150Y-56321D01*
X79130Y-56370D01*
X79129Y-56429D01*
X79129Y-56929D01*
X79150Y-56978D01*
X79150Y-57012D01*
X79187Y-57050D01*
X79219Y-57050D01*
X79234Y-57043D01*
X79250Y-57049D01*
X79309Y-57050D01*
X79469Y-57050D01*
X79489Y-57041D01*
X79510Y-57049D01*
X79569Y-57050D01*
X79729Y-57050D01*
X79749Y-57041D01*
X79770Y-57049D01*
X79829Y-57050D01*
X79989Y-57050D01*
X80005Y-57043D01*
X80020Y-57050D01*
X80052Y-57050D01*
X80090Y-57012D01*
X80090Y-56978D01*
X80109Y-56929D01*
X80110Y-56870D01*
X80110Y-57555D01*
X78316Y-57555D01*
X78304Y-57550D01*
X78295Y-57550D01*
X78295Y-57017D01*
X78300Y-57012D01*
X78300Y-56900D01*
X78300Y-56870D01*
X78300Y-56370D01*
X78300Y-56370D01*
X78300Y-56287D01*
X78262Y-56250D01*
X78230Y-56249D01*
X78205Y-56260D01*
X78179Y-56250D01*
X78120Y-56249D01*
X77960Y-56249D01*
X77950Y-56254D01*
X77939Y-56250D01*
X77880Y-56249D01*
X77720Y-56249D01*
X77700Y-56258D01*
X77679Y-56250D01*
X77620Y-56249D01*
X77460Y-56249D01*
X77405Y-56272D01*
X77362Y-56314D01*
X77340Y-56370D01*
X77339Y-56426D01*
X77263Y-56442D01*
X77190Y-56490D01*
X77190Y-56490D01*
X76590Y-57090D01*
X76542Y-57163D01*
X76539Y-57178D01*
X76524Y-57250D01*
X76525Y-57250D01*
X76525Y-59749D01*
X76524Y-59750D01*
X76539Y-59821D01*
X76542Y-59836D01*
X76590Y-59909D01*
X77090Y-60409D01*
X77090Y-60409D01*
X77163Y-60457D01*
X77163Y-60457D01*
X77178Y-60460D01*
X77250Y-60475D01*
X77250Y-60475D01*
X77250Y-60475D01*
X78906Y-60475D01*
X79275Y-60843D01*
X79275Y-62788D01*
X79255Y-62768D01*
X79089Y-62700D01*
X78910Y-62699D01*
X78745Y-62768D01*
X78618Y-62894D01*
X78616Y-62900D01*
X78503Y-62900D01*
X77176Y-61573D01*
X77176Y-61573D01*
X76500Y-60896D01*
X76500Y-56353D01*
X76853Y-56000D01*
X78625Y-56000D01*
X78625Y-56249D01*
X78490Y-56249D01*
X78470Y-56258D01*
X78449Y-56249D01*
X78417Y-56250D01*
X78380Y-56287D01*
X78380Y-56346D01*
X78370Y-56370D01*
X78369Y-56429D01*
X78369Y-56929D01*
X78380Y-56953D01*
X78380Y-57012D01*
X78417Y-57050D01*
X78449Y-57050D01*
X78469Y-57041D01*
X78490Y-57049D01*
X78549Y-57050D01*
X78709Y-57050D01*
X78724Y-57043D01*
X78740Y-57049D01*
X78799Y-57050D01*
X78959Y-57050D01*
X78980Y-57041D01*
X79000Y-57050D01*
X79032Y-57050D01*
X79070Y-57012D01*
X79070Y-56953D01*
X79079Y-56929D01*
X79080Y-56870D01*
X79080Y-56370D01*
X79075Y-56358D01*
X79075Y-55850D01*
X79057Y-55763D01*
X79057Y-55763D01*
X79009Y-55690D01*
X79009Y-55690D01*
X78983Y-55664D01*
X78980Y-55654D01*
X78926Y-55573D01*
X78845Y-55519D01*
X78750Y-55500D01*
X76750Y-55500D01*
X76654Y-55519D01*
X76587Y-55563D01*
X76554Y-55550D01*
X76495Y-55549D01*
X76200Y-55549D01*
X76200Y-55412D01*
X76200Y-55175D01*
X76200Y-55075D01*
X76200Y-54837D01*
X76162Y-54800D01*
X76004Y-54799D01*
X75945Y-54800D01*
X75889Y-54822D01*
X75847Y-54865D01*
X75824Y-54920D01*
X75825Y-55037D01*
X75862Y-55075D01*
X76200Y-55075D01*
X76200Y-55175D01*
X75862Y-55175D01*
X75825Y-55212D01*
X75824Y-55329D01*
X75847Y-55384D01*
X75889Y-55427D01*
X75945Y-55449D01*
X76004Y-55450D01*
X76162Y-55450D01*
X76200Y-55412D01*
X76200Y-55549D01*
X75945Y-55549D01*
X75890Y-55572D01*
X75847Y-55614D01*
X75825Y-55670D01*
X75824Y-55729D01*
X75824Y-56079D01*
X75847Y-56134D01*
X75889Y-56177D01*
X75945Y-56199D01*
X76000Y-56200D01*
X76000Y-56250D01*
X76000Y-57299D01*
X75995Y-57299D01*
X75761Y-57299D01*
X75732Y-57281D01*
X75637Y-57262D01*
X75269Y-57262D01*
X75160Y-57151D01*
X75078Y-57117D01*
X75159Y-57084D01*
X75279Y-56965D01*
X75343Y-56808D01*
X75344Y-56639D01*
X75279Y-56483D01*
X75160Y-56363D01*
X75079Y-56330D01*
X75159Y-56297D01*
X75279Y-56178D01*
X75343Y-56021D01*
X75344Y-55852D01*
X75279Y-55696D01*
X75160Y-55576D01*
X75079Y-55543D01*
X75159Y-55510D01*
X75279Y-55391D01*
X75343Y-55234D01*
X75344Y-55065D01*
X75279Y-54909D01*
X75160Y-54789D01*
X75078Y-54755D01*
X75159Y-54722D01*
X75279Y-54603D01*
X75343Y-54446D01*
X75344Y-54277D01*
X75279Y-54121D01*
X75160Y-54001D01*
X75079Y-53968D01*
X75159Y-53935D01*
X75279Y-53816D01*
X75343Y-53659D01*
X75344Y-53490D01*
X75279Y-53334D01*
X75160Y-53214D01*
X75078Y-53180D01*
X75159Y-53147D01*
X75279Y-53028D01*
X75343Y-52871D01*
X75344Y-52702D01*
X75279Y-52546D01*
X75160Y-52426D01*
X75079Y-52393D01*
X75159Y-52360D01*
X75279Y-52241D01*
X75343Y-52084D01*
X75344Y-51915D01*
X75279Y-51759D01*
X75160Y-51639D01*
X75003Y-51575D01*
X74834Y-51574D01*
X74678Y-51639D01*
X74567Y-51750D01*
X73675Y-51750D01*
X73675Y-51695D01*
X73652Y-51640D01*
X73610Y-51597D01*
X73554Y-51575D01*
X73495Y-51574D01*
X72945Y-51574D01*
X72890Y-51597D01*
X72847Y-51639D01*
X72825Y-51695D01*
X72824Y-51754D01*
X72824Y-52304D01*
X72847Y-52359D01*
X72889Y-52402D01*
X72945Y-52424D01*
X73004Y-52425D01*
X73554Y-52425D01*
X73609Y-52402D01*
X73652Y-52360D01*
X73674Y-52304D01*
X73675Y-52250D01*
X74568Y-52250D01*
X74677Y-52360D01*
X74758Y-52393D01*
X74678Y-52426D01*
X74567Y-52537D01*
X73463Y-52537D01*
X73462Y-52537D01*
X73443Y-52540D01*
X73367Y-52556D01*
X73337Y-52576D01*
X73334Y-52575D01*
X73165Y-52574D01*
X73009Y-52639D01*
X72889Y-52758D01*
X72825Y-52915D01*
X72824Y-53084D01*
X72889Y-53240D01*
X73008Y-53360D01*
X73165Y-53424D01*
X73334Y-53425D01*
X73490Y-53360D01*
X73610Y-53241D01*
X73674Y-53084D01*
X73674Y-53037D01*
X74568Y-53037D01*
X74677Y-53147D01*
X74759Y-53181D01*
X74678Y-53214D01*
X74567Y-53325D01*
X73675Y-53325D01*
X73579Y-53344D01*
X73498Y-53398D01*
X73498Y-53398D01*
X73321Y-53575D01*
X73165Y-53574D01*
X73009Y-53639D01*
X72889Y-53758D01*
X72825Y-53915D01*
X72824Y-54084D01*
X72889Y-54240D01*
X73008Y-54360D01*
X73165Y-54424D01*
X73334Y-54425D01*
X73490Y-54360D01*
X73610Y-54241D01*
X73674Y-54084D01*
X73675Y-53928D01*
X73778Y-53825D01*
X74568Y-53825D01*
X74677Y-53935D01*
X74758Y-53968D01*
X74678Y-54001D01*
X74567Y-54112D01*
X73888Y-54112D01*
X73792Y-54131D01*
X73711Y-54185D01*
X73321Y-54575D01*
X73165Y-54574D01*
X73009Y-54639D01*
X72889Y-54758D01*
X72825Y-54915D01*
X72824Y-55084D01*
X72889Y-55240D01*
X73008Y-55360D01*
X73165Y-55424D01*
X73334Y-55425D01*
X73490Y-55360D01*
X73610Y-55241D01*
X73674Y-55084D01*
X73675Y-54928D01*
X73991Y-54612D01*
X74568Y-54612D01*
X74677Y-54722D01*
X74759Y-54756D01*
X74678Y-54789D01*
X74567Y-54900D01*
X74100Y-54900D01*
X74004Y-54919D01*
X73923Y-54973D01*
X73321Y-55575D01*
X73165Y-55574D01*
X73009Y-55639D01*
X72889Y-55758D01*
X72825Y-55915D01*
X72824Y-56084D01*
X72889Y-56240D01*
X73008Y-56360D01*
X73165Y-56424D01*
X73334Y-56425D01*
X73490Y-56360D01*
X73610Y-56241D01*
X73674Y-56084D01*
X73675Y-55928D01*
X74203Y-55400D01*
X74568Y-55400D01*
X74677Y-55510D01*
X74758Y-55543D01*
X74678Y-55576D01*
X74567Y-55687D01*
X74313Y-55687D01*
X74312Y-55687D01*
X74293Y-55690D01*
X74217Y-55706D01*
X74136Y-55760D01*
X74136Y-55760D01*
X73321Y-56575D01*
X73165Y-56574D01*
X73009Y-56639D01*
X72889Y-56758D01*
X72825Y-56915D01*
X72824Y-57084D01*
X72889Y-57240D01*
X73008Y-57360D01*
X73165Y-57424D01*
X73334Y-57425D01*
X73490Y-57360D01*
X73610Y-57241D01*
X73674Y-57084D01*
X73675Y-56928D01*
X74416Y-56187D01*
X74568Y-56187D01*
X74677Y-56297D01*
X74758Y-56330D01*
X74678Y-56363D01*
X74567Y-56474D01*
X74526Y-56474D01*
X74525Y-56474D01*
X74506Y-56477D01*
X74430Y-56493D01*
X74349Y-56547D01*
X74349Y-56547D01*
X73321Y-57575D01*
X73165Y-57574D01*
X73009Y-57639D01*
X72889Y-57758D01*
X72825Y-57915D01*
X72824Y-58084D01*
X72889Y-58240D01*
X73008Y-58360D01*
X73165Y-58424D01*
X73334Y-58425D01*
X73490Y-58360D01*
X73610Y-58241D01*
X73674Y-58084D01*
X73675Y-57928D01*
X74598Y-57004D01*
X74677Y-57084D01*
X74759Y-57118D01*
X74678Y-57151D01*
X74558Y-57270D01*
X74511Y-57384D01*
X73321Y-58575D01*
X73165Y-58574D01*
X73009Y-58639D01*
X72889Y-58758D01*
X72825Y-58915D01*
X72824Y-59084D01*
X72889Y-59240D01*
X73008Y-59360D01*
X73165Y-59424D01*
X73334Y-59425D01*
X73490Y-59360D01*
X73610Y-59241D01*
X73674Y-59084D01*
X73675Y-58928D01*
X74715Y-57887D01*
X74758Y-57905D01*
X74678Y-57938D01*
X74558Y-58057D01*
X74494Y-58214D01*
X74493Y-58383D01*
X74499Y-58396D01*
X73321Y-59575D01*
X73165Y-59574D01*
X73009Y-59639D01*
X72889Y-59758D01*
X72825Y-59915D01*
X72824Y-60084D01*
X72889Y-60240D01*
X73008Y-60360D01*
X73165Y-60424D01*
X73334Y-60425D01*
X73490Y-60360D01*
X73610Y-60241D01*
X73674Y-60084D01*
X73675Y-59928D01*
X74493Y-59109D01*
X74493Y-59171D01*
X74558Y-59327D01*
X74563Y-59332D01*
X73321Y-60575D01*
X73165Y-60574D01*
X73009Y-60639D01*
X72889Y-60758D01*
X72825Y-60915D01*
X72824Y-61084D01*
X72889Y-61240D01*
X73008Y-61360D01*
X73165Y-61424D01*
X73334Y-61425D01*
X73490Y-61360D01*
X73610Y-61241D01*
X73674Y-61084D01*
X73675Y-60928D01*
X75095Y-59507D01*
X75095Y-59507D01*
X75095Y-59507D01*
X75127Y-59460D01*
X75159Y-59447D01*
X75279Y-59328D01*
X75343Y-59171D01*
X75344Y-59002D01*
X75279Y-58846D01*
X75160Y-58726D01*
X75078Y-58692D01*
X75159Y-58659D01*
X75279Y-58540D01*
X75324Y-58429D01*
X75324Y-58579D01*
X75347Y-58634D01*
X75389Y-58677D01*
X75445Y-58699D01*
X75504Y-58700D01*
X75525Y-58700D01*
X75525Y-59906D01*
X73340Y-62090D01*
X73340Y-62090D01*
X72892Y-62539D01*
X72845Y-62520D01*
X72654Y-62519D01*
X72478Y-62592D01*
X72343Y-62727D01*
X72270Y-62904D01*
X72269Y-63095D01*
X72342Y-63271D01*
X72477Y-63406D01*
X72654Y-63479D01*
X72845Y-63480D01*
X73021Y-63407D01*
X73156Y-63272D01*
X73229Y-63095D01*
X73230Y-62904D01*
X73210Y-62857D01*
X73373Y-62694D01*
X73397Y-62717D01*
X73326Y-62754D01*
X73264Y-62934D01*
X73276Y-63125D01*
X73326Y-63245D01*
X73397Y-63282D01*
X73679Y-63000D01*
X73673Y-62994D01*
X73744Y-62923D01*
X73750Y-62929D01*
X74032Y-62647D01*
X73995Y-62576D01*
X73815Y-62514D01*
X73624Y-62526D01*
X73504Y-62576D01*
X73467Y-62647D01*
X73444Y-62623D01*
X73659Y-62409D01*
X73659Y-62409D01*
X73659Y-62409D01*
X75909Y-60159D01*
X75909Y-60159D01*
X75909Y-60159D01*
X75957Y-60086D01*
X75975Y-60000D01*
X75975Y-58700D01*
X76000Y-58700D01*
X76000Y-61000D01*
X76019Y-61095D01*
X76073Y-61176D01*
X76221Y-61324D01*
X75920Y-61324D01*
X75865Y-61347D01*
X75822Y-61389D01*
X75800Y-61445D01*
X75799Y-61504D01*
X75799Y-62054D01*
X75822Y-62109D01*
X75864Y-62152D01*
X75920Y-62174D01*
X75979Y-62175D01*
X76329Y-62175D01*
X76384Y-62152D01*
X76427Y-62110D01*
X76449Y-62054D01*
X76450Y-61995D01*
X76450Y-61975D01*
X76871Y-61975D01*
X77696Y-62799D01*
X77195Y-62799D01*
X77140Y-62822D01*
X77097Y-62864D01*
X77075Y-62920D01*
X77074Y-62979D01*
X77074Y-63329D01*
X77097Y-63384D01*
X77139Y-63427D01*
X77195Y-63449D01*
X77254Y-63450D01*
X77804Y-63450D01*
X77859Y-63427D01*
X77902Y-63385D01*
X77906Y-63375D01*
X78295Y-63375D01*
X78295Y-63375D01*
X78295Y-63375D01*
X78304Y-63380D01*
X78304Y-63380D01*
X78400Y-63400D01*
X78616Y-63400D01*
X78618Y-63404D01*
X78744Y-63531D01*
X78770Y-63542D01*
X78739Y-63605D01*
X79000Y-63866D01*
X79005Y-63860D01*
X79076Y-63931D01*
X79070Y-63937D01*
X79331Y-64197D01*
X79398Y-64164D01*
X79455Y-63994D01*
X79453Y-63972D01*
X79549Y-64008D01*
X79549Y-64026D01*
X79618Y-64191D01*
X79744Y-64318D01*
X79910Y-64386D01*
X80089Y-64387D01*
X80254Y-64318D01*
X80381Y-64192D01*
X80449Y-64026D01*
X80450Y-63847D01*
X80381Y-63682D01*
X80255Y-63555D01*
X80225Y-63543D01*
X80254Y-63531D01*
X80381Y-63405D01*
X80449Y-63239D01*
X80450Y-63060D01*
X80381Y-62895D01*
X80255Y-62768D01*
X80225Y-62756D01*
X80225Y-59500D01*
X80207Y-59413D01*
X80159Y-59340D01*
X80086Y-59292D01*
X80000Y-59275D01*
X78425Y-59275D01*
X78425Y-58829D01*
X78425Y-58420D01*
X78402Y-58365D01*
X78360Y-58322D01*
X78304Y-58300D01*
X78245Y-58299D01*
X78087Y-58300D01*
X78050Y-58337D01*
X78050Y-58575D01*
X78387Y-58575D01*
X78425Y-58537D01*
X78425Y-58420D01*
X78425Y-58829D01*
X78425Y-58712D01*
X78387Y-58675D01*
X78050Y-58675D01*
X78050Y-58912D01*
X78087Y-58950D01*
X78245Y-58950D01*
X78304Y-58949D01*
X78360Y-58927D01*
X78402Y-58884D01*
X78425Y-58829D01*
X78425Y-59275D01*
X77950Y-59275D01*
X77950Y-58912D01*
X77950Y-58675D01*
X77950Y-58575D01*
X77950Y-58337D01*
X77912Y-58300D01*
X77754Y-58299D01*
X77695Y-58300D01*
X77639Y-58322D01*
X77597Y-58365D01*
X77574Y-58420D01*
X77575Y-58537D01*
X77612Y-58575D01*
X77950Y-58575D01*
X77950Y-58675D01*
X77612Y-58675D01*
X77575Y-58712D01*
X77574Y-58829D01*
X77597Y-58884D01*
X77639Y-58927D01*
X77695Y-58949D01*
X77754Y-58950D01*
X77912Y-58950D01*
X77950Y-58912D01*
X77950Y-59275D01*
X77475Y-59275D01*
X77475Y-57593D01*
X77845Y-57223D01*
X77845Y-57549D01*
X77695Y-57549D01*
X77640Y-57572D01*
X77597Y-57614D01*
X77575Y-57670D01*
X77574Y-57729D01*
X77574Y-58079D01*
X77597Y-58134D01*
X77639Y-58177D01*
X77695Y-58199D01*
X77754Y-58200D01*
X78304Y-58200D01*
X78359Y-58177D01*
X78402Y-58135D01*
X78424Y-58079D01*
X78424Y-58055D01*
X81695Y-58055D01*
X81790Y-58035D01*
X81871Y-57981D01*
X81926Y-57926D01*
X81926Y-57926D01*
X81926Y-57926D01*
X81980Y-57845D01*
X81980Y-57845D01*
X82000Y-57750D01*
X82000Y-55000D01*
X81980Y-54904D01*
X81926Y-54823D01*
X81845Y-54769D01*
X81750Y-54750D01*
X80103Y-54750D01*
X80319Y-54250D01*
X80339Y-54250D01*
X80425Y-54250D01*
X80425Y-54399D01*
X80424Y-54400D01*
X80439Y-54471D01*
X80442Y-54486D01*
X80490Y-54559D01*
X80590Y-54659D01*
X80590Y-54659D01*
X80663Y-54707D01*
X80663Y-54707D01*
X80750Y-54725D01*
X81906Y-54725D01*
X82525Y-55343D01*
X82525Y-57467D01*
X82524Y-57468D01*
X82539Y-57539D01*
X82542Y-57554D01*
X82590Y-57627D01*
X83162Y-58198D01*
X83156Y-58214D01*
X83155Y-58383D01*
X83220Y-58539D01*
X83339Y-58659D01*
X83414Y-58690D01*
X83368Y-58709D01*
X83338Y-58773D01*
X83581Y-59016D01*
X83823Y-58773D01*
X83793Y-58709D01*
X83741Y-58692D01*
X83821Y-58659D01*
X83932Y-58549D01*
X84695Y-58549D01*
X84825Y-58678D01*
X84824Y-58834D01*
X84889Y-58990D01*
X85008Y-59110D01*
X85165Y-59174D01*
X85334Y-59175D01*
X85490Y-59110D01*
X85525Y-59075D01*
X85525Y-59413D01*
X85520Y-59408D01*
X85492Y-59436D01*
X85462Y-59372D01*
X85301Y-59319D01*
X85133Y-59332D01*
X85037Y-59372D01*
X85007Y-59436D01*
X85250Y-59679D01*
X85255Y-59673D01*
X85326Y-59744D01*
X85320Y-59750D01*
X85326Y-59755D01*
X85255Y-59826D01*
X85250Y-59820D01*
X85179Y-59891D01*
X85179Y-59750D01*
X84936Y-59507D01*
X84872Y-59537D01*
X84819Y-59698D01*
X84832Y-59866D01*
X84872Y-59962D01*
X84936Y-59992D01*
X85179Y-59750D01*
X85179Y-59891D01*
X85007Y-60063D01*
X85037Y-60127D01*
X85198Y-60180D01*
X85366Y-60167D01*
X85462Y-60127D01*
X85492Y-60063D01*
X85492Y-60063D01*
X85520Y-60091D01*
X85525Y-60086D01*
X85525Y-60673D01*
X85492Y-60641D01*
X85491Y-60639D01*
X85334Y-60575D01*
X85165Y-60574D01*
X85009Y-60639D01*
X84889Y-60758D01*
X84825Y-60915D01*
X84824Y-61084D01*
X84889Y-61240D01*
X85008Y-61360D01*
X85025Y-61366D01*
X85025Y-63633D01*
X85009Y-63639D01*
X84889Y-63758D01*
X84825Y-63915D01*
X84824Y-64084D01*
X84889Y-64240D01*
X85008Y-64360D01*
X85165Y-64424D01*
X85334Y-64425D01*
X85490Y-64360D01*
X85610Y-64241D01*
X85674Y-64084D01*
X85675Y-63915D01*
X85610Y-63759D01*
X85491Y-63639D01*
X85475Y-63633D01*
X85475Y-61366D01*
X85490Y-61360D01*
X85610Y-61241D01*
X85616Y-61225D01*
X85750Y-61225D01*
X85836Y-61207D01*
X85909Y-61159D01*
X85957Y-61086D01*
X85975Y-61000D01*
X85975Y-55250D01*
X85975Y-55250D01*
X85975Y-55250D01*
X85975Y-64881D01*
X85788Y-64695D01*
X85439Y-64550D01*
X85061Y-64549D01*
X84712Y-64694D01*
X84445Y-64961D01*
X84300Y-65310D01*
X84299Y-65688D01*
X84444Y-66037D01*
X84711Y-66304D01*
X85060Y-66449D01*
X85249Y-66450D01*
X84011Y-66450D01*
X84011Y-59138D01*
X83998Y-58970D01*
X83958Y-58874D01*
X83894Y-58844D01*
X83651Y-59087D01*
X83894Y-59329D01*
X83958Y-59299D01*
X84011Y-59138D01*
X84011Y-66450D01*
X83823Y-66450D01*
X83823Y-59400D01*
X83581Y-59157D01*
X83510Y-59228D01*
X83510Y-59087D01*
X83267Y-58844D01*
X83203Y-58874D01*
X83150Y-59035D01*
X83163Y-59203D01*
X83203Y-59299D01*
X83267Y-59329D01*
X83510Y-59087D01*
X83510Y-59228D01*
X83338Y-59400D01*
X83368Y-59464D01*
X83529Y-59517D01*
X83697Y-59504D01*
X83793Y-59464D01*
X83823Y-59400D01*
X83823Y-66450D01*
X83680Y-66450D01*
X83680Y-64051D01*
X83680Y-61051D01*
X83667Y-60883D01*
X83627Y-60787D01*
X83563Y-60757D01*
X83492Y-60828D01*
X83492Y-60686D01*
X83462Y-60622D01*
X83301Y-60569D01*
X83133Y-60582D01*
X83037Y-60622D01*
X83007Y-60686D01*
X83250Y-60929D01*
X83492Y-60686D01*
X83492Y-60828D01*
X83320Y-61000D01*
X83563Y-61242D01*
X83627Y-61212D01*
X83680Y-61051D01*
X83680Y-64051D01*
X83667Y-63883D01*
X83627Y-63787D01*
X83563Y-63757D01*
X83492Y-63828D01*
X83492Y-63686D01*
X83492Y-61313D01*
X83250Y-61070D01*
X83179Y-61141D01*
X83179Y-61000D01*
X82936Y-60757D01*
X82872Y-60787D01*
X82819Y-60948D01*
X82832Y-61116D01*
X82872Y-61212D01*
X82936Y-61242D01*
X83179Y-61000D01*
X83179Y-61141D01*
X83007Y-61313D01*
X83037Y-61377D01*
X83198Y-61430D01*
X83366Y-61417D01*
X83462Y-61377D01*
X83492Y-61313D01*
X83492Y-63686D01*
X83462Y-63622D01*
X83301Y-63569D01*
X83133Y-63582D01*
X83037Y-63622D01*
X83007Y-63686D01*
X83250Y-63929D01*
X83492Y-63686D01*
X83492Y-63828D01*
X83320Y-64000D01*
X83563Y-64242D01*
X83627Y-64212D01*
X83680Y-64051D01*
X83680Y-66450D01*
X83492Y-66450D01*
X83492Y-64313D01*
X83250Y-64070D01*
X83179Y-64141D01*
X83179Y-64000D01*
X82936Y-63757D01*
X82872Y-63787D01*
X82819Y-63948D01*
X82832Y-64116D01*
X82872Y-64212D01*
X82936Y-64242D01*
X83179Y-64000D01*
X83179Y-64141D01*
X83007Y-64313D01*
X83037Y-64377D01*
X83198Y-64430D01*
X83366Y-64417D01*
X83462Y-64377D01*
X83492Y-64313D01*
X83492Y-66450D01*
X82547Y-66450D01*
X82547Y-65113D01*
X82538Y-64842D01*
X82452Y-64633D01*
X82360Y-64571D01*
X82290Y-64642D01*
X82290Y-64501D01*
X82228Y-64409D01*
X81975Y-64314D01*
X81704Y-64323D01*
X81495Y-64409D01*
X81433Y-64501D01*
X81862Y-64929D01*
X82290Y-64501D01*
X82290Y-64642D01*
X81932Y-65000D01*
X82360Y-65428D01*
X82452Y-65366D01*
X82547Y-65113D01*
X82547Y-66450D01*
X82290Y-66450D01*
X82290Y-65498D01*
X81862Y-65070D01*
X81791Y-65141D01*
X81791Y-65000D01*
X81363Y-64571D01*
X81271Y-64633D01*
X81176Y-64886D01*
X81185Y-65157D01*
X81271Y-65366D01*
X81363Y-65428D01*
X81791Y-65000D01*
X81791Y-65141D01*
X81433Y-65498D01*
X81495Y-65590D01*
X81748Y-65685D01*
X82019Y-65676D01*
X82228Y-65590D01*
X82290Y-65498D01*
X82290Y-66450D01*
X79260Y-66450D01*
X79260Y-64268D01*
X79000Y-64007D01*
X78929Y-64078D01*
X78929Y-63937D01*
X78668Y-63676D01*
X78601Y-63709D01*
X78544Y-63879D01*
X78557Y-64057D01*
X78601Y-64164D01*
X78668Y-64197D01*
X78929Y-63937D01*
X78929Y-64078D01*
X78739Y-64268D01*
X78772Y-64335D01*
X78942Y-64392D01*
X79120Y-64379D01*
X79227Y-64335D01*
X79260Y-64268D01*
X79260Y-66450D01*
X77925Y-66450D01*
X77925Y-64079D01*
X77925Y-63670D01*
X77902Y-63615D01*
X77860Y-63572D01*
X77804Y-63550D01*
X77745Y-63549D01*
X77587Y-63550D01*
X77550Y-63587D01*
X77550Y-63825D01*
X77887Y-63825D01*
X77925Y-63787D01*
X77925Y-63670D01*
X77925Y-64079D01*
X77925Y-63962D01*
X77887Y-63925D01*
X77550Y-63925D01*
X77550Y-64162D01*
X77587Y-64200D01*
X77745Y-64200D01*
X77804Y-64199D01*
X77860Y-64177D01*
X77902Y-64134D01*
X77925Y-64079D01*
X77925Y-66450D01*
X77823Y-66450D01*
X77823Y-65113D01*
X77814Y-64842D01*
X77728Y-64633D01*
X77636Y-64571D01*
X77566Y-64642D01*
X77566Y-64501D01*
X77504Y-64409D01*
X77450Y-64389D01*
X77450Y-64162D01*
X77450Y-63925D01*
X77450Y-63825D01*
X77450Y-63587D01*
X77412Y-63550D01*
X77254Y-63549D01*
X77195Y-63550D01*
X77139Y-63572D01*
X77097Y-63615D01*
X77074Y-63670D01*
X77075Y-63787D01*
X77112Y-63825D01*
X77450Y-63825D01*
X77450Y-63925D01*
X77112Y-63925D01*
X77075Y-63962D01*
X77074Y-64079D01*
X77097Y-64134D01*
X77139Y-64177D01*
X77195Y-64199D01*
X77254Y-64200D01*
X77412Y-64200D01*
X77450Y-64162D01*
X77450Y-64389D01*
X77251Y-64314D01*
X76980Y-64323D01*
X76771Y-64409D01*
X76735Y-64463D01*
X76735Y-63065D01*
X76723Y-62874D01*
X76673Y-62754D01*
X76602Y-62717D01*
X76532Y-62788D01*
X76532Y-62647D01*
X76495Y-62576D01*
X76315Y-62514D01*
X76124Y-62526D01*
X76004Y-62576D01*
X75967Y-62647D01*
X76250Y-62929D01*
X76532Y-62647D01*
X76532Y-62788D01*
X76320Y-63000D01*
X76602Y-63282D01*
X76673Y-63245D01*
X76735Y-63065D01*
X76735Y-64463D01*
X76709Y-64501D01*
X77138Y-64929D01*
X77566Y-64501D01*
X77566Y-64642D01*
X77208Y-65000D01*
X77636Y-65428D01*
X77728Y-65366D01*
X77823Y-65113D01*
X77823Y-66450D01*
X77566Y-66450D01*
X77566Y-65498D01*
X77138Y-65070D01*
X77067Y-65141D01*
X77067Y-65000D01*
X76639Y-64571D01*
X76547Y-64633D01*
X76532Y-64674D01*
X76532Y-63352D01*
X76250Y-63070D01*
X76179Y-63141D01*
X76179Y-63000D01*
X75897Y-62717D01*
X75826Y-62754D01*
X75764Y-62934D01*
X75776Y-63125D01*
X75826Y-63245D01*
X75897Y-63282D01*
X76179Y-63000D01*
X76179Y-63141D01*
X75967Y-63352D01*
X76004Y-63423D01*
X76184Y-63485D01*
X76375Y-63473D01*
X76495Y-63423D01*
X76532Y-63352D01*
X76532Y-64674D01*
X76452Y-64886D01*
X76461Y-65157D01*
X76547Y-65366D01*
X76639Y-65428D01*
X77067Y-65000D01*
X77067Y-65141D01*
X76709Y-65498D01*
X76771Y-65590D01*
X77024Y-65685D01*
X77295Y-65676D01*
X77504Y-65590D01*
X77566Y-65498D01*
X77566Y-66450D01*
X75730Y-66450D01*
X75730Y-62904D01*
X75657Y-62728D01*
X75522Y-62593D01*
X75475Y-62573D01*
X75475Y-62175D01*
X75579Y-62175D01*
X75634Y-62152D01*
X75677Y-62110D01*
X75699Y-62054D01*
X75700Y-61995D01*
X75700Y-61445D01*
X75677Y-61390D01*
X75635Y-61347D01*
X75579Y-61325D01*
X75520Y-61324D01*
X75170Y-61324D01*
X75115Y-61347D01*
X75072Y-61389D01*
X75050Y-61445D01*
X75049Y-61504D01*
X75049Y-61777D01*
X75042Y-61788D01*
X75039Y-61803D01*
X75024Y-61875D01*
X75025Y-61875D01*
X75025Y-62573D01*
X74978Y-62592D01*
X74843Y-62727D01*
X74770Y-62904D01*
X74769Y-63095D01*
X74842Y-63271D01*
X74977Y-63406D01*
X75154Y-63479D01*
X75345Y-63480D01*
X75521Y-63407D01*
X75656Y-63272D01*
X75729Y-63095D01*
X75730Y-62904D01*
X75730Y-66450D01*
X74235Y-66450D01*
X74235Y-63065D01*
X74223Y-62874D01*
X74173Y-62754D01*
X74102Y-62717D01*
X74032Y-62788D01*
X73820Y-63000D01*
X74102Y-63282D01*
X74173Y-63245D01*
X74235Y-63065D01*
X74235Y-66450D01*
X74032Y-66450D01*
X74032Y-63352D01*
X73750Y-63070D01*
X73679Y-63141D01*
X73467Y-63352D01*
X73504Y-63423D01*
X73684Y-63485D01*
X73875Y-63473D01*
X73995Y-63423D01*
X74032Y-63352D01*
X74032Y-66450D01*
X73188Y-66450D01*
X73537Y-66305D01*
X73804Y-66038D01*
X73949Y-65689D01*
X73950Y-65311D01*
X73805Y-64962D01*
X73538Y-64695D01*
X73189Y-64550D01*
X72811Y-64549D01*
X72462Y-64694D01*
X72195Y-64961D01*
X72050Y-65310D01*
X72050Y-65499D01*
X72050Y-51300D01*
X85061Y-51300D01*
X84712Y-51444D01*
X84445Y-51711D01*
X84300Y-52060D01*
X84299Y-52438D01*
X84444Y-52787D01*
X84711Y-53054D01*
X85060Y-53199D01*
X85438Y-53200D01*
X85787Y-53055D01*
X86054Y-52788D01*
X86199Y-52439D01*
X86200Y-52250D01*
X86200Y-65311D01*
M02*
