G04 #@! TF.FileFunction,Copper,L2,Bot,Signal*
%FSLAX46Y46*%
G04 Gerber Fmt 4.6, Leading zero omitted, Abs format (unit mm)*
G04 Created by KiCad (PCBNEW (2015-07-24 BZR 5989, Git 9b9c794)-product) date 1/12/2015 8:53:28 AM*
%MOMM*%
G01*
G04 APERTURE LIST*
%ADD10C,0.150000*%
%ADD11R,1.778000X1.778000*%
%ADD12C,1.778000*%
%ADD13C,5.080000*%
%ADD14O,2.200000X1.700000*%
%ADD15C,4.000000*%
%ADD16R,1.524000X2.540000*%
%ADD17O,1.524000X2.540000*%
%ADD18R,2.500000X2.500000*%
%ADD19C,2.500000*%
%ADD20C,0.889000*%
%ADD21C,0.508000*%
%ADD22C,0.254000*%
%ADD23C,0.203200*%
G04 APERTURE END LIST*
D10*
D11*
X135380000Y-106064000D03*
D12*
X135380000Y-103524000D03*
X137920000Y-106064000D03*
X137920000Y-103524000D03*
X140460000Y-106064000D03*
X140460000Y-103524000D03*
D11*
X124204000Y-81934000D03*
D12*
X126744000Y-81934000D03*
X129284000Y-81934000D03*
D13*
X129000000Y-88000000D03*
X157000000Y-116000000D03*
X157000000Y-88000000D03*
X129000000Y-116000000D03*
D14*
X144250000Y-118880000D03*
X141750000Y-118880000D03*
X141750000Y-120880000D03*
X144250000Y-120880000D03*
D15*
X149020000Y-123590000D03*
X136980000Y-123590000D03*
D11*
X123950000Y-86506000D03*
D12*
X123950000Y-89046000D03*
D16*
X124966000Y-125622000D03*
D17*
X127506000Y-125622000D03*
D11*
X158240000Y-94380000D03*
D12*
X148080000Y-96920000D03*
X145540000Y-94380000D03*
X145540000Y-96920000D03*
X143000000Y-94380000D03*
X143000000Y-96920000D03*
X140460000Y-94380000D03*
X140460000Y-96920000D03*
X158240000Y-96920000D03*
X155700000Y-94380000D03*
X155700000Y-96920000D03*
X153160000Y-94380000D03*
X153160000Y-96920000D03*
X150620000Y-94380000D03*
X150620000Y-96920000D03*
X148080000Y-94380000D03*
X137920000Y-94380000D03*
X137920000Y-96920000D03*
X135380000Y-94380000D03*
X135380000Y-96920000D03*
X132840000Y-94380000D03*
X132840000Y-96920000D03*
X130300000Y-94380000D03*
X130300000Y-96920000D03*
X127760000Y-94380000D03*
X127760000Y-96920000D03*
D11*
X159764000Y-81934000D03*
D12*
X157224000Y-81934000D03*
X154684000Y-81934000D03*
D11*
X164590000Y-82950000D03*
D12*
X164590000Y-85490000D03*
X164590000Y-88030000D03*
D18*
X154260000Y-125876000D03*
D19*
X157760000Y-125876000D03*
X161260000Y-125876000D03*
X164760000Y-125876000D03*
D20*
X138936000Y-82188000D03*
X127252000Y-120542000D03*
X125007000Y-108309000D03*
X132840000Y-110382000D03*
X128257000Y-100973000D03*
X141730000Y-109874000D03*
X152398000Y-114446000D03*
X137920000Y-84728000D03*
X150366000Y-108858000D03*
X152906000Y-109112000D03*
X150874000Y-98952000D03*
X148334000Y-102000000D03*
X159256000Y-109874000D03*
X159256000Y-108604000D03*
X145286000Y-89554000D03*
X151128000Y-90570000D03*
X153414000Y-112668000D03*
X131824000Y-103524000D03*
X154684000Y-112668000D03*
X126236000Y-105302000D03*
X133856000Y-89554000D03*
X144270000Y-92602000D03*
X142238000Y-80918000D03*
X131570000Y-92094000D03*
X154684000Y-106318000D03*
X155446000Y-104032000D03*
X161034000Y-112668000D03*
X161034000Y-110128000D03*
X160526000Y-99206000D03*
X143000000Y-104794000D03*
X151382000Y-106318000D03*
X135380000Y-87014000D03*
X137666000Y-85998000D03*
X148588000Y-91840000D03*
X143762000Y-84220000D03*
X153160000Y-85236000D03*
D21*
X123950000Y-86506000D02*
X123950000Y-85744000D01*
X123950000Y-85744000D02*
X125474000Y-84220000D01*
X125474000Y-84220000D02*
X136904000Y-84220000D01*
X136904000Y-84220000D02*
X138936000Y-82188000D01*
D22*
X125007000Y-108309000D02*
X125007000Y-118297000D01*
X125007000Y-118297000D02*
X127252000Y-120542000D01*
D21*
X130808000Y-108350000D02*
X132840000Y-110382000D01*
X125048000Y-108350000D02*
X130808000Y-108350000D01*
X125007000Y-108309000D02*
X125048000Y-108350000D01*
D22*
X132840000Y-100984000D02*
X135380000Y-103524000D01*
X128268000Y-100984000D02*
X132840000Y-100984000D01*
X128257000Y-100973000D02*
X128268000Y-100984000D01*
X152398000Y-114446000D02*
X151636000Y-114446000D01*
X151636000Y-114446000D02*
X146410000Y-109220000D01*
X146410000Y-109220000D02*
X141986000Y-109220000D01*
X141986000Y-109220000D02*
X141730000Y-109476000D01*
X141730000Y-109476000D02*
X141730000Y-109874000D01*
X146810000Y-93110000D02*
X146810000Y-97682000D01*
X146810000Y-97682000D02*
X150366000Y-101238000D01*
X150366000Y-108858000D02*
X150366000Y-101238000D01*
X144270000Y-90570000D02*
X146810000Y-93110000D01*
X137920000Y-84728000D02*
X139444000Y-86252000D01*
X139444000Y-86252000D02*
X139444000Y-89300000D01*
X139444000Y-89300000D02*
X140714000Y-90570000D01*
X140714000Y-90570000D02*
X143762000Y-90570000D01*
X143762000Y-90570000D02*
X144270000Y-90570000D01*
X150366000Y-108858000D02*
X150366000Y-108858000D01*
X152906000Y-109112000D02*
X152906000Y-100222000D01*
X151636000Y-98952000D02*
X152906000Y-100222000D01*
X150874000Y-98952000D02*
X151636000Y-98952000D01*
X143000000Y-96920000D02*
X143000000Y-101492000D01*
X143000000Y-101492000D02*
X142492000Y-102000000D01*
X137920000Y-102762000D02*
X137920000Y-103524000D01*
X138682000Y-102000000D02*
X137920000Y-102762000D01*
X142492000Y-102000000D02*
X138682000Y-102000000D01*
X148334000Y-102000000D02*
X142638000Y-107696000D01*
X142638000Y-107696000D02*
X137012000Y-107696000D01*
X137012000Y-107696000D02*
X135380000Y-106064000D01*
X137666000Y-106064000D02*
X136650000Y-105048000D01*
X136650000Y-95650000D02*
X137920000Y-94380000D01*
X136650000Y-98952000D02*
X136650000Y-95650000D01*
X136650000Y-98952000D02*
X136650000Y-98952000D01*
X136650000Y-105048000D02*
X136650000Y-98952000D01*
X160018000Y-109620000D02*
X160018000Y-108096000D01*
X159256000Y-109874000D02*
X159764000Y-109874000D01*
X159764000Y-109874000D02*
X160018000Y-109620000D01*
X159764000Y-107842000D02*
X159764000Y-100984000D01*
X160018000Y-108096000D02*
X159764000Y-107842000D01*
X159764000Y-100984000D02*
X155700000Y-96920000D01*
X159256000Y-108604000D02*
X159256000Y-101238000D01*
X153160000Y-96920000D02*
X153160000Y-97428000D01*
X153160000Y-97428000D02*
X153922000Y-98190000D01*
X153922000Y-98190000D02*
X156208000Y-98190000D01*
X156208000Y-98190000D02*
X159256000Y-101238000D01*
X145286000Y-89554000D02*
X145286000Y-89554000D01*
X146302000Y-90570000D02*
X145286000Y-89554000D01*
X151128000Y-90570000D02*
X146302000Y-90570000D01*
X131824000Y-103524000D02*
X133094000Y-104794000D01*
X133094000Y-104794000D02*
X133094000Y-107080000D01*
X133094000Y-107080000D02*
X134218000Y-108204000D01*
X146918000Y-108204000D02*
X151890000Y-113176000D01*
X134218000Y-108204000D02*
X146918000Y-108204000D01*
X151890000Y-113176000D02*
X152906000Y-113176000D01*
X152906000Y-113176000D02*
X153414000Y-112668000D01*
X126236000Y-105302000D02*
X127252000Y-104286000D01*
X127252000Y-104286000D02*
X131824000Y-104286000D01*
X131824000Y-104286000D02*
X132586000Y-105048000D01*
X132586000Y-105048000D02*
X132586000Y-107334000D01*
X132586000Y-107334000D02*
X133964000Y-108712000D01*
X133964000Y-108712000D02*
X146664000Y-108712000D01*
X146664000Y-108712000D02*
X151636000Y-113684000D01*
X151636000Y-113684000D02*
X153668000Y-113684000D01*
X153668000Y-113684000D02*
X154684000Y-112668000D01*
X133856000Y-89554000D02*
X133856000Y-90062000D01*
X136396000Y-92602000D02*
X144270000Y-92602000D01*
X133856000Y-90062000D02*
X136396000Y-92602000D01*
X130300000Y-94380000D02*
X131824000Y-92856000D01*
X131824000Y-92348000D02*
X131570000Y-92094000D01*
X131824000Y-92856000D02*
X131824000Y-92348000D01*
X154684000Y-106318000D02*
X154684000Y-104794000D01*
X154684000Y-104794000D02*
X155446000Y-104032000D01*
X161034000Y-110128000D02*
X161034000Y-112668000D01*
X137666000Y-85998000D02*
X136650000Y-87014000D01*
X136650000Y-87014000D02*
X135380000Y-87014000D01*
X161034000Y-84982000D02*
X159510000Y-83458000D01*
X159256000Y-91840000D02*
X148588000Y-91840000D01*
X161034000Y-90062000D02*
X159256000Y-91840000D01*
X161034000Y-84982000D02*
X161034000Y-90062000D01*
X157224000Y-83204000D02*
X157224000Y-81934000D01*
X157478000Y-83458000D02*
X157224000Y-83204000D01*
X159510000Y-83458000D02*
X157478000Y-83458000D01*
X143762000Y-84220000D02*
X152144000Y-84220000D01*
X152144000Y-84220000D02*
X153160000Y-85236000D01*
D23*
G36*
X166314343Y-79912443D02*
X166616718Y-80003735D01*
X166895595Y-80152017D01*
X167140364Y-80351646D01*
X167341696Y-80595014D01*
X167491923Y-80872854D01*
X167585324Y-81174583D01*
X167620200Y-81506404D01*
X167620200Y-90870200D01*
X167500000Y-90870200D01*
X167499934Y-90870206D01*
X167498679Y-90870202D01*
X167474245Y-90870287D01*
X167457734Y-90871964D01*
X167441144Y-90871848D01*
X167435866Y-90872366D01*
X166756527Y-90943768D01*
X166722764Y-90950698D01*
X166688994Y-90957140D01*
X166683917Y-90958672D01*
X166031385Y-91160664D01*
X165999586Y-91174031D01*
X165967736Y-91186899D01*
X165963053Y-91189388D01*
X165362183Y-91514277D01*
X165333636Y-91533533D01*
X165304841Y-91552375D01*
X165300732Y-91555727D01*
X164774408Y-91991139D01*
X164750119Y-92015599D01*
X164725558Y-92039650D01*
X164722183Y-92043730D01*
X164722178Y-92043735D01*
X164722174Y-92043740D01*
X164290452Y-92573086D01*
X164271382Y-92601789D01*
X164251955Y-92630160D01*
X164249432Y-92634825D01*
X163928746Y-93237949D01*
X163915631Y-93269768D01*
X163902067Y-93301414D01*
X163900499Y-93306480D01*
X163703067Y-93960406D01*
X163696371Y-93994221D01*
X163689224Y-94027844D01*
X163688671Y-94033107D01*
X163688669Y-94033118D01*
X163688669Y-94033128D01*
X163622013Y-94712938D01*
X163622013Y-94729528D01*
X163620221Y-94746018D01*
X163620202Y-94751321D01*
X163620287Y-94775755D01*
X163621964Y-94792266D01*
X163621848Y-94808856D01*
X163622366Y-94814134D01*
X163693768Y-95493473D01*
X163700684Y-95527167D01*
X163707139Y-95561006D01*
X163708672Y-95566083D01*
X163910664Y-96218614D01*
X163924010Y-96250363D01*
X163936899Y-96282265D01*
X163939388Y-96286947D01*
X164264278Y-96887817D01*
X164283525Y-96916353D01*
X164302375Y-96945159D01*
X164305727Y-96949269D01*
X164741139Y-97475592D01*
X164765599Y-97499881D01*
X164789650Y-97524442D01*
X164793730Y-97527817D01*
X164793735Y-97527822D01*
X164793740Y-97527826D01*
X165323085Y-97959548D01*
X165351790Y-97978620D01*
X165380160Y-97998045D01*
X165384817Y-98000563D01*
X165384825Y-98000568D01*
X165384833Y-98000571D01*
X165987948Y-98321254D01*
X166019781Y-98334375D01*
X166051414Y-98347933D01*
X166056476Y-98349500D01*
X166056482Y-98349502D01*
X166710405Y-98546933D01*
X166744203Y-98553625D01*
X166777844Y-98560776D01*
X166783116Y-98561330D01*
X166783118Y-98561330D01*
X167462938Y-98627987D01*
X167478866Y-98627987D01*
X167494697Y-98629763D01*
X167500000Y-98629800D01*
X167620200Y-98629800D01*
X167620200Y-127481428D01*
X167587557Y-127814343D01*
X167496265Y-128116719D01*
X167347983Y-128395595D01*
X167148351Y-128640367D01*
X166904986Y-128841696D01*
X166627146Y-128991923D01*
X166325417Y-129085324D01*
X165993596Y-129120200D01*
X120018572Y-129120200D01*
X119685657Y-129087557D01*
X119383281Y-128996265D01*
X119104405Y-128847983D01*
X118859633Y-128648351D01*
X118658304Y-128404986D01*
X118508077Y-128127146D01*
X118414676Y-127825417D01*
X118379800Y-127493596D01*
X118379800Y-124352000D01*
X123897725Y-124352000D01*
X123897725Y-126892000D01*
X123901745Y-126941461D01*
X123927411Y-127023540D01*
X123974883Y-127095248D01*
X124040420Y-127150932D01*
X124118853Y-127186201D01*
X124204000Y-127198275D01*
X125728000Y-127198275D01*
X125777461Y-127194255D01*
X125859540Y-127168589D01*
X125931248Y-127121117D01*
X125986932Y-127055580D01*
X126022201Y-126977147D01*
X126034275Y-126892000D01*
X126034275Y-125647400D01*
X126388400Y-125647400D01*
X126388400Y-126155400D01*
X126414830Y-126372945D01*
X126483193Y-126581154D01*
X126590862Y-126772025D01*
X126733699Y-126938223D01*
X126906215Y-127073362D01*
X127101780Y-127172248D01*
X127306127Y-127229582D01*
X127480600Y-127158386D01*
X127480600Y-125647400D01*
X127531400Y-125647400D01*
X127531400Y-127158386D01*
X127705873Y-127229582D01*
X127910220Y-127172248D01*
X128105785Y-127073362D01*
X128278301Y-126938223D01*
X128421138Y-126772025D01*
X128528807Y-126581154D01*
X128597170Y-126372945D01*
X128623600Y-126155400D01*
X128623600Y-125647400D01*
X127531400Y-125647400D01*
X127480600Y-125647400D01*
X127480600Y-125647400D01*
X126388400Y-125647400D01*
X126034275Y-125647400D01*
X126034275Y-125088600D01*
X126388400Y-125088600D01*
X126388400Y-125596600D01*
X127480600Y-125596600D01*
X127480600Y-124085614D01*
X127531400Y-124085614D01*
X127531400Y-125596600D01*
X128623600Y-125596600D01*
X128623600Y-125088600D01*
X128597170Y-124871055D01*
X128528807Y-124662846D01*
X128421138Y-124471975D01*
X128278301Y-124305777D01*
X128105785Y-124170638D01*
X127910220Y-124071752D01*
X127705873Y-124014418D01*
X127531400Y-124085614D01*
X127480600Y-124085614D01*
X127480600Y-124085614D01*
X127306127Y-124014418D01*
X127101780Y-124071752D01*
X126906215Y-124170638D01*
X126733699Y-124305777D01*
X126590862Y-124471975D01*
X126483193Y-124662846D01*
X126414830Y-124871055D01*
X126388400Y-125088600D01*
X126034275Y-125088600D01*
X126034275Y-124352000D01*
X126030255Y-124302539D01*
X126004589Y-124220460D01*
X125957117Y-124148752D01*
X125891580Y-124093068D01*
X125813147Y-124057799D01*
X125728000Y-124045725D01*
X124204000Y-124045725D01*
X124154539Y-124049745D01*
X124072460Y-124075411D01*
X124000752Y-124122883D01*
X123945068Y-124188420D01*
X123909799Y-124266853D01*
X123897725Y-124352000D01*
X118379800Y-124352000D01*
X118379800Y-123783794D01*
X134672170Y-123783794D01*
X134753764Y-124228363D01*
X134920154Y-124648617D01*
X135165004Y-125028548D01*
X135478985Y-125353686D01*
X135850140Y-125611646D01*
X136264331Y-125792601D01*
X136705782Y-125889660D01*
X137157678Y-125899126D01*
X137602805Y-125820638D01*
X138024211Y-125657186D01*
X138405842Y-125414995D01*
X138733164Y-125103291D01*
X138993709Y-124733946D01*
X139177551Y-124321028D01*
X139277690Y-123880266D01*
X139279037Y-123783794D01*
X146712170Y-123783794D01*
X146793764Y-124228363D01*
X146960154Y-124648617D01*
X147205004Y-125028548D01*
X147518985Y-125353686D01*
X147890140Y-125611646D01*
X148304331Y-125792601D01*
X148745782Y-125889660D01*
X149197678Y-125899126D01*
X149642805Y-125820638D01*
X150064211Y-125657186D01*
X150445842Y-125414995D01*
X150773164Y-125103291D01*
X151033709Y-124733946D01*
X151081769Y-124626000D01*
X152703725Y-124626000D01*
X152703725Y-127126000D01*
X152707745Y-127175461D01*
X152733411Y-127257540D01*
X152780883Y-127329248D01*
X152846420Y-127384932D01*
X152924853Y-127420201D01*
X153010000Y-127432275D01*
X155510000Y-127432275D01*
X155559461Y-127428255D01*
X155641540Y-127402589D01*
X155713248Y-127355117D01*
X155768932Y-127289580D01*
X155804201Y-127211147D01*
X155816275Y-127126000D01*
X155816275Y-126006732D01*
X156203156Y-126006732D01*
X156258199Y-126306635D01*
X156370444Y-126590135D01*
X156535618Y-126846433D01*
X156747427Y-127065769D01*
X156997806Y-127239786D01*
X157277216Y-127361857D01*
X157575015Y-127427333D01*
X157879860Y-127433718D01*
X158180140Y-127380771D01*
X158464416Y-127270507D01*
X158721862Y-127107127D01*
X158942671Y-126896854D01*
X159118432Y-126647697D01*
X159242451Y-126369146D01*
X159310004Y-126071811D01*
X159310913Y-126006732D01*
X159703156Y-126006732D01*
X159758199Y-126306635D01*
X159870444Y-126590135D01*
X160035618Y-126846433D01*
X160247427Y-127065769D01*
X160497806Y-127239786D01*
X160777216Y-127361857D01*
X161075015Y-127427333D01*
X161379860Y-127433718D01*
X161680140Y-127380771D01*
X161964416Y-127270507D01*
X162221862Y-127107127D01*
X162363998Y-126971773D01*
X163700148Y-126971773D01*
X163832352Y-127196011D01*
X164107698Y-127351623D01*
X164408112Y-127450527D01*
X164722049Y-127488923D01*
X165037444Y-127465335D01*
X165342177Y-127380669D01*
X165624537Y-127238180D01*
X165687648Y-127196011D01*
X165819852Y-126971773D01*
X164760000Y-125911921D01*
X163700148Y-126971773D01*
X162363998Y-126971773D01*
X162442671Y-126896854D01*
X162618432Y-126647697D01*
X162742451Y-126369146D01*
X162810004Y-126071811D01*
X162813268Y-125838049D01*
X163147077Y-125838049D01*
X163170665Y-126153444D01*
X163255331Y-126458177D01*
X163397820Y-126740537D01*
X163439989Y-126803648D01*
X163664227Y-126935852D01*
X164724079Y-125876000D01*
X164795921Y-125876000D01*
X165855773Y-126935852D01*
X166080011Y-126803648D01*
X166235623Y-126528302D01*
X166334527Y-126227888D01*
X166372923Y-125913951D01*
X166349335Y-125598556D01*
X166264669Y-125293823D01*
X166122180Y-125011463D01*
X166080011Y-124948352D01*
X165855773Y-124816148D01*
X164795921Y-125876000D01*
X164724079Y-125876000D01*
X164724079Y-125876000D01*
X163664227Y-124816148D01*
X163439989Y-124948352D01*
X163284377Y-125223698D01*
X163185473Y-125524112D01*
X163147077Y-125838049D01*
X162813268Y-125838049D01*
X162814867Y-125723544D01*
X162755642Y-125424439D01*
X162639449Y-125142534D01*
X162470714Y-124888566D01*
X162363129Y-124780227D01*
X163700148Y-124780227D01*
X164760000Y-125840079D01*
X165819852Y-124780227D01*
X165687648Y-124555989D01*
X165412302Y-124400377D01*
X165111888Y-124301473D01*
X164797951Y-124263077D01*
X164482556Y-124286665D01*
X164177823Y-124371331D01*
X163895463Y-124513820D01*
X163832352Y-124555989D01*
X163700148Y-124780227D01*
X162363129Y-124780227D01*
X162255862Y-124672209D01*
X162003079Y-124501705D01*
X161721991Y-124383547D01*
X161423307Y-124322236D01*
X161118403Y-124320107D01*
X160818891Y-124377242D01*
X160536182Y-124491464D01*
X160281042Y-124658422D01*
X160063191Y-124871758D01*
X159890926Y-125123345D01*
X159770808Y-125403601D01*
X159707414Y-125701850D01*
X159703156Y-126006732D01*
X159310913Y-126006732D01*
X159314867Y-125723544D01*
X159255642Y-125424439D01*
X159139449Y-125142534D01*
X158970714Y-124888566D01*
X158755862Y-124672209D01*
X158503079Y-124501705D01*
X158221991Y-124383547D01*
X157923307Y-124322236D01*
X157618403Y-124320107D01*
X157318891Y-124377242D01*
X157036182Y-124491464D01*
X156781042Y-124658422D01*
X156563191Y-124871758D01*
X156390926Y-125123345D01*
X156270808Y-125403601D01*
X156207414Y-125701850D01*
X156203156Y-126006732D01*
X155816275Y-126006732D01*
X155816275Y-124626000D01*
X155812255Y-124576539D01*
X155786589Y-124494460D01*
X155739117Y-124422752D01*
X155673580Y-124367068D01*
X155595147Y-124331799D01*
X155510000Y-124319725D01*
X153010000Y-124319725D01*
X152960539Y-124323745D01*
X152878460Y-124349411D01*
X152806752Y-124396883D01*
X152751068Y-124462420D01*
X152715799Y-124540853D01*
X152703725Y-124626000D01*
X151081769Y-124626000D01*
X151217551Y-124321028D01*
X151317690Y-123880266D01*
X151324899Y-123364003D01*
X151237106Y-122920616D01*
X151064864Y-122502726D01*
X150814734Y-122126250D01*
X150496243Y-121805528D01*
X150121523Y-121552776D01*
X149704846Y-121377621D01*
X149262083Y-121286735D01*
X148810099Y-121283580D01*
X148366111Y-121368275D01*
X147947029Y-121537595D01*
X147568816Y-121785091D01*
X147245878Y-122101335D01*
X146990516Y-122474282D01*
X146812456Y-122889726D01*
X146718481Y-123331843D01*
X146712170Y-123783794D01*
X139279037Y-123783794D01*
X139284899Y-123364003D01*
X139197106Y-122920616D01*
X139024864Y-122502726D01*
X138774734Y-122126250D01*
X138456243Y-121805528D01*
X138081523Y-121552776D01*
X137664846Y-121377621D01*
X137222083Y-121286735D01*
X136770099Y-121283580D01*
X136326111Y-121368275D01*
X135907029Y-121537595D01*
X135528816Y-121785091D01*
X135205878Y-122101335D01*
X134950516Y-122474282D01*
X134772456Y-122889726D01*
X134678481Y-123331843D01*
X134672170Y-123783794D01*
X118379800Y-123783794D01*
X118379800Y-108372003D01*
X124256715Y-108372003D01*
X124283241Y-108516535D01*
X124337335Y-108653161D01*
X124416937Y-108776678D01*
X124519014Y-108882382D01*
X124575200Y-108921432D01*
X124575200Y-118297000D01*
X124579089Y-118336661D01*
X124582568Y-118376430D01*
X124583203Y-118378615D01*
X124583424Y-118380870D01*
X124594939Y-118419011D01*
X124606080Y-118457357D01*
X124607125Y-118459373D01*
X124607781Y-118461546D01*
X124626493Y-118496738D01*
X124644862Y-118532175D01*
X124646280Y-118533952D01*
X124647345Y-118535954D01*
X124672541Y-118566848D01*
X124697438Y-118598036D01*
X124700555Y-118601197D01*
X124700607Y-118601261D01*
X124700666Y-118601310D01*
X124701671Y-118602329D01*
X126513171Y-120413828D01*
X126503766Y-120458072D01*
X126501715Y-120605003D01*
X126528241Y-120749535D01*
X126582335Y-120886161D01*
X126661937Y-121009678D01*
X126764014Y-121115382D01*
X126884678Y-121199246D01*
X127019333Y-121258075D01*
X127162851Y-121289630D01*
X127309764Y-121292707D01*
X127454477Y-121267190D01*
X127591477Y-121214051D01*
X127715548Y-121135314D01*
X127821961Y-121033977D01*
X127906665Y-120913902D01*
X127966433Y-120779660D01*
X127998989Y-120636367D01*
X128001333Y-120468527D01*
X127972791Y-120324380D01*
X127916794Y-120188523D01*
X127835476Y-120066129D01*
X127731933Y-119961861D01*
X127610110Y-119879690D01*
X127474646Y-119822746D01*
X127330702Y-119793199D01*
X127183760Y-119792173D01*
X127124193Y-119803536D01*
X126192596Y-118871938D01*
X140338431Y-118871938D01*
X140358858Y-119096388D01*
X140422491Y-119312596D01*
X140526908Y-119512326D01*
X140668130Y-119687971D01*
X140840779Y-119832841D01*
X140926227Y-119879816D01*
X140854146Y-119918143D01*
X140679491Y-120060588D01*
X140535830Y-120234244D01*
X140428635Y-120432497D01*
X140361990Y-120647795D01*
X140338431Y-120871938D01*
X140358858Y-121096388D01*
X140422491Y-121312596D01*
X140526908Y-121512326D01*
X140668130Y-121687971D01*
X140840779Y-121832841D01*
X141038279Y-121941417D01*
X141253107Y-122009565D01*
X141477079Y-122034687D01*
X141493203Y-122034800D01*
X142006797Y-122034800D01*
X142231099Y-122012807D01*
X142446857Y-121947666D01*
X142645854Y-121841857D01*
X142820509Y-121699412D01*
X142964170Y-121525756D01*
X142973358Y-121508763D01*
X142983468Y-121528676D01*
X143129551Y-121714527D01*
X143309085Y-121868308D01*
X143515170Y-121984109D01*
X143739887Y-122057479D01*
X143974600Y-122085600D01*
X144224600Y-122085600D01*
X144224600Y-120905400D01*
X144275400Y-120905400D01*
X144275400Y-122085600D01*
X144525400Y-122085600D01*
X144760113Y-122057479D01*
X144984830Y-121984109D01*
X145190915Y-121868308D01*
X145370449Y-121714527D01*
X145516532Y-121528676D01*
X145623550Y-121317896D01*
X145686519Y-121093643D01*
X145616411Y-120905400D01*
X144275400Y-120905400D01*
X144224600Y-120905400D01*
X144224600Y-120905400D01*
X144204600Y-120905400D01*
X144204600Y-120854600D01*
X144224600Y-120854600D01*
X144224600Y-120834600D01*
X144275400Y-120834600D01*
X144275400Y-120854600D01*
X145616411Y-120854600D01*
X145686519Y-120666357D01*
X145623550Y-120442104D01*
X145516532Y-120231324D01*
X145370449Y-120045473D01*
X145190915Y-119891692D01*
X145123438Y-119853776D01*
X145145854Y-119841857D01*
X145320509Y-119699412D01*
X145464170Y-119525756D01*
X145571365Y-119327503D01*
X145638010Y-119112205D01*
X145661569Y-118888062D01*
X145641142Y-118663612D01*
X145577509Y-118447404D01*
X145473092Y-118247674D01*
X145331870Y-118072029D01*
X145159221Y-117927159D01*
X144961721Y-117818583D01*
X144746893Y-117750435D01*
X144522921Y-117725313D01*
X144506797Y-117725200D01*
X143993203Y-117725200D01*
X143768901Y-117747193D01*
X143553143Y-117812334D01*
X143354146Y-117918143D01*
X143179491Y-118060588D01*
X143035830Y-118234244D01*
X143000363Y-118299839D01*
X142973092Y-118247674D01*
X142831870Y-118072029D01*
X142659221Y-117927159D01*
X142461721Y-117818583D01*
X142246893Y-117750435D01*
X142022921Y-117725313D01*
X142006797Y-117725200D01*
X141493203Y-117725200D01*
X141268901Y-117747193D01*
X141053143Y-117812334D01*
X140854146Y-117918143D01*
X140679491Y-118060588D01*
X140535830Y-118234244D01*
X140428635Y-118432497D01*
X140361990Y-118647795D01*
X140338431Y-118871938D01*
X126192596Y-118871938D01*
X125438800Y-118118142D01*
X125438800Y-116239199D01*
X126151460Y-116239199D01*
X126252171Y-116787927D01*
X126457545Y-117306644D01*
X126759761Y-117775591D01*
X127147307Y-118176907D01*
X127605421Y-118495304D01*
X128116655Y-118718657D01*
X128661535Y-118838456D01*
X129219306Y-118850140D01*
X129768725Y-118753263D01*
X130288863Y-118551515D01*
X130759908Y-118252580D01*
X131163920Y-117867845D01*
X131485508Y-117411965D01*
X131712424Y-116902303D01*
X131836024Y-116358273D01*
X131837687Y-116239199D01*
X154151460Y-116239199D01*
X154252171Y-116787927D01*
X154457545Y-117306644D01*
X154759761Y-117775591D01*
X155147307Y-118176907D01*
X155605421Y-118495304D01*
X156116655Y-118718657D01*
X156661535Y-118838456D01*
X157219306Y-118850140D01*
X157768725Y-118753263D01*
X158288863Y-118551515D01*
X158759908Y-118252580D01*
X159163920Y-117867845D01*
X159485508Y-117411965D01*
X159712424Y-116902303D01*
X159836024Y-116358273D01*
X159844922Y-115721053D01*
X159736560Y-115173784D01*
X159523963Y-114657985D01*
X159215229Y-114193303D01*
X158822118Y-113797438D01*
X158359603Y-113485467D01*
X157845301Y-113269275D01*
X157298801Y-113157095D01*
X156740921Y-113153200D01*
X156192909Y-113257739D01*
X155675638Y-113466729D01*
X155208812Y-113772212D01*
X154810212Y-114162550D01*
X154495020Y-114622876D01*
X154275243Y-115135656D01*
X154159250Y-115681359D01*
X154151460Y-116239199D01*
X131837687Y-116239199D01*
X131844922Y-115721053D01*
X131736560Y-115173784D01*
X131523963Y-114657985D01*
X131215229Y-114193303D01*
X130822118Y-113797438D01*
X130359603Y-113485467D01*
X129845301Y-113269275D01*
X129298801Y-113157095D01*
X128740921Y-113153200D01*
X128192909Y-113257739D01*
X127675638Y-113466729D01*
X127208812Y-113772212D01*
X126810212Y-114162550D01*
X126495020Y-114622876D01*
X126275243Y-115135656D01*
X126159250Y-115681359D01*
X126151460Y-116239199D01*
X125438800Y-116239199D01*
X125438800Y-108922462D01*
X125460328Y-108908800D01*
X130576538Y-108908800D01*
X132090032Y-110422294D01*
X132089715Y-110445003D01*
X132116241Y-110589535D01*
X132170335Y-110726161D01*
X132249937Y-110849678D01*
X132352014Y-110955382D01*
X132472678Y-111039246D01*
X132607333Y-111098075D01*
X132750851Y-111129630D01*
X132897764Y-111132707D01*
X133042477Y-111107190D01*
X133179477Y-111054051D01*
X133303548Y-110975314D01*
X133409961Y-110873977D01*
X133494665Y-110753902D01*
X133554433Y-110619660D01*
X133586989Y-110476367D01*
X133589333Y-110308527D01*
X133560791Y-110164380D01*
X133504794Y-110028523D01*
X133423476Y-109906129D01*
X133319933Y-109801861D01*
X133198110Y-109719690D01*
X133062646Y-109662746D01*
X132918702Y-109633199D01*
X132881199Y-109632937D01*
X131203131Y-107954869D01*
X131163257Y-107922116D01*
X131123704Y-107888927D01*
X131121129Y-107887511D01*
X131118858Y-107885646D01*
X131073378Y-107861260D01*
X131028135Y-107836387D01*
X131025333Y-107835498D01*
X131022744Y-107834110D01*
X130973416Y-107819029D01*
X130924181Y-107803411D01*
X130921258Y-107803083D01*
X130918451Y-107802225D01*
X130867137Y-107797012D01*
X130815802Y-107791254D01*
X130810061Y-107791214D01*
X130809950Y-107791203D01*
X130809847Y-107791213D01*
X130808000Y-107791200D01*
X125548839Y-107791200D01*
X125486933Y-107728861D01*
X125365110Y-107646690D01*
X125229646Y-107589746D01*
X125085702Y-107560199D01*
X124938760Y-107559173D01*
X124794418Y-107586708D01*
X124658172Y-107641754D01*
X124535214Y-107722216D01*
X124430225Y-107825028D01*
X124347206Y-107946275D01*
X124289318Y-108081338D01*
X124258766Y-108225072D01*
X124256715Y-108372003D01*
X118379800Y-108372003D01*
X118379800Y-105365003D01*
X125485715Y-105365003D01*
X125512241Y-105509535D01*
X125566335Y-105646161D01*
X125645937Y-105769678D01*
X125748014Y-105875382D01*
X125868678Y-105959246D01*
X126003333Y-106018075D01*
X126146851Y-106049630D01*
X126293764Y-106052707D01*
X126438477Y-106027190D01*
X126575477Y-105974051D01*
X126699548Y-105895314D01*
X126805961Y-105793977D01*
X126890665Y-105673902D01*
X126950433Y-105539660D01*
X126982989Y-105396367D01*
X126985333Y-105228527D01*
X126974556Y-105174102D01*
X127430858Y-104717800D01*
X131645142Y-104717800D01*
X132154200Y-105226858D01*
X132154200Y-107334000D01*
X132158089Y-107373661D01*
X132161568Y-107413430D01*
X132162203Y-107415615D01*
X132162424Y-107417870D01*
X132173939Y-107456011D01*
X132185080Y-107494357D01*
X132186125Y-107496373D01*
X132186781Y-107498546D01*
X132205493Y-107533738D01*
X132223862Y-107569175D01*
X132225280Y-107570952D01*
X132226345Y-107572954D01*
X132251541Y-107603848D01*
X132276438Y-107635036D01*
X132279555Y-107638197D01*
X132279607Y-107638261D01*
X132279666Y-107638310D01*
X132280671Y-107639329D01*
X133658671Y-109017329D01*
X133689482Y-109042637D01*
X133720047Y-109068284D01*
X133722040Y-109069380D01*
X133723791Y-109070818D01*
X133758896Y-109089641D01*
X133793896Y-109108883D01*
X133796062Y-109109570D01*
X133798061Y-109110642D01*
X133836159Y-109122289D01*
X133874224Y-109134364D01*
X133876484Y-109134618D01*
X133878651Y-109135280D01*
X133918271Y-109139305D01*
X133957971Y-109143758D01*
X133962413Y-109143789D01*
X133962492Y-109143797D01*
X133962566Y-109143790D01*
X133964000Y-109143800D01*
X141451542Y-109143800D01*
X141424671Y-109170671D01*
X141401917Y-109198373D01*
X141381172Y-109206754D01*
X141258214Y-109287216D01*
X141153225Y-109390028D01*
X141070206Y-109511275D01*
X141012318Y-109646338D01*
X140981766Y-109790072D01*
X140979715Y-109937003D01*
X141006241Y-110081535D01*
X141060335Y-110218161D01*
X141139937Y-110341678D01*
X141242014Y-110447382D01*
X141362678Y-110531246D01*
X141497333Y-110590075D01*
X141640851Y-110621630D01*
X141787764Y-110624707D01*
X141932477Y-110599190D01*
X142069477Y-110546051D01*
X142193548Y-110467314D01*
X142299961Y-110365977D01*
X142384665Y-110245902D01*
X142444433Y-110111660D01*
X142476989Y-109968367D01*
X142479333Y-109800527D01*
X142450791Y-109656380D01*
X142448903Y-109651800D01*
X146231142Y-109651800D01*
X151330671Y-114751329D01*
X151361460Y-114776619D01*
X151392047Y-114802284D01*
X151394043Y-114803381D01*
X151395792Y-114804818D01*
X151430875Y-114823630D01*
X151465896Y-114842883D01*
X151468062Y-114843570D01*
X151470061Y-114844642D01*
X151508159Y-114856289D01*
X151546224Y-114868364D01*
X151548484Y-114868618D01*
X151550651Y-114869280D01*
X151590316Y-114873310D01*
X151629971Y-114877758D01*
X151634402Y-114877789D01*
X151634492Y-114877798D01*
X151634576Y-114877790D01*
X151636000Y-114877800D01*
X151784815Y-114877800D01*
X151807937Y-114913678D01*
X151910014Y-115019382D01*
X152030678Y-115103246D01*
X152165333Y-115162075D01*
X152308851Y-115193630D01*
X152455764Y-115196707D01*
X152600477Y-115171190D01*
X152737477Y-115118051D01*
X152861548Y-115039314D01*
X152967961Y-114937977D01*
X153052665Y-114817902D01*
X153112433Y-114683660D01*
X153144989Y-114540367D01*
X153147333Y-114372527D01*
X153118791Y-114228380D01*
X153072388Y-114115800D01*
X153668000Y-114115800D01*
X153707661Y-114111911D01*
X153747430Y-114108432D01*
X153749615Y-114107797D01*
X153751870Y-114107576D01*
X153790011Y-114096061D01*
X153828357Y-114084920D01*
X153830373Y-114083875D01*
X153832546Y-114083219D01*
X153867738Y-114064507D01*
X153903175Y-114046138D01*
X153904952Y-114044720D01*
X153906954Y-114043655D01*
X153937848Y-114018459D01*
X153969036Y-113993562D01*
X153972197Y-113990445D01*
X153972261Y-113990393D01*
X153972310Y-113990334D01*
X153973329Y-113989329D01*
X154555648Y-113407010D01*
X154594851Y-113415630D01*
X154741764Y-113418707D01*
X154886477Y-113393190D01*
X155023477Y-113340051D01*
X155147548Y-113261314D01*
X155253961Y-113159977D01*
X155338665Y-113039902D01*
X155398433Y-112905660D01*
X155430989Y-112762367D01*
X155433333Y-112594527D01*
X155404791Y-112450380D01*
X155348794Y-112314523D01*
X155267476Y-112192129D01*
X155163933Y-112087861D01*
X155042110Y-112005690D01*
X154906646Y-111948746D01*
X154762702Y-111919199D01*
X154615760Y-111918173D01*
X154471418Y-111945708D01*
X154335172Y-112000754D01*
X154212214Y-112081216D01*
X154107225Y-112184028D01*
X154048793Y-112269367D01*
X153997476Y-112192129D01*
X153893933Y-112087861D01*
X153772110Y-112005690D01*
X153636646Y-111948746D01*
X153492702Y-111919199D01*
X153345760Y-111918173D01*
X153201418Y-111945708D01*
X153065172Y-112000754D01*
X152942214Y-112081216D01*
X152837225Y-112184028D01*
X152754206Y-112305275D01*
X152696318Y-112440338D01*
X152665766Y-112584072D01*
X152663715Y-112731003D01*
X152666137Y-112744200D01*
X152068858Y-112744200D01*
X147223329Y-107898671D01*
X147192513Y-107873359D01*
X147161953Y-107847716D01*
X147159961Y-107846621D01*
X147158208Y-107845181D01*
X147123086Y-107826349D01*
X147088104Y-107807117D01*
X147085938Y-107806430D01*
X147083939Y-107805358D01*
X147045853Y-107793715D01*
X147007776Y-107781636D01*
X147005514Y-107781382D01*
X147003348Y-107780720D01*
X146963689Y-107776691D01*
X146924029Y-107772242D01*
X146919598Y-107772211D01*
X146919508Y-107772202D01*
X146919424Y-107772210D01*
X146918000Y-107772200D01*
X143172458Y-107772200D01*
X148205647Y-102739010D01*
X148244851Y-102747630D01*
X148391764Y-102750707D01*
X148536477Y-102725190D01*
X148673477Y-102672051D01*
X148797548Y-102593314D01*
X148903961Y-102491977D01*
X148988665Y-102371902D01*
X149048433Y-102237660D01*
X149080989Y-102094367D01*
X149083333Y-101926527D01*
X149054791Y-101782380D01*
X148998794Y-101646523D01*
X148917476Y-101524129D01*
X148813933Y-101419861D01*
X148692110Y-101337690D01*
X148556646Y-101280746D01*
X148412702Y-101251199D01*
X148265760Y-101250173D01*
X148121418Y-101277708D01*
X147985172Y-101332754D01*
X147862214Y-101413216D01*
X147757225Y-101516028D01*
X147674206Y-101637275D01*
X147616318Y-101772338D01*
X147585766Y-101916072D01*
X147583715Y-102063003D01*
X147595597Y-102127746D01*
X142459142Y-107264200D01*
X137190857Y-107264200D01*
X136575275Y-106648618D01*
X136575275Y-105583933D01*
X136761859Y-105770517D01*
X136727900Y-105930285D01*
X136724631Y-106164378D01*
X136766894Y-106394648D01*
X136853077Y-106612324D01*
X136979900Y-106809114D01*
X137142531Y-106977523D01*
X137334775Y-107111136D01*
X137549311Y-107204865D01*
X137777965Y-107255138D01*
X138012030Y-107260041D01*
X138242590Y-107219387D01*
X138460862Y-107134725D01*
X138658533Y-107009279D01*
X138828073Y-106847828D01*
X138963025Y-106656521D01*
X139058249Y-106442645D01*
X139110117Y-106214347D01*
X139110815Y-106164378D01*
X139264631Y-106164378D01*
X139306894Y-106394648D01*
X139393077Y-106612324D01*
X139519900Y-106809114D01*
X139682531Y-106977523D01*
X139874775Y-107111136D01*
X140089311Y-107204865D01*
X140317965Y-107255138D01*
X140552030Y-107260041D01*
X140782590Y-107219387D01*
X141000862Y-107134725D01*
X141198533Y-107009279D01*
X141368073Y-106847828D01*
X141503025Y-106656521D01*
X141598249Y-106442645D01*
X141650117Y-106214347D01*
X141653851Y-105946942D01*
X141608377Y-105717284D01*
X141519163Y-105500833D01*
X141389605Y-105305833D01*
X141224639Y-105139711D01*
X141030547Y-105008795D01*
X140814724Y-104918071D01*
X140585390Y-104870995D01*
X140351279Y-104869361D01*
X140121310Y-104913230D01*
X139904241Y-105000931D01*
X139708341Y-105129125D01*
X139541071Y-105292927D01*
X139408804Y-105486100D01*
X139316575Y-105701284D01*
X139267900Y-105930285D01*
X139264631Y-106164378D01*
X139110815Y-106164378D01*
X139113851Y-105946942D01*
X139068377Y-105717284D01*
X138979163Y-105500833D01*
X138849605Y-105305833D01*
X138684639Y-105139711D01*
X138490547Y-105008795D01*
X138274724Y-104918071D01*
X138045390Y-104870995D01*
X137811279Y-104869361D01*
X137581310Y-104913230D01*
X137364241Y-105000931D01*
X137273179Y-105060521D01*
X137081800Y-104869142D01*
X137081800Y-104374634D01*
X137142531Y-104437523D01*
X137334775Y-104571136D01*
X137549311Y-104664865D01*
X137777965Y-104715138D01*
X138012030Y-104720041D01*
X138242590Y-104679387D01*
X138460862Y-104594725D01*
X138658533Y-104469279D01*
X138769901Y-104363225D01*
X139656696Y-104363225D01*
X139745603Y-104550496D01*
X139959589Y-104670144D01*
X140192806Y-104745746D01*
X140436291Y-104774398D01*
X140680687Y-104754998D01*
X140916601Y-104688291D01*
X141134970Y-104576841D01*
X141174397Y-104550496D01*
X141263304Y-104363225D01*
X140460000Y-103559921D01*
X139656696Y-104363225D01*
X138769901Y-104363225D01*
X138828073Y-104307828D01*
X138963025Y-104116521D01*
X139058249Y-103902645D01*
X139110117Y-103674347D01*
X139112547Y-103500291D01*
X139209602Y-103500291D01*
X139229002Y-103744687D01*
X139295709Y-103980601D01*
X139407159Y-104198970D01*
X139433504Y-104238397D01*
X139620775Y-104327304D01*
X140424079Y-103524000D01*
X140495921Y-103524000D01*
X141299225Y-104327304D01*
X141486496Y-104238397D01*
X141606144Y-104024411D01*
X141681746Y-103791194D01*
X141710398Y-103547709D01*
X141690998Y-103303313D01*
X141624291Y-103067399D01*
X141512841Y-102849030D01*
X141486496Y-102809603D01*
X141299225Y-102720696D01*
X140495921Y-103524000D01*
X140424079Y-103524000D01*
X140424079Y-103524000D01*
X139620775Y-102720696D01*
X139433504Y-102809603D01*
X139313856Y-103023589D01*
X139238254Y-103256806D01*
X139209602Y-103500291D01*
X139112547Y-103500291D01*
X139113851Y-103406942D01*
X139068377Y-103177284D01*
X138979163Y-102960833D01*
X138849605Y-102765833D01*
X138688778Y-102603880D01*
X138860858Y-102431800D01*
X139862148Y-102431800D01*
X139785030Y-102471159D01*
X139745603Y-102497504D01*
X139656696Y-102684775D01*
X140460000Y-103488079D01*
X141263304Y-102684775D01*
X141174397Y-102497504D01*
X141056888Y-102431800D01*
X142492000Y-102431800D01*
X142531661Y-102427911D01*
X142571430Y-102424432D01*
X142573615Y-102423797D01*
X142575870Y-102423576D01*
X142614011Y-102412061D01*
X142652357Y-102400920D01*
X142654373Y-102399875D01*
X142656546Y-102399219D01*
X142691738Y-102380507D01*
X142727175Y-102362138D01*
X142728952Y-102360720D01*
X142730954Y-102359655D01*
X142761848Y-102334459D01*
X142793036Y-102309562D01*
X142796197Y-102306445D01*
X142796261Y-102306393D01*
X142796310Y-102306334D01*
X142797329Y-102305329D01*
X143305328Y-101797329D01*
X143330612Y-101766547D01*
X143356284Y-101735953D01*
X143357380Y-101733960D01*
X143358818Y-101732209D01*
X143377641Y-101697104D01*
X143396883Y-101662104D01*
X143397570Y-101659938D01*
X143398642Y-101657939D01*
X143410289Y-101619841D01*
X143422364Y-101581776D01*
X143422618Y-101579516D01*
X143423280Y-101577349D01*
X143427305Y-101537729D01*
X143431758Y-101498029D01*
X143431789Y-101493587D01*
X143431797Y-101493508D01*
X143431790Y-101493434D01*
X143431800Y-101492000D01*
X143431800Y-98033027D01*
X143540862Y-97990725D01*
X143738533Y-97865279D01*
X143908073Y-97703828D01*
X144043025Y-97512521D01*
X144138249Y-97298645D01*
X144190117Y-97070347D01*
X144193851Y-96802942D01*
X144148377Y-96573284D01*
X144059163Y-96356833D01*
X143929605Y-96161833D01*
X143764639Y-95995711D01*
X143570547Y-95864795D01*
X143354724Y-95774071D01*
X143125390Y-95726995D01*
X142891279Y-95725361D01*
X142661310Y-95769230D01*
X142444241Y-95856931D01*
X142248341Y-95985125D01*
X142081071Y-96148927D01*
X141948804Y-96342100D01*
X141856575Y-96557284D01*
X141807900Y-96786285D01*
X141804631Y-97020378D01*
X141846894Y-97250648D01*
X141933077Y-97468324D01*
X142059900Y-97665114D01*
X142222531Y-97833523D01*
X142414775Y-97967136D01*
X142568200Y-98034166D01*
X142568200Y-101313143D01*
X142313142Y-101568200D01*
X138682000Y-101568200D01*
X138642383Y-101572085D01*
X138602570Y-101575568D01*
X138600385Y-101576203D01*
X138598130Y-101576424D01*
X138560035Y-101587925D01*
X138521643Y-101599079D01*
X138519623Y-101600126D01*
X138517454Y-101600781D01*
X138482297Y-101619474D01*
X138446825Y-101637862D01*
X138445048Y-101639280D01*
X138443046Y-101640345D01*
X138412152Y-101665541D01*
X138380964Y-101690438D01*
X138377803Y-101693555D01*
X138377739Y-101693607D01*
X138377690Y-101693666D01*
X138376671Y-101694671D01*
X137725646Y-102345696D01*
X137581310Y-102373230D01*
X137364241Y-102460931D01*
X137168341Y-102589125D01*
X137081800Y-102673872D01*
X137081800Y-97794124D01*
X137116697Y-97759227D01*
X137205603Y-97946496D01*
X137419589Y-98066144D01*
X137652806Y-98141746D01*
X137896291Y-98170398D01*
X138140687Y-98150998D01*
X138376601Y-98084291D01*
X138594970Y-97972841D01*
X138634397Y-97946496D01*
X138723304Y-97759225D01*
X137920000Y-96955921D01*
X137905858Y-96970064D01*
X137869937Y-96934143D01*
X137884079Y-96920000D01*
X137955921Y-96920000D01*
X138759225Y-97723304D01*
X138946496Y-97634397D01*
X139066144Y-97420411D01*
X139141746Y-97187194D01*
X139161376Y-97020378D01*
X139264631Y-97020378D01*
X139306894Y-97250648D01*
X139393077Y-97468324D01*
X139519900Y-97665114D01*
X139682531Y-97833523D01*
X139874775Y-97967136D01*
X140089311Y-98060865D01*
X140317965Y-98111138D01*
X140552030Y-98116041D01*
X140782590Y-98075387D01*
X141000862Y-97990725D01*
X141198533Y-97865279D01*
X141368073Y-97703828D01*
X141503025Y-97512521D01*
X141598249Y-97298645D01*
X141650117Y-97070347D01*
X141653851Y-96802942D01*
X141608377Y-96573284D01*
X141519163Y-96356833D01*
X141389605Y-96161833D01*
X141224639Y-95995711D01*
X141030547Y-95864795D01*
X140814724Y-95774071D01*
X140585390Y-95726995D01*
X140351279Y-95725361D01*
X140121310Y-95769230D01*
X139904241Y-95856931D01*
X139708341Y-95985125D01*
X139541071Y-96148927D01*
X139408804Y-96342100D01*
X139316575Y-96557284D01*
X139267900Y-96786285D01*
X139264631Y-97020378D01*
X139161376Y-97020378D01*
X139170398Y-96943709D01*
X139150998Y-96699313D01*
X139084291Y-96463399D01*
X138972841Y-96245030D01*
X138946496Y-96205603D01*
X138759225Y-96116696D01*
X137955921Y-96920000D01*
X137884079Y-96920000D01*
X137884079Y-96920000D01*
X137869937Y-96905858D01*
X137905858Y-96869937D01*
X137920000Y-96884079D01*
X138723304Y-96080775D01*
X138634397Y-95893504D01*
X138420411Y-95773856D01*
X138187194Y-95698254D01*
X137943709Y-95669602D01*
X137699313Y-95689002D01*
X137463399Y-95755709D01*
X137245030Y-95867159D01*
X137205603Y-95893504D01*
X137116697Y-96080773D01*
X137081800Y-96045876D01*
X137081800Y-95828858D01*
X137438295Y-95472363D01*
X137549311Y-95520865D01*
X137777965Y-95571138D01*
X138012030Y-95576041D01*
X138242590Y-95535387D01*
X138460862Y-95450725D01*
X138658533Y-95325279D01*
X138828073Y-95163828D01*
X138963025Y-94972521D01*
X139058249Y-94758645D01*
X139110117Y-94530347D01*
X139110815Y-94480378D01*
X139264631Y-94480378D01*
X139306894Y-94710648D01*
X139393077Y-94928324D01*
X139519900Y-95125114D01*
X139682531Y-95293523D01*
X139874775Y-95427136D01*
X140089311Y-95520865D01*
X140317965Y-95571138D01*
X140552030Y-95576041D01*
X140782590Y-95535387D01*
X141000862Y-95450725D01*
X141198533Y-95325279D01*
X141368073Y-95163828D01*
X141503025Y-94972521D01*
X141598249Y-94758645D01*
X141650117Y-94530347D01*
X141650815Y-94480378D01*
X141804631Y-94480378D01*
X141846894Y-94710648D01*
X141933077Y-94928324D01*
X142059900Y-95125114D01*
X142222531Y-95293523D01*
X142414775Y-95427136D01*
X142629311Y-95520865D01*
X142857965Y-95571138D01*
X143092030Y-95576041D01*
X143322590Y-95535387D01*
X143540862Y-95450725D01*
X143738533Y-95325279D01*
X143908073Y-95163828D01*
X144043025Y-94972521D01*
X144138249Y-94758645D01*
X144190117Y-94530347D01*
X144193851Y-94262942D01*
X144148377Y-94033284D01*
X144059163Y-93816833D01*
X143929605Y-93621833D01*
X143764639Y-93455711D01*
X143570547Y-93324795D01*
X143354724Y-93234071D01*
X143125390Y-93186995D01*
X142891279Y-93185361D01*
X142661310Y-93229230D01*
X142444241Y-93316931D01*
X142248341Y-93445125D01*
X142081071Y-93608927D01*
X141948804Y-93802100D01*
X141856575Y-94017284D01*
X141807900Y-94246285D01*
X141804631Y-94480378D01*
X141650815Y-94480378D01*
X141653851Y-94262942D01*
X141608377Y-94033284D01*
X141519163Y-93816833D01*
X141389605Y-93621833D01*
X141224639Y-93455711D01*
X141030547Y-93324795D01*
X140814724Y-93234071D01*
X140585390Y-93186995D01*
X140351279Y-93185361D01*
X140121310Y-93229230D01*
X139904241Y-93316931D01*
X139708341Y-93445125D01*
X139541071Y-93608927D01*
X139408804Y-93802100D01*
X139316575Y-94017284D01*
X139267900Y-94246285D01*
X139264631Y-94480378D01*
X139110815Y-94480378D01*
X139113851Y-94262942D01*
X139068377Y-94033284D01*
X138979163Y-93816833D01*
X138849605Y-93621833D01*
X138684639Y-93455711D01*
X138490547Y-93324795D01*
X138274724Y-93234071D01*
X138045390Y-93186995D01*
X137811279Y-93185361D01*
X137581310Y-93229230D01*
X137364241Y-93316931D01*
X137168341Y-93445125D01*
X137001071Y-93608927D01*
X136868804Y-93802100D01*
X136776575Y-94017284D01*
X136727900Y-94246285D01*
X136724631Y-94480378D01*
X136766894Y-94710648D01*
X136826966Y-94862376D01*
X136344671Y-95344671D01*
X136319359Y-95375487D01*
X136293716Y-95406047D01*
X136292621Y-95408039D01*
X136291181Y-95409792D01*
X136272349Y-95444914D01*
X136253117Y-95479896D01*
X136252430Y-95482062D01*
X136251358Y-95484061D01*
X136239715Y-95522147D01*
X136227636Y-95560224D01*
X136227382Y-95562486D01*
X136226720Y-95564652D01*
X136222691Y-95604311D01*
X136218242Y-95643971D01*
X136218211Y-95648402D01*
X136218202Y-95648492D01*
X136218210Y-95648576D01*
X136218200Y-95650000D01*
X136218200Y-96045876D01*
X136183303Y-96080773D01*
X136094397Y-95893504D01*
X135880411Y-95773856D01*
X135647194Y-95698254D01*
X135403709Y-95669602D01*
X135159313Y-95689002D01*
X134923399Y-95755709D01*
X134705030Y-95867159D01*
X134665603Y-95893504D01*
X134576696Y-96080775D01*
X135380000Y-96884079D01*
X135394143Y-96869937D01*
X135430064Y-96905858D01*
X135415921Y-96920000D01*
X135430064Y-96934143D01*
X135394143Y-96970064D01*
X135380000Y-96955921D01*
X134576696Y-97759225D01*
X134665603Y-97946496D01*
X134879589Y-98066144D01*
X135112806Y-98141746D01*
X135356291Y-98170398D01*
X135600687Y-98150998D01*
X135836601Y-98084291D01*
X136054970Y-97972841D01*
X136094397Y-97946496D01*
X136183303Y-97759227D01*
X136218200Y-97794124D01*
X136218200Y-102673787D01*
X136144639Y-102599711D01*
X135950547Y-102468795D01*
X135734724Y-102378071D01*
X135505390Y-102330995D01*
X135271279Y-102329361D01*
X135041310Y-102373230D01*
X134897849Y-102431192D01*
X133145329Y-100678671D01*
X133114513Y-100653359D01*
X133083953Y-100627716D01*
X133081961Y-100626621D01*
X133080208Y-100625181D01*
X133045086Y-100606349D01*
X133010104Y-100587117D01*
X133007938Y-100586430D01*
X133005939Y-100585358D01*
X132967853Y-100573715D01*
X132929776Y-100561636D01*
X132927514Y-100561382D01*
X132925348Y-100560720D01*
X132885689Y-100556691D01*
X132846029Y-100552242D01*
X132841598Y-100552211D01*
X132841508Y-100552202D01*
X132841424Y-100552210D01*
X132840000Y-100552200D01*
X128877065Y-100552200D01*
X128840476Y-100497129D01*
X128736933Y-100392861D01*
X128615110Y-100310690D01*
X128479646Y-100253746D01*
X128335702Y-100224199D01*
X128188760Y-100223173D01*
X128044418Y-100250708D01*
X127908172Y-100305754D01*
X127785214Y-100386216D01*
X127680225Y-100489028D01*
X127597206Y-100610275D01*
X127539318Y-100745338D01*
X127508766Y-100889072D01*
X127506715Y-101036003D01*
X127533241Y-101180535D01*
X127587335Y-101317161D01*
X127666937Y-101440678D01*
X127769014Y-101546382D01*
X127889678Y-101630246D01*
X128024333Y-101689075D01*
X128167851Y-101720630D01*
X128314764Y-101723707D01*
X128459477Y-101698190D01*
X128596477Y-101645051D01*
X128720548Y-101566314D01*
X128826961Y-101464977D01*
X128861652Y-101415800D01*
X132661142Y-101415800D01*
X134287593Y-103042251D01*
X134236575Y-103161284D01*
X134187900Y-103390285D01*
X134184631Y-103624378D01*
X134226894Y-103854648D01*
X134313077Y-104072324D01*
X134439900Y-104269114D01*
X134602531Y-104437523D01*
X134794775Y-104571136D01*
X135009311Y-104664865D01*
X135237965Y-104715138D01*
X135472030Y-104720041D01*
X135702590Y-104679387D01*
X135920862Y-104594725D01*
X136118533Y-104469279D01*
X136218200Y-104374367D01*
X136218200Y-104868725D01*
X134491000Y-104868725D01*
X134441539Y-104872745D01*
X134359460Y-104898411D01*
X134287752Y-104945883D01*
X134232068Y-105011420D01*
X134196799Y-105089853D01*
X134184725Y-105175000D01*
X134184725Y-106953000D01*
X134188745Y-107002461D01*
X134214411Y-107084540D01*
X134261883Y-107156248D01*
X134327420Y-107211932D01*
X134405853Y-107247201D01*
X134491000Y-107259275D01*
X135964618Y-107259275D01*
X136477543Y-107772200D01*
X134396858Y-107772200D01*
X133525800Y-106901142D01*
X133525800Y-104794000D01*
X133521906Y-104754289D01*
X133518431Y-104714570D01*
X133517798Y-104712390D01*
X133517576Y-104710130D01*
X133506048Y-104671947D01*
X133494920Y-104633643D01*
X133493875Y-104631627D01*
X133493219Y-104629454D01*
X133474507Y-104594262D01*
X133456138Y-104558825D01*
X133454720Y-104557048D01*
X133453655Y-104555046D01*
X133428459Y-104524152D01*
X133403562Y-104492964D01*
X133400445Y-104489803D01*
X133400393Y-104489739D01*
X133400334Y-104489690D01*
X133399329Y-104488671D01*
X132563220Y-103652562D01*
X132570989Y-103618367D01*
X132573333Y-103450527D01*
X132544791Y-103306380D01*
X132488794Y-103170523D01*
X132407476Y-103048129D01*
X132303933Y-102943861D01*
X132182110Y-102861690D01*
X132046646Y-102804746D01*
X131902702Y-102775199D01*
X131755760Y-102774173D01*
X131611418Y-102801708D01*
X131475172Y-102856754D01*
X131352214Y-102937216D01*
X131247225Y-103040028D01*
X131164206Y-103161275D01*
X131106318Y-103296338D01*
X131075766Y-103440072D01*
X131073715Y-103587003D01*
X131100241Y-103731535D01*
X131148807Y-103854200D01*
X127252000Y-103854200D01*
X127212339Y-103858089D01*
X127172570Y-103861568D01*
X127170385Y-103862203D01*
X127168130Y-103862424D01*
X127129989Y-103873939D01*
X127091643Y-103885080D01*
X127089627Y-103886125D01*
X127087454Y-103886781D01*
X127052262Y-103905493D01*
X127016825Y-103923862D01*
X127015048Y-103925280D01*
X127013046Y-103926345D01*
X126982152Y-103951541D01*
X126950964Y-103976438D01*
X126947803Y-103979555D01*
X126947739Y-103979607D01*
X126947690Y-103979666D01*
X126946671Y-103980671D01*
X126364020Y-104563322D01*
X126314702Y-104553199D01*
X126167760Y-104552173D01*
X126023418Y-104579708D01*
X125887172Y-104634754D01*
X125764214Y-104715216D01*
X125659225Y-104818028D01*
X125576206Y-104939275D01*
X125518318Y-105074338D01*
X125487766Y-105218072D01*
X125485715Y-105365003D01*
X118379800Y-105365003D01*
X118379800Y-98629800D01*
X118500000Y-98629800D01*
X118500066Y-98629794D01*
X118501321Y-98629798D01*
X118525755Y-98629713D01*
X118542266Y-98628036D01*
X118558856Y-98628152D01*
X118564134Y-98627634D01*
X119243473Y-98556232D01*
X119277167Y-98549316D01*
X119311006Y-98542861D01*
X119316083Y-98541328D01*
X119968614Y-98339336D01*
X120000363Y-98325990D01*
X120032265Y-98313101D01*
X120036947Y-98310612D01*
X120637817Y-97985722D01*
X120666353Y-97966475D01*
X120695159Y-97947625D01*
X120699269Y-97944273D01*
X121225592Y-97508861D01*
X121249881Y-97484401D01*
X121274442Y-97460350D01*
X121277817Y-97456270D01*
X121277822Y-97456265D01*
X121277826Y-97456260D01*
X121633322Y-97020378D01*
X126564631Y-97020378D01*
X126606894Y-97250648D01*
X126693077Y-97468324D01*
X126819900Y-97665114D01*
X126982531Y-97833523D01*
X127174775Y-97967136D01*
X127389311Y-98060865D01*
X127617965Y-98111138D01*
X127852030Y-98116041D01*
X128082590Y-98075387D01*
X128300862Y-97990725D01*
X128498533Y-97865279D01*
X128609901Y-97759225D01*
X129496696Y-97759225D01*
X129585603Y-97946496D01*
X129799589Y-98066144D01*
X130032806Y-98141746D01*
X130276291Y-98170398D01*
X130520687Y-98150998D01*
X130756601Y-98084291D01*
X130974970Y-97972841D01*
X131014397Y-97946496D01*
X131103304Y-97759225D01*
X132036696Y-97759225D01*
X132125603Y-97946496D01*
X132339589Y-98066144D01*
X132572806Y-98141746D01*
X132816291Y-98170398D01*
X133060687Y-98150998D01*
X133296601Y-98084291D01*
X133514970Y-97972841D01*
X133554397Y-97946496D01*
X133643304Y-97759225D01*
X132840000Y-96955921D01*
X132036696Y-97759225D01*
X131103304Y-97759225D01*
X131103304Y-97759225D01*
X130300000Y-96955921D01*
X129496696Y-97759225D01*
X128609901Y-97759225D01*
X128668073Y-97703828D01*
X128803025Y-97512521D01*
X128898249Y-97298645D01*
X128950117Y-97070347D01*
X128952547Y-96896291D01*
X129049602Y-96896291D01*
X129069002Y-97140687D01*
X129135709Y-97376601D01*
X129247159Y-97594970D01*
X129273504Y-97634397D01*
X129460775Y-97723304D01*
X130264079Y-96920000D01*
X130335921Y-96920000D01*
X131139225Y-97723304D01*
X131326496Y-97634397D01*
X131446144Y-97420411D01*
X131521746Y-97187194D01*
X131550398Y-96943709D01*
X131546634Y-96896291D01*
X131589602Y-96896291D01*
X131609002Y-97140687D01*
X131675709Y-97376601D01*
X131787159Y-97594970D01*
X131813504Y-97634397D01*
X132000775Y-97723304D01*
X132804079Y-96920000D01*
X132875921Y-96920000D01*
X133679225Y-97723304D01*
X133866496Y-97634397D01*
X133986144Y-97420411D01*
X134061746Y-97187194D01*
X134090398Y-96943709D01*
X134086634Y-96896291D01*
X134129602Y-96896291D01*
X134149002Y-97140687D01*
X134215709Y-97376601D01*
X134327159Y-97594970D01*
X134353504Y-97634397D01*
X134540775Y-97723304D01*
X135344079Y-96920000D01*
X134540775Y-96116696D01*
X134353504Y-96205603D01*
X134233856Y-96419589D01*
X134158254Y-96652806D01*
X134129602Y-96896291D01*
X134086634Y-96896291D01*
X134070998Y-96699313D01*
X134004291Y-96463399D01*
X133892841Y-96245030D01*
X133866496Y-96205603D01*
X133679225Y-96116696D01*
X132875921Y-96920000D01*
X132804079Y-96920000D01*
X132804079Y-96920000D01*
X132000775Y-96116696D01*
X131813504Y-96205603D01*
X131693856Y-96419589D01*
X131618254Y-96652806D01*
X131589602Y-96896291D01*
X131546634Y-96896291D01*
X131530998Y-96699313D01*
X131464291Y-96463399D01*
X131352841Y-96245030D01*
X131326496Y-96205603D01*
X131139225Y-96116696D01*
X130335921Y-96920000D01*
X130264079Y-96920000D01*
X130264079Y-96920000D01*
X129460775Y-96116696D01*
X129273504Y-96205603D01*
X129153856Y-96419589D01*
X129078254Y-96652806D01*
X129049602Y-96896291D01*
X128952547Y-96896291D01*
X128953851Y-96802942D01*
X128908377Y-96573284D01*
X128819163Y-96356833D01*
X128689605Y-96161833D01*
X128609111Y-96080775D01*
X129496696Y-96080775D01*
X130300000Y-96884079D01*
X131103304Y-96080775D01*
X132036696Y-96080775D01*
X132840000Y-96884079D01*
X133643304Y-96080775D01*
X133554397Y-95893504D01*
X133340411Y-95773856D01*
X133107194Y-95698254D01*
X132863709Y-95669602D01*
X132619313Y-95689002D01*
X132383399Y-95755709D01*
X132165030Y-95867159D01*
X132125603Y-95893504D01*
X132036696Y-96080775D01*
X131103304Y-96080775D01*
X131103304Y-96080775D01*
X131014397Y-95893504D01*
X130800411Y-95773856D01*
X130567194Y-95698254D01*
X130323709Y-95669602D01*
X130079313Y-95689002D01*
X129843399Y-95755709D01*
X129625030Y-95867159D01*
X129585603Y-95893504D01*
X129496696Y-96080775D01*
X128609111Y-96080775D01*
X128524639Y-95995711D01*
X128330547Y-95864795D01*
X128114724Y-95774071D01*
X127885390Y-95726995D01*
X127651279Y-95725361D01*
X127421310Y-95769230D01*
X127204241Y-95856931D01*
X127008341Y-95985125D01*
X126841071Y-96148927D01*
X126708804Y-96342100D01*
X126616575Y-96557284D01*
X126567900Y-96786285D01*
X126564631Y-97020378D01*
X121633322Y-97020378D01*
X121709548Y-96926915D01*
X121728620Y-96898210D01*
X121748045Y-96869840D01*
X121750563Y-96865183D01*
X121750568Y-96865175D01*
X121750571Y-96865167D01*
X122071254Y-96262052D01*
X122084375Y-96230219D01*
X122097933Y-96198586D01*
X122099501Y-96193520D01*
X122296933Y-95539595D01*
X122303625Y-95505797D01*
X122310776Y-95472156D01*
X122311330Y-95466882D01*
X122335613Y-95219225D01*
X126956696Y-95219225D01*
X127045603Y-95406496D01*
X127259589Y-95526144D01*
X127492806Y-95601746D01*
X127736291Y-95630398D01*
X127980687Y-95610998D01*
X128216601Y-95544291D01*
X128434970Y-95432841D01*
X128474397Y-95406496D01*
X128563304Y-95219225D01*
X129496696Y-95219225D01*
X129585603Y-95406496D01*
X129799589Y-95526144D01*
X130032806Y-95601746D01*
X130276291Y-95630398D01*
X130520687Y-95610998D01*
X130756601Y-95544291D01*
X130974970Y-95432841D01*
X131014397Y-95406496D01*
X131103304Y-95219225D01*
X132036696Y-95219225D01*
X132125603Y-95406496D01*
X132339589Y-95526144D01*
X132572806Y-95601746D01*
X132816291Y-95630398D01*
X133060687Y-95610998D01*
X133296601Y-95544291D01*
X133514970Y-95432841D01*
X133554397Y-95406496D01*
X133643304Y-95219225D01*
X134576696Y-95219225D01*
X134665603Y-95406496D01*
X134879589Y-95526144D01*
X135112806Y-95601746D01*
X135356291Y-95630398D01*
X135600687Y-95610998D01*
X135836601Y-95544291D01*
X136054970Y-95432841D01*
X136094397Y-95406496D01*
X136183304Y-95219225D01*
X135380000Y-94415921D01*
X134576696Y-95219225D01*
X133643304Y-95219225D01*
X133643304Y-95219225D01*
X132840000Y-94415921D01*
X132036696Y-95219225D01*
X131103304Y-95219225D01*
X131103304Y-95219225D01*
X130300000Y-94415921D01*
X129496696Y-95219225D01*
X128563304Y-95219225D01*
X128563304Y-95219225D01*
X127760000Y-94415921D01*
X126956696Y-95219225D01*
X122335613Y-95219225D01*
X122377987Y-94787062D01*
X122377987Y-94770472D01*
X122379779Y-94753982D01*
X122379798Y-94748679D01*
X122379713Y-94724245D01*
X122378036Y-94707734D01*
X122378152Y-94691144D01*
X122377634Y-94685866D01*
X122342994Y-94356291D01*
X126509602Y-94356291D01*
X126529002Y-94600687D01*
X126595709Y-94836601D01*
X126707159Y-95054970D01*
X126733504Y-95094397D01*
X126920775Y-95183304D01*
X127724079Y-94380000D01*
X127795921Y-94380000D01*
X128599225Y-95183304D01*
X128786496Y-95094397D01*
X128906144Y-94880411D01*
X128981746Y-94647194D01*
X129010398Y-94403709D01*
X129006634Y-94356291D01*
X129049602Y-94356291D01*
X129069002Y-94600687D01*
X129135709Y-94836601D01*
X129247159Y-95054970D01*
X129273504Y-95094397D01*
X129460775Y-95183304D01*
X130264079Y-94380000D01*
X130335921Y-94380000D01*
X131139225Y-95183304D01*
X131326496Y-95094397D01*
X131446144Y-94880411D01*
X131521746Y-94647194D01*
X131550398Y-94403709D01*
X131546634Y-94356291D01*
X131589602Y-94356291D01*
X131609002Y-94600687D01*
X131675709Y-94836601D01*
X131787159Y-95054970D01*
X131813504Y-95094397D01*
X132000775Y-95183304D01*
X132804079Y-94380000D01*
X132875921Y-94380000D01*
X133679225Y-95183304D01*
X133866496Y-95094397D01*
X133986144Y-94880411D01*
X134061746Y-94647194D01*
X134090398Y-94403709D01*
X134086634Y-94356291D01*
X134129602Y-94356291D01*
X134149002Y-94600687D01*
X134215709Y-94836601D01*
X134327159Y-95054970D01*
X134353504Y-95094397D01*
X134540775Y-95183304D01*
X135344079Y-94380000D01*
X135415921Y-94380000D01*
X136219225Y-95183304D01*
X136406496Y-95094397D01*
X136526144Y-94880411D01*
X136601746Y-94647194D01*
X136630398Y-94403709D01*
X136610998Y-94159313D01*
X136544291Y-93923399D01*
X136432841Y-93705030D01*
X136406496Y-93665603D01*
X136219225Y-93576696D01*
X135415921Y-94380000D01*
X135344079Y-94380000D01*
X135344079Y-94380000D01*
X134540775Y-93576696D01*
X134353504Y-93665603D01*
X134233856Y-93879589D01*
X134158254Y-94112806D01*
X134129602Y-94356291D01*
X134086634Y-94356291D01*
X134070998Y-94159313D01*
X134004291Y-93923399D01*
X133892841Y-93705030D01*
X133866496Y-93665603D01*
X133679225Y-93576696D01*
X132875921Y-94380000D01*
X132804079Y-94380000D01*
X132804079Y-94380000D01*
X132000775Y-93576696D01*
X131813504Y-93665603D01*
X131693856Y-93879589D01*
X131618254Y-94112806D01*
X131589602Y-94356291D01*
X131546634Y-94356291D01*
X131530998Y-94159313D01*
X131464291Y-93923399D01*
X131352841Y-93705030D01*
X131326496Y-93665603D01*
X131139225Y-93576696D01*
X130335921Y-94380000D01*
X130264079Y-94380000D01*
X130264079Y-94380000D01*
X129460775Y-93576696D01*
X129273504Y-93665603D01*
X129153856Y-93879589D01*
X129078254Y-94112806D01*
X129049602Y-94356291D01*
X129006634Y-94356291D01*
X128990998Y-94159313D01*
X128924291Y-93923399D01*
X128812841Y-93705030D01*
X128786496Y-93665603D01*
X128599225Y-93576696D01*
X127795921Y-94380000D01*
X127724079Y-94380000D01*
X127724079Y-94380000D01*
X126920775Y-93576696D01*
X126733504Y-93665603D01*
X126613856Y-93879589D01*
X126538254Y-94112806D01*
X126509602Y-94356291D01*
X122342994Y-94356291D01*
X122306232Y-94006527D01*
X122299302Y-93972764D01*
X122292860Y-93938994D01*
X122291328Y-93933917D01*
X122169630Y-93540775D01*
X126956696Y-93540775D01*
X127760000Y-94344079D01*
X128563304Y-93540775D01*
X129496696Y-93540775D01*
X130300000Y-94344079D01*
X131103304Y-93540775D01*
X132036696Y-93540775D01*
X132840000Y-94344079D01*
X133643304Y-93540775D01*
X134576696Y-93540775D01*
X135380000Y-94344079D01*
X136183304Y-93540775D01*
X136094397Y-93353504D01*
X135880411Y-93233856D01*
X135647194Y-93158254D01*
X135403709Y-93129602D01*
X135159313Y-93149002D01*
X134923399Y-93215709D01*
X134705030Y-93327159D01*
X134665603Y-93353504D01*
X134576696Y-93540775D01*
X133643304Y-93540775D01*
X133643304Y-93540775D01*
X133554397Y-93353504D01*
X133340411Y-93233856D01*
X133107194Y-93158254D01*
X132863709Y-93129602D01*
X132619313Y-93149002D01*
X132383399Y-93215709D01*
X132165030Y-93327159D01*
X132125603Y-93353504D01*
X132036696Y-93540775D01*
X131103304Y-93540775D01*
X131103304Y-93540775D01*
X131014397Y-93353504D01*
X130800411Y-93233856D01*
X130567194Y-93158254D01*
X130323709Y-93129602D01*
X130079313Y-93149002D01*
X129843399Y-93215709D01*
X129625030Y-93327159D01*
X129585603Y-93353504D01*
X129496696Y-93540775D01*
X128563304Y-93540775D01*
X128563304Y-93540775D01*
X128474397Y-93353504D01*
X128260411Y-93233856D01*
X128027194Y-93158254D01*
X127783709Y-93129602D01*
X127539313Y-93149002D01*
X127303399Y-93215709D01*
X127085030Y-93327159D01*
X127045603Y-93353504D01*
X126956696Y-93540775D01*
X122169630Y-93540775D01*
X122089336Y-93281385D01*
X122075969Y-93249586D01*
X122063101Y-93217736D01*
X122060612Y-93213053D01*
X121735723Y-92612183D01*
X121716467Y-92583636D01*
X121697625Y-92554841D01*
X121694273Y-92550732D01*
X121258861Y-92024408D01*
X121234401Y-92000119D01*
X121210350Y-91975558D01*
X121206270Y-91972183D01*
X121206265Y-91972178D01*
X121206260Y-91972174D01*
X120676914Y-91540452D01*
X120648211Y-91521382D01*
X120619840Y-91501955D01*
X120615175Y-91499432D01*
X120012051Y-91178746D01*
X119980232Y-91165631D01*
X119948586Y-91152067D01*
X119943524Y-91150500D01*
X119943518Y-91150498D01*
X119289594Y-90953067D01*
X119255779Y-90946371D01*
X119222156Y-90939224D01*
X119216893Y-90938671D01*
X119216882Y-90938669D01*
X119216872Y-90938669D01*
X118537062Y-90872013D01*
X118521134Y-90872013D01*
X118505303Y-90870237D01*
X118500000Y-90870200D01*
X118379800Y-90870200D01*
X118379800Y-89146378D01*
X122754631Y-89146378D01*
X122796894Y-89376648D01*
X122883077Y-89594324D01*
X123009900Y-89791114D01*
X123172531Y-89959523D01*
X123364775Y-90093136D01*
X123579311Y-90186865D01*
X123807965Y-90237138D01*
X124042030Y-90242041D01*
X124272590Y-90201387D01*
X124490862Y-90116725D01*
X124688533Y-89991279D01*
X124858073Y-89829828D01*
X124993025Y-89638521D01*
X125088249Y-89424645D01*
X125140117Y-89196347D01*
X125143851Y-88928942D01*
X125098377Y-88699284D01*
X125009163Y-88482833D01*
X124879605Y-88287833D01*
X124831309Y-88239199D01*
X126151460Y-88239199D01*
X126252171Y-88787927D01*
X126457545Y-89306644D01*
X126759761Y-89775591D01*
X127147307Y-90176907D01*
X127605421Y-90495304D01*
X128116655Y-90718657D01*
X128661535Y-90838456D01*
X129219306Y-90850140D01*
X129768725Y-90753263D01*
X130288863Y-90551515D01*
X130759908Y-90252580D01*
X131163920Y-89867845D01*
X131485508Y-89411965D01*
X131712424Y-88902303D01*
X131836024Y-88358273D01*
X131844922Y-87721053D01*
X131736560Y-87173784D01*
X131523963Y-86657985D01*
X131215229Y-86193303D01*
X130822118Y-85797438D01*
X130359603Y-85485467D01*
X129845301Y-85269275D01*
X129298801Y-85157095D01*
X128740921Y-85153200D01*
X128192909Y-85257739D01*
X127675638Y-85466729D01*
X127208812Y-85772212D01*
X126810212Y-86162550D01*
X126495020Y-86622876D01*
X126275243Y-87135656D01*
X126159250Y-87681359D01*
X126151460Y-88239199D01*
X124831309Y-88239199D01*
X124714639Y-88121711D01*
X124520547Y-87990795D01*
X124304724Y-87900071D01*
X124075390Y-87852995D01*
X123841279Y-87851361D01*
X123611310Y-87895230D01*
X123394241Y-87982931D01*
X123198341Y-88111125D01*
X123031071Y-88274927D01*
X122898804Y-88468100D01*
X122806575Y-88683284D01*
X122757900Y-88912285D01*
X122754631Y-89146378D01*
X118379800Y-89146378D01*
X118379800Y-85617000D01*
X122754725Y-85617000D01*
X122754725Y-87395000D01*
X122758745Y-87444461D01*
X122784411Y-87526540D01*
X122831883Y-87598248D01*
X122897420Y-87653932D01*
X122975853Y-87689201D01*
X123061000Y-87701275D01*
X124839000Y-87701275D01*
X124888461Y-87697255D01*
X124970540Y-87671589D01*
X125042248Y-87624117D01*
X125097932Y-87558580D01*
X125133201Y-87480147D01*
X125145275Y-87395000D01*
X125145275Y-85617000D01*
X125141255Y-85567539D01*
X125115589Y-85485460D01*
X125069070Y-85415192D01*
X125705463Y-84778800D01*
X136904000Y-84778800D01*
X136955414Y-84773759D01*
X137006791Y-84769264D01*
X137009610Y-84768445D01*
X137012538Y-84768158D01*
X137061970Y-84753233D01*
X137111520Y-84738838D01*
X137114130Y-84737485D01*
X137116942Y-84736636D01*
X137162497Y-84712414D01*
X137170873Y-84708072D01*
X137169715Y-84791003D01*
X137196241Y-84935535D01*
X137250335Y-85072161D01*
X137329937Y-85195678D01*
X137420186Y-85289134D01*
X137317172Y-85330754D01*
X137194214Y-85411216D01*
X137089225Y-85514028D01*
X137006206Y-85635275D01*
X136948318Y-85770338D01*
X136917766Y-85914072D01*
X136915715Y-86061003D01*
X136927597Y-86125745D01*
X136471142Y-86582200D01*
X135992757Y-86582200D01*
X135963476Y-86538129D01*
X135859933Y-86433861D01*
X135738110Y-86351690D01*
X135602646Y-86294746D01*
X135458702Y-86265199D01*
X135311760Y-86264173D01*
X135167418Y-86291708D01*
X135031172Y-86346754D01*
X134908214Y-86427216D01*
X134803225Y-86530028D01*
X134720206Y-86651275D01*
X134662318Y-86786338D01*
X134631766Y-86930072D01*
X134629715Y-87077003D01*
X134656241Y-87221535D01*
X134710335Y-87358161D01*
X134789937Y-87481678D01*
X134892014Y-87587382D01*
X135012678Y-87671246D01*
X135147333Y-87730075D01*
X135290851Y-87761630D01*
X135437764Y-87764707D01*
X135582477Y-87739190D01*
X135719477Y-87686051D01*
X135843548Y-87607314D01*
X135949961Y-87505977D01*
X135992411Y-87445800D01*
X136650000Y-87445800D01*
X136689661Y-87441911D01*
X136729430Y-87438432D01*
X136731615Y-87437797D01*
X136733870Y-87437576D01*
X136772011Y-87426061D01*
X136810357Y-87414920D01*
X136812373Y-87413875D01*
X136814546Y-87413219D01*
X136849738Y-87394507D01*
X136885175Y-87376138D01*
X136886952Y-87374720D01*
X136888954Y-87373655D01*
X136919848Y-87348459D01*
X136951036Y-87323562D01*
X136954197Y-87320445D01*
X136954261Y-87320393D01*
X136954310Y-87320334D01*
X136955329Y-87319329D01*
X137537648Y-86737010D01*
X137576851Y-86745630D01*
X137723764Y-86748707D01*
X137868477Y-86723190D01*
X138005477Y-86670051D01*
X138129548Y-86591314D01*
X138235961Y-86489977D01*
X138320665Y-86369902D01*
X138380433Y-86235660D01*
X138412989Y-86092367D01*
X138415333Y-85924527D01*
X138392980Y-85811638D01*
X139012200Y-86430857D01*
X139012200Y-89300000D01*
X139016089Y-89339661D01*
X139019568Y-89379430D01*
X139020203Y-89381615D01*
X139020424Y-89383870D01*
X139031939Y-89422011D01*
X139043080Y-89460357D01*
X139044125Y-89462373D01*
X139044781Y-89464546D01*
X139063493Y-89499738D01*
X139081862Y-89535175D01*
X139083280Y-89536952D01*
X139084345Y-89538954D01*
X139109541Y-89569848D01*
X139134438Y-89601036D01*
X139137555Y-89604197D01*
X139137607Y-89604261D01*
X139137666Y-89604310D01*
X139138671Y-89605329D01*
X140408671Y-90875329D01*
X140439482Y-90900637D01*
X140470047Y-90926284D01*
X140472040Y-90927380D01*
X140473791Y-90928818D01*
X140508896Y-90947641D01*
X140543896Y-90966883D01*
X140546062Y-90967570D01*
X140548061Y-90968642D01*
X140586159Y-90980289D01*
X140624224Y-90992364D01*
X140626484Y-90992618D01*
X140628651Y-90993280D01*
X140668271Y-90997305D01*
X140707971Y-91001758D01*
X140712413Y-91001789D01*
X140712492Y-91001797D01*
X140712566Y-91001790D01*
X140714000Y-91001800D01*
X144091142Y-91001800D01*
X146378200Y-93288857D01*
X146378200Y-93529787D01*
X146304639Y-93455711D01*
X146110547Y-93324795D01*
X145894724Y-93234071D01*
X145665390Y-93186995D01*
X145431279Y-93185361D01*
X145201310Y-93229230D01*
X144984241Y-93316931D01*
X144788341Y-93445125D01*
X144621071Y-93608927D01*
X144488804Y-93802100D01*
X144396575Y-94017284D01*
X144347900Y-94246285D01*
X144344631Y-94480378D01*
X144386894Y-94710648D01*
X144473077Y-94928324D01*
X144599900Y-95125114D01*
X144762531Y-95293523D01*
X144954775Y-95427136D01*
X145169311Y-95520865D01*
X145397965Y-95571138D01*
X145632030Y-95576041D01*
X145862590Y-95535387D01*
X146080862Y-95450725D01*
X146278533Y-95325279D01*
X146378200Y-95230367D01*
X146378200Y-96069787D01*
X146304639Y-95995711D01*
X146110547Y-95864795D01*
X145894724Y-95774071D01*
X145665390Y-95726995D01*
X145431279Y-95725361D01*
X145201310Y-95769230D01*
X144984241Y-95856931D01*
X144788341Y-95985125D01*
X144621071Y-96148927D01*
X144488804Y-96342100D01*
X144396575Y-96557284D01*
X144347900Y-96786285D01*
X144344631Y-97020378D01*
X144386894Y-97250648D01*
X144473077Y-97468324D01*
X144599900Y-97665114D01*
X144762531Y-97833523D01*
X144954775Y-97967136D01*
X145169311Y-98060865D01*
X145397965Y-98111138D01*
X145632030Y-98116041D01*
X145862590Y-98075387D01*
X146080862Y-97990725D01*
X146278533Y-97865279D01*
X146386005Y-97762935D01*
X146386203Y-97763615D01*
X146386424Y-97765870D01*
X146397939Y-97804011D01*
X146409080Y-97842357D01*
X146410125Y-97844373D01*
X146410781Y-97846546D01*
X146429493Y-97881738D01*
X146447862Y-97917175D01*
X146449280Y-97918952D01*
X146450345Y-97920954D01*
X146475541Y-97951848D01*
X146500438Y-97983036D01*
X146503555Y-97986197D01*
X146503607Y-97986261D01*
X146503666Y-97986310D01*
X146504671Y-97987329D01*
X149934200Y-101416857D01*
X149934200Y-108245050D01*
X149894214Y-108271216D01*
X149789225Y-108374028D01*
X149706206Y-108495275D01*
X149648318Y-108630338D01*
X149617766Y-108774072D01*
X149615715Y-108921003D01*
X149642241Y-109065535D01*
X149696335Y-109202161D01*
X149775937Y-109325678D01*
X149878014Y-109431382D01*
X149998678Y-109515246D01*
X150133333Y-109574075D01*
X150276851Y-109605630D01*
X150423764Y-109608707D01*
X150568477Y-109583190D01*
X150705477Y-109530051D01*
X150829548Y-109451314D01*
X150935961Y-109349977D01*
X151020665Y-109229902D01*
X151080433Y-109095660D01*
X151112989Y-108952367D01*
X151115333Y-108784527D01*
X151086791Y-108640380D01*
X151030794Y-108504523D01*
X150949476Y-108382129D01*
X150845933Y-108277861D01*
X150797800Y-108245395D01*
X150797800Y-101238000D01*
X150793906Y-101198289D01*
X150790431Y-101158570D01*
X150789798Y-101156390D01*
X150789576Y-101154130D01*
X150778048Y-101115947D01*
X150766920Y-101077643D01*
X150765875Y-101075627D01*
X150765219Y-101073454D01*
X150746497Y-101038243D01*
X150728137Y-101002824D01*
X150726720Y-101001049D01*
X150725655Y-100999046D01*
X150700455Y-100968147D01*
X150675562Y-100936964D01*
X150672449Y-100933807D01*
X150672393Y-100933739D01*
X150672330Y-100933687D01*
X150671328Y-100932671D01*
X148753661Y-99015003D01*
X150123715Y-99015003D01*
X150150241Y-99159535D01*
X150204335Y-99296161D01*
X150283937Y-99419678D01*
X150386014Y-99525382D01*
X150506678Y-99609246D01*
X150641333Y-99668075D01*
X150784851Y-99699630D01*
X150931764Y-99702707D01*
X151076477Y-99677190D01*
X151213477Y-99624051D01*
X151337548Y-99545314D01*
X151443961Y-99443977D01*
X151474305Y-99400963D01*
X152474200Y-100400858D01*
X152474200Y-108499050D01*
X152434214Y-108525216D01*
X152329225Y-108628028D01*
X152246206Y-108749275D01*
X152188318Y-108884338D01*
X152157766Y-109028072D01*
X152155715Y-109175003D01*
X152182241Y-109319535D01*
X152236335Y-109456161D01*
X152315937Y-109579678D01*
X152418014Y-109685382D01*
X152538678Y-109769246D01*
X152673333Y-109828075D01*
X152816851Y-109859630D01*
X152963764Y-109862707D01*
X153108477Y-109837190D01*
X153245477Y-109784051D01*
X153369548Y-109705314D01*
X153475961Y-109603977D01*
X153560665Y-109483902D01*
X153620433Y-109349660D01*
X153652989Y-109206367D01*
X153655333Y-109038527D01*
X153626791Y-108894380D01*
X153570794Y-108758523D01*
X153489476Y-108636129D01*
X153385933Y-108531861D01*
X153337800Y-108499395D01*
X153337800Y-100222000D01*
X153333906Y-100182289D01*
X153330431Y-100142570D01*
X153329798Y-100140390D01*
X153329576Y-100138130D01*
X153318048Y-100099947D01*
X153306920Y-100061643D01*
X153305875Y-100059627D01*
X153305219Y-100057454D01*
X153286507Y-100022262D01*
X153268138Y-99986825D01*
X153266720Y-99985048D01*
X153265655Y-99983046D01*
X153240459Y-99952152D01*
X153215562Y-99920964D01*
X153212445Y-99917803D01*
X153212393Y-99917739D01*
X153212334Y-99917690D01*
X153211329Y-99916671D01*
X151941329Y-98646671D01*
X151910513Y-98621359D01*
X151879953Y-98595716D01*
X151877961Y-98594621D01*
X151876208Y-98593181D01*
X151841086Y-98574349D01*
X151806104Y-98555117D01*
X151803938Y-98554430D01*
X151801939Y-98553358D01*
X151763853Y-98541715D01*
X151725776Y-98529636D01*
X151723514Y-98529382D01*
X151721348Y-98528720D01*
X151681689Y-98524691D01*
X151642029Y-98520242D01*
X151637598Y-98520211D01*
X151637508Y-98520202D01*
X151637424Y-98520210D01*
X151636000Y-98520200D01*
X151486757Y-98520200D01*
X151457476Y-98476129D01*
X151353933Y-98371861D01*
X151232110Y-98289690D01*
X151096646Y-98232746D01*
X150952702Y-98203199D01*
X150805760Y-98202173D01*
X150661418Y-98229708D01*
X150525172Y-98284754D01*
X150402214Y-98365216D01*
X150297225Y-98468028D01*
X150214206Y-98589275D01*
X150156318Y-98724338D01*
X150125766Y-98868072D01*
X150123715Y-99015003D01*
X148753661Y-99015003D01*
X147824947Y-98086289D01*
X147937965Y-98111138D01*
X148172030Y-98116041D01*
X148402590Y-98075387D01*
X148620862Y-97990725D01*
X148818533Y-97865279D01*
X148988073Y-97703828D01*
X149123025Y-97512521D01*
X149218249Y-97298645D01*
X149270117Y-97070347D01*
X149270815Y-97020378D01*
X149424631Y-97020378D01*
X149466894Y-97250648D01*
X149553077Y-97468324D01*
X149679900Y-97665114D01*
X149842531Y-97833523D01*
X150034775Y-97967136D01*
X150249311Y-98060865D01*
X150477965Y-98111138D01*
X150712030Y-98116041D01*
X150942590Y-98075387D01*
X151160862Y-97990725D01*
X151358533Y-97865279D01*
X151528073Y-97703828D01*
X151663025Y-97512521D01*
X151758249Y-97298645D01*
X151810117Y-97070347D01*
X151810815Y-97020378D01*
X151964631Y-97020378D01*
X152006894Y-97250648D01*
X152093077Y-97468324D01*
X152219900Y-97665114D01*
X152382531Y-97833523D01*
X152574775Y-97967136D01*
X152789311Y-98060865D01*
X153017965Y-98111138D01*
X153237070Y-98115728D01*
X153616671Y-98495329D01*
X153647487Y-98520641D01*
X153678047Y-98546284D01*
X153680039Y-98547379D01*
X153681792Y-98548819D01*
X153716914Y-98567651D01*
X153751896Y-98586883D01*
X153754062Y-98587570D01*
X153756061Y-98588642D01*
X153794188Y-98600299D01*
X153832224Y-98612364D01*
X153834481Y-98612617D01*
X153836652Y-98613281D01*
X153876356Y-98617314D01*
X153915971Y-98621758D01*
X153920403Y-98621789D01*
X153920493Y-98621798D01*
X153920577Y-98621790D01*
X153922000Y-98621800D01*
X156029142Y-98621800D01*
X158824200Y-101416858D01*
X158824200Y-107991050D01*
X158784214Y-108017216D01*
X158679225Y-108120028D01*
X158596206Y-108241275D01*
X158538318Y-108376338D01*
X158507766Y-108520072D01*
X158505715Y-108667003D01*
X158532241Y-108811535D01*
X158586335Y-108948161D01*
X158665937Y-109071678D01*
X158768014Y-109177382D01*
X158857264Y-109239413D01*
X158784214Y-109287216D01*
X158679225Y-109390028D01*
X158596206Y-109511275D01*
X158538318Y-109646338D01*
X158507766Y-109790072D01*
X158505715Y-109937003D01*
X158532241Y-110081535D01*
X158586335Y-110218161D01*
X158665937Y-110341678D01*
X158768014Y-110447382D01*
X158888678Y-110531246D01*
X159023333Y-110590075D01*
X159166851Y-110621630D01*
X159313764Y-110624707D01*
X159458477Y-110599190D01*
X159595477Y-110546051D01*
X159719548Y-110467314D01*
X159825961Y-110365977D01*
X159881341Y-110287471D01*
X159886011Y-110286061D01*
X159924357Y-110274920D01*
X159926373Y-110273875D01*
X159928546Y-110273219D01*
X159963738Y-110254507D01*
X159999175Y-110236138D01*
X160000952Y-110234720D01*
X160002954Y-110233655D01*
X160033848Y-110208459D01*
X160065036Y-110183562D01*
X160068197Y-110180445D01*
X160068261Y-110180393D01*
X160068310Y-110180334D01*
X160069329Y-110179329D01*
X160323329Y-109925329D01*
X160348637Y-109894518D01*
X160374284Y-109863953D01*
X160375380Y-109861960D01*
X160376818Y-109860209D01*
X160395641Y-109825104D01*
X160414883Y-109790104D01*
X160415570Y-109787938D01*
X160416642Y-109785939D01*
X160428289Y-109747841D01*
X160440364Y-109709776D01*
X160440618Y-109707516D01*
X160441280Y-109705349D01*
X160445305Y-109665729D01*
X160449758Y-109626029D01*
X160449789Y-109621587D01*
X160449797Y-109621508D01*
X160449790Y-109621434D01*
X160449800Y-109620000D01*
X160449800Y-108096000D01*
X160445906Y-108056289D01*
X160442431Y-108016570D01*
X160441798Y-108014390D01*
X160441576Y-108012130D01*
X160430048Y-107973947D01*
X160418920Y-107935643D01*
X160417875Y-107933627D01*
X160417219Y-107931454D01*
X160398486Y-107896222D01*
X160380137Y-107860825D01*
X160378722Y-107859052D01*
X160377655Y-107857046D01*
X160352437Y-107826125D01*
X160327562Y-107794964D01*
X160324445Y-107791803D01*
X160324393Y-107791739D01*
X160324334Y-107791690D01*
X160323329Y-107790671D01*
X160195800Y-107663142D01*
X160195800Y-100984000D01*
X160191911Y-100944339D01*
X160188432Y-100904570D01*
X160187797Y-100902385D01*
X160187576Y-100900130D01*
X160176061Y-100861989D01*
X160164920Y-100823643D01*
X160163875Y-100821627D01*
X160163219Y-100819454D01*
X160144507Y-100784262D01*
X160126138Y-100748825D01*
X160124720Y-100747048D01*
X160123655Y-100745046D01*
X160098459Y-100714152D01*
X160073562Y-100682964D01*
X160070445Y-100679803D01*
X160070393Y-100679739D01*
X160070334Y-100679690D01*
X160069329Y-100678671D01*
X156792363Y-97401705D01*
X156838249Y-97298645D01*
X156890117Y-97070347D01*
X156890815Y-97020378D01*
X157044631Y-97020378D01*
X157086894Y-97250648D01*
X157173077Y-97468324D01*
X157299900Y-97665114D01*
X157462531Y-97833523D01*
X157654775Y-97967136D01*
X157869311Y-98060865D01*
X158097965Y-98111138D01*
X158332030Y-98116041D01*
X158562590Y-98075387D01*
X158780862Y-97990725D01*
X158978533Y-97865279D01*
X159148073Y-97703828D01*
X159283025Y-97512521D01*
X159378249Y-97298645D01*
X159430117Y-97070347D01*
X159433851Y-96802942D01*
X159388377Y-96573284D01*
X159299163Y-96356833D01*
X159169605Y-96161833D01*
X159004639Y-95995711D01*
X158810547Y-95864795D01*
X158594724Y-95774071D01*
X158365390Y-95726995D01*
X158131279Y-95725361D01*
X157901310Y-95769230D01*
X157684241Y-95856931D01*
X157488341Y-95985125D01*
X157321071Y-96148927D01*
X157188804Y-96342100D01*
X157096575Y-96557284D01*
X157047900Y-96786285D01*
X157044631Y-97020378D01*
X156890815Y-97020378D01*
X156893851Y-96802942D01*
X156848377Y-96573284D01*
X156759163Y-96356833D01*
X156629605Y-96161833D01*
X156464639Y-95995711D01*
X156270547Y-95864795D01*
X156054724Y-95774071D01*
X155825390Y-95726995D01*
X155591279Y-95725361D01*
X155361310Y-95769230D01*
X155144241Y-95856931D01*
X154948341Y-95985125D01*
X154781071Y-96148927D01*
X154648804Y-96342100D01*
X154556575Y-96557284D01*
X154507900Y-96786285D01*
X154504631Y-97020378D01*
X154546894Y-97250648D01*
X154633077Y-97468324D01*
X154759900Y-97665114D01*
X154849792Y-97758200D01*
X154100858Y-97758200D01*
X154057016Y-97714358D01*
X154068073Y-97703828D01*
X154203025Y-97512521D01*
X154298249Y-97298645D01*
X154350117Y-97070347D01*
X154353851Y-96802942D01*
X154308377Y-96573284D01*
X154219163Y-96356833D01*
X154089605Y-96161833D01*
X153924639Y-95995711D01*
X153730547Y-95864795D01*
X153514724Y-95774071D01*
X153285390Y-95726995D01*
X153051279Y-95725361D01*
X152821310Y-95769230D01*
X152604241Y-95856931D01*
X152408341Y-95985125D01*
X152241071Y-96148927D01*
X152108804Y-96342100D01*
X152016575Y-96557284D01*
X151967900Y-96786285D01*
X151964631Y-97020378D01*
X151810815Y-97020378D01*
X151813851Y-96802942D01*
X151768377Y-96573284D01*
X151679163Y-96356833D01*
X151549605Y-96161833D01*
X151384639Y-95995711D01*
X151190547Y-95864795D01*
X150974724Y-95774071D01*
X150745390Y-95726995D01*
X150511279Y-95725361D01*
X150281310Y-95769230D01*
X150064241Y-95856931D01*
X149868341Y-95985125D01*
X149701071Y-96148927D01*
X149568804Y-96342100D01*
X149476575Y-96557284D01*
X149427900Y-96786285D01*
X149424631Y-97020378D01*
X149270815Y-97020378D01*
X149273851Y-96802942D01*
X149228377Y-96573284D01*
X149139163Y-96356833D01*
X149009605Y-96161833D01*
X148844639Y-95995711D01*
X148650547Y-95864795D01*
X148434724Y-95774071D01*
X148205390Y-95726995D01*
X147971279Y-95725361D01*
X147741310Y-95769230D01*
X147524241Y-95856931D01*
X147328341Y-95985125D01*
X147241800Y-96069872D01*
X147241800Y-95230634D01*
X147302531Y-95293523D01*
X147494775Y-95427136D01*
X147709311Y-95520865D01*
X147937965Y-95571138D01*
X148172030Y-95576041D01*
X148402590Y-95535387D01*
X148620862Y-95450725D01*
X148818533Y-95325279D01*
X148988073Y-95163828D01*
X149123025Y-94972521D01*
X149218249Y-94758645D01*
X149270117Y-94530347D01*
X149270815Y-94480378D01*
X149424631Y-94480378D01*
X149466894Y-94710648D01*
X149553077Y-94928324D01*
X149679900Y-95125114D01*
X149842531Y-95293523D01*
X150034775Y-95427136D01*
X150249311Y-95520865D01*
X150477965Y-95571138D01*
X150712030Y-95576041D01*
X150942590Y-95535387D01*
X151160862Y-95450725D01*
X151358533Y-95325279D01*
X151528073Y-95163828D01*
X151663025Y-94972521D01*
X151758249Y-94758645D01*
X151810117Y-94530347D01*
X151810815Y-94480378D01*
X151964631Y-94480378D01*
X152006894Y-94710648D01*
X152093077Y-94928324D01*
X152219900Y-95125114D01*
X152382531Y-95293523D01*
X152574775Y-95427136D01*
X152789311Y-95520865D01*
X153017965Y-95571138D01*
X153252030Y-95576041D01*
X153482590Y-95535387D01*
X153700862Y-95450725D01*
X153898533Y-95325279D01*
X154068073Y-95163828D01*
X154203025Y-94972521D01*
X154298249Y-94758645D01*
X154350117Y-94530347D01*
X154350815Y-94480378D01*
X154504631Y-94480378D01*
X154546894Y-94710648D01*
X154633077Y-94928324D01*
X154759900Y-95125114D01*
X154922531Y-95293523D01*
X155114775Y-95427136D01*
X155329311Y-95520865D01*
X155557965Y-95571138D01*
X155792030Y-95576041D01*
X156022590Y-95535387D01*
X156240862Y-95450725D01*
X156438533Y-95325279D01*
X156608073Y-95163828D01*
X156743025Y-94972521D01*
X156838249Y-94758645D01*
X156890117Y-94530347D01*
X156893851Y-94262942D01*
X156848377Y-94033284D01*
X156759163Y-93816833D01*
X156629605Y-93621833D01*
X156499682Y-93491000D01*
X157044725Y-93491000D01*
X157044725Y-95269000D01*
X157048745Y-95318461D01*
X157074411Y-95400540D01*
X157121883Y-95472248D01*
X157187420Y-95527932D01*
X157265853Y-95563201D01*
X157351000Y-95575275D01*
X159129000Y-95575275D01*
X159178461Y-95571255D01*
X159260540Y-95545589D01*
X159332248Y-95498117D01*
X159387932Y-95432580D01*
X159423201Y-95354147D01*
X159435275Y-95269000D01*
X159435275Y-93491000D01*
X159431255Y-93441539D01*
X159405589Y-93359460D01*
X159358117Y-93287752D01*
X159292580Y-93232068D01*
X159214147Y-93196799D01*
X159129000Y-93184725D01*
X157351000Y-93184725D01*
X157301539Y-93188745D01*
X157219460Y-93214411D01*
X157147752Y-93261883D01*
X157092068Y-93327420D01*
X157056799Y-93405853D01*
X157044725Y-93491000D01*
X156499682Y-93491000D01*
X156464639Y-93455711D01*
X156270547Y-93324795D01*
X156054724Y-93234071D01*
X155825390Y-93186995D01*
X155591279Y-93185361D01*
X155361310Y-93229230D01*
X155144241Y-93316931D01*
X154948341Y-93445125D01*
X154781071Y-93608927D01*
X154648804Y-93802100D01*
X154556575Y-94017284D01*
X154507900Y-94246285D01*
X154504631Y-94480378D01*
X154350815Y-94480378D01*
X154353851Y-94262942D01*
X154308377Y-94033284D01*
X154219163Y-93816833D01*
X154089605Y-93621833D01*
X153924639Y-93455711D01*
X153730547Y-93324795D01*
X153514724Y-93234071D01*
X153285390Y-93186995D01*
X153051279Y-93185361D01*
X152821310Y-93229230D01*
X152604241Y-93316931D01*
X152408341Y-93445125D01*
X152241071Y-93608927D01*
X152108804Y-93802100D01*
X152016575Y-94017284D01*
X151967900Y-94246285D01*
X151964631Y-94480378D01*
X151810815Y-94480378D01*
X151813851Y-94262942D01*
X151768377Y-94033284D01*
X151679163Y-93816833D01*
X151549605Y-93621833D01*
X151384639Y-93455711D01*
X151190547Y-93324795D01*
X150974724Y-93234071D01*
X150745390Y-93186995D01*
X150511279Y-93185361D01*
X150281310Y-93229230D01*
X150064241Y-93316931D01*
X149868341Y-93445125D01*
X149701071Y-93608927D01*
X149568804Y-93802100D01*
X149476575Y-94017284D01*
X149427900Y-94246285D01*
X149424631Y-94480378D01*
X149270815Y-94480378D01*
X149273851Y-94262942D01*
X149228377Y-94033284D01*
X149139163Y-93816833D01*
X149009605Y-93621833D01*
X148844639Y-93455711D01*
X148650547Y-93324795D01*
X148434724Y-93234071D01*
X148205390Y-93186995D01*
X147971279Y-93185361D01*
X147741310Y-93229230D01*
X147524241Y-93316931D01*
X147328341Y-93445125D01*
X147241800Y-93529872D01*
X147241800Y-93110000D01*
X147237906Y-93070289D01*
X147234431Y-93030570D01*
X147233798Y-93028390D01*
X147233576Y-93026130D01*
X147222048Y-92987947D01*
X147210920Y-92949643D01*
X147209875Y-92947627D01*
X147209219Y-92945454D01*
X147190497Y-92910243D01*
X147172137Y-92874824D01*
X147170720Y-92873049D01*
X147169655Y-92871046D01*
X147144455Y-92840147D01*
X147119562Y-92808964D01*
X147116449Y-92805807D01*
X147116393Y-92805739D01*
X147116330Y-92805687D01*
X147115328Y-92804671D01*
X146213660Y-91903003D01*
X147837715Y-91903003D01*
X147864241Y-92047535D01*
X147918335Y-92184161D01*
X147997937Y-92307678D01*
X148100014Y-92413382D01*
X148220678Y-92497246D01*
X148355333Y-92556075D01*
X148498851Y-92587630D01*
X148645764Y-92590707D01*
X148790477Y-92565190D01*
X148927477Y-92512051D01*
X149051548Y-92433314D01*
X149157961Y-92331977D01*
X149200411Y-92271800D01*
X159256000Y-92271800D01*
X159295661Y-92267911D01*
X159335430Y-92264432D01*
X159337615Y-92263797D01*
X159339870Y-92263576D01*
X159378011Y-92252061D01*
X159416357Y-92240920D01*
X159418373Y-92239875D01*
X159420546Y-92239219D01*
X159455738Y-92220507D01*
X159491175Y-92202138D01*
X159492952Y-92200720D01*
X159494954Y-92199655D01*
X159525848Y-92174459D01*
X159557036Y-92149562D01*
X159560197Y-92146445D01*
X159560261Y-92146393D01*
X159560310Y-92146334D01*
X159561329Y-92145329D01*
X161339329Y-90367329D01*
X161364641Y-90336513D01*
X161390284Y-90305953D01*
X161391379Y-90303961D01*
X161392819Y-90302208D01*
X161411651Y-90267086D01*
X161430883Y-90232104D01*
X161431570Y-90229938D01*
X161432642Y-90227939D01*
X161444299Y-90189812D01*
X161456364Y-90151776D01*
X161456617Y-90149519D01*
X161457281Y-90147348D01*
X161461314Y-90107644D01*
X161465758Y-90068029D01*
X161465789Y-90063597D01*
X161465798Y-90063507D01*
X161465790Y-90063423D01*
X161465800Y-90062000D01*
X161465800Y-88130378D01*
X163394631Y-88130378D01*
X163436894Y-88360648D01*
X163523077Y-88578324D01*
X163649900Y-88775114D01*
X163812531Y-88943523D01*
X164004775Y-89077136D01*
X164219311Y-89170865D01*
X164447965Y-89221138D01*
X164682030Y-89226041D01*
X164912590Y-89185387D01*
X165130862Y-89100725D01*
X165328533Y-88975279D01*
X165498073Y-88813828D01*
X165633025Y-88622521D01*
X165728249Y-88408645D01*
X165780117Y-88180347D01*
X165783851Y-87912942D01*
X165738377Y-87683284D01*
X165649163Y-87466833D01*
X165519605Y-87271833D01*
X165354639Y-87105711D01*
X165160547Y-86974795D01*
X164944724Y-86884071D01*
X164715390Y-86836995D01*
X164481279Y-86835361D01*
X164251310Y-86879230D01*
X164034241Y-86966931D01*
X163838341Y-87095125D01*
X163671071Y-87258927D01*
X163538804Y-87452100D01*
X163446575Y-87667284D01*
X163397900Y-87896285D01*
X163394631Y-88130378D01*
X161465800Y-88130378D01*
X161465800Y-85590378D01*
X163394631Y-85590378D01*
X163436894Y-85820648D01*
X163523077Y-86038324D01*
X163649900Y-86235114D01*
X163812531Y-86403523D01*
X164004775Y-86537136D01*
X164219311Y-86630865D01*
X164447965Y-86681138D01*
X164682030Y-86686041D01*
X164912590Y-86645387D01*
X165130862Y-86560725D01*
X165328533Y-86435279D01*
X165498073Y-86273828D01*
X165633025Y-86082521D01*
X165728249Y-85868645D01*
X165780117Y-85640347D01*
X165783851Y-85372942D01*
X165738377Y-85143284D01*
X165649163Y-84926833D01*
X165519605Y-84731833D01*
X165354639Y-84565711D01*
X165160547Y-84434795D01*
X164944724Y-84344071D01*
X164715390Y-84296995D01*
X164481279Y-84295361D01*
X164251310Y-84339230D01*
X164034241Y-84426931D01*
X163838341Y-84555125D01*
X163671071Y-84718927D01*
X163538804Y-84912100D01*
X163446575Y-85127284D01*
X163397900Y-85356285D01*
X163394631Y-85590378D01*
X161465800Y-85590378D01*
X161465800Y-84982000D01*
X161461906Y-84942289D01*
X161458431Y-84902570D01*
X161457798Y-84900390D01*
X161457576Y-84898130D01*
X161446048Y-84859947D01*
X161434920Y-84821643D01*
X161433875Y-84819627D01*
X161433219Y-84817454D01*
X161414497Y-84782243D01*
X161396137Y-84746824D01*
X161394720Y-84745049D01*
X161393655Y-84743046D01*
X161368455Y-84712147D01*
X161343562Y-84680964D01*
X161340449Y-84677807D01*
X161340393Y-84677739D01*
X161340330Y-84677687D01*
X161339328Y-84676671D01*
X159815329Y-83152671D01*
X159786846Y-83129275D01*
X160653000Y-83129275D01*
X160702461Y-83125255D01*
X160784540Y-83099589D01*
X160856248Y-83052117D01*
X160911932Y-82986580D01*
X160947201Y-82908147D01*
X160959275Y-82823000D01*
X160959275Y-82061000D01*
X163394725Y-82061000D01*
X163394725Y-83839000D01*
X163398745Y-83888461D01*
X163424411Y-83970540D01*
X163471883Y-84042248D01*
X163537420Y-84097932D01*
X163615853Y-84133201D01*
X163701000Y-84145275D01*
X165479000Y-84145275D01*
X165528461Y-84141255D01*
X165610540Y-84115589D01*
X165682248Y-84068117D01*
X165737932Y-84002580D01*
X165773201Y-83924147D01*
X165785275Y-83839000D01*
X165785275Y-82061000D01*
X165781255Y-82011539D01*
X165755589Y-81929460D01*
X165708117Y-81857752D01*
X165642580Y-81802068D01*
X165564147Y-81766799D01*
X165479000Y-81754725D01*
X163701000Y-81754725D01*
X163651539Y-81758745D01*
X163569460Y-81784411D01*
X163497752Y-81831883D01*
X163442068Y-81897420D01*
X163406799Y-81975853D01*
X163394725Y-82061000D01*
X160959275Y-82061000D01*
X160959275Y-81045000D01*
X160955255Y-80995539D01*
X160929589Y-80913460D01*
X160882117Y-80841752D01*
X160816580Y-80786068D01*
X160738147Y-80750799D01*
X160653000Y-80738725D01*
X158875000Y-80738725D01*
X158825539Y-80742745D01*
X158743460Y-80768411D01*
X158671752Y-80815883D01*
X158616068Y-80881420D01*
X158580799Y-80959853D01*
X158568725Y-81045000D01*
X158568725Y-82823000D01*
X158572745Y-82872461D01*
X158598411Y-82954540D01*
X158645851Y-83026200D01*
X157709496Y-83026200D01*
X157764862Y-83004725D01*
X157962533Y-82879279D01*
X158132073Y-82717828D01*
X158267025Y-82526521D01*
X158362249Y-82312645D01*
X158414117Y-82084347D01*
X158417851Y-81816942D01*
X158372377Y-81587284D01*
X158283163Y-81370833D01*
X158153605Y-81175833D01*
X157988639Y-81009711D01*
X157794547Y-80878795D01*
X157578724Y-80788071D01*
X157349390Y-80740995D01*
X157115279Y-80739361D01*
X156885310Y-80783230D01*
X156668241Y-80870931D01*
X156472341Y-80999125D01*
X156305071Y-81162927D01*
X156172804Y-81356100D01*
X156080575Y-81571284D01*
X156031900Y-81800285D01*
X156028631Y-82034378D01*
X156070894Y-82264648D01*
X156157077Y-82482324D01*
X156283900Y-82679114D01*
X156446531Y-82847523D01*
X156638775Y-82981136D01*
X156792200Y-83048166D01*
X156792200Y-83204000D01*
X156796089Y-83243661D01*
X156799568Y-83283430D01*
X156800203Y-83285615D01*
X156800424Y-83287870D01*
X156811939Y-83326011D01*
X156823080Y-83364357D01*
X156824125Y-83366373D01*
X156824781Y-83368546D01*
X156843493Y-83403738D01*
X156861862Y-83439175D01*
X156863280Y-83440952D01*
X156864345Y-83442954D01*
X156889541Y-83473848D01*
X156914438Y-83505036D01*
X156917555Y-83508197D01*
X156917607Y-83508261D01*
X156917666Y-83508310D01*
X156918671Y-83509329D01*
X157172671Y-83763329D01*
X157203482Y-83788637D01*
X157234047Y-83814284D01*
X157236040Y-83815380D01*
X157237791Y-83816818D01*
X157272896Y-83835641D01*
X157307896Y-83854883D01*
X157310062Y-83855570D01*
X157312061Y-83856642D01*
X157350159Y-83868289D01*
X157388224Y-83880364D01*
X157390484Y-83880618D01*
X157392651Y-83881280D01*
X157432271Y-83885305D01*
X157471971Y-83889758D01*
X157476413Y-83889789D01*
X157476492Y-83889797D01*
X157476566Y-83889790D01*
X157478000Y-83889800D01*
X159331142Y-83889800D01*
X160602200Y-85160857D01*
X160602200Y-89883142D01*
X159077142Y-91408200D01*
X149200757Y-91408200D01*
X149171476Y-91364129D01*
X149067933Y-91259861D01*
X148946110Y-91177690D01*
X148810646Y-91120746D01*
X148666702Y-91091199D01*
X148519760Y-91090173D01*
X148375418Y-91117708D01*
X148239172Y-91172754D01*
X148116214Y-91253216D01*
X148011225Y-91356028D01*
X147928206Y-91477275D01*
X147870318Y-91612338D01*
X147839766Y-91756072D01*
X147837715Y-91903003D01*
X146213660Y-91903003D01*
X144575329Y-90264671D01*
X144544513Y-90239359D01*
X144513953Y-90213716D01*
X144511961Y-90212621D01*
X144510208Y-90211181D01*
X144475086Y-90192349D01*
X144440104Y-90173117D01*
X144437938Y-90172430D01*
X144435939Y-90171358D01*
X144397853Y-90159715D01*
X144359776Y-90147636D01*
X144357514Y-90147382D01*
X144355348Y-90146720D01*
X144315689Y-90142691D01*
X144276029Y-90138242D01*
X144271598Y-90138211D01*
X144271508Y-90138202D01*
X144271424Y-90138210D01*
X144270000Y-90138200D01*
X140892858Y-90138200D01*
X140371661Y-89617003D01*
X144535715Y-89617003D01*
X144562241Y-89761535D01*
X144616335Y-89898161D01*
X144695937Y-90021678D01*
X144798014Y-90127382D01*
X144918678Y-90211246D01*
X145053333Y-90270075D01*
X145196851Y-90301630D01*
X145343764Y-90304707D01*
X145413715Y-90292373D01*
X145996671Y-90875329D01*
X146027487Y-90900641D01*
X146058047Y-90926284D01*
X146060039Y-90927379D01*
X146061792Y-90928819D01*
X146096914Y-90947651D01*
X146131896Y-90966883D01*
X146134062Y-90967570D01*
X146136061Y-90968642D01*
X146174147Y-90980285D01*
X146212224Y-90992364D01*
X146214486Y-90992618D01*
X146216652Y-90993280D01*
X146256311Y-90997309D01*
X146295971Y-91001758D01*
X146300402Y-91001789D01*
X146300492Y-91001798D01*
X146300576Y-91001790D01*
X146302000Y-91001800D01*
X150514815Y-91001800D01*
X150537937Y-91037678D01*
X150640014Y-91143382D01*
X150760678Y-91227246D01*
X150895333Y-91286075D01*
X151038851Y-91317630D01*
X151185764Y-91320707D01*
X151330477Y-91295190D01*
X151467477Y-91242051D01*
X151591548Y-91163314D01*
X151697961Y-91061977D01*
X151782665Y-90941902D01*
X151842433Y-90807660D01*
X151874989Y-90664367D01*
X151877333Y-90496527D01*
X151848791Y-90352380D01*
X151792794Y-90216523D01*
X151711476Y-90094129D01*
X151607933Y-89989861D01*
X151486110Y-89907690D01*
X151350646Y-89850746D01*
X151206702Y-89821199D01*
X151059760Y-89820173D01*
X150915418Y-89847708D01*
X150779172Y-89902754D01*
X150656214Y-89983216D01*
X150551225Y-90086028D01*
X150515502Y-90138200D01*
X146480858Y-90138200D01*
X146025220Y-89682562D01*
X146032989Y-89648367D01*
X146035333Y-89480527D01*
X146006791Y-89336380D01*
X145950794Y-89200523D01*
X145869476Y-89078129D01*
X145765933Y-88973861D01*
X145644110Y-88891690D01*
X145508646Y-88834746D01*
X145364702Y-88805199D01*
X145217760Y-88804173D01*
X145073418Y-88831708D01*
X144937172Y-88886754D01*
X144814214Y-88967216D01*
X144709225Y-89070028D01*
X144626206Y-89191275D01*
X144568318Y-89326338D01*
X144537766Y-89470072D01*
X144535715Y-89617003D01*
X140371661Y-89617003D01*
X139875800Y-89121142D01*
X139875800Y-88239199D01*
X154151460Y-88239199D01*
X154252171Y-88787927D01*
X154457545Y-89306644D01*
X154759761Y-89775591D01*
X155147307Y-90176907D01*
X155605421Y-90495304D01*
X156116655Y-90718657D01*
X156661535Y-90838456D01*
X157219306Y-90850140D01*
X157768725Y-90753263D01*
X158288863Y-90551515D01*
X158759908Y-90252580D01*
X159163920Y-89867845D01*
X159485508Y-89411965D01*
X159712424Y-88902303D01*
X159836024Y-88358273D01*
X159844922Y-87721053D01*
X159736560Y-87173784D01*
X159523963Y-86657985D01*
X159215229Y-86193303D01*
X158822118Y-85797438D01*
X158359603Y-85485467D01*
X157845301Y-85269275D01*
X157298801Y-85157095D01*
X156740921Y-85153200D01*
X156192909Y-85257739D01*
X155675638Y-85466729D01*
X155208812Y-85772212D01*
X154810212Y-86162550D01*
X154495020Y-86622876D01*
X154275243Y-87135656D01*
X154159250Y-87681359D01*
X154151460Y-88239199D01*
X139875800Y-88239199D01*
X139875800Y-86252000D01*
X139871906Y-86212289D01*
X139868431Y-86172570D01*
X139867798Y-86170390D01*
X139867576Y-86168130D01*
X139856048Y-86129947D01*
X139844920Y-86091643D01*
X139843875Y-86089627D01*
X139843219Y-86087454D01*
X139824497Y-86052243D01*
X139806137Y-86016824D01*
X139804720Y-86015049D01*
X139803655Y-86013046D01*
X139778455Y-85982147D01*
X139753562Y-85950964D01*
X139750449Y-85947807D01*
X139750393Y-85947739D01*
X139750330Y-85947687D01*
X139749328Y-85946671D01*
X138659220Y-84856562D01*
X138666989Y-84822367D01*
X138669333Y-84654527D01*
X138640791Y-84510380D01*
X138584794Y-84374523D01*
X138523989Y-84283003D01*
X143011715Y-84283003D01*
X143038241Y-84427535D01*
X143092335Y-84564161D01*
X143171937Y-84687678D01*
X143274014Y-84793382D01*
X143394678Y-84877246D01*
X143529333Y-84936075D01*
X143672851Y-84967630D01*
X143819764Y-84970707D01*
X143964477Y-84945190D01*
X144101477Y-84892051D01*
X144225548Y-84813314D01*
X144331961Y-84711977D01*
X144374411Y-84651800D01*
X151965142Y-84651800D01*
X152421170Y-85107828D01*
X152411766Y-85152072D01*
X152409715Y-85299003D01*
X152436241Y-85443535D01*
X152490335Y-85580161D01*
X152569937Y-85703678D01*
X152672014Y-85809382D01*
X152792678Y-85893246D01*
X152927333Y-85952075D01*
X153070851Y-85983630D01*
X153217764Y-85986707D01*
X153362477Y-85961190D01*
X153499477Y-85908051D01*
X153623548Y-85829314D01*
X153729961Y-85727977D01*
X153814665Y-85607902D01*
X153874433Y-85473660D01*
X153906989Y-85330367D01*
X153909333Y-85162527D01*
X153880791Y-85018380D01*
X153824794Y-84882523D01*
X153743476Y-84760129D01*
X153639933Y-84655861D01*
X153518110Y-84573690D01*
X153382646Y-84516746D01*
X153238702Y-84487199D01*
X153091760Y-84486173D01*
X153032194Y-84497536D01*
X152449329Y-83914671D01*
X152418513Y-83889359D01*
X152387953Y-83863716D01*
X152385961Y-83862621D01*
X152384208Y-83861181D01*
X152349086Y-83842349D01*
X152314104Y-83823117D01*
X152311938Y-83822430D01*
X152309939Y-83821358D01*
X152271853Y-83809715D01*
X152233776Y-83797636D01*
X152231514Y-83797382D01*
X152229348Y-83796720D01*
X152189689Y-83792691D01*
X152150029Y-83788242D01*
X152145598Y-83788211D01*
X152145508Y-83788202D01*
X152145424Y-83788210D01*
X152144000Y-83788200D01*
X144374757Y-83788200D01*
X144345476Y-83744129D01*
X144241933Y-83639861D01*
X144120110Y-83557690D01*
X143984646Y-83500746D01*
X143840702Y-83471199D01*
X143693760Y-83470173D01*
X143549418Y-83497708D01*
X143413172Y-83552754D01*
X143290214Y-83633216D01*
X143185225Y-83736028D01*
X143102206Y-83857275D01*
X143044318Y-83992338D01*
X143013766Y-84136072D01*
X143011715Y-84283003D01*
X138523989Y-84283003D01*
X138503476Y-84252129D01*
X138399933Y-84147861D01*
X138278110Y-84065690D01*
X138142646Y-84008746D01*
X137998702Y-83979199D01*
X137935504Y-83978758D01*
X138975929Y-82938333D01*
X138993764Y-82938707D01*
X139138477Y-82913190D01*
X139275477Y-82860051D01*
X139399548Y-82781314D01*
X139505961Y-82679977D01*
X139590665Y-82559902D01*
X139650433Y-82425660D01*
X139682989Y-82282367D01*
X139685333Y-82114527D01*
X139669463Y-82034378D01*
X153488631Y-82034378D01*
X153530894Y-82264648D01*
X153617077Y-82482324D01*
X153743900Y-82679114D01*
X153906531Y-82847523D01*
X154098775Y-82981136D01*
X154313311Y-83074865D01*
X154541965Y-83125138D01*
X154776030Y-83130041D01*
X155006590Y-83089387D01*
X155224862Y-83004725D01*
X155422533Y-82879279D01*
X155592073Y-82717828D01*
X155727025Y-82526521D01*
X155822249Y-82312645D01*
X155874117Y-82084347D01*
X155877851Y-81816942D01*
X155832377Y-81587284D01*
X155743163Y-81370833D01*
X155613605Y-81175833D01*
X155448639Y-81009711D01*
X155254547Y-80878795D01*
X155038724Y-80788071D01*
X154809390Y-80740995D01*
X154575279Y-80739361D01*
X154345310Y-80783230D01*
X154128241Y-80870931D01*
X153932341Y-80999125D01*
X153765071Y-81162927D01*
X153632804Y-81356100D01*
X153540575Y-81571284D01*
X153491900Y-81800285D01*
X153488631Y-82034378D01*
X139669463Y-82034378D01*
X139656791Y-81970380D01*
X139600794Y-81834523D01*
X139519476Y-81712129D01*
X139415933Y-81607861D01*
X139294110Y-81525690D01*
X139158646Y-81468746D01*
X139014702Y-81439199D01*
X138867760Y-81438173D01*
X138723418Y-81465708D01*
X138587172Y-81520754D01*
X138464214Y-81601216D01*
X138359225Y-81704028D01*
X138276206Y-81825275D01*
X138218318Y-81960338D01*
X138187766Y-82104072D01*
X138187173Y-82146565D01*
X136672538Y-83661200D01*
X125474000Y-83661200D01*
X125422591Y-83666241D01*
X125371208Y-83670736D01*
X125368389Y-83671555D01*
X125365462Y-83671842D01*
X125316056Y-83686759D01*
X125266479Y-83701162D01*
X125263867Y-83702516D01*
X125261058Y-83703364D01*
X125215542Y-83727566D01*
X125169655Y-83751351D01*
X125167356Y-83753187D01*
X125164765Y-83754564D01*
X125124826Y-83787137D01*
X125084423Y-83819390D01*
X125080331Y-83823426D01*
X125080250Y-83823492D01*
X125080187Y-83823568D01*
X125078868Y-83824869D01*
X123593013Y-85310725D01*
X123061000Y-85310725D01*
X123011539Y-85314745D01*
X122929460Y-85340411D01*
X122857752Y-85387883D01*
X122802068Y-85453420D01*
X122766799Y-85531853D01*
X122754725Y-85617000D01*
X118379800Y-85617000D01*
X118379800Y-81518572D01*
X118412443Y-81185657D01*
X118454910Y-81045000D01*
X123008725Y-81045000D01*
X123008725Y-82823000D01*
X123012745Y-82872461D01*
X123038411Y-82954540D01*
X123085883Y-83026248D01*
X123151420Y-83081932D01*
X123229853Y-83117201D01*
X123315000Y-83129275D01*
X125093000Y-83129275D01*
X125142461Y-83125255D01*
X125224540Y-83099589D01*
X125296248Y-83052117D01*
X125351932Y-82986580D01*
X125387201Y-82908147D01*
X125399275Y-82823000D01*
X125399275Y-82034378D01*
X125548631Y-82034378D01*
X125590894Y-82264648D01*
X125677077Y-82482324D01*
X125803900Y-82679114D01*
X125966531Y-82847523D01*
X126158775Y-82981136D01*
X126373311Y-83074865D01*
X126601965Y-83125138D01*
X126836030Y-83130041D01*
X127066590Y-83089387D01*
X127284862Y-83004725D01*
X127482533Y-82879279D01*
X127652073Y-82717828D01*
X127787025Y-82526521D01*
X127882249Y-82312645D01*
X127934117Y-82084347D01*
X127934815Y-82034378D01*
X128088631Y-82034378D01*
X128130894Y-82264648D01*
X128217077Y-82482324D01*
X128343900Y-82679114D01*
X128506531Y-82847523D01*
X128698775Y-82981136D01*
X128913311Y-83074865D01*
X129141965Y-83125138D01*
X129376030Y-83130041D01*
X129606590Y-83089387D01*
X129824862Y-83004725D01*
X130022533Y-82879279D01*
X130192073Y-82717828D01*
X130327025Y-82526521D01*
X130422249Y-82312645D01*
X130474117Y-82084347D01*
X130477851Y-81816942D01*
X130432377Y-81587284D01*
X130343163Y-81370833D01*
X130213605Y-81175833D01*
X130048639Y-81009711D01*
X129854547Y-80878795D01*
X129638724Y-80788071D01*
X129409390Y-80740995D01*
X129175279Y-80739361D01*
X128945310Y-80783230D01*
X128728241Y-80870931D01*
X128532341Y-80999125D01*
X128365071Y-81162927D01*
X128232804Y-81356100D01*
X128140575Y-81571284D01*
X128091900Y-81800285D01*
X128088631Y-82034378D01*
X127934815Y-82034378D01*
X127937851Y-81816942D01*
X127892377Y-81587284D01*
X127803163Y-81370833D01*
X127673605Y-81175833D01*
X127508639Y-81009711D01*
X127314547Y-80878795D01*
X127098724Y-80788071D01*
X126869390Y-80740995D01*
X126635279Y-80739361D01*
X126405310Y-80783230D01*
X126188241Y-80870931D01*
X125992341Y-80999125D01*
X125825071Y-81162927D01*
X125692804Y-81356100D01*
X125600575Y-81571284D01*
X125551900Y-81800285D01*
X125548631Y-82034378D01*
X125399275Y-82034378D01*
X125399275Y-81045000D01*
X125395255Y-80995539D01*
X125369589Y-80913460D01*
X125322117Y-80841752D01*
X125256580Y-80786068D01*
X125178147Y-80750799D01*
X125093000Y-80738725D01*
X123315000Y-80738725D01*
X123265539Y-80742745D01*
X123183460Y-80768411D01*
X123111752Y-80815883D01*
X123056068Y-80881420D01*
X123020799Y-80959853D01*
X123008725Y-81045000D01*
X118454910Y-81045000D01*
X118503735Y-80883282D01*
X118652017Y-80604405D01*
X118851646Y-80359636D01*
X119095014Y-80158304D01*
X119372854Y-80008077D01*
X119674583Y-79914676D01*
X120006404Y-79879800D01*
X165981428Y-79879800D01*
X166314343Y-79912443D01*
X166314343Y-79912443D01*
G37*
X166314343Y-79912443D02*
X166616718Y-80003735D01*
X166895595Y-80152017D01*
X167140364Y-80351646D01*
X167341696Y-80595014D01*
X167491923Y-80872854D01*
X167585324Y-81174583D01*
X167620200Y-81506404D01*
X167620200Y-90870200D01*
X167500000Y-90870200D01*
X167499934Y-90870206D01*
X167498679Y-90870202D01*
X167474245Y-90870287D01*
X167457734Y-90871964D01*
X167441144Y-90871848D01*
X167435866Y-90872366D01*
X166756527Y-90943768D01*
X166722764Y-90950698D01*
X166688994Y-90957140D01*
X166683917Y-90958672D01*
X166031385Y-91160664D01*
X165999586Y-91174031D01*
X165967736Y-91186899D01*
X165963053Y-91189388D01*
X165362183Y-91514277D01*
X165333636Y-91533533D01*
X165304841Y-91552375D01*
X165300732Y-91555727D01*
X164774408Y-91991139D01*
X164750119Y-92015599D01*
X164725558Y-92039650D01*
X164722183Y-92043730D01*
X164722178Y-92043735D01*
X164722174Y-92043740D01*
X164290452Y-92573086D01*
X164271382Y-92601789D01*
X164251955Y-92630160D01*
X164249432Y-92634825D01*
X163928746Y-93237949D01*
X163915631Y-93269768D01*
X163902067Y-93301414D01*
X163900499Y-93306480D01*
X163703067Y-93960406D01*
X163696371Y-93994221D01*
X163689224Y-94027844D01*
X163688671Y-94033107D01*
X163688669Y-94033118D01*
X163688669Y-94033128D01*
X163622013Y-94712938D01*
X163622013Y-94729528D01*
X163620221Y-94746018D01*
X163620202Y-94751321D01*
X163620287Y-94775755D01*
X163621964Y-94792266D01*
X163621848Y-94808856D01*
X163622366Y-94814134D01*
X163693768Y-95493473D01*
X163700684Y-95527167D01*
X163707139Y-95561006D01*
X163708672Y-95566083D01*
X163910664Y-96218614D01*
X163924010Y-96250363D01*
X163936899Y-96282265D01*
X163939388Y-96286947D01*
X164264278Y-96887817D01*
X164283525Y-96916353D01*
X164302375Y-96945159D01*
X164305727Y-96949269D01*
X164741139Y-97475592D01*
X164765599Y-97499881D01*
X164789650Y-97524442D01*
X164793730Y-97527817D01*
X164793735Y-97527822D01*
X164793740Y-97527826D01*
X165323085Y-97959548D01*
X165351790Y-97978620D01*
X165380160Y-97998045D01*
X165384817Y-98000563D01*
X165384825Y-98000568D01*
X165384833Y-98000571D01*
X165987948Y-98321254D01*
X166019781Y-98334375D01*
X166051414Y-98347933D01*
X166056476Y-98349500D01*
X166056482Y-98349502D01*
X166710405Y-98546933D01*
X166744203Y-98553625D01*
X166777844Y-98560776D01*
X166783116Y-98561330D01*
X166783118Y-98561330D01*
X167462938Y-98627987D01*
X167478866Y-98627987D01*
X167494697Y-98629763D01*
X167500000Y-98629800D01*
X167620200Y-98629800D01*
X167620200Y-127481428D01*
X167587557Y-127814343D01*
X167496265Y-128116719D01*
X167347983Y-128395595D01*
X167148351Y-128640367D01*
X166904986Y-128841696D01*
X166627146Y-128991923D01*
X166325417Y-129085324D01*
X165993596Y-129120200D01*
X120018572Y-129120200D01*
X119685657Y-129087557D01*
X119383281Y-128996265D01*
X119104405Y-128847983D01*
X118859633Y-128648351D01*
X118658304Y-128404986D01*
X118508077Y-128127146D01*
X118414676Y-127825417D01*
X118379800Y-127493596D01*
X118379800Y-124352000D01*
X123897725Y-124352000D01*
X123897725Y-126892000D01*
X123901745Y-126941461D01*
X123927411Y-127023540D01*
X123974883Y-127095248D01*
X124040420Y-127150932D01*
X124118853Y-127186201D01*
X124204000Y-127198275D01*
X125728000Y-127198275D01*
X125777461Y-127194255D01*
X125859540Y-127168589D01*
X125931248Y-127121117D01*
X125986932Y-127055580D01*
X126022201Y-126977147D01*
X126034275Y-126892000D01*
X126034275Y-125647400D01*
X126388400Y-125647400D01*
X126388400Y-126155400D01*
X126414830Y-126372945D01*
X126483193Y-126581154D01*
X126590862Y-126772025D01*
X126733699Y-126938223D01*
X126906215Y-127073362D01*
X127101780Y-127172248D01*
X127306127Y-127229582D01*
X127480600Y-127158386D01*
X127480600Y-125647400D01*
X127531400Y-125647400D01*
X127531400Y-127158386D01*
X127705873Y-127229582D01*
X127910220Y-127172248D01*
X128105785Y-127073362D01*
X128278301Y-126938223D01*
X128421138Y-126772025D01*
X128528807Y-126581154D01*
X128597170Y-126372945D01*
X128623600Y-126155400D01*
X128623600Y-125647400D01*
X127531400Y-125647400D01*
X127480600Y-125647400D01*
X127480600Y-125647400D01*
X126388400Y-125647400D01*
X126034275Y-125647400D01*
X126034275Y-125088600D01*
X126388400Y-125088600D01*
X126388400Y-125596600D01*
X127480600Y-125596600D01*
X127480600Y-124085614D01*
X127531400Y-124085614D01*
X127531400Y-125596600D01*
X128623600Y-125596600D01*
X128623600Y-125088600D01*
X128597170Y-124871055D01*
X128528807Y-124662846D01*
X128421138Y-124471975D01*
X128278301Y-124305777D01*
X128105785Y-124170638D01*
X127910220Y-124071752D01*
X127705873Y-124014418D01*
X127531400Y-124085614D01*
X127480600Y-124085614D01*
X127480600Y-124085614D01*
X127306127Y-124014418D01*
X127101780Y-124071752D01*
X126906215Y-124170638D01*
X126733699Y-124305777D01*
X126590862Y-124471975D01*
X126483193Y-124662846D01*
X126414830Y-124871055D01*
X126388400Y-125088600D01*
X126034275Y-125088600D01*
X126034275Y-124352000D01*
X126030255Y-124302539D01*
X126004589Y-124220460D01*
X125957117Y-124148752D01*
X125891580Y-124093068D01*
X125813147Y-124057799D01*
X125728000Y-124045725D01*
X124204000Y-124045725D01*
X124154539Y-124049745D01*
X124072460Y-124075411D01*
X124000752Y-124122883D01*
X123945068Y-124188420D01*
X123909799Y-124266853D01*
X123897725Y-124352000D01*
X118379800Y-124352000D01*
X118379800Y-123783794D01*
X134672170Y-123783794D01*
X134753764Y-124228363D01*
X134920154Y-124648617D01*
X135165004Y-125028548D01*
X135478985Y-125353686D01*
X135850140Y-125611646D01*
X136264331Y-125792601D01*
X136705782Y-125889660D01*
X137157678Y-125899126D01*
X137602805Y-125820638D01*
X138024211Y-125657186D01*
X138405842Y-125414995D01*
X138733164Y-125103291D01*
X138993709Y-124733946D01*
X139177551Y-124321028D01*
X139277690Y-123880266D01*
X139279037Y-123783794D01*
X146712170Y-123783794D01*
X146793764Y-124228363D01*
X146960154Y-124648617D01*
X147205004Y-125028548D01*
X147518985Y-125353686D01*
X147890140Y-125611646D01*
X148304331Y-125792601D01*
X148745782Y-125889660D01*
X149197678Y-125899126D01*
X149642805Y-125820638D01*
X150064211Y-125657186D01*
X150445842Y-125414995D01*
X150773164Y-125103291D01*
X151033709Y-124733946D01*
X151081769Y-124626000D01*
X152703725Y-124626000D01*
X152703725Y-127126000D01*
X152707745Y-127175461D01*
X152733411Y-127257540D01*
X152780883Y-127329248D01*
X152846420Y-127384932D01*
X152924853Y-127420201D01*
X153010000Y-127432275D01*
X155510000Y-127432275D01*
X155559461Y-127428255D01*
X155641540Y-127402589D01*
X155713248Y-127355117D01*
X155768932Y-127289580D01*
X155804201Y-127211147D01*
X155816275Y-127126000D01*
X155816275Y-126006732D01*
X156203156Y-126006732D01*
X156258199Y-126306635D01*
X156370444Y-126590135D01*
X156535618Y-126846433D01*
X156747427Y-127065769D01*
X156997806Y-127239786D01*
X157277216Y-127361857D01*
X157575015Y-127427333D01*
X157879860Y-127433718D01*
X158180140Y-127380771D01*
X158464416Y-127270507D01*
X158721862Y-127107127D01*
X158942671Y-126896854D01*
X159118432Y-126647697D01*
X159242451Y-126369146D01*
X159310004Y-126071811D01*
X159310913Y-126006732D01*
X159703156Y-126006732D01*
X159758199Y-126306635D01*
X159870444Y-126590135D01*
X160035618Y-126846433D01*
X160247427Y-127065769D01*
X160497806Y-127239786D01*
X160777216Y-127361857D01*
X161075015Y-127427333D01*
X161379860Y-127433718D01*
X161680140Y-127380771D01*
X161964416Y-127270507D01*
X162221862Y-127107127D01*
X162363998Y-126971773D01*
X163700148Y-126971773D01*
X163832352Y-127196011D01*
X164107698Y-127351623D01*
X164408112Y-127450527D01*
X164722049Y-127488923D01*
X165037444Y-127465335D01*
X165342177Y-127380669D01*
X165624537Y-127238180D01*
X165687648Y-127196011D01*
X165819852Y-126971773D01*
X164760000Y-125911921D01*
X163700148Y-126971773D01*
X162363998Y-126971773D01*
X162442671Y-126896854D01*
X162618432Y-126647697D01*
X162742451Y-126369146D01*
X162810004Y-126071811D01*
X162813268Y-125838049D01*
X163147077Y-125838049D01*
X163170665Y-126153444D01*
X163255331Y-126458177D01*
X163397820Y-126740537D01*
X163439989Y-126803648D01*
X163664227Y-126935852D01*
X164724079Y-125876000D01*
X164795921Y-125876000D01*
X165855773Y-126935852D01*
X166080011Y-126803648D01*
X166235623Y-126528302D01*
X166334527Y-126227888D01*
X166372923Y-125913951D01*
X166349335Y-125598556D01*
X166264669Y-125293823D01*
X166122180Y-125011463D01*
X166080011Y-124948352D01*
X165855773Y-124816148D01*
X164795921Y-125876000D01*
X164724079Y-125876000D01*
X164724079Y-125876000D01*
X163664227Y-124816148D01*
X163439989Y-124948352D01*
X163284377Y-125223698D01*
X163185473Y-125524112D01*
X163147077Y-125838049D01*
X162813268Y-125838049D01*
X162814867Y-125723544D01*
X162755642Y-125424439D01*
X162639449Y-125142534D01*
X162470714Y-124888566D01*
X162363129Y-124780227D01*
X163700148Y-124780227D01*
X164760000Y-125840079D01*
X165819852Y-124780227D01*
X165687648Y-124555989D01*
X165412302Y-124400377D01*
X165111888Y-124301473D01*
X164797951Y-124263077D01*
X164482556Y-124286665D01*
X164177823Y-124371331D01*
X163895463Y-124513820D01*
X163832352Y-124555989D01*
X163700148Y-124780227D01*
X162363129Y-124780227D01*
X162255862Y-124672209D01*
X162003079Y-124501705D01*
X161721991Y-124383547D01*
X161423307Y-124322236D01*
X161118403Y-124320107D01*
X160818891Y-124377242D01*
X160536182Y-124491464D01*
X160281042Y-124658422D01*
X160063191Y-124871758D01*
X159890926Y-125123345D01*
X159770808Y-125403601D01*
X159707414Y-125701850D01*
X159703156Y-126006732D01*
X159310913Y-126006732D01*
X159314867Y-125723544D01*
X159255642Y-125424439D01*
X159139449Y-125142534D01*
X158970714Y-124888566D01*
X158755862Y-124672209D01*
X158503079Y-124501705D01*
X158221991Y-124383547D01*
X157923307Y-124322236D01*
X157618403Y-124320107D01*
X157318891Y-124377242D01*
X157036182Y-124491464D01*
X156781042Y-124658422D01*
X156563191Y-124871758D01*
X156390926Y-125123345D01*
X156270808Y-125403601D01*
X156207414Y-125701850D01*
X156203156Y-126006732D01*
X155816275Y-126006732D01*
X155816275Y-124626000D01*
X155812255Y-124576539D01*
X155786589Y-124494460D01*
X155739117Y-124422752D01*
X155673580Y-124367068D01*
X155595147Y-124331799D01*
X155510000Y-124319725D01*
X153010000Y-124319725D01*
X152960539Y-124323745D01*
X152878460Y-124349411D01*
X152806752Y-124396883D01*
X152751068Y-124462420D01*
X152715799Y-124540853D01*
X152703725Y-124626000D01*
X151081769Y-124626000D01*
X151217551Y-124321028D01*
X151317690Y-123880266D01*
X151324899Y-123364003D01*
X151237106Y-122920616D01*
X151064864Y-122502726D01*
X150814734Y-122126250D01*
X150496243Y-121805528D01*
X150121523Y-121552776D01*
X149704846Y-121377621D01*
X149262083Y-121286735D01*
X148810099Y-121283580D01*
X148366111Y-121368275D01*
X147947029Y-121537595D01*
X147568816Y-121785091D01*
X147245878Y-122101335D01*
X146990516Y-122474282D01*
X146812456Y-122889726D01*
X146718481Y-123331843D01*
X146712170Y-123783794D01*
X139279037Y-123783794D01*
X139284899Y-123364003D01*
X139197106Y-122920616D01*
X139024864Y-122502726D01*
X138774734Y-122126250D01*
X138456243Y-121805528D01*
X138081523Y-121552776D01*
X137664846Y-121377621D01*
X137222083Y-121286735D01*
X136770099Y-121283580D01*
X136326111Y-121368275D01*
X135907029Y-121537595D01*
X135528816Y-121785091D01*
X135205878Y-122101335D01*
X134950516Y-122474282D01*
X134772456Y-122889726D01*
X134678481Y-123331843D01*
X134672170Y-123783794D01*
X118379800Y-123783794D01*
X118379800Y-108372003D01*
X124256715Y-108372003D01*
X124283241Y-108516535D01*
X124337335Y-108653161D01*
X124416937Y-108776678D01*
X124519014Y-108882382D01*
X124575200Y-108921432D01*
X124575200Y-118297000D01*
X124579089Y-118336661D01*
X124582568Y-118376430D01*
X124583203Y-118378615D01*
X124583424Y-118380870D01*
X124594939Y-118419011D01*
X124606080Y-118457357D01*
X124607125Y-118459373D01*
X124607781Y-118461546D01*
X124626493Y-118496738D01*
X124644862Y-118532175D01*
X124646280Y-118533952D01*
X124647345Y-118535954D01*
X124672541Y-118566848D01*
X124697438Y-118598036D01*
X124700555Y-118601197D01*
X124700607Y-118601261D01*
X124700666Y-118601310D01*
X124701671Y-118602329D01*
X126513171Y-120413828D01*
X126503766Y-120458072D01*
X126501715Y-120605003D01*
X126528241Y-120749535D01*
X126582335Y-120886161D01*
X126661937Y-121009678D01*
X126764014Y-121115382D01*
X126884678Y-121199246D01*
X127019333Y-121258075D01*
X127162851Y-121289630D01*
X127309764Y-121292707D01*
X127454477Y-121267190D01*
X127591477Y-121214051D01*
X127715548Y-121135314D01*
X127821961Y-121033977D01*
X127906665Y-120913902D01*
X127966433Y-120779660D01*
X127998989Y-120636367D01*
X128001333Y-120468527D01*
X127972791Y-120324380D01*
X127916794Y-120188523D01*
X127835476Y-120066129D01*
X127731933Y-119961861D01*
X127610110Y-119879690D01*
X127474646Y-119822746D01*
X127330702Y-119793199D01*
X127183760Y-119792173D01*
X127124193Y-119803536D01*
X126192596Y-118871938D01*
X140338431Y-118871938D01*
X140358858Y-119096388D01*
X140422491Y-119312596D01*
X140526908Y-119512326D01*
X140668130Y-119687971D01*
X140840779Y-119832841D01*
X140926227Y-119879816D01*
X140854146Y-119918143D01*
X140679491Y-120060588D01*
X140535830Y-120234244D01*
X140428635Y-120432497D01*
X140361990Y-120647795D01*
X140338431Y-120871938D01*
X140358858Y-121096388D01*
X140422491Y-121312596D01*
X140526908Y-121512326D01*
X140668130Y-121687971D01*
X140840779Y-121832841D01*
X141038279Y-121941417D01*
X141253107Y-122009565D01*
X141477079Y-122034687D01*
X141493203Y-122034800D01*
X142006797Y-122034800D01*
X142231099Y-122012807D01*
X142446857Y-121947666D01*
X142645854Y-121841857D01*
X142820509Y-121699412D01*
X142964170Y-121525756D01*
X142973358Y-121508763D01*
X142983468Y-121528676D01*
X143129551Y-121714527D01*
X143309085Y-121868308D01*
X143515170Y-121984109D01*
X143739887Y-122057479D01*
X143974600Y-122085600D01*
X144224600Y-122085600D01*
X144224600Y-120905400D01*
X144275400Y-120905400D01*
X144275400Y-122085600D01*
X144525400Y-122085600D01*
X144760113Y-122057479D01*
X144984830Y-121984109D01*
X145190915Y-121868308D01*
X145370449Y-121714527D01*
X145516532Y-121528676D01*
X145623550Y-121317896D01*
X145686519Y-121093643D01*
X145616411Y-120905400D01*
X144275400Y-120905400D01*
X144224600Y-120905400D01*
X144224600Y-120905400D01*
X144204600Y-120905400D01*
X144204600Y-120854600D01*
X144224600Y-120854600D01*
X144224600Y-120834600D01*
X144275400Y-120834600D01*
X144275400Y-120854600D01*
X145616411Y-120854600D01*
X145686519Y-120666357D01*
X145623550Y-120442104D01*
X145516532Y-120231324D01*
X145370449Y-120045473D01*
X145190915Y-119891692D01*
X145123438Y-119853776D01*
X145145854Y-119841857D01*
X145320509Y-119699412D01*
X145464170Y-119525756D01*
X145571365Y-119327503D01*
X145638010Y-119112205D01*
X145661569Y-118888062D01*
X145641142Y-118663612D01*
X145577509Y-118447404D01*
X145473092Y-118247674D01*
X145331870Y-118072029D01*
X145159221Y-117927159D01*
X144961721Y-117818583D01*
X144746893Y-117750435D01*
X144522921Y-117725313D01*
X144506797Y-117725200D01*
X143993203Y-117725200D01*
X143768901Y-117747193D01*
X143553143Y-117812334D01*
X143354146Y-117918143D01*
X143179491Y-118060588D01*
X143035830Y-118234244D01*
X143000363Y-118299839D01*
X142973092Y-118247674D01*
X142831870Y-118072029D01*
X142659221Y-117927159D01*
X142461721Y-117818583D01*
X142246893Y-117750435D01*
X142022921Y-117725313D01*
X142006797Y-117725200D01*
X141493203Y-117725200D01*
X141268901Y-117747193D01*
X141053143Y-117812334D01*
X140854146Y-117918143D01*
X140679491Y-118060588D01*
X140535830Y-118234244D01*
X140428635Y-118432497D01*
X140361990Y-118647795D01*
X140338431Y-118871938D01*
X126192596Y-118871938D01*
X125438800Y-118118142D01*
X125438800Y-116239199D01*
X126151460Y-116239199D01*
X126252171Y-116787927D01*
X126457545Y-117306644D01*
X126759761Y-117775591D01*
X127147307Y-118176907D01*
X127605421Y-118495304D01*
X128116655Y-118718657D01*
X128661535Y-118838456D01*
X129219306Y-118850140D01*
X129768725Y-118753263D01*
X130288863Y-118551515D01*
X130759908Y-118252580D01*
X131163920Y-117867845D01*
X131485508Y-117411965D01*
X131712424Y-116902303D01*
X131836024Y-116358273D01*
X131837687Y-116239199D01*
X154151460Y-116239199D01*
X154252171Y-116787927D01*
X154457545Y-117306644D01*
X154759761Y-117775591D01*
X155147307Y-118176907D01*
X155605421Y-118495304D01*
X156116655Y-118718657D01*
X156661535Y-118838456D01*
X157219306Y-118850140D01*
X157768725Y-118753263D01*
X158288863Y-118551515D01*
X158759908Y-118252580D01*
X159163920Y-117867845D01*
X159485508Y-117411965D01*
X159712424Y-116902303D01*
X159836024Y-116358273D01*
X159844922Y-115721053D01*
X159736560Y-115173784D01*
X159523963Y-114657985D01*
X159215229Y-114193303D01*
X158822118Y-113797438D01*
X158359603Y-113485467D01*
X157845301Y-113269275D01*
X157298801Y-113157095D01*
X156740921Y-113153200D01*
X156192909Y-113257739D01*
X155675638Y-113466729D01*
X155208812Y-113772212D01*
X154810212Y-114162550D01*
X154495020Y-114622876D01*
X154275243Y-115135656D01*
X154159250Y-115681359D01*
X154151460Y-116239199D01*
X131837687Y-116239199D01*
X131844922Y-115721053D01*
X131736560Y-115173784D01*
X131523963Y-114657985D01*
X131215229Y-114193303D01*
X130822118Y-113797438D01*
X130359603Y-113485467D01*
X129845301Y-113269275D01*
X129298801Y-113157095D01*
X128740921Y-113153200D01*
X128192909Y-113257739D01*
X127675638Y-113466729D01*
X127208812Y-113772212D01*
X126810212Y-114162550D01*
X126495020Y-114622876D01*
X126275243Y-115135656D01*
X126159250Y-115681359D01*
X126151460Y-116239199D01*
X125438800Y-116239199D01*
X125438800Y-108922462D01*
X125460328Y-108908800D01*
X130576538Y-108908800D01*
X132090032Y-110422294D01*
X132089715Y-110445003D01*
X132116241Y-110589535D01*
X132170335Y-110726161D01*
X132249937Y-110849678D01*
X132352014Y-110955382D01*
X132472678Y-111039246D01*
X132607333Y-111098075D01*
X132750851Y-111129630D01*
X132897764Y-111132707D01*
X133042477Y-111107190D01*
X133179477Y-111054051D01*
X133303548Y-110975314D01*
X133409961Y-110873977D01*
X133494665Y-110753902D01*
X133554433Y-110619660D01*
X133586989Y-110476367D01*
X133589333Y-110308527D01*
X133560791Y-110164380D01*
X133504794Y-110028523D01*
X133423476Y-109906129D01*
X133319933Y-109801861D01*
X133198110Y-109719690D01*
X133062646Y-109662746D01*
X132918702Y-109633199D01*
X132881199Y-109632937D01*
X131203131Y-107954869D01*
X131163257Y-107922116D01*
X131123704Y-107888927D01*
X131121129Y-107887511D01*
X131118858Y-107885646D01*
X131073378Y-107861260D01*
X131028135Y-107836387D01*
X131025333Y-107835498D01*
X131022744Y-107834110D01*
X130973416Y-107819029D01*
X130924181Y-107803411D01*
X130921258Y-107803083D01*
X130918451Y-107802225D01*
X130867137Y-107797012D01*
X130815802Y-107791254D01*
X130810061Y-107791214D01*
X130809950Y-107791203D01*
X130809847Y-107791213D01*
X130808000Y-107791200D01*
X125548839Y-107791200D01*
X125486933Y-107728861D01*
X125365110Y-107646690D01*
X125229646Y-107589746D01*
X125085702Y-107560199D01*
X124938760Y-107559173D01*
X124794418Y-107586708D01*
X124658172Y-107641754D01*
X124535214Y-107722216D01*
X124430225Y-107825028D01*
X124347206Y-107946275D01*
X124289318Y-108081338D01*
X124258766Y-108225072D01*
X124256715Y-108372003D01*
X118379800Y-108372003D01*
X118379800Y-105365003D01*
X125485715Y-105365003D01*
X125512241Y-105509535D01*
X125566335Y-105646161D01*
X125645937Y-105769678D01*
X125748014Y-105875382D01*
X125868678Y-105959246D01*
X126003333Y-106018075D01*
X126146851Y-106049630D01*
X126293764Y-106052707D01*
X126438477Y-106027190D01*
X126575477Y-105974051D01*
X126699548Y-105895314D01*
X126805961Y-105793977D01*
X126890665Y-105673902D01*
X126950433Y-105539660D01*
X126982989Y-105396367D01*
X126985333Y-105228527D01*
X126974556Y-105174102D01*
X127430858Y-104717800D01*
X131645142Y-104717800D01*
X132154200Y-105226858D01*
X132154200Y-107334000D01*
X132158089Y-107373661D01*
X132161568Y-107413430D01*
X132162203Y-107415615D01*
X132162424Y-107417870D01*
X132173939Y-107456011D01*
X132185080Y-107494357D01*
X132186125Y-107496373D01*
X132186781Y-107498546D01*
X132205493Y-107533738D01*
X132223862Y-107569175D01*
X132225280Y-107570952D01*
X132226345Y-107572954D01*
X132251541Y-107603848D01*
X132276438Y-107635036D01*
X132279555Y-107638197D01*
X132279607Y-107638261D01*
X132279666Y-107638310D01*
X132280671Y-107639329D01*
X133658671Y-109017329D01*
X133689482Y-109042637D01*
X133720047Y-109068284D01*
X133722040Y-109069380D01*
X133723791Y-109070818D01*
X133758896Y-109089641D01*
X133793896Y-109108883D01*
X133796062Y-109109570D01*
X133798061Y-109110642D01*
X133836159Y-109122289D01*
X133874224Y-109134364D01*
X133876484Y-109134618D01*
X133878651Y-109135280D01*
X133918271Y-109139305D01*
X133957971Y-109143758D01*
X133962413Y-109143789D01*
X133962492Y-109143797D01*
X133962566Y-109143790D01*
X133964000Y-109143800D01*
X141451542Y-109143800D01*
X141424671Y-109170671D01*
X141401917Y-109198373D01*
X141381172Y-109206754D01*
X141258214Y-109287216D01*
X141153225Y-109390028D01*
X141070206Y-109511275D01*
X141012318Y-109646338D01*
X140981766Y-109790072D01*
X140979715Y-109937003D01*
X141006241Y-110081535D01*
X141060335Y-110218161D01*
X141139937Y-110341678D01*
X141242014Y-110447382D01*
X141362678Y-110531246D01*
X141497333Y-110590075D01*
X141640851Y-110621630D01*
X141787764Y-110624707D01*
X141932477Y-110599190D01*
X142069477Y-110546051D01*
X142193548Y-110467314D01*
X142299961Y-110365977D01*
X142384665Y-110245902D01*
X142444433Y-110111660D01*
X142476989Y-109968367D01*
X142479333Y-109800527D01*
X142450791Y-109656380D01*
X142448903Y-109651800D01*
X146231142Y-109651800D01*
X151330671Y-114751329D01*
X151361460Y-114776619D01*
X151392047Y-114802284D01*
X151394043Y-114803381D01*
X151395792Y-114804818D01*
X151430875Y-114823630D01*
X151465896Y-114842883D01*
X151468062Y-114843570D01*
X151470061Y-114844642D01*
X151508159Y-114856289D01*
X151546224Y-114868364D01*
X151548484Y-114868618D01*
X151550651Y-114869280D01*
X151590316Y-114873310D01*
X151629971Y-114877758D01*
X151634402Y-114877789D01*
X151634492Y-114877798D01*
X151634576Y-114877790D01*
X151636000Y-114877800D01*
X151784815Y-114877800D01*
X151807937Y-114913678D01*
X151910014Y-115019382D01*
X152030678Y-115103246D01*
X152165333Y-115162075D01*
X152308851Y-115193630D01*
X152455764Y-115196707D01*
X152600477Y-115171190D01*
X152737477Y-115118051D01*
X152861548Y-115039314D01*
X152967961Y-114937977D01*
X153052665Y-114817902D01*
X153112433Y-114683660D01*
X153144989Y-114540367D01*
X153147333Y-114372527D01*
X153118791Y-114228380D01*
X153072388Y-114115800D01*
X153668000Y-114115800D01*
X153707661Y-114111911D01*
X153747430Y-114108432D01*
X153749615Y-114107797D01*
X153751870Y-114107576D01*
X153790011Y-114096061D01*
X153828357Y-114084920D01*
X153830373Y-114083875D01*
X153832546Y-114083219D01*
X153867738Y-114064507D01*
X153903175Y-114046138D01*
X153904952Y-114044720D01*
X153906954Y-114043655D01*
X153937848Y-114018459D01*
X153969036Y-113993562D01*
X153972197Y-113990445D01*
X153972261Y-113990393D01*
X153972310Y-113990334D01*
X153973329Y-113989329D01*
X154555648Y-113407010D01*
X154594851Y-113415630D01*
X154741764Y-113418707D01*
X154886477Y-113393190D01*
X155023477Y-113340051D01*
X155147548Y-113261314D01*
X155253961Y-113159977D01*
X155338665Y-113039902D01*
X155398433Y-112905660D01*
X155430989Y-112762367D01*
X155433333Y-112594527D01*
X155404791Y-112450380D01*
X155348794Y-112314523D01*
X155267476Y-112192129D01*
X155163933Y-112087861D01*
X155042110Y-112005690D01*
X154906646Y-111948746D01*
X154762702Y-111919199D01*
X154615760Y-111918173D01*
X154471418Y-111945708D01*
X154335172Y-112000754D01*
X154212214Y-112081216D01*
X154107225Y-112184028D01*
X154048793Y-112269367D01*
X153997476Y-112192129D01*
X153893933Y-112087861D01*
X153772110Y-112005690D01*
X153636646Y-111948746D01*
X153492702Y-111919199D01*
X153345760Y-111918173D01*
X153201418Y-111945708D01*
X153065172Y-112000754D01*
X152942214Y-112081216D01*
X152837225Y-112184028D01*
X152754206Y-112305275D01*
X152696318Y-112440338D01*
X152665766Y-112584072D01*
X152663715Y-112731003D01*
X152666137Y-112744200D01*
X152068858Y-112744200D01*
X147223329Y-107898671D01*
X147192513Y-107873359D01*
X147161953Y-107847716D01*
X147159961Y-107846621D01*
X147158208Y-107845181D01*
X147123086Y-107826349D01*
X147088104Y-107807117D01*
X147085938Y-107806430D01*
X147083939Y-107805358D01*
X147045853Y-107793715D01*
X147007776Y-107781636D01*
X147005514Y-107781382D01*
X147003348Y-107780720D01*
X146963689Y-107776691D01*
X146924029Y-107772242D01*
X146919598Y-107772211D01*
X146919508Y-107772202D01*
X146919424Y-107772210D01*
X146918000Y-107772200D01*
X143172458Y-107772200D01*
X148205647Y-102739010D01*
X148244851Y-102747630D01*
X148391764Y-102750707D01*
X148536477Y-102725190D01*
X148673477Y-102672051D01*
X148797548Y-102593314D01*
X148903961Y-102491977D01*
X148988665Y-102371902D01*
X149048433Y-102237660D01*
X149080989Y-102094367D01*
X149083333Y-101926527D01*
X149054791Y-101782380D01*
X148998794Y-101646523D01*
X148917476Y-101524129D01*
X148813933Y-101419861D01*
X148692110Y-101337690D01*
X148556646Y-101280746D01*
X148412702Y-101251199D01*
X148265760Y-101250173D01*
X148121418Y-101277708D01*
X147985172Y-101332754D01*
X147862214Y-101413216D01*
X147757225Y-101516028D01*
X147674206Y-101637275D01*
X147616318Y-101772338D01*
X147585766Y-101916072D01*
X147583715Y-102063003D01*
X147595597Y-102127746D01*
X142459142Y-107264200D01*
X137190857Y-107264200D01*
X136575275Y-106648618D01*
X136575275Y-105583933D01*
X136761859Y-105770517D01*
X136727900Y-105930285D01*
X136724631Y-106164378D01*
X136766894Y-106394648D01*
X136853077Y-106612324D01*
X136979900Y-106809114D01*
X137142531Y-106977523D01*
X137334775Y-107111136D01*
X137549311Y-107204865D01*
X137777965Y-107255138D01*
X138012030Y-107260041D01*
X138242590Y-107219387D01*
X138460862Y-107134725D01*
X138658533Y-107009279D01*
X138828073Y-106847828D01*
X138963025Y-106656521D01*
X139058249Y-106442645D01*
X139110117Y-106214347D01*
X139110815Y-106164378D01*
X139264631Y-106164378D01*
X139306894Y-106394648D01*
X139393077Y-106612324D01*
X139519900Y-106809114D01*
X139682531Y-106977523D01*
X139874775Y-107111136D01*
X140089311Y-107204865D01*
X140317965Y-107255138D01*
X140552030Y-107260041D01*
X140782590Y-107219387D01*
X141000862Y-107134725D01*
X141198533Y-107009279D01*
X141368073Y-106847828D01*
X141503025Y-106656521D01*
X141598249Y-106442645D01*
X141650117Y-106214347D01*
X141653851Y-105946942D01*
X141608377Y-105717284D01*
X141519163Y-105500833D01*
X141389605Y-105305833D01*
X141224639Y-105139711D01*
X141030547Y-105008795D01*
X140814724Y-104918071D01*
X140585390Y-104870995D01*
X140351279Y-104869361D01*
X140121310Y-104913230D01*
X139904241Y-105000931D01*
X139708341Y-105129125D01*
X139541071Y-105292927D01*
X139408804Y-105486100D01*
X139316575Y-105701284D01*
X139267900Y-105930285D01*
X139264631Y-106164378D01*
X139110815Y-106164378D01*
X139113851Y-105946942D01*
X139068377Y-105717284D01*
X138979163Y-105500833D01*
X138849605Y-105305833D01*
X138684639Y-105139711D01*
X138490547Y-105008795D01*
X138274724Y-104918071D01*
X138045390Y-104870995D01*
X137811279Y-104869361D01*
X137581310Y-104913230D01*
X137364241Y-105000931D01*
X137273179Y-105060521D01*
X137081800Y-104869142D01*
X137081800Y-104374634D01*
X137142531Y-104437523D01*
X137334775Y-104571136D01*
X137549311Y-104664865D01*
X137777965Y-104715138D01*
X138012030Y-104720041D01*
X138242590Y-104679387D01*
X138460862Y-104594725D01*
X138658533Y-104469279D01*
X138769901Y-104363225D01*
X139656696Y-104363225D01*
X139745603Y-104550496D01*
X139959589Y-104670144D01*
X140192806Y-104745746D01*
X140436291Y-104774398D01*
X140680687Y-104754998D01*
X140916601Y-104688291D01*
X141134970Y-104576841D01*
X141174397Y-104550496D01*
X141263304Y-104363225D01*
X140460000Y-103559921D01*
X139656696Y-104363225D01*
X138769901Y-104363225D01*
X138828073Y-104307828D01*
X138963025Y-104116521D01*
X139058249Y-103902645D01*
X139110117Y-103674347D01*
X139112547Y-103500291D01*
X139209602Y-103500291D01*
X139229002Y-103744687D01*
X139295709Y-103980601D01*
X139407159Y-104198970D01*
X139433504Y-104238397D01*
X139620775Y-104327304D01*
X140424079Y-103524000D01*
X140495921Y-103524000D01*
X141299225Y-104327304D01*
X141486496Y-104238397D01*
X141606144Y-104024411D01*
X141681746Y-103791194D01*
X141710398Y-103547709D01*
X141690998Y-103303313D01*
X141624291Y-103067399D01*
X141512841Y-102849030D01*
X141486496Y-102809603D01*
X141299225Y-102720696D01*
X140495921Y-103524000D01*
X140424079Y-103524000D01*
X140424079Y-103524000D01*
X139620775Y-102720696D01*
X139433504Y-102809603D01*
X139313856Y-103023589D01*
X139238254Y-103256806D01*
X139209602Y-103500291D01*
X139112547Y-103500291D01*
X139113851Y-103406942D01*
X139068377Y-103177284D01*
X138979163Y-102960833D01*
X138849605Y-102765833D01*
X138688778Y-102603880D01*
X138860858Y-102431800D01*
X139862148Y-102431800D01*
X139785030Y-102471159D01*
X139745603Y-102497504D01*
X139656696Y-102684775D01*
X140460000Y-103488079D01*
X141263304Y-102684775D01*
X141174397Y-102497504D01*
X141056888Y-102431800D01*
X142492000Y-102431800D01*
X142531661Y-102427911D01*
X142571430Y-102424432D01*
X142573615Y-102423797D01*
X142575870Y-102423576D01*
X142614011Y-102412061D01*
X142652357Y-102400920D01*
X142654373Y-102399875D01*
X142656546Y-102399219D01*
X142691738Y-102380507D01*
X142727175Y-102362138D01*
X142728952Y-102360720D01*
X142730954Y-102359655D01*
X142761848Y-102334459D01*
X142793036Y-102309562D01*
X142796197Y-102306445D01*
X142796261Y-102306393D01*
X142796310Y-102306334D01*
X142797329Y-102305329D01*
X143305328Y-101797329D01*
X143330612Y-101766547D01*
X143356284Y-101735953D01*
X143357380Y-101733960D01*
X143358818Y-101732209D01*
X143377641Y-101697104D01*
X143396883Y-101662104D01*
X143397570Y-101659938D01*
X143398642Y-101657939D01*
X143410289Y-101619841D01*
X143422364Y-101581776D01*
X143422618Y-101579516D01*
X143423280Y-101577349D01*
X143427305Y-101537729D01*
X143431758Y-101498029D01*
X143431789Y-101493587D01*
X143431797Y-101493508D01*
X143431790Y-101493434D01*
X143431800Y-101492000D01*
X143431800Y-98033027D01*
X143540862Y-97990725D01*
X143738533Y-97865279D01*
X143908073Y-97703828D01*
X144043025Y-97512521D01*
X144138249Y-97298645D01*
X144190117Y-97070347D01*
X144193851Y-96802942D01*
X144148377Y-96573284D01*
X144059163Y-96356833D01*
X143929605Y-96161833D01*
X143764639Y-95995711D01*
X143570547Y-95864795D01*
X143354724Y-95774071D01*
X143125390Y-95726995D01*
X142891279Y-95725361D01*
X142661310Y-95769230D01*
X142444241Y-95856931D01*
X142248341Y-95985125D01*
X142081071Y-96148927D01*
X141948804Y-96342100D01*
X141856575Y-96557284D01*
X141807900Y-96786285D01*
X141804631Y-97020378D01*
X141846894Y-97250648D01*
X141933077Y-97468324D01*
X142059900Y-97665114D01*
X142222531Y-97833523D01*
X142414775Y-97967136D01*
X142568200Y-98034166D01*
X142568200Y-101313143D01*
X142313142Y-101568200D01*
X138682000Y-101568200D01*
X138642383Y-101572085D01*
X138602570Y-101575568D01*
X138600385Y-101576203D01*
X138598130Y-101576424D01*
X138560035Y-101587925D01*
X138521643Y-101599079D01*
X138519623Y-101600126D01*
X138517454Y-101600781D01*
X138482297Y-101619474D01*
X138446825Y-101637862D01*
X138445048Y-101639280D01*
X138443046Y-101640345D01*
X138412152Y-101665541D01*
X138380964Y-101690438D01*
X138377803Y-101693555D01*
X138377739Y-101693607D01*
X138377690Y-101693666D01*
X138376671Y-101694671D01*
X137725646Y-102345696D01*
X137581310Y-102373230D01*
X137364241Y-102460931D01*
X137168341Y-102589125D01*
X137081800Y-102673872D01*
X137081800Y-97794124D01*
X137116697Y-97759227D01*
X137205603Y-97946496D01*
X137419589Y-98066144D01*
X137652806Y-98141746D01*
X137896291Y-98170398D01*
X138140687Y-98150998D01*
X138376601Y-98084291D01*
X138594970Y-97972841D01*
X138634397Y-97946496D01*
X138723304Y-97759225D01*
X137920000Y-96955921D01*
X137905858Y-96970064D01*
X137869937Y-96934143D01*
X137884079Y-96920000D01*
X137955921Y-96920000D01*
X138759225Y-97723304D01*
X138946496Y-97634397D01*
X139066144Y-97420411D01*
X139141746Y-97187194D01*
X139161376Y-97020378D01*
X139264631Y-97020378D01*
X139306894Y-97250648D01*
X139393077Y-97468324D01*
X139519900Y-97665114D01*
X139682531Y-97833523D01*
X139874775Y-97967136D01*
X140089311Y-98060865D01*
X140317965Y-98111138D01*
X140552030Y-98116041D01*
X140782590Y-98075387D01*
X141000862Y-97990725D01*
X141198533Y-97865279D01*
X141368073Y-97703828D01*
X141503025Y-97512521D01*
X141598249Y-97298645D01*
X141650117Y-97070347D01*
X141653851Y-96802942D01*
X141608377Y-96573284D01*
X141519163Y-96356833D01*
X141389605Y-96161833D01*
X141224639Y-95995711D01*
X141030547Y-95864795D01*
X140814724Y-95774071D01*
X140585390Y-95726995D01*
X140351279Y-95725361D01*
X140121310Y-95769230D01*
X139904241Y-95856931D01*
X139708341Y-95985125D01*
X139541071Y-96148927D01*
X139408804Y-96342100D01*
X139316575Y-96557284D01*
X139267900Y-96786285D01*
X139264631Y-97020378D01*
X139161376Y-97020378D01*
X139170398Y-96943709D01*
X139150998Y-96699313D01*
X139084291Y-96463399D01*
X138972841Y-96245030D01*
X138946496Y-96205603D01*
X138759225Y-96116696D01*
X137955921Y-96920000D01*
X137884079Y-96920000D01*
X137884079Y-96920000D01*
X137869937Y-96905858D01*
X137905858Y-96869937D01*
X137920000Y-96884079D01*
X138723304Y-96080775D01*
X138634397Y-95893504D01*
X138420411Y-95773856D01*
X138187194Y-95698254D01*
X137943709Y-95669602D01*
X137699313Y-95689002D01*
X137463399Y-95755709D01*
X137245030Y-95867159D01*
X137205603Y-95893504D01*
X137116697Y-96080773D01*
X137081800Y-96045876D01*
X137081800Y-95828858D01*
X137438295Y-95472363D01*
X137549311Y-95520865D01*
X137777965Y-95571138D01*
X138012030Y-95576041D01*
X138242590Y-95535387D01*
X138460862Y-95450725D01*
X138658533Y-95325279D01*
X138828073Y-95163828D01*
X138963025Y-94972521D01*
X139058249Y-94758645D01*
X139110117Y-94530347D01*
X139110815Y-94480378D01*
X139264631Y-94480378D01*
X139306894Y-94710648D01*
X139393077Y-94928324D01*
X139519900Y-95125114D01*
X139682531Y-95293523D01*
X139874775Y-95427136D01*
X140089311Y-95520865D01*
X140317965Y-95571138D01*
X140552030Y-95576041D01*
X140782590Y-95535387D01*
X141000862Y-95450725D01*
X141198533Y-95325279D01*
X141368073Y-95163828D01*
X141503025Y-94972521D01*
X141598249Y-94758645D01*
X141650117Y-94530347D01*
X141650815Y-94480378D01*
X141804631Y-94480378D01*
X141846894Y-94710648D01*
X141933077Y-94928324D01*
X142059900Y-95125114D01*
X142222531Y-95293523D01*
X142414775Y-95427136D01*
X142629311Y-95520865D01*
X142857965Y-95571138D01*
X143092030Y-95576041D01*
X143322590Y-95535387D01*
X143540862Y-95450725D01*
X143738533Y-95325279D01*
X143908073Y-95163828D01*
X144043025Y-94972521D01*
X144138249Y-94758645D01*
X144190117Y-94530347D01*
X144193851Y-94262942D01*
X144148377Y-94033284D01*
X144059163Y-93816833D01*
X143929605Y-93621833D01*
X143764639Y-93455711D01*
X143570547Y-93324795D01*
X143354724Y-93234071D01*
X143125390Y-93186995D01*
X142891279Y-93185361D01*
X142661310Y-93229230D01*
X142444241Y-93316931D01*
X142248341Y-93445125D01*
X142081071Y-93608927D01*
X141948804Y-93802100D01*
X141856575Y-94017284D01*
X141807900Y-94246285D01*
X141804631Y-94480378D01*
X141650815Y-94480378D01*
X141653851Y-94262942D01*
X141608377Y-94033284D01*
X141519163Y-93816833D01*
X141389605Y-93621833D01*
X141224639Y-93455711D01*
X141030547Y-93324795D01*
X140814724Y-93234071D01*
X140585390Y-93186995D01*
X140351279Y-93185361D01*
X140121310Y-93229230D01*
X139904241Y-93316931D01*
X139708341Y-93445125D01*
X139541071Y-93608927D01*
X139408804Y-93802100D01*
X139316575Y-94017284D01*
X139267900Y-94246285D01*
X139264631Y-94480378D01*
X139110815Y-94480378D01*
X139113851Y-94262942D01*
X139068377Y-94033284D01*
X138979163Y-93816833D01*
X138849605Y-93621833D01*
X138684639Y-93455711D01*
X138490547Y-93324795D01*
X138274724Y-93234071D01*
X138045390Y-93186995D01*
X137811279Y-93185361D01*
X137581310Y-93229230D01*
X137364241Y-93316931D01*
X137168341Y-93445125D01*
X137001071Y-93608927D01*
X136868804Y-93802100D01*
X136776575Y-94017284D01*
X136727900Y-94246285D01*
X136724631Y-94480378D01*
X136766894Y-94710648D01*
X136826966Y-94862376D01*
X136344671Y-95344671D01*
X136319359Y-95375487D01*
X136293716Y-95406047D01*
X136292621Y-95408039D01*
X136291181Y-95409792D01*
X136272349Y-95444914D01*
X136253117Y-95479896D01*
X136252430Y-95482062D01*
X136251358Y-95484061D01*
X136239715Y-95522147D01*
X136227636Y-95560224D01*
X136227382Y-95562486D01*
X136226720Y-95564652D01*
X136222691Y-95604311D01*
X136218242Y-95643971D01*
X136218211Y-95648402D01*
X136218202Y-95648492D01*
X136218210Y-95648576D01*
X136218200Y-95650000D01*
X136218200Y-96045876D01*
X136183303Y-96080773D01*
X136094397Y-95893504D01*
X135880411Y-95773856D01*
X135647194Y-95698254D01*
X135403709Y-95669602D01*
X135159313Y-95689002D01*
X134923399Y-95755709D01*
X134705030Y-95867159D01*
X134665603Y-95893504D01*
X134576696Y-96080775D01*
X135380000Y-96884079D01*
X135394143Y-96869937D01*
X135430064Y-96905858D01*
X135415921Y-96920000D01*
X135430064Y-96934143D01*
X135394143Y-96970064D01*
X135380000Y-96955921D01*
X134576696Y-97759225D01*
X134665603Y-97946496D01*
X134879589Y-98066144D01*
X135112806Y-98141746D01*
X135356291Y-98170398D01*
X135600687Y-98150998D01*
X135836601Y-98084291D01*
X136054970Y-97972841D01*
X136094397Y-97946496D01*
X136183303Y-97759227D01*
X136218200Y-97794124D01*
X136218200Y-102673787D01*
X136144639Y-102599711D01*
X135950547Y-102468795D01*
X135734724Y-102378071D01*
X135505390Y-102330995D01*
X135271279Y-102329361D01*
X135041310Y-102373230D01*
X134897849Y-102431192D01*
X133145329Y-100678671D01*
X133114513Y-100653359D01*
X133083953Y-100627716D01*
X133081961Y-100626621D01*
X133080208Y-100625181D01*
X133045086Y-100606349D01*
X133010104Y-100587117D01*
X133007938Y-100586430D01*
X133005939Y-100585358D01*
X132967853Y-100573715D01*
X132929776Y-100561636D01*
X132927514Y-100561382D01*
X132925348Y-100560720D01*
X132885689Y-100556691D01*
X132846029Y-100552242D01*
X132841598Y-100552211D01*
X132841508Y-100552202D01*
X132841424Y-100552210D01*
X132840000Y-100552200D01*
X128877065Y-100552200D01*
X128840476Y-100497129D01*
X128736933Y-100392861D01*
X128615110Y-100310690D01*
X128479646Y-100253746D01*
X128335702Y-100224199D01*
X128188760Y-100223173D01*
X128044418Y-100250708D01*
X127908172Y-100305754D01*
X127785214Y-100386216D01*
X127680225Y-100489028D01*
X127597206Y-100610275D01*
X127539318Y-100745338D01*
X127508766Y-100889072D01*
X127506715Y-101036003D01*
X127533241Y-101180535D01*
X127587335Y-101317161D01*
X127666937Y-101440678D01*
X127769014Y-101546382D01*
X127889678Y-101630246D01*
X128024333Y-101689075D01*
X128167851Y-101720630D01*
X128314764Y-101723707D01*
X128459477Y-101698190D01*
X128596477Y-101645051D01*
X128720548Y-101566314D01*
X128826961Y-101464977D01*
X128861652Y-101415800D01*
X132661142Y-101415800D01*
X134287593Y-103042251D01*
X134236575Y-103161284D01*
X134187900Y-103390285D01*
X134184631Y-103624378D01*
X134226894Y-103854648D01*
X134313077Y-104072324D01*
X134439900Y-104269114D01*
X134602531Y-104437523D01*
X134794775Y-104571136D01*
X135009311Y-104664865D01*
X135237965Y-104715138D01*
X135472030Y-104720041D01*
X135702590Y-104679387D01*
X135920862Y-104594725D01*
X136118533Y-104469279D01*
X136218200Y-104374367D01*
X136218200Y-104868725D01*
X134491000Y-104868725D01*
X134441539Y-104872745D01*
X134359460Y-104898411D01*
X134287752Y-104945883D01*
X134232068Y-105011420D01*
X134196799Y-105089853D01*
X134184725Y-105175000D01*
X134184725Y-106953000D01*
X134188745Y-107002461D01*
X134214411Y-107084540D01*
X134261883Y-107156248D01*
X134327420Y-107211932D01*
X134405853Y-107247201D01*
X134491000Y-107259275D01*
X135964618Y-107259275D01*
X136477543Y-107772200D01*
X134396858Y-107772200D01*
X133525800Y-106901142D01*
X133525800Y-104794000D01*
X133521906Y-104754289D01*
X133518431Y-104714570D01*
X133517798Y-104712390D01*
X133517576Y-104710130D01*
X133506048Y-104671947D01*
X133494920Y-104633643D01*
X133493875Y-104631627D01*
X133493219Y-104629454D01*
X133474507Y-104594262D01*
X133456138Y-104558825D01*
X133454720Y-104557048D01*
X133453655Y-104555046D01*
X133428459Y-104524152D01*
X133403562Y-104492964D01*
X133400445Y-104489803D01*
X133400393Y-104489739D01*
X133400334Y-104489690D01*
X133399329Y-104488671D01*
X132563220Y-103652562D01*
X132570989Y-103618367D01*
X132573333Y-103450527D01*
X132544791Y-103306380D01*
X132488794Y-103170523D01*
X132407476Y-103048129D01*
X132303933Y-102943861D01*
X132182110Y-102861690D01*
X132046646Y-102804746D01*
X131902702Y-102775199D01*
X131755760Y-102774173D01*
X131611418Y-102801708D01*
X131475172Y-102856754D01*
X131352214Y-102937216D01*
X131247225Y-103040028D01*
X131164206Y-103161275D01*
X131106318Y-103296338D01*
X131075766Y-103440072D01*
X131073715Y-103587003D01*
X131100241Y-103731535D01*
X131148807Y-103854200D01*
X127252000Y-103854200D01*
X127212339Y-103858089D01*
X127172570Y-103861568D01*
X127170385Y-103862203D01*
X127168130Y-103862424D01*
X127129989Y-103873939D01*
X127091643Y-103885080D01*
X127089627Y-103886125D01*
X127087454Y-103886781D01*
X127052262Y-103905493D01*
X127016825Y-103923862D01*
X127015048Y-103925280D01*
X127013046Y-103926345D01*
X126982152Y-103951541D01*
X126950964Y-103976438D01*
X126947803Y-103979555D01*
X126947739Y-103979607D01*
X126947690Y-103979666D01*
X126946671Y-103980671D01*
X126364020Y-104563322D01*
X126314702Y-104553199D01*
X126167760Y-104552173D01*
X126023418Y-104579708D01*
X125887172Y-104634754D01*
X125764214Y-104715216D01*
X125659225Y-104818028D01*
X125576206Y-104939275D01*
X125518318Y-105074338D01*
X125487766Y-105218072D01*
X125485715Y-105365003D01*
X118379800Y-105365003D01*
X118379800Y-98629800D01*
X118500000Y-98629800D01*
X118500066Y-98629794D01*
X118501321Y-98629798D01*
X118525755Y-98629713D01*
X118542266Y-98628036D01*
X118558856Y-98628152D01*
X118564134Y-98627634D01*
X119243473Y-98556232D01*
X119277167Y-98549316D01*
X119311006Y-98542861D01*
X119316083Y-98541328D01*
X119968614Y-98339336D01*
X120000363Y-98325990D01*
X120032265Y-98313101D01*
X120036947Y-98310612D01*
X120637817Y-97985722D01*
X120666353Y-97966475D01*
X120695159Y-97947625D01*
X120699269Y-97944273D01*
X121225592Y-97508861D01*
X121249881Y-97484401D01*
X121274442Y-97460350D01*
X121277817Y-97456270D01*
X121277822Y-97456265D01*
X121277826Y-97456260D01*
X121633322Y-97020378D01*
X126564631Y-97020378D01*
X126606894Y-97250648D01*
X126693077Y-97468324D01*
X126819900Y-97665114D01*
X126982531Y-97833523D01*
X127174775Y-97967136D01*
X127389311Y-98060865D01*
X127617965Y-98111138D01*
X127852030Y-98116041D01*
X128082590Y-98075387D01*
X128300862Y-97990725D01*
X128498533Y-97865279D01*
X128609901Y-97759225D01*
X129496696Y-97759225D01*
X129585603Y-97946496D01*
X129799589Y-98066144D01*
X130032806Y-98141746D01*
X130276291Y-98170398D01*
X130520687Y-98150998D01*
X130756601Y-98084291D01*
X130974970Y-97972841D01*
X131014397Y-97946496D01*
X131103304Y-97759225D01*
X132036696Y-97759225D01*
X132125603Y-97946496D01*
X132339589Y-98066144D01*
X132572806Y-98141746D01*
X132816291Y-98170398D01*
X133060687Y-98150998D01*
X133296601Y-98084291D01*
X133514970Y-97972841D01*
X133554397Y-97946496D01*
X133643304Y-97759225D01*
X132840000Y-96955921D01*
X132036696Y-97759225D01*
X131103304Y-97759225D01*
X131103304Y-97759225D01*
X130300000Y-96955921D01*
X129496696Y-97759225D01*
X128609901Y-97759225D01*
X128668073Y-97703828D01*
X128803025Y-97512521D01*
X128898249Y-97298645D01*
X128950117Y-97070347D01*
X128952547Y-96896291D01*
X129049602Y-96896291D01*
X129069002Y-97140687D01*
X129135709Y-97376601D01*
X129247159Y-97594970D01*
X129273504Y-97634397D01*
X129460775Y-97723304D01*
X130264079Y-96920000D01*
X130335921Y-96920000D01*
X131139225Y-97723304D01*
X131326496Y-97634397D01*
X131446144Y-97420411D01*
X131521746Y-97187194D01*
X131550398Y-96943709D01*
X131546634Y-96896291D01*
X131589602Y-96896291D01*
X131609002Y-97140687D01*
X131675709Y-97376601D01*
X131787159Y-97594970D01*
X131813504Y-97634397D01*
X132000775Y-97723304D01*
X132804079Y-96920000D01*
X132875921Y-96920000D01*
X133679225Y-97723304D01*
X133866496Y-97634397D01*
X133986144Y-97420411D01*
X134061746Y-97187194D01*
X134090398Y-96943709D01*
X134086634Y-96896291D01*
X134129602Y-96896291D01*
X134149002Y-97140687D01*
X134215709Y-97376601D01*
X134327159Y-97594970D01*
X134353504Y-97634397D01*
X134540775Y-97723304D01*
X135344079Y-96920000D01*
X134540775Y-96116696D01*
X134353504Y-96205603D01*
X134233856Y-96419589D01*
X134158254Y-96652806D01*
X134129602Y-96896291D01*
X134086634Y-96896291D01*
X134070998Y-96699313D01*
X134004291Y-96463399D01*
X133892841Y-96245030D01*
X133866496Y-96205603D01*
X133679225Y-96116696D01*
X132875921Y-96920000D01*
X132804079Y-96920000D01*
X132804079Y-96920000D01*
X132000775Y-96116696D01*
X131813504Y-96205603D01*
X131693856Y-96419589D01*
X131618254Y-96652806D01*
X131589602Y-96896291D01*
X131546634Y-96896291D01*
X131530998Y-96699313D01*
X131464291Y-96463399D01*
X131352841Y-96245030D01*
X131326496Y-96205603D01*
X131139225Y-96116696D01*
X130335921Y-96920000D01*
X130264079Y-96920000D01*
X130264079Y-96920000D01*
X129460775Y-96116696D01*
X129273504Y-96205603D01*
X129153856Y-96419589D01*
X129078254Y-96652806D01*
X129049602Y-96896291D01*
X128952547Y-96896291D01*
X128953851Y-96802942D01*
X128908377Y-96573284D01*
X128819163Y-96356833D01*
X128689605Y-96161833D01*
X128609111Y-96080775D01*
X129496696Y-96080775D01*
X130300000Y-96884079D01*
X131103304Y-96080775D01*
X132036696Y-96080775D01*
X132840000Y-96884079D01*
X133643304Y-96080775D01*
X133554397Y-95893504D01*
X133340411Y-95773856D01*
X133107194Y-95698254D01*
X132863709Y-95669602D01*
X132619313Y-95689002D01*
X132383399Y-95755709D01*
X132165030Y-95867159D01*
X132125603Y-95893504D01*
X132036696Y-96080775D01*
X131103304Y-96080775D01*
X131103304Y-96080775D01*
X131014397Y-95893504D01*
X130800411Y-95773856D01*
X130567194Y-95698254D01*
X130323709Y-95669602D01*
X130079313Y-95689002D01*
X129843399Y-95755709D01*
X129625030Y-95867159D01*
X129585603Y-95893504D01*
X129496696Y-96080775D01*
X128609111Y-96080775D01*
X128524639Y-95995711D01*
X128330547Y-95864795D01*
X128114724Y-95774071D01*
X127885390Y-95726995D01*
X127651279Y-95725361D01*
X127421310Y-95769230D01*
X127204241Y-95856931D01*
X127008341Y-95985125D01*
X126841071Y-96148927D01*
X126708804Y-96342100D01*
X126616575Y-96557284D01*
X126567900Y-96786285D01*
X126564631Y-97020378D01*
X121633322Y-97020378D01*
X121709548Y-96926915D01*
X121728620Y-96898210D01*
X121748045Y-96869840D01*
X121750563Y-96865183D01*
X121750568Y-96865175D01*
X121750571Y-96865167D01*
X122071254Y-96262052D01*
X122084375Y-96230219D01*
X122097933Y-96198586D01*
X122099501Y-96193520D01*
X122296933Y-95539595D01*
X122303625Y-95505797D01*
X122310776Y-95472156D01*
X122311330Y-95466882D01*
X122335613Y-95219225D01*
X126956696Y-95219225D01*
X127045603Y-95406496D01*
X127259589Y-95526144D01*
X127492806Y-95601746D01*
X127736291Y-95630398D01*
X127980687Y-95610998D01*
X128216601Y-95544291D01*
X128434970Y-95432841D01*
X128474397Y-95406496D01*
X128563304Y-95219225D01*
X129496696Y-95219225D01*
X129585603Y-95406496D01*
X129799589Y-95526144D01*
X130032806Y-95601746D01*
X130276291Y-95630398D01*
X130520687Y-95610998D01*
X130756601Y-95544291D01*
X130974970Y-95432841D01*
X131014397Y-95406496D01*
X131103304Y-95219225D01*
X132036696Y-95219225D01*
X132125603Y-95406496D01*
X132339589Y-95526144D01*
X132572806Y-95601746D01*
X132816291Y-95630398D01*
X133060687Y-95610998D01*
X133296601Y-95544291D01*
X133514970Y-95432841D01*
X133554397Y-95406496D01*
X133643304Y-95219225D01*
X134576696Y-95219225D01*
X134665603Y-95406496D01*
X134879589Y-95526144D01*
X135112806Y-95601746D01*
X135356291Y-95630398D01*
X135600687Y-95610998D01*
X135836601Y-95544291D01*
X136054970Y-95432841D01*
X136094397Y-95406496D01*
X136183304Y-95219225D01*
X135380000Y-94415921D01*
X134576696Y-95219225D01*
X133643304Y-95219225D01*
X133643304Y-95219225D01*
X132840000Y-94415921D01*
X132036696Y-95219225D01*
X131103304Y-95219225D01*
X131103304Y-95219225D01*
X130300000Y-94415921D01*
X129496696Y-95219225D01*
X128563304Y-95219225D01*
X128563304Y-95219225D01*
X127760000Y-94415921D01*
X126956696Y-95219225D01*
X122335613Y-95219225D01*
X122377987Y-94787062D01*
X122377987Y-94770472D01*
X122379779Y-94753982D01*
X122379798Y-94748679D01*
X122379713Y-94724245D01*
X122378036Y-94707734D01*
X122378152Y-94691144D01*
X122377634Y-94685866D01*
X122342994Y-94356291D01*
X126509602Y-94356291D01*
X126529002Y-94600687D01*
X126595709Y-94836601D01*
X126707159Y-95054970D01*
X126733504Y-95094397D01*
X126920775Y-95183304D01*
X127724079Y-94380000D01*
X127795921Y-94380000D01*
X128599225Y-95183304D01*
X128786496Y-95094397D01*
X128906144Y-94880411D01*
X128981746Y-94647194D01*
X129010398Y-94403709D01*
X129006634Y-94356291D01*
X129049602Y-94356291D01*
X129069002Y-94600687D01*
X129135709Y-94836601D01*
X129247159Y-95054970D01*
X129273504Y-95094397D01*
X129460775Y-95183304D01*
X130264079Y-94380000D01*
X130335921Y-94380000D01*
X131139225Y-95183304D01*
X131326496Y-95094397D01*
X131446144Y-94880411D01*
X131521746Y-94647194D01*
X131550398Y-94403709D01*
X131546634Y-94356291D01*
X131589602Y-94356291D01*
X131609002Y-94600687D01*
X131675709Y-94836601D01*
X131787159Y-95054970D01*
X131813504Y-95094397D01*
X132000775Y-95183304D01*
X132804079Y-94380000D01*
X132875921Y-94380000D01*
X133679225Y-95183304D01*
X133866496Y-95094397D01*
X133986144Y-94880411D01*
X134061746Y-94647194D01*
X134090398Y-94403709D01*
X134086634Y-94356291D01*
X134129602Y-94356291D01*
X134149002Y-94600687D01*
X134215709Y-94836601D01*
X134327159Y-95054970D01*
X134353504Y-95094397D01*
X134540775Y-95183304D01*
X135344079Y-94380000D01*
X135415921Y-94380000D01*
X136219225Y-95183304D01*
X136406496Y-95094397D01*
X136526144Y-94880411D01*
X136601746Y-94647194D01*
X136630398Y-94403709D01*
X136610998Y-94159313D01*
X136544291Y-93923399D01*
X136432841Y-93705030D01*
X136406496Y-93665603D01*
X136219225Y-93576696D01*
X135415921Y-94380000D01*
X135344079Y-94380000D01*
X135344079Y-94380000D01*
X134540775Y-93576696D01*
X134353504Y-93665603D01*
X134233856Y-93879589D01*
X134158254Y-94112806D01*
X134129602Y-94356291D01*
X134086634Y-94356291D01*
X134070998Y-94159313D01*
X134004291Y-93923399D01*
X133892841Y-93705030D01*
X133866496Y-93665603D01*
X133679225Y-93576696D01*
X132875921Y-94380000D01*
X132804079Y-94380000D01*
X132804079Y-94380000D01*
X132000775Y-93576696D01*
X131813504Y-93665603D01*
X131693856Y-93879589D01*
X131618254Y-94112806D01*
X131589602Y-94356291D01*
X131546634Y-94356291D01*
X131530998Y-94159313D01*
X131464291Y-93923399D01*
X131352841Y-93705030D01*
X131326496Y-93665603D01*
X131139225Y-93576696D01*
X130335921Y-94380000D01*
X130264079Y-94380000D01*
X130264079Y-94380000D01*
X129460775Y-93576696D01*
X129273504Y-93665603D01*
X129153856Y-93879589D01*
X129078254Y-94112806D01*
X129049602Y-94356291D01*
X129006634Y-94356291D01*
X128990998Y-94159313D01*
X128924291Y-93923399D01*
X128812841Y-93705030D01*
X128786496Y-93665603D01*
X128599225Y-93576696D01*
X127795921Y-94380000D01*
X127724079Y-94380000D01*
X127724079Y-94380000D01*
X126920775Y-93576696D01*
X126733504Y-93665603D01*
X126613856Y-93879589D01*
X126538254Y-94112806D01*
X126509602Y-94356291D01*
X122342994Y-94356291D01*
X122306232Y-94006527D01*
X122299302Y-93972764D01*
X122292860Y-93938994D01*
X122291328Y-93933917D01*
X122169630Y-93540775D01*
X126956696Y-93540775D01*
X127760000Y-94344079D01*
X128563304Y-93540775D01*
X129496696Y-93540775D01*
X130300000Y-94344079D01*
X131103304Y-93540775D01*
X132036696Y-93540775D01*
X132840000Y-94344079D01*
X133643304Y-93540775D01*
X134576696Y-93540775D01*
X135380000Y-94344079D01*
X136183304Y-93540775D01*
X136094397Y-93353504D01*
X135880411Y-93233856D01*
X135647194Y-93158254D01*
X135403709Y-93129602D01*
X135159313Y-93149002D01*
X134923399Y-93215709D01*
X134705030Y-93327159D01*
X134665603Y-93353504D01*
X134576696Y-93540775D01*
X133643304Y-93540775D01*
X133643304Y-93540775D01*
X133554397Y-93353504D01*
X133340411Y-93233856D01*
X133107194Y-93158254D01*
X132863709Y-93129602D01*
X132619313Y-93149002D01*
X132383399Y-93215709D01*
X132165030Y-93327159D01*
X132125603Y-93353504D01*
X132036696Y-93540775D01*
X131103304Y-93540775D01*
X131103304Y-93540775D01*
X131014397Y-93353504D01*
X130800411Y-93233856D01*
X130567194Y-93158254D01*
X130323709Y-93129602D01*
X130079313Y-93149002D01*
X129843399Y-93215709D01*
X129625030Y-93327159D01*
X129585603Y-93353504D01*
X129496696Y-93540775D01*
X128563304Y-93540775D01*
X128563304Y-93540775D01*
X128474397Y-93353504D01*
X128260411Y-93233856D01*
X128027194Y-93158254D01*
X127783709Y-93129602D01*
X127539313Y-93149002D01*
X127303399Y-93215709D01*
X127085030Y-93327159D01*
X127045603Y-93353504D01*
X126956696Y-93540775D01*
X122169630Y-93540775D01*
X122089336Y-93281385D01*
X122075969Y-93249586D01*
X122063101Y-93217736D01*
X122060612Y-93213053D01*
X121735723Y-92612183D01*
X121716467Y-92583636D01*
X121697625Y-92554841D01*
X121694273Y-92550732D01*
X121258861Y-92024408D01*
X121234401Y-92000119D01*
X121210350Y-91975558D01*
X121206270Y-91972183D01*
X121206265Y-91972178D01*
X121206260Y-91972174D01*
X120676914Y-91540452D01*
X120648211Y-91521382D01*
X120619840Y-91501955D01*
X120615175Y-91499432D01*
X120012051Y-91178746D01*
X119980232Y-91165631D01*
X119948586Y-91152067D01*
X119943524Y-91150500D01*
X119943518Y-91150498D01*
X119289594Y-90953067D01*
X119255779Y-90946371D01*
X119222156Y-90939224D01*
X119216893Y-90938671D01*
X119216882Y-90938669D01*
X119216872Y-90938669D01*
X118537062Y-90872013D01*
X118521134Y-90872013D01*
X118505303Y-90870237D01*
X118500000Y-90870200D01*
X118379800Y-90870200D01*
X118379800Y-89146378D01*
X122754631Y-89146378D01*
X122796894Y-89376648D01*
X122883077Y-89594324D01*
X123009900Y-89791114D01*
X123172531Y-89959523D01*
X123364775Y-90093136D01*
X123579311Y-90186865D01*
X123807965Y-90237138D01*
X124042030Y-90242041D01*
X124272590Y-90201387D01*
X124490862Y-90116725D01*
X124688533Y-89991279D01*
X124858073Y-89829828D01*
X124993025Y-89638521D01*
X125088249Y-89424645D01*
X125140117Y-89196347D01*
X125143851Y-88928942D01*
X125098377Y-88699284D01*
X125009163Y-88482833D01*
X124879605Y-88287833D01*
X124831309Y-88239199D01*
X126151460Y-88239199D01*
X126252171Y-88787927D01*
X126457545Y-89306644D01*
X126759761Y-89775591D01*
X127147307Y-90176907D01*
X127605421Y-90495304D01*
X128116655Y-90718657D01*
X128661535Y-90838456D01*
X129219306Y-90850140D01*
X129768725Y-90753263D01*
X130288863Y-90551515D01*
X130759908Y-90252580D01*
X131163920Y-89867845D01*
X131485508Y-89411965D01*
X131712424Y-88902303D01*
X131836024Y-88358273D01*
X131844922Y-87721053D01*
X131736560Y-87173784D01*
X131523963Y-86657985D01*
X131215229Y-86193303D01*
X130822118Y-85797438D01*
X130359603Y-85485467D01*
X129845301Y-85269275D01*
X129298801Y-85157095D01*
X128740921Y-85153200D01*
X128192909Y-85257739D01*
X127675638Y-85466729D01*
X127208812Y-85772212D01*
X126810212Y-86162550D01*
X126495020Y-86622876D01*
X126275243Y-87135656D01*
X126159250Y-87681359D01*
X126151460Y-88239199D01*
X124831309Y-88239199D01*
X124714639Y-88121711D01*
X124520547Y-87990795D01*
X124304724Y-87900071D01*
X124075390Y-87852995D01*
X123841279Y-87851361D01*
X123611310Y-87895230D01*
X123394241Y-87982931D01*
X123198341Y-88111125D01*
X123031071Y-88274927D01*
X122898804Y-88468100D01*
X122806575Y-88683284D01*
X122757900Y-88912285D01*
X122754631Y-89146378D01*
X118379800Y-89146378D01*
X118379800Y-85617000D01*
X122754725Y-85617000D01*
X122754725Y-87395000D01*
X122758745Y-87444461D01*
X122784411Y-87526540D01*
X122831883Y-87598248D01*
X122897420Y-87653932D01*
X122975853Y-87689201D01*
X123061000Y-87701275D01*
X124839000Y-87701275D01*
X124888461Y-87697255D01*
X124970540Y-87671589D01*
X125042248Y-87624117D01*
X125097932Y-87558580D01*
X125133201Y-87480147D01*
X125145275Y-87395000D01*
X125145275Y-85617000D01*
X125141255Y-85567539D01*
X125115589Y-85485460D01*
X125069070Y-85415192D01*
X125705463Y-84778800D01*
X136904000Y-84778800D01*
X136955414Y-84773759D01*
X137006791Y-84769264D01*
X137009610Y-84768445D01*
X137012538Y-84768158D01*
X137061970Y-84753233D01*
X137111520Y-84738838D01*
X137114130Y-84737485D01*
X137116942Y-84736636D01*
X137162497Y-84712414D01*
X137170873Y-84708072D01*
X137169715Y-84791003D01*
X137196241Y-84935535D01*
X137250335Y-85072161D01*
X137329937Y-85195678D01*
X137420186Y-85289134D01*
X137317172Y-85330754D01*
X137194214Y-85411216D01*
X137089225Y-85514028D01*
X137006206Y-85635275D01*
X136948318Y-85770338D01*
X136917766Y-85914072D01*
X136915715Y-86061003D01*
X136927597Y-86125745D01*
X136471142Y-86582200D01*
X135992757Y-86582200D01*
X135963476Y-86538129D01*
X135859933Y-86433861D01*
X135738110Y-86351690D01*
X135602646Y-86294746D01*
X135458702Y-86265199D01*
X135311760Y-86264173D01*
X135167418Y-86291708D01*
X135031172Y-86346754D01*
X134908214Y-86427216D01*
X134803225Y-86530028D01*
X134720206Y-86651275D01*
X134662318Y-86786338D01*
X134631766Y-86930072D01*
X134629715Y-87077003D01*
X134656241Y-87221535D01*
X134710335Y-87358161D01*
X134789937Y-87481678D01*
X134892014Y-87587382D01*
X135012678Y-87671246D01*
X135147333Y-87730075D01*
X135290851Y-87761630D01*
X135437764Y-87764707D01*
X135582477Y-87739190D01*
X135719477Y-87686051D01*
X135843548Y-87607314D01*
X135949961Y-87505977D01*
X135992411Y-87445800D01*
X136650000Y-87445800D01*
X136689661Y-87441911D01*
X136729430Y-87438432D01*
X136731615Y-87437797D01*
X136733870Y-87437576D01*
X136772011Y-87426061D01*
X136810357Y-87414920D01*
X136812373Y-87413875D01*
X136814546Y-87413219D01*
X136849738Y-87394507D01*
X136885175Y-87376138D01*
X136886952Y-87374720D01*
X136888954Y-87373655D01*
X136919848Y-87348459D01*
X136951036Y-87323562D01*
X136954197Y-87320445D01*
X136954261Y-87320393D01*
X136954310Y-87320334D01*
X136955329Y-87319329D01*
X137537648Y-86737010D01*
X137576851Y-86745630D01*
X137723764Y-86748707D01*
X137868477Y-86723190D01*
X138005477Y-86670051D01*
X138129548Y-86591314D01*
X138235961Y-86489977D01*
X138320665Y-86369902D01*
X138380433Y-86235660D01*
X138412989Y-86092367D01*
X138415333Y-85924527D01*
X138392980Y-85811638D01*
X139012200Y-86430857D01*
X139012200Y-89300000D01*
X139016089Y-89339661D01*
X139019568Y-89379430D01*
X139020203Y-89381615D01*
X139020424Y-89383870D01*
X139031939Y-89422011D01*
X139043080Y-89460357D01*
X139044125Y-89462373D01*
X139044781Y-89464546D01*
X139063493Y-89499738D01*
X139081862Y-89535175D01*
X139083280Y-89536952D01*
X139084345Y-89538954D01*
X139109541Y-89569848D01*
X139134438Y-89601036D01*
X139137555Y-89604197D01*
X139137607Y-89604261D01*
X139137666Y-89604310D01*
X139138671Y-89605329D01*
X140408671Y-90875329D01*
X140439482Y-90900637D01*
X140470047Y-90926284D01*
X140472040Y-90927380D01*
X140473791Y-90928818D01*
X140508896Y-90947641D01*
X140543896Y-90966883D01*
X140546062Y-90967570D01*
X140548061Y-90968642D01*
X140586159Y-90980289D01*
X140624224Y-90992364D01*
X140626484Y-90992618D01*
X140628651Y-90993280D01*
X140668271Y-90997305D01*
X140707971Y-91001758D01*
X140712413Y-91001789D01*
X140712492Y-91001797D01*
X140712566Y-91001790D01*
X140714000Y-91001800D01*
X144091142Y-91001800D01*
X146378200Y-93288857D01*
X146378200Y-93529787D01*
X146304639Y-93455711D01*
X146110547Y-93324795D01*
X145894724Y-93234071D01*
X145665390Y-93186995D01*
X145431279Y-93185361D01*
X145201310Y-93229230D01*
X144984241Y-93316931D01*
X144788341Y-93445125D01*
X144621071Y-93608927D01*
X144488804Y-93802100D01*
X144396575Y-94017284D01*
X144347900Y-94246285D01*
X144344631Y-94480378D01*
X144386894Y-94710648D01*
X144473077Y-94928324D01*
X144599900Y-95125114D01*
X144762531Y-95293523D01*
X144954775Y-95427136D01*
X145169311Y-95520865D01*
X145397965Y-95571138D01*
X145632030Y-95576041D01*
X145862590Y-95535387D01*
X146080862Y-95450725D01*
X146278533Y-95325279D01*
X146378200Y-95230367D01*
X146378200Y-96069787D01*
X146304639Y-95995711D01*
X146110547Y-95864795D01*
X145894724Y-95774071D01*
X145665390Y-95726995D01*
X145431279Y-95725361D01*
X145201310Y-95769230D01*
X144984241Y-95856931D01*
X144788341Y-95985125D01*
X144621071Y-96148927D01*
X144488804Y-96342100D01*
X144396575Y-96557284D01*
X144347900Y-96786285D01*
X144344631Y-97020378D01*
X144386894Y-97250648D01*
X144473077Y-97468324D01*
X144599900Y-97665114D01*
X144762531Y-97833523D01*
X144954775Y-97967136D01*
X145169311Y-98060865D01*
X145397965Y-98111138D01*
X145632030Y-98116041D01*
X145862590Y-98075387D01*
X146080862Y-97990725D01*
X146278533Y-97865279D01*
X146386005Y-97762935D01*
X146386203Y-97763615D01*
X146386424Y-97765870D01*
X146397939Y-97804011D01*
X146409080Y-97842357D01*
X146410125Y-97844373D01*
X146410781Y-97846546D01*
X146429493Y-97881738D01*
X146447862Y-97917175D01*
X146449280Y-97918952D01*
X146450345Y-97920954D01*
X146475541Y-97951848D01*
X146500438Y-97983036D01*
X146503555Y-97986197D01*
X146503607Y-97986261D01*
X146503666Y-97986310D01*
X146504671Y-97987329D01*
X149934200Y-101416857D01*
X149934200Y-108245050D01*
X149894214Y-108271216D01*
X149789225Y-108374028D01*
X149706206Y-108495275D01*
X149648318Y-108630338D01*
X149617766Y-108774072D01*
X149615715Y-108921003D01*
X149642241Y-109065535D01*
X149696335Y-109202161D01*
X149775937Y-109325678D01*
X149878014Y-109431382D01*
X149998678Y-109515246D01*
X150133333Y-109574075D01*
X150276851Y-109605630D01*
X150423764Y-109608707D01*
X150568477Y-109583190D01*
X150705477Y-109530051D01*
X150829548Y-109451314D01*
X150935961Y-109349977D01*
X151020665Y-109229902D01*
X151080433Y-109095660D01*
X151112989Y-108952367D01*
X151115333Y-108784527D01*
X151086791Y-108640380D01*
X151030794Y-108504523D01*
X150949476Y-108382129D01*
X150845933Y-108277861D01*
X150797800Y-108245395D01*
X150797800Y-101238000D01*
X150793906Y-101198289D01*
X150790431Y-101158570D01*
X150789798Y-101156390D01*
X150789576Y-101154130D01*
X150778048Y-101115947D01*
X150766920Y-101077643D01*
X150765875Y-101075627D01*
X150765219Y-101073454D01*
X150746497Y-101038243D01*
X150728137Y-101002824D01*
X150726720Y-101001049D01*
X150725655Y-100999046D01*
X150700455Y-100968147D01*
X150675562Y-100936964D01*
X150672449Y-100933807D01*
X150672393Y-100933739D01*
X150672330Y-100933687D01*
X150671328Y-100932671D01*
X148753661Y-99015003D01*
X150123715Y-99015003D01*
X150150241Y-99159535D01*
X150204335Y-99296161D01*
X150283937Y-99419678D01*
X150386014Y-99525382D01*
X150506678Y-99609246D01*
X150641333Y-99668075D01*
X150784851Y-99699630D01*
X150931764Y-99702707D01*
X151076477Y-99677190D01*
X151213477Y-99624051D01*
X151337548Y-99545314D01*
X151443961Y-99443977D01*
X151474305Y-99400963D01*
X152474200Y-100400858D01*
X152474200Y-108499050D01*
X152434214Y-108525216D01*
X152329225Y-108628028D01*
X152246206Y-108749275D01*
X152188318Y-108884338D01*
X152157766Y-109028072D01*
X152155715Y-109175003D01*
X152182241Y-109319535D01*
X152236335Y-109456161D01*
X152315937Y-109579678D01*
X152418014Y-109685382D01*
X152538678Y-109769246D01*
X152673333Y-109828075D01*
X152816851Y-109859630D01*
X152963764Y-109862707D01*
X153108477Y-109837190D01*
X153245477Y-109784051D01*
X153369548Y-109705314D01*
X153475961Y-109603977D01*
X153560665Y-109483902D01*
X153620433Y-109349660D01*
X153652989Y-109206367D01*
X153655333Y-109038527D01*
X153626791Y-108894380D01*
X153570794Y-108758523D01*
X153489476Y-108636129D01*
X153385933Y-108531861D01*
X153337800Y-108499395D01*
X153337800Y-100222000D01*
X153333906Y-100182289D01*
X153330431Y-100142570D01*
X153329798Y-100140390D01*
X153329576Y-100138130D01*
X153318048Y-100099947D01*
X153306920Y-100061643D01*
X153305875Y-100059627D01*
X153305219Y-100057454D01*
X153286507Y-100022262D01*
X153268138Y-99986825D01*
X153266720Y-99985048D01*
X153265655Y-99983046D01*
X153240459Y-99952152D01*
X153215562Y-99920964D01*
X153212445Y-99917803D01*
X153212393Y-99917739D01*
X153212334Y-99917690D01*
X153211329Y-99916671D01*
X151941329Y-98646671D01*
X151910513Y-98621359D01*
X151879953Y-98595716D01*
X151877961Y-98594621D01*
X151876208Y-98593181D01*
X151841086Y-98574349D01*
X151806104Y-98555117D01*
X151803938Y-98554430D01*
X151801939Y-98553358D01*
X151763853Y-98541715D01*
X151725776Y-98529636D01*
X151723514Y-98529382D01*
X151721348Y-98528720D01*
X151681689Y-98524691D01*
X151642029Y-98520242D01*
X151637598Y-98520211D01*
X151637508Y-98520202D01*
X151637424Y-98520210D01*
X151636000Y-98520200D01*
X151486757Y-98520200D01*
X151457476Y-98476129D01*
X151353933Y-98371861D01*
X151232110Y-98289690D01*
X151096646Y-98232746D01*
X150952702Y-98203199D01*
X150805760Y-98202173D01*
X150661418Y-98229708D01*
X150525172Y-98284754D01*
X150402214Y-98365216D01*
X150297225Y-98468028D01*
X150214206Y-98589275D01*
X150156318Y-98724338D01*
X150125766Y-98868072D01*
X150123715Y-99015003D01*
X148753661Y-99015003D01*
X147824947Y-98086289D01*
X147937965Y-98111138D01*
X148172030Y-98116041D01*
X148402590Y-98075387D01*
X148620862Y-97990725D01*
X148818533Y-97865279D01*
X148988073Y-97703828D01*
X149123025Y-97512521D01*
X149218249Y-97298645D01*
X149270117Y-97070347D01*
X149270815Y-97020378D01*
X149424631Y-97020378D01*
X149466894Y-97250648D01*
X149553077Y-97468324D01*
X149679900Y-97665114D01*
X149842531Y-97833523D01*
X150034775Y-97967136D01*
X150249311Y-98060865D01*
X150477965Y-98111138D01*
X150712030Y-98116041D01*
X150942590Y-98075387D01*
X151160862Y-97990725D01*
X151358533Y-97865279D01*
X151528073Y-97703828D01*
X151663025Y-97512521D01*
X151758249Y-97298645D01*
X151810117Y-97070347D01*
X151810815Y-97020378D01*
X151964631Y-97020378D01*
X152006894Y-97250648D01*
X152093077Y-97468324D01*
X152219900Y-97665114D01*
X152382531Y-97833523D01*
X152574775Y-97967136D01*
X152789311Y-98060865D01*
X153017965Y-98111138D01*
X153237070Y-98115728D01*
X153616671Y-98495329D01*
X153647487Y-98520641D01*
X153678047Y-98546284D01*
X153680039Y-98547379D01*
X153681792Y-98548819D01*
X153716914Y-98567651D01*
X153751896Y-98586883D01*
X153754062Y-98587570D01*
X153756061Y-98588642D01*
X153794188Y-98600299D01*
X153832224Y-98612364D01*
X153834481Y-98612617D01*
X153836652Y-98613281D01*
X153876356Y-98617314D01*
X153915971Y-98621758D01*
X153920403Y-98621789D01*
X153920493Y-98621798D01*
X153920577Y-98621790D01*
X153922000Y-98621800D01*
X156029142Y-98621800D01*
X158824200Y-101416858D01*
X158824200Y-107991050D01*
X158784214Y-108017216D01*
X158679225Y-108120028D01*
X158596206Y-108241275D01*
X158538318Y-108376338D01*
X158507766Y-108520072D01*
X158505715Y-108667003D01*
X158532241Y-108811535D01*
X158586335Y-108948161D01*
X158665937Y-109071678D01*
X158768014Y-109177382D01*
X158857264Y-109239413D01*
X158784214Y-109287216D01*
X158679225Y-109390028D01*
X158596206Y-109511275D01*
X158538318Y-109646338D01*
X158507766Y-109790072D01*
X158505715Y-109937003D01*
X158532241Y-110081535D01*
X158586335Y-110218161D01*
X158665937Y-110341678D01*
X158768014Y-110447382D01*
X158888678Y-110531246D01*
X159023333Y-110590075D01*
X159166851Y-110621630D01*
X159313764Y-110624707D01*
X159458477Y-110599190D01*
X159595477Y-110546051D01*
X159719548Y-110467314D01*
X159825961Y-110365977D01*
X159881341Y-110287471D01*
X159886011Y-110286061D01*
X159924357Y-110274920D01*
X159926373Y-110273875D01*
X159928546Y-110273219D01*
X159963738Y-110254507D01*
X159999175Y-110236138D01*
X160000952Y-110234720D01*
X160002954Y-110233655D01*
X160033848Y-110208459D01*
X160065036Y-110183562D01*
X160068197Y-110180445D01*
X160068261Y-110180393D01*
X160068310Y-110180334D01*
X160069329Y-110179329D01*
X160323329Y-109925329D01*
X160348637Y-109894518D01*
X160374284Y-109863953D01*
X160375380Y-109861960D01*
X160376818Y-109860209D01*
X160395641Y-109825104D01*
X160414883Y-109790104D01*
X160415570Y-109787938D01*
X160416642Y-109785939D01*
X160428289Y-109747841D01*
X160440364Y-109709776D01*
X160440618Y-109707516D01*
X160441280Y-109705349D01*
X160445305Y-109665729D01*
X160449758Y-109626029D01*
X160449789Y-109621587D01*
X160449797Y-109621508D01*
X160449790Y-109621434D01*
X160449800Y-109620000D01*
X160449800Y-108096000D01*
X160445906Y-108056289D01*
X160442431Y-108016570D01*
X160441798Y-108014390D01*
X160441576Y-108012130D01*
X160430048Y-107973947D01*
X160418920Y-107935643D01*
X160417875Y-107933627D01*
X160417219Y-107931454D01*
X160398486Y-107896222D01*
X160380137Y-107860825D01*
X160378722Y-107859052D01*
X160377655Y-107857046D01*
X160352437Y-107826125D01*
X160327562Y-107794964D01*
X160324445Y-107791803D01*
X160324393Y-107791739D01*
X160324334Y-107791690D01*
X160323329Y-107790671D01*
X160195800Y-107663142D01*
X160195800Y-100984000D01*
X160191911Y-100944339D01*
X160188432Y-100904570D01*
X160187797Y-100902385D01*
X160187576Y-100900130D01*
X160176061Y-100861989D01*
X160164920Y-100823643D01*
X160163875Y-100821627D01*
X160163219Y-100819454D01*
X160144507Y-100784262D01*
X160126138Y-100748825D01*
X160124720Y-100747048D01*
X160123655Y-100745046D01*
X160098459Y-100714152D01*
X160073562Y-100682964D01*
X160070445Y-100679803D01*
X160070393Y-100679739D01*
X160070334Y-100679690D01*
X160069329Y-100678671D01*
X156792363Y-97401705D01*
X156838249Y-97298645D01*
X156890117Y-97070347D01*
X156890815Y-97020378D01*
X157044631Y-97020378D01*
X157086894Y-97250648D01*
X157173077Y-97468324D01*
X157299900Y-97665114D01*
X157462531Y-97833523D01*
X157654775Y-97967136D01*
X157869311Y-98060865D01*
X158097965Y-98111138D01*
X158332030Y-98116041D01*
X158562590Y-98075387D01*
X158780862Y-97990725D01*
X158978533Y-97865279D01*
X159148073Y-97703828D01*
X159283025Y-97512521D01*
X159378249Y-97298645D01*
X159430117Y-97070347D01*
X159433851Y-96802942D01*
X159388377Y-96573284D01*
X159299163Y-96356833D01*
X159169605Y-96161833D01*
X159004639Y-95995711D01*
X158810547Y-95864795D01*
X158594724Y-95774071D01*
X158365390Y-95726995D01*
X158131279Y-95725361D01*
X157901310Y-95769230D01*
X157684241Y-95856931D01*
X157488341Y-95985125D01*
X157321071Y-96148927D01*
X157188804Y-96342100D01*
X157096575Y-96557284D01*
X157047900Y-96786285D01*
X157044631Y-97020378D01*
X156890815Y-97020378D01*
X156893851Y-96802942D01*
X156848377Y-96573284D01*
X156759163Y-96356833D01*
X156629605Y-96161833D01*
X156464639Y-95995711D01*
X156270547Y-95864795D01*
X156054724Y-95774071D01*
X155825390Y-95726995D01*
X155591279Y-95725361D01*
X155361310Y-95769230D01*
X155144241Y-95856931D01*
X154948341Y-95985125D01*
X154781071Y-96148927D01*
X154648804Y-96342100D01*
X154556575Y-96557284D01*
X154507900Y-96786285D01*
X154504631Y-97020378D01*
X154546894Y-97250648D01*
X154633077Y-97468324D01*
X154759900Y-97665114D01*
X154849792Y-97758200D01*
X154100858Y-97758200D01*
X154057016Y-97714358D01*
X154068073Y-97703828D01*
X154203025Y-97512521D01*
X154298249Y-97298645D01*
X154350117Y-97070347D01*
X154353851Y-96802942D01*
X154308377Y-96573284D01*
X154219163Y-96356833D01*
X154089605Y-96161833D01*
X153924639Y-95995711D01*
X153730547Y-95864795D01*
X153514724Y-95774071D01*
X153285390Y-95726995D01*
X153051279Y-95725361D01*
X152821310Y-95769230D01*
X152604241Y-95856931D01*
X152408341Y-95985125D01*
X152241071Y-96148927D01*
X152108804Y-96342100D01*
X152016575Y-96557284D01*
X151967900Y-96786285D01*
X151964631Y-97020378D01*
X151810815Y-97020378D01*
X151813851Y-96802942D01*
X151768377Y-96573284D01*
X151679163Y-96356833D01*
X151549605Y-96161833D01*
X151384639Y-95995711D01*
X151190547Y-95864795D01*
X150974724Y-95774071D01*
X150745390Y-95726995D01*
X150511279Y-95725361D01*
X150281310Y-95769230D01*
X150064241Y-95856931D01*
X149868341Y-95985125D01*
X149701071Y-96148927D01*
X149568804Y-96342100D01*
X149476575Y-96557284D01*
X149427900Y-96786285D01*
X149424631Y-97020378D01*
X149270815Y-97020378D01*
X149273851Y-96802942D01*
X149228377Y-96573284D01*
X149139163Y-96356833D01*
X149009605Y-96161833D01*
X148844639Y-95995711D01*
X148650547Y-95864795D01*
X148434724Y-95774071D01*
X148205390Y-95726995D01*
X147971279Y-95725361D01*
X147741310Y-95769230D01*
X147524241Y-95856931D01*
X147328341Y-95985125D01*
X147241800Y-96069872D01*
X147241800Y-95230634D01*
X147302531Y-95293523D01*
X147494775Y-95427136D01*
X147709311Y-95520865D01*
X147937965Y-95571138D01*
X148172030Y-95576041D01*
X148402590Y-95535387D01*
X148620862Y-95450725D01*
X148818533Y-95325279D01*
X148988073Y-95163828D01*
X149123025Y-94972521D01*
X149218249Y-94758645D01*
X149270117Y-94530347D01*
X149270815Y-94480378D01*
X149424631Y-94480378D01*
X149466894Y-94710648D01*
X149553077Y-94928324D01*
X149679900Y-95125114D01*
X149842531Y-95293523D01*
X150034775Y-95427136D01*
X150249311Y-95520865D01*
X150477965Y-95571138D01*
X150712030Y-95576041D01*
X150942590Y-95535387D01*
X151160862Y-95450725D01*
X151358533Y-95325279D01*
X151528073Y-95163828D01*
X151663025Y-94972521D01*
X151758249Y-94758645D01*
X151810117Y-94530347D01*
X151810815Y-94480378D01*
X151964631Y-94480378D01*
X152006894Y-94710648D01*
X152093077Y-94928324D01*
X152219900Y-95125114D01*
X152382531Y-95293523D01*
X152574775Y-95427136D01*
X152789311Y-95520865D01*
X153017965Y-95571138D01*
X153252030Y-95576041D01*
X153482590Y-95535387D01*
X153700862Y-95450725D01*
X153898533Y-95325279D01*
X154068073Y-95163828D01*
X154203025Y-94972521D01*
X154298249Y-94758645D01*
X154350117Y-94530347D01*
X154350815Y-94480378D01*
X154504631Y-94480378D01*
X154546894Y-94710648D01*
X154633077Y-94928324D01*
X154759900Y-95125114D01*
X154922531Y-95293523D01*
X155114775Y-95427136D01*
X155329311Y-95520865D01*
X155557965Y-95571138D01*
X155792030Y-95576041D01*
X156022590Y-95535387D01*
X156240862Y-95450725D01*
X156438533Y-95325279D01*
X156608073Y-95163828D01*
X156743025Y-94972521D01*
X156838249Y-94758645D01*
X156890117Y-94530347D01*
X156893851Y-94262942D01*
X156848377Y-94033284D01*
X156759163Y-93816833D01*
X156629605Y-93621833D01*
X156499682Y-93491000D01*
X157044725Y-93491000D01*
X157044725Y-95269000D01*
X157048745Y-95318461D01*
X157074411Y-95400540D01*
X157121883Y-95472248D01*
X157187420Y-95527932D01*
X157265853Y-95563201D01*
X157351000Y-95575275D01*
X159129000Y-95575275D01*
X159178461Y-95571255D01*
X159260540Y-95545589D01*
X159332248Y-95498117D01*
X159387932Y-95432580D01*
X159423201Y-95354147D01*
X159435275Y-95269000D01*
X159435275Y-93491000D01*
X159431255Y-93441539D01*
X159405589Y-93359460D01*
X159358117Y-93287752D01*
X159292580Y-93232068D01*
X159214147Y-93196799D01*
X159129000Y-93184725D01*
X157351000Y-93184725D01*
X157301539Y-93188745D01*
X157219460Y-93214411D01*
X157147752Y-93261883D01*
X157092068Y-93327420D01*
X157056799Y-93405853D01*
X157044725Y-93491000D01*
X156499682Y-93491000D01*
X156464639Y-93455711D01*
X156270547Y-93324795D01*
X156054724Y-93234071D01*
X155825390Y-93186995D01*
X155591279Y-93185361D01*
X155361310Y-93229230D01*
X155144241Y-93316931D01*
X154948341Y-93445125D01*
X154781071Y-93608927D01*
X154648804Y-93802100D01*
X154556575Y-94017284D01*
X154507900Y-94246285D01*
X154504631Y-94480378D01*
X154350815Y-94480378D01*
X154353851Y-94262942D01*
X154308377Y-94033284D01*
X154219163Y-93816833D01*
X154089605Y-93621833D01*
X153924639Y-93455711D01*
X153730547Y-93324795D01*
X153514724Y-93234071D01*
X153285390Y-93186995D01*
X153051279Y-93185361D01*
X152821310Y-93229230D01*
X152604241Y-93316931D01*
X152408341Y-93445125D01*
X152241071Y-93608927D01*
X152108804Y-93802100D01*
X152016575Y-94017284D01*
X151967900Y-94246285D01*
X151964631Y-94480378D01*
X151810815Y-94480378D01*
X151813851Y-94262942D01*
X151768377Y-94033284D01*
X151679163Y-93816833D01*
X151549605Y-93621833D01*
X151384639Y-93455711D01*
X151190547Y-93324795D01*
X150974724Y-93234071D01*
X150745390Y-93186995D01*
X150511279Y-93185361D01*
X150281310Y-93229230D01*
X150064241Y-93316931D01*
X149868341Y-93445125D01*
X149701071Y-93608927D01*
X149568804Y-93802100D01*
X149476575Y-94017284D01*
X149427900Y-94246285D01*
X149424631Y-94480378D01*
X149270815Y-94480378D01*
X149273851Y-94262942D01*
X149228377Y-94033284D01*
X149139163Y-93816833D01*
X149009605Y-93621833D01*
X148844639Y-93455711D01*
X148650547Y-93324795D01*
X148434724Y-93234071D01*
X148205390Y-93186995D01*
X147971279Y-93185361D01*
X147741310Y-93229230D01*
X147524241Y-93316931D01*
X147328341Y-93445125D01*
X147241800Y-93529872D01*
X147241800Y-93110000D01*
X147237906Y-93070289D01*
X147234431Y-93030570D01*
X147233798Y-93028390D01*
X147233576Y-93026130D01*
X147222048Y-92987947D01*
X147210920Y-92949643D01*
X147209875Y-92947627D01*
X147209219Y-92945454D01*
X147190497Y-92910243D01*
X147172137Y-92874824D01*
X147170720Y-92873049D01*
X147169655Y-92871046D01*
X147144455Y-92840147D01*
X147119562Y-92808964D01*
X147116449Y-92805807D01*
X147116393Y-92805739D01*
X147116330Y-92805687D01*
X147115328Y-92804671D01*
X146213660Y-91903003D01*
X147837715Y-91903003D01*
X147864241Y-92047535D01*
X147918335Y-92184161D01*
X147997937Y-92307678D01*
X148100014Y-92413382D01*
X148220678Y-92497246D01*
X148355333Y-92556075D01*
X148498851Y-92587630D01*
X148645764Y-92590707D01*
X148790477Y-92565190D01*
X148927477Y-92512051D01*
X149051548Y-92433314D01*
X149157961Y-92331977D01*
X149200411Y-92271800D01*
X159256000Y-92271800D01*
X159295661Y-92267911D01*
X159335430Y-92264432D01*
X159337615Y-92263797D01*
X159339870Y-92263576D01*
X159378011Y-92252061D01*
X159416357Y-92240920D01*
X159418373Y-92239875D01*
X159420546Y-92239219D01*
X159455738Y-92220507D01*
X159491175Y-92202138D01*
X159492952Y-92200720D01*
X159494954Y-92199655D01*
X159525848Y-92174459D01*
X159557036Y-92149562D01*
X159560197Y-92146445D01*
X159560261Y-92146393D01*
X159560310Y-92146334D01*
X159561329Y-92145329D01*
X161339329Y-90367329D01*
X161364641Y-90336513D01*
X161390284Y-90305953D01*
X161391379Y-90303961D01*
X161392819Y-90302208D01*
X161411651Y-90267086D01*
X161430883Y-90232104D01*
X161431570Y-90229938D01*
X161432642Y-90227939D01*
X161444299Y-90189812D01*
X161456364Y-90151776D01*
X161456617Y-90149519D01*
X161457281Y-90147348D01*
X161461314Y-90107644D01*
X161465758Y-90068029D01*
X161465789Y-90063597D01*
X161465798Y-90063507D01*
X161465790Y-90063423D01*
X161465800Y-90062000D01*
X161465800Y-88130378D01*
X163394631Y-88130378D01*
X163436894Y-88360648D01*
X163523077Y-88578324D01*
X163649900Y-88775114D01*
X163812531Y-88943523D01*
X164004775Y-89077136D01*
X164219311Y-89170865D01*
X164447965Y-89221138D01*
X164682030Y-89226041D01*
X164912590Y-89185387D01*
X165130862Y-89100725D01*
X165328533Y-88975279D01*
X165498073Y-88813828D01*
X165633025Y-88622521D01*
X165728249Y-88408645D01*
X165780117Y-88180347D01*
X165783851Y-87912942D01*
X165738377Y-87683284D01*
X165649163Y-87466833D01*
X165519605Y-87271833D01*
X165354639Y-87105711D01*
X165160547Y-86974795D01*
X164944724Y-86884071D01*
X164715390Y-86836995D01*
X164481279Y-86835361D01*
X164251310Y-86879230D01*
X164034241Y-86966931D01*
X163838341Y-87095125D01*
X163671071Y-87258927D01*
X163538804Y-87452100D01*
X163446575Y-87667284D01*
X163397900Y-87896285D01*
X163394631Y-88130378D01*
X161465800Y-88130378D01*
X161465800Y-85590378D01*
X163394631Y-85590378D01*
X163436894Y-85820648D01*
X163523077Y-86038324D01*
X163649900Y-86235114D01*
X163812531Y-86403523D01*
X164004775Y-86537136D01*
X164219311Y-86630865D01*
X164447965Y-86681138D01*
X164682030Y-86686041D01*
X164912590Y-86645387D01*
X165130862Y-86560725D01*
X165328533Y-86435279D01*
X165498073Y-86273828D01*
X165633025Y-86082521D01*
X165728249Y-85868645D01*
X165780117Y-85640347D01*
X165783851Y-85372942D01*
X165738377Y-85143284D01*
X165649163Y-84926833D01*
X165519605Y-84731833D01*
X165354639Y-84565711D01*
X165160547Y-84434795D01*
X164944724Y-84344071D01*
X164715390Y-84296995D01*
X164481279Y-84295361D01*
X164251310Y-84339230D01*
X164034241Y-84426931D01*
X163838341Y-84555125D01*
X163671071Y-84718927D01*
X163538804Y-84912100D01*
X163446575Y-85127284D01*
X163397900Y-85356285D01*
X163394631Y-85590378D01*
X161465800Y-85590378D01*
X161465800Y-84982000D01*
X161461906Y-84942289D01*
X161458431Y-84902570D01*
X161457798Y-84900390D01*
X161457576Y-84898130D01*
X161446048Y-84859947D01*
X161434920Y-84821643D01*
X161433875Y-84819627D01*
X161433219Y-84817454D01*
X161414497Y-84782243D01*
X161396137Y-84746824D01*
X161394720Y-84745049D01*
X161393655Y-84743046D01*
X161368455Y-84712147D01*
X161343562Y-84680964D01*
X161340449Y-84677807D01*
X161340393Y-84677739D01*
X161340330Y-84677687D01*
X161339328Y-84676671D01*
X159815329Y-83152671D01*
X159786846Y-83129275D01*
X160653000Y-83129275D01*
X160702461Y-83125255D01*
X160784540Y-83099589D01*
X160856248Y-83052117D01*
X160911932Y-82986580D01*
X160947201Y-82908147D01*
X160959275Y-82823000D01*
X160959275Y-82061000D01*
X163394725Y-82061000D01*
X163394725Y-83839000D01*
X163398745Y-83888461D01*
X163424411Y-83970540D01*
X163471883Y-84042248D01*
X163537420Y-84097932D01*
X163615853Y-84133201D01*
X163701000Y-84145275D01*
X165479000Y-84145275D01*
X165528461Y-84141255D01*
X165610540Y-84115589D01*
X165682248Y-84068117D01*
X165737932Y-84002580D01*
X165773201Y-83924147D01*
X165785275Y-83839000D01*
X165785275Y-82061000D01*
X165781255Y-82011539D01*
X165755589Y-81929460D01*
X165708117Y-81857752D01*
X165642580Y-81802068D01*
X165564147Y-81766799D01*
X165479000Y-81754725D01*
X163701000Y-81754725D01*
X163651539Y-81758745D01*
X163569460Y-81784411D01*
X163497752Y-81831883D01*
X163442068Y-81897420D01*
X163406799Y-81975853D01*
X163394725Y-82061000D01*
X160959275Y-82061000D01*
X160959275Y-81045000D01*
X160955255Y-80995539D01*
X160929589Y-80913460D01*
X160882117Y-80841752D01*
X160816580Y-80786068D01*
X160738147Y-80750799D01*
X160653000Y-80738725D01*
X158875000Y-80738725D01*
X158825539Y-80742745D01*
X158743460Y-80768411D01*
X158671752Y-80815883D01*
X158616068Y-80881420D01*
X158580799Y-80959853D01*
X158568725Y-81045000D01*
X158568725Y-82823000D01*
X158572745Y-82872461D01*
X158598411Y-82954540D01*
X158645851Y-83026200D01*
X157709496Y-83026200D01*
X157764862Y-83004725D01*
X157962533Y-82879279D01*
X158132073Y-82717828D01*
X158267025Y-82526521D01*
X158362249Y-82312645D01*
X158414117Y-82084347D01*
X158417851Y-81816942D01*
X158372377Y-81587284D01*
X158283163Y-81370833D01*
X158153605Y-81175833D01*
X157988639Y-81009711D01*
X157794547Y-80878795D01*
X157578724Y-80788071D01*
X157349390Y-80740995D01*
X157115279Y-80739361D01*
X156885310Y-80783230D01*
X156668241Y-80870931D01*
X156472341Y-80999125D01*
X156305071Y-81162927D01*
X156172804Y-81356100D01*
X156080575Y-81571284D01*
X156031900Y-81800285D01*
X156028631Y-82034378D01*
X156070894Y-82264648D01*
X156157077Y-82482324D01*
X156283900Y-82679114D01*
X156446531Y-82847523D01*
X156638775Y-82981136D01*
X156792200Y-83048166D01*
X156792200Y-83204000D01*
X156796089Y-83243661D01*
X156799568Y-83283430D01*
X156800203Y-83285615D01*
X156800424Y-83287870D01*
X156811939Y-83326011D01*
X156823080Y-83364357D01*
X156824125Y-83366373D01*
X156824781Y-83368546D01*
X156843493Y-83403738D01*
X156861862Y-83439175D01*
X156863280Y-83440952D01*
X156864345Y-83442954D01*
X156889541Y-83473848D01*
X156914438Y-83505036D01*
X156917555Y-83508197D01*
X156917607Y-83508261D01*
X156917666Y-83508310D01*
X156918671Y-83509329D01*
X157172671Y-83763329D01*
X157203482Y-83788637D01*
X157234047Y-83814284D01*
X157236040Y-83815380D01*
X157237791Y-83816818D01*
X157272896Y-83835641D01*
X157307896Y-83854883D01*
X157310062Y-83855570D01*
X157312061Y-83856642D01*
X157350159Y-83868289D01*
X157388224Y-83880364D01*
X157390484Y-83880618D01*
X157392651Y-83881280D01*
X157432271Y-83885305D01*
X157471971Y-83889758D01*
X157476413Y-83889789D01*
X157476492Y-83889797D01*
X157476566Y-83889790D01*
X157478000Y-83889800D01*
X159331142Y-83889800D01*
X160602200Y-85160857D01*
X160602200Y-89883142D01*
X159077142Y-91408200D01*
X149200757Y-91408200D01*
X149171476Y-91364129D01*
X149067933Y-91259861D01*
X148946110Y-91177690D01*
X148810646Y-91120746D01*
X148666702Y-91091199D01*
X148519760Y-91090173D01*
X148375418Y-91117708D01*
X148239172Y-91172754D01*
X148116214Y-91253216D01*
X148011225Y-91356028D01*
X147928206Y-91477275D01*
X147870318Y-91612338D01*
X147839766Y-91756072D01*
X147837715Y-91903003D01*
X146213660Y-91903003D01*
X144575329Y-90264671D01*
X144544513Y-90239359D01*
X144513953Y-90213716D01*
X144511961Y-90212621D01*
X144510208Y-90211181D01*
X144475086Y-90192349D01*
X144440104Y-90173117D01*
X144437938Y-90172430D01*
X144435939Y-90171358D01*
X144397853Y-90159715D01*
X144359776Y-90147636D01*
X144357514Y-90147382D01*
X144355348Y-90146720D01*
X144315689Y-90142691D01*
X144276029Y-90138242D01*
X144271598Y-90138211D01*
X144271508Y-90138202D01*
X144271424Y-90138210D01*
X144270000Y-90138200D01*
X140892858Y-90138200D01*
X140371661Y-89617003D01*
X144535715Y-89617003D01*
X144562241Y-89761535D01*
X144616335Y-89898161D01*
X144695937Y-90021678D01*
X144798014Y-90127382D01*
X144918678Y-90211246D01*
X145053333Y-90270075D01*
X145196851Y-90301630D01*
X145343764Y-90304707D01*
X145413715Y-90292373D01*
X145996671Y-90875329D01*
X146027487Y-90900641D01*
X146058047Y-90926284D01*
X146060039Y-90927379D01*
X146061792Y-90928819D01*
X146096914Y-90947651D01*
X146131896Y-90966883D01*
X146134062Y-90967570D01*
X146136061Y-90968642D01*
X146174147Y-90980285D01*
X146212224Y-90992364D01*
X146214486Y-90992618D01*
X146216652Y-90993280D01*
X146256311Y-90997309D01*
X146295971Y-91001758D01*
X146300402Y-91001789D01*
X146300492Y-91001798D01*
X146300576Y-91001790D01*
X146302000Y-91001800D01*
X150514815Y-91001800D01*
X150537937Y-91037678D01*
X150640014Y-91143382D01*
X150760678Y-91227246D01*
X150895333Y-91286075D01*
X151038851Y-91317630D01*
X151185764Y-91320707D01*
X151330477Y-91295190D01*
X151467477Y-91242051D01*
X151591548Y-91163314D01*
X151697961Y-91061977D01*
X151782665Y-90941902D01*
X151842433Y-90807660D01*
X151874989Y-90664367D01*
X151877333Y-90496527D01*
X151848791Y-90352380D01*
X151792794Y-90216523D01*
X151711476Y-90094129D01*
X151607933Y-89989861D01*
X151486110Y-89907690D01*
X151350646Y-89850746D01*
X151206702Y-89821199D01*
X151059760Y-89820173D01*
X150915418Y-89847708D01*
X150779172Y-89902754D01*
X150656214Y-89983216D01*
X150551225Y-90086028D01*
X150515502Y-90138200D01*
X146480858Y-90138200D01*
X146025220Y-89682562D01*
X146032989Y-89648367D01*
X146035333Y-89480527D01*
X146006791Y-89336380D01*
X145950794Y-89200523D01*
X145869476Y-89078129D01*
X145765933Y-88973861D01*
X145644110Y-88891690D01*
X145508646Y-88834746D01*
X145364702Y-88805199D01*
X145217760Y-88804173D01*
X145073418Y-88831708D01*
X144937172Y-88886754D01*
X144814214Y-88967216D01*
X144709225Y-89070028D01*
X144626206Y-89191275D01*
X144568318Y-89326338D01*
X144537766Y-89470072D01*
X144535715Y-89617003D01*
X140371661Y-89617003D01*
X139875800Y-89121142D01*
X139875800Y-88239199D01*
X154151460Y-88239199D01*
X154252171Y-88787927D01*
X154457545Y-89306644D01*
X154759761Y-89775591D01*
X155147307Y-90176907D01*
X155605421Y-90495304D01*
X156116655Y-90718657D01*
X156661535Y-90838456D01*
X157219306Y-90850140D01*
X157768725Y-90753263D01*
X158288863Y-90551515D01*
X158759908Y-90252580D01*
X159163920Y-89867845D01*
X159485508Y-89411965D01*
X159712424Y-88902303D01*
X159836024Y-88358273D01*
X159844922Y-87721053D01*
X159736560Y-87173784D01*
X159523963Y-86657985D01*
X159215229Y-86193303D01*
X158822118Y-85797438D01*
X158359603Y-85485467D01*
X157845301Y-85269275D01*
X157298801Y-85157095D01*
X156740921Y-85153200D01*
X156192909Y-85257739D01*
X155675638Y-85466729D01*
X155208812Y-85772212D01*
X154810212Y-86162550D01*
X154495020Y-86622876D01*
X154275243Y-87135656D01*
X154159250Y-87681359D01*
X154151460Y-88239199D01*
X139875800Y-88239199D01*
X139875800Y-86252000D01*
X139871906Y-86212289D01*
X139868431Y-86172570D01*
X139867798Y-86170390D01*
X139867576Y-86168130D01*
X139856048Y-86129947D01*
X139844920Y-86091643D01*
X139843875Y-86089627D01*
X139843219Y-86087454D01*
X139824497Y-86052243D01*
X139806137Y-86016824D01*
X139804720Y-86015049D01*
X139803655Y-86013046D01*
X139778455Y-85982147D01*
X139753562Y-85950964D01*
X139750449Y-85947807D01*
X139750393Y-85947739D01*
X139750330Y-85947687D01*
X139749328Y-85946671D01*
X138659220Y-84856562D01*
X138666989Y-84822367D01*
X138669333Y-84654527D01*
X138640791Y-84510380D01*
X138584794Y-84374523D01*
X138523989Y-84283003D01*
X143011715Y-84283003D01*
X143038241Y-84427535D01*
X143092335Y-84564161D01*
X143171937Y-84687678D01*
X143274014Y-84793382D01*
X143394678Y-84877246D01*
X143529333Y-84936075D01*
X143672851Y-84967630D01*
X143819764Y-84970707D01*
X143964477Y-84945190D01*
X144101477Y-84892051D01*
X144225548Y-84813314D01*
X144331961Y-84711977D01*
X144374411Y-84651800D01*
X151965142Y-84651800D01*
X152421170Y-85107828D01*
X152411766Y-85152072D01*
X152409715Y-85299003D01*
X152436241Y-85443535D01*
X152490335Y-85580161D01*
X152569937Y-85703678D01*
X152672014Y-85809382D01*
X152792678Y-85893246D01*
X152927333Y-85952075D01*
X153070851Y-85983630D01*
X153217764Y-85986707D01*
X153362477Y-85961190D01*
X153499477Y-85908051D01*
X153623548Y-85829314D01*
X153729961Y-85727977D01*
X153814665Y-85607902D01*
X153874433Y-85473660D01*
X153906989Y-85330367D01*
X153909333Y-85162527D01*
X153880791Y-85018380D01*
X153824794Y-84882523D01*
X153743476Y-84760129D01*
X153639933Y-84655861D01*
X153518110Y-84573690D01*
X153382646Y-84516746D01*
X153238702Y-84487199D01*
X153091760Y-84486173D01*
X153032194Y-84497536D01*
X152449329Y-83914671D01*
X152418513Y-83889359D01*
X152387953Y-83863716D01*
X152385961Y-83862621D01*
X152384208Y-83861181D01*
X152349086Y-83842349D01*
X152314104Y-83823117D01*
X152311938Y-83822430D01*
X152309939Y-83821358D01*
X152271853Y-83809715D01*
X152233776Y-83797636D01*
X152231514Y-83797382D01*
X152229348Y-83796720D01*
X152189689Y-83792691D01*
X152150029Y-83788242D01*
X152145598Y-83788211D01*
X152145508Y-83788202D01*
X152145424Y-83788210D01*
X152144000Y-83788200D01*
X144374757Y-83788200D01*
X144345476Y-83744129D01*
X144241933Y-83639861D01*
X144120110Y-83557690D01*
X143984646Y-83500746D01*
X143840702Y-83471199D01*
X143693760Y-83470173D01*
X143549418Y-83497708D01*
X143413172Y-83552754D01*
X143290214Y-83633216D01*
X143185225Y-83736028D01*
X143102206Y-83857275D01*
X143044318Y-83992338D01*
X143013766Y-84136072D01*
X143011715Y-84283003D01*
X138523989Y-84283003D01*
X138503476Y-84252129D01*
X138399933Y-84147861D01*
X138278110Y-84065690D01*
X138142646Y-84008746D01*
X137998702Y-83979199D01*
X137935504Y-83978758D01*
X138975929Y-82938333D01*
X138993764Y-82938707D01*
X139138477Y-82913190D01*
X139275477Y-82860051D01*
X139399548Y-82781314D01*
X139505961Y-82679977D01*
X139590665Y-82559902D01*
X139650433Y-82425660D01*
X139682989Y-82282367D01*
X139685333Y-82114527D01*
X139669463Y-82034378D01*
X153488631Y-82034378D01*
X153530894Y-82264648D01*
X153617077Y-82482324D01*
X153743900Y-82679114D01*
X153906531Y-82847523D01*
X154098775Y-82981136D01*
X154313311Y-83074865D01*
X154541965Y-83125138D01*
X154776030Y-83130041D01*
X155006590Y-83089387D01*
X155224862Y-83004725D01*
X155422533Y-82879279D01*
X155592073Y-82717828D01*
X155727025Y-82526521D01*
X155822249Y-82312645D01*
X155874117Y-82084347D01*
X155877851Y-81816942D01*
X155832377Y-81587284D01*
X155743163Y-81370833D01*
X155613605Y-81175833D01*
X155448639Y-81009711D01*
X155254547Y-80878795D01*
X155038724Y-80788071D01*
X154809390Y-80740995D01*
X154575279Y-80739361D01*
X154345310Y-80783230D01*
X154128241Y-80870931D01*
X153932341Y-80999125D01*
X153765071Y-81162927D01*
X153632804Y-81356100D01*
X153540575Y-81571284D01*
X153491900Y-81800285D01*
X153488631Y-82034378D01*
X139669463Y-82034378D01*
X139656791Y-81970380D01*
X139600794Y-81834523D01*
X139519476Y-81712129D01*
X139415933Y-81607861D01*
X139294110Y-81525690D01*
X139158646Y-81468746D01*
X139014702Y-81439199D01*
X138867760Y-81438173D01*
X138723418Y-81465708D01*
X138587172Y-81520754D01*
X138464214Y-81601216D01*
X138359225Y-81704028D01*
X138276206Y-81825275D01*
X138218318Y-81960338D01*
X138187766Y-82104072D01*
X138187173Y-82146565D01*
X136672538Y-83661200D01*
X125474000Y-83661200D01*
X125422591Y-83666241D01*
X125371208Y-83670736D01*
X125368389Y-83671555D01*
X125365462Y-83671842D01*
X125316056Y-83686759D01*
X125266479Y-83701162D01*
X125263867Y-83702516D01*
X125261058Y-83703364D01*
X125215542Y-83727566D01*
X125169655Y-83751351D01*
X125167356Y-83753187D01*
X125164765Y-83754564D01*
X125124826Y-83787137D01*
X125084423Y-83819390D01*
X125080331Y-83823426D01*
X125080250Y-83823492D01*
X125080187Y-83823568D01*
X125078868Y-83824869D01*
X123593013Y-85310725D01*
X123061000Y-85310725D01*
X123011539Y-85314745D01*
X122929460Y-85340411D01*
X122857752Y-85387883D01*
X122802068Y-85453420D01*
X122766799Y-85531853D01*
X122754725Y-85617000D01*
X118379800Y-85617000D01*
X118379800Y-81518572D01*
X118412443Y-81185657D01*
X118454910Y-81045000D01*
X123008725Y-81045000D01*
X123008725Y-82823000D01*
X123012745Y-82872461D01*
X123038411Y-82954540D01*
X123085883Y-83026248D01*
X123151420Y-83081932D01*
X123229853Y-83117201D01*
X123315000Y-83129275D01*
X125093000Y-83129275D01*
X125142461Y-83125255D01*
X125224540Y-83099589D01*
X125296248Y-83052117D01*
X125351932Y-82986580D01*
X125387201Y-82908147D01*
X125399275Y-82823000D01*
X125399275Y-82034378D01*
X125548631Y-82034378D01*
X125590894Y-82264648D01*
X125677077Y-82482324D01*
X125803900Y-82679114D01*
X125966531Y-82847523D01*
X126158775Y-82981136D01*
X126373311Y-83074865D01*
X126601965Y-83125138D01*
X126836030Y-83130041D01*
X127066590Y-83089387D01*
X127284862Y-83004725D01*
X127482533Y-82879279D01*
X127652073Y-82717828D01*
X127787025Y-82526521D01*
X127882249Y-82312645D01*
X127934117Y-82084347D01*
X127934815Y-82034378D01*
X128088631Y-82034378D01*
X128130894Y-82264648D01*
X128217077Y-82482324D01*
X128343900Y-82679114D01*
X128506531Y-82847523D01*
X128698775Y-82981136D01*
X128913311Y-83074865D01*
X129141965Y-83125138D01*
X129376030Y-83130041D01*
X129606590Y-83089387D01*
X129824862Y-83004725D01*
X130022533Y-82879279D01*
X130192073Y-82717828D01*
X130327025Y-82526521D01*
X130422249Y-82312645D01*
X130474117Y-82084347D01*
X130477851Y-81816942D01*
X130432377Y-81587284D01*
X130343163Y-81370833D01*
X130213605Y-81175833D01*
X130048639Y-81009711D01*
X129854547Y-80878795D01*
X129638724Y-80788071D01*
X129409390Y-80740995D01*
X129175279Y-80739361D01*
X128945310Y-80783230D01*
X128728241Y-80870931D01*
X128532341Y-80999125D01*
X128365071Y-81162927D01*
X128232804Y-81356100D01*
X128140575Y-81571284D01*
X128091900Y-81800285D01*
X128088631Y-82034378D01*
X127934815Y-82034378D01*
X127937851Y-81816942D01*
X127892377Y-81587284D01*
X127803163Y-81370833D01*
X127673605Y-81175833D01*
X127508639Y-81009711D01*
X127314547Y-80878795D01*
X127098724Y-80788071D01*
X126869390Y-80740995D01*
X126635279Y-80739361D01*
X126405310Y-80783230D01*
X126188241Y-80870931D01*
X125992341Y-80999125D01*
X125825071Y-81162927D01*
X125692804Y-81356100D01*
X125600575Y-81571284D01*
X125551900Y-81800285D01*
X125548631Y-82034378D01*
X125399275Y-82034378D01*
X125399275Y-81045000D01*
X125395255Y-80995539D01*
X125369589Y-80913460D01*
X125322117Y-80841752D01*
X125256580Y-80786068D01*
X125178147Y-80750799D01*
X125093000Y-80738725D01*
X123315000Y-80738725D01*
X123265539Y-80742745D01*
X123183460Y-80768411D01*
X123111752Y-80815883D01*
X123056068Y-80881420D01*
X123020799Y-80959853D01*
X123008725Y-81045000D01*
X118454910Y-81045000D01*
X118503735Y-80883282D01*
X118652017Y-80604405D01*
X118851646Y-80359636D01*
X119095014Y-80158304D01*
X119372854Y-80008077D01*
X119674583Y-79914676D01*
X120006404Y-79879800D01*
X165981428Y-79879800D01*
X166314343Y-79912443D01*
M02*
