M48
;DRILL file {KiCad (2015-07-24 BZR 5989, Git 9b9c794)-product} date 1/12/2015 8:53:37 AM
;FORMAT={-:-/ absolute / metric / decimal}
FMAT,2
METRIC,TZ
T1C0.381
T2C0.813
T3C1.000
T4C1.016
T5C1.200
T6C2.300
T7C3.048
%
G90
G05
M71
T1
X125.007Y-108.309
X126.236Y-105.302
X127.252Y-120.542
X128.257Y-100.973
X131.57Y-92.094
X131.824Y-103.524
X132.84Y-110.382
X133.856Y-89.554
X135.38Y-87.014
X137.666Y-85.998
X137.92Y-84.728
X138.936Y-82.188
X141.73Y-109.874
X142.238Y-80.918
X143.Y-104.794
X143.762Y-84.22
X144.27Y-92.602
X145.286Y-89.554
X148.334Y-102.
X148.588Y-91.84
X150.366Y-108.858
X150.874Y-98.952
X151.128Y-90.57
X151.382Y-106.318
X152.398Y-114.446
X152.906Y-109.112
X153.16Y-85.236
X153.414Y-112.668
X154.684Y-106.318
X154.684Y-112.668
X155.446Y-104.032
X159.256Y-108.604
X159.256Y-109.874
X160.526Y-99.206
X161.034Y-110.128
X161.034Y-112.668
T2
X124.966Y-125.622
X127.506Y-125.622
X164.59Y-82.95
X164.59Y-85.49
X164.59Y-88.03
T3
X141.75Y-118.88
X141.75Y-120.88
X144.25Y-118.88
X144.25Y-120.88
T4
X123.95Y-86.506
X123.95Y-89.046
X124.204Y-81.934
X126.744Y-81.934
X127.76Y-94.38
X127.76Y-96.92
X129.284Y-81.934
X130.3Y-94.38
X130.3Y-96.92
X132.84Y-94.38
X132.84Y-96.92
X135.38Y-94.38
X135.38Y-96.92
X135.38Y-103.524
X135.38Y-106.064
X137.92Y-94.38
X137.92Y-96.92
X137.92Y-103.524
X137.92Y-106.064
X140.46Y-94.38
X140.46Y-96.92
X140.46Y-103.524
X140.46Y-106.064
X143.Y-94.38
X143.Y-96.92
X145.54Y-94.38
X145.54Y-96.92
X148.08Y-94.38
X148.08Y-96.92
X150.62Y-94.38
X150.62Y-96.92
X153.16Y-94.38
X153.16Y-96.92
X154.684Y-81.934
X155.7Y-94.38
X155.7Y-96.92
X157.224Y-81.934
X158.24Y-94.38
X158.24Y-96.92
X159.764Y-81.934
T5
X154.26Y-125.876
X157.76Y-125.876
X161.26Y-125.876
X164.76Y-125.876
T6
X136.98Y-123.59
X149.02Y-123.59
T7
X129.Y-88.
X129.Y-116.
X157.Y-88.
X157.Y-116.
T0
M30
